G75*
%MOIN*%
%OFA0B0*%
%FSLAX24Y24*%
%IPPOS*%
%LPD*%
%AMOC8*
5,1,8,0,0,1.08239X$1,22.5*
%
%ADD10OC8,0.0610*%
%ADD11C,0.0400*%
%ADD12R,0.0394X0.0394*%
%ADD13R,0.0394X0.0433*%
%ADD14C,0.0087*%
%ADD15C,0.0190*%
%ADD16C,0.0142*%
%ADD17C,0.0394*%
%ADD18R,0.0315X0.1378*%
%ADD19R,0.1378X0.0315*%
%ADD20R,0.0396X0.0396*%
%ADD21R,0.0984X0.0561*%
%ADD22R,0.0965X0.0512*%
%ADD23R,0.0276X0.0719*%
%ADD24R,0.0575X0.0787*%
%ADD25R,0.0689X0.0157*%
%ADD26R,0.2100X0.0760*%
%ADD27R,0.0394X0.0098*%
%ADD28R,0.0354X0.1024*%
%ADD29R,0.0472X0.0315*%
%ADD30R,0.0433X0.0394*%
%ADD31R,0.0787X0.0472*%
%ADD32R,0.0098X0.0394*%
%ADD33R,0.1024X0.0354*%
%ADD34R,0.0315X0.0472*%
%ADD35R,0.0472X0.0787*%
%ADD36R,0.0394X0.1811*%
%ADD37R,0.0630X0.1339*%
%ADD38R,0.0276X0.0472*%
%ADD39R,0.0394X0.0551*%
%ADD40R,0.0531X0.0531*%
%ADD41R,0.0602X0.0602*%
%ADD42R,0.0551X0.0394*%
%ADD43R,0.0472X0.0472*%
%ADD44R,0.0472X0.0217*%
%ADD45R,0.1181X0.0472*%
%ADD46R,0.0453X0.0118*%
%ADD47R,0.0394X0.1181*%
%ADD48R,0.0394X0.0472*%
%ADD49R,0.0472X0.0394*%
%ADD50R,0.0531X0.0177*%
%ADD51R,0.1091X0.1004*%
%ADD52R,0.0394X0.0709*%
%ADD53R,0.0472X0.0669*%
%ADD54R,0.0197X0.0394*%
%ADD55C,0.0079*%
%ADD56C,0.0157*%
%ADD57R,0.0376X0.0376*%
%ADD58C,0.0315*%
%ADD59C,0.0118*%
%ADD60C,0.0160*%
%ADD61C,0.0126*%
%ADD62C,0.0236*%
D10*
X017160Y006149D03*
X017160Y007149D03*
X017160Y008149D03*
X018160Y008149D03*
X018160Y007149D03*
X018160Y006149D03*
D11*
X001920Y015739D03*
X028881Y026219D03*
X035125Y006566D03*
D12*
X012582Y014747D03*
X012582Y015534D03*
X012582Y016322D03*
X012582Y017109D03*
X004314Y008054D03*
X004314Y007267D03*
X003526Y007267D03*
X002739Y007267D03*
X002739Y006479D03*
X002739Y005692D03*
X003526Y005692D03*
X003526Y006479D03*
D13*
X005298Y007129D03*
X005298Y007798D03*
X006676Y008113D03*
X006676Y008782D03*
X011991Y007798D03*
X011991Y007129D03*
X012975Y005830D03*
X012975Y005160D03*
X011794Y005239D03*
X011794Y004570D03*
X011550Y002255D03*
X011550Y001586D03*
X020574Y005554D03*
X020574Y006223D03*
X022385Y006420D03*
X022385Y005751D03*
X028526Y007916D03*
X028526Y008586D03*
X026755Y012050D03*
X026755Y012719D03*
X028133Y012641D03*
X028133Y013310D03*
X021715Y013310D03*
X021715Y012641D03*
X019274Y011735D03*
X019274Y011066D03*
X013369Y014806D03*
X013369Y015475D03*
X013369Y016381D03*
X013369Y017050D03*
X010139Y019824D03*
X010139Y020493D03*
X008841Y021499D03*
X008841Y022168D03*
X006676Y023271D03*
X006676Y023940D03*
X005692Y023743D03*
X005692Y023074D03*
X005101Y020397D03*
X005101Y019727D03*
X008251Y019609D03*
X008251Y018940D03*
X022030Y019727D03*
X022030Y020397D03*
X024589Y027995D03*
X024589Y028664D03*
D14*
X024582Y011215D02*
X024582Y011007D01*
X024582Y011215D02*
X024604Y011215D01*
X024604Y011007D01*
X024582Y011007D01*
X024582Y011093D02*
X024604Y011093D01*
X024604Y011179D02*
X024582Y011179D01*
X024386Y011215D02*
X024386Y011007D01*
X024386Y011215D02*
X024408Y011215D01*
X024408Y011007D01*
X024386Y011007D01*
X024386Y011093D02*
X024408Y011093D01*
X024408Y011179D02*
X024386Y011179D01*
X024189Y011215D02*
X024189Y011007D01*
X024189Y011215D02*
X024211Y011215D01*
X024211Y011007D01*
X024189Y011007D01*
X024189Y011093D02*
X024211Y011093D01*
X024211Y011179D02*
X024189Y011179D01*
X023992Y011215D02*
X023992Y011007D01*
X023992Y011215D02*
X024014Y011215D01*
X024014Y011007D01*
X023992Y011007D01*
X023992Y011093D02*
X024014Y011093D01*
X024014Y011179D02*
X023992Y011179D01*
X023795Y011215D02*
X023795Y011007D01*
X023795Y011215D02*
X023817Y011215D01*
X023817Y011007D01*
X023795Y011007D01*
X023795Y011093D02*
X023817Y011093D01*
X023817Y011179D02*
X023795Y011179D01*
X023598Y011215D02*
X023598Y011007D01*
X023598Y011215D02*
X023620Y011215D01*
X023620Y011007D01*
X023598Y011007D01*
X023598Y011093D02*
X023620Y011093D01*
X023620Y011179D02*
X023598Y011179D01*
X023401Y011215D02*
X023401Y011007D01*
X023401Y011215D02*
X023423Y011215D01*
X023423Y011007D01*
X023401Y011007D01*
X023401Y011093D02*
X023423Y011093D01*
X023423Y011179D02*
X023401Y011179D01*
X023211Y010795D02*
X023003Y010795D01*
X023003Y010817D01*
X023211Y010817D01*
X023211Y010795D01*
X023211Y010598D02*
X023003Y010598D01*
X023003Y010620D01*
X023211Y010620D01*
X023211Y010598D01*
X023211Y010401D02*
X023003Y010401D01*
X023003Y010423D01*
X023211Y010423D01*
X023211Y010401D01*
X023211Y010204D02*
X023003Y010204D01*
X023003Y010226D01*
X023211Y010226D01*
X023211Y010204D01*
X023211Y010008D02*
X023003Y010008D01*
X023003Y010030D01*
X023211Y010030D01*
X023211Y010008D01*
X023211Y009811D02*
X023003Y009811D01*
X023003Y009833D01*
X023211Y009833D01*
X023211Y009811D01*
X023211Y009614D02*
X023003Y009614D01*
X023003Y009636D01*
X023211Y009636D01*
X023211Y009614D01*
X023211Y009417D02*
X023003Y009417D01*
X023003Y009439D01*
X023211Y009439D01*
X023211Y009417D01*
X023211Y009220D02*
X023003Y009220D01*
X023003Y009242D01*
X023211Y009242D01*
X023211Y009220D01*
X023211Y009023D02*
X023003Y009023D01*
X023003Y009045D01*
X023211Y009045D01*
X023211Y009023D01*
X023211Y008826D02*
X023003Y008826D01*
X023003Y008848D01*
X023211Y008848D01*
X023211Y008826D01*
X023423Y008636D02*
X023423Y008428D01*
X023401Y008428D01*
X023401Y008636D01*
X023423Y008636D01*
X023423Y008514D02*
X023401Y008514D01*
X023401Y008600D02*
X023423Y008600D01*
X023620Y008636D02*
X023620Y008428D01*
X023598Y008428D01*
X023598Y008636D01*
X023620Y008636D01*
X023620Y008514D02*
X023598Y008514D01*
X023598Y008600D02*
X023620Y008600D01*
X023817Y008636D02*
X023817Y008428D01*
X023795Y008428D01*
X023795Y008636D01*
X023817Y008636D01*
X023817Y008514D02*
X023795Y008514D01*
X023795Y008600D02*
X023817Y008600D01*
X024014Y008636D02*
X024014Y008428D01*
X023992Y008428D01*
X023992Y008636D01*
X024014Y008636D01*
X024014Y008514D02*
X023992Y008514D01*
X023992Y008600D02*
X024014Y008600D01*
X024211Y008636D02*
X024211Y008428D01*
X024189Y008428D01*
X024189Y008636D01*
X024211Y008636D01*
X024211Y008514D02*
X024189Y008514D01*
X024189Y008600D02*
X024211Y008600D01*
X024408Y008636D02*
X024408Y008428D01*
X024386Y008428D01*
X024386Y008636D01*
X024408Y008636D01*
X024408Y008514D02*
X024386Y008514D01*
X024386Y008600D02*
X024408Y008600D01*
X024604Y008636D02*
X024604Y008428D01*
X024582Y008428D01*
X024582Y008636D01*
X024604Y008636D01*
X024604Y008514D02*
X024582Y008514D01*
X024582Y008600D02*
X024604Y008600D01*
X024801Y008636D02*
X024801Y008428D01*
X024779Y008428D01*
X024779Y008636D01*
X024801Y008636D01*
X024801Y008514D02*
X024779Y008514D01*
X024779Y008600D02*
X024801Y008600D01*
X024998Y008636D02*
X024998Y008428D01*
X024976Y008428D01*
X024976Y008636D01*
X024998Y008636D01*
X024998Y008514D02*
X024976Y008514D01*
X024976Y008600D02*
X024998Y008600D01*
X025195Y008636D02*
X025195Y008428D01*
X025173Y008428D01*
X025173Y008636D01*
X025195Y008636D01*
X025195Y008514D02*
X025173Y008514D01*
X025173Y008600D02*
X025195Y008600D01*
X025392Y008636D02*
X025392Y008428D01*
X025370Y008428D01*
X025370Y008636D01*
X025392Y008636D01*
X025392Y008514D02*
X025370Y008514D01*
X025370Y008600D02*
X025392Y008600D01*
X025582Y008848D02*
X025790Y008848D01*
X025790Y008826D01*
X025582Y008826D01*
X025582Y008848D01*
X025582Y009045D02*
X025790Y009045D01*
X025790Y009023D01*
X025582Y009023D01*
X025582Y009045D01*
X025582Y009242D02*
X025790Y009242D01*
X025790Y009220D01*
X025582Y009220D01*
X025582Y009242D01*
X025582Y009439D02*
X025790Y009439D01*
X025790Y009417D01*
X025582Y009417D01*
X025582Y009439D01*
X025582Y009636D02*
X025790Y009636D01*
X025790Y009614D01*
X025582Y009614D01*
X025582Y009636D01*
X025582Y009833D02*
X025790Y009833D01*
X025790Y009811D01*
X025582Y009811D01*
X025582Y009833D01*
X025582Y010030D02*
X025790Y010030D01*
X025790Y010008D01*
X025582Y010008D01*
X025582Y010030D01*
X025582Y010226D02*
X025790Y010226D01*
X025790Y010204D01*
X025582Y010204D01*
X025582Y010226D01*
X025582Y010423D02*
X025790Y010423D01*
X025790Y010401D01*
X025582Y010401D01*
X025582Y010423D01*
X025582Y010620D02*
X025790Y010620D01*
X025790Y010598D01*
X025582Y010598D01*
X025582Y010620D01*
X025582Y010817D02*
X025790Y010817D01*
X025790Y010795D01*
X025582Y010795D01*
X025582Y010817D01*
X025370Y011007D02*
X025370Y011215D01*
X025392Y011215D01*
X025392Y011007D01*
X025370Y011007D01*
X025370Y011093D02*
X025392Y011093D01*
X025392Y011179D02*
X025370Y011179D01*
X025173Y011215D02*
X025173Y011007D01*
X025173Y011215D02*
X025195Y011215D01*
X025195Y011007D01*
X025173Y011007D01*
X025173Y011093D02*
X025195Y011093D01*
X025195Y011179D02*
X025173Y011179D01*
X024976Y011215D02*
X024976Y011007D01*
X024976Y011215D02*
X024998Y011215D01*
X024998Y011007D01*
X024976Y011007D01*
X024976Y011093D02*
X024998Y011093D01*
X024998Y011179D02*
X024976Y011179D01*
X024779Y011215D02*
X024779Y011007D01*
X024779Y011215D02*
X024801Y011215D01*
X024801Y011007D01*
X024779Y011007D01*
X024779Y011093D02*
X024801Y011093D01*
X024801Y011179D02*
X024779Y011179D01*
D15*
X025252Y008967D02*
X023542Y008967D01*
X023542Y010677D01*
X025252Y010677D01*
X025252Y008967D01*
X025252Y009156D02*
X023542Y009156D01*
X023542Y009345D02*
X025252Y009345D01*
X025252Y009534D02*
X023542Y009534D01*
X023542Y009723D02*
X025252Y009723D01*
X025252Y009912D02*
X023542Y009912D01*
X023542Y010101D02*
X025252Y010101D01*
X025252Y010290D02*
X023542Y010290D01*
X023542Y010479D02*
X025252Y010479D01*
X025252Y010668D02*
X023542Y010668D01*
D16*
X022317Y010750D02*
X021909Y010750D01*
X021909Y010784D01*
X022317Y010784D01*
X022317Y010750D01*
X022317Y010435D02*
X021909Y010435D01*
X021909Y010469D01*
X022317Y010469D01*
X022317Y010435D01*
X022317Y010120D02*
X021909Y010120D01*
X021909Y010154D01*
X022317Y010154D01*
X022317Y010120D01*
X022317Y009805D02*
X021909Y009805D01*
X021909Y009839D01*
X022317Y009839D01*
X022317Y009805D01*
X022317Y009490D02*
X021909Y009490D01*
X021909Y009524D01*
X022317Y009524D01*
X022317Y009490D01*
X022317Y009175D02*
X021909Y009175D01*
X021909Y009209D01*
X022317Y009209D01*
X022317Y009175D01*
X022317Y008860D02*
X021909Y008860D01*
X021909Y008894D01*
X022317Y008894D01*
X022317Y008860D01*
X022317Y008545D02*
X021909Y008545D01*
X021909Y008579D01*
X022317Y008579D01*
X022317Y008545D01*
X022317Y008230D02*
X021909Y008230D01*
X021909Y008264D01*
X022317Y008264D01*
X022317Y008230D01*
X022805Y007334D02*
X022839Y007334D01*
X022805Y007334D02*
X022805Y007742D01*
X022839Y007742D01*
X022839Y007334D01*
X022839Y007475D02*
X022805Y007475D01*
X022805Y007616D02*
X022839Y007616D01*
X023120Y007334D02*
X023154Y007334D01*
X023120Y007334D02*
X023120Y007742D01*
X023154Y007742D01*
X023154Y007334D01*
X023154Y007475D02*
X023120Y007475D01*
X023120Y007616D02*
X023154Y007616D01*
X023435Y007334D02*
X023469Y007334D01*
X023435Y007334D02*
X023435Y007742D01*
X023469Y007742D01*
X023469Y007334D01*
X023469Y007475D02*
X023435Y007475D01*
X023435Y007616D02*
X023469Y007616D01*
X023750Y007334D02*
X023784Y007334D01*
X023750Y007334D02*
X023750Y007742D01*
X023784Y007742D01*
X023784Y007334D01*
X023784Y007475D02*
X023750Y007475D01*
X023750Y007616D02*
X023784Y007616D01*
X024065Y007334D02*
X024099Y007334D01*
X024065Y007334D02*
X024065Y007742D01*
X024099Y007742D01*
X024099Y007334D01*
X024099Y007475D02*
X024065Y007475D01*
X024065Y007616D02*
X024099Y007616D01*
X024380Y007334D02*
X024414Y007334D01*
X024380Y007334D02*
X024380Y007742D01*
X024414Y007742D01*
X024414Y007334D01*
X024414Y007475D02*
X024380Y007475D01*
X024380Y007616D02*
X024414Y007616D01*
X024694Y007334D02*
X024728Y007334D01*
X024694Y007334D02*
X024694Y007742D01*
X024728Y007742D01*
X024728Y007334D01*
X024728Y007475D02*
X024694Y007475D01*
X024694Y007616D02*
X024728Y007616D01*
X025009Y007334D02*
X025043Y007334D01*
X025009Y007334D02*
X025009Y007742D01*
X025043Y007742D01*
X025043Y007334D01*
X025043Y007475D02*
X025009Y007475D01*
X025009Y007616D02*
X025043Y007616D01*
X025324Y007334D02*
X025358Y007334D01*
X025324Y007334D02*
X025324Y007742D01*
X025358Y007742D01*
X025358Y007334D01*
X025358Y007475D02*
X025324Y007475D01*
X025324Y007616D02*
X025358Y007616D01*
X025639Y007334D02*
X025673Y007334D01*
X025639Y007334D02*
X025639Y007742D01*
X025673Y007742D01*
X025673Y007334D01*
X025673Y007475D02*
X025639Y007475D01*
X025639Y007616D02*
X025673Y007616D01*
X025954Y007334D02*
X025988Y007334D01*
X025954Y007334D02*
X025954Y007742D01*
X025988Y007742D01*
X025988Y007334D01*
X025988Y007475D02*
X025954Y007475D01*
X025954Y007616D02*
X025988Y007616D01*
X026476Y008230D02*
X026884Y008230D01*
X026476Y008230D02*
X026476Y008264D01*
X026884Y008264D01*
X026884Y008230D01*
X026884Y008545D02*
X026476Y008545D01*
X026476Y008579D01*
X026884Y008579D01*
X026884Y008545D01*
X026884Y008860D02*
X026476Y008860D01*
X026476Y008894D01*
X026884Y008894D01*
X026884Y008860D01*
X026884Y009175D02*
X026476Y009175D01*
X026476Y009209D01*
X026884Y009209D01*
X026884Y009175D01*
X026884Y009490D02*
X026476Y009490D01*
X026476Y009524D01*
X026884Y009524D01*
X026884Y009490D01*
X026884Y009805D02*
X026476Y009805D01*
X026476Y009839D01*
X026884Y009839D01*
X026884Y009805D01*
X026884Y010120D02*
X026476Y010120D01*
X026476Y010154D01*
X026884Y010154D01*
X026884Y010120D01*
X026884Y010435D02*
X026476Y010435D01*
X026476Y010469D01*
X026884Y010469D01*
X026884Y010435D01*
X026884Y010750D02*
X026476Y010750D01*
X026476Y010784D01*
X026884Y010784D01*
X026884Y010750D01*
X026884Y011065D02*
X026476Y011065D01*
X026476Y011099D01*
X026884Y011099D01*
X026884Y011065D01*
X026884Y011380D02*
X026476Y011380D01*
X026476Y011414D01*
X026884Y011414D01*
X026884Y011380D01*
X025988Y011901D02*
X025954Y011901D01*
X025954Y012309D01*
X025988Y012309D01*
X025988Y011901D01*
X025988Y012042D02*
X025954Y012042D01*
X025954Y012183D02*
X025988Y012183D01*
X025673Y011901D02*
X025639Y011901D01*
X025639Y012309D01*
X025673Y012309D01*
X025673Y011901D01*
X025673Y012042D02*
X025639Y012042D01*
X025639Y012183D02*
X025673Y012183D01*
X025358Y011901D02*
X025324Y011901D01*
X025324Y012309D01*
X025358Y012309D01*
X025358Y011901D01*
X025358Y012042D02*
X025324Y012042D01*
X025324Y012183D02*
X025358Y012183D01*
X025043Y011901D02*
X025009Y011901D01*
X025009Y012309D01*
X025043Y012309D01*
X025043Y011901D01*
X025043Y012042D02*
X025009Y012042D01*
X025009Y012183D02*
X025043Y012183D01*
X024728Y011901D02*
X024694Y011901D01*
X024694Y012309D01*
X024728Y012309D01*
X024728Y011901D01*
X024728Y012042D02*
X024694Y012042D01*
X024694Y012183D02*
X024728Y012183D01*
X024414Y011901D02*
X024380Y011901D01*
X024380Y012309D01*
X024414Y012309D01*
X024414Y011901D01*
X024414Y012042D02*
X024380Y012042D01*
X024380Y012183D02*
X024414Y012183D01*
X024099Y011901D02*
X024065Y011901D01*
X024065Y012309D01*
X024099Y012309D01*
X024099Y011901D01*
X024099Y012042D02*
X024065Y012042D01*
X024065Y012183D02*
X024099Y012183D01*
X023784Y011901D02*
X023750Y011901D01*
X023750Y012309D01*
X023784Y012309D01*
X023784Y011901D01*
X023784Y012042D02*
X023750Y012042D01*
X023750Y012183D02*
X023784Y012183D01*
X023469Y011901D02*
X023435Y011901D01*
X023435Y012309D01*
X023469Y012309D01*
X023469Y011901D01*
X023469Y012042D02*
X023435Y012042D01*
X023435Y012183D02*
X023469Y012183D01*
X023154Y011901D02*
X023120Y011901D01*
X023120Y012309D01*
X023154Y012309D01*
X023154Y011901D01*
X023154Y012042D02*
X023120Y012042D01*
X023120Y012183D02*
X023154Y012183D01*
X022839Y011901D02*
X022805Y011901D01*
X022805Y012309D01*
X022839Y012309D01*
X022839Y011901D01*
X022839Y012042D02*
X022805Y012042D01*
X022805Y012183D02*
X022839Y012183D01*
X022317Y011380D02*
X021909Y011380D01*
X021909Y011414D01*
X022317Y011414D01*
X022317Y011380D01*
X022317Y011065D02*
X021909Y011065D01*
X021909Y011099D01*
X022317Y011099D01*
X022317Y011065D01*
D17*
X024397Y009822D03*
D18*
X025114Y018375D03*
X025586Y018375D03*
X026059Y018375D03*
X026531Y018375D03*
X027004Y018375D03*
X027476Y018375D03*
X027949Y018375D03*
X028421Y018375D03*
X028894Y018375D03*
X029366Y018375D03*
X029838Y018375D03*
X030311Y018375D03*
X030783Y018375D03*
X030783Y023887D03*
X030311Y023887D03*
X029838Y023887D03*
X029366Y023887D03*
X028894Y023887D03*
X028421Y023887D03*
X027949Y023887D03*
X027476Y023887D03*
X027004Y023887D03*
X026531Y023887D03*
X026059Y023887D03*
X025586Y023887D03*
X025114Y023887D03*
D19*
X023894Y022273D03*
X023894Y021800D03*
X023894Y021328D03*
X023894Y020855D03*
X023894Y020383D03*
X023894Y019910D03*
D20*
X021702Y025416D03*
X020914Y025416D03*
X020127Y025416D03*
X019339Y025416D03*
D21*
X001452Y019249D03*
X001452Y018492D03*
D22*
X001599Y017798D03*
X001599Y019943D03*
D23*
X002219Y020047D03*
X002219Y017694D03*
D24*
X002743Y017729D03*
X002743Y020012D03*
D25*
X002662Y019382D03*
X002662Y019126D03*
X002662Y018871D03*
X002662Y018615D03*
X002662Y018359D03*
D26*
X022296Y004314D03*
X026096Y004314D03*
D27*
X009963Y008448D03*
X009963Y008645D03*
X009963Y008841D03*
X009963Y009038D03*
X009963Y009235D03*
X008900Y009235D03*
X008900Y009038D03*
X008900Y008841D03*
X008900Y008645D03*
X008900Y008448D03*
D28*
X009432Y008841D03*
D29*
X008841Y007818D03*
X008841Y007109D03*
X008841Y003684D03*
X008841Y002975D03*
X008054Y002975D03*
X008054Y003684D03*
X009155Y019804D03*
X009155Y020513D03*
X013172Y020298D03*
X013172Y021007D03*
X004117Y020416D03*
X004117Y019708D03*
D30*
X013231Y019668D03*
X013900Y019668D03*
X018546Y023211D03*
X019215Y023211D03*
X020515Y016715D03*
X021184Y016715D03*
X023467Y013172D03*
X024137Y013172D03*
X020790Y009826D03*
X020121Y009826D03*
X023861Y006755D03*
X024530Y006755D03*
X024649Y005889D03*
X025318Y005889D03*
X023743Y005889D03*
X023074Y005889D03*
X031932Y005101D03*
X032601Y005101D03*
X013704Y008211D03*
X013034Y008211D03*
X013034Y009038D03*
X013704Y009038D03*
X011341Y011400D03*
X010672Y011400D03*
X012050Y012582D03*
X012719Y012582D03*
X007798Y007267D03*
X007129Y007267D03*
X008900Y005495D03*
X009570Y005495D03*
D31*
X007857Y008211D03*
X007857Y009471D03*
D32*
X009629Y004255D03*
X009826Y004255D03*
X010023Y004255D03*
X010219Y004255D03*
X010416Y004255D03*
X010416Y003192D03*
X010219Y003192D03*
X010023Y003192D03*
X009826Y003192D03*
X009629Y003192D03*
D33*
X010023Y003723D03*
D34*
X010849Y003133D03*
X011558Y003133D03*
X009589Y009826D03*
X009589Y010416D03*
X008881Y010416D03*
X008881Y009826D03*
D35*
X009393Y002149D03*
X010652Y002149D03*
D36*
X009826Y012700D03*
X009038Y012700D03*
D37*
X008093Y014747D03*
X010771Y014747D03*
D38*
X011361Y021440D03*
X009904Y021440D03*
D39*
X013369Y011834D03*
X013743Y010967D03*
X012995Y010967D03*
X013782Y005928D03*
X014530Y005928D03*
X014156Y005062D03*
D40*
X028830Y003408D03*
X029814Y003408D03*
X030798Y003408D03*
X031782Y003408D03*
X015513Y022674D03*
X015513Y023659D03*
X015513Y024643D03*
X014528Y024643D03*
X014528Y023659D03*
X014528Y022674D03*
D41*
X003771Y023021D03*
X003771Y022021D03*
X026021Y028646D03*
X027021Y028646D03*
D42*
X007306Y021834D03*
X006440Y022208D03*
X006440Y021460D03*
D43*
X001896Y008845D03*
X001896Y008058D03*
X001896Y007271D03*
X001896Y006483D03*
X001896Y005696D03*
D44*
X022469Y015681D03*
X023493Y015681D03*
X023493Y016055D03*
X023493Y016429D03*
X022469Y016429D03*
X022536Y018183D03*
X022536Y018557D03*
X022536Y018931D03*
X023560Y018931D03*
X023560Y018183D03*
D45*
X019619Y004452D03*
X019619Y002995D03*
X017749Y002995D03*
X017749Y004452D03*
D46*
X012355Y019767D03*
X012355Y019963D03*
X012355Y020160D03*
X012355Y020357D03*
X011233Y020357D03*
X011233Y020160D03*
X011233Y019963D03*
X011233Y019767D03*
D47*
X011794Y019865D03*
D48*
X007070Y016558D03*
X007070Y015692D03*
D49*
X003763Y008841D03*
X002897Y008841D03*
X029471Y008645D03*
X030337Y008645D03*
D50*
X007454Y019481D03*
X007454Y019737D03*
X007454Y019993D03*
X007454Y020249D03*
X005899Y020249D03*
X005899Y019993D03*
X005899Y019737D03*
X005899Y019481D03*
D51*
X015251Y019274D03*
X017786Y019274D03*
D52*
X013233Y022424D03*
X011930Y022424D03*
D53*
X013133Y002936D03*
X013999Y002936D03*
D54*
X013723Y003704D03*
X013408Y003704D03*
D55*
X013074Y005062D02*
X012975Y005160D01*
X010723Y004086D02*
X010723Y003526D01*
X010627Y003526D01*
X010588Y003488D01*
X010531Y003546D01*
X010105Y003546D01*
X010023Y003464D01*
X009940Y003546D01*
X009514Y003546D01*
X009422Y003454D01*
X009422Y003298D01*
X007967Y003298D01*
X007967Y004429D01*
X007975Y004448D01*
X007975Y004479D01*
X009422Y004479D01*
X009422Y003993D01*
X009514Y003900D01*
X009743Y003900D01*
X009826Y003983D01*
X009908Y003900D01*
X010531Y003900D01*
X010623Y003993D01*
X010623Y004086D01*
X010723Y004086D01*
X010723Y004015D02*
X010623Y004015D01*
X010568Y003937D02*
X010723Y003937D01*
X010723Y003860D02*
X007967Y003860D01*
X007967Y003783D02*
X010723Y003783D01*
X010723Y003706D02*
X007967Y003706D01*
X007967Y003628D02*
X010723Y003628D01*
X010723Y003551D02*
X007967Y003551D01*
X007967Y003474D02*
X009442Y003474D01*
X009422Y003397D02*
X007967Y003397D01*
X007967Y003319D02*
X009422Y003319D01*
X009609Y003101D02*
X009609Y002700D01*
X009091Y002700D01*
X008999Y002607D01*
X008999Y002511D01*
X007574Y002511D01*
X007574Y003298D01*
X007771Y003298D01*
X007771Y003217D01*
X007886Y003101D01*
X009609Y003101D01*
X009609Y003088D02*
X007574Y003088D01*
X007574Y003165D02*
X007822Y003165D01*
X007771Y003242D02*
X007574Y003242D01*
X007574Y003011D02*
X009609Y003011D01*
X009609Y002933D02*
X007574Y002933D01*
X007574Y002856D02*
X009609Y002856D01*
X009609Y002779D02*
X007574Y002779D01*
X007574Y002702D02*
X009609Y002702D01*
X009016Y002624D02*
X007574Y002624D01*
X007574Y002547D02*
X008999Y002547D01*
X010023Y003192D02*
X010023Y003723D01*
X009826Y003920D01*
X009826Y004255D01*
X009629Y004255D02*
X009629Y004904D01*
X009422Y004478D02*
X007975Y004478D01*
X007967Y004401D02*
X009422Y004401D01*
X009422Y004324D02*
X007967Y004324D01*
X007967Y004246D02*
X009422Y004246D01*
X009422Y004169D02*
X007967Y004169D01*
X007967Y004092D02*
X009422Y004092D01*
X009422Y004015D02*
X007967Y004015D01*
X007967Y003937D02*
X009477Y003937D01*
X009780Y003937D02*
X009871Y003937D01*
X010012Y003474D02*
X010033Y003474D01*
X010023Y005298D02*
X009926Y005298D01*
X009926Y005456D01*
X009609Y005456D01*
X009609Y005534D01*
X009926Y005534D01*
X009926Y005710D01*
X009916Y005746D01*
X009898Y005777D01*
X009872Y005803D01*
X009840Y005822D01*
X009805Y005831D01*
X009609Y005831D01*
X009609Y005534D01*
X009530Y005534D01*
X009530Y005831D01*
X009432Y005831D01*
X009432Y005889D01*
X010023Y005889D01*
X010023Y005298D01*
X010023Y005328D02*
X009926Y005328D01*
X009926Y005405D02*
X010023Y005405D01*
X010023Y005482D02*
X009609Y005482D01*
X009609Y005559D02*
X009530Y005559D01*
X009530Y005637D02*
X009609Y005637D01*
X009609Y005714D02*
X009530Y005714D01*
X009530Y005791D02*
X009609Y005791D01*
X009432Y005868D02*
X010023Y005868D01*
X010023Y005791D02*
X009884Y005791D01*
X009925Y005714D02*
X010023Y005714D01*
X010023Y005637D02*
X009926Y005637D01*
X009926Y005559D02*
X010023Y005559D01*
X008841Y007818D02*
X008881Y007857D01*
X008900Y008841D02*
X009432Y008841D01*
X009629Y009038D01*
X009963Y009038D01*
X008900Y009235D02*
X008881Y009255D01*
X008881Y009826D01*
X012385Y009038D02*
X013034Y009038D01*
X018160Y008149D02*
X018188Y008149D01*
X018290Y008251D01*
X020790Y009826D02*
X020794Y009822D01*
X022113Y009822D01*
X023107Y009822D01*
X023107Y010019D02*
X022507Y010019D01*
X022385Y010141D01*
X022117Y010141D01*
X022113Y010137D01*
X022113Y010452D02*
X022117Y010456D01*
X022385Y010456D01*
X022625Y010215D01*
X023107Y010215D01*
X023107Y010412D02*
X022743Y010412D01*
X022385Y010771D01*
X022117Y010771D01*
X022113Y010767D01*
X022113Y011082D02*
X022117Y011086D01*
X022385Y011086D01*
X022861Y010609D01*
X023107Y010609D01*
X023107Y010806D02*
X023097Y010806D01*
X022503Y011400D01*
X022117Y011400D01*
X022113Y011397D01*
X022818Y011715D02*
X022818Y012101D01*
X022822Y012105D01*
X023133Y012101D02*
X023137Y012105D01*
X023133Y012101D02*
X023133Y011834D01*
X023609Y011357D01*
X023609Y011111D01*
X023609Y010609D01*
X024397Y009822D01*
X025184Y010609D01*
X025184Y011111D01*
X025184Y011365D01*
X025652Y011834D01*
X025652Y012038D01*
X025656Y012042D01*
X025656Y012105D01*
X025652Y012101D02*
X025652Y012038D01*
X025341Y012105D02*
X025337Y012101D01*
X025337Y011834D01*
X024987Y011483D01*
X024987Y011111D01*
X024790Y011111D02*
X024790Y011601D01*
X025023Y011834D01*
X025023Y012101D01*
X025026Y012105D01*
X024711Y012105D02*
X024708Y012101D01*
X024708Y011834D01*
X024593Y011719D01*
X024593Y011111D01*
X024397Y011111D02*
X024397Y012105D01*
X024082Y012105D02*
X024078Y012101D01*
X024078Y011834D01*
X024200Y011711D01*
X024200Y011111D01*
X024003Y011111D02*
X024003Y011593D01*
X023763Y011834D01*
X023763Y012101D01*
X023767Y012105D01*
X023452Y012105D02*
X023448Y012101D01*
X023448Y011834D01*
X023806Y011475D01*
X023806Y011111D01*
X023412Y011111D02*
X023412Y011121D01*
X022818Y011715D01*
X023107Y009625D02*
X022499Y009625D01*
X022385Y009511D01*
X022117Y009511D01*
X022113Y009507D01*
X022117Y009196D02*
X022113Y009192D01*
X022117Y009196D02*
X022385Y009196D01*
X022617Y009428D01*
X023107Y009428D01*
X023107Y009231D02*
X022735Y009231D01*
X022385Y008881D01*
X022385Y008566D02*
X022853Y009034D01*
X023107Y009034D01*
X023107Y008837D02*
X023089Y008837D01*
X022503Y008251D01*
X022818Y007818D02*
X023412Y008412D01*
X023412Y008532D01*
X023609Y008532D02*
X023609Y008294D01*
X023133Y007818D01*
X023448Y007818D02*
X023448Y007542D01*
X023452Y007538D01*
X023448Y007818D02*
X023806Y008176D01*
X023806Y008532D01*
X024003Y008532D02*
X024003Y009428D01*
X024397Y009822D01*
X025686Y009822D02*
X026680Y009822D01*
X026676Y009511D02*
X026400Y009511D01*
X026286Y009625D01*
X025686Y009625D01*
X025686Y009428D02*
X026168Y009428D01*
X026400Y009196D01*
X026676Y009196D01*
X026680Y009192D01*
X026676Y008881D02*
X026400Y008881D01*
X026050Y009231D01*
X025686Y009231D01*
X025686Y009034D02*
X025932Y009034D01*
X026400Y008566D01*
X026676Y008566D01*
X026680Y008562D01*
X026676Y008251D02*
X026282Y008251D01*
X025696Y008837D01*
X025686Y008837D01*
X025381Y008532D02*
X025381Y008523D01*
X025967Y007936D01*
X025967Y007542D01*
X025971Y007538D01*
X025656Y007538D02*
X025652Y007542D01*
X025652Y007818D01*
X025184Y008286D01*
X025184Y008532D01*
X024987Y008532D02*
X024987Y008168D01*
X025337Y007818D01*
X025337Y007542D01*
X025341Y007538D01*
X025026Y007538D02*
X025023Y007542D01*
X025023Y007818D01*
X024790Y008050D01*
X024790Y008532D01*
X024593Y008532D02*
X024593Y007932D01*
X024708Y007818D01*
X024708Y007542D01*
X024711Y007538D01*
X024397Y007538D02*
X024397Y008532D01*
X024200Y008532D02*
X024200Y007940D01*
X024078Y007818D01*
X024078Y007542D01*
X024082Y007538D01*
X023767Y007538D02*
X023767Y007570D01*
X023763Y007574D01*
X023763Y007542D01*
X023763Y007574D02*
X023763Y007818D01*
X024003Y008058D01*
X024003Y008532D01*
X025686Y010019D02*
X026278Y010019D01*
X026400Y010141D01*
X026676Y010141D01*
X026680Y010137D01*
X026680Y010452D02*
X026676Y010456D01*
X026400Y010456D01*
X026160Y010215D01*
X025686Y010215D01*
X025686Y010412D02*
X026042Y010412D01*
X026400Y010771D01*
X026676Y010771D01*
X026680Y010767D01*
X026680Y011082D02*
X026676Y011086D01*
X026400Y011086D01*
X025924Y010609D01*
X025686Y010609D01*
X025686Y010806D02*
X025688Y010806D01*
X026282Y011400D01*
X026676Y011400D01*
X026680Y011397D01*
X025381Y011129D02*
X025381Y011111D01*
X026676Y009511D02*
X026680Y009507D01*
X026676Y008881D02*
X026680Y008877D01*
X026676Y008251D02*
X026680Y008247D01*
X026096Y004314D02*
X025180Y004314D01*
X023211Y004314D02*
X022296Y004314D01*
X024871Y018375D02*
X025114Y018375D01*
X022536Y018557D02*
X022525Y018557D01*
X022456Y018487D01*
X021046Y018487D01*
X012463Y019479D02*
X012355Y019587D01*
X012355Y019767D01*
X011233Y019767D02*
X011233Y019524D01*
X011188Y019479D01*
X002219Y020047D02*
X002116Y019943D01*
X001599Y019943D01*
X001452Y019796D01*
X001452Y019249D01*
X001452Y018492D02*
X001452Y017945D01*
X001599Y017798D01*
X002116Y017798D01*
X002219Y017694D01*
X024589Y028664D02*
X024608Y028646D01*
X026021Y028646D01*
D56*
X024589Y023015D02*
X025180Y022424D01*
X028723Y022424D01*
X025586Y018375D02*
X025586Y016531D01*
X025110Y016055D01*
X023493Y016055D01*
X022469Y016429D02*
X022424Y016474D01*
X022424Y016715D01*
X022621Y016912D01*
X024983Y016912D01*
X026164Y016912D02*
X028133Y016912D01*
X029314Y014944D02*
X025180Y014944D01*
X024983Y015141D01*
X017306Y015141D01*
X016322Y014747D02*
X024983Y014747D01*
X025026Y014704D01*
X025026Y012105D01*
X024786Y012180D02*
X024786Y014353D01*
X015534Y014353D01*
X013763Y013566D02*
X019078Y013566D01*
X019865Y012778D01*
X019865Y012188D01*
X020259Y011794D01*
X021597Y010456D01*
X022117Y010456D01*
X022117Y010771D02*
X021676Y010771D01*
X020849Y011597D01*
X020849Y010810D02*
X020062Y011597D01*
X019412Y011597D01*
X019274Y011735D01*
X019274Y012385D01*
X018487Y013172D01*
X012975Y013172D01*
X013369Y015475D02*
X013310Y015534D01*
X012582Y015534D01*
X011991Y015534D01*
X011794Y015731D01*
X011794Y016125D01*
X011204Y016715D01*
X009038Y016715D01*
X008251Y017503D01*
X008841Y017700D02*
X009235Y017306D01*
X012385Y017306D01*
X012582Y017109D01*
X013310Y017109D01*
X013369Y017050D01*
X013369Y016381D02*
X013369Y016322D01*
X014215Y016322D01*
X012582Y019078D02*
X011007Y019078D01*
X011007Y019278D01*
X011044Y019315D01*
X011086Y019417D01*
X011086Y019708D01*
X011541Y019708D01*
X011656Y019823D01*
X011656Y020849D01*
X012582Y020849D01*
X012582Y020613D01*
X012047Y020613D01*
X011932Y020498D01*
X011932Y019823D01*
X012047Y019708D01*
X012582Y019708D01*
X012582Y019078D01*
X012582Y019176D02*
X011007Y019176D01*
X011051Y019332D02*
X012582Y019332D01*
X012582Y019488D02*
X011086Y019488D01*
X011086Y019644D02*
X012582Y019644D01*
X011955Y019800D02*
X011634Y019800D01*
X011656Y019956D02*
X011932Y019956D01*
X011932Y020112D02*
X011656Y020112D01*
X011656Y020268D02*
X011932Y020268D01*
X011932Y020424D02*
X011656Y020424D01*
X011656Y020580D02*
X012014Y020580D01*
X011656Y020736D02*
X012582Y020736D01*
X010908Y019963D02*
X010810Y019865D01*
X010810Y019471D01*
X010416Y019078D01*
X008251Y018940D02*
X007995Y018940D01*
X007454Y019481D01*
X006991Y019488D02*
X006282Y019488D01*
X006246Y019452D02*
X006361Y019567D01*
X006361Y020163D01*
X006246Y020278D01*
X006231Y020278D01*
X006230Y020279D01*
X006136Y020318D01*
X003723Y020318D01*
X003723Y021164D01*
X005156Y021164D01*
X005257Y021206D01*
X005294Y021243D01*
X005967Y021243D01*
X005967Y021181D01*
X006083Y021066D01*
X006408Y021066D01*
X006695Y020779D01*
X006810Y020731D01*
X007070Y020731D01*
X007070Y020498D01*
X006991Y020419D01*
X006991Y019311D01*
X007011Y019291D01*
X007011Y019274D01*
X006475Y019274D01*
X006390Y019360D01*
X006288Y019402D01*
X005692Y019402D01*
X005692Y019412D01*
X006136Y019412D01*
X006230Y019451D01*
X006231Y019452D01*
X006246Y019452D01*
X006418Y019332D02*
X006991Y019332D01*
X006991Y019644D02*
X006361Y019644D01*
X006361Y019800D02*
X006991Y019800D01*
X006991Y019956D02*
X006361Y019956D01*
X006361Y020112D02*
X006991Y020112D01*
X006991Y020268D02*
X006256Y020268D01*
X006582Y020892D02*
X003723Y020892D01*
X003723Y020736D02*
X006798Y020736D01*
X007070Y020580D02*
X003723Y020580D01*
X003723Y020424D02*
X006996Y020424D01*
X006426Y021048D02*
X003723Y021048D01*
X003133Y021440D02*
X005101Y021440D01*
X005889Y022227D01*
X006420Y022227D01*
X006440Y022208D01*
X006440Y022818D01*
X009235Y022818D01*
X006676Y023271D02*
X006597Y023271D01*
X006440Y023113D01*
X006440Y022818D01*
X005967Y021204D02*
X005252Y021204D01*
X004117Y019708D02*
X003792Y019382D01*
X002662Y019382D01*
X002662Y019126D02*
X006234Y019126D01*
X006479Y018881D01*
X006086Y018487D02*
X005702Y018871D01*
X002662Y018871D01*
X003204Y018595D02*
X005588Y018595D01*
X005929Y018253D01*
X005977Y018234D01*
X006262Y017948D01*
X006334Y017876D01*
X006428Y017837D01*
X007554Y017837D01*
X007660Y017731D01*
X007660Y016322D01*
X007445Y016322D01*
X007445Y016538D01*
X007089Y016538D01*
X007089Y016578D01*
X007050Y016578D01*
X007050Y016973D01*
X006849Y016973D01*
X006804Y016961D01*
X006763Y016937D01*
X006730Y016904D01*
X006706Y016863D01*
X006694Y016818D01*
X006694Y016578D01*
X007050Y016578D01*
X007050Y016538D01*
X006694Y016538D01*
X006694Y016322D01*
X006463Y016322D01*
X006490Y016519D01*
X006417Y017053D01*
X006202Y017547D01*
X005862Y017965D01*
X005862Y017965D01*
X005862Y017965D01*
X005421Y018276D01*
X004913Y018457D01*
X004376Y018493D01*
X004376Y018493D01*
X003848Y018384D01*
X003369Y018136D01*
X003227Y018003D01*
X003227Y018204D01*
X003183Y018248D01*
X003186Y018256D01*
X003186Y018359D01*
X003186Y018436D01*
X003204Y018454D01*
X003204Y018595D01*
X003204Y018552D02*
X005631Y018552D01*
X005786Y018396D02*
X005083Y018396D01*
X004913Y018457D02*
X004913Y018457D01*
X005421Y018276D02*
X005421Y018276D01*
X005472Y018240D02*
X005961Y018240D01*
X006126Y018084D02*
X005693Y018084D01*
X005892Y017928D02*
X006282Y017928D01*
X006018Y017772D02*
X007619Y017772D01*
X007660Y017616D02*
X006145Y017616D01*
X006202Y017547D02*
X006202Y017547D01*
X006239Y017460D02*
X007660Y017460D01*
X007660Y017304D02*
X006307Y017304D01*
X006375Y017149D02*
X007660Y017149D01*
X007660Y016993D02*
X006425Y016993D01*
X006417Y017053D02*
X006417Y017053D01*
X006446Y016837D02*
X006699Y016837D01*
X006694Y016681D02*
X006468Y016681D01*
X006489Y016525D02*
X006694Y016525D01*
X006694Y016369D02*
X006469Y016369D01*
X007089Y016578D02*
X007089Y016973D01*
X007290Y016973D01*
X007336Y016961D01*
X007376Y016937D01*
X007410Y016904D01*
X007433Y016863D01*
X007445Y016818D01*
X007445Y016578D01*
X007089Y016578D01*
X007089Y016681D02*
X007050Y016681D01*
X007050Y016837D02*
X007089Y016837D01*
X007440Y016837D02*
X007660Y016837D01*
X007660Y016681D02*
X007445Y016681D01*
X007445Y016525D02*
X007660Y016525D01*
X007660Y016369D02*
X007445Y016369D01*
X003909Y018396D02*
X003186Y018396D01*
X003186Y018359D02*
X003108Y018359D01*
X003108Y018359D01*
X003186Y018359D01*
X003191Y018240D02*
X003571Y018240D01*
X003369Y018136D02*
X003369Y018136D01*
X003314Y018084D02*
X003227Y018084D01*
X003848Y018384D02*
X003848Y018384D01*
X003133Y021440D02*
X002936Y021637D01*
X002936Y022818D01*
X003139Y023021D01*
X003771Y023021D01*
X014291Y022424D02*
X014528Y022661D01*
X014528Y022674D01*
X015513Y022674D01*
X014353Y024589D02*
X014407Y024643D01*
X014528Y024643D01*
X021184Y016715D02*
X021243Y016715D01*
X021243Y016125D01*
X021637Y015731D01*
X022419Y015731D01*
X022469Y015681D01*
X022374Y015681D01*
X022621Y013172D02*
X022818Y012975D01*
X022818Y012109D01*
X022822Y012105D01*
X023452Y012105D02*
X023452Y013129D01*
X023408Y013172D01*
X023408Y013113D01*
X023467Y013172D01*
X021715Y012641D02*
X021715Y012070D01*
X021637Y011991D01*
X021637Y011204D01*
X021755Y011086D01*
X022117Y011086D01*
X022117Y010141D02*
X021519Y010141D01*
X020849Y010810D01*
X020121Y010082D01*
X020121Y009826D01*
X019471Y009235D02*
X021046Y009235D01*
X021322Y009511D01*
X022117Y009511D01*
X022117Y008881D02*
X022113Y008877D01*
X021404Y008877D01*
X021369Y008841D01*
X021046Y008841D01*
X020062Y007857D01*
X019078Y007857D01*
X018369Y007149D01*
X018160Y007149D01*
X018487Y006676D02*
X017633Y006676D01*
X017160Y007149D01*
X017160Y006149D02*
X017160Y005641D01*
X017503Y005298D01*
X018487Y005298D01*
X019078Y005889D01*
X020062Y005889D01*
X020397Y006223D01*
X020574Y006223D01*
X020633Y006282D01*
X020849Y006282D01*
X021046Y006479D01*
X022424Y006479D01*
X022424Y006460D01*
X022385Y006420D01*
X022424Y006479D02*
X023015Y006479D01*
X023448Y006912D01*
X023448Y007542D01*
X023137Y007538D02*
X023137Y006995D01*
X023015Y006873D01*
X020849Y006873D01*
X020652Y006676D01*
X019668Y006676D01*
X019471Y006479D01*
X019274Y007070D02*
X020456Y007070D01*
X021550Y008164D01*
X022030Y008164D01*
X022113Y008247D01*
X022117Y008251D01*
X022503Y008251D01*
X022385Y008566D02*
X022117Y008566D01*
X021361Y008566D01*
X020259Y007463D01*
X019274Y007463D01*
X018487Y006676D01*
X018353Y006149D02*
X019274Y007070D01*
X018353Y006149D02*
X018160Y006149D01*
X019668Y005101D02*
X020121Y005101D01*
X020574Y005554D01*
X019668Y005101D02*
X019668Y004501D01*
X019619Y004452D01*
X017749Y004452D01*
X020849Y003133D02*
X020849Y002345D01*
X012515Y002345D01*
X012190Y002021D01*
X012089Y001979D01*
X011944Y001979D01*
X011944Y001957D01*
X011893Y001906D01*
X011913Y001871D01*
X011926Y001826D01*
X011926Y001605D01*
X011570Y001605D01*
X011570Y001566D01*
X011926Y001566D01*
X011926Y001345D01*
X011913Y001300D01*
X011890Y001259D01*
X011857Y001226D01*
X011816Y001202D01*
X011770Y001190D01*
X011570Y001190D01*
X011570Y001566D01*
X011530Y001566D01*
X011174Y001566D01*
X011174Y001345D01*
X011187Y001300D01*
X011210Y001259D01*
X011243Y001226D01*
X011284Y001202D01*
X011330Y001190D01*
X011530Y001190D01*
X011530Y001566D01*
X011530Y001605D01*
X011174Y001605D01*
X011174Y001826D01*
X011187Y001871D01*
X011207Y001906D01*
X011156Y001957D01*
X011156Y002345D01*
X011086Y002345D01*
X011086Y001673D01*
X010970Y001558D01*
X010335Y001558D01*
X010219Y001673D01*
X010219Y002192D01*
X010066Y002345D01*
X009979Y002345D01*
X009826Y002192D01*
X009826Y001673D01*
X009710Y001558D01*
X009075Y001558D01*
X008960Y001673D01*
X008960Y002624D01*
X008975Y002639D01*
X008841Y002639D01*
X008841Y002975D01*
X008054Y002975D01*
X008054Y002639D01*
X008054Y002975D01*
X008054Y002975D01*
X007639Y002975D01*
X007639Y002794D01*
X007651Y002749D01*
X007675Y002708D01*
X007708Y002675D01*
X007749Y002651D01*
X007794Y002639D01*
X008054Y002639D01*
X008314Y002639D01*
X008359Y002651D01*
X008400Y002675D01*
X008433Y002708D01*
X008448Y002733D01*
X008462Y002708D01*
X008495Y002675D01*
X008536Y002651D01*
X008582Y002639D01*
X008841Y002639D01*
X008841Y002975D01*
X008841Y002975D01*
X008841Y002975D01*
X008469Y002975D01*
X008054Y002975D01*
X008054Y002975D01*
X008054Y002975D01*
X007639Y002975D01*
X007639Y003156D01*
X007651Y003202D01*
X007675Y003243D01*
X007708Y003276D01*
X007731Y003289D01*
X007731Y003335D01*
X007621Y003445D01*
X007621Y003923D01*
X007731Y004033D01*
X007731Y004577D01*
X007857Y004703D01*
X007857Y004708D01*
X007463Y004708D01*
X007463Y004535D01*
X007500Y004271D01*
X007463Y004006D01*
X007463Y001004D01*
X033637Y001004D01*
X033485Y001146D01*
X033485Y001146D01*
X033485Y001146D01*
X033205Y001607D01*
X033205Y001607D01*
X033060Y002126D01*
X033060Y002665D01*
X033205Y003184D01*
X033205Y003184D01*
X033485Y003645D01*
X033485Y003645D01*
X033645Y003794D01*
X033645Y012227D01*
X031282Y012227D01*
X031282Y004314D01*
X027936Y004314D01*
X027936Y003133D01*
X020849Y003133D01*
X020849Y003110D02*
X028367Y003110D01*
X028367Y003061D02*
X028482Y002946D01*
X029177Y002946D01*
X029292Y003061D01*
X029292Y003756D01*
X029177Y003871D01*
X028482Y003871D01*
X028367Y003756D01*
X028367Y003061D01*
X028474Y002954D02*
X020849Y002954D01*
X020849Y002798D02*
X033097Y002798D01*
X033060Y002642D02*
X020849Y002642D01*
X020849Y002486D02*
X033060Y002486D01*
X033060Y002330D02*
X012500Y002330D01*
X012344Y002174D02*
X033060Y002174D01*
X033090Y002018D02*
X012184Y002018D01*
X012034Y002255D02*
X011550Y002255D01*
X011156Y002330D02*
X011086Y002330D01*
X011086Y002174D02*
X011156Y002174D01*
X011156Y002018D02*
X011086Y002018D01*
X011086Y001862D02*
X011184Y001862D01*
X011174Y001706D02*
X011086Y001706D01*
X011174Y001550D02*
X007463Y001550D01*
X007463Y001394D02*
X011174Y001394D01*
X011231Y001238D02*
X007463Y001238D01*
X007463Y001083D02*
X033554Y001083D01*
X033429Y001238D02*
X011869Y001238D01*
X011926Y001394D02*
X033334Y001394D01*
X033239Y001550D02*
X011926Y001550D01*
X011926Y001706D02*
X033177Y001706D01*
X033134Y001862D02*
X011916Y001862D01*
X012034Y002255D02*
X012385Y002605D01*
X012385Y004904D01*
X012385Y005101D01*
X012188Y005298D01*
X011853Y005298D01*
X011794Y005239D01*
X013684Y005830D02*
X013782Y005928D01*
X013763Y005948D01*
X014530Y005928D02*
X014747Y006145D01*
X014747Y007463D01*
X016715Y009432D01*
X014058Y005160D02*
X014156Y005062D01*
X010652Y002149D02*
X010219Y002582D01*
X010081Y002330D02*
X009964Y002330D01*
X009826Y002174D02*
X010219Y002174D01*
X010219Y002018D02*
X009826Y002018D01*
X009826Y001862D02*
X010219Y001862D01*
X010219Y001706D02*
X009826Y001706D01*
X009393Y002149D02*
X009826Y002582D01*
X008960Y002486D02*
X007463Y002486D01*
X007463Y002330D02*
X008960Y002330D01*
X008960Y002174D02*
X007463Y002174D01*
X007463Y002018D02*
X008960Y002018D01*
X008960Y001862D02*
X007463Y001862D01*
X007463Y001706D02*
X008960Y001706D01*
X008841Y002642D02*
X008841Y002642D01*
X008841Y002798D02*
X008841Y002798D01*
X008841Y002954D02*
X008841Y002954D01*
X008569Y002642D02*
X008326Y002642D01*
X008054Y002642D02*
X008054Y002642D01*
X008054Y002798D02*
X008054Y002798D01*
X008054Y002954D02*
X008054Y002954D01*
X007782Y002642D02*
X007463Y002642D01*
X007463Y002798D02*
X007639Y002798D01*
X007639Y002954D02*
X007463Y002954D01*
X007463Y003110D02*
X007639Y003110D01*
X007699Y003266D02*
X007463Y003266D01*
X007463Y003422D02*
X007644Y003422D01*
X007621Y003578D02*
X007463Y003578D01*
X007463Y003734D02*
X007621Y003734D01*
X007621Y003890D02*
X007463Y003890D01*
X007469Y004046D02*
X007731Y004046D01*
X007731Y004202D02*
X007490Y004202D01*
X007488Y004358D02*
X007731Y004358D01*
X007731Y004514D02*
X007466Y004514D01*
X007463Y004670D02*
X007824Y004670D01*
X008251Y006873D02*
X007267Y006873D01*
X007129Y007011D01*
X007129Y007267D01*
X006676Y007719D01*
X006676Y008113D01*
X007857Y008211D02*
X008290Y008645D01*
X008290Y009038D02*
X007857Y009471D01*
X007382Y009904D02*
X007303Y009826D01*
X006676Y009826D01*
X006676Y010147D01*
X006683Y010152D01*
X006683Y010152D01*
X006683Y010152D01*
X006792Y010378D01*
X006792Y011400D01*
X007463Y011400D01*
X007463Y010810D01*
X007660Y010613D01*
X009038Y010613D01*
X009038Y009284D01*
X008975Y009284D01*
X008951Y009294D01*
X008645Y009294D01*
X008645Y009826D01*
X008411Y009826D01*
X008332Y009904D01*
X007382Y009904D01*
X006676Y009973D02*
X009038Y009973D01*
X009038Y009817D02*
X008645Y009817D01*
X008645Y009661D02*
X009038Y009661D01*
X009038Y009505D02*
X008645Y009505D01*
X008645Y009349D02*
X009038Y009349D01*
X009314Y009349D02*
X009570Y009349D01*
X009570Y009366D02*
X009570Y009104D01*
X009636Y009038D01*
X009570Y008972D01*
X009570Y008317D01*
X009636Y008251D01*
X009228Y008251D01*
X009294Y008317D01*
X009294Y008775D01*
X009228Y008841D01*
X009294Y008908D01*
X009294Y009133D01*
X009314Y009180D01*
X009314Y010023D01*
X010219Y010023D01*
X010219Y009597D01*
X010113Y009491D01*
X009913Y009491D01*
X009889Y009481D01*
X009685Y009481D01*
X009570Y009366D01*
X009570Y009194D02*
X009314Y009194D01*
X009294Y009038D02*
X009635Y009038D01*
X009570Y008882D02*
X009268Y008882D01*
X009294Y008726D02*
X009570Y008726D01*
X009570Y008570D02*
X009294Y008570D01*
X009294Y008414D02*
X009570Y008414D01*
X009629Y008258D02*
X009235Y008258D01*
X008900Y007877D02*
X008841Y007818D01*
X008605Y007818D01*
X008251Y007463D01*
X007995Y007463D01*
X007798Y007267D01*
X009314Y009505D02*
X010128Y009505D01*
X010219Y009661D02*
X009314Y009661D01*
X009314Y009817D02*
X010219Y009817D01*
X010219Y009973D02*
X009314Y009973D01*
X009038Y010129D02*
X006676Y010129D01*
X006747Y010285D02*
X009038Y010285D01*
X009038Y010441D02*
X006792Y010441D01*
X006792Y010597D02*
X009038Y010597D01*
X007520Y010753D02*
X006792Y010753D01*
X006792Y010909D02*
X007463Y010909D01*
X007463Y011065D02*
X006792Y011065D01*
X006792Y011221D02*
X007463Y011221D01*
X007463Y011377D02*
X006792Y011377D01*
X001899Y008841D02*
X001896Y008845D01*
X001896Y007271D02*
X001899Y007267D01*
X001896Y006483D02*
X001899Y006479D01*
X001896Y005696D02*
X001899Y005692D01*
X011530Y001550D02*
X011570Y001550D01*
X011570Y001394D02*
X011530Y001394D01*
X011530Y001238D02*
X011570Y001238D01*
X022030Y007267D02*
X022550Y007267D01*
X022822Y007538D01*
X022818Y007542D01*
X022818Y007818D01*
X023133Y007818D02*
X023133Y007542D01*
X023137Y007538D01*
X023861Y006755D02*
X023861Y006007D01*
X023743Y005889D01*
X023743Y004845D01*
X023211Y004314D01*
X024649Y004845D02*
X025180Y004314D01*
X024649Y004845D02*
X024649Y005889D01*
X024530Y006007D01*
X024530Y006755D01*
X024397Y006889D01*
X024397Y007538D01*
X024082Y007538D02*
X024082Y006975D01*
X023861Y006755D01*
X022117Y008566D02*
X022113Y008562D01*
X022117Y008881D02*
X022385Y008881D01*
X025381Y011129D02*
X025971Y011719D01*
X025971Y012105D01*
X025967Y012101D01*
X025967Y012975D01*
X026361Y013369D01*
X025967Y013566D02*
X025656Y013255D01*
X025656Y012105D01*
X025341Y012105D02*
X025341Y014318D01*
X025377Y014353D01*
X030692Y014353D01*
X031282Y012157D02*
X033645Y012157D01*
X033645Y012001D02*
X031282Y012001D01*
X031282Y011845D02*
X033645Y011845D01*
X033645Y011689D02*
X031282Y011689D01*
X031282Y011533D02*
X033645Y011533D01*
X033645Y011377D02*
X031282Y011377D01*
X031282Y011221D02*
X033645Y011221D01*
X033645Y011065D02*
X031282Y011065D01*
X031282Y010909D02*
X033645Y010909D01*
X033645Y010753D02*
X031282Y010753D01*
X031282Y010597D02*
X033645Y010597D01*
X033645Y010441D02*
X031282Y010441D01*
X031282Y010285D02*
X033645Y010285D01*
X033645Y010129D02*
X031282Y010129D01*
X031282Y009973D02*
X033645Y009973D01*
X033645Y009817D02*
X031282Y009817D01*
X031282Y009661D02*
X033645Y009661D01*
X033645Y009505D02*
X031282Y009505D01*
X031282Y009349D02*
X033645Y009349D01*
X033645Y009194D02*
X031282Y009194D01*
X031282Y009038D02*
X033645Y009038D01*
X033645Y008882D02*
X031282Y008882D01*
X031282Y008726D02*
X033645Y008726D01*
X033645Y008570D02*
X031282Y008570D01*
X031282Y008414D02*
X033645Y008414D01*
X033645Y008258D02*
X031282Y008258D01*
X031282Y008102D02*
X033645Y008102D01*
X033645Y007946D02*
X031282Y007946D01*
X031282Y007790D02*
X033645Y007790D01*
X033645Y007634D02*
X031282Y007634D01*
X031282Y007478D02*
X033645Y007478D01*
X033645Y007322D02*
X031282Y007322D01*
X031282Y007166D02*
X033645Y007166D01*
X033645Y007010D02*
X031282Y007010D01*
X031282Y006854D02*
X033645Y006854D01*
X033645Y006698D02*
X031282Y006698D01*
X031282Y006542D02*
X033645Y006542D01*
X033645Y006386D02*
X031282Y006386D01*
X031282Y006230D02*
X033645Y006230D01*
X033645Y006074D02*
X031282Y006074D01*
X031282Y005918D02*
X033645Y005918D01*
X033645Y005762D02*
X031282Y005762D01*
X031282Y005606D02*
X033645Y005606D01*
X033645Y005450D02*
X032912Y005450D01*
X032928Y005441D02*
X032887Y005465D01*
X032841Y005477D01*
X032621Y005477D01*
X032621Y005121D01*
X032582Y005121D01*
X032582Y005477D01*
X032361Y005477D01*
X032316Y005465D01*
X032281Y005444D01*
X032230Y005495D01*
X031634Y005495D01*
X031519Y005380D01*
X031519Y004823D01*
X031634Y004708D01*
X031655Y004708D01*
X031655Y003871D01*
X031435Y003871D01*
X031320Y003756D01*
X031320Y003061D01*
X031435Y002946D01*
X032130Y002946D01*
X032245Y003061D01*
X032245Y003756D01*
X032209Y003792D01*
X032209Y004708D01*
X032230Y004708D01*
X032281Y004758D01*
X032316Y004738D01*
X032361Y004726D01*
X032582Y004726D01*
X032582Y005082D01*
X032621Y005082D01*
X032621Y005121D01*
X032997Y005121D01*
X032997Y005322D01*
X032984Y005367D01*
X032961Y005408D01*
X032928Y005441D01*
X032997Y005294D02*
X033645Y005294D01*
X033645Y005138D02*
X032997Y005138D01*
X032997Y005082D02*
X032621Y005082D01*
X032621Y004726D01*
X032841Y004726D01*
X032887Y004738D01*
X032928Y004761D01*
X032961Y004795D01*
X032984Y004835D01*
X032997Y004881D01*
X032997Y005082D01*
X032997Y004982D02*
X033645Y004982D01*
X033645Y004826D02*
X032979Y004826D01*
X032621Y004826D02*
X032582Y004826D01*
X032582Y004982D02*
X032621Y004982D01*
X032621Y005138D02*
X032582Y005138D01*
X032582Y005294D02*
X032621Y005294D01*
X032621Y005450D02*
X032582Y005450D01*
X032290Y005450D02*
X032275Y005450D01*
X031589Y005450D02*
X031282Y005450D01*
X031282Y005294D02*
X031519Y005294D01*
X031519Y005138D02*
X031282Y005138D01*
X031282Y004982D02*
X031519Y004982D01*
X031519Y004826D02*
X031282Y004826D01*
X031282Y004670D02*
X031655Y004670D01*
X031655Y004514D02*
X031282Y004514D01*
X031282Y004358D02*
X031655Y004358D01*
X031655Y004202D02*
X027936Y004202D01*
X027936Y004046D02*
X031655Y004046D01*
X031655Y003890D02*
X027936Y003890D01*
X027936Y003734D02*
X028367Y003734D01*
X028367Y003578D02*
X027936Y003578D01*
X027936Y003422D02*
X028367Y003422D01*
X028367Y003266D02*
X027936Y003266D01*
X029185Y002954D02*
X030442Y002954D01*
X030451Y002946D02*
X030336Y003061D01*
X030336Y003756D01*
X030451Y003871D01*
X031145Y003871D01*
X031261Y003756D01*
X031261Y003061D01*
X031145Y002946D01*
X030451Y002946D01*
X030336Y003110D02*
X030256Y003110D01*
X030258Y003119D02*
X030258Y003399D01*
X029824Y003399D01*
X029824Y003418D01*
X030258Y003418D01*
X030258Y003698D01*
X030246Y003743D01*
X030223Y003784D01*
X030189Y003817D01*
X030149Y003841D01*
X030103Y003853D01*
X029824Y003853D01*
X029824Y003418D01*
X029804Y003418D01*
X029804Y003399D01*
X029369Y003399D01*
X029369Y003119D01*
X029382Y003074D01*
X029405Y003033D01*
X029438Y003000D01*
X029479Y002976D01*
X029525Y002964D01*
X029804Y002964D01*
X029804Y003398D01*
X029824Y003398D01*
X029824Y002964D01*
X030103Y002964D01*
X030149Y002976D01*
X030189Y003000D01*
X030223Y003033D01*
X030246Y003074D01*
X030258Y003119D01*
X030258Y003266D02*
X030336Y003266D01*
X030336Y003422D02*
X030258Y003422D01*
X030258Y003578D02*
X030336Y003578D01*
X030336Y003734D02*
X030249Y003734D01*
X029824Y003734D02*
X029804Y003734D01*
X029804Y003853D02*
X029525Y003853D01*
X029479Y003841D01*
X029438Y003817D01*
X029405Y003784D01*
X029382Y003743D01*
X029369Y003698D01*
X029369Y003418D01*
X029804Y003418D01*
X029804Y003853D01*
X029804Y003578D02*
X029824Y003578D01*
X029824Y003422D02*
X029804Y003422D01*
X029804Y003266D02*
X029824Y003266D01*
X029824Y003110D02*
X029804Y003110D01*
X029372Y003110D02*
X029292Y003110D01*
X029292Y003266D02*
X029369Y003266D01*
X029369Y003422D02*
X029292Y003422D01*
X029292Y003578D02*
X029369Y003578D01*
X029379Y003734D02*
X029292Y003734D01*
X031261Y003734D02*
X031320Y003734D01*
X031320Y003578D02*
X031261Y003578D01*
X031261Y003422D02*
X031320Y003422D01*
X031320Y003266D02*
X031261Y003266D01*
X031261Y003110D02*
X031320Y003110D01*
X031427Y002954D02*
X031154Y002954D01*
X032138Y002954D02*
X033141Y002954D01*
X033184Y003110D02*
X032245Y003110D01*
X032245Y003266D02*
X033255Y003266D01*
X033350Y003422D02*
X032245Y003422D01*
X032245Y003578D02*
X033445Y003578D01*
X033581Y003734D02*
X032245Y003734D01*
X032209Y003890D02*
X033645Y003890D01*
X033645Y004046D02*
X032209Y004046D01*
X032209Y004202D02*
X033645Y004202D01*
X033645Y004358D02*
X032209Y004358D01*
X032209Y004514D02*
X033645Y004514D01*
X033645Y004670D02*
X032209Y004670D01*
X027542Y008054D02*
X027542Y008566D01*
X028507Y008566D01*
X028526Y008586D01*
X029412Y008586D01*
X029471Y008645D01*
X030337Y008645D02*
X031479Y008645D01*
X029314Y010416D02*
X028963Y010767D01*
X026680Y010767D01*
X026680Y010452D02*
X027971Y010452D01*
X028097Y010452D01*
X028133Y010416D01*
X028723Y009826D02*
X027542Y009826D01*
X027231Y010137D01*
X026680Y010137D01*
X026676Y011086D02*
X029393Y011086D01*
X030101Y011794D01*
X028133Y013310D02*
X028133Y013369D01*
X026755Y012050D02*
X026676Y011971D01*
X026676Y011400D01*
X026676Y008566D02*
X027542Y008566D01*
D57*
X027542Y008054D03*
X028723Y009826D03*
X028133Y010416D03*
X029314Y010416D03*
X030101Y011794D03*
X027542Y011597D03*
X025771Y013763D03*
X024141Y013723D03*
X022621Y013172D03*
X021637Y011991D03*
X020456Y013172D03*
X018290Y011991D03*
X016715Y012582D03*
X015534Y014353D03*
X016125Y014944D03*
X017306Y015141D03*
X017897Y016715D03*
X019865Y017700D03*
X021046Y018487D03*
X022621Y017503D03*
X020456Y015928D03*
X021637Y015731D03*
X024983Y016912D03*
X026164Y016912D03*
X026952Y015928D03*
X025967Y015731D03*
X028133Y016912D03*
X029314Y014944D03*
X030692Y014353D03*
X025574Y020259D03*
X027345Y021046D03*
X028723Y022424D03*
X025574Y025377D03*
X024393Y025771D03*
X022818Y025574D03*
X019339Y022556D03*
X019471Y019471D03*
X013763Y020259D03*
X013763Y020849D03*
X013763Y021440D03*
X012385Y019078D03*
X011794Y018290D03*
X012778Y018093D03*
X013566Y017700D03*
X011991Y016715D03*
X010810Y016125D03*
X011597Y014747D03*
X012582Y014156D03*
X012778Y013369D03*
X011991Y011400D03*
X011204Y010219D03*
X010416Y010219D03*
X010416Y010810D03*
X011991Y009826D03*
X011597Y009038D03*
X012385Y009038D03*
X012975Y009826D03*
X014156Y009826D03*
X016715Y009432D03*
X017897Y009629D03*
X019471Y009235D03*
X022030Y007267D03*
X023015Y006479D03*
X023211Y005298D03*
X023015Y002739D03*
X022030Y002739D03*
X019668Y005101D03*
X019471Y006479D03*
X015928Y005298D03*
X015534Y003526D03*
X012385Y004904D03*
X011794Y003920D03*
X010810Y004314D03*
X010416Y003723D03*
X009629Y003723D03*
X008841Y004314D03*
X008448Y004904D03*
X009629Y004904D03*
X010219Y006282D03*
X009432Y007070D03*
X008841Y006282D03*
X010416Y007660D03*
X011204Y007857D03*
X012778Y007463D03*
X011204Y006479D03*
X009432Y008448D03*
X009432Y009235D03*
X010613Y009038D03*
X007070Y010219D03*
X007070Y011007D03*
X005889Y008448D03*
X001755Y010810D03*
X001755Y012188D03*
X001755Y013369D03*
X007267Y017109D03*
X006676Y017503D03*
X006676Y019668D03*
X006676Y020456D03*
X005692Y021046D03*
X005101Y022424D03*
X008251Y021046D03*
X009432Y021440D03*
X010613Y021440D03*
X009235Y022818D03*
X010416Y019078D03*
X009235Y018684D03*
X009826Y014156D03*
X002936Y004708D03*
X027149Y006086D03*
X028723Y005298D03*
X029511Y006479D03*
X018290Y025771D03*
D58*
X015513Y024643D02*
X014528Y024643D01*
X014353Y024589D02*
X013763Y024589D01*
X013763Y022424D01*
X013233Y022424D01*
X012249Y021440D01*
X011361Y021440D01*
X010613Y021440D02*
X009904Y021440D01*
X009432Y021440D01*
X009432Y021243D01*
X008841Y022168D02*
X011674Y022168D01*
X011930Y022424D01*
X013763Y022424D02*
X014291Y022424D01*
X014528Y022399D02*
X014528Y022399D01*
X014528Y022151D02*
X014820Y022151D01*
X014869Y022161D01*
X014916Y022180D01*
X014958Y022209D01*
X014994Y022244D01*
X015021Y022284D01*
X015047Y022244D01*
X015083Y022209D01*
X015125Y022180D01*
X015172Y022161D01*
X015222Y022151D01*
X015513Y022151D01*
X015804Y022151D01*
X015854Y022161D01*
X015900Y022180D01*
X015943Y022209D01*
X015978Y022244D01*
X016007Y022287D01*
X016026Y022333D01*
X016036Y022383D01*
X016036Y022674D01*
X015513Y022674D01*
X015513Y022674D01*
X015513Y022151D01*
X015513Y022674D01*
X015513Y022674D01*
X016036Y022674D01*
X016036Y022965D01*
X016026Y023015D01*
X016125Y023015D01*
X016125Y021920D01*
X015961Y021988D01*
X015733Y021988D01*
X015523Y021900D01*
X015361Y021739D01*
X015274Y021528D01*
X015274Y021300D01*
X015361Y021090D01*
X015523Y020928D01*
X015733Y020841D01*
X015961Y020841D01*
X016125Y020909D01*
X016125Y018881D01*
X016054Y018881D01*
X016054Y019181D01*
X015344Y019181D01*
X015344Y019368D01*
X015157Y019368D01*
X015157Y020034D01*
X014688Y020034D01*
X014688Y021113D01*
X014637Y021236D01*
X014543Y021330D01*
X014226Y021646D01*
X014226Y021683D01*
X014184Y021784D01*
X014156Y021812D01*
X014156Y022174D01*
X014188Y022161D01*
X014237Y022151D01*
X014528Y022151D01*
X014528Y022674D01*
X014528Y022674D01*
X014528Y022151D01*
X014156Y022086D02*
X016125Y022086D01*
X016125Y022399D02*
X016036Y022399D01*
X016036Y022713D02*
X016125Y022713D01*
X015513Y022674D02*
X015513Y022674D01*
X015052Y022674D01*
X014528Y022674D01*
X014528Y022674D01*
X015513Y022674D01*
X015513Y022399D02*
X015513Y022399D01*
X015395Y021772D02*
X014189Y021772D01*
X014414Y021459D02*
X015274Y021459D01*
X015338Y021146D02*
X014674Y021146D01*
X014688Y020832D02*
X016125Y020832D01*
X016125Y020519D02*
X014688Y020519D01*
X014688Y020205D02*
X016125Y020205D01*
X015960Y019976D02*
X015918Y020005D01*
X015871Y020024D01*
X015822Y020034D01*
X015344Y020034D01*
X015344Y019368D01*
X016054Y019368D01*
X016054Y019802D01*
X016044Y019852D01*
X016024Y019898D01*
X015996Y019941D01*
X015960Y019976D01*
X016027Y019892D02*
X016125Y019892D01*
X016125Y019578D02*
X016054Y019578D01*
X016125Y019265D02*
X015344Y019265D01*
X015344Y019578D02*
X015157Y019578D01*
X015157Y019892D02*
X015344Y019892D01*
X016054Y018951D02*
X016125Y018951D01*
X013763Y020259D02*
X013723Y020298D01*
X013172Y020298D01*
X013566Y017700D02*
X018684Y017700D01*
X020456Y019471D01*
X022030Y019471D01*
X022030Y019727D01*
X022030Y019471D02*
X023020Y019471D01*
X023560Y018931D01*
X024246Y018931D01*
X025574Y020259D01*
X026361Y013369D02*
X028133Y013369D01*
X029708Y013369D01*
X031676Y011400D01*
X015513Y023659D02*
X014528Y023659D01*
X008841Y022168D02*
X007641Y022168D01*
X007306Y021834D01*
X002743Y017729D02*
X002254Y017729D01*
X002219Y017694D01*
X009826Y014156D02*
X009826Y012700D01*
X005495Y008054D02*
X005298Y008054D01*
X004314Y008054D01*
X001899Y008054D01*
X001899Y007267D02*
X002739Y007267D01*
X002739Y006479D02*
X001899Y006479D01*
X001899Y005692D02*
X002739Y005692D01*
X005889Y007267D02*
X005889Y007660D01*
X005495Y008054D01*
X005889Y007267D02*
X007660Y005495D01*
X007660Y004511D01*
X008841Y002975D02*
X009412Y002975D01*
X009629Y005889D02*
X009629Y006479D01*
X010416Y007267D01*
X010416Y007660D01*
X008999Y007660D01*
X008841Y007818D01*
X012975Y005160D02*
X013074Y005062D01*
X012975Y005160D02*
X014058Y005160D01*
X002897Y008841D02*
X001899Y008841D01*
D59*
X003790Y002870D02*
X004062Y002870D01*
X003939Y002984D02*
X004345Y002605D01*
X004838Y002350D01*
X005381Y002237D01*
X005381Y002237D01*
X005935Y002275D01*
X005935Y002275D01*
X006458Y002461D01*
X006912Y002781D01*
X007129Y003048D01*
X007129Y001031D01*
X005629Y001031D01*
X001445Y005215D01*
X001445Y005215D01*
X001371Y005289D01*
X001275Y005328D01*
X001031Y005328D01*
X001031Y017408D01*
X001056Y017394D01*
X001096Y017383D01*
X001540Y017383D01*
X001540Y017399D01*
X001658Y017399D01*
X001658Y017383D01*
X001923Y017383D01*
X001923Y017314D01*
X001933Y017274D01*
X001954Y017237D01*
X001984Y017208D01*
X002020Y017187D01*
X002061Y017176D01*
X002210Y017176D01*
X002210Y017445D01*
X002229Y017479D01*
X002229Y017176D01*
X002378Y017176D01*
X002406Y017184D01*
X002435Y017176D01*
X002598Y017176D01*
X002491Y016796D01*
X002491Y016394D01*
X002189Y016568D01*
X001829Y016606D01*
X001484Y016494D01*
X001215Y016251D01*
X001068Y015920D01*
X001068Y015558D01*
X001215Y015227D01*
X001215Y015227D01*
X001484Y014984D01*
X001829Y014872D01*
X002189Y014910D01*
X002189Y014910D01*
X002503Y015091D01*
X002503Y015091D01*
X002503Y015091D01*
X002716Y015385D01*
X002747Y015531D01*
X002930Y015232D01*
X003335Y014853D01*
X003402Y014819D01*
X003372Y014819D01*
X003135Y014705D01*
X003135Y014705D01*
X002971Y014499D01*
X002912Y014243D01*
X002924Y014192D01*
X002873Y014204D01*
X002617Y014145D01*
X002617Y014145D01*
X002411Y013981D01*
X002297Y013744D01*
X002297Y009755D01*
X002384Y009545D01*
X002545Y009384D01*
X002755Y009297D01*
X005744Y009297D01*
X005981Y009411D01*
X006145Y009617D01*
X006204Y009873D01*
X006192Y009924D01*
X006243Y009912D01*
X006341Y009935D01*
X006341Y009759D01*
X006392Y009636D01*
X006487Y009542D01*
X006609Y009491D01*
X007208Y009491D01*
X007208Y009184D01*
X007247Y009090D01*
X007319Y009018D01*
X007413Y008979D01*
X007876Y008979D01*
X008014Y008841D01*
X007876Y008704D01*
X007413Y008704D01*
X007319Y008665D01*
X007247Y008593D01*
X007208Y008499D01*
X007208Y007924D01*
X007247Y007830D01*
X007319Y007758D01*
X007413Y007719D01*
X007778Y007719D01*
X007778Y007719D01*
X007531Y007719D01*
X007463Y007692D01*
X007396Y007719D01*
X007149Y007719D01*
X007098Y007771D01*
X007129Y007846D01*
X007129Y008381D01*
X007090Y008475D01*
X007029Y008535D01*
X007032Y008545D01*
X007032Y008743D01*
X006715Y008743D01*
X006715Y008822D01*
X006637Y008822D01*
X006637Y009158D01*
X006458Y009158D01*
X006418Y009147D01*
X006382Y009126D01*
X006352Y009097D01*
X006331Y009060D01*
X006320Y009020D01*
X006320Y008822D01*
X006637Y008822D01*
X006637Y008743D01*
X006320Y008743D01*
X006320Y008545D01*
X006323Y008535D01*
X006262Y008475D01*
X006223Y008381D01*
X006223Y007910D01*
X005845Y008288D01*
X005729Y008404D01*
X005577Y008467D01*
X004656Y008467D01*
X004656Y008468D01*
X004562Y008507D01*
X004078Y008507D01*
X004097Y008517D01*
X004126Y008547D01*
X004147Y008583D01*
X004158Y008624D01*
X004158Y008802D01*
X003802Y008802D01*
X003802Y008486D01*
X004015Y008486D01*
X003972Y008468D01*
X003972Y008467D01*
X003317Y008467D01*
X003350Y008500D01*
X003382Y008577D01*
X003399Y008547D01*
X003429Y008517D01*
X003465Y008496D01*
X003506Y008486D01*
X003723Y008486D01*
X003723Y008802D01*
X003802Y008802D01*
X003802Y008881D01*
X003723Y008881D01*
X003723Y009197D01*
X003506Y009197D01*
X003465Y009186D01*
X003429Y009166D01*
X003399Y009136D01*
X003382Y009106D01*
X003350Y009183D01*
X003278Y009255D01*
X003184Y009294D01*
X002609Y009294D01*
X002515Y009255D01*
X002320Y009255D01*
X002277Y009299D01*
X002183Y009337D01*
X001608Y009337D01*
X001514Y009299D01*
X001442Y009227D01*
X001403Y009132D01*
X001403Y008558D01*
X001442Y008464D01*
X001455Y008452D01*
X001442Y008439D01*
X001403Y008345D01*
X001403Y007771D01*
X001442Y007677D01*
X001455Y007664D01*
X001442Y007652D01*
X001403Y007558D01*
X001403Y006983D01*
X001442Y006889D01*
X001455Y006877D01*
X001442Y006864D01*
X001403Y006770D01*
X001403Y006196D01*
X001442Y006102D01*
X001455Y006089D01*
X001442Y006077D01*
X001403Y005983D01*
X001403Y005409D01*
X001442Y005315D01*
X001514Y005243D01*
X001608Y005204D01*
X002183Y005204D01*
X002277Y005243D01*
X002313Y005278D01*
X002397Y005278D01*
X002491Y005239D01*
X002987Y005239D01*
X003081Y005278D01*
X003153Y005350D01*
X003185Y005427D01*
X003202Y005397D01*
X003232Y005368D01*
X003268Y005347D01*
X003309Y005336D01*
X003487Y005336D01*
X003487Y005652D01*
X003566Y005652D01*
X003566Y005336D01*
X003744Y005336D01*
X003785Y005347D01*
X003821Y005368D01*
X003829Y005376D01*
X003651Y005083D01*
X003651Y005083D01*
X003501Y004548D01*
X003501Y003993D01*
X003651Y003458D01*
X003939Y002984D01*
X003938Y002986D02*
X003674Y002986D01*
X003557Y003103D02*
X003867Y003103D01*
X003796Y003219D02*
X003441Y003219D01*
X003324Y003336D02*
X003725Y003336D01*
X003654Y003453D02*
X003207Y003453D01*
X003091Y003569D02*
X003620Y003569D01*
X003651Y003458D02*
X003651Y003458D01*
X003587Y003686D02*
X002974Y003686D01*
X002858Y003802D02*
X003555Y003802D01*
X003522Y003919D02*
X002741Y003919D01*
X002624Y004036D02*
X003501Y004036D01*
X003501Y004152D02*
X002508Y004152D01*
X002391Y004269D02*
X003501Y004269D01*
X003501Y004385D02*
X002274Y004385D01*
X002158Y004502D02*
X003501Y004502D01*
X003521Y004619D02*
X002041Y004619D01*
X001925Y004735D02*
X003554Y004735D01*
X003586Y004852D02*
X001808Y004852D01*
X001691Y004969D02*
X003619Y004969D01*
X003652Y005085D02*
X001575Y005085D01*
X001458Y005202D02*
X003723Y005202D01*
X003794Y005318D02*
X003121Y005318D01*
X003487Y005435D02*
X003566Y005435D01*
X003566Y005552D02*
X003487Y005552D01*
X003566Y005652D02*
X003566Y005731D01*
X003882Y005731D01*
X003882Y005910D01*
X003872Y005950D01*
X003851Y005986D01*
X003821Y006016D01*
X003785Y006037D01*
X003744Y006048D01*
X003566Y006048D01*
X003566Y005731D01*
X003487Y005731D01*
X003487Y006048D01*
X003309Y006048D01*
X003268Y006037D01*
X003232Y006016D01*
X003202Y005986D01*
X003185Y005956D01*
X003153Y006034D01*
X003101Y006086D01*
X003153Y006137D01*
X003185Y006215D01*
X003202Y006185D01*
X003232Y006155D01*
X003268Y006134D01*
X003309Y006123D01*
X003487Y006123D01*
X003487Y006440D01*
X003566Y006440D01*
X003566Y006519D01*
X003487Y006519D01*
X003487Y006835D01*
X003309Y006835D01*
X003268Y006824D01*
X003232Y006803D01*
X003202Y006774D01*
X003185Y006744D01*
X003153Y006821D01*
X003101Y006873D01*
X003153Y006925D01*
X003185Y007002D01*
X003202Y006972D01*
X003232Y006942D01*
X003268Y006922D01*
X003309Y006911D01*
X003487Y006911D01*
X003487Y007227D01*
X003566Y007227D01*
X003566Y007306D01*
X003882Y007306D01*
X003882Y007484D01*
X003872Y007525D01*
X003851Y007561D01*
X003821Y007591D01*
X003785Y007612D01*
X003744Y007623D01*
X003566Y007623D01*
X003566Y007306D01*
X003487Y007306D01*
X003487Y007623D01*
X003309Y007623D01*
X003268Y007612D01*
X003232Y007591D01*
X003202Y007561D01*
X003185Y007531D01*
X003153Y007608D01*
X003121Y007641D01*
X003972Y007641D01*
X003972Y007640D01*
X004049Y007608D01*
X004019Y007591D01*
X003990Y007561D01*
X003969Y007525D01*
X003958Y007484D01*
X003958Y007306D01*
X004274Y007306D01*
X004274Y007227D01*
X003958Y007227D01*
X003958Y007049D01*
X003969Y007008D01*
X003990Y006972D01*
X004019Y006942D01*
X004056Y006922D01*
X004096Y006911D01*
X004274Y006911D01*
X004274Y007227D01*
X004353Y007227D01*
X004353Y006911D01*
X004532Y006911D01*
X004572Y006922D01*
X004608Y006942D01*
X004638Y006972D01*
X004659Y007008D01*
X004670Y007049D01*
X004670Y007227D01*
X004353Y007227D01*
X004353Y007306D01*
X004670Y007306D01*
X004670Y007484D01*
X004659Y007525D01*
X004638Y007561D01*
X004608Y007591D01*
X004578Y007608D01*
X004656Y007640D01*
X004656Y007641D01*
X004845Y007641D01*
X004845Y007531D01*
X004884Y007437D01*
X004945Y007376D01*
X004942Y007366D01*
X004942Y007168D01*
X005259Y007168D01*
X005259Y007089D01*
X005337Y007089D01*
X005337Y006753D01*
X005516Y006753D01*
X005556Y006764D01*
X005593Y006785D01*
X005622Y006815D01*
X005643Y006851D01*
X005654Y006891D01*
X005654Y006917D01*
X005654Y006916D01*
X006567Y006004D01*
X006458Y006080D01*
X005935Y006266D01*
X005381Y006304D01*
X004838Y006191D01*
X004345Y005936D01*
X003939Y005557D01*
X003877Y005455D01*
X003882Y005474D01*
X003882Y005652D01*
X003566Y005652D01*
X003566Y005668D02*
X004058Y005668D01*
X003939Y005557D02*
X003939Y005557D01*
X003936Y005552D02*
X003882Y005552D01*
X003882Y005785D02*
X004183Y005785D01*
X004308Y005901D02*
X003882Y005901D01*
X003817Y006018D02*
X004504Y006018D01*
X004345Y005936D02*
X004345Y005936D01*
X004729Y006135D02*
X003786Y006135D01*
X003785Y006134D02*
X003821Y006155D01*
X003851Y006185D01*
X003872Y006221D01*
X003882Y006261D01*
X003882Y006440D01*
X003566Y006440D01*
X003566Y006123D01*
X003744Y006123D01*
X003785Y006134D01*
X003880Y006251D02*
X005127Y006251D01*
X005381Y006304D02*
X005381Y006304D01*
X005259Y006753D02*
X005080Y006753D01*
X005040Y006764D01*
X005004Y006785D01*
X004974Y006815D01*
X004953Y006851D01*
X004942Y006891D01*
X004942Y007089D01*
X005259Y007089D01*
X005259Y006753D01*
X005259Y006834D02*
X005337Y006834D01*
X005337Y006951D02*
X005259Y006951D01*
X005259Y007068D02*
X005337Y007068D01*
X005634Y006834D02*
X005736Y006834D01*
X005853Y006718D02*
X003877Y006718D01*
X003872Y006737D02*
X003851Y006774D01*
X003821Y006803D01*
X003785Y006824D01*
X003744Y006835D01*
X003566Y006835D01*
X003566Y006519D01*
X003882Y006519D01*
X003882Y006697D01*
X003872Y006737D01*
X003882Y006601D02*
X005970Y006601D01*
X006086Y006484D02*
X003566Y006484D01*
X003566Y006368D02*
X003487Y006368D01*
X003487Y006251D02*
X003566Y006251D01*
X003566Y006135D02*
X003487Y006135D01*
X003487Y006018D02*
X003566Y006018D01*
X003566Y005901D02*
X003487Y005901D01*
X003487Y005785D02*
X003566Y005785D01*
X003236Y006018D02*
X003159Y006018D01*
X003150Y006135D02*
X003267Y006135D01*
X003487Y006601D02*
X003566Y006601D01*
X003566Y006718D02*
X003487Y006718D01*
X003487Y006834D02*
X003566Y006834D01*
X003566Y006911D02*
X003744Y006911D01*
X003785Y006922D01*
X003821Y006942D01*
X003851Y006972D01*
X003872Y007008D01*
X003882Y007049D01*
X003882Y007227D01*
X003566Y007227D01*
X003566Y006911D01*
X003566Y006951D02*
X003487Y006951D01*
X003487Y007068D02*
X003566Y007068D01*
X003566Y007184D02*
X003487Y007184D01*
X003566Y007301D02*
X004274Y007301D01*
X004353Y007301D02*
X004942Y007301D01*
X004942Y007184D02*
X004670Y007184D01*
X004670Y007068D02*
X004942Y007068D01*
X004942Y006951D02*
X004617Y006951D01*
X004353Y006951D02*
X004274Y006951D01*
X004274Y007068D02*
X004353Y007068D01*
X004353Y007184D02*
X004274Y007184D01*
X003958Y007184D02*
X003882Y007184D01*
X003882Y007068D02*
X003958Y007068D01*
X004011Y006951D02*
X003829Y006951D01*
X003747Y006834D02*
X004963Y006834D01*
X004904Y007417D02*
X004670Y007417D01*
X004654Y007534D02*
X004845Y007534D01*
X003974Y007534D02*
X003866Y007534D01*
X003882Y007417D02*
X003958Y007417D01*
X003566Y007417D02*
X003487Y007417D01*
X003487Y007534D02*
X003566Y007534D01*
X003187Y007534D02*
X003184Y007534D01*
X003164Y006951D02*
X003224Y006951D01*
X003306Y006834D02*
X003140Y006834D01*
X003882Y006368D02*
X006203Y006368D01*
X006319Y006251D02*
X005978Y006251D01*
X005935Y006266D02*
X005935Y006266D01*
X006306Y006135D02*
X006436Y006135D01*
X006458Y006080D02*
X006458Y006080D01*
X006547Y006018D02*
X006553Y006018D01*
X007202Y006538D02*
X008140Y006538D01*
X008397Y006281D01*
X008397Y006043D01*
X008436Y005949D01*
X008508Y005877D01*
X008602Y005838D01*
X008620Y005838D01*
X008586Y005819D01*
X008557Y005789D01*
X008536Y005753D01*
X008525Y005713D01*
X008525Y005534D01*
X008861Y005534D01*
X008861Y005456D01*
X008525Y005456D01*
X008525Y005277D01*
X008536Y005237D01*
X008557Y005200D01*
X008586Y005171D01*
X008623Y005150D01*
X008663Y005139D01*
X008861Y005139D01*
X008861Y005456D01*
X008940Y005456D01*
X008940Y005139D01*
X009138Y005139D01*
X009148Y005142D01*
X009185Y005105D01*
X009185Y004665D01*
X009224Y004571D01*
X009296Y004499D01*
X009324Y004488D01*
X009324Y004007D01*
X009355Y003932D01*
X009352Y003921D01*
X009352Y003753D01*
X009993Y003753D01*
X009993Y003694D01*
X009352Y003694D01*
X009352Y003593D01*
X009237Y003593D01*
X009237Y003664D01*
X008861Y003664D01*
X008861Y003704D01*
X008822Y003704D01*
X008822Y004000D01*
X008584Y004000D01*
X008544Y003990D01*
X008508Y003969D01*
X008478Y003939D01*
X008457Y003903D01*
X008448Y003868D01*
X008438Y003903D01*
X008418Y003939D01*
X008388Y003969D01*
X008352Y003990D01*
X008311Y004000D01*
X008192Y004000D01*
X008192Y004774D01*
X008141Y004897D01*
X008074Y004964D01*
X008074Y005577D01*
X008011Y005729D01*
X007202Y006538D01*
X007255Y006484D02*
X008194Y006484D01*
X008311Y006368D02*
X007372Y006368D01*
X007489Y006251D02*
X008397Y006251D01*
X008397Y006135D02*
X007605Y006135D01*
X007722Y006018D02*
X008408Y006018D01*
X008484Y005901D02*
X007838Y005901D01*
X007955Y005785D02*
X008554Y005785D01*
X008525Y005668D02*
X008036Y005668D01*
X008074Y005552D02*
X008525Y005552D01*
X008525Y005435D02*
X008074Y005435D01*
X008074Y005318D02*
X008525Y005318D01*
X008556Y005202D02*
X008074Y005202D01*
X008074Y005085D02*
X009185Y005085D01*
X009185Y004969D02*
X008074Y004969D01*
X008160Y004852D02*
X009185Y004852D01*
X009185Y004735D02*
X008192Y004735D01*
X008192Y004619D02*
X009204Y004619D01*
X009293Y004502D02*
X008192Y004502D01*
X008192Y004385D02*
X009324Y004385D01*
X009324Y004269D02*
X008192Y004269D01*
X008192Y004152D02*
X009324Y004152D01*
X009324Y004036D02*
X008192Y004036D01*
X008429Y003919D02*
X008466Y003919D01*
X008449Y003704D02*
X008192Y003704D01*
X008192Y003664D01*
X008822Y003664D01*
X008822Y003704D01*
X008449Y003704D01*
X008192Y003686D02*
X008822Y003686D01*
X008861Y003686D02*
X009352Y003686D01*
X009352Y003802D02*
X009237Y003802D01*
X009237Y003862D02*
X009226Y003903D01*
X009205Y003939D01*
X009175Y003969D01*
X009139Y003990D01*
X009099Y004000D01*
X008861Y004000D01*
X008861Y003704D01*
X009237Y003704D01*
X009237Y003862D01*
X009216Y003919D02*
X009352Y003919D01*
X008861Y003919D02*
X008822Y003919D01*
X008822Y003802D02*
X008861Y003802D01*
X009826Y003192D02*
X009826Y002582D01*
X010219Y002582D02*
X010219Y003192D01*
X010416Y003192D02*
X010790Y003192D01*
X010849Y003133D01*
X011204Y003487D01*
X011204Y006479D01*
X012975Y006479D01*
X013704Y007208D01*
X013704Y008211D01*
X013782Y008664D02*
X013436Y008664D01*
X013435Y008664D01*
X013456Y008685D01*
X013466Y008682D01*
X013664Y008682D01*
X013664Y008999D01*
X013743Y008999D01*
X013743Y008682D01*
X013782Y008682D01*
X013782Y008664D01*
X013743Y008700D02*
X013664Y008700D01*
X013664Y008817D02*
X013743Y008817D01*
X013743Y008933D02*
X013664Y008933D01*
X013664Y009078D02*
X013664Y009394D01*
X013466Y009394D01*
X013456Y009392D01*
X013396Y009452D01*
X013302Y009491D01*
X012767Y009491D01*
X012685Y009457D01*
X012624Y009482D01*
X012386Y009482D01*
X012396Y009493D01*
X012435Y009587D01*
X012435Y010065D01*
X012420Y010101D01*
X013432Y010101D01*
X013547Y010149D01*
X013636Y010238D01*
X013834Y010436D01*
X013991Y010436D01*
X014085Y010475D01*
X014157Y010547D01*
X014196Y010641D01*
X014196Y011294D01*
X014157Y011388D01*
X014085Y011460D01*
X013991Y011499D01*
X013818Y011499D01*
X013822Y011507D01*
X013822Y012160D01*
X013786Y012246D01*
X016313Y012246D01*
X016382Y012177D01*
X016476Y012138D01*
X016954Y012138D01*
X017049Y012177D01*
X017120Y012249D01*
X017159Y012343D01*
X017159Y012821D01*
X017152Y012837D01*
X018348Y012837D01*
X018940Y012246D01*
X018940Y012172D01*
X018933Y012169D01*
X018861Y012097D01*
X018822Y012003D01*
X018822Y011468D01*
X018861Y011374D01*
X018921Y011313D01*
X018919Y011303D01*
X018919Y011105D01*
X019235Y011105D01*
X019235Y011026D01*
X019314Y011026D01*
X019314Y010690D01*
X019492Y010690D01*
X019533Y010701D01*
X019569Y010722D01*
X019599Y010752D01*
X019620Y010788D01*
X019630Y010828D01*
X019630Y011026D01*
X019314Y011026D01*
X019314Y011105D01*
X019630Y011105D01*
X019630Y011263D01*
X019923Y011263D01*
X020376Y010810D01*
X019838Y010272D01*
X019759Y010239D01*
X019687Y010167D01*
X019649Y010073D01*
X019649Y009679D01*
X019232Y009679D01*
X019138Y009640D01*
X019066Y009568D01*
X019027Y009474D01*
X019027Y008996D01*
X019066Y008902D01*
X019138Y008830D01*
X019232Y008791D01*
X019710Y008791D01*
X019804Y008830D01*
X019875Y008900D01*
X020632Y008900D01*
X019923Y008192D01*
X019011Y008192D01*
X018888Y008141D01*
X018794Y008047D01*
X018721Y007974D01*
X018721Y008381D01*
X018393Y008710D01*
X017928Y008710D01*
X017599Y008381D01*
X017599Y008366D01*
X017353Y008613D01*
X017195Y008613D01*
X017195Y008183D01*
X017126Y008183D01*
X017126Y008613D01*
X016968Y008613D01*
X016696Y008341D01*
X016696Y008183D01*
X017126Y008183D01*
X017126Y008114D01*
X016696Y008114D01*
X016696Y007956D01*
X016943Y007710D01*
X016928Y007710D01*
X016599Y007381D01*
X016599Y006916D01*
X016867Y006649D01*
X016599Y006381D01*
X016599Y005916D01*
X016826Y005690D01*
X016826Y005574D01*
X016877Y005451D01*
X016971Y005357D01*
X017313Y005014D01*
X017436Y004963D01*
X018554Y004963D01*
X018677Y005014D01*
X018771Y005109D01*
X019216Y005554D01*
X020100Y005554D01*
X020027Y005481D01*
X020001Y005506D01*
X019907Y005545D01*
X019429Y005545D01*
X019335Y005506D01*
X019263Y005434D01*
X019224Y005340D01*
X019224Y004944D01*
X018978Y004944D01*
X018883Y004905D01*
X018811Y004833D01*
X018792Y004786D01*
X018576Y004786D01*
X018556Y004833D01*
X018484Y004905D01*
X018390Y004944D01*
X017107Y004944D01*
X017013Y004905D01*
X016941Y004833D01*
X016902Y004739D01*
X016902Y004165D01*
X016941Y004070D01*
X017013Y003998D01*
X017107Y003960D01*
X018390Y003960D01*
X018484Y003998D01*
X018556Y004070D01*
X018576Y004117D01*
X018792Y004117D01*
X018811Y004070D01*
X018883Y003998D01*
X018978Y003960D01*
X020260Y003960D01*
X020354Y003998D01*
X020426Y004070D01*
X020465Y004165D01*
X020465Y004739D01*
X020426Y004833D01*
X020376Y004883D01*
X020575Y005082D01*
X020821Y005082D01*
X020916Y005121D01*
X020987Y005193D01*
X021026Y005287D01*
X021026Y005821D01*
X020999Y005889D01*
X021026Y005956D01*
X021026Y005994D01*
X021039Y005999D01*
X021133Y006093D01*
X021185Y006145D01*
X021935Y006145D01*
X021971Y006059D01*
X022031Y005998D01*
X022029Y005988D01*
X022029Y005790D01*
X022345Y005790D01*
X022345Y005711D01*
X022424Y005711D01*
X022424Y005375D01*
X022603Y005375D01*
X022643Y005386D01*
X022679Y005407D01*
X022709Y005437D01*
X022730Y005473D01*
X022741Y005513D01*
X022741Y005583D01*
X022760Y005565D01*
X022796Y005544D01*
X022836Y005533D01*
X023034Y005533D01*
X023034Y005849D01*
X023113Y005849D01*
X023113Y005533D01*
X023311Y005533D01*
X023321Y005535D01*
X023381Y005475D01*
X023408Y005464D01*
X023408Y004984D01*
X023374Y004950D01*
X021195Y004950D01*
X021101Y004911D01*
X021029Y004839D01*
X020990Y004745D01*
X020990Y003883D01*
X021029Y003789D01*
X021101Y003717D01*
X021195Y003678D01*
X023397Y003678D01*
X023491Y003717D01*
X023563Y003789D01*
X023602Y003883D01*
X023602Y004231D01*
X024027Y004656D01*
X024078Y004779D01*
X024078Y005464D01*
X024104Y005475D01*
X024176Y005547D01*
X024196Y005593D01*
X024215Y005547D01*
X024287Y005475D01*
X024314Y005464D01*
X024314Y004779D01*
X024365Y004656D01*
X024790Y004231D01*
X024790Y003883D01*
X024829Y003789D01*
X024901Y003717D01*
X024995Y003678D01*
X027197Y003678D01*
X027291Y003717D01*
X027363Y003789D01*
X027402Y003883D01*
X027402Y004745D01*
X027363Y004839D01*
X027291Y004911D01*
X027197Y004950D01*
X025017Y004950D01*
X024983Y004984D01*
X024983Y005464D01*
X025010Y005475D01*
X025071Y005535D01*
X025080Y005533D01*
X025278Y005533D01*
X025278Y005849D01*
X025357Y005849D01*
X025357Y005533D01*
X025555Y005533D01*
X025596Y005544D01*
X025632Y005565D01*
X025662Y005594D01*
X025683Y005630D01*
X025693Y005671D01*
X025693Y005849D01*
X025357Y005849D01*
X025357Y005928D01*
X025278Y005928D01*
X025278Y006245D01*
X025080Y006245D01*
X025071Y006242D01*
X025010Y006302D01*
X024916Y006341D01*
X024892Y006341D01*
X024964Y006413D01*
X025003Y006507D01*
X025003Y007003D01*
X025001Y007007D01*
X025109Y007007D01*
X025184Y007038D01*
X025259Y007007D01*
X025424Y007007D01*
X025499Y007038D01*
X025574Y007007D01*
X025739Y007007D01*
X025814Y007038D01*
X025889Y007007D01*
X026054Y007007D01*
X026174Y007057D01*
X026266Y007148D01*
X026316Y007269D01*
X026316Y007808D01*
X026266Y007928D01*
X026263Y007931D01*
X026263Y007995D01*
X026218Y008103D01*
X026135Y008186D01*
X025697Y008624D01*
X025817Y008624D01*
X025868Y008638D01*
X025895Y008654D01*
X026150Y008399D01*
X026233Y008316D01*
X026248Y008309D01*
X026249Y008308D01*
X026245Y008287D01*
X026245Y008247D01*
X026339Y008247D01*
X026339Y008247D01*
X026245Y008247D01*
X026245Y008207D01*
X026254Y008162D01*
X026272Y008120D01*
X026297Y008083D01*
X026329Y008051D01*
X026366Y008025D01*
X026408Y008008D01*
X026453Y007999D01*
X026680Y007999D01*
X026907Y007999D01*
X026952Y008008D01*
X026994Y008025D01*
X027031Y008051D01*
X027063Y008083D01*
X027088Y008120D01*
X027098Y008144D01*
X027098Y007815D01*
X027137Y007721D01*
X027209Y007649D01*
X027303Y007610D01*
X027781Y007610D01*
X027875Y007649D01*
X027947Y007721D01*
X027986Y007815D01*
X027986Y008231D01*
X028110Y008231D01*
X028113Y008224D01*
X028173Y008163D01*
X028171Y008154D01*
X028171Y007956D01*
X028487Y007956D01*
X028487Y007877D01*
X028171Y007877D01*
X028171Y007679D01*
X028181Y007638D01*
X028202Y007602D01*
X028232Y007572D01*
X028268Y007551D01*
X028309Y007541D01*
X028487Y007541D01*
X028487Y007877D01*
X028566Y007877D01*
X028566Y007956D01*
X028882Y007956D01*
X028882Y008154D01*
X028880Y008163D01*
X028940Y008224D01*
X028951Y008251D01*
X029070Y008251D01*
X029090Y008231D01*
X029184Y008192D01*
X029758Y008192D01*
X029853Y008231D01*
X029904Y008283D01*
X029956Y008231D01*
X030050Y008192D01*
X030625Y008192D01*
X030719Y008231D01*
X030791Y008303D01*
X030794Y008310D01*
X030948Y008310D01*
X030948Y004649D01*
X027869Y004649D01*
X027746Y004598D01*
X027652Y004503D01*
X027601Y004380D01*
X027601Y003467D01*
X020783Y003467D01*
X020660Y003416D01*
X020566Y003322D01*
X020515Y003199D01*
X020515Y002680D01*
X020348Y002680D01*
X020358Y002697D01*
X020369Y002738D01*
X020369Y002936D01*
X019678Y002936D01*
X019678Y003054D01*
X019560Y003054D01*
X019560Y003390D01*
X019007Y003390D01*
X018967Y003379D01*
X018931Y003358D01*
X018901Y003329D01*
X018880Y003293D01*
X018869Y003252D01*
X018869Y003054D01*
X019560Y003054D01*
X019560Y002936D01*
X018869Y002936D01*
X018869Y002738D01*
X018880Y002697D01*
X018890Y002680D01*
X018478Y002680D01*
X018488Y002697D01*
X018499Y002738D01*
X018499Y002936D01*
X017808Y002936D01*
X017808Y003054D01*
X018499Y003054D01*
X018499Y003252D01*
X018488Y003293D01*
X018467Y003329D01*
X018437Y003358D01*
X018401Y003379D01*
X018360Y003390D01*
X017808Y003390D01*
X017808Y003054D01*
X017690Y003054D01*
X017690Y003390D01*
X017137Y003390D01*
X017097Y003379D01*
X017061Y003358D01*
X017031Y003329D01*
X017010Y003293D01*
X016999Y003252D01*
X016999Y003054D01*
X017690Y003054D01*
X017690Y002936D01*
X016999Y002936D01*
X016999Y002738D01*
X017010Y002697D01*
X017020Y002680D01*
X014394Y002680D01*
X014394Y002877D01*
X014058Y002877D01*
X014058Y002995D01*
X014394Y002995D01*
X014394Y003291D01*
X014383Y003332D01*
X014362Y003368D01*
X014333Y003398D01*
X014297Y003419D01*
X014256Y003430D01*
X014058Y003430D01*
X014058Y002995D01*
X013940Y002995D01*
X013940Y003400D01*
X013949Y003409D01*
X013970Y003445D01*
X013981Y003486D01*
X013981Y003704D01*
X013981Y003921D01*
X013970Y003962D01*
X013949Y003998D01*
X013919Y004028D01*
X013883Y004049D01*
X013843Y004060D01*
X013723Y004060D01*
X013710Y004060D01*
X013652Y004117D01*
X013558Y004156D01*
X013431Y004156D01*
X013410Y004177D01*
X013410Y004747D01*
X013704Y004747D01*
X013704Y004735D01*
X013410Y004735D01*
X013410Y004619D02*
X013765Y004619D01*
X013743Y004641D02*
X013815Y004569D01*
X013909Y004530D01*
X014404Y004530D01*
X014498Y004569D01*
X014570Y004641D01*
X014609Y004735D01*
X016902Y004735D01*
X016902Y004619D02*
X014548Y004619D01*
X014609Y004735D02*
X014609Y005388D01*
X014606Y005397D01*
X014778Y005397D01*
X014872Y005435D01*
X014944Y005507D01*
X014983Y005602D01*
X014983Y005908D01*
X015031Y005955D01*
X015082Y006078D01*
X015082Y007325D01*
X016745Y008988D01*
X016954Y008988D01*
X017049Y009027D01*
X017120Y009099D01*
X017159Y009193D01*
X017159Y009671D01*
X017120Y009765D01*
X017049Y009837D01*
X016954Y009876D01*
X016476Y009876D01*
X016382Y009837D01*
X016310Y009765D01*
X016271Y009671D01*
X016271Y009461D01*
X014557Y007747D01*
X014530Y007720D01*
X014530Y009462D01*
X014561Y009493D01*
X014600Y009587D01*
X014600Y010065D01*
X014561Y010159D01*
X014489Y010231D01*
X014395Y010270D01*
X013917Y010270D01*
X013823Y010231D01*
X013751Y010159D01*
X013712Y010065D01*
X013712Y009587D01*
X013751Y009493D01*
X013782Y009462D01*
X013782Y009394D01*
X013743Y009394D01*
X013743Y009078D01*
X013664Y009078D01*
X013664Y009167D02*
X013743Y009167D01*
X013743Y009283D02*
X013664Y009283D01*
X013782Y009400D02*
X013448Y009400D01*
X013741Y009516D02*
X012406Y009516D01*
X012435Y009633D02*
X013712Y009633D01*
X013712Y009750D02*
X012435Y009750D01*
X012435Y009866D02*
X013712Y009866D01*
X013712Y009983D02*
X012435Y009983D01*
X012421Y010099D02*
X013727Y010099D01*
X013809Y010216D02*
X013614Y010216D01*
X013731Y010333D02*
X019899Y010333D01*
X020015Y010449D02*
X014023Y010449D01*
X014165Y010566D02*
X020132Y010566D01*
X020249Y010682D02*
X014196Y010682D01*
X014196Y010799D02*
X018926Y010799D01*
X018929Y010788D02*
X018950Y010752D01*
X018980Y010722D01*
X019016Y010701D01*
X019057Y010690D01*
X019235Y010690D01*
X019235Y011026D01*
X018919Y011026D01*
X018919Y010828D01*
X018929Y010788D01*
X018919Y010916D02*
X014196Y010916D01*
X014196Y011032D02*
X019235Y011032D01*
X019314Y011032D02*
X020154Y011032D01*
X020270Y010916D02*
X019630Y010916D01*
X019623Y010799D02*
X020365Y010799D01*
X020037Y011149D02*
X019630Y011149D01*
X019314Y010916D02*
X019235Y010916D01*
X019235Y010799D02*
X019314Y010799D01*
X018919Y011149D02*
X014196Y011149D01*
X014196Y011265D02*
X018919Y011265D01*
X018857Y011382D02*
X014159Y011382D01*
X013991Y011499D02*
X018822Y011499D01*
X018822Y011615D02*
X013822Y011615D01*
X013822Y011732D02*
X018822Y011732D01*
X018822Y011849D02*
X013822Y011849D01*
X013822Y011965D02*
X018822Y011965D01*
X018855Y012082D02*
X013822Y012082D01*
X013806Y012198D02*
X016361Y012198D01*
X017070Y012198D02*
X018940Y012198D01*
X018871Y012315D02*
X017148Y012315D01*
X017159Y012432D02*
X018754Y012432D01*
X018638Y012548D02*
X017159Y012548D01*
X017159Y012665D02*
X018521Y012665D01*
X018405Y012781D02*
X017159Y012781D01*
X015938Y014019D02*
X015867Y013948D01*
X015773Y013909D01*
X015295Y013909D01*
X015201Y013948D01*
X015129Y014020D01*
X015090Y014114D01*
X015090Y014592D01*
X015129Y014686D01*
X015201Y014758D01*
X015295Y014797D01*
X015681Y014797D01*
X015681Y015183D01*
X015720Y015277D01*
X015792Y015349D01*
X015886Y015388D01*
X016364Y015388D01*
X016458Y015349D01*
X016530Y015277D01*
X016569Y015183D01*
X016569Y015082D01*
X016862Y015082D01*
X016862Y015380D01*
X016901Y015474D01*
X016973Y015546D01*
X017067Y015585D01*
X017545Y015585D01*
X017639Y015546D01*
X017709Y015475D01*
X021200Y015475D01*
X021193Y015492D01*
X021193Y015702D01*
X020959Y015935D01*
X020908Y016058D01*
X020908Y016266D01*
X020822Y016302D01*
X020762Y016362D01*
X020752Y016360D01*
X020725Y016360D01*
X020789Y016333D01*
X020861Y016261D01*
X020900Y016167D01*
X020900Y015689D01*
X020861Y015595D01*
X020789Y015523D01*
X020695Y015484D01*
X020217Y015484D01*
X020123Y015523D01*
X020053Y015592D01*
X014542Y015592D01*
X014419Y015643D01*
X014324Y015738D01*
X014324Y015738D01*
X014075Y015987D01*
X013751Y015987D01*
X013711Y015947D01*
X013664Y015928D01*
X013711Y015909D01*
X013783Y015837D01*
X013822Y015743D01*
X013822Y015208D01*
X013794Y015141D01*
X013822Y015073D01*
X013822Y014539D01*
X013783Y014444D01*
X013711Y014373D01*
X013705Y014370D01*
X013705Y014099D01*
X013903Y013900D01*
X019144Y013900D01*
X019267Y013850D01*
X019361Y013755D01*
X020012Y013105D01*
X020012Y013411D01*
X020051Y013505D01*
X020123Y013577D01*
X020217Y013616D01*
X020695Y013616D01*
X020789Y013577D01*
X020861Y013505D01*
X020900Y013411D01*
X020900Y012933D01*
X020861Y012839D01*
X020791Y012770D01*
X020791Y012130D01*
X021134Y011788D01*
X021135Y011785D01*
X021210Y011710D01*
X021193Y011752D01*
X021193Y012230D01*
X021232Y012324D01*
X021268Y012360D01*
X021263Y012373D01*
X021263Y012908D01*
X021302Y013002D01*
X021362Y013063D01*
X021360Y013072D01*
X021360Y013271D01*
X021676Y013271D01*
X021676Y013349D01*
X021360Y013349D01*
X021360Y013547D01*
X021370Y013588D01*
X021391Y013624D01*
X021421Y013654D01*
X021457Y013675D01*
X021498Y013686D01*
X021676Y013686D01*
X021676Y013349D01*
X021755Y013349D01*
X022071Y013349D01*
X022071Y013547D01*
X022060Y013588D01*
X022040Y013624D01*
X022010Y013654D01*
X021974Y013675D01*
X021933Y013686D01*
X021755Y013686D01*
X021755Y013349D01*
X021755Y013271D01*
X022071Y013271D01*
X022071Y013072D01*
X022069Y013063D01*
X022129Y013002D01*
X022168Y012908D01*
X022168Y012373D01*
X022129Y012279D01*
X022081Y012230D01*
X022081Y012230D01*
X022081Y011752D01*
X022076Y011741D01*
X022383Y011741D01*
X022492Y011696D01*
X022523Y011696D01*
X022523Y011726D01*
X022477Y011835D01*
X022477Y012375D01*
X022483Y012389D01*
X022483Y012728D01*
X022382Y012728D01*
X022288Y012767D01*
X022216Y012839D01*
X022177Y012933D01*
X022177Y013411D01*
X022216Y013505D01*
X022288Y013577D01*
X022382Y013616D01*
X022860Y013616D01*
X022954Y013577D01*
X023026Y013505D01*
X023028Y013500D01*
X023034Y013514D01*
X023106Y013586D01*
X023200Y013625D01*
X023735Y013625D01*
X023829Y013586D01*
X023889Y013525D01*
X023899Y013528D01*
X024097Y013528D01*
X024097Y013212D01*
X024176Y013212D01*
X024176Y013528D01*
X024374Y013528D01*
X024415Y013517D01*
X024451Y013496D01*
X024452Y013495D01*
X024452Y014019D01*
X015938Y014019D01*
X015866Y013948D02*
X024452Y013948D01*
X024452Y013831D02*
X019286Y013831D01*
X019402Y013714D02*
X024452Y013714D01*
X024452Y013598D02*
X023800Y013598D01*
X024097Y013481D02*
X024176Y013481D01*
X024176Y013364D02*
X024097Y013364D01*
X024097Y013248D02*
X024176Y013248D01*
X024176Y013133D02*
X024176Y012816D01*
X024374Y012816D01*
X024415Y012827D01*
X024451Y012848D01*
X024452Y012849D01*
X024452Y012637D01*
X024314Y012637D01*
X024239Y012606D01*
X024164Y012637D01*
X023999Y012637D01*
X023924Y012606D01*
X023849Y012637D01*
X023786Y012637D01*
X023786Y012741D01*
X023829Y012758D01*
X023889Y012819D01*
X023899Y012816D01*
X024097Y012816D01*
X024097Y013133D01*
X024176Y013133D01*
X024176Y013131D02*
X024097Y013131D01*
X024097Y013015D02*
X024176Y013015D01*
X024176Y012898D02*
X024097Y012898D01*
X023852Y012781D02*
X024452Y012781D01*
X024452Y012665D02*
X023786Y012665D01*
X023134Y013598D02*
X022904Y013598D01*
X022337Y013598D02*
X022055Y013598D01*
X022071Y013481D02*
X022206Y013481D01*
X022177Y013364D02*
X022071Y013364D01*
X022071Y013248D02*
X022177Y013248D01*
X022177Y013131D02*
X022071Y013131D01*
X022117Y013015D02*
X022177Y013015D01*
X022168Y012898D02*
X022191Y012898D01*
X022168Y012781D02*
X022274Y012781D01*
X022168Y012665D02*
X022483Y012665D01*
X022483Y012548D02*
X022168Y012548D01*
X022168Y012432D02*
X022483Y012432D01*
X022477Y012315D02*
X022144Y012315D01*
X022081Y012198D02*
X022477Y012198D01*
X022477Y012082D02*
X022081Y012082D01*
X022081Y011965D02*
X022477Y011965D01*
X022477Y011849D02*
X022081Y011849D01*
X022405Y011732D02*
X022520Y011732D01*
X021201Y011732D02*
X021188Y011732D01*
X021193Y011849D02*
X021073Y011849D01*
X020956Y011965D02*
X021193Y011965D01*
X021193Y012082D02*
X020840Y012082D01*
X020791Y012198D02*
X021193Y012198D01*
X021228Y012315D02*
X020791Y012315D01*
X020791Y012432D02*
X021263Y012432D01*
X021263Y012548D02*
X020791Y012548D01*
X020791Y012665D02*
X021263Y012665D01*
X021263Y012781D02*
X020803Y012781D01*
X020885Y012898D02*
X021263Y012898D01*
X021314Y013015D02*
X020900Y013015D01*
X020900Y013131D02*
X021360Y013131D01*
X021360Y013248D02*
X020900Y013248D01*
X020900Y013364D02*
X021360Y013364D01*
X021360Y013481D02*
X020871Y013481D01*
X020739Y013598D02*
X021376Y013598D01*
X021676Y013598D02*
X021755Y013598D01*
X021755Y013481D02*
X021676Y013481D01*
X021676Y013364D02*
X021755Y013364D01*
X020172Y013598D02*
X019519Y013598D01*
X019636Y013481D02*
X020041Y013481D01*
X020012Y013364D02*
X019752Y013364D01*
X019869Y013248D02*
X020012Y013248D01*
X020012Y013131D02*
X019985Y013131D01*
X020065Y015580D02*
X017556Y015580D01*
X017056Y015580D02*
X013822Y015580D01*
X013822Y015463D02*
X016897Y015463D01*
X016862Y015347D02*
X016460Y015347D01*
X016549Y015230D02*
X016862Y015230D01*
X016862Y015114D02*
X016569Y015114D01*
X015790Y015347D02*
X013822Y015347D01*
X013822Y015230D02*
X015701Y015230D01*
X015681Y015114D02*
X013805Y015114D01*
X013822Y014997D02*
X015681Y014997D01*
X015681Y014880D02*
X013822Y014880D01*
X013822Y014764D02*
X015215Y014764D01*
X015113Y014647D02*
X013822Y014647D01*
X013818Y014531D02*
X015090Y014531D01*
X015090Y014414D02*
X013752Y014414D01*
X013705Y014297D02*
X015090Y014297D01*
X015090Y014181D02*
X013705Y014181D01*
X013739Y014064D02*
X015111Y014064D01*
X015203Y013948D02*
X013856Y013948D01*
X013076Y013789D02*
X013017Y013813D01*
X012539Y013813D01*
X012445Y013774D01*
X012373Y013702D01*
X012334Y013608D01*
X012334Y013130D01*
X012373Y013036D01*
X012397Y013012D01*
X012358Y012995D01*
X012297Y012935D01*
X012288Y012937D01*
X012089Y012937D01*
X012089Y012621D01*
X012011Y012621D01*
X012011Y012937D01*
X011813Y012937D01*
X011772Y012927D01*
X011736Y012906D01*
X011706Y012876D01*
X011685Y012840D01*
X011674Y012799D01*
X011674Y012621D01*
X012011Y012621D01*
X012011Y012542D01*
X012089Y012542D01*
X012089Y012226D01*
X012288Y012226D01*
X012297Y012228D01*
X012358Y012168D01*
X012452Y012129D01*
X012916Y012129D01*
X012916Y011507D01*
X012955Y011413D01*
X013027Y011341D01*
X013034Y011338D01*
X013034Y011007D01*
X012956Y011007D01*
X012956Y011402D01*
X012777Y011402D01*
X012737Y011391D01*
X012700Y011370D01*
X012671Y011341D01*
X012650Y011304D01*
X012639Y011264D01*
X012639Y011007D01*
X012956Y011007D01*
X012956Y010928D01*
X012639Y010928D01*
X012639Y010731D01*
X011338Y010731D01*
X011222Y010683D01*
X011202Y010663D01*
X010965Y010663D01*
X010871Y010624D01*
X010799Y010552D01*
X010760Y010458D01*
X010760Y010141D01*
X010747Y010141D01*
X010632Y010093D01*
X010543Y010004D01*
X010089Y009550D01*
X009901Y009550D01*
X009906Y009569D01*
X009906Y009806D01*
X009609Y009806D01*
X009609Y009845D01*
X009906Y009845D01*
X009906Y010083D01*
X009896Y010121D01*
X009906Y010159D01*
X009906Y010397D01*
X009609Y010397D01*
X009609Y010436D01*
X009570Y010436D01*
X009570Y010811D01*
X009411Y010811D01*
X009371Y010801D01*
X009334Y010780D01*
X009332Y010778D01*
X009322Y010803D01*
X009316Y010809D01*
X009571Y011065D01*
X010236Y011065D01*
X010239Y011059D01*
X010311Y010987D01*
X010405Y010948D01*
X010940Y010948D01*
X011007Y010976D01*
X011074Y010948D01*
X011609Y010948D01*
X011691Y010982D01*
X011752Y010956D01*
X012230Y010956D01*
X012324Y010995D01*
X012396Y011067D01*
X012435Y011161D01*
X012435Y011639D01*
X012396Y011734D01*
X012324Y011806D01*
X012230Y011844D01*
X011752Y011844D01*
X011691Y011819D01*
X011609Y011853D01*
X011074Y011853D01*
X011007Y011825D01*
X010940Y011853D01*
X010405Y011853D01*
X010311Y011814D01*
X010278Y011782D01*
X010278Y013656D01*
X010239Y013750D01*
X010239Y013751D01*
X010239Y013843D01*
X010270Y013917D01*
X010270Y014395D01*
X010231Y014489D01*
X010159Y014561D01*
X010065Y014600D01*
X009587Y014600D01*
X009493Y014561D01*
X009421Y014489D01*
X009382Y014395D01*
X009382Y013917D01*
X009412Y013843D01*
X009412Y013751D01*
X009412Y013750D01*
X009380Y013673D01*
X009362Y013703D01*
X009333Y013732D01*
X009297Y013753D01*
X009256Y013764D01*
X009078Y013764D01*
X009078Y012739D01*
X008999Y012739D01*
X008999Y013764D01*
X008820Y013764D01*
X008780Y013753D01*
X008744Y013732D01*
X008714Y013703D01*
X008693Y013667D01*
X008682Y013626D01*
X008682Y012739D01*
X008999Y012739D01*
X008999Y012660D01*
X009078Y012660D01*
X009078Y011635D01*
X009192Y011635D01*
X008504Y010948D01*
X007799Y010948D01*
X007798Y010949D01*
X007798Y011467D01*
X007747Y011590D01*
X007653Y011684D01*
X007530Y011735D01*
X006819Y011735D01*
X006819Y014362D01*
X006732Y014571D01*
X006732Y014571D01*
X006571Y014732D01*
X006362Y014819D01*
X005605Y014819D01*
X005902Y015029D01*
X006252Y015459D01*
X006474Y015969D01*
X006476Y015987D01*
X006724Y015987D01*
X006714Y015949D01*
X006714Y015731D01*
X007030Y015731D01*
X007030Y015652D01*
X007109Y015652D01*
X007109Y015297D01*
X007288Y015297D01*
X007328Y015307D01*
X007364Y015328D01*
X007394Y015358D01*
X007415Y015394D01*
X007426Y015435D01*
X007426Y015652D01*
X007109Y015652D01*
X007109Y015731D01*
X007426Y015731D01*
X007426Y015949D01*
X007415Y015987D01*
X007727Y015987D01*
X007850Y016038D01*
X007944Y016132D01*
X007995Y016255D01*
X007995Y017285D01*
X008755Y016526D01*
X008849Y016432D01*
X008972Y016381D01*
X011065Y016381D01*
X011460Y015986D01*
X011460Y015665D01*
X011510Y015542D01*
X011707Y015345D01*
X011801Y015251D01*
X011924Y015200D01*
X012165Y015200D01*
X012168Y015193D01*
X012240Y015121D01*
X012317Y015088D01*
X012287Y015071D01*
X012257Y015041D01*
X012237Y015005D01*
X012226Y014965D01*
X012226Y014786D01*
X012542Y014786D01*
X012542Y014708D01*
X012226Y014708D01*
X012226Y014529D01*
X012237Y014489D01*
X012257Y014452D01*
X012287Y014423D01*
X012323Y014402D01*
X012364Y014391D01*
X012542Y014391D01*
X012542Y014708D01*
X012621Y014708D01*
X012621Y014391D01*
X012799Y014391D01*
X012840Y014402D01*
X012876Y014423D01*
X012906Y014452D01*
X012927Y014489D01*
X012931Y014504D01*
X012955Y014444D01*
X013027Y014373D01*
X013033Y014370D01*
X013033Y013893D01*
X013076Y013789D01*
X013059Y013831D02*
X010239Y013831D01*
X010254Y013714D02*
X012386Y013714D01*
X012334Y013598D02*
X010278Y013598D01*
X010278Y013481D02*
X012334Y013481D01*
X012334Y013364D02*
X010278Y013364D01*
X010278Y013248D02*
X012334Y013248D01*
X012334Y013131D02*
X010278Y013131D01*
X010278Y013015D02*
X012395Y013015D01*
X012089Y012898D02*
X012011Y012898D01*
X012011Y012781D02*
X012089Y012781D01*
X012089Y012665D02*
X012011Y012665D01*
X012011Y012548D02*
X010278Y012548D01*
X010278Y012432D02*
X011674Y012432D01*
X011674Y012364D02*
X011685Y012323D01*
X011706Y012287D01*
X011736Y012257D01*
X011772Y012237D01*
X011813Y012226D01*
X012011Y012226D01*
X012011Y012542D01*
X011674Y012542D01*
X011674Y012364D01*
X011690Y012315D02*
X010278Y012315D01*
X010278Y012198D02*
X012327Y012198D01*
X012089Y012315D02*
X012011Y012315D01*
X012011Y012432D02*
X012089Y012432D01*
X011674Y012665D02*
X010278Y012665D01*
X010278Y012781D02*
X011674Y012781D01*
X011728Y012898D02*
X010278Y012898D01*
X009078Y012898D02*
X008999Y012898D01*
X008999Y012781D02*
X009078Y012781D01*
X008999Y012665D02*
X006819Y012665D01*
X006819Y012781D02*
X008682Y012781D01*
X008682Y012898D02*
X006819Y012898D01*
X006819Y013015D02*
X008682Y013015D01*
X008682Y013131D02*
X006819Y013131D01*
X006819Y013248D02*
X008682Y013248D01*
X008682Y013364D02*
X006819Y013364D01*
X006819Y013481D02*
X008682Y013481D01*
X008682Y013598D02*
X006819Y013598D01*
X006819Y013714D02*
X008726Y013714D01*
X008999Y013714D02*
X009078Y013714D01*
X009078Y013598D02*
X008999Y013598D01*
X008999Y013481D02*
X009078Y013481D01*
X009078Y013364D02*
X008999Y013364D01*
X008999Y013248D02*
X009078Y013248D01*
X009078Y013131D02*
X008999Y013131D01*
X008999Y013015D02*
X009078Y013015D01*
X008999Y012660D02*
X008682Y012660D01*
X008682Y011773D01*
X008693Y011733D01*
X008714Y011697D01*
X008744Y011667D01*
X008780Y011646D01*
X008820Y011635D01*
X008999Y011635D01*
X008999Y012660D01*
X008999Y012548D02*
X009078Y012548D01*
X009078Y012432D02*
X008999Y012432D01*
X008999Y012315D02*
X009078Y012315D01*
X009078Y012198D02*
X008999Y012198D01*
X008999Y012082D02*
X009078Y012082D01*
X009078Y011965D02*
X008999Y011965D01*
X008999Y011849D02*
X009078Y011849D01*
X009078Y011732D02*
X008999Y011732D01*
X009172Y011615D02*
X007722Y011615D01*
X007785Y011499D02*
X009055Y011499D01*
X008939Y011382D02*
X007798Y011382D01*
X007798Y011265D02*
X008822Y011265D01*
X008705Y011149D02*
X007798Y011149D01*
X007798Y011032D02*
X008589Y011032D01*
X009323Y010799D02*
X009368Y010799D01*
X009422Y010916D02*
X012639Y010916D01*
X012639Y011032D02*
X012361Y011032D01*
X012430Y011149D02*
X012639Y011149D01*
X012639Y011265D02*
X012435Y011265D01*
X012435Y011382D02*
X012721Y011382D01*
X012920Y011499D02*
X012435Y011499D01*
X012435Y011615D02*
X012916Y011615D01*
X012916Y011732D02*
X012397Y011732D01*
X011991Y011400D02*
X011341Y011400D01*
X011063Y011849D02*
X010951Y011849D01*
X010393Y011849D02*
X010278Y011849D01*
X010278Y011965D02*
X012916Y011965D01*
X012916Y011849D02*
X011620Y011849D01*
X012916Y012082D02*
X010278Y012082D01*
X010265Y011032D02*
X009539Y011032D01*
X009609Y010811D02*
X009609Y010436D01*
X009906Y010436D01*
X009906Y010673D01*
X009895Y010714D01*
X009874Y010750D01*
X009845Y010780D01*
X009808Y010801D01*
X009768Y010811D01*
X009609Y010811D01*
X009609Y010799D02*
X009570Y010799D01*
X009570Y010682D02*
X009609Y010682D01*
X009609Y010566D02*
X009570Y010566D01*
X009570Y010449D02*
X009609Y010449D01*
X009609Y010397D02*
X009609Y009845D01*
X009570Y009845D01*
X009570Y010021D01*
X009570Y010397D01*
X009609Y010397D01*
X009609Y010333D02*
X009570Y010333D01*
X009570Y010216D02*
X009609Y010216D01*
X009609Y010099D02*
X009570Y010099D01*
X009570Y009983D02*
X009609Y009983D01*
X009609Y009866D02*
X009570Y009866D01*
X009906Y009866D02*
X010405Y009866D01*
X010288Y009750D02*
X009906Y009750D01*
X009906Y009633D02*
X010172Y009633D01*
X010219Y009235D02*
X010810Y009826D01*
X011991Y009826D01*
X011991Y007798D01*
X012444Y007531D02*
X012405Y007437D01*
X012344Y007376D01*
X012347Y007366D01*
X012347Y007168D01*
X012030Y007168D01*
X012030Y007089D01*
X012347Y007089D01*
X012347Y006891D01*
X012336Y006851D01*
X012315Y006815D01*
X012295Y006794D01*
X012845Y006794D01*
X013389Y007338D01*
X013389Y007778D01*
X013369Y007787D01*
X013302Y007759D01*
X012767Y007759D01*
X012673Y007798D01*
X012601Y007870D01*
X012562Y007964D01*
X012562Y008459D01*
X012601Y008553D01*
X012655Y008607D01*
X012624Y008594D01*
X012306Y008594D01*
X012306Y008243D01*
X012333Y008232D01*
X012405Y008160D01*
X012444Y008066D01*
X012444Y007531D01*
X012444Y007534D02*
X013389Y007534D01*
X013389Y007651D02*
X012444Y007651D01*
X012444Y007767D02*
X012747Y007767D01*
X012595Y007884D02*
X012444Y007884D01*
X012444Y008000D02*
X012562Y008000D01*
X012562Y008117D02*
X012422Y008117D01*
X012328Y008234D02*
X012562Y008234D01*
X012562Y008350D02*
X012306Y008350D01*
X012306Y008467D02*
X012565Y008467D01*
X012631Y008583D02*
X012306Y008583D01*
X011597Y009038D02*
X011204Y008645D01*
X009963Y008645D01*
X009963Y008841D02*
X010416Y008841D01*
X010613Y009038D01*
X010219Y009235D02*
X009963Y009235D01*
X009461Y009283D02*
X009402Y009283D01*
X009402Y009167D02*
X009461Y009167D01*
X009461Y009050D02*
X009402Y009050D01*
X009402Y008933D02*
X009461Y008933D01*
X009461Y008871D02*
X009461Y009430D01*
X009411Y009430D01*
X009402Y009433D01*
X009402Y008871D01*
X009461Y008871D01*
X009461Y008812D02*
X009402Y008812D01*
X009402Y008171D01*
X009244Y008171D01*
X009295Y008120D01*
X009314Y008074D01*
X010103Y008074D01*
X010177Y008104D01*
X010511Y008104D01*
X010483Y008133D01*
X009901Y008133D01*
X009877Y008143D01*
X009716Y008143D01*
X009641Y008174D01*
X009630Y008171D01*
X009461Y008171D01*
X009461Y008812D01*
X009461Y008700D02*
X009402Y008700D01*
X009402Y008583D02*
X009461Y008583D01*
X009461Y008467D02*
X009402Y008467D01*
X009402Y008350D02*
X009461Y008350D01*
X009461Y008234D02*
X009402Y008234D01*
X009296Y008117D02*
X010498Y008117D01*
X010613Y008448D02*
X009963Y008448D01*
X010613Y008448D02*
X011204Y007857D01*
X011204Y007267D01*
X010810Y006873D01*
X010810Y006086D01*
X010416Y005692D01*
X010416Y004255D01*
X010219Y004255D02*
X010219Y004904D01*
X010219Y006282D01*
X009629Y005889D02*
X009629Y005495D01*
X009570Y005495D01*
X009629Y005495D02*
X010023Y005495D01*
X010023Y004255D01*
X010052Y003753D02*
X010693Y003753D01*
X010693Y003921D01*
X010690Y003932D01*
X010721Y004007D01*
X010721Y004168D01*
X010731Y004192D01*
X010731Y005561D01*
X010889Y005719D01*
X010889Y003625D01*
X010693Y003625D01*
X010693Y003694D01*
X010052Y003694D01*
X010052Y003753D01*
X010693Y003802D02*
X010889Y003802D01*
X010889Y003686D02*
X010693Y003686D01*
X010693Y003919D02*
X010889Y003919D01*
X010889Y004036D02*
X010721Y004036D01*
X010721Y004152D02*
X010889Y004152D01*
X010889Y004269D02*
X010731Y004269D01*
X010731Y004385D02*
X010889Y004385D01*
X010889Y004502D02*
X010731Y004502D01*
X010731Y004619D02*
X010889Y004619D01*
X010889Y004735D02*
X010731Y004735D01*
X010731Y004852D02*
X010889Y004852D01*
X010889Y004969D02*
X010731Y004969D01*
X010731Y005085D02*
X010889Y005085D01*
X010889Y005202D02*
X010731Y005202D01*
X010731Y005318D02*
X010889Y005318D01*
X010889Y005435D02*
X010731Y005435D01*
X010731Y005552D02*
X010889Y005552D01*
X010889Y005668D02*
X010838Y005668D01*
X011616Y006794D02*
X011609Y006812D01*
X011537Y006884D01*
X011443Y006923D01*
X011306Y006923D01*
X011471Y007088D01*
X011519Y007204D01*
X011519Y007445D01*
X011537Y007452D01*
X011561Y007476D01*
X011577Y007437D01*
X011638Y007376D01*
X011635Y007366D01*
X011635Y007168D01*
X011952Y007168D01*
X011952Y007089D01*
X011635Y007089D01*
X011635Y006891D01*
X011646Y006851D01*
X011667Y006815D01*
X011687Y006794D01*
X011616Y006794D01*
X011587Y006834D02*
X011656Y006834D01*
X011635Y006951D02*
X011333Y006951D01*
X011450Y007068D02*
X011635Y007068D01*
X011635Y007184D02*
X011510Y007184D01*
X011519Y007301D02*
X011635Y007301D01*
X011596Y007417D02*
X011519Y007417D01*
X012347Y007301D02*
X013351Y007301D01*
X013389Y007417D02*
X012386Y007417D01*
X012347Y007184D02*
X013235Y007184D01*
X013118Y007068D02*
X012347Y007068D01*
X012347Y006951D02*
X013002Y006951D01*
X012885Y006834D02*
X012327Y006834D01*
X013322Y007767D02*
X013389Y007767D01*
X013034Y008211D02*
X013034Y009038D01*
X014530Y009050D02*
X015860Y009050D01*
X015977Y009167D02*
X014530Y009167D01*
X014530Y009283D02*
X016093Y009283D01*
X016210Y009400D02*
X014530Y009400D01*
X014571Y009516D02*
X016271Y009516D01*
X016271Y009633D02*
X014600Y009633D01*
X014600Y009750D02*
X016304Y009750D01*
X016453Y009866D02*
X014600Y009866D01*
X014600Y009983D02*
X019649Y009983D01*
X019649Y009866D02*
X016978Y009866D01*
X017127Y009750D02*
X019649Y009750D01*
X019659Y010099D02*
X014586Y010099D01*
X014504Y010216D02*
X019736Y010216D01*
X019131Y009633D02*
X017159Y009633D01*
X017159Y009516D02*
X019045Y009516D01*
X019027Y009400D02*
X017159Y009400D01*
X017159Y009283D02*
X019027Y009283D01*
X019027Y009167D02*
X017148Y009167D01*
X017071Y009050D02*
X019027Y009050D01*
X019053Y008933D02*
X016690Y008933D01*
X016573Y008817D02*
X019171Y008817D01*
X018635Y008467D02*
X020198Y008467D01*
X020082Y008350D02*
X018721Y008350D01*
X018721Y008234D02*
X019965Y008234D01*
X020315Y008583D02*
X018519Y008583D01*
X018402Y008700D02*
X020432Y008700D01*
X020548Y008817D02*
X019772Y008817D01*
X018864Y008117D02*
X018721Y008117D01*
X018721Y008000D02*
X018748Y008000D01*
X017918Y008700D02*
X016457Y008700D01*
X016340Y008583D02*
X016939Y008583D01*
X016822Y008467D02*
X016224Y008467D01*
X016107Y008350D02*
X016706Y008350D01*
X016696Y008234D02*
X015990Y008234D01*
X015874Y008117D02*
X017126Y008117D01*
X017126Y008234D02*
X017195Y008234D01*
X017195Y008350D02*
X017126Y008350D01*
X017126Y008467D02*
X017195Y008467D01*
X017195Y008583D02*
X017126Y008583D01*
X017382Y008583D02*
X017802Y008583D01*
X017685Y008467D02*
X017498Y008467D01*
X016769Y007884D02*
X015641Y007884D01*
X015757Y008000D02*
X016696Y008000D01*
X016885Y007767D02*
X015524Y007767D01*
X015407Y007651D02*
X016869Y007651D01*
X016752Y007534D02*
X015291Y007534D01*
X015174Y007417D02*
X016636Y007417D01*
X016599Y007301D02*
X015082Y007301D01*
X015082Y007184D02*
X016599Y007184D01*
X016599Y007068D02*
X015082Y007068D01*
X015082Y006951D02*
X016599Y006951D01*
X016681Y006834D02*
X015082Y006834D01*
X015082Y006718D02*
X016798Y006718D01*
X016819Y006601D02*
X015082Y006601D01*
X015082Y006484D02*
X016703Y006484D01*
X016599Y006368D02*
X015082Y006368D01*
X015082Y006251D02*
X016599Y006251D01*
X016599Y006135D02*
X015082Y006135D01*
X015057Y006018D02*
X016599Y006018D01*
X016614Y005901D02*
X014983Y005901D01*
X014983Y005785D02*
X016731Y005785D01*
X016826Y005668D02*
X014983Y005668D01*
X014962Y005552D02*
X016835Y005552D01*
X016893Y005435D02*
X014871Y005435D01*
X014609Y005318D02*
X017009Y005318D01*
X017126Y005202D02*
X014609Y005202D01*
X014609Y005085D02*
X017243Y005085D01*
X017424Y004969D02*
X014609Y004969D01*
X014609Y004852D02*
X016960Y004852D01*
X016902Y004502D02*
X013410Y004502D01*
X013410Y004385D02*
X016902Y004385D01*
X016902Y004269D02*
X013410Y004269D01*
X013568Y004152D02*
X016908Y004152D01*
X016976Y004036D02*
X013906Y004036D01*
X013981Y003919D02*
X020990Y003919D01*
X020990Y004036D02*
X020392Y004036D01*
X020460Y004152D02*
X020990Y004152D01*
X020990Y004269D02*
X020465Y004269D01*
X020465Y004385D02*
X020990Y004385D01*
X020990Y004502D02*
X020465Y004502D01*
X020465Y004619D02*
X020990Y004619D01*
X020990Y004735D02*
X020465Y004735D01*
X020407Y004852D02*
X021042Y004852D01*
X020830Y005085D02*
X023408Y005085D01*
X023408Y005202D02*
X020991Y005202D01*
X021026Y005318D02*
X023408Y005318D01*
X023408Y005435D02*
X022707Y005435D01*
X022741Y005552D02*
X022782Y005552D01*
X023034Y005552D02*
X023113Y005552D01*
X023113Y005668D02*
X023034Y005668D01*
X023034Y005785D02*
X023113Y005785D01*
X022424Y005668D02*
X022345Y005668D01*
X022345Y005711D02*
X022345Y005375D01*
X022167Y005375D01*
X022126Y005386D01*
X022090Y005407D01*
X022061Y005437D01*
X022040Y005473D01*
X022029Y005513D01*
X022029Y005711D01*
X022345Y005711D01*
X022345Y005785D02*
X021026Y005785D01*
X021026Y005668D02*
X022029Y005668D01*
X022029Y005552D02*
X021026Y005552D01*
X021026Y005435D02*
X022062Y005435D01*
X022345Y005435D02*
X022424Y005435D01*
X022424Y005552D02*
X022345Y005552D01*
X022029Y005901D02*
X021004Y005901D01*
X021058Y006018D02*
X022012Y006018D01*
X021939Y006135D02*
X021175Y006135D01*
X020098Y005552D02*
X019214Y005552D01*
X019264Y005435D02*
X019097Y005435D01*
X018981Y005318D02*
X019224Y005318D01*
X019224Y005202D02*
X018864Y005202D01*
X018747Y005085D02*
X019224Y005085D01*
X019224Y004969D02*
X018566Y004969D01*
X018537Y004852D02*
X018831Y004852D01*
X018846Y004036D02*
X018522Y004036D01*
X018460Y003336D02*
X018908Y003336D01*
X018869Y003219D02*
X018499Y003219D01*
X018499Y003103D02*
X018869Y003103D01*
X018869Y002870D02*
X018499Y002870D01*
X018499Y002753D02*
X018869Y002753D01*
X019560Y002986D02*
X017808Y002986D01*
X017808Y003103D02*
X017690Y003103D01*
X017690Y003219D02*
X017808Y003219D01*
X017808Y003336D02*
X017690Y003336D01*
X017690Y002986D02*
X014058Y002986D01*
X014058Y003103D02*
X013940Y003103D01*
X013940Y002995D02*
X013940Y002877D01*
X013604Y002877D01*
X013604Y002680D01*
X013528Y002680D01*
X013528Y002877D01*
X013192Y002877D01*
X013192Y002995D01*
X013528Y002995D01*
X013528Y003251D01*
X013558Y003251D01*
X013604Y003270D01*
X013604Y002995D01*
X013940Y002995D01*
X013940Y002986D02*
X013192Y002986D01*
X013074Y002986D02*
X012719Y002986D01*
X012737Y002995D02*
X013074Y002995D01*
X013074Y002877D01*
X012737Y002877D01*
X012737Y002680D01*
X012719Y002680D01*
X012719Y004501D01*
X012738Y004519D01*
X012738Y003971D01*
X012789Y003848D01*
X012883Y003753D01*
X012883Y003753D01*
X013054Y003583D01*
X013054Y003456D01*
X013065Y003430D01*
X012876Y003430D01*
X012835Y003419D01*
X012799Y003398D01*
X012769Y003368D01*
X012748Y003332D01*
X012737Y003291D01*
X012737Y002995D01*
X012737Y003103D02*
X012719Y003103D01*
X012719Y003219D02*
X012737Y003219D01*
X012751Y003336D02*
X012719Y003336D01*
X012719Y003453D02*
X013055Y003453D01*
X013054Y003569D02*
X012719Y003569D01*
X012719Y003686D02*
X012951Y003686D01*
X012835Y003802D02*
X012719Y003802D01*
X012719Y003919D02*
X012760Y003919D01*
X012738Y004036D02*
X012719Y004036D01*
X012719Y004152D02*
X012738Y004152D01*
X012738Y004269D02*
X012719Y004269D01*
X012719Y004385D02*
X012738Y004385D01*
X012738Y004502D02*
X012721Y004502D01*
X012050Y004204D02*
X012050Y002744D01*
X011986Y002680D01*
X011900Y002680D01*
X011892Y002688D01*
X011798Y002727D01*
X011302Y002727D01*
X011208Y002688D01*
X011200Y002680D01*
X011152Y002680D01*
X011224Y002752D01*
X011256Y002829D01*
X011273Y002799D01*
X011303Y002769D01*
X011339Y002748D01*
X011380Y002737D01*
X011538Y002737D01*
X011538Y003113D01*
X011578Y003113D01*
X011578Y003152D01*
X011874Y003152D01*
X011874Y003390D01*
X011864Y003430D01*
X011843Y003467D01*
X011813Y003496D01*
X011777Y003517D01*
X011736Y003528D01*
X011578Y003528D01*
X011578Y003152D01*
X011538Y003152D01*
X011538Y003528D01*
X011519Y003528D01*
X011519Y004215D01*
X011536Y004205D01*
X011576Y004194D01*
X011755Y004194D01*
X011755Y004530D01*
X011834Y004530D01*
X011834Y004194D01*
X012012Y004194D01*
X012050Y004204D01*
X012050Y004152D02*
X011519Y004152D01*
X011519Y004036D02*
X012050Y004036D01*
X012050Y003919D02*
X011519Y003919D01*
X011519Y003802D02*
X012050Y003802D01*
X012050Y003686D02*
X011519Y003686D01*
X011519Y003569D02*
X012050Y003569D01*
X012050Y003453D02*
X011851Y003453D01*
X011874Y003336D02*
X012050Y003336D01*
X012050Y003219D02*
X011874Y003219D01*
X011874Y003113D02*
X011578Y003113D01*
X011578Y002737D01*
X011736Y002737D01*
X011777Y002748D01*
X011813Y002769D01*
X011843Y002799D01*
X011864Y002835D01*
X011874Y002876D01*
X011874Y003113D01*
X011874Y003103D02*
X012050Y003103D01*
X012050Y002986D02*
X011874Y002986D01*
X011873Y002870D02*
X012050Y002870D01*
X012050Y002753D02*
X011785Y002753D01*
X011578Y002753D02*
X011538Y002753D01*
X011538Y002870D02*
X011578Y002870D01*
X011578Y002986D02*
X011538Y002986D01*
X011538Y003103D02*
X011578Y003103D01*
X011578Y003219D02*
X011538Y003219D01*
X011538Y003336D02*
X011578Y003336D01*
X011578Y003453D02*
X011538Y003453D01*
X011331Y002753D02*
X011224Y002753D01*
X012719Y002753D02*
X012737Y002753D01*
X012737Y002870D02*
X012719Y002870D01*
X013528Y002870D02*
X013604Y002870D01*
X013604Y002753D02*
X013528Y002753D01*
X013528Y003103D02*
X013604Y003103D01*
X013604Y003219D02*
X013528Y003219D01*
X013940Y003219D02*
X014058Y003219D01*
X014058Y003336D02*
X013940Y003336D01*
X013972Y003453D02*
X020747Y003453D01*
X020579Y003336D02*
X020330Y003336D01*
X020337Y003329D02*
X020307Y003358D01*
X020271Y003379D01*
X020230Y003390D01*
X019678Y003390D01*
X019678Y003054D01*
X020369Y003054D01*
X020369Y003252D01*
X020358Y003293D01*
X020337Y003329D01*
X020369Y003219D02*
X020523Y003219D01*
X020515Y003103D02*
X020369Y003103D01*
X020515Y002986D02*
X019678Y002986D01*
X019678Y003103D02*
X019560Y003103D01*
X019560Y003219D02*
X019678Y003219D01*
X019678Y003336D02*
X019560Y003336D01*
X020369Y002870D02*
X020515Y002870D01*
X020515Y002753D02*
X020369Y002753D01*
X021176Y003686D02*
X013981Y003686D01*
X013981Y003704D02*
X013763Y003704D01*
X013981Y003704D01*
X013981Y003802D02*
X021023Y003802D01*
X020461Y004969D02*
X023393Y004969D01*
X023990Y004619D02*
X024402Y004619D01*
X024332Y004735D02*
X024060Y004735D01*
X024078Y004852D02*
X024314Y004852D01*
X024314Y004969D02*
X024078Y004969D01*
X024078Y005085D02*
X024314Y005085D01*
X024314Y005202D02*
X024078Y005202D01*
X024078Y005318D02*
X024314Y005318D01*
X024314Y005435D02*
X024078Y005435D01*
X024178Y005552D02*
X024213Y005552D01*
X024983Y005435D02*
X030948Y005435D01*
X030948Y005552D02*
X025610Y005552D01*
X025693Y005668D02*
X030948Y005668D01*
X030948Y005785D02*
X025693Y005785D01*
X025693Y005928D02*
X025693Y006106D01*
X025683Y006147D01*
X025662Y006183D01*
X025632Y006213D01*
X025596Y006234D01*
X025555Y006245D01*
X025357Y006245D01*
X025357Y005928D01*
X025693Y005928D01*
X025693Y006018D02*
X030948Y006018D01*
X030948Y005901D02*
X025357Y005901D01*
X025357Y005785D02*
X025278Y005785D01*
X025278Y005668D02*
X025357Y005668D01*
X025357Y005552D02*
X025278Y005552D01*
X024983Y005318D02*
X030948Y005318D01*
X030948Y005202D02*
X024983Y005202D01*
X024983Y005085D02*
X030948Y005085D01*
X030948Y004969D02*
X024999Y004969D01*
X024519Y004502D02*
X023873Y004502D01*
X023756Y004385D02*
X024635Y004385D01*
X024752Y004269D02*
X023640Y004269D01*
X023602Y004152D02*
X024790Y004152D01*
X024790Y004036D02*
X023602Y004036D01*
X023602Y003919D02*
X024790Y003919D01*
X024823Y003802D02*
X023568Y003802D01*
X023416Y003686D02*
X024976Y003686D01*
X027216Y003686D02*
X027601Y003686D01*
X027601Y003802D02*
X027368Y003802D01*
X027402Y003919D02*
X027601Y003919D01*
X027601Y004036D02*
X027402Y004036D01*
X027402Y004152D02*
X027601Y004152D01*
X027601Y004269D02*
X027402Y004269D01*
X027402Y004385D02*
X027603Y004385D01*
X027652Y004502D02*
X027402Y004502D01*
X027402Y004619D02*
X027797Y004619D01*
X027402Y004735D02*
X030948Y004735D01*
X030948Y004852D02*
X027350Y004852D01*
X027601Y003569D02*
X013981Y003569D01*
X013763Y003704D02*
X013763Y003704D01*
X013723Y004046D02*
X013723Y004046D01*
X013723Y004060D01*
X013723Y004046D01*
X013743Y004641D02*
X013704Y004735D01*
X014381Y003336D02*
X017038Y003336D01*
X016999Y003219D02*
X014394Y003219D01*
X014394Y003103D02*
X016999Y003103D01*
X016999Y002870D02*
X014394Y002870D01*
X014394Y002753D02*
X016999Y002753D01*
X011834Y004269D02*
X011755Y004269D01*
X011755Y004385D02*
X011834Y004385D01*
X011834Y004502D02*
X011755Y004502D01*
X008940Y005202D02*
X008861Y005202D01*
X008861Y005318D02*
X008940Y005318D01*
X008940Y005435D02*
X008861Y005435D01*
X008841Y006282D02*
X008251Y006873D01*
X008777Y006793D02*
X008822Y006793D01*
X008822Y007089D01*
X008861Y007089D01*
X008861Y006793D01*
X009099Y006793D01*
X009139Y006803D01*
X009175Y006824D01*
X009205Y006854D01*
X009226Y006890D01*
X009237Y006931D01*
X009237Y007089D01*
X008861Y007089D01*
X008861Y007129D01*
X009237Y007129D01*
X009237Y007247D01*
X009812Y007247D01*
X009278Y006713D01*
X009240Y006622D01*
X009174Y006687D01*
X009080Y006726D01*
X008843Y006726D01*
X008777Y006793D01*
X008822Y006834D02*
X008861Y006834D01*
X008861Y006951D02*
X008822Y006951D01*
X008822Y007068D02*
X008861Y007068D01*
X009237Y007068D02*
X009633Y007068D01*
X009749Y007184D02*
X009237Y007184D01*
X009237Y006951D02*
X009516Y006951D01*
X009399Y006834D02*
X009185Y006834D01*
X009101Y006718D02*
X009283Y006718D01*
X008900Y007877D02*
X008900Y008448D01*
X008900Y008645D02*
X008290Y008645D01*
X007989Y008817D02*
X006715Y008817D01*
X006715Y008822D02*
X007032Y008822D01*
X007032Y009020D01*
X007021Y009060D01*
X007000Y009097D01*
X006971Y009126D01*
X006934Y009147D01*
X006894Y009158D01*
X006715Y009158D01*
X006715Y008822D01*
X006637Y008817D02*
X003802Y008817D01*
X003802Y008881D02*
X004158Y008881D01*
X004158Y009059D01*
X004147Y009100D01*
X004126Y009136D01*
X004097Y009166D01*
X004060Y009186D01*
X004020Y009197D01*
X003802Y009197D01*
X003802Y008881D01*
X003802Y008933D02*
X003723Y008933D01*
X003723Y009050D02*
X003802Y009050D01*
X003802Y009167D02*
X003723Y009167D01*
X003430Y009167D02*
X003357Y009167D01*
X003210Y009283D02*
X007208Y009283D01*
X007215Y009167D02*
X004095Y009167D01*
X004158Y009050D02*
X006328Y009050D01*
X006320Y008933D02*
X004158Y008933D01*
X004158Y008700D02*
X006320Y008700D01*
X006320Y008583D02*
X004147Y008583D01*
X003802Y008583D02*
X003723Y008583D01*
X003723Y008700D02*
X003802Y008700D01*
X002583Y009283D02*
X002292Y009283D01*
X002515Y009255D02*
X002515Y009255D01*
X002545Y009384D02*
X002545Y009384D01*
X002529Y009400D02*
X001031Y009400D01*
X001031Y009516D02*
X002412Y009516D01*
X002384Y009545D02*
X002384Y009545D01*
X002348Y009633D02*
X001031Y009633D01*
X001031Y009750D02*
X002299Y009750D01*
X002297Y009866D02*
X001031Y009866D01*
X001031Y009983D02*
X002297Y009983D01*
X002297Y010099D02*
X001031Y010099D01*
X001031Y010216D02*
X002297Y010216D01*
X002297Y010333D02*
X001031Y010333D01*
X001031Y010449D02*
X002297Y010449D01*
X002297Y010566D02*
X001031Y010566D01*
X001031Y010682D02*
X002297Y010682D01*
X002297Y010799D02*
X001031Y010799D01*
X001031Y010916D02*
X002297Y010916D01*
X002297Y011032D02*
X001031Y011032D01*
X001031Y011149D02*
X002297Y011149D01*
X002297Y011265D02*
X001031Y011265D01*
X001031Y011382D02*
X002297Y011382D01*
X002297Y011499D02*
X001031Y011499D01*
X001031Y011615D02*
X002297Y011615D01*
X002297Y011732D02*
X001031Y011732D01*
X001031Y011849D02*
X002297Y011849D01*
X002297Y011965D02*
X001031Y011965D01*
X001031Y012082D02*
X002297Y012082D01*
X002297Y012198D02*
X001031Y012198D01*
X001031Y012315D02*
X002297Y012315D01*
X002297Y012432D02*
X001031Y012432D01*
X001031Y012548D02*
X002297Y012548D01*
X002297Y012665D02*
X001031Y012665D01*
X001031Y012781D02*
X002297Y012781D01*
X002297Y012898D02*
X001031Y012898D01*
X001031Y013015D02*
X002297Y013015D01*
X002297Y013131D02*
X001031Y013131D01*
X001031Y013248D02*
X002297Y013248D01*
X002297Y013364D02*
X001031Y013364D01*
X001031Y013481D02*
X002297Y013481D01*
X002297Y013598D02*
X001031Y013598D01*
X001031Y013714D02*
X002297Y013714D01*
X002339Y013831D02*
X001031Y013831D01*
X001031Y013948D02*
X002395Y013948D01*
X002411Y013981D02*
X002411Y013981D01*
X002411Y013981D01*
X002515Y014064D02*
X001031Y014064D01*
X001031Y014181D02*
X002773Y014181D01*
X002873Y014204D02*
X002873Y014204D01*
X002912Y014243D02*
X002912Y014243D01*
X002925Y014297D02*
X001031Y014297D01*
X001031Y014414D02*
X002951Y014414D01*
X002971Y014499D02*
X002971Y014499D01*
X002996Y014531D02*
X001031Y014531D01*
X001031Y014647D02*
X003089Y014647D01*
X003257Y014764D02*
X001031Y014764D01*
X001031Y014880D02*
X001804Y014880D01*
X001829Y014872D02*
X001829Y014872D01*
X001906Y014880D02*
X003306Y014880D01*
X003335Y014853D02*
X003335Y014853D01*
X003181Y014997D02*
X002340Y014997D01*
X002519Y015114D02*
X003056Y015114D01*
X002932Y015230D02*
X002604Y015230D01*
X002689Y015347D02*
X002860Y015347D01*
X002930Y015232D02*
X002930Y015232D01*
X002930Y015232D01*
X002716Y015385D02*
X002716Y015385D01*
X002733Y015463D02*
X002789Y015463D01*
X002491Y016396D02*
X002487Y016396D01*
X002491Y016513D02*
X002285Y016513D01*
X002189Y016568D02*
X002189Y016568D01*
X002491Y016630D02*
X001031Y016630D01*
X001031Y016746D02*
X002491Y016746D01*
X002510Y016863D02*
X001031Y016863D01*
X001031Y016979D02*
X002543Y016979D01*
X002575Y017096D02*
X001031Y017096D01*
X001031Y017213D02*
X001979Y017213D01*
X001923Y017329D02*
X001031Y017329D01*
X001031Y016513D02*
X001544Y016513D01*
X001484Y016494D02*
X001484Y016494D01*
X001376Y016396D02*
X001031Y016396D01*
X001031Y016280D02*
X001247Y016280D01*
X001215Y016251D02*
X001215Y016251D01*
X001176Y016163D02*
X001031Y016163D01*
X001031Y016047D02*
X001124Y016047D01*
X001072Y015930D02*
X001031Y015930D01*
X001031Y015813D02*
X001068Y015813D01*
X001068Y015697D02*
X001031Y015697D01*
X001031Y015580D02*
X001068Y015580D01*
X001031Y015463D02*
X001110Y015463D01*
X001162Y015347D02*
X001031Y015347D01*
X001031Y015230D02*
X001214Y015230D01*
X001341Y015114D02*
X001031Y015114D01*
X001031Y014997D02*
X001470Y014997D01*
X001484Y014984D02*
X001484Y014984D01*
X001829Y016606D02*
X001829Y016606D01*
X002210Y017213D02*
X002229Y017213D01*
X002229Y017329D02*
X002210Y017329D01*
X002210Y017446D02*
X002229Y017446D01*
X001511Y018551D02*
X001393Y018551D01*
X001393Y019190D01*
X001511Y019190D01*
X001511Y018931D01*
X001511Y018551D01*
X001511Y018612D02*
X001393Y018612D01*
X001393Y018729D02*
X001511Y018729D01*
X001511Y018845D02*
X001393Y018845D01*
X001393Y018962D02*
X001511Y018962D01*
X001511Y019078D02*
X001393Y019078D01*
X002229Y020262D02*
X002210Y020296D01*
X002210Y020565D01*
X002061Y020565D01*
X002028Y020556D01*
X002242Y020770D01*
X002281Y020866D01*
X002281Y023526D01*
X008606Y025424D01*
X008501Y025048D01*
X008501Y024493D01*
X008651Y023958D01*
X008939Y023484D01*
X008939Y023484D01*
X009177Y023262D01*
X008996Y023262D01*
X008902Y023223D01*
X008832Y023152D01*
X007129Y023152D01*
X007129Y023538D01*
X007090Y023632D01*
X007029Y023693D01*
X007032Y023702D01*
X007032Y023900D01*
X006715Y023900D01*
X006715Y023979D01*
X006637Y023979D01*
X006637Y023900D01*
X006320Y023900D01*
X006320Y023702D01*
X006323Y023693D01*
X006262Y023632D01*
X006223Y023538D01*
X006223Y023370D01*
X006156Y023303D01*
X006145Y023275D01*
X006145Y023341D01*
X006117Y023408D01*
X006145Y023476D01*
X006145Y024010D01*
X006106Y024104D01*
X006034Y024176D01*
X005940Y024215D01*
X005444Y024215D01*
X005350Y024176D01*
X005278Y024104D01*
X005246Y024028D01*
X005246Y024028D01*
X004328Y023110D01*
X004328Y023373D01*
X004289Y023467D01*
X004217Y023539D01*
X004123Y023578D01*
X003418Y023578D01*
X003324Y023539D01*
X003252Y023467D01*
X003213Y023373D01*
X003213Y023355D01*
X003072Y023355D01*
X002949Y023304D01*
X002746Y023101D01*
X002652Y023007D01*
X002601Y022884D01*
X002601Y021570D01*
X002652Y021447D01*
X002849Y021250D01*
X002943Y021156D01*
X003066Y021105D01*
X003389Y021105D01*
X003389Y020192D01*
X003413Y020135D01*
X003408Y020125D01*
X003408Y019717D01*
X003219Y019717D01*
X003222Y019721D01*
X003222Y019930D01*
X003140Y020071D01*
X003189Y020071D01*
X003189Y020427D01*
X003179Y020467D01*
X003158Y020504D01*
X003128Y020533D01*
X003092Y020554D01*
X003051Y020565D01*
X002802Y020565D01*
X002802Y020216D01*
X002684Y020216D01*
X002684Y020565D01*
X002435Y020565D01*
X002406Y020557D01*
X002378Y020565D01*
X002229Y020565D01*
X002229Y020262D01*
X002229Y020361D02*
X002210Y020361D01*
X002210Y020478D02*
X002229Y020478D01*
X002066Y020594D02*
X003389Y020594D01*
X003389Y020478D02*
X003173Y020478D01*
X003189Y020361D02*
X003389Y020361D01*
X003389Y020245D02*
X003189Y020245D01*
X003189Y020128D02*
X003410Y020128D01*
X003408Y020011D02*
X003175Y020011D01*
X003222Y019895D02*
X003408Y019895D01*
X003408Y019778D02*
X003222Y019778D01*
X003723Y019778D02*
X006086Y019778D01*
X006086Y019747D02*
X005559Y019747D01*
X005481Y019668D01*
X005298Y019668D01*
X005298Y019471D01*
X003723Y019471D01*
X003723Y020062D01*
X004772Y020062D01*
X004831Y020003D01*
X005371Y020003D01*
X005431Y020062D01*
X005481Y020062D01*
X005559Y019983D01*
X006086Y019983D01*
X006086Y019747D01*
X006086Y019895D02*
X003723Y019895D01*
X003723Y020011D02*
X004823Y020011D01*
X005111Y019737D02*
X005101Y019727D01*
X005082Y019708D01*
X004117Y019708D01*
X003723Y019661D02*
X005298Y019661D01*
X005298Y019545D02*
X003723Y019545D01*
X002802Y020245D02*
X002684Y020245D01*
X002684Y020361D02*
X002802Y020361D01*
X002802Y020478D02*
X002684Y020478D01*
X002266Y020828D02*
X003389Y020828D01*
X003389Y020944D02*
X002281Y020944D01*
X002281Y021061D02*
X003389Y021061D01*
X003389Y020711D02*
X002183Y020711D01*
X002281Y021177D02*
X002922Y021177D01*
X002805Y021294D02*
X002281Y021294D01*
X002281Y021411D02*
X002689Y021411D01*
X002619Y021527D02*
X002281Y021527D01*
X002281Y021644D02*
X002601Y021644D01*
X002601Y021760D02*
X002281Y021760D01*
X002281Y021877D02*
X002601Y021877D01*
X002601Y021994D02*
X002281Y021994D01*
X002281Y022110D02*
X002601Y022110D01*
X002601Y022227D02*
X002281Y022227D01*
X002281Y022343D02*
X002601Y022343D01*
X002601Y022460D02*
X002281Y022460D01*
X002281Y022577D02*
X002601Y022577D01*
X002601Y022693D02*
X002281Y022693D01*
X002281Y022810D02*
X002601Y022810D01*
X002619Y022927D02*
X002281Y022927D01*
X002281Y023043D02*
X002688Y023043D01*
X002805Y023160D02*
X002281Y023160D01*
X002281Y023276D02*
X002921Y023276D01*
X003222Y023393D02*
X002281Y023393D01*
X002281Y023510D02*
X003295Y023510D01*
X003391Y023859D02*
X005077Y023859D01*
X004961Y023743D02*
X003002Y023743D01*
X002614Y023626D02*
X004844Y023626D01*
X004727Y023510D02*
X004246Y023510D01*
X004319Y023393D02*
X004611Y023393D01*
X004494Y023276D02*
X004328Y023276D01*
X004328Y023160D02*
X004378Y023160D01*
X004169Y024093D02*
X005273Y024093D01*
X005194Y023976D02*
X003780Y023976D01*
X004557Y024209D02*
X005429Y024209D01*
X005335Y024442D02*
X008515Y024442D01*
X008501Y024559D02*
X005723Y024559D01*
X006112Y024676D02*
X008501Y024676D01*
X008501Y024792D02*
X006501Y024792D01*
X006889Y024909D02*
X008501Y024909D01*
X008501Y025026D02*
X007278Y025026D01*
X007667Y025142D02*
X008527Y025142D01*
X008560Y025259D02*
X008056Y025259D01*
X008444Y025375D02*
X008593Y025375D01*
X008548Y024326D02*
X004946Y024326D01*
X005954Y024209D02*
X006329Y024209D01*
X006331Y024218D02*
X006320Y024177D01*
X006320Y023979D01*
X006637Y023979D01*
X006637Y024315D01*
X006458Y024315D01*
X006418Y024305D01*
X006382Y024284D01*
X006352Y024254D01*
X006331Y024218D01*
X006320Y024093D02*
X006111Y024093D01*
X006145Y023976D02*
X006637Y023976D01*
X006715Y023976D02*
X008646Y023976D01*
X008651Y023958D02*
X008651Y023958D01*
X008711Y023859D02*
X007032Y023859D01*
X007032Y023743D02*
X008782Y023743D01*
X008853Y023626D02*
X007092Y023626D01*
X007129Y023510D02*
X008924Y023510D01*
X009037Y023393D02*
X007129Y023393D01*
X007129Y023276D02*
X009162Y023276D01*
X008839Y023160D02*
X007129Y023160D01*
X006223Y023393D02*
X006123Y023393D01*
X006145Y023510D02*
X006223Y023510D01*
X006260Y023626D02*
X006145Y023626D01*
X006145Y023743D02*
X006320Y023743D01*
X006320Y023859D02*
X006145Y023859D01*
X006637Y024093D02*
X006715Y024093D01*
X006715Y023979D02*
X006715Y024315D01*
X006894Y024315D01*
X006934Y024305D01*
X006971Y024284D01*
X007000Y024254D01*
X007021Y024218D01*
X007032Y024177D01*
X007032Y023979D01*
X006715Y023979D01*
X006715Y024209D02*
X006637Y024209D01*
X007023Y024209D02*
X008581Y024209D01*
X008613Y024093D02*
X007032Y024093D01*
X006145Y023276D02*
X006145Y023276D01*
X008054Y020681D02*
X008512Y020681D01*
X008616Y020785D01*
X008616Y020849D01*
X009235Y020849D01*
X009235Y021637D01*
X010810Y021637D01*
X010810Y020849D01*
X011400Y020849D01*
X011400Y020397D01*
X010933Y020397D01*
X010830Y020293D01*
X010830Y020259D01*
X008645Y020259D01*
X008645Y019274D01*
X008580Y019274D01*
X008521Y019334D01*
X007981Y019334D01*
X007972Y019325D01*
X007897Y019400D01*
X007897Y019643D01*
X007793Y019747D01*
X007267Y019747D01*
X007267Y019983D01*
X007793Y019983D01*
X007871Y020062D01*
X008054Y020062D01*
X008054Y020681D01*
X008054Y020594D02*
X011400Y020594D01*
X011400Y020478D02*
X008054Y020478D01*
X008054Y020361D02*
X010898Y020361D01*
X011007Y020652D02*
X010613Y020652D01*
X010613Y021440D01*
X010810Y021411D02*
X009235Y021411D01*
X009235Y021527D02*
X010810Y021527D01*
X010810Y021294D02*
X009235Y021294D01*
X009235Y021177D02*
X010810Y021177D01*
X010810Y021061D02*
X009235Y021061D01*
X009235Y020944D02*
X010810Y020944D01*
X011400Y020828D02*
X008616Y020828D01*
X008542Y020711D02*
X011400Y020711D01*
X011715Y020711D02*
X012857Y020711D01*
X012868Y020705D02*
X012791Y020673D01*
X012791Y020672D01*
X012078Y020672D01*
X011984Y020633D01*
X011965Y020615D01*
X011834Y020615D01*
X011834Y019904D01*
X011755Y019904D01*
X011755Y020615D01*
X011715Y020615D01*
X011715Y020912D01*
X011673Y021015D01*
X011684Y021026D01*
X012331Y021026D01*
X012483Y021089D01*
X013207Y021814D01*
X013399Y021814D01*
X013358Y021773D01*
X013319Y021679D01*
X013319Y021323D01*
X013192Y021323D01*
X013192Y021026D01*
X013152Y021026D01*
X013152Y020987D01*
X012777Y020987D01*
X012777Y020828D01*
X012788Y020788D01*
X012809Y020752D01*
X012838Y020722D01*
X012868Y020705D01*
X012777Y020828D02*
X011715Y020828D01*
X011702Y020944D02*
X012777Y020944D01*
X012777Y021026D02*
X013152Y021026D01*
X013152Y021323D01*
X012915Y021323D01*
X012875Y021312D01*
X012838Y021292D01*
X012809Y021262D01*
X012788Y021226D01*
X012777Y021185D01*
X012777Y021026D01*
X012777Y021061D02*
X012414Y021061D01*
X012571Y021177D02*
X012777Y021177D01*
X012843Y021294D02*
X012687Y021294D01*
X012804Y021411D02*
X013319Y021411D01*
X013319Y021527D02*
X012920Y021527D01*
X013037Y021644D02*
X013319Y021644D01*
X013352Y021760D02*
X013154Y021760D01*
X012451Y022227D02*
X012383Y022227D01*
X012383Y022159D02*
X012383Y022829D01*
X012344Y022923D01*
X012272Y022995D01*
X012178Y023034D01*
X011683Y023034D01*
X011589Y022995D01*
X011517Y022923D01*
X011478Y022829D01*
X011478Y022582D01*
X009679Y022582D01*
X009679Y022932D01*
X009838Y022850D01*
X010381Y022737D01*
X010935Y022775D01*
X010935Y022775D01*
X011458Y022961D01*
X011912Y023281D01*
X012262Y023711D01*
X012262Y023711D01*
X012483Y024221D01*
X012559Y024771D01*
X012483Y025320D01*
X012483Y025321D01*
X012262Y025830D01*
X011912Y026260D01*
X011912Y026260D01*
X011757Y026369D01*
X013059Y026760D01*
X019144Y026760D01*
X019240Y026799D01*
X019314Y026873D01*
X019353Y026969D01*
X019353Y028078D01*
X019401Y027908D01*
X019689Y027434D01*
X020095Y027055D01*
X020588Y026800D01*
X021131Y026687D01*
X021131Y026687D01*
X021685Y026725D01*
X021685Y026725D01*
X022208Y026911D01*
X022662Y027231D01*
X023012Y027661D01*
X023012Y027661D01*
X023233Y028171D01*
X023309Y028721D01*
X023233Y029271D01*
X023021Y029760D01*
X027977Y029760D01*
X030869Y026867D01*
X030869Y024832D01*
X030575Y024832D01*
X030481Y024793D01*
X030423Y024735D01*
X030331Y024735D01*
X030331Y023906D01*
X030291Y023906D01*
X030291Y024735D01*
X030199Y024735D01*
X030141Y024793D01*
X030047Y024832D01*
X029630Y024832D01*
X029602Y024820D01*
X029574Y024832D01*
X029158Y024832D01*
X029130Y024820D01*
X029102Y024832D01*
X028685Y024832D01*
X028657Y024820D01*
X028630Y024832D01*
X028213Y024832D01*
X028185Y024820D01*
X028157Y024832D01*
X027740Y024832D01*
X027712Y024820D01*
X027685Y024832D01*
X027268Y024832D01*
X027240Y024820D01*
X027212Y024832D01*
X026795Y024832D01*
X026768Y024820D01*
X026740Y024832D01*
X026323Y024832D01*
X026295Y024820D01*
X026267Y024832D01*
X025948Y024832D01*
X025948Y025013D01*
X025979Y025044D01*
X026018Y025138D01*
X026018Y025616D01*
X025979Y025710D01*
X025907Y025782D01*
X025813Y025821D01*
X025335Y025821D01*
X025241Y025782D01*
X025169Y025710D01*
X025130Y025616D01*
X025130Y025138D01*
X025169Y025044D01*
X025200Y025013D01*
X025200Y024735D01*
X025134Y024735D01*
X025134Y023906D01*
X025094Y023906D01*
X025094Y023867D01*
X024798Y023867D01*
X024798Y023282D01*
X024780Y023299D01*
X024656Y023351D01*
X020792Y023351D01*
X020595Y023547D01*
X020595Y024991D01*
X020665Y024962D01*
X021163Y024962D01*
X021257Y025001D01*
X021329Y025073D01*
X021360Y025148D01*
X021376Y025120D01*
X021406Y025090D01*
X021442Y025069D01*
X021483Y025059D01*
X021697Y025059D01*
X021697Y025411D01*
X021707Y025411D01*
X021707Y025420D01*
X022059Y025420D01*
X022059Y025634D01*
X022048Y025675D01*
X022027Y025711D01*
X021997Y025741D01*
X021961Y025762D01*
X021921Y025773D01*
X021707Y025773D01*
X021707Y025420D01*
X021697Y025420D01*
X021697Y025773D01*
X021483Y025773D01*
X021442Y025762D01*
X021406Y025741D01*
X021376Y025711D01*
X021360Y025683D01*
X021329Y025758D01*
X021257Y025830D01*
X021163Y025869D01*
X020665Y025869D01*
X020571Y025830D01*
X020521Y025780D01*
X020470Y025830D01*
X020376Y025869D01*
X019878Y025869D01*
X019784Y025830D01*
X019733Y025780D01*
X019682Y025830D01*
X019588Y025869D01*
X019091Y025869D01*
X018997Y025830D01*
X018925Y025758D01*
X018886Y025664D01*
X018886Y025373D01*
X018880Y025358D01*
X018880Y023636D01*
X018854Y023625D01*
X018793Y023565D01*
X018784Y023567D01*
X018586Y023567D01*
X018586Y023251D01*
X018507Y023251D01*
X018507Y023567D01*
X018309Y023567D01*
X018268Y023557D01*
X018232Y023536D01*
X018202Y023506D01*
X018181Y023470D01*
X018171Y023429D01*
X018171Y023251D01*
X018507Y023251D01*
X018507Y023172D01*
X018586Y023172D01*
X018586Y022856D01*
X018784Y022856D01*
X018793Y022858D01*
X018854Y022798D01*
X018895Y022781D01*
X018895Y022317D01*
X018934Y022223D01*
X019006Y022151D01*
X019100Y022112D01*
X019578Y022112D01*
X019673Y022151D01*
X019745Y022223D01*
X019783Y022317D01*
X019783Y022795D01*
X019745Y022889D01*
X019683Y022951D01*
X019688Y022964D01*
X019688Y023459D01*
X019649Y023553D01*
X019577Y023625D01*
X019551Y023636D01*
X019551Y024962D01*
X019588Y024962D01*
X019682Y025001D01*
X019733Y025051D01*
X019784Y025001D01*
X019878Y024962D01*
X019923Y024962D01*
X019923Y023342D01*
X019974Y023218D01*
X020068Y023124D01*
X020462Y022730D01*
X020586Y022679D01*
X024452Y022679D01*
X024542Y022589D01*
X023913Y022589D01*
X023913Y022292D01*
X023874Y022292D01*
X023874Y022253D01*
X023046Y022253D01*
X023046Y022160D01*
X022988Y022103D01*
X022949Y022008D01*
X022949Y021592D01*
X022960Y021564D01*
X022949Y021536D01*
X022949Y021119D01*
X022960Y021091D01*
X022949Y021064D01*
X022949Y020647D01*
X022960Y020619D01*
X022949Y020591D01*
X022949Y020174D01*
X022988Y020080D01*
X023046Y020022D01*
X023046Y019930D01*
X023874Y019930D01*
X023874Y019891D01*
X023046Y019891D01*
X023046Y019885D01*
X022483Y019885D01*
X022483Y019995D01*
X022444Y020089D01*
X022384Y020149D01*
X022386Y020159D01*
X022386Y020357D01*
X022070Y020357D01*
X022070Y020436D01*
X022386Y020436D01*
X022386Y020634D01*
X022375Y020674D01*
X022355Y020711D01*
X022325Y020740D01*
X022289Y020761D01*
X022248Y020772D01*
X022070Y020772D01*
X022070Y020436D01*
X021991Y020436D01*
X021991Y020772D01*
X021813Y020772D01*
X021772Y020761D01*
X021736Y020740D01*
X021706Y020711D01*
X021685Y020674D01*
X021674Y020634D01*
X021674Y020436D01*
X021991Y020436D01*
X021991Y020357D01*
X021674Y020357D01*
X021674Y020159D01*
X021677Y020149D01*
X021617Y020089D01*
X021578Y019995D01*
X021578Y019885D01*
X020373Y019885D01*
X020221Y019822D01*
X020105Y019706D01*
X019915Y019516D01*
X019915Y019710D01*
X019876Y019804D01*
X019804Y019876D01*
X019710Y019915D01*
X019232Y019915D01*
X019138Y019876D01*
X019066Y019804D01*
X019027Y019710D01*
X019027Y019473D01*
X018491Y018936D01*
X018491Y019215D01*
X017845Y019215D01*
X017845Y018613D01*
X018168Y018613D01*
X018160Y018605D01*
X016434Y018605D01*
X016475Y018647D01*
X016538Y018799D01*
X016538Y023097D01*
X016475Y023249D01*
X016359Y023365D01*
X016207Y023428D01*
X016034Y023428D01*
X016034Y023975D01*
X015995Y024069D01*
X015923Y024141D01*
X015901Y024151D01*
X015923Y024160D01*
X015995Y024232D01*
X016034Y024326D01*
X018880Y024326D01*
X018880Y024442D02*
X016034Y024442D01*
X016034Y024326D02*
X016034Y024959D01*
X015995Y025054D01*
X015923Y025125D01*
X015829Y025164D01*
X015196Y025164D01*
X015102Y025125D01*
X015033Y025056D01*
X015008Y025056D01*
X014939Y025125D01*
X014845Y025164D01*
X014212Y025164D01*
X014118Y025125D01*
X014046Y025054D01*
X014025Y025003D01*
X013680Y025003D01*
X013529Y024940D01*
X013412Y024824D01*
X013349Y024672D01*
X013349Y023034D01*
X012985Y023034D01*
X012891Y022995D01*
X012819Y022923D01*
X012780Y022829D01*
X012780Y022556D01*
X012383Y022159D01*
X012383Y022343D02*
X012568Y022343D01*
X012684Y022460D02*
X012383Y022460D01*
X012383Y022577D02*
X012780Y022577D01*
X012780Y022693D02*
X012383Y022693D01*
X012383Y022810D02*
X012780Y022810D01*
X012822Y022927D02*
X012341Y022927D01*
X011912Y023281D02*
X011912Y023281D01*
X011912Y023281D01*
X011906Y023276D02*
X013349Y023276D01*
X013349Y023160D02*
X011740Y023160D01*
X011575Y023043D02*
X013349Y023043D01*
X013349Y023393D02*
X012003Y023393D01*
X012098Y023510D02*
X013349Y023510D01*
X013349Y023626D02*
X012193Y023626D01*
X012276Y023743D02*
X013349Y023743D01*
X013349Y023859D02*
X012326Y023859D01*
X012377Y023976D02*
X013349Y023976D01*
X013349Y024093D02*
X012428Y024093D01*
X012478Y024209D02*
X013349Y024209D01*
X013349Y024326D02*
X012498Y024326D01*
X012483Y024221D02*
X012483Y024221D01*
X012514Y024442D02*
X013349Y024442D01*
X013349Y024559D02*
X012530Y024559D01*
X012546Y024676D02*
X013351Y024676D01*
X013399Y024792D02*
X012556Y024792D01*
X012540Y024909D02*
X013498Y024909D01*
X014034Y025026D02*
X012524Y025026D01*
X012508Y025142D02*
X014158Y025142D01*
X014090Y025381D02*
X014298Y025381D01*
X014489Y025460D01*
X014636Y025607D01*
X014715Y025799D01*
X014715Y026006D01*
X014636Y026198D01*
X014489Y026345D01*
X014298Y026424D01*
X014090Y026424D01*
X013898Y026345D01*
X013752Y026198D01*
X013672Y026006D01*
X013672Y025799D01*
X013752Y025607D01*
X013898Y025460D01*
X014090Y025381D01*
X013867Y025492D02*
X012409Y025492D01*
X012460Y025375D02*
X018886Y025375D01*
X018880Y025259D02*
X012492Y025259D01*
X012358Y025609D02*
X013751Y025609D01*
X013703Y025725D02*
X012308Y025725D01*
X012262Y025830D02*
X012262Y025830D01*
X012252Y025842D02*
X013672Y025842D01*
X013672Y025958D02*
X012157Y025958D01*
X012063Y026075D02*
X013701Y026075D01*
X013749Y026192D02*
X011968Y026192D01*
X011844Y026308D02*
X013862Y026308D01*
X014526Y026308D02*
X028028Y026308D01*
X028028Y026401D02*
X028028Y026038D01*
X028176Y025707D01*
X028445Y025465D01*
X028790Y025353D01*
X029150Y025391D01*
X029464Y025572D01*
X029677Y025865D01*
X029752Y026219D01*
X029677Y026574D01*
X029464Y026867D01*
X029464Y026867D01*
X029464Y026867D01*
X029150Y027048D01*
X028790Y027086D01*
X028790Y027086D01*
X028445Y026974D01*
X028176Y026732D01*
X028176Y026732D01*
X028028Y026401D01*
X028039Y026425D02*
X011943Y026425D01*
X012331Y026541D02*
X028091Y026541D01*
X028143Y026658D02*
X012720Y026658D01*
X014521Y025492D02*
X018886Y025492D01*
X018886Y025609D02*
X014637Y025609D01*
X014685Y025725D02*
X018911Y025725D01*
X019024Y025842D02*
X014715Y025842D01*
X014715Y025958D02*
X028064Y025958D01*
X028028Y026075D02*
X014687Y026075D01*
X014639Y026192D02*
X028028Y026192D01*
X028116Y025842D02*
X021230Y025842D01*
X021343Y025725D02*
X021390Y025725D01*
X021697Y025725D02*
X021707Y025725D01*
X021697Y025609D02*
X021707Y025609D01*
X021697Y025492D02*
X021707Y025492D01*
X021707Y025411D02*
X022059Y025411D01*
X022059Y025197D01*
X022048Y025156D01*
X022027Y025120D01*
X021997Y025090D01*
X021961Y025069D01*
X021921Y025059D01*
X021707Y025059D01*
X021707Y025411D01*
X021707Y025375D02*
X021697Y025375D01*
X021697Y025259D02*
X021707Y025259D01*
X021697Y025142D02*
X021707Y025142D01*
X022040Y025142D02*
X025130Y025142D01*
X025130Y025259D02*
X022059Y025259D01*
X022059Y025375D02*
X025130Y025375D01*
X025130Y025492D02*
X022059Y025492D01*
X022059Y025609D02*
X025130Y025609D01*
X025184Y025725D02*
X022013Y025725D01*
X021364Y025142D02*
X021358Y025142D01*
X021282Y025026D02*
X025187Y025026D01*
X025200Y024909D02*
X020595Y024909D01*
X020595Y024792D02*
X025200Y024792D01*
X025094Y024735D02*
X024936Y024735D01*
X024895Y024724D01*
X024859Y024703D01*
X024829Y024673D01*
X024808Y024637D01*
X024798Y024597D01*
X024798Y023906D01*
X025094Y023906D01*
X025094Y024735D01*
X025094Y024676D02*
X025134Y024676D01*
X025134Y024559D02*
X025094Y024559D01*
X025094Y024442D02*
X025134Y024442D01*
X025134Y024326D02*
X025094Y024326D01*
X025094Y024209D02*
X025134Y024209D01*
X025134Y024093D02*
X025094Y024093D01*
X025094Y023976D02*
X025134Y023976D01*
X025134Y023867D02*
X025134Y023039D01*
X025226Y023039D01*
X025284Y022981D01*
X025378Y022942D01*
X025795Y022942D01*
X025823Y022953D01*
X025851Y022942D01*
X026267Y022942D01*
X026295Y022953D01*
X026323Y022942D01*
X026740Y022942D01*
X026768Y022953D01*
X026795Y022942D01*
X027212Y022942D01*
X027240Y022953D01*
X027268Y022942D01*
X027685Y022942D01*
X027712Y022953D01*
X027740Y022942D01*
X028157Y022942D01*
X028185Y022953D01*
X028213Y022942D01*
X028630Y022942D01*
X028657Y022953D01*
X028685Y022942D01*
X029102Y022942D01*
X029130Y022953D01*
X029158Y022942D01*
X029574Y022942D01*
X029602Y022953D01*
X029630Y022942D01*
X030047Y022942D01*
X030141Y022981D01*
X030199Y023039D01*
X030291Y023039D01*
X030291Y023867D01*
X030331Y023867D01*
X030331Y023039D01*
X030423Y023039D01*
X030481Y022981D01*
X030575Y022942D01*
X030869Y022942D01*
X030869Y019320D01*
X030575Y019320D01*
X030547Y019308D01*
X030519Y019320D01*
X030103Y019320D01*
X030075Y019308D01*
X030047Y019320D01*
X029630Y019320D01*
X029602Y019308D01*
X029574Y019320D01*
X029158Y019320D01*
X029130Y019308D01*
X029102Y019320D01*
X028685Y019320D01*
X028657Y019308D01*
X028630Y019320D01*
X028213Y019320D01*
X028185Y019308D01*
X028157Y019320D01*
X027740Y019320D01*
X027712Y019308D01*
X027685Y019320D01*
X027268Y019320D01*
X027240Y019308D01*
X027212Y019320D01*
X026795Y019320D01*
X026768Y019308D01*
X026740Y019320D01*
X026323Y019320D01*
X026295Y019308D01*
X026267Y019320D01*
X025851Y019320D01*
X025823Y019308D01*
X025795Y019320D01*
X025378Y019320D01*
X025350Y019308D01*
X025322Y019320D01*
X025219Y019320D01*
X025714Y019815D01*
X025813Y019815D01*
X025907Y019854D01*
X025979Y019926D01*
X026018Y020020D01*
X026018Y020498D01*
X025979Y020592D01*
X025907Y020664D01*
X025813Y020703D01*
X025335Y020703D01*
X025241Y020664D01*
X025169Y020592D01*
X025130Y020498D01*
X025130Y020399D01*
X024742Y020011D01*
X024742Y020011D01*
X024742Y020022D01*
X024800Y020080D01*
X024838Y020174D01*
X024838Y020591D01*
X024827Y020619D01*
X024838Y020647D01*
X024838Y021064D01*
X024827Y021091D01*
X024838Y021119D01*
X024838Y021536D01*
X024827Y021564D01*
X024838Y021592D01*
X024838Y022008D01*
X024800Y022103D01*
X024742Y022160D01*
X024742Y022253D01*
X023913Y022253D01*
X023913Y022292D01*
X024742Y022292D01*
X024742Y022389D01*
X024896Y022235D01*
X024896Y022235D01*
X024990Y022140D01*
X025113Y022089D01*
X028320Y022089D01*
X028390Y022019D01*
X028484Y021980D01*
X028962Y021980D01*
X029056Y022019D01*
X029128Y022091D01*
X029167Y022185D01*
X029167Y022663D01*
X029128Y022757D01*
X029056Y022829D01*
X028962Y022868D01*
X028484Y022868D01*
X028390Y022829D01*
X028320Y022759D01*
X025319Y022759D01*
X025039Y023039D01*
X025094Y023039D01*
X025094Y023867D01*
X025134Y023867D01*
X025134Y023859D02*
X025094Y023859D01*
X025094Y023743D02*
X025134Y023743D01*
X025134Y023626D02*
X025094Y023626D01*
X025094Y023510D02*
X025134Y023510D01*
X025134Y023393D02*
X025094Y023393D01*
X025094Y023276D02*
X025134Y023276D01*
X025134Y023160D02*
X025094Y023160D01*
X025094Y023043D02*
X025134Y023043D01*
X025151Y022927D02*
X030869Y022927D01*
X030869Y022810D02*
X029076Y022810D01*
X029155Y022693D02*
X030869Y022693D01*
X030869Y022577D02*
X029167Y022577D01*
X029167Y022460D02*
X030869Y022460D01*
X030869Y022343D02*
X029167Y022343D01*
X029167Y022227D02*
X030869Y022227D01*
X030869Y022110D02*
X029136Y022110D01*
X028995Y021994D02*
X030869Y021994D01*
X030869Y021877D02*
X024838Y021877D01*
X024838Y021760D02*
X030869Y021760D01*
X030869Y021644D02*
X024838Y021644D01*
X024838Y021527D02*
X030869Y021527D01*
X030869Y021411D02*
X024838Y021411D01*
X024838Y021294D02*
X030869Y021294D01*
X030869Y021177D02*
X024838Y021177D01*
X024838Y021061D02*
X030869Y021061D01*
X030869Y020944D02*
X024838Y020944D01*
X024838Y020828D02*
X030869Y020828D01*
X030869Y020711D02*
X024838Y020711D01*
X024837Y020594D02*
X025171Y020594D01*
X025130Y020478D02*
X024838Y020478D01*
X024838Y020361D02*
X025091Y020361D01*
X024975Y020245D02*
X024838Y020245D01*
X024819Y020128D02*
X024858Y020128D01*
X024324Y019594D02*
X023913Y019594D01*
X023913Y019891D01*
X023874Y019891D01*
X023874Y019594D01*
X023482Y019594D01*
X023731Y019344D01*
X024075Y019344D01*
X024324Y019594D01*
X024275Y019545D02*
X023531Y019545D01*
X023647Y019428D02*
X024159Y019428D01*
X023913Y019661D02*
X023874Y019661D01*
X023874Y019778D02*
X023913Y019778D01*
X023874Y019895D02*
X022483Y019895D01*
X022476Y020011D02*
X023046Y020011D01*
X022968Y020128D02*
X022405Y020128D01*
X022386Y020245D02*
X022949Y020245D01*
X022949Y020361D02*
X022070Y020361D01*
X021991Y020361D02*
X016538Y020361D01*
X016538Y020245D02*
X021674Y020245D01*
X021656Y020128D02*
X016538Y020128D01*
X016538Y020011D02*
X021585Y020011D01*
X021578Y019895D02*
X019760Y019895D01*
X019887Y019778D02*
X020178Y019778D01*
X020061Y019661D02*
X019915Y019661D01*
X019915Y019545D02*
X019944Y019545D01*
X019471Y019471D02*
X018290Y018290D01*
X014353Y018290D01*
X014353Y021046D01*
X013960Y021440D01*
X013763Y021440D01*
X013192Y021294D02*
X013152Y021294D01*
X013152Y021177D02*
X013192Y021177D01*
X013192Y021061D02*
X013152Y021061D01*
X013113Y020357D02*
X012355Y020357D01*
X012355Y020160D02*
X012680Y020160D01*
X013172Y019668D01*
X013231Y019668D01*
X012759Y019636D02*
X012759Y019420D01*
X012798Y019326D01*
X012870Y019254D01*
X012964Y019215D01*
X013499Y019215D01*
X013593Y019254D01*
X013653Y019315D01*
X013663Y019312D01*
X013861Y019312D01*
X013861Y019629D01*
X013940Y019629D01*
X013940Y019312D01*
X014038Y019312D01*
X014038Y018228D01*
X014086Y018113D01*
X013879Y018113D01*
X013805Y018144D01*
X013327Y018144D01*
X013233Y018105D01*
X013161Y018033D01*
X013122Y017939D01*
X013122Y017523D01*
X013121Y017523D01*
X013027Y017484D01*
X012995Y017451D01*
X012923Y017523D01*
X012829Y017562D01*
X012602Y017562D01*
X012574Y017590D01*
X012451Y017641D01*
X009374Y017641D01*
X009031Y017983D01*
X008983Y018003D01*
X008513Y018473D01*
X008593Y018506D01*
X008665Y018578D01*
X008704Y018672D01*
X008704Y018960D01*
X008707Y018960D01*
X008823Y019007D01*
X008912Y019096D01*
X008960Y019212D01*
X008960Y019487D01*
X009136Y019487D01*
X009136Y019784D01*
X009175Y019784D01*
X009175Y019487D01*
X009412Y019487D01*
X009453Y019498D01*
X009489Y019519D01*
X009519Y019549D01*
X009540Y019585D01*
X009550Y019626D01*
X009550Y019784D01*
X009175Y019784D01*
X009175Y019824D01*
X009550Y019824D01*
X009550Y019944D01*
X009784Y019944D01*
X009784Y019863D01*
X010100Y019863D01*
X010100Y019784D01*
X009784Y019784D01*
X009784Y019586D01*
X009794Y019546D01*
X009815Y019509D01*
X009845Y019480D01*
X009881Y019459D01*
X009922Y019448D01*
X010048Y019448D01*
X010011Y019411D01*
X009972Y019317D01*
X009972Y018839D01*
X010011Y018745D01*
X010083Y018673D01*
X010177Y018634D01*
X010655Y018634D01*
X010749Y018673D01*
X010821Y018745D01*
X010860Y018839D01*
X010860Y019048D01*
X011094Y019282D01*
X011145Y019405D01*
X011145Y019549D01*
X011233Y019549D01*
X011233Y019649D01*
X011233Y019649D01*
X011233Y019549D01*
X011438Y019549D01*
X011438Y019254D01*
X011449Y019213D01*
X011470Y019177D01*
X011500Y019147D01*
X011536Y019126D01*
X011576Y019115D01*
X011755Y019115D01*
X011755Y019826D01*
X011834Y019826D01*
X011834Y019115D01*
X012012Y019115D01*
X012052Y019126D01*
X012089Y019147D01*
X012118Y019177D01*
X012139Y019213D01*
X012150Y019254D01*
X012150Y019549D01*
X012355Y019549D01*
X012355Y019649D01*
X012355Y019649D01*
X012355Y019549D01*
X012603Y019549D01*
X012643Y019559D01*
X012679Y019580D01*
X012709Y019610D01*
X012730Y019646D01*
X012734Y019661D01*
X012759Y019636D01*
X012759Y019545D02*
X012150Y019545D01*
X012150Y019428D02*
X012759Y019428D01*
X012812Y019312D02*
X012150Y019312D01*
X012129Y019195D02*
X014038Y019195D01*
X014038Y019078D02*
X010890Y019078D01*
X010860Y018962D02*
X014038Y018962D01*
X014038Y018845D02*
X010860Y018845D01*
X010805Y018729D02*
X014038Y018729D01*
X014038Y018612D02*
X008679Y018612D01*
X008704Y018729D02*
X010027Y018729D01*
X009972Y018845D02*
X008704Y018845D01*
X008713Y018962D02*
X009972Y018962D01*
X009972Y019078D02*
X008894Y019078D01*
X008953Y019195D02*
X009972Y019195D01*
X009972Y019312D02*
X008960Y019312D01*
X008960Y019428D02*
X010029Y019428D01*
X009795Y019545D02*
X009515Y019545D01*
X009550Y019661D02*
X009784Y019661D01*
X009784Y019778D02*
X009550Y019778D01*
X009550Y019895D02*
X009784Y019895D01*
X009175Y019778D02*
X009136Y019778D01*
X009136Y019661D02*
X009175Y019661D01*
X009175Y019545D02*
X009136Y019545D01*
X008645Y019545D02*
X007897Y019545D01*
X007897Y019428D02*
X008645Y019428D01*
X008645Y019312D02*
X008543Y019312D01*
X008645Y019661D02*
X007878Y019661D01*
X007821Y020011D02*
X008645Y020011D01*
X008645Y019895D02*
X007267Y019895D01*
X007267Y019778D02*
X008645Y019778D01*
X008645Y020128D02*
X008054Y020128D01*
X008054Y020245D02*
X008645Y020245D01*
X008566Y018495D02*
X014038Y018495D01*
X014038Y018379D02*
X008608Y018379D01*
X008724Y018262D02*
X014038Y018262D01*
X014072Y018146D02*
X008841Y018146D01*
X008958Y018029D02*
X013159Y018029D01*
X013122Y017912D02*
X009102Y017912D01*
X009219Y017796D02*
X013122Y017796D01*
X013122Y017679D02*
X009335Y017679D01*
X008841Y017700D02*
X008054Y018487D01*
X006873Y018487D01*
X006479Y018881D01*
X006086Y018487D02*
X006479Y018093D01*
X007660Y018093D01*
X008251Y017503D01*
X008068Y017213D02*
X007995Y017213D01*
X007995Y017096D02*
X008184Y017096D01*
X008301Y016979D02*
X007995Y016979D01*
X007995Y016863D02*
X008418Y016863D01*
X008534Y016746D02*
X007995Y016746D01*
X007995Y016630D02*
X008651Y016630D01*
X008767Y016513D02*
X007995Y016513D01*
X007995Y016396D02*
X008934Y016396D01*
X007995Y016280D02*
X011166Y016280D01*
X011283Y016163D02*
X007957Y016163D01*
X007858Y016047D02*
X011399Y016047D01*
X011460Y015930D02*
X007426Y015930D01*
X007426Y015813D02*
X011460Y015813D01*
X011460Y015697D02*
X007109Y015697D01*
X007030Y015697D02*
X006355Y015697D01*
X006406Y015813D02*
X006714Y015813D01*
X006714Y015930D02*
X006457Y015930D01*
X006474Y015969D02*
X006474Y015969D01*
X006714Y015652D02*
X006714Y015435D01*
X006725Y015394D01*
X006746Y015358D01*
X006775Y015328D01*
X006812Y015307D01*
X006852Y015297D01*
X007030Y015297D01*
X007030Y015652D01*
X006714Y015652D01*
X006714Y015580D02*
X006305Y015580D01*
X006254Y015463D02*
X006714Y015463D01*
X006757Y015347D02*
X006161Y015347D01*
X006252Y015459D02*
X006252Y015459D01*
X006066Y015230D02*
X007619Y015230D01*
X007619Y015114D02*
X005971Y015114D01*
X005902Y015029D02*
X005902Y015029D01*
X005902Y015029D01*
X005857Y014997D02*
X007619Y014997D01*
X007619Y014880D02*
X005692Y014880D01*
X006495Y014764D02*
X008034Y014764D01*
X008034Y014806D02*
X008034Y014688D01*
X007619Y014688D01*
X007619Y014057D01*
X007630Y014016D01*
X007651Y013980D01*
X007681Y013950D01*
X007717Y013929D01*
X007757Y013919D01*
X008034Y013919D01*
X008034Y014688D01*
X008152Y014688D01*
X008152Y013919D01*
X008429Y013919D01*
X008470Y013929D01*
X008506Y013950D01*
X008536Y013980D01*
X008557Y014016D01*
X008567Y014057D01*
X008567Y014688D01*
X008152Y014688D01*
X008152Y014806D01*
X008034Y014806D01*
X007619Y014806D01*
X007619Y015437D01*
X007630Y015478D01*
X007651Y015514D01*
X007681Y015543D01*
X007717Y015564D01*
X007757Y015575D01*
X008034Y015575D01*
X008034Y014806D01*
X008034Y014880D02*
X008152Y014880D01*
X008152Y014806D02*
X008152Y015575D01*
X008429Y015575D01*
X008470Y015564D01*
X008506Y015543D01*
X008536Y015514D01*
X008557Y015478D01*
X008567Y015437D01*
X008567Y014806D01*
X008152Y014806D01*
X008152Y014764D02*
X010711Y014764D01*
X010711Y014806D02*
X010711Y014688D01*
X010297Y014688D01*
X010297Y014057D01*
X010307Y014016D01*
X010328Y013980D01*
X010358Y013950D01*
X010394Y013929D01*
X010435Y013919D01*
X010711Y013919D01*
X010711Y014688D01*
X010830Y014688D01*
X010830Y014806D01*
X011245Y014806D01*
X011245Y015437D01*
X011234Y015478D01*
X011213Y015514D01*
X011183Y015543D01*
X011147Y015564D01*
X011106Y015575D01*
X010830Y015575D01*
X010830Y014806D01*
X010711Y014806D01*
X010297Y014806D01*
X010297Y015437D01*
X010307Y015478D01*
X010328Y015514D01*
X010358Y015543D01*
X010394Y015564D01*
X010435Y015575D01*
X010711Y015575D01*
X010711Y014806D01*
X010711Y014880D02*
X010830Y014880D01*
X010830Y014764D02*
X012542Y014764D01*
X012542Y014647D02*
X012621Y014647D01*
X012621Y014531D02*
X012542Y014531D01*
X012542Y014414D02*
X012621Y014414D01*
X012861Y014414D02*
X012986Y014414D01*
X013033Y014297D02*
X011245Y014297D01*
X011245Y014181D02*
X013033Y014181D01*
X013033Y014064D02*
X011245Y014064D01*
X011245Y014057D02*
X011245Y014688D01*
X010830Y014688D01*
X010830Y013919D01*
X011106Y013919D01*
X011147Y013929D01*
X011183Y013950D01*
X011213Y013980D01*
X011234Y014016D01*
X011245Y014057D01*
X011178Y013948D02*
X013033Y013948D01*
X012302Y014414D02*
X011245Y014414D01*
X011245Y014531D02*
X012226Y014531D01*
X012226Y014647D02*
X011245Y014647D01*
X011245Y014880D02*
X012226Y014880D01*
X012234Y014997D02*
X011245Y014997D01*
X011245Y015114D02*
X012256Y015114D01*
X011851Y015230D02*
X011245Y015230D01*
X011245Y015347D02*
X011705Y015347D01*
X011589Y015463D02*
X011238Y015463D01*
X011495Y015580D02*
X007426Y015580D01*
X007426Y015463D02*
X007626Y015463D01*
X007619Y015347D02*
X007383Y015347D01*
X007109Y015347D02*
X007030Y015347D01*
X007030Y015463D02*
X007109Y015463D01*
X007109Y015580D02*
X007030Y015580D01*
X008034Y015463D02*
X008152Y015463D01*
X008152Y015347D02*
X008034Y015347D01*
X008034Y015230D02*
X008152Y015230D01*
X008152Y015114D02*
X008034Y015114D01*
X008034Y014997D02*
X008152Y014997D01*
X008152Y014647D02*
X008034Y014647D01*
X008034Y014531D02*
X008152Y014531D01*
X008152Y014414D02*
X008034Y014414D01*
X008034Y014297D02*
X008152Y014297D01*
X008152Y014181D02*
X008034Y014181D01*
X008034Y014064D02*
X008152Y014064D01*
X008152Y013948D02*
X008034Y013948D01*
X007686Y013948D02*
X006819Y013948D01*
X006819Y014064D02*
X007619Y014064D01*
X007619Y014181D02*
X006819Y014181D01*
X006819Y014297D02*
X007619Y014297D01*
X007619Y014414D02*
X006797Y014414D01*
X006749Y014531D02*
X007619Y014531D01*
X007619Y014647D02*
X006656Y014647D01*
X006571Y014732D02*
X006571Y014732D01*
X006819Y013831D02*
X009412Y013831D01*
X009397Y013714D02*
X009351Y013714D01*
X009382Y013948D02*
X008501Y013948D01*
X008567Y014064D02*
X009382Y014064D01*
X009382Y014181D02*
X008567Y014181D01*
X008567Y014297D02*
X009382Y014297D01*
X009389Y014414D02*
X008567Y014414D01*
X008567Y014531D02*
X009462Y014531D01*
X010190Y014531D02*
X010297Y014531D01*
X010297Y014647D02*
X008567Y014647D01*
X008567Y014880D02*
X010297Y014880D01*
X010297Y014997D02*
X008567Y014997D01*
X008567Y015114D02*
X010297Y015114D01*
X010297Y015230D02*
X008567Y015230D01*
X008567Y015347D02*
X010297Y015347D01*
X010304Y015463D02*
X008560Y015463D01*
X010262Y014414D02*
X010297Y014414D01*
X010297Y014297D02*
X010270Y014297D01*
X010270Y014181D02*
X010297Y014181D01*
X010297Y014064D02*
X010270Y014064D01*
X010270Y013948D02*
X010363Y013948D01*
X010711Y013948D02*
X010830Y013948D01*
X010830Y014064D02*
X010711Y014064D01*
X010711Y014181D02*
X010830Y014181D01*
X010830Y014297D02*
X010711Y014297D01*
X010711Y014414D02*
X010830Y014414D01*
X010830Y014531D02*
X010711Y014531D01*
X010711Y014647D02*
X010830Y014647D01*
X010830Y014997D02*
X010711Y014997D01*
X010711Y015114D02*
X010830Y015114D01*
X010830Y015230D02*
X010711Y015230D01*
X010711Y015347D02*
X010830Y015347D01*
X010830Y015463D02*
X010711Y015463D01*
X011763Y016630D02*
X012271Y016630D01*
X012257Y016616D02*
X012237Y016580D01*
X012226Y016540D01*
X012226Y016361D01*
X012542Y016361D01*
X012542Y016282D01*
X012226Y016282D01*
X012226Y016104D01*
X012237Y016063D01*
X012257Y016027D01*
X012287Y015998D01*
X012317Y015980D01*
X012240Y015948D01*
X012168Y015876D01*
X012165Y015869D01*
X012130Y015869D01*
X012129Y015870D01*
X012129Y016191D01*
X012078Y016314D01*
X011984Y016409D01*
X011421Y016971D01*
X012129Y016971D01*
X012129Y016861D01*
X012168Y016767D01*
X012240Y016695D01*
X012317Y016663D01*
X012287Y016646D01*
X012257Y016616D01*
X012226Y016513D02*
X011879Y016513D01*
X011996Y016396D02*
X012226Y016396D01*
X012226Y016280D02*
X012092Y016280D01*
X012129Y016163D02*
X012226Y016163D01*
X012246Y016047D02*
X012129Y016047D01*
X012129Y015930D02*
X012222Y015930D01*
X012189Y016746D02*
X011646Y016746D01*
X011530Y016863D02*
X012129Y016863D01*
X012602Y017562D02*
X013122Y017562D01*
X013822Y017263D02*
X013822Y016783D01*
X013794Y016715D01*
X013818Y016656D01*
X014146Y016656D01*
X014149Y016658D01*
X014282Y016658D01*
X014406Y016606D01*
X014748Y016264D01*
X020053Y016264D01*
X020123Y016333D01*
X020217Y016372D01*
X020234Y016372D01*
X020200Y016391D01*
X020171Y016421D01*
X020150Y016457D01*
X020139Y016498D01*
X020139Y016676D01*
X020475Y016676D01*
X020475Y016755D01*
X020139Y016755D01*
X020139Y016933D01*
X020150Y016974D01*
X020171Y017010D01*
X020200Y017040D01*
X020237Y017060D01*
X020277Y017071D01*
X020475Y017071D01*
X020475Y016755D01*
X020554Y016755D01*
X020554Y017071D01*
X020752Y017071D01*
X020762Y017069D01*
X020822Y017129D01*
X020916Y017168D01*
X021451Y017168D01*
X021545Y017129D01*
X021617Y017057D01*
X021656Y016963D01*
X021656Y016468D01*
X021617Y016374D01*
X021578Y016334D01*
X021578Y016263D01*
X021666Y016175D01*
X021876Y016175D01*
X021970Y016136D01*
X022040Y016066D01*
X022180Y016066D01*
X022088Y016104D01*
X022016Y016176D01*
X021977Y016270D01*
X021977Y016588D01*
X022016Y016682D01*
X022088Y016754D01*
X022089Y016755D01*
X022089Y016782D01*
X022140Y016905D01*
X022235Y016999D01*
X022431Y017196D01*
X022554Y017247D01*
X024580Y017247D01*
X024650Y017317D01*
X024744Y017356D01*
X025222Y017356D01*
X025252Y017344D01*
X025252Y017430D01*
X024906Y017430D01*
X024812Y017469D01*
X024740Y017541D01*
X024701Y017635D01*
X024701Y018039D01*
X024052Y018039D01*
X024052Y018024D01*
X024013Y017930D01*
X023941Y017858D01*
X023847Y017819D01*
X023273Y017819D01*
X023179Y017858D01*
X023107Y017930D01*
X023068Y018024D01*
X023068Y018342D01*
X023107Y018436D01*
X023179Y018508D01*
X023273Y018547D01*
X023406Y018547D01*
X023359Y018567D01*
X023273Y018567D01*
X023179Y018606D01*
X023107Y018678D01*
X023068Y018772D01*
X023068Y018838D01*
X022932Y018975D01*
X022932Y018931D01*
X022536Y018931D01*
X022141Y018931D01*
X022536Y018931D01*
X022536Y018931D01*
X022536Y018931D01*
X022932Y018931D01*
X022932Y018868D01*
X022989Y018810D01*
X023028Y018716D01*
X023028Y018398D01*
X022989Y018304D01*
X022932Y018246D01*
X022932Y018183D01*
X022536Y018183D01*
X022536Y018183D01*
X022141Y018183D01*
X022141Y018192D01*
X021467Y018192D01*
X021451Y018154D01*
X021379Y018082D01*
X021285Y018043D01*
X020807Y018043D01*
X020713Y018082D01*
X020641Y018154D01*
X020602Y018248D01*
X020602Y018726D01*
X020641Y018820D01*
X020713Y018892D01*
X020807Y018931D01*
X021285Y018931D01*
X021379Y018892D01*
X021451Y018820D01*
X021467Y018782D01*
X022072Y018782D01*
X022083Y018810D01*
X022141Y018868D01*
X022141Y018931D01*
X022141Y019058D01*
X020627Y019058D01*
X018918Y017349D01*
X018766Y017286D01*
X013879Y017286D01*
X013822Y017263D01*
X013822Y017213D02*
X022472Y017213D01*
X022331Y017096D02*
X021579Y017096D01*
X021650Y016979D02*
X022215Y016979D01*
X022123Y016863D02*
X021656Y016863D01*
X021656Y016746D02*
X022080Y016746D01*
X021994Y016630D02*
X021656Y016630D01*
X021656Y016513D02*
X021977Y016513D01*
X021977Y016396D02*
X021627Y016396D01*
X021578Y016280D02*
X021977Y016280D01*
X022029Y016163D02*
X021905Y016163D01*
X022488Y016065D02*
X022756Y016065D01*
X022851Y016104D01*
X022922Y016176D01*
X022961Y016270D01*
X022961Y016578D01*
X023103Y016578D01*
X023098Y016558D01*
X023098Y016429D01*
X023098Y016366D01*
X023040Y016308D01*
X023001Y016214D01*
X023001Y015896D01*
X023040Y015802D01*
X023098Y015744D01*
X023098Y015681D01*
X023098Y015552D01*
X023109Y015511D01*
X023129Y015475D01*
X022942Y015475D01*
X022961Y015522D01*
X022961Y015840D01*
X022922Y015934D01*
X022851Y016006D01*
X022756Y016045D01*
X022536Y016045D01*
X022488Y016065D01*
X022532Y016047D02*
X023001Y016047D01*
X023001Y016163D02*
X022910Y016163D01*
X022961Y016280D02*
X023028Y016280D01*
X022961Y016396D02*
X023098Y016396D01*
X023098Y016429D02*
X023493Y016429D01*
X023493Y016429D01*
X023098Y016429D01*
X023098Y016513D02*
X022961Y016513D01*
X023493Y016429D02*
X023888Y016429D01*
X023888Y016558D01*
X023883Y016578D01*
X024580Y016578D01*
X024650Y016507D01*
X024744Y016468D01*
X025050Y016468D01*
X024972Y016390D01*
X023888Y016390D01*
X023888Y016429D01*
X023493Y016429D01*
X023493Y016429D01*
X023888Y016396D02*
X024978Y016396D01*
X024644Y016513D02*
X023888Y016513D01*
X023001Y015930D02*
X022924Y015930D01*
X022961Y015813D02*
X023035Y015813D01*
X023098Y015697D02*
X022961Y015697D01*
X022961Y015580D02*
X023098Y015580D01*
X023098Y015681D02*
X023493Y015681D01*
X023493Y015681D01*
X023098Y015681D01*
X023493Y015681D02*
X023888Y015681D01*
X023888Y015720D01*
X025177Y015720D01*
X025300Y015771D01*
X025776Y016248D01*
X025870Y016342D01*
X025921Y016465D01*
X025921Y016470D01*
X025925Y016468D01*
X026403Y016468D01*
X026497Y016507D01*
X026568Y016578D01*
X027729Y016578D01*
X027800Y016507D01*
X027894Y016468D01*
X028372Y016468D01*
X028466Y016507D01*
X028538Y016579D01*
X028577Y016673D01*
X028577Y017151D01*
X028538Y017245D01*
X028466Y017317D01*
X028372Y017356D01*
X027894Y017356D01*
X027800Y017317D01*
X027729Y017247D01*
X026568Y017247D01*
X026497Y017317D01*
X026403Y017356D01*
X025925Y017356D01*
X025921Y017355D01*
X025921Y017430D01*
X026267Y017430D01*
X026295Y017442D01*
X026323Y017430D01*
X026740Y017430D01*
X026768Y017442D01*
X026795Y017430D01*
X027212Y017430D01*
X027240Y017442D01*
X027268Y017430D01*
X027685Y017430D01*
X027712Y017442D01*
X027740Y017430D01*
X028157Y017430D01*
X028185Y017442D01*
X028213Y017430D01*
X028630Y017430D01*
X028657Y017442D01*
X028685Y017430D01*
X029102Y017430D01*
X029130Y017442D01*
X029158Y017430D01*
X029574Y017430D01*
X029602Y017442D01*
X029630Y017430D01*
X030047Y017430D01*
X030075Y017442D01*
X030103Y017430D01*
X030519Y017430D01*
X030547Y017442D01*
X030575Y017430D01*
X030869Y017430D01*
X030869Y014797D01*
X030453Y014797D01*
X030359Y014758D01*
X030288Y014688D01*
X029751Y014688D01*
X029758Y014705D01*
X029758Y015183D01*
X029719Y015277D01*
X029647Y015349D01*
X029553Y015388D01*
X029075Y015388D01*
X028981Y015349D01*
X028910Y015278D01*
X025319Y015278D01*
X025267Y015330D01*
X025267Y015330D01*
X025173Y015424D01*
X025050Y015475D01*
X023857Y015475D01*
X023877Y015511D01*
X023888Y015552D01*
X023888Y015681D01*
X023493Y015681D01*
X023493Y015681D01*
X023888Y015697D02*
X030869Y015697D01*
X030869Y015813D02*
X025342Y015813D01*
X025458Y015930D02*
X030869Y015930D01*
X030869Y016047D02*
X025575Y016047D01*
X025692Y016163D02*
X030869Y016163D01*
X030869Y016280D02*
X025808Y016280D01*
X025893Y016396D02*
X030869Y016396D01*
X030869Y016513D02*
X028472Y016513D01*
X028559Y016630D02*
X030869Y016630D01*
X030869Y016746D02*
X028577Y016746D01*
X028577Y016863D02*
X030869Y016863D01*
X030869Y016979D02*
X028577Y016979D01*
X028577Y017096D02*
X030869Y017096D01*
X030869Y017213D02*
X028551Y017213D01*
X028437Y017329D02*
X030869Y017329D01*
X030869Y015580D02*
X023888Y015580D01*
X025078Y015463D02*
X030869Y015463D01*
X030869Y015347D02*
X029649Y015347D01*
X029738Y015230D02*
X030869Y015230D01*
X030869Y015114D02*
X029758Y015114D01*
X029758Y014997D02*
X030869Y014997D01*
X030869Y014880D02*
X029758Y014880D01*
X029758Y014764D02*
X030372Y014764D01*
X030288Y014019D02*
X030359Y013948D01*
X030453Y013909D01*
X030869Y013909D01*
X030869Y012792D01*
X029942Y013719D01*
X029790Y013782D01*
X026279Y013782D01*
X026127Y013719D01*
X026011Y013603D01*
X025948Y013451D01*
X025948Y013429D01*
X025684Y013165D01*
X025676Y013146D01*
X025676Y014019D01*
X030288Y014019D01*
X030360Y013948D02*
X025676Y013948D01*
X025676Y013831D02*
X030869Y013831D01*
X030869Y013714D02*
X029947Y013714D01*
X030063Y013598D02*
X030869Y013598D01*
X030869Y013481D02*
X030180Y013481D01*
X030297Y013364D02*
X030869Y013364D01*
X030869Y013248D02*
X030413Y013248D01*
X030530Y013131D02*
X030869Y013131D01*
X030869Y013015D02*
X030646Y013015D01*
X030763Y012898D02*
X030869Y012898D01*
X030254Y012238D02*
X029862Y012238D01*
X029768Y012199D01*
X029696Y012127D01*
X029657Y012033D01*
X029657Y011823D01*
X029254Y011420D01*
X027211Y011420D01*
X027211Y011479D01*
X027162Y011599D01*
X027121Y011641D01*
X027169Y011689D01*
X027208Y011783D01*
X027208Y012318D01*
X027169Y012412D01*
X027108Y012472D01*
X027111Y012482D01*
X027111Y012680D01*
X026794Y012680D01*
X026794Y012759D01*
X027111Y012759D01*
X027111Y012956D01*
X027716Y012956D01*
X027719Y012948D01*
X027779Y012888D01*
X027777Y012878D01*
X027777Y012680D01*
X028093Y012680D01*
X028093Y012601D01*
X027777Y012601D01*
X027777Y012403D01*
X027788Y012363D01*
X027809Y012326D01*
X027838Y012297D01*
X027875Y012276D01*
X027915Y012265D01*
X028093Y012265D01*
X028093Y012601D01*
X028172Y012601D01*
X028172Y012265D01*
X028351Y012265D01*
X028391Y012276D01*
X028427Y012297D01*
X028457Y012326D01*
X028478Y012363D01*
X028489Y012403D01*
X028489Y012601D01*
X028172Y012601D01*
X028172Y012680D01*
X028489Y012680D01*
X028489Y012878D01*
X028486Y012888D01*
X028547Y012948D01*
X028550Y012956D01*
X029536Y012956D01*
X030254Y012238D01*
X030177Y012315D02*
X028445Y012315D01*
X028489Y012432D02*
X030060Y012432D01*
X029944Y012548D02*
X028489Y012548D01*
X028489Y012781D02*
X029710Y012781D01*
X029594Y012898D02*
X028496Y012898D01*
X028172Y012665D02*
X029827Y012665D01*
X029767Y012198D02*
X027208Y012198D01*
X027208Y012082D02*
X029677Y012082D01*
X029657Y011965D02*
X027208Y011965D01*
X027208Y011849D02*
X029657Y011849D01*
X029566Y011732D02*
X027187Y011732D01*
X027146Y011615D02*
X029449Y011615D01*
X029333Y011499D02*
X027203Y011499D01*
X027208Y012315D02*
X027820Y012315D01*
X027777Y012432D02*
X027149Y012432D01*
X027111Y012548D02*
X027777Y012548D01*
X027777Y012781D02*
X027111Y012781D01*
X027111Y012665D02*
X028093Y012665D01*
X028093Y012548D02*
X028172Y012548D01*
X028172Y012432D02*
X028093Y012432D01*
X028093Y012315D02*
X028172Y012315D01*
X027769Y012898D02*
X027111Y012898D01*
X026715Y012759D02*
X026715Y012680D01*
X026399Y012680D01*
X026399Y012482D01*
X026402Y012472D01*
X026341Y012412D01*
X026316Y012351D01*
X026316Y012375D01*
X026302Y012408D01*
X026302Y012837D01*
X026399Y012934D01*
X026399Y012759D01*
X026715Y012759D01*
X026399Y012781D02*
X026302Y012781D01*
X026302Y012665D02*
X026399Y012665D01*
X026399Y012548D02*
X026302Y012548D01*
X026302Y012432D02*
X026361Y012432D01*
X026363Y012898D02*
X026399Y012898D01*
X025883Y013364D02*
X025676Y013364D01*
X025676Y013248D02*
X025767Y013248D01*
X025676Y013481D02*
X025960Y013481D01*
X026008Y013598D02*
X025676Y013598D01*
X025676Y013714D02*
X026122Y013714D01*
X025250Y015347D02*
X028979Y015347D01*
X027794Y016513D02*
X026503Y016513D01*
X026469Y017329D02*
X027828Y017329D01*
X027721Y019312D02*
X027704Y019312D01*
X027248Y019312D02*
X027232Y019312D01*
X026776Y019312D02*
X026759Y019312D01*
X026303Y019312D02*
X026287Y019312D01*
X025831Y019312D02*
X025815Y019312D01*
X025561Y019661D02*
X030869Y019661D01*
X030869Y019545D02*
X025444Y019545D01*
X025328Y019428D02*
X030869Y019428D01*
X030555Y019312D02*
X030539Y019312D01*
X030083Y019312D02*
X030067Y019312D01*
X029610Y019312D02*
X029594Y019312D01*
X029138Y019312D02*
X029122Y019312D01*
X028666Y019312D02*
X028649Y019312D01*
X028193Y019312D02*
X028177Y019312D01*
X026014Y020011D02*
X030869Y020011D01*
X030869Y019895D02*
X025948Y019895D01*
X026018Y020128D02*
X030869Y020128D01*
X030869Y020245D02*
X026018Y020245D01*
X026018Y020361D02*
X030869Y020361D01*
X030869Y020478D02*
X026018Y020478D01*
X025976Y020594D02*
X030869Y020594D01*
X030869Y019778D02*
X025678Y019778D01*
X025358Y019312D02*
X025342Y019312D01*
X024701Y018029D02*
X024052Y018029D01*
X023996Y017912D02*
X024701Y017912D01*
X024701Y017796D02*
X019365Y017796D01*
X019481Y017912D02*
X023124Y017912D01*
X023068Y018029D02*
X022925Y018029D01*
X022921Y018013D02*
X022932Y018054D01*
X022932Y018183D01*
X022536Y018183D01*
X022141Y018183D01*
X022141Y018054D01*
X022152Y018013D01*
X022173Y017977D01*
X022202Y017947D01*
X022239Y017926D01*
X022279Y017916D01*
X022536Y017916D01*
X022536Y018183D01*
X022536Y018183D01*
X022536Y017916D01*
X022793Y017916D01*
X022834Y017926D01*
X022870Y017947D01*
X022900Y017977D01*
X022921Y018013D01*
X022932Y018146D02*
X023068Y018146D01*
X023068Y018262D02*
X022948Y018262D01*
X023020Y018379D02*
X023083Y018379D01*
X023028Y018495D02*
X023166Y018495D01*
X023173Y018612D02*
X023028Y018612D01*
X023023Y018729D02*
X023086Y018729D01*
X023061Y018845D02*
X022954Y018845D01*
X022945Y018962D02*
X022932Y018962D01*
X022141Y018962D02*
X020531Y018962D01*
X020414Y018845D02*
X020666Y018845D01*
X020603Y018729D02*
X020297Y018729D01*
X020181Y018612D02*
X020602Y018612D01*
X020602Y018495D02*
X020064Y018495D01*
X019948Y018379D02*
X020602Y018379D01*
X020602Y018262D02*
X019831Y018262D01*
X019714Y018146D02*
X020650Y018146D01*
X021443Y018146D02*
X022141Y018146D01*
X022148Y018029D02*
X019598Y018029D01*
X019248Y017679D02*
X024701Y017679D01*
X024731Y017562D02*
X019131Y017562D01*
X019015Y017446D02*
X024867Y017446D01*
X024679Y017329D02*
X018870Y017329D01*
X020153Y016979D02*
X013822Y016979D01*
X013822Y016863D02*
X020139Y016863D01*
X020139Y016630D02*
X014350Y016630D01*
X014499Y016513D02*
X020139Y016513D01*
X020195Y016396D02*
X014616Y016396D01*
X014732Y016280D02*
X020069Y016280D01*
X020475Y016746D02*
X013807Y016746D01*
X013822Y017096D02*
X020789Y017096D01*
X020554Y016979D02*
X020475Y016979D01*
X020475Y016863D02*
X020554Y016863D01*
X020842Y016280D02*
X020875Y016280D01*
X020900Y016163D02*
X020908Y016163D01*
X020900Y016047D02*
X020913Y016047D01*
X020900Y015930D02*
X020965Y015930D01*
X020900Y015813D02*
X021081Y015813D01*
X021193Y015697D02*
X020900Y015697D01*
X020846Y015580D02*
X021193Y015580D01*
X022536Y018029D02*
X022536Y018029D01*
X022536Y018146D02*
X022536Y018146D01*
X022536Y018183D02*
X022536Y018183D01*
X022118Y018845D02*
X021426Y018845D01*
X021674Y020478D02*
X016538Y020478D01*
X016538Y020594D02*
X021674Y020594D01*
X021706Y020711D02*
X016538Y020711D01*
X016538Y020828D02*
X022949Y020828D01*
X022949Y020944D02*
X016538Y020944D01*
X016538Y021061D02*
X022949Y021061D01*
X022949Y021177D02*
X016538Y021177D01*
X016538Y021294D02*
X022949Y021294D01*
X022949Y021411D02*
X016538Y021411D01*
X016538Y021527D02*
X022949Y021527D01*
X022949Y021644D02*
X016538Y021644D01*
X016538Y021760D02*
X022949Y021760D01*
X022949Y021877D02*
X016538Y021877D01*
X016538Y021994D02*
X022949Y021994D01*
X022995Y022110D02*
X016538Y022110D01*
X016538Y022227D02*
X018933Y022227D01*
X018895Y022343D02*
X016538Y022343D01*
X016538Y022460D02*
X018895Y022460D01*
X018895Y022577D02*
X016538Y022577D01*
X016538Y022693D02*
X018895Y022693D01*
X018842Y022810D02*
X016538Y022810D01*
X016538Y022927D02*
X018197Y022927D01*
X018202Y022917D02*
X018232Y022887D01*
X018268Y022866D01*
X018309Y022856D01*
X018507Y022856D01*
X018507Y023172D01*
X018171Y023172D01*
X018171Y022994D01*
X018181Y022953D01*
X018202Y022917D01*
X018171Y023043D02*
X016538Y023043D01*
X016512Y023160D02*
X018171Y023160D01*
X018171Y023276D02*
X016448Y023276D01*
X016292Y023393D02*
X018171Y023393D01*
X018206Y023510D02*
X016034Y023510D01*
X016034Y023626D02*
X018856Y023626D01*
X018880Y023743D02*
X016034Y023743D01*
X016034Y023859D02*
X018880Y023859D01*
X018880Y023976D02*
X016034Y023976D01*
X015972Y024093D02*
X018880Y024093D01*
X018880Y024209D02*
X015973Y024209D01*
X016034Y024559D02*
X018880Y024559D01*
X018880Y024676D02*
X016034Y024676D01*
X016034Y024792D02*
X018880Y024792D01*
X018880Y024909D02*
X016034Y024909D01*
X016007Y025026D02*
X018880Y025026D01*
X018880Y025142D02*
X015883Y025142D01*
X015142Y025142D02*
X014899Y025142D01*
X011520Y022927D02*
X011362Y022927D01*
X011458Y022961D02*
X011458Y022961D01*
X011478Y022810D02*
X011034Y022810D01*
X011478Y022693D02*
X009679Y022693D01*
X009679Y022810D02*
X010030Y022810D01*
X010381Y022737D02*
X010381Y022737D01*
X009690Y022927D02*
X009679Y022927D01*
X011755Y020594D02*
X011834Y020594D01*
X011834Y020478D02*
X011755Y020478D01*
X011755Y020361D02*
X011834Y020361D01*
X011834Y020245D02*
X011755Y020245D01*
X011755Y020128D02*
X011834Y020128D01*
X011834Y020011D02*
X011755Y020011D01*
X011755Y019778D02*
X011834Y019778D01*
X011834Y019661D02*
X011755Y019661D01*
X011755Y019545D02*
X011834Y019545D01*
X011834Y019428D02*
X011755Y019428D01*
X011755Y019312D02*
X011834Y019312D01*
X011834Y019195D02*
X011755Y019195D01*
X011460Y019195D02*
X011007Y019195D01*
X011106Y019312D02*
X011438Y019312D01*
X011438Y019428D02*
X011145Y019428D01*
X011145Y019545D02*
X011438Y019545D01*
X011233Y019963D02*
X010908Y019963D01*
X013113Y020357D02*
X013172Y020298D01*
X013861Y019545D02*
X013940Y019545D01*
X013940Y019428D02*
X013861Y019428D01*
X014038Y019312D02*
X013650Y019312D01*
X016441Y018612D02*
X018167Y018612D01*
X017845Y018729D02*
X017727Y018729D01*
X017727Y018613D02*
X017220Y018613D01*
X017180Y018624D01*
X017143Y018645D01*
X017114Y018675D01*
X017093Y018711D01*
X017082Y018752D01*
X017082Y019215D01*
X017727Y019215D01*
X017845Y019215D01*
X017845Y019334D01*
X017727Y019334D01*
X017727Y019936D01*
X017220Y019936D01*
X017180Y019925D01*
X017143Y019904D01*
X017114Y019874D01*
X017093Y019838D01*
X017082Y019797D01*
X017082Y019334D01*
X017727Y019334D01*
X017727Y019215D01*
X017727Y018613D01*
X017727Y018845D02*
X017845Y018845D01*
X017845Y018962D02*
X017727Y018962D01*
X017727Y019078D02*
X017845Y019078D01*
X017845Y019195D02*
X017727Y019195D01*
X017727Y019312D02*
X016538Y019312D01*
X016538Y019428D02*
X017082Y019428D01*
X017082Y019545D02*
X016538Y019545D01*
X016538Y019661D02*
X017082Y019661D01*
X017082Y019778D02*
X016538Y019778D01*
X016538Y019895D02*
X017134Y019895D01*
X017727Y019895D02*
X017845Y019895D01*
X017845Y019936D02*
X017845Y019334D01*
X018491Y019334D01*
X018491Y019797D01*
X018480Y019838D01*
X018459Y019874D01*
X018429Y019904D01*
X018393Y019925D01*
X018353Y019936D01*
X017845Y019936D01*
X017845Y019778D02*
X017727Y019778D01*
X017727Y019661D02*
X017845Y019661D01*
X017845Y019545D02*
X017727Y019545D01*
X017727Y019428D02*
X017845Y019428D01*
X017845Y019312D02*
X018866Y019312D01*
X018983Y019428D02*
X018491Y019428D01*
X018491Y019545D02*
X019027Y019545D01*
X019027Y019661D02*
X018491Y019661D01*
X018491Y019778D02*
X019055Y019778D01*
X019182Y019895D02*
X018438Y019895D01*
X018491Y019195D02*
X018750Y019195D01*
X018633Y019078D02*
X018491Y019078D01*
X018491Y018962D02*
X018516Y018962D01*
X017082Y018962D02*
X016538Y018962D01*
X016538Y019078D02*
X017082Y019078D01*
X017082Y019195D02*
X016538Y019195D01*
X016538Y018845D02*
X017082Y018845D01*
X017088Y018729D02*
X016509Y018729D01*
X014132Y015930D02*
X013669Y015930D01*
X013792Y015813D02*
X014249Y015813D01*
X014365Y015697D02*
X013822Y015697D01*
X008682Y012548D02*
X006819Y012548D01*
X006819Y012432D02*
X008682Y012432D01*
X008682Y012315D02*
X006819Y012315D01*
X006819Y012198D02*
X008682Y012198D01*
X008682Y012082D02*
X006819Y012082D01*
X006819Y011965D02*
X008682Y011965D01*
X008682Y011849D02*
X006819Y011849D01*
X007538Y011732D02*
X008694Y011732D01*
X009811Y010799D02*
X012639Y010799D01*
X012956Y011032D02*
X013034Y011032D01*
X013034Y011149D02*
X012956Y011149D01*
X012956Y011265D02*
X013034Y011265D01*
X012986Y011382D02*
X012956Y011382D01*
X013743Y010790D02*
X013369Y010416D01*
X011991Y010416D01*
X011400Y010416D01*
X011204Y010219D01*
X010760Y010216D02*
X009906Y010216D01*
X009906Y010333D02*
X010760Y010333D01*
X010760Y010449D02*
X009906Y010449D01*
X009906Y010566D02*
X010812Y010566D01*
X011221Y010682D02*
X009904Y010682D01*
X009902Y010099D02*
X010648Y010099D01*
X010522Y009983D02*
X009906Y009983D01*
X009461Y009400D02*
X009402Y009400D01*
X008900Y009038D02*
X008290Y009038D01*
X007922Y008933D02*
X007032Y008933D01*
X007024Y009050D02*
X007287Y009050D01*
X007208Y009400D02*
X005957Y009400D01*
X005981Y009411D02*
X005981Y009411D01*
X006065Y009516D02*
X006548Y009516D01*
X006396Y009633D02*
X006149Y009633D01*
X006145Y009617D02*
X006145Y009617D01*
X006175Y009750D02*
X006345Y009750D01*
X006341Y009866D02*
X006202Y009866D01*
X006204Y009873D02*
X006204Y009873D01*
X006243Y009912D02*
X006243Y009912D01*
X006637Y009050D02*
X006715Y009050D01*
X006715Y008933D02*
X006637Y008933D01*
X007032Y008700D02*
X007404Y008700D01*
X007243Y008583D02*
X007032Y008583D01*
X007093Y008467D02*
X007208Y008467D01*
X007208Y008350D02*
X007129Y008350D01*
X007129Y008234D02*
X007208Y008234D01*
X007208Y008117D02*
X007129Y008117D01*
X007129Y008000D02*
X007208Y008000D01*
X007224Y007884D02*
X007129Y007884D01*
X007102Y007767D02*
X007310Y007767D01*
X006223Y008000D02*
X006133Y008000D01*
X006223Y008117D02*
X006017Y008117D01*
X005900Y008234D02*
X006223Y008234D01*
X006223Y008350D02*
X005783Y008350D01*
X005579Y008467D02*
X006259Y008467D01*
X004838Y006191D02*
X004838Y006191D01*
X002397Y005278D02*
X002397Y005278D01*
X001441Y005318D02*
X001300Y005318D01*
X001403Y005435D02*
X001031Y005435D01*
X001031Y005552D02*
X001403Y005552D01*
X001403Y005668D02*
X001031Y005668D01*
X001031Y005785D02*
X001403Y005785D01*
X001403Y005901D02*
X001031Y005901D01*
X001031Y006018D02*
X001418Y006018D01*
X001429Y006135D02*
X001031Y006135D01*
X001031Y006251D02*
X001403Y006251D01*
X001403Y006368D02*
X001031Y006368D01*
X001031Y006484D02*
X001403Y006484D01*
X001403Y006601D02*
X001031Y006601D01*
X001031Y006718D02*
X001403Y006718D01*
X001430Y006834D02*
X001031Y006834D01*
X001031Y006951D02*
X001417Y006951D01*
X001403Y007068D02*
X001031Y007068D01*
X001031Y007184D02*
X001403Y007184D01*
X001403Y007301D02*
X001031Y007301D01*
X001031Y007417D02*
X001403Y007417D01*
X001403Y007534D02*
X001031Y007534D01*
X001031Y007651D02*
X001442Y007651D01*
X001405Y007767D02*
X001031Y007767D01*
X001031Y007884D02*
X001403Y007884D01*
X001403Y008000D02*
X001031Y008000D01*
X001031Y008117D02*
X001403Y008117D01*
X001403Y008234D02*
X001031Y008234D01*
X001031Y008350D02*
X001406Y008350D01*
X001441Y008467D02*
X001031Y008467D01*
X001031Y008583D02*
X001403Y008583D01*
X001403Y008700D02*
X001031Y008700D01*
X001031Y008817D02*
X001403Y008817D01*
X001403Y008933D02*
X001031Y008933D01*
X001031Y009050D02*
X001403Y009050D01*
X001418Y009167D02*
X001031Y009167D01*
X001031Y009283D02*
X001499Y009283D01*
X001896Y008058D02*
X001899Y008054D01*
X007079Y002986D02*
X007129Y002986D01*
X007129Y002870D02*
X006984Y002870D01*
X006912Y002781D02*
X006912Y002781D01*
X006912Y002781D01*
X006872Y002753D02*
X007129Y002753D01*
X007129Y002636D02*
X006707Y002636D01*
X006542Y002520D02*
X007129Y002520D01*
X007129Y002403D02*
X006296Y002403D01*
X006458Y002461D02*
X006458Y002461D01*
X005968Y002286D02*
X007129Y002286D01*
X007129Y002170D02*
X004490Y002170D01*
X004373Y002286D02*
X005143Y002286D01*
X004838Y002350D02*
X004838Y002350D01*
X004735Y002403D02*
X004257Y002403D01*
X004140Y002520D02*
X004510Y002520D01*
X004345Y002605D02*
X004345Y002605D01*
X004312Y002636D02*
X004024Y002636D01*
X003907Y002753D02*
X004187Y002753D01*
X004607Y002053D02*
X007129Y002053D01*
X007129Y001937D02*
X004723Y001937D01*
X004840Y001820D02*
X007129Y001820D01*
X007129Y001703D02*
X004957Y001703D01*
X005073Y001587D02*
X007129Y001587D01*
X007129Y001470D02*
X005190Y001470D01*
X005306Y001354D02*
X007129Y001354D01*
X007129Y001237D02*
X005423Y001237D01*
X005540Y001120D02*
X007129Y001120D01*
X008645Y001558D02*
X008841Y001361D01*
X011597Y001361D01*
X014530Y007767D02*
X014577Y007767D01*
X014530Y007884D02*
X014694Y007884D01*
X014811Y008000D02*
X014530Y008000D01*
X014530Y008117D02*
X014927Y008117D01*
X015044Y008234D02*
X014530Y008234D01*
X014530Y008350D02*
X015160Y008350D01*
X015277Y008467D02*
X014530Y008467D01*
X014530Y008583D02*
X015394Y008583D01*
X015510Y008700D02*
X014530Y008700D01*
X014530Y008817D02*
X015627Y008817D01*
X015743Y008933D02*
X014530Y008933D01*
X023511Y009763D02*
X024045Y009763D01*
X024041Y009782D01*
X024337Y009782D01*
X024337Y009861D01*
X024041Y009861D01*
X024045Y009881D01*
X023511Y009881D01*
X023511Y009763D01*
X023511Y009866D02*
X024042Y009866D01*
X024357Y009881D02*
X024357Y010177D01*
X024337Y010173D01*
X024337Y010708D01*
X024456Y010708D01*
X024456Y010173D01*
X024436Y010177D01*
X024436Y009881D01*
X024357Y009881D01*
X024456Y009861D02*
X024456Y009782D01*
X024752Y009782D01*
X024748Y009763D01*
X025282Y009763D01*
X025282Y009881D01*
X024748Y009881D01*
X024752Y009861D01*
X024456Y009861D01*
X024436Y009763D02*
X024436Y009467D01*
X024456Y009471D01*
X024456Y008936D01*
X024337Y008936D01*
X024337Y009471D01*
X024357Y009467D01*
X024357Y009763D01*
X024436Y009763D01*
X024436Y009750D02*
X024357Y009750D01*
X024357Y009633D02*
X024436Y009633D01*
X024436Y009516D02*
X024357Y009516D01*
X024337Y009400D02*
X024456Y009400D01*
X024456Y009283D02*
X024337Y009283D01*
X024337Y009167D02*
X024456Y009167D01*
X024456Y009050D02*
X024337Y009050D01*
X024751Y009866D02*
X025282Y009866D01*
X024456Y010216D02*
X024337Y010216D01*
X024337Y010333D02*
X024456Y010333D01*
X024456Y010449D02*
X024337Y010449D01*
X024337Y010566D02*
X024456Y010566D01*
X024456Y010682D02*
X024337Y010682D01*
X024357Y010099D02*
X024436Y010099D01*
X024436Y009983D02*
X024357Y009983D01*
X025737Y008583D02*
X025965Y008583D01*
X025854Y008467D02*
X026082Y008467D01*
X025971Y008350D02*
X026198Y008350D01*
X026245Y008234D02*
X026087Y008234D01*
X026204Y008117D02*
X026274Y008117D01*
X026260Y008000D02*
X026447Y008000D01*
X026284Y007884D02*
X027098Y007884D01*
X027098Y008000D02*
X026913Y008000D01*
X027086Y008117D02*
X027098Y008117D01*
X027118Y007767D02*
X026316Y007767D01*
X026316Y007651D02*
X027208Y007651D01*
X026680Y007999D02*
X026680Y008217D01*
X026680Y008217D01*
X026680Y007999D01*
X026680Y008000D02*
X026680Y008000D01*
X026680Y008117D02*
X026680Y008117D01*
X026316Y007534D02*
X030948Y007534D01*
X030948Y007651D02*
X028875Y007651D01*
X028872Y007638D02*
X028882Y007679D01*
X028882Y007877D01*
X028566Y007877D01*
X028566Y007541D01*
X028744Y007541D01*
X028785Y007551D01*
X028821Y007572D01*
X028851Y007602D01*
X028872Y007638D01*
X028882Y007767D02*
X030948Y007767D01*
X030948Y007884D02*
X028566Y007884D01*
X028487Y007884D02*
X027986Y007884D01*
X027986Y008000D02*
X028171Y008000D01*
X028171Y008117D02*
X027986Y008117D01*
X027966Y007767D02*
X028171Y007767D01*
X028178Y007651D02*
X027877Y007651D01*
X028487Y007651D02*
X028566Y007651D01*
X028566Y007767D02*
X028487Y007767D01*
X028882Y008000D02*
X030948Y008000D01*
X030948Y008117D02*
X028882Y008117D01*
X028944Y008234D02*
X029087Y008234D01*
X029855Y008234D02*
X029953Y008234D01*
X030722Y008234D02*
X030948Y008234D01*
X030948Y007417D02*
X026316Y007417D01*
X026316Y007301D02*
X030948Y007301D01*
X030948Y007184D02*
X026281Y007184D01*
X026185Y007068D02*
X030948Y007068D01*
X030948Y006951D02*
X025003Y006951D01*
X025003Y006834D02*
X030948Y006834D01*
X030948Y006718D02*
X025003Y006718D01*
X025003Y006601D02*
X030948Y006601D01*
X030948Y006484D02*
X024993Y006484D01*
X024919Y006368D02*
X030948Y006368D01*
X030948Y006251D02*
X025061Y006251D01*
X025278Y006135D02*
X025357Y006135D01*
X025357Y006018D02*
X025278Y006018D01*
X025686Y006135D02*
X030948Y006135D01*
X022949Y020478D02*
X022386Y020478D01*
X022386Y020594D02*
X022950Y020594D01*
X022949Y020711D02*
X022354Y020711D01*
X022070Y020711D02*
X021991Y020711D01*
X021991Y020594D02*
X022070Y020594D01*
X022070Y020478D02*
X021991Y020478D01*
X023046Y022227D02*
X019746Y022227D01*
X019783Y022343D02*
X023046Y022343D01*
X023046Y022292D02*
X023046Y022451D01*
X023056Y022491D01*
X023077Y022528D01*
X023107Y022557D01*
X023143Y022578D01*
X023184Y022589D01*
X023874Y022589D01*
X023874Y022292D01*
X023046Y022292D01*
X023048Y022460D02*
X019783Y022460D01*
X019783Y022577D02*
X023141Y022577D01*
X023874Y022577D02*
X023913Y022577D01*
X023913Y022460D02*
X023874Y022460D01*
X023874Y022343D02*
X023913Y022343D01*
X024742Y022343D02*
X024787Y022343D01*
X024742Y022227D02*
X024904Y022227D01*
X024792Y022110D02*
X025063Y022110D01*
X024838Y021994D02*
X028452Y021994D01*
X028371Y022810D02*
X025267Y022810D01*
X024798Y023393D02*
X020749Y023393D01*
X020633Y023510D02*
X024798Y023510D01*
X024798Y023626D02*
X020595Y023626D01*
X020595Y023743D02*
X024798Y023743D01*
X024798Y023859D02*
X020595Y023859D01*
X020595Y023976D02*
X024798Y023976D01*
X024798Y024093D02*
X020595Y024093D01*
X020595Y024209D02*
X024798Y024209D01*
X024798Y024326D02*
X020595Y024326D01*
X020595Y024442D02*
X024798Y024442D01*
X024798Y024559D02*
X020595Y024559D01*
X020595Y024676D02*
X024832Y024676D01*
X025948Y024909D02*
X030869Y024909D01*
X030869Y025026D02*
X025961Y025026D01*
X026018Y025142D02*
X030869Y025142D01*
X030869Y025259D02*
X026018Y025259D01*
X026018Y025375D02*
X028720Y025375D01*
X028790Y025353D02*
X028790Y025353D01*
X029005Y025375D02*
X030869Y025375D01*
X030869Y025492D02*
X029326Y025492D01*
X029464Y025572D02*
X029464Y025572D01*
X029491Y025609D02*
X030869Y025609D01*
X030869Y025725D02*
X029575Y025725D01*
X029660Y025842D02*
X030869Y025842D01*
X030869Y025958D02*
X029697Y025958D01*
X029722Y026075D02*
X030869Y026075D01*
X030869Y026192D02*
X029746Y026192D01*
X029752Y026219D02*
X029752Y026219D01*
X029733Y026308D02*
X030869Y026308D01*
X030869Y026425D02*
X029709Y026425D01*
X029684Y026541D02*
X030869Y026541D01*
X030869Y026658D02*
X029616Y026658D01*
X029677Y026574D02*
X029677Y026574D01*
X029531Y026775D02*
X030869Y026775D01*
X030845Y026891D02*
X029422Y026891D01*
X029220Y027008D02*
X030728Y027008D01*
X030612Y027125D02*
X022511Y027125D01*
X022662Y027231D02*
X022662Y027231D01*
X022662Y027231D01*
X022670Y027241D02*
X030495Y027241D01*
X030379Y027358D02*
X022765Y027358D01*
X022860Y027474D02*
X030262Y027474D01*
X030145Y027591D02*
X022955Y027591D01*
X023032Y027708D02*
X024250Y027708D01*
X024244Y027717D02*
X024265Y027681D01*
X024295Y027651D01*
X024331Y027630D01*
X024372Y027619D01*
X024550Y027619D01*
X024550Y027956D01*
X024234Y027956D01*
X024234Y027757D01*
X024244Y027717D01*
X024234Y027824D02*
X023083Y027824D01*
X023134Y027941D02*
X024234Y027941D01*
X024234Y028034D02*
X024234Y028232D01*
X024236Y028242D01*
X024176Y028303D01*
X024137Y028397D01*
X024137Y028932D01*
X024176Y029026D01*
X024248Y029098D01*
X024342Y029137D01*
X024837Y029137D01*
X024931Y029098D01*
X025003Y029026D01*
X025038Y028941D01*
X025463Y028941D01*
X025463Y028998D01*
X025502Y029092D01*
X025574Y029164D01*
X025668Y029203D01*
X026373Y029203D01*
X026467Y029164D01*
X026521Y029110D01*
X026574Y029164D01*
X026668Y029203D01*
X027373Y029203D01*
X027467Y029164D01*
X027539Y029092D01*
X027578Y028998D01*
X027578Y028293D01*
X027539Y028199D01*
X027467Y028127D01*
X027373Y028088D01*
X026668Y028088D01*
X026574Y028127D01*
X026521Y028181D01*
X026467Y028127D01*
X026373Y028088D01*
X025668Y028088D01*
X025574Y028127D01*
X025502Y028199D01*
X025463Y028293D01*
X025463Y028350D01*
X025023Y028350D01*
X025003Y028303D01*
X024943Y028242D01*
X024945Y028232D01*
X024945Y028034D01*
X024629Y028034D01*
X024629Y027956D01*
X024945Y027956D01*
X024945Y027757D01*
X024935Y027717D01*
X024914Y027681D01*
X024884Y027651D01*
X024848Y027630D01*
X024807Y027619D01*
X024629Y027619D01*
X024629Y027956D01*
X024550Y027956D01*
X024550Y028034D01*
X024234Y028034D01*
X024234Y028057D02*
X023184Y028057D01*
X023233Y028171D02*
X023233Y028171D01*
X023234Y028174D02*
X024234Y028174D01*
X024188Y028291D02*
X023250Y028291D01*
X023266Y028407D02*
X024137Y028407D01*
X024137Y028524D02*
X023282Y028524D01*
X023298Y028640D02*
X024137Y028640D01*
X024137Y028757D02*
X023304Y028757D01*
X023288Y028874D02*
X024137Y028874D01*
X024161Y028990D02*
X023272Y028990D01*
X023256Y029107D02*
X024270Y029107D01*
X024909Y029107D02*
X025518Y029107D01*
X025463Y028990D02*
X025018Y028990D01*
X024991Y028291D02*
X025465Y028291D01*
X025528Y028174D02*
X024945Y028174D01*
X024945Y028057D02*
X029679Y028057D01*
X029795Y027941D02*
X024945Y027941D01*
X024945Y027824D02*
X029912Y027824D01*
X030029Y027708D02*
X024929Y027708D01*
X024629Y027708D02*
X024550Y027708D01*
X024550Y027824D02*
X024629Y027824D01*
X024629Y027941D02*
X024550Y027941D01*
X023240Y029224D02*
X028513Y029224D01*
X028396Y029340D02*
X023203Y029340D01*
X023152Y029457D02*
X028280Y029457D01*
X028163Y029573D02*
X023102Y029573D01*
X023051Y029690D02*
X028046Y029690D01*
X027523Y029107D02*
X028629Y029107D01*
X028746Y028990D02*
X027578Y028990D01*
X027578Y028874D02*
X028863Y028874D01*
X028979Y028757D02*
X027578Y028757D01*
X027578Y028640D02*
X029096Y028640D01*
X029212Y028524D02*
X027578Y028524D01*
X027578Y028407D02*
X029329Y028407D01*
X029446Y028291D02*
X027576Y028291D01*
X027513Y028174D02*
X029562Y028174D01*
X029150Y027048D02*
X029150Y027048D01*
X028549Y027008D02*
X022346Y027008D01*
X022208Y026911D02*
X022208Y026911D01*
X022154Y026891D02*
X028353Y026891D01*
X028445Y026974D02*
X028445Y026974D01*
X028224Y026775D02*
X021826Y026775D01*
X020709Y026775D02*
X019181Y026775D01*
X019321Y026891D02*
X020411Y026891D01*
X020588Y026800D02*
X020588Y026800D01*
X020186Y027008D02*
X019353Y027008D01*
X019353Y027125D02*
X020021Y027125D01*
X020095Y027055D02*
X020095Y027055D01*
X019896Y027241D02*
X019353Y027241D01*
X019353Y027358D02*
X019771Y027358D01*
X019689Y027434D02*
X019689Y027434D01*
X019665Y027474D02*
X019353Y027474D01*
X019353Y027591D02*
X019594Y027591D01*
X019523Y027708D02*
X019353Y027708D01*
X019353Y027824D02*
X019452Y027824D01*
X019401Y027908D02*
X019401Y027908D01*
X019392Y027941D02*
X019353Y027941D01*
X019353Y028057D02*
X019359Y028057D01*
X019655Y025842D02*
X019811Y025842D01*
X020442Y025842D02*
X020599Y025842D01*
X019759Y025026D02*
X019707Y025026D01*
X019551Y024909D02*
X019923Y024909D01*
X019923Y024792D02*
X019551Y024792D01*
X019551Y024676D02*
X019923Y024676D01*
X019923Y024559D02*
X019551Y024559D01*
X019551Y024442D02*
X019923Y024442D01*
X019923Y024326D02*
X019551Y024326D01*
X019551Y024209D02*
X019923Y024209D01*
X019923Y024093D02*
X019551Y024093D01*
X019551Y023976D02*
X019923Y023976D01*
X019923Y023859D02*
X019551Y023859D01*
X019551Y023743D02*
X019923Y023743D01*
X019923Y023626D02*
X019575Y023626D01*
X019667Y023510D02*
X019923Y023510D01*
X019923Y023393D02*
X019688Y023393D01*
X019688Y023276D02*
X019950Y023276D01*
X020032Y023160D02*
X019688Y023160D01*
X019688Y023043D02*
X020149Y023043D01*
X020266Y022927D02*
X019707Y022927D01*
X019777Y022810D02*
X020382Y022810D01*
X020550Y022693D02*
X019783Y022693D01*
X018586Y022927D02*
X018507Y022927D01*
X018507Y023043D02*
X018586Y023043D01*
X018586Y023160D02*
X018507Y023160D01*
X018507Y023276D02*
X018586Y023276D01*
X018586Y023393D02*
X018507Y023393D01*
X018507Y023510D02*
X018586Y023510D01*
X026018Y025492D02*
X028415Y025492D01*
X028445Y025465D02*
X028445Y025465D01*
X028285Y025609D02*
X026018Y025609D01*
X025963Y025725D02*
X028168Y025725D01*
X028176Y025707D02*
X028176Y025707D01*
X028176Y025707D01*
X029150Y025391D02*
X029150Y025391D01*
X030141Y024792D02*
X030481Y024792D01*
X030331Y024676D02*
X030291Y024676D01*
X030291Y024559D02*
X030331Y024559D01*
X030331Y024442D02*
X030291Y024442D01*
X030291Y024326D02*
X030331Y024326D01*
X030331Y024209D02*
X030291Y024209D01*
X030291Y024093D02*
X030331Y024093D01*
X030331Y023976D02*
X030291Y023976D01*
X030291Y023859D02*
X030331Y023859D01*
X030331Y023743D02*
X030291Y023743D01*
X030291Y023626D02*
X030331Y023626D01*
X030331Y023510D02*
X030291Y023510D01*
X030291Y023393D02*
X030331Y023393D01*
X030331Y023276D02*
X030291Y023276D01*
X030291Y023160D02*
X030331Y023160D01*
X030331Y023043D02*
X030291Y023043D01*
X026528Y028174D02*
X026513Y028174D01*
X006479Y020259D02*
X006469Y020249D01*
X005899Y020249D01*
X005751Y020397D01*
X005101Y020397D01*
X005082Y020416D01*
X004117Y020416D01*
X005111Y019737D02*
X005899Y019737D01*
X005899Y019993D01*
X005531Y020011D02*
X005380Y020011D01*
X005899Y019481D02*
X006469Y019481D01*
X006479Y019471D01*
D60*
X005495Y018487D02*
X006676Y017306D01*
X005495Y018487D02*
X003526Y018487D01*
X003398Y018359D01*
X002662Y018359D01*
X003771Y022021D02*
X003780Y022030D01*
X004511Y022030D01*
X004511Y022818D01*
X005436Y023743D01*
X005692Y023743D01*
X005692Y023074D02*
X005495Y023074D01*
X005101Y022680D01*
X005101Y022424D01*
X014215Y016322D02*
X014609Y015928D01*
X020456Y015928D01*
X023560Y018183D02*
X023752Y018375D01*
X024871Y018375D01*
X019339Y022556D02*
X019339Y023087D01*
X019215Y023211D01*
X019215Y025292D01*
X019339Y025416D01*
X020127Y025416D02*
X020259Y025284D01*
X020259Y023408D01*
X020652Y023015D01*
X024589Y023015D01*
X025586Y023887D02*
X025586Y023986D01*
X025574Y023999D01*
X016322Y014747D02*
X016125Y014944D01*
X013763Y013566D02*
X013369Y013960D01*
X013369Y014806D01*
X012778Y013369D02*
X012975Y013172D01*
X012719Y012582D02*
X013369Y012582D01*
X013369Y011834D01*
X013369Y011794D01*
X013743Y010967D02*
X013743Y010790D01*
X013369Y012582D02*
X016715Y012582D01*
X020456Y011991D02*
X020456Y013172D01*
X020456Y011991D02*
X020849Y011597D01*
X024711Y012105D02*
X024786Y012180D01*
X031932Y005101D02*
X031932Y003558D01*
X031782Y003408D01*
X013408Y003704D02*
X013074Y004038D01*
X013074Y005062D01*
X008881Y010416D02*
X008684Y010613D01*
X008645Y010613D01*
X009432Y011400D01*
X010672Y011400D01*
X005298Y008054D02*
X005298Y007798D01*
D61*
X009629Y003192D02*
X009412Y002975D01*
D62*
X012975Y005830D02*
X013684Y005830D01*
X013763Y005948D02*
X013763Y006479D01*
X014156Y006873D01*
X014156Y009826D01*
X008389Y021046D02*
X008841Y021499D01*
X008389Y021046D02*
X008251Y021046D01*
X006873Y021046D01*
X006460Y021460D01*
X006440Y021460D01*
X025574Y023999D02*
X025574Y025377D01*
M02*
