G75*
%MOIN*%
%OFA0B0*%
%FSLAX24Y24*%
%IPPOS*%
%LPD*%
%AMOC8*
5,1,8,0,0,1.08239X$1,22.5*
%
%ADD10C,0.0010*%
%ADD11C,0.0000*%
%ADD12C,0.0160*%
D10*
X001224Y005068D02*
X005521Y000771D01*
X036771Y000771D01*
X036771Y008693D01*
X034271Y008693D01*
X034271Y023835D01*
X028085Y030021D01*
X019093Y030021D01*
X019093Y027021D01*
X013021Y027021D01*
X002021Y023721D01*
X002021Y020918D01*
X001621Y020518D01*
X000771Y020518D01*
X000771Y005068D01*
X001224Y005068D01*
X002868Y009558D02*
X005613Y009558D01*
X005647Y009560D01*
X005681Y009565D01*
X005714Y009574D01*
X005745Y009587D01*
X005775Y009603D01*
X005804Y009622D01*
X005830Y009644D01*
X005853Y009669D01*
X005874Y009696D01*
X005891Y009725D01*
X005906Y009756D01*
X005917Y009789D01*
X005924Y009822D01*
X005928Y009856D01*
X005928Y009890D01*
X005924Y009924D01*
X005917Y009957D01*
X005906Y009990D01*
X005891Y010021D01*
X005874Y010050D01*
X005853Y010077D01*
X005830Y010102D01*
X005804Y010124D01*
X005775Y010143D01*
X005745Y010159D01*
X005714Y010172D01*
X005681Y010181D01*
X005647Y010186D01*
X005613Y010188D01*
X003188Y010188D01*
X003188Y013613D01*
X003186Y013647D01*
X003181Y013681D01*
X003172Y013714D01*
X003159Y013745D01*
X003143Y013775D01*
X003124Y013804D01*
X003102Y013830D01*
X003077Y013853D01*
X003050Y013874D01*
X003021Y013891D01*
X002990Y013906D01*
X002957Y013917D01*
X002924Y013924D01*
X002890Y013928D01*
X002856Y013928D01*
X002822Y013924D01*
X002789Y013917D01*
X002756Y013906D01*
X002725Y013891D01*
X002696Y013874D01*
X002669Y013853D01*
X002644Y013830D01*
X002622Y013804D01*
X002603Y013775D01*
X002587Y013745D01*
X002574Y013714D01*
X002565Y013681D01*
X002560Y013647D01*
X002558Y013613D01*
X002558Y009868D01*
X002560Y009836D01*
X002565Y009804D01*
X002573Y009772D01*
X002585Y009742D01*
X002600Y009713D01*
X002617Y009686D01*
X002638Y009661D01*
X002661Y009638D01*
X002686Y009617D01*
X002713Y009600D01*
X002742Y009585D01*
X002772Y009573D01*
X002804Y009565D01*
X002836Y009560D01*
X002868Y009558D01*
X005928Y010503D02*
X005928Y013928D01*
X003503Y013928D01*
X003469Y013930D01*
X003435Y013935D01*
X003402Y013944D01*
X003371Y013957D01*
X003341Y013973D01*
X003312Y013992D01*
X003286Y014014D01*
X003263Y014039D01*
X003242Y014066D01*
X003225Y014095D01*
X003210Y014126D01*
X003199Y014159D01*
X003192Y014192D01*
X003188Y014226D01*
X003188Y014260D01*
X003192Y014294D01*
X003199Y014327D01*
X003210Y014360D01*
X003225Y014391D01*
X003242Y014420D01*
X003263Y014447D01*
X003286Y014472D01*
X003312Y014494D01*
X003341Y014513D01*
X003371Y014529D01*
X003402Y014542D01*
X003435Y014551D01*
X003469Y014556D01*
X003503Y014558D01*
X006248Y014558D01*
X006280Y014556D01*
X006312Y014551D01*
X006344Y014543D01*
X006374Y014531D01*
X006403Y014516D01*
X006430Y014499D01*
X006455Y014478D01*
X006478Y014455D01*
X006499Y014430D01*
X006516Y014403D01*
X006531Y014374D01*
X006543Y014344D01*
X006551Y014312D01*
X006556Y014280D01*
X006558Y014248D01*
X006558Y010503D01*
X006556Y010469D01*
X006551Y010435D01*
X006542Y010402D01*
X006529Y010371D01*
X006513Y010341D01*
X006494Y010312D01*
X006472Y010286D01*
X006447Y010263D01*
X006420Y010242D01*
X006391Y010225D01*
X006360Y010210D01*
X006327Y010199D01*
X006294Y010192D01*
X006260Y010188D01*
X006226Y010188D01*
X006192Y010192D01*
X006159Y010199D01*
X006126Y010210D01*
X006095Y010225D01*
X006066Y010242D01*
X006039Y010263D01*
X006014Y010286D01*
X005992Y010312D01*
X005973Y010341D01*
X005957Y010371D01*
X005944Y010402D01*
X005935Y010435D01*
X005930Y010469D01*
X005928Y010503D01*
X001667Y017660D02*
X001455Y017660D01*
X001435Y017662D01*
X001415Y017666D01*
X001396Y017674D01*
X001379Y017685D01*
X001363Y017698D01*
X001350Y017714D01*
X001339Y017731D01*
X001331Y017750D01*
X001327Y017770D01*
X001325Y017790D01*
X001325Y017806D01*
X001327Y017826D01*
X001331Y017846D01*
X001339Y017865D01*
X001350Y017882D01*
X001363Y017898D01*
X001379Y017911D01*
X001396Y017922D01*
X001415Y017930D01*
X001435Y017934D01*
X001455Y017936D01*
X001667Y017936D01*
X001687Y017934D01*
X001707Y017930D01*
X001726Y017922D01*
X001743Y017911D01*
X001759Y017898D01*
X001772Y017882D01*
X001783Y017865D01*
X001791Y017846D01*
X001795Y017826D01*
X001797Y017806D01*
X001797Y017790D01*
X001795Y017770D01*
X001791Y017750D01*
X001783Y017731D01*
X001772Y017714D01*
X001759Y017698D01*
X001743Y017685D01*
X001726Y017674D01*
X001707Y017666D01*
X001687Y017662D01*
X001667Y017660D01*
X002677Y017786D02*
X002831Y017786D01*
X002852Y017788D01*
X002873Y017793D01*
X002893Y017802D01*
X002911Y017813D01*
X002927Y017828D01*
X002940Y017845D01*
X002950Y017864D01*
X002957Y017884D01*
X002961Y017905D01*
X002961Y017927D01*
X002957Y017948D01*
X002950Y017968D01*
X002940Y017987D01*
X002927Y018004D01*
X002911Y018019D01*
X002893Y018030D01*
X002873Y018039D01*
X002852Y018044D01*
X002831Y018046D01*
X002677Y018046D01*
X002656Y018044D01*
X002635Y018039D01*
X002615Y018030D01*
X002597Y018019D01*
X002581Y018004D01*
X002568Y017987D01*
X002558Y017968D01*
X002551Y017948D01*
X002547Y017927D01*
X002547Y017905D01*
X002551Y017884D01*
X002558Y017864D01*
X002568Y017845D01*
X002581Y017828D01*
X002597Y017813D01*
X002615Y017802D01*
X002635Y017793D01*
X002656Y017788D01*
X002677Y017786D01*
X002677Y019695D02*
X002831Y019695D01*
X002852Y019697D01*
X002873Y019702D01*
X002893Y019711D01*
X002911Y019722D01*
X002927Y019737D01*
X002940Y019754D01*
X002950Y019773D01*
X002957Y019793D01*
X002961Y019814D01*
X002961Y019836D01*
X002957Y019857D01*
X002950Y019877D01*
X002940Y019896D01*
X002927Y019913D01*
X002911Y019928D01*
X002893Y019939D01*
X002873Y019948D01*
X002852Y019953D01*
X002831Y019955D01*
X002677Y019955D01*
X002656Y019953D01*
X002635Y019948D01*
X002615Y019939D01*
X002597Y019928D01*
X002581Y019913D01*
X002568Y019896D01*
X002558Y019877D01*
X002551Y019857D01*
X002547Y019836D01*
X002547Y019814D01*
X002551Y019793D01*
X002558Y019773D01*
X002568Y019754D01*
X002581Y019737D01*
X002597Y019722D01*
X002615Y019711D01*
X002635Y019702D01*
X002656Y019697D01*
X002677Y019695D01*
X001797Y019936D02*
X001797Y019951D01*
X001795Y019971D01*
X001791Y019991D01*
X001783Y020010D01*
X001772Y020027D01*
X001759Y020043D01*
X001743Y020056D01*
X001726Y020067D01*
X001707Y020075D01*
X001687Y020079D01*
X001667Y020081D01*
X001455Y020081D01*
X001435Y020079D01*
X001415Y020075D01*
X001396Y020067D01*
X001379Y020056D01*
X001363Y020043D01*
X001350Y020027D01*
X001339Y020010D01*
X001331Y019991D01*
X001327Y019971D01*
X001325Y019951D01*
X001325Y019936D01*
X001327Y019916D01*
X001331Y019896D01*
X001339Y019877D01*
X001350Y019860D01*
X001363Y019844D01*
X001379Y019831D01*
X001396Y019820D01*
X001415Y019812D01*
X001435Y019808D01*
X001455Y019806D01*
X001667Y019806D01*
X001687Y019808D01*
X001707Y019812D01*
X001726Y019820D01*
X001743Y019831D01*
X001759Y019844D01*
X001772Y019860D01*
X001783Y019877D01*
X001791Y019896D01*
X001795Y019916D01*
X001797Y019936D01*
D11*
X001511Y019943D02*
X001513Y019966D01*
X001519Y019989D01*
X001529Y020010D01*
X001542Y020030D01*
X001558Y020047D01*
X001577Y020061D01*
X001598Y020071D01*
X001620Y020078D01*
X001643Y020081D01*
X001667Y020080D01*
X001689Y020075D01*
X001711Y020066D01*
X001731Y020054D01*
X001749Y020038D01*
X001763Y020020D01*
X001775Y020000D01*
X001783Y019978D01*
X001787Y019955D01*
X001787Y019931D01*
X001783Y019908D01*
X001775Y019886D01*
X001763Y019866D01*
X001749Y019848D01*
X001731Y019832D01*
X001711Y019820D01*
X001689Y019811D01*
X001667Y019806D01*
X001643Y019805D01*
X001620Y019808D01*
X001598Y019815D01*
X001577Y019825D01*
X001558Y019839D01*
X001542Y019856D01*
X001529Y019876D01*
X001519Y019897D01*
X001513Y019920D01*
X001511Y019943D01*
X001314Y019943D02*
X001316Y019966D01*
X001322Y019989D01*
X001332Y020010D01*
X001345Y020030D01*
X001361Y020047D01*
X001380Y020061D01*
X001401Y020071D01*
X001423Y020078D01*
X001446Y020081D01*
X001470Y020080D01*
X001492Y020075D01*
X001514Y020066D01*
X001534Y020054D01*
X001552Y020038D01*
X001566Y020020D01*
X001578Y020000D01*
X001586Y019978D01*
X001590Y019955D01*
X001590Y019931D01*
X001586Y019908D01*
X001578Y019886D01*
X001566Y019866D01*
X001552Y019848D01*
X001534Y019832D01*
X001514Y019820D01*
X001492Y019811D01*
X001470Y019806D01*
X001446Y019805D01*
X001423Y019808D01*
X001401Y019815D01*
X001380Y019825D01*
X001361Y019839D01*
X001345Y019856D01*
X001332Y019876D01*
X001322Y019897D01*
X001316Y019920D01*
X001314Y019943D01*
X002536Y019825D02*
X002538Y019847D01*
X002544Y019869D01*
X002553Y019889D01*
X002566Y019907D01*
X002582Y019923D01*
X002600Y019936D01*
X002620Y019945D01*
X002642Y019951D01*
X002664Y019953D01*
X002686Y019951D01*
X002708Y019945D01*
X002728Y019936D01*
X002746Y019923D01*
X002762Y019907D01*
X002775Y019889D01*
X002784Y019869D01*
X002790Y019847D01*
X002792Y019825D01*
X002790Y019803D01*
X002784Y019781D01*
X002775Y019761D01*
X002762Y019743D01*
X002746Y019727D01*
X002728Y019714D01*
X002708Y019705D01*
X002686Y019699D01*
X002664Y019697D01*
X002642Y019699D01*
X002620Y019705D01*
X002600Y019714D01*
X002582Y019727D01*
X002566Y019743D01*
X002553Y019761D01*
X002544Y019781D01*
X002538Y019803D01*
X002536Y019825D01*
X002694Y019825D02*
X002696Y019847D01*
X002702Y019869D01*
X002711Y019889D01*
X002724Y019907D01*
X002740Y019923D01*
X002758Y019936D01*
X002778Y019945D01*
X002800Y019951D01*
X002822Y019953D01*
X002844Y019951D01*
X002866Y019945D01*
X002886Y019936D01*
X002904Y019923D01*
X002920Y019907D01*
X002933Y019889D01*
X002942Y019869D01*
X002948Y019847D01*
X002950Y019825D01*
X002948Y019803D01*
X002942Y019781D01*
X002933Y019761D01*
X002920Y019743D01*
X002904Y019727D01*
X002886Y019714D01*
X002866Y019705D01*
X002844Y019699D01*
X002822Y019697D01*
X002800Y019699D01*
X002778Y019705D01*
X002758Y019714D01*
X002740Y019727D01*
X002724Y019743D01*
X002711Y019761D01*
X002702Y019781D01*
X002696Y019803D01*
X002694Y019825D01*
X002536Y017916D02*
X002538Y017938D01*
X002544Y017960D01*
X002553Y017980D01*
X002566Y017998D01*
X002582Y018014D01*
X002600Y018027D01*
X002620Y018036D01*
X002642Y018042D01*
X002664Y018044D01*
X002686Y018042D01*
X002708Y018036D01*
X002728Y018027D01*
X002746Y018014D01*
X002762Y017998D01*
X002775Y017980D01*
X002784Y017960D01*
X002790Y017938D01*
X002792Y017916D01*
X002790Y017894D01*
X002784Y017872D01*
X002775Y017852D01*
X002762Y017834D01*
X002746Y017818D01*
X002728Y017805D01*
X002708Y017796D01*
X002686Y017790D01*
X002664Y017788D01*
X002642Y017790D01*
X002620Y017796D01*
X002600Y017805D01*
X002582Y017818D01*
X002566Y017834D01*
X002553Y017852D01*
X002544Y017872D01*
X002538Y017894D01*
X002536Y017916D01*
X002694Y017916D02*
X002696Y017938D01*
X002702Y017960D01*
X002711Y017980D01*
X002724Y017998D01*
X002740Y018014D01*
X002758Y018027D01*
X002778Y018036D01*
X002800Y018042D01*
X002822Y018044D01*
X002844Y018042D01*
X002866Y018036D01*
X002886Y018027D01*
X002904Y018014D01*
X002920Y017998D01*
X002933Y017980D01*
X002942Y017960D01*
X002948Y017938D01*
X002950Y017916D01*
X002948Y017894D01*
X002942Y017872D01*
X002933Y017852D01*
X002920Y017834D01*
X002904Y017818D01*
X002886Y017805D01*
X002866Y017796D01*
X002844Y017790D01*
X002822Y017788D01*
X002800Y017790D01*
X002778Y017796D01*
X002758Y017805D01*
X002740Y017818D01*
X002724Y017834D01*
X002711Y017852D01*
X002702Y017872D01*
X002696Y017894D01*
X002694Y017916D01*
X001511Y017798D02*
X001513Y017821D01*
X001519Y017844D01*
X001529Y017865D01*
X001542Y017885D01*
X001558Y017902D01*
X001577Y017916D01*
X001598Y017926D01*
X001620Y017933D01*
X001643Y017936D01*
X001667Y017935D01*
X001689Y017930D01*
X001711Y017921D01*
X001731Y017909D01*
X001749Y017893D01*
X001763Y017875D01*
X001775Y017855D01*
X001783Y017833D01*
X001787Y017810D01*
X001787Y017786D01*
X001783Y017763D01*
X001775Y017741D01*
X001763Y017721D01*
X001749Y017703D01*
X001731Y017687D01*
X001711Y017675D01*
X001689Y017666D01*
X001667Y017661D01*
X001643Y017660D01*
X001620Y017663D01*
X001598Y017670D01*
X001577Y017680D01*
X001558Y017694D01*
X001542Y017711D01*
X001529Y017731D01*
X001519Y017752D01*
X001513Y017775D01*
X001511Y017798D01*
X001314Y017798D02*
X001316Y017821D01*
X001322Y017844D01*
X001332Y017865D01*
X001345Y017885D01*
X001361Y017902D01*
X001380Y017916D01*
X001401Y017926D01*
X001423Y017933D01*
X001446Y017936D01*
X001470Y017935D01*
X001492Y017930D01*
X001514Y017921D01*
X001534Y017909D01*
X001552Y017893D01*
X001566Y017875D01*
X001578Y017855D01*
X001586Y017833D01*
X001590Y017810D01*
X001590Y017786D01*
X001586Y017763D01*
X001578Y017741D01*
X001566Y017721D01*
X001552Y017703D01*
X001534Y017687D01*
X001514Y017675D01*
X001492Y017666D01*
X001470Y017661D01*
X001446Y017660D01*
X001423Y017663D01*
X001401Y017670D01*
X001380Y017680D01*
X001361Y017694D01*
X001345Y017711D01*
X001332Y017731D01*
X001322Y017752D01*
X001316Y017775D01*
X001314Y017798D01*
X003791Y016519D02*
X003793Y016572D01*
X003799Y016625D01*
X003809Y016677D01*
X003822Y016729D01*
X003840Y016779D01*
X003861Y016828D01*
X003885Y016875D01*
X003913Y016920D01*
X003945Y016963D01*
X003979Y017004D01*
X004016Y017042D01*
X004056Y017077D01*
X004099Y017109D01*
X004143Y017138D01*
X004190Y017164D01*
X004239Y017185D01*
X004289Y017204D01*
X004340Y017218D01*
X004392Y017229D01*
X004445Y017236D01*
X004498Y017239D01*
X004551Y017238D01*
X004604Y017233D01*
X004656Y017224D01*
X004708Y017212D01*
X004759Y017195D01*
X004808Y017175D01*
X004856Y017151D01*
X004901Y017124D01*
X004945Y017094D01*
X004986Y017060D01*
X005025Y017023D01*
X005061Y016984D01*
X005093Y016942D01*
X005123Y016898D01*
X005149Y016852D01*
X005172Y016804D01*
X005192Y016754D01*
X005207Y016703D01*
X005219Y016651D01*
X005227Y016599D01*
X005231Y016546D01*
X005231Y016492D01*
X005227Y016439D01*
X005219Y016387D01*
X005207Y016335D01*
X005192Y016284D01*
X005172Y016234D01*
X005149Y016186D01*
X005123Y016140D01*
X005093Y016096D01*
X005061Y016054D01*
X005025Y016015D01*
X004986Y015978D01*
X004945Y015944D01*
X004901Y015914D01*
X004856Y015887D01*
X004808Y015863D01*
X004759Y015843D01*
X004708Y015826D01*
X004656Y015814D01*
X004604Y015805D01*
X004551Y015800D01*
X004498Y015799D01*
X004445Y015802D01*
X004392Y015809D01*
X004340Y015820D01*
X004289Y015834D01*
X004239Y015853D01*
X004190Y015874D01*
X004143Y015900D01*
X004099Y015929D01*
X004056Y015961D01*
X004016Y015996D01*
X003979Y016034D01*
X003945Y016075D01*
X003913Y016118D01*
X003885Y016163D01*
X003861Y016210D01*
X003840Y016259D01*
X003822Y016309D01*
X003809Y016361D01*
X003799Y016413D01*
X003793Y016466D01*
X003791Y016519D01*
X009801Y024771D02*
X009803Y024824D01*
X009809Y024877D01*
X009819Y024929D01*
X009832Y024981D01*
X009850Y025031D01*
X009871Y025080D01*
X009895Y025127D01*
X009923Y025172D01*
X009955Y025215D01*
X009989Y025256D01*
X010026Y025294D01*
X010066Y025329D01*
X010109Y025361D01*
X010153Y025390D01*
X010200Y025416D01*
X010249Y025437D01*
X010299Y025456D01*
X010350Y025470D01*
X010402Y025481D01*
X010455Y025488D01*
X010508Y025491D01*
X010561Y025490D01*
X010614Y025485D01*
X010666Y025476D01*
X010718Y025464D01*
X010769Y025447D01*
X010818Y025427D01*
X010866Y025403D01*
X010911Y025376D01*
X010955Y025346D01*
X010996Y025312D01*
X011035Y025275D01*
X011071Y025236D01*
X011103Y025194D01*
X011133Y025150D01*
X011159Y025104D01*
X011182Y025056D01*
X011202Y025006D01*
X011217Y024955D01*
X011229Y024903D01*
X011237Y024851D01*
X011241Y024798D01*
X011241Y024744D01*
X011237Y024691D01*
X011229Y024639D01*
X011217Y024587D01*
X011202Y024536D01*
X011182Y024486D01*
X011159Y024438D01*
X011133Y024392D01*
X011103Y024348D01*
X011071Y024306D01*
X011035Y024267D01*
X010996Y024230D01*
X010955Y024196D01*
X010911Y024166D01*
X010866Y024139D01*
X010818Y024115D01*
X010769Y024095D01*
X010718Y024078D01*
X010666Y024066D01*
X010614Y024057D01*
X010561Y024052D01*
X010508Y024051D01*
X010455Y024054D01*
X010402Y024061D01*
X010350Y024072D01*
X010299Y024086D01*
X010249Y024105D01*
X010200Y024126D01*
X010153Y024152D01*
X010109Y024181D01*
X010066Y024213D01*
X010026Y024248D01*
X009989Y024286D01*
X009955Y024327D01*
X009923Y024370D01*
X009895Y024415D01*
X009871Y024462D01*
X009850Y024511D01*
X009832Y024561D01*
X009819Y024613D01*
X009809Y024665D01*
X009803Y024718D01*
X009801Y024771D01*
X013928Y025903D02*
X013930Y025935D01*
X013936Y025967D01*
X013945Y025997D01*
X013958Y026027D01*
X013975Y026054D01*
X013995Y026079D01*
X014018Y026102D01*
X014043Y026122D01*
X014070Y026139D01*
X014100Y026152D01*
X014130Y026161D01*
X014162Y026167D01*
X014194Y026169D01*
X014226Y026167D01*
X014258Y026161D01*
X014288Y026152D01*
X014318Y026139D01*
X014345Y026122D01*
X014370Y026102D01*
X014393Y026079D01*
X014413Y026054D01*
X014430Y026027D01*
X014443Y025997D01*
X014452Y025967D01*
X014458Y025935D01*
X014460Y025903D01*
X014458Y025871D01*
X014452Y025839D01*
X014443Y025809D01*
X014430Y025779D01*
X014413Y025752D01*
X014393Y025727D01*
X014370Y025704D01*
X014345Y025684D01*
X014318Y025667D01*
X014288Y025654D01*
X014258Y025645D01*
X014226Y025639D01*
X014194Y025637D01*
X014162Y025639D01*
X014130Y025645D01*
X014100Y025654D01*
X014070Y025667D01*
X014043Y025684D01*
X014018Y025704D01*
X013995Y025727D01*
X013975Y025752D01*
X013958Y025779D01*
X013945Y025809D01*
X013936Y025839D01*
X013930Y025871D01*
X013928Y025903D01*
X015581Y021414D02*
X015583Y021446D01*
X015589Y021478D01*
X015598Y021508D01*
X015611Y021538D01*
X015628Y021565D01*
X015648Y021590D01*
X015671Y021613D01*
X015696Y021633D01*
X015723Y021650D01*
X015753Y021663D01*
X015783Y021672D01*
X015815Y021678D01*
X015847Y021680D01*
X015879Y021678D01*
X015911Y021672D01*
X015941Y021663D01*
X015971Y021650D01*
X015998Y021633D01*
X016023Y021613D01*
X016046Y021590D01*
X016066Y021565D01*
X016083Y021538D01*
X016096Y021508D01*
X016105Y021478D01*
X016111Y021446D01*
X016113Y021414D01*
X016111Y021382D01*
X016105Y021350D01*
X016096Y021320D01*
X016083Y021290D01*
X016066Y021263D01*
X016046Y021238D01*
X016023Y021215D01*
X015998Y021195D01*
X015971Y021178D01*
X015941Y021165D01*
X015911Y021156D01*
X015879Y021150D01*
X015847Y021148D01*
X015815Y021150D01*
X015783Y021156D01*
X015753Y021165D01*
X015723Y021178D01*
X015696Y021195D01*
X015671Y021215D01*
X015648Y021238D01*
X015628Y021263D01*
X015611Y021290D01*
X015598Y021320D01*
X015589Y021350D01*
X015583Y021382D01*
X015581Y021414D01*
X020551Y028721D02*
X020553Y028774D01*
X020559Y028827D01*
X020569Y028879D01*
X020582Y028931D01*
X020600Y028981D01*
X020621Y029030D01*
X020645Y029077D01*
X020673Y029122D01*
X020705Y029165D01*
X020739Y029206D01*
X020776Y029244D01*
X020816Y029279D01*
X020859Y029311D01*
X020903Y029340D01*
X020950Y029366D01*
X020999Y029387D01*
X021049Y029406D01*
X021100Y029420D01*
X021152Y029431D01*
X021205Y029438D01*
X021258Y029441D01*
X021311Y029440D01*
X021364Y029435D01*
X021416Y029426D01*
X021468Y029414D01*
X021519Y029397D01*
X021568Y029377D01*
X021616Y029353D01*
X021661Y029326D01*
X021705Y029296D01*
X021746Y029262D01*
X021785Y029225D01*
X021821Y029186D01*
X021853Y029144D01*
X021883Y029100D01*
X021909Y029054D01*
X021932Y029006D01*
X021952Y028956D01*
X021967Y028905D01*
X021979Y028853D01*
X021987Y028801D01*
X021991Y028748D01*
X021991Y028694D01*
X021987Y028641D01*
X021979Y028589D01*
X021967Y028537D01*
X021952Y028486D01*
X021932Y028436D01*
X021909Y028388D01*
X021883Y028342D01*
X021853Y028298D01*
X021821Y028256D01*
X021785Y028217D01*
X021746Y028180D01*
X021705Y028146D01*
X021661Y028116D01*
X021616Y028089D01*
X021568Y028065D01*
X021519Y028045D01*
X021468Y028028D01*
X021416Y028016D01*
X021364Y028007D01*
X021311Y028002D01*
X021258Y028001D01*
X021205Y028004D01*
X021152Y028011D01*
X021100Y028022D01*
X021049Y028036D01*
X020999Y028055D01*
X020950Y028076D01*
X020903Y028102D01*
X020859Y028131D01*
X020816Y028163D01*
X020776Y028198D01*
X020739Y028236D01*
X020705Y028277D01*
X020673Y028320D01*
X020645Y028365D01*
X020621Y028412D01*
X020600Y028461D01*
X020582Y028511D01*
X020569Y028563D01*
X020559Y028615D01*
X020553Y028668D01*
X020551Y028721D01*
X004801Y004271D02*
X004803Y004324D01*
X004809Y004377D01*
X004819Y004429D01*
X004832Y004481D01*
X004850Y004531D01*
X004871Y004580D01*
X004895Y004627D01*
X004923Y004672D01*
X004955Y004715D01*
X004989Y004756D01*
X005026Y004794D01*
X005066Y004829D01*
X005109Y004861D01*
X005153Y004890D01*
X005200Y004916D01*
X005249Y004937D01*
X005299Y004956D01*
X005350Y004970D01*
X005402Y004981D01*
X005455Y004988D01*
X005508Y004991D01*
X005561Y004990D01*
X005614Y004985D01*
X005666Y004976D01*
X005718Y004964D01*
X005769Y004947D01*
X005818Y004927D01*
X005866Y004903D01*
X005911Y004876D01*
X005955Y004846D01*
X005996Y004812D01*
X006035Y004775D01*
X006071Y004736D01*
X006103Y004694D01*
X006133Y004650D01*
X006159Y004604D01*
X006182Y004556D01*
X006202Y004506D01*
X006217Y004455D01*
X006229Y004403D01*
X006237Y004351D01*
X006241Y004298D01*
X006241Y004244D01*
X006237Y004191D01*
X006229Y004139D01*
X006217Y004087D01*
X006202Y004036D01*
X006182Y003986D01*
X006159Y003938D01*
X006133Y003892D01*
X006103Y003848D01*
X006071Y003806D01*
X006035Y003767D01*
X005996Y003730D01*
X005955Y003696D01*
X005911Y003666D01*
X005866Y003639D01*
X005818Y003615D01*
X005769Y003595D01*
X005718Y003578D01*
X005666Y003566D01*
X005614Y003557D01*
X005561Y003552D01*
X005508Y003551D01*
X005455Y003554D01*
X005402Y003561D01*
X005350Y003572D01*
X005299Y003586D01*
X005249Y003605D01*
X005200Y003626D01*
X005153Y003652D01*
X005109Y003681D01*
X005066Y003713D01*
X005026Y003748D01*
X004989Y003786D01*
X004955Y003827D01*
X004923Y003870D01*
X004895Y003915D01*
X004871Y003962D01*
X004850Y004011D01*
X004832Y004061D01*
X004819Y004113D01*
X004809Y004165D01*
X004803Y004218D01*
X004801Y004271D01*
X034301Y002396D02*
X034303Y002449D01*
X034309Y002502D01*
X034319Y002554D01*
X034332Y002606D01*
X034350Y002656D01*
X034371Y002705D01*
X034395Y002752D01*
X034423Y002797D01*
X034455Y002840D01*
X034489Y002881D01*
X034526Y002919D01*
X034566Y002954D01*
X034609Y002986D01*
X034653Y003015D01*
X034700Y003041D01*
X034749Y003062D01*
X034799Y003081D01*
X034850Y003095D01*
X034902Y003106D01*
X034955Y003113D01*
X035008Y003116D01*
X035061Y003115D01*
X035114Y003110D01*
X035166Y003101D01*
X035218Y003089D01*
X035269Y003072D01*
X035318Y003052D01*
X035366Y003028D01*
X035411Y003001D01*
X035455Y002971D01*
X035496Y002937D01*
X035535Y002900D01*
X035571Y002861D01*
X035603Y002819D01*
X035633Y002775D01*
X035659Y002729D01*
X035682Y002681D01*
X035702Y002631D01*
X035717Y002580D01*
X035729Y002528D01*
X035737Y002476D01*
X035741Y002423D01*
X035741Y002369D01*
X035737Y002316D01*
X035729Y002264D01*
X035717Y002212D01*
X035702Y002161D01*
X035682Y002111D01*
X035659Y002063D01*
X035633Y002017D01*
X035603Y001973D01*
X035571Y001931D01*
X035535Y001892D01*
X035496Y001855D01*
X035455Y001821D01*
X035411Y001791D01*
X035366Y001764D01*
X035318Y001740D01*
X035269Y001720D01*
X035218Y001703D01*
X035166Y001691D01*
X035114Y001682D01*
X035061Y001677D01*
X035008Y001676D01*
X034955Y001679D01*
X034902Y001686D01*
X034850Y001697D01*
X034799Y001711D01*
X034749Y001730D01*
X034700Y001751D01*
X034653Y001777D01*
X034609Y001806D01*
X034566Y001838D01*
X034526Y001873D01*
X034489Y001911D01*
X034455Y001952D01*
X034423Y001995D01*
X034395Y002040D01*
X034371Y002087D01*
X034350Y002136D01*
X034332Y002186D01*
X034319Y002238D01*
X034309Y002290D01*
X034303Y002343D01*
X034301Y002396D01*
D12*
X000771Y001361D02*
X000771Y000180D01*
X000180Y000771D02*
X001361Y000771D01*
M02*
