%
M48
M72
T01C0.0236
T02C0.0256
T03C0.0276
T04C0.0315
T05C0.0354
T06C0.0374
T07C0.0402
T08C0.0531
T09C0.1440
%
T01
X2936Y4708
X5889Y8448
X7070Y10219
X7070Y11007
X9432Y9235
X9432Y8448
X10416Y7660
X11204Y7857
X12778Y7463
X11204Y6479
X10219Y6282
X9432Y7070
X8841Y6282
X8448Y4904
X8841Y4314
X9629Y4904
X9629Y3723
X10416Y3723
X10810Y4314
X11794Y3920
X12385Y4904
X15534Y3526
X15928Y5298
X19471Y6479
X19668Y5101
X22030Y7267
X23015Y6479
X23211Y5298
X23015Y2739
X22030Y2739
X27149Y6086
X28723Y5298
X29511Y6479
X27542Y8054
X28723Y9826
X28133Y10416
X29314Y10416
X30101Y11794
X27542Y11597
X25771Y13763
X24141Y13723
X22621Y13172
X21637Y11991
X20456Y13172
X18290Y11991
X16715Y12582
X15534Y14353
X16125Y14944
X17306Y15141
X17897Y16715
X19865Y17700
X21046Y18487
X22621Y17503
X20456Y15928
X21637Y15731
X24983Y16912
X26164Y16912
X26952Y15928
X25967Y15731
X28133Y16912
X29314Y14944
X30692Y14353
X25574Y20259
X27345Y21046
X28723Y22424
X25574Y25377
X24393Y25771
X22818Y25574
X19339Y22556
X19471Y19471
X13763Y20259
X13763Y20849
X13763Y21440
X12385Y19078
X11794Y18290
X12778Y18093
X13566Y17700
X11991Y16715
X10810Y16125
X11597Y14747
X12582Y14156
X12778Y13369
X11991Y11400
X11204Y10219
X10416Y10219
X10416Y10810
X11991Y9826
X11597Y9038
X12385Y9038
X12975Y9826
X14156Y9826
X16715Y9432
X17897Y9629
X19471Y9235
X10613Y9038
X9826Y14156
X7267Y17109
X6676Y17503
X6676Y19668
X6676Y20456
X5692Y21046
X5101Y22424
X8251Y21046
X9432Y21440
X10613Y21440
X9235Y22818
X10416Y19078
X9235Y18684
X1755Y13369
X1755Y12188
X1755Y10810
X18290Y25771
T02
X19339Y25416
X20127Y25416
X20914Y25416
X21702Y25416
X2822Y19825
X2664Y19825
X2664Y17916
X2822Y17916
T03
X1649Y17798
X1452Y17798
X1452Y19943
X1649Y19943
T04
X1896Y8845
X1896Y8058
X1896Y7271
X1896Y6483
X1896Y5696
T05
X14528Y22674
X14528Y23659
X14528Y24643
X15513Y24643
X15513Y23659
X15513Y22674
X28830Y3408
X29814Y3408
X30798Y3408
X31782Y3408
T06
X18160Y6149
X18160Y7149
X18160Y8149
X17160Y8149
X17160Y7149
X17160Y6149
T07
X3771Y22021
X3771Y23021
X26021Y28646
X27021Y28646
T08
X15847Y21414
X14194Y25903
T09
X5521Y4271
X4511Y16519
X10521Y24771
X21271Y28721
X35021Y2396
M30
