G75*
%MOIN*%
%OFA0B0*%
%FSLAX24Y24*%
%IPPOS*%
%LPD*%
%AMOC8*
5,1,8,0,0,1.08239X$1,22.5*
%
%ADD10OC8,0.0610*%
%ADD11C,0.0400*%
%ADD12R,0.0394X0.0394*%
%ADD13R,0.0394X0.0433*%
%ADD14C,0.0087*%
%ADD15C,0.0190*%
%ADD16C,0.0142*%
%ADD17C,0.0394*%
%ADD18R,0.0315X0.1378*%
%ADD19R,0.1378X0.0315*%
%ADD20R,0.0396X0.0396*%
%ADD21R,0.0984X0.0561*%
%ADD22R,0.0965X0.0512*%
%ADD23R,0.0276X0.0719*%
%ADD24R,0.0575X0.0787*%
%ADD25R,0.0689X0.0157*%
%ADD26R,0.2100X0.0760*%
%ADD27R,0.0394X0.0098*%
%ADD28R,0.0354X0.1024*%
%ADD29R,0.0472X0.0315*%
%ADD30R,0.0433X0.0394*%
%ADD31R,0.0787X0.0472*%
%ADD32R,0.0098X0.0394*%
%ADD33R,0.1024X0.0354*%
%ADD34R,0.0315X0.0472*%
%ADD35R,0.0472X0.0787*%
%ADD36R,0.0394X0.1811*%
%ADD37R,0.0630X0.1339*%
%ADD38R,0.0276X0.0472*%
%ADD39R,0.0394X0.0551*%
%ADD40R,0.0531X0.0531*%
%ADD41R,0.0602X0.0602*%
%ADD42R,0.0551X0.0394*%
%ADD43R,0.0472X0.0472*%
%ADD44R,0.0472X0.0217*%
%ADD45R,0.1181X0.0472*%
%ADD46R,0.0453X0.0118*%
%ADD47R,0.0394X0.1181*%
%ADD48R,0.0394X0.0472*%
%ADD49R,0.0472X0.0394*%
%ADD50R,0.0531X0.0177*%
%ADD51R,0.1091X0.1004*%
%ADD52R,0.0394X0.0709*%
%ADD53R,0.0472X0.0669*%
%ADD54R,0.0197X0.0394*%
%ADD55C,0.0079*%
%ADD56C,0.0157*%
%ADD57R,0.0376X0.0376*%
%ADD58C,0.0315*%
%ADD59C,0.0118*%
%ADD60C,0.0160*%
%ADD61C,0.0126*%
%ADD62C,0.0236*%
D10*
X017160Y005952D03*
X017160Y006952D03*
X017160Y007952D03*
X018160Y007952D03*
X018160Y006952D03*
X018160Y005952D03*
D11*
X001920Y015542D03*
X028881Y026023D03*
X035125Y006369D03*
D12*
X012582Y014550D03*
X012582Y015337D03*
X012582Y016125D03*
X012582Y016912D03*
X004314Y007857D03*
X004314Y007070D03*
X003526Y007070D03*
X002739Y007070D03*
X002739Y006282D03*
X003526Y006282D03*
X003526Y005495D03*
X002739Y005495D03*
D13*
X005298Y006932D03*
X005298Y007601D03*
X006676Y007916D03*
X006676Y008586D03*
X011991Y007601D03*
X011991Y006932D03*
X012975Y005633D03*
X012975Y004963D03*
X011794Y005042D03*
X011794Y004373D03*
X011550Y002058D03*
X011550Y001389D03*
X020574Y005357D03*
X020574Y006026D03*
X022385Y006223D03*
X022385Y005554D03*
X028526Y007719D03*
X028526Y008389D03*
X026755Y011853D03*
X026755Y012523D03*
X028133Y012444D03*
X028133Y013113D03*
X021715Y013113D03*
X021715Y012444D03*
X019274Y011538D03*
X019274Y010869D03*
X013369Y014609D03*
X013369Y015278D03*
X013369Y016184D03*
X013369Y016853D03*
X010139Y019627D03*
X010139Y020296D03*
X008841Y021302D03*
X008841Y021971D03*
X006676Y023074D03*
X006676Y023743D03*
X005692Y023546D03*
X005692Y022877D03*
X005101Y020200D03*
X005101Y019530D03*
X008251Y019412D03*
X008251Y018743D03*
X022030Y019530D03*
X022030Y020200D03*
X024589Y027798D03*
X024589Y028467D03*
D14*
X024582Y011018D02*
X024582Y010810D01*
X024582Y011018D02*
X024604Y011018D01*
X024604Y010810D01*
X024582Y010810D01*
X024582Y010896D02*
X024604Y010896D01*
X024604Y010982D02*
X024582Y010982D01*
X024386Y011018D02*
X024386Y010810D01*
X024386Y011018D02*
X024408Y011018D01*
X024408Y010810D01*
X024386Y010810D01*
X024386Y010896D02*
X024408Y010896D01*
X024408Y010982D02*
X024386Y010982D01*
X024189Y011018D02*
X024189Y010810D01*
X024189Y011018D02*
X024211Y011018D01*
X024211Y010810D01*
X024189Y010810D01*
X024189Y010896D02*
X024211Y010896D01*
X024211Y010982D02*
X024189Y010982D01*
X023992Y011018D02*
X023992Y010810D01*
X023992Y011018D02*
X024014Y011018D01*
X024014Y010810D01*
X023992Y010810D01*
X023992Y010896D02*
X024014Y010896D01*
X024014Y010982D02*
X023992Y010982D01*
X023795Y011018D02*
X023795Y010810D01*
X023795Y011018D02*
X023817Y011018D01*
X023817Y010810D01*
X023795Y010810D01*
X023795Y010896D02*
X023817Y010896D01*
X023817Y010982D02*
X023795Y010982D01*
X023598Y011018D02*
X023598Y010810D01*
X023598Y011018D02*
X023620Y011018D01*
X023620Y010810D01*
X023598Y010810D01*
X023598Y010896D02*
X023620Y010896D01*
X023620Y010982D02*
X023598Y010982D01*
X023401Y011018D02*
X023401Y010810D01*
X023401Y011018D02*
X023423Y011018D01*
X023423Y010810D01*
X023401Y010810D01*
X023401Y010896D02*
X023423Y010896D01*
X023423Y010982D02*
X023401Y010982D01*
X023211Y010598D02*
X023003Y010598D01*
X023003Y010620D01*
X023211Y010620D01*
X023211Y010598D01*
X023211Y010401D02*
X023003Y010401D01*
X023003Y010423D01*
X023211Y010423D01*
X023211Y010401D01*
X023211Y010204D02*
X023003Y010204D01*
X023003Y010226D01*
X023211Y010226D01*
X023211Y010204D01*
X023211Y010008D02*
X023003Y010008D01*
X023003Y010030D01*
X023211Y010030D01*
X023211Y010008D01*
X023211Y009811D02*
X023003Y009811D01*
X023003Y009833D01*
X023211Y009833D01*
X023211Y009811D01*
X023211Y009614D02*
X023003Y009614D01*
X023003Y009636D01*
X023211Y009636D01*
X023211Y009614D01*
X023211Y009417D02*
X023003Y009417D01*
X023003Y009439D01*
X023211Y009439D01*
X023211Y009417D01*
X023211Y009220D02*
X023003Y009220D01*
X023003Y009242D01*
X023211Y009242D01*
X023211Y009220D01*
X023211Y009023D02*
X023003Y009023D01*
X023003Y009045D01*
X023211Y009045D01*
X023211Y009023D01*
X023211Y008826D02*
X023003Y008826D01*
X023003Y008848D01*
X023211Y008848D01*
X023211Y008826D01*
X023211Y008630D02*
X023003Y008630D01*
X023003Y008652D01*
X023211Y008652D01*
X023211Y008630D01*
X023423Y008440D02*
X023423Y008232D01*
X023401Y008232D01*
X023401Y008440D01*
X023423Y008440D01*
X023423Y008318D02*
X023401Y008318D01*
X023401Y008404D02*
X023423Y008404D01*
X023620Y008440D02*
X023620Y008232D01*
X023598Y008232D01*
X023598Y008440D01*
X023620Y008440D01*
X023620Y008318D02*
X023598Y008318D01*
X023598Y008404D02*
X023620Y008404D01*
X023817Y008440D02*
X023817Y008232D01*
X023795Y008232D01*
X023795Y008440D01*
X023817Y008440D01*
X023817Y008318D02*
X023795Y008318D01*
X023795Y008404D02*
X023817Y008404D01*
X024014Y008440D02*
X024014Y008232D01*
X023992Y008232D01*
X023992Y008440D01*
X024014Y008440D01*
X024014Y008318D02*
X023992Y008318D01*
X023992Y008404D02*
X024014Y008404D01*
X024211Y008440D02*
X024211Y008232D01*
X024189Y008232D01*
X024189Y008440D01*
X024211Y008440D01*
X024211Y008318D02*
X024189Y008318D01*
X024189Y008404D02*
X024211Y008404D01*
X024408Y008440D02*
X024408Y008232D01*
X024386Y008232D01*
X024386Y008440D01*
X024408Y008440D01*
X024408Y008318D02*
X024386Y008318D01*
X024386Y008404D02*
X024408Y008404D01*
X024604Y008440D02*
X024604Y008232D01*
X024582Y008232D01*
X024582Y008440D01*
X024604Y008440D01*
X024604Y008318D02*
X024582Y008318D01*
X024582Y008404D02*
X024604Y008404D01*
X024801Y008440D02*
X024801Y008232D01*
X024779Y008232D01*
X024779Y008440D01*
X024801Y008440D01*
X024801Y008318D02*
X024779Y008318D01*
X024779Y008404D02*
X024801Y008404D01*
X024998Y008440D02*
X024998Y008232D01*
X024976Y008232D01*
X024976Y008440D01*
X024998Y008440D01*
X024998Y008318D02*
X024976Y008318D01*
X024976Y008404D02*
X024998Y008404D01*
X025195Y008440D02*
X025195Y008232D01*
X025173Y008232D01*
X025173Y008440D01*
X025195Y008440D01*
X025195Y008318D02*
X025173Y008318D01*
X025173Y008404D02*
X025195Y008404D01*
X025392Y008440D02*
X025392Y008232D01*
X025370Y008232D01*
X025370Y008440D01*
X025392Y008440D01*
X025392Y008318D02*
X025370Y008318D01*
X025370Y008404D02*
X025392Y008404D01*
X025582Y008652D02*
X025790Y008652D01*
X025790Y008630D01*
X025582Y008630D01*
X025582Y008652D01*
X025582Y008848D02*
X025790Y008848D01*
X025790Y008826D01*
X025582Y008826D01*
X025582Y008848D01*
X025582Y009045D02*
X025790Y009045D01*
X025790Y009023D01*
X025582Y009023D01*
X025582Y009045D01*
X025582Y009242D02*
X025790Y009242D01*
X025790Y009220D01*
X025582Y009220D01*
X025582Y009242D01*
X025582Y009439D02*
X025790Y009439D01*
X025790Y009417D01*
X025582Y009417D01*
X025582Y009439D01*
X025582Y009636D02*
X025790Y009636D01*
X025790Y009614D01*
X025582Y009614D01*
X025582Y009636D01*
X025582Y009833D02*
X025790Y009833D01*
X025790Y009811D01*
X025582Y009811D01*
X025582Y009833D01*
X025582Y010030D02*
X025790Y010030D01*
X025790Y010008D01*
X025582Y010008D01*
X025582Y010030D01*
X025582Y010226D02*
X025790Y010226D01*
X025790Y010204D01*
X025582Y010204D01*
X025582Y010226D01*
X025582Y010423D02*
X025790Y010423D01*
X025790Y010401D01*
X025582Y010401D01*
X025582Y010423D01*
X025582Y010620D02*
X025790Y010620D01*
X025790Y010598D01*
X025582Y010598D01*
X025582Y010620D01*
X025370Y010810D02*
X025370Y011018D01*
X025392Y011018D01*
X025392Y010810D01*
X025370Y010810D01*
X025370Y010896D02*
X025392Y010896D01*
X025392Y010982D02*
X025370Y010982D01*
X025173Y011018D02*
X025173Y010810D01*
X025173Y011018D02*
X025195Y011018D01*
X025195Y010810D01*
X025173Y010810D01*
X025173Y010896D02*
X025195Y010896D01*
X025195Y010982D02*
X025173Y010982D01*
X024976Y011018D02*
X024976Y010810D01*
X024976Y011018D02*
X024998Y011018D01*
X024998Y010810D01*
X024976Y010810D01*
X024976Y010896D02*
X024998Y010896D01*
X024998Y010982D02*
X024976Y010982D01*
X024779Y011018D02*
X024779Y010810D01*
X024779Y011018D02*
X024801Y011018D01*
X024801Y010810D01*
X024779Y010810D01*
X024779Y010896D02*
X024801Y010896D01*
X024801Y010982D02*
X024779Y010982D01*
D15*
X025252Y008770D02*
X023542Y008770D01*
X023542Y010480D01*
X025252Y010480D01*
X025252Y008770D01*
X025252Y008959D02*
X023542Y008959D01*
X023542Y009148D02*
X025252Y009148D01*
X025252Y009337D02*
X023542Y009337D01*
X023542Y009526D02*
X025252Y009526D01*
X025252Y009715D02*
X023542Y009715D01*
X023542Y009904D02*
X025252Y009904D01*
X025252Y010093D02*
X023542Y010093D01*
X023542Y010282D02*
X025252Y010282D01*
X025252Y010471D02*
X023542Y010471D01*
D16*
X022317Y010553D02*
X021909Y010553D01*
X021909Y010587D01*
X022317Y010587D01*
X022317Y010553D01*
X022317Y010238D02*
X021909Y010238D01*
X021909Y010272D01*
X022317Y010272D01*
X022317Y010238D01*
X022317Y009923D02*
X021909Y009923D01*
X021909Y009957D01*
X022317Y009957D01*
X022317Y009923D01*
X022317Y009608D02*
X021909Y009608D01*
X021909Y009642D01*
X022317Y009642D01*
X022317Y009608D01*
X022317Y009293D02*
X021909Y009293D01*
X021909Y009327D01*
X022317Y009327D01*
X022317Y009293D01*
X022317Y008978D02*
X021909Y008978D01*
X021909Y009012D01*
X022317Y009012D01*
X022317Y008978D01*
X022317Y008663D02*
X021909Y008663D01*
X021909Y008697D01*
X022317Y008697D01*
X022317Y008663D01*
X022317Y008348D02*
X021909Y008348D01*
X021909Y008382D01*
X022317Y008382D01*
X022317Y008348D01*
X022317Y008033D02*
X021909Y008033D01*
X021909Y008067D01*
X022317Y008067D01*
X022317Y008033D01*
X022805Y007137D02*
X022839Y007137D01*
X022805Y007137D02*
X022805Y007545D01*
X022839Y007545D01*
X022839Y007137D01*
X022839Y007278D02*
X022805Y007278D01*
X022805Y007419D02*
X022839Y007419D01*
X023120Y007137D02*
X023154Y007137D01*
X023120Y007137D02*
X023120Y007545D01*
X023154Y007545D01*
X023154Y007137D01*
X023154Y007278D02*
X023120Y007278D01*
X023120Y007419D02*
X023154Y007419D01*
X023435Y007137D02*
X023469Y007137D01*
X023435Y007137D02*
X023435Y007545D01*
X023469Y007545D01*
X023469Y007137D01*
X023469Y007278D02*
X023435Y007278D01*
X023435Y007419D02*
X023469Y007419D01*
X023750Y007137D02*
X023784Y007137D01*
X023750Y007137D02*
X023750Y007545D01*
X023784Y007545D01*
X023784Y007137D01*
X023784Y007278D02*
X023750Y007278D01*
X023750Y007419D02*
X023784Y007419D01*
X024065Y007137D02*
X024099Y007137D01*
X024065Y007137D02*
X024065Y007545D01*
X024099Y007545D01*
X024099Y007137D01*
X024099Y007278D02*
X024065Y007278D01*
X024065Y007419D02*
X024099Y007419D01*
X024380Y007137D02*
X024414Y007137D01*
X024380Y007137D02*
X024380Y007545D01*
X024414Y007545D01*
X024414Y007137D01*
X024414Y007278D02*
X024380Y007278D01*
X024380Y007419D02*
X024414Y007419D01*
X024694Y007137D02*
X024728Y007137D01*
X024694Y007137D02*
X024694Y007545D01*
X024728Y007545D01*
X024728Y007137D01*
X024728Y007278D02*
X024694Y007278D01*
X024694Y007419D02*
X024728Y007419D01*
X025009Y007137D02*
X025043Y007137D01*
X025009Y007137D02*
X025009Y007545D01*
X025043Y007545D01*
X025043Y007137D01*
X025043Y007278D02*
X025009Y007278D01*
X025009Y007419D02*
X025043Y007419D01*
X025324Y007137D02*
X025358Y007137D01*
X025324Y007137D02*
X025324Y007545D01*
X025358Y007545D01*
X025358Y007137D01*
X025358Y007278D02*
X025324Y007278D01*
X025324Y007419D02*
X025358Y007419D01*
X025639Y007137D02*
X025673Y007137D01*
X025639Y007137D02*
X025639Y007545D01*
X025673Y007545D01*
X025673Y007137D01*
X025673Y007278D02*
X025639Y007278D01*
X025639Y007419D02*
X025673Y007419D01*
X025954Y007137D02*
X025988Y007137D01*
X025954Y007137D02*
X025954Y007545D01*
X025988Y007545D01*
X025988Y007137D01*
X025988Y007278D02*
X025954Y007278D01*
X025954Y007419D02*
X025988Y007419D01*
X026476Y008033D02*
X026884Y008033D01*
X026476Y008033D02*
X026476Y008067D01*
X026884Y008067D01*
X026884Y008033D01*
X026884Y008348D02*
X026476Y008348D01*
X026476Y008382D01*
X026884Y008382D01*
X026884Y008348D01*
X026884Y008663D02*
X026476Y008663D01*
X026476Y008697D01*
X026884Y008697D01*
X026884Y008663D01*
X026884Y008978D02*
X026476Y008978D01*
X026476Y009012D01*
X026884Y009012D01*
X026884Y008978D01*
X026884Y009293D02*
X026476Y009293D01*
X026476Y009327D01*
X026884Y009327D01*
X026884Y009293D01*
X026884Y009608D02*
X026476Y009608D01*
X026476Y009642D01*
X026884Y009642D01*
X026884Y009608D01*
X026884Y009923D02*
X026476Y009923D01*
X026476Y009957D01*
X026884Y009957D01*
X026884Y009923D01*
X026884Y010238D02*
X026476Y010238D01*
X026476Y010272D01*
X026884Y010272D01*
X026884Y010238D01*
X026884Y010553D02*
X026476Y010553D01*
X026476Y010587D01*
X026884Y010587D01*
X026884Y010553D01*
X026884Y010868D02*
X026476Y010868D01*
X026476Y010902D01*
X026884Y010902D01*
X026884Y010868D01*
X026884Y011183D02*
X026476Y011183D01*
X026476Y011217D01*
X026884Y011217D01*
X026884Y011183D01*
X025988Y011704D02*
X025954Y011704D01*
X025954Y012112D01*
X025988Y012112D01*
X025988Y011704D01*
X025988Y011845D02*
X025954Y011845D01*
X025954Y011986D02*
X025988Y011986D01*
X025673Y011704D02*
X025639Y011704D01*
X025639Y012112D01*
X025673Y012112D01*
X025673Y011704D01*
X025673Y011845D02*
X025639Y011845D01*
X025639Y011986D02*
X025673Y011986D01*
X025358Y011704D02*
X025324Y011704D01*
X025324Y012112D01*
X025358Y012112D01*
X025358Y011704D01*
X025358Y011845D02*
X025324Y011845D01*
X025324Y011986D02*
X025358Y011986D01*
X025043Y011704D02*
X025009Y011704D01*
X025009Y012112D01*
X025043Y012112D01*
X025043Y011704D01*
X025043Y011845D02*
X025009Y011845D01*
X025009Y011986D02*
X025043Y011986D01*
X024728Y011704D02*
X024694Y011704D01*
X024694Y012112D01*
X024728Y012112D01*
X024728Y011704D01*
X024728Y011845D02*
X024694Y011845D01*
X024694Y011986D02*
X024728Y011986D01*
X024414Y011704D02*
X024380Y011704D01*
X024380Y012112D01*
X024414Y012112D01*
X024414Y011704D01*
X024414Y011845D02*
X024380Y011845D01*
X024380Y011986D02*
X024414Y011986D01*
X024099Y011704D02*
X024065Y011704D01*
X024065Y012112D01*
X024099Y012112D01*
X024099Y011704D01*
X024099Y011845D02*
X024065Y011845D01*
X024065Y011986D02*
X024099Y011986D01*
X023784Y011704D02*
X023750Y011704D01*
X023750Y012112D01*
X023784Y012112D01*
X023784Y011704D01*
X023784Y011845D02*
X023750Y011845D01*
X023750Y011986D02*
X023784Y011986D01*
X023469Y011704D02*
X023435Y011704D01*
X023435Y012112D01*
X023469Y012112D01*
X023469Y011704D01*
X023469Y011845D02*
X023435Y011845D01*
X023435Y011986D02*
X023469Y011986D01*
X023154Y011704D02*
X023120Y011704D01*
X023120Y012112D01*
X023154Y012112D01*
X023154Y011704D01*
X023154Y011845D02*
X023120Y011845D01*
X023120Y011986D02*
X023154Y011986D01*
X022839Y011704D02*
X022805Y011704D01*
X022805Y012112D01*
X022839Y012112D01*
X022839Y011704D01*
X022839Y011845D02*
X022805Y011845D01*
X022805Y011986D02*
X022839Y011986D01*
X022317Y011183D02*
X021909Y011183D01*
X021909Y011217D01*
X022317Y011217D01*
X022317Y011183D01*
X022317Y010868D02*
X021909Y010868D01*
X021909Y010902D01*
X022317Y010902D01*
X022317Y010868D01*
D17*
X024397Y009625D03*
D18*
X025114Y018178D03*
X025586Y018178D03*
X026059Y018178D03*
X026531Y018178D03*
X027004Y018178D03*
X027476Y018178D03*
X027949Y018178D03*
X028421Y018178D03*
X028894Y018178D03*
X029366Y018178D03*
X029838Y018178D03*
X030311Y018178D03*
X030783Y018178D03*
X030783Y023690D03*
X030311Y023690D03*
X029838Y023690D03*
X029366Y023690D03*
X028894Y023690D03*
X028421Y023690D03*
X027949Y023690D03*
X027476Y023690D03*
X027004Y023690D03*
X026531Y023690D03*
X026059Y023690D03*
X025586Y023690D03*
X025114Y023690D03*
D19*
X023894Y022076D03*
X023894Y021603D03*
X023894Y021131D03*
X023894Y020658D03*
X023894Y020186D03*
X023894Y019713D03*
D20*
X021702Y025219D03*
X020914Y025219D03*
X020127Y025219D03*
X019339Y025219D03*
D21*
X001452Y019053D03*
X001452Y018295D03*
D22*
X001599Y017601D03*
X001599Y019747D03*
D23*
X002219Y019850D03*
X002219Y017498D03*
D24*
X002743Y017532D03*
X002743Y019815D03*
D25*
X002662Y019186D03*
X002662Y018930D03*
X002662Y018674D03*
X002662Y018418D03*
X002662Y018162D03*
D26*
X022296Y004117D03*
X026096Y004117D03*
D27*
X009963Y008251D03*
X009963Y008448D03*
X009963Y008645D03*
X009963Y008841D03*
X009963Y009038D03*
X008900Y009038D03*
X008900Y008841D03*
X008900Y008645D03*
X008900Y008448D03*
X008900Y008251D03*
D28*
X009432Y008645D03*
D29*
X008841Y007621D03*
X008841Y006912D03*
X008841Y003487D03*
X008841Y002778D03*
X008054Y002778D03*
X008054Y003487D03*
X004117Y019511D03*
X004117Y020219D03*
X009155Y020316D03*
X009155Y019607D03*
X013172Y020101D03*
X013172Y020810D03*
D30*
X013231Y019471D03*
X013900Y019471D03*
X018546Y023015D03*
X019215Y023015D03*
X020515Y016519D03*
X021184Y016519D03*
X023467Y012975D03*
X024137Y012975D03*
X020790Y009629D03*
X020121Y009629D03*
X023861Y006558D03*
X024530Y006558D03*
X024649Y005692D03*
X025318Y005692D03*
X023743Y005692D03*
X023074Y005692D03*
X031932Y004904D03*
X032601Y004904D03*
X013704Y008015D03*
X013034Y008015D03*
X013034Y008841D03*
X013704Y008841D03*
X011341Y011204D03*
X010672Y011204D03*
X012050Y012385D03*
X012719Y012385D03*
X007798Y007070D03*
X007129Y007070D03*
X008900Y005298D03*
X009570Y005298D03*
D31*
X007857Y008015D03*
X007857Y009274D03*
D32*
X009629Y004058D03*
X009826Y004058D03*
X010023Y004058D03*
X010219Y004058D03*
X010416Y004058D03*
X010416Y002995D03*
X010219Y002995D03*
X010023Y002995D03*
X009826Y002995D03*
X009629Y002995D03*
D33*
X010023Y003526D03*
D34*
X010849Y002936D03*
X011558Y002936D03*
X009589Y009629D03*
X009589Y010219D03*
X008881Y010219D03*
X008881Y009629D03*
D35*
X009393Y001952D03*
X010652Y001952D03*
D36*
X009826Y012503D03*
X009038Y012503D03*
D37*
X008093Y014550D03*
X010771Y014550D03*
D38*
X011361Y021243D03*
X009904Y021243D03*
D39*
X013369Y011637D03*
X013743Y010771D03*
X012995Y010771D03*
X013782Y005731D03*
X014530Y005731D03*
X014156Y004865D03*
D40*
X028830Y003211D03*
X029814Y003211D03*
X030798Y003211D03*
X031782Y003211D03*
X015513Y022477D03*
X014528Y022477D03*
X014528Y023462D03*
X014528Y024446D03*
X015513Y024446D03*
X015513Y023462D03*
D41*
X026021Y028449D03*
X027021Y028449D03*
X003771Y022824D03*
X003771Y021824D03*
D42*
X006440Y022011D03*
X006440Y021263D03*
X007306Y021637D03*
D43*
X001896Y008649D03*
X001896Y007861D03*
X001896Y007074D03*
X001896Y006286D03*
X001896Y005499D03*
D44*
X022469Y015484D03*
X022469Y016232D03*
X023493Y016232D03*
X023493Y015858D03*
X023493Y015484D03*
X023560Y017986D03*
X023560Y018734D03*
X022536Y018734D03*
X022536Y018360D03*
X022536Y017986D03*
D45*
X019619Y004255D03*
X017749Y004255D03*
X017749Y002798D03*
X019619Y002798D03*
D46*
X012355Y019570D03*
X012355Y019767D03*
X012355Y019963D03*
X012355Y020160D03*
X011233Y020160D03*
X011233Y019963D03*
X011233Y019767D03*
X011233Y019570D03*
D47*
X011794Y019668D03*
D48*
X007070Y016361D03*
X007070Y015495D03*
D49*
X003763Y008645D03*
X002897Y008645D03*
X029471Y008448D03*
X030337Y008448D03*
D50*
X007454Y019284D03*
X007454Y019540D03*
X007454Y019796D03*
X007454Y020052D03*
X005899Y020052D03*
X005899Y019796D03*
X005899Y019540D03*
X005899Y019284D03*
D51*
X015251Y019078D03*
X017786Y019078D03*
D52*
X013233Y022227D03*
X011930Y022227D03*
D53*
X013133Y002739D03*
X013999Y002739D03*
D54*
X013723Y003507D03*
X013408Y003507D03*
D55*
X013074Y004865D02*
X012975Y004963D01*
X010723Y003889D02*
X010723Y003330D01*
X010627Y003330D01*
X010588Y003291D01*
X010531Y003349D01*
X010105Y003349D01*
X010023Y003267D01*
X009940Y003349D01*
X009514Y003349D01*
X009422Y003257D01*
X009422Y003101D01*
X007967Y003101D01*
X007967Y004232D01*
X007975Y004251D01*
X007975Y004282D01*
X009422Y004282D01*
X009422Y003796D01*
X009514Y003704D01*
X009743Y003704D01*
X009826Y003786D01*
X009908Y003704D01*
X010531Y003704D01*
X010623Y003796D01*
X010623Y003889D01*
X010723Y003889D01*
X010723Y003818D02*
X010623Y003818D01*
X010568Y003741D02*
X010723Y003741D01*
X010723Y003663D02*
X007967Y003663D01*
X007967Y003586D02*
X010723Y003586D01*
X010723Y003509D02*
X007967Y003509D01*
X007967Y003432D02*
X010723Y003432D01*
X010723Y003354D02*
X007967Y003354D01*
X007967Y003277D02*
X009442Y003277D01*
X009422Y003200D02*
X007967Y003200D01*
X007967Y003123D02*
X009422Y003123D01*
X009609Y002904D02*
X009609Y002503D01*
X009091Y002503D01*
X008999Y002411D01*
X008999Y002314D01*
X007574Y002314D01*
X007574Y003101D01*
X007771Y003101D01*
X007771Y003020D01*
X007886Y002904D01*
X009609Y002904D01*
X009609Y002891D02*
X007574Y002891D01*
X007574Y002968D02*
X007822Y002968D01*
X007771Y003045D02*
X007574Y003045D01*
X007574Y002814D02*
X009609Y002814D01*
X009609Y002736D02*
X007574Y002736D01*
X007574Y002659D02*
X009609Y002659D01*
X009609Y002582D02*
X007574Y002582D01*
X007574Y002505D02*
X009609Y002505D01*
X009016Y002427D02*
X007574Y002427D01*
X007574Y002350D02*
X008999Y002350D01*
X010023Y002995D02*
X010023Y003526D01*
X009826Y003723D01*
X009826Y004058D01*
X009629Y004058D02*
X009629Y004708D01*
X009422Y004281D02*
X007975Y004281D01*
X007967Y004204D02*
X009422Y004204D01*
X009422Y004127D02*
X007967Y004127D01*
X007967Y004050D02*
X009422Y004050D01*
X009422Y003972D02*
X007967Y003972D01*
X007967Y003895D02*
X009422Y003895D01*
X009422Y003818D02*
X007967Y003818D01*
X007967Y003741D02*
X009477Y003741D01*
X009780Y003741D02*
X009871Y003741D01*
X010012Y003277D02*
X010033Y003277D01*
X010023Y005101D02*
X009926Y005101D01*
X009926Y005259D01*
X009609Y005259D01*
X009609Y005337D01*
X009926Y005337D01*
X009926Y005513D01*
X009916Y005549D01*
X009898Y005581D01*
X009872Y005606D01*
X009840Y005625D01*
X009805Y005634D01*
X009609Y005634D01*
X009609Y005337D01*
X009530Y005337D01*
X009530Y005634D01*
X009432Y005634D01*
X009432Y005692D01*
X010023Y005692D01*
X010023Y005101D01*
X010023Y005131D02*
X009926Y005131D01*
X009926Y005208D02*
X010023Y005208D01*
X010023Y005285D02*
X009609Y005285D01*
X009609Y005363D02*
X009530Y005363D01*
X009530Y005440D02*
X009609Y005440D01*
X009609Y005517D02*
X009530Y005517D01*
X009530Y005594D02*
X009609Y005594D01*
X009432Y005672D02*
X010023Y005672D01*
X010023Y005594D02*
X009884Y005594D01*
X009925Y005517D02*
X010023Y005517D01*
X010023Y005440D02*
X009926Y005440D01*
X009926Y005363D02*
X010023Y005363D01*
X008841Y007621D02*
X008881Y007660D01*
X008900Y008645D02*
X009432Y008645D01*
X009629Y008841D01*
X009963Y008841D01*
X008900Y009038D02*
X008881Y009058D01*
X008881Y009629D01*
X012385Y008841D02*
X013034Y008841D01*
X018160Y007952D02*
X018188Y007952D01*
X018290Y008054D01*
X020790Y009629D02*
X020794Y009625D01*
X022113Y009625D01*
X023107Y009625D01*
X023107Y009822D02*
X022507Y009822D01*
X022385Y009944D01*
X022117Y009944D01*
X022113Y009940D01*
X022113Y010255D02*
X022117Y010259D01*
X022385Y010259D01*
X022625Y010019D01*
X023107Y010019D01*
X023107Y010215D02*
X022743Y010215D01*
X022385Y010574D01*
X022117Y010574D01*
X022113Y010570D01*
X022113Y010885D02*
X022117Y010889D01*
X022385Y010889D01*
X022861Y010412D01*
X023107Y010412D01*
X023107Y010609D02*
X023097Y010609D01*
X022503Y011204D01*
X022117Y011204D01*
X022113Y011200D01*
X022818Y011519D02*
X022818Y011904D01*
X022822Y011908D01*
X023133Y011904D02*
X023137Y011908D01*
X023133Y011904D02*
X023133Y011637D01*
X023609Y011160D01*
X023609Y010914D01*
X023609Y010412D01*
X024397Y009625D01*
X025184Y010412D01*
X025184Y010914D01*
X025184Y011168D01*
X025652Y011637D01*
X025652Y011841D01*
X025656Y011845D01*
X025656Y011908D01*
X025652Y011904D02*
X025652Y011841D01*
X025341Y011908D02*
X025337Y011904D01*
X025337Y011637D01*
X024987Y011286D01*
X024987Y010914D01*
X024790Y010914D02*
X024790Y011404D01*
X025023Y011637D01*
X025023Y011904D01*
X025026Y011908D01*
X024711Y011908D02*
X024708Y011904D01*
X024708Y011637D01*
X024593Y011523D01*
X024593Y010914D01*
X024397Y010914D02*
X024397Y011908D01*
X024082Y011908D02*
X024078Y011904D01*
X024078Y011637D01*
X024200Y011515D01*
X024200Y010914D01*
X024003Y010914D02*
X024003Y011397D01*
X023763Y011637D01*
X023763Y011904D01*
X023767Y011908D01*
X023452Y011908D02*
X023448Y011904D01*
X023448Y011637D01*
X023806Y011278D01*
X023806Y010914D01*
X023412Y010914D02*
X023412Y010924D01*
X022818Y011519D01*
X024397Y009625D02*
X024003Y009231D01*
X024003Y008336D01*
X024003Y007861D01*
X023763Y007621D01*
X023763Y007377D01*
X023767Y007373D01*
X023767Y007341D01*
X023763Y007345D02*
X023763Y007377D01*
X023452Y007341D02*
X023448Y007345D01*
X023448Y007621D01*
X023806Y007979D01*
X023806Y008336D01*
X023609Y008336D02*
X023609Y008097D01*
X023133Y007621D01*
X022818Y007621D02*
X023412Y008215D01*
X023412Y008336D01*
X023107Y008641D02*
X023089Y008641D01*
X022503Y008054D01*
X022385Y008369D02*
X022853Y008837D01*
X023107Y008837D01*
X023107Y009034D02*
X022735Y009034D01*
X022385Y008684D01*
X022385Y008999D02*
X022117Y008999D01*
X022113Y008995D01*
X022385Y008999D02*
X022617Y009231D01*
X023107Y009231D01*
X023107Y009428D02*
X022499Y009428D01*
X022385Y009314D01*
X022117Y009314D01*
X022113Y009310D01*
X024200Y008336D02*
X024200Y007743D01*
X024078Y007621D01*
X024078Y007345D01*
X024082Y007341D01*
X024397Y007341D02*
X024397Y008336D01*
X024593Y008336D02*
X024593Y007735D01*
X024708Y007621D01*
X024708Y007345D01*
X024711Y007341D01*
X025023Y007345D02*
X025023Y007621D01*
X024790Y007853D01*
X024790Y008336D01*
X024987Y008336D02*
X024987Y007971D01*
X025337Y007621D01*
X025337Y007345D01*
X025341Y007341D01*
X025652Y007345D02*
X025656Y007341D01*
X025652Y007345D02*
X025652Y007621D01*
X025184Y008089D01*
X025184Y008336D01*
X025381Y008336D02*
X025381Y008326D01*
X025967Y007739D01*
X025967Y007345D01*
X025971Y007341D01*
X026282Y008054D02*
X026676Y008054D01*
X026680Y008050D01*
X026680Y008365D02*
X026676Y008369D01*
X026400Y008369D01*
X025932Y008837D01*
X025686Y008837D01*
X025686Y008641D02*
X025696Y008641D01*
X026282Y008054D01*
X026400Y008684D02*
X026676Y008684D01*
X026680Y008680D01*
X026400Y008684D02*
X026050Y009034D01*
X025686Y009034D01*
X025686Y009231D02*
X026168Y009231D01*
X026400Y008999D01*
X026676Y008999D01*
X026680Y008995D01*
X026680Y009310D02*
X026676Y009314D01*
X026400Y009314D01*
X026286Y009428D01*
X025686Y009428D01*
X025686Y009625D02*
X026680Y009625D01*
X026680Y009940D02*
X026676Y009944D01*
X026400Y009944D01*
X026278Y009822D01*
X025686Y009822D01*
X025686Y010019D02*
X026160Y010019D01*
X026400Y010259D01*
X026676Y010259D01*
X026680Y010255D01*
X026680Y010570D02*
X026676Y010574D01*
X026400Y010574D01*
X026042Y010215D01*
X025686Y010215D01*
X025686Y010412D02*
X025924Y010412D01*
X026400Y010889D01*
X026676Y010889D01*
X026680Y010885D01*
X026680Y011200D02*
X026676Y011204D01*
X026282Y011204D01*
X025688Y010609D01*
X025686Y010609D01*
X025381Y010914D02*
X025381Y010932D01*
X025023Y007345D02*
X025026Y007341D01*
X025180Y004117D02*
X026096Y004117D01*
X023211Y004117D02*
X022296Y004117D01*
X024871Y018178D02*
X025114Y018178D01*
X022536Y018360D02*
X022525Y018360D01*
X022456Y018290D01*
X021046Y018290D01*
X012463Y019282D02*
X012355Y019391D01*
X012355Y019570D01*
X011233Y019570D02*
X011233Y019328D01*
X011188Y019282D01*
X002219Y019850D02*
X002116Y019747D01*
X001599Y019747D01*
X001452Y019599D01*
X001452Y019053D01*
X001452Y018295D02*
X001452Y017749D01*
X001599Y017601D01*
X002116Y017601D01*
X002219Y017498D01*
X024589Y028467D02*
X024608Y028449D01*
X026021Y028449D01*
D56*
X024589Y022818D02*
X025180Y022227D01*
X028723Y022227D01*
X025586Y018178D02*
X025586Y016335D01*
X025110Y015858D01*
X023493Y015858D01*
X022469Y015484D02*
X022419Y015534D01*
X021637Y015534D01*
X021243Y015928D01*
X021243Y016519D01*
X021184Y016519D01*
X022424Y016519D02*
X022424Y016277D01*
X022469Y016232D01*
X022424Y016519D02*
X022621Y016715D01*
X024983Y016715D01*
X026164Y016715D02*
X028133Y016715D01*
X029314Y014747D02*
X025180Y014747D01*
X024983Y014944D01*
X017306Y014944D01*
X016322Y014550D02*
X024983Y014550D01*
X025026Y014507D01*
X025026Y011908D01*
X024786Y011983D02*
X024786Y014156D01*
X015534Y014156D01*
X013763Y013369D02*
X019078Y013369D01*
X019865Y012582D01*
X019865Y011991D01*
X020259Y011597D01*
X021597Y010259D01*
X022117Y010259D01*
X022117Y010574D02*
X021676Y010574D01*
X020849Y011400D01*
X020849Y010613D02*
X020121Y009885D01*
X020121Y009629D01*
X019471Y009038D02*
X021046Y009038D01*
X021322Y009314D01*
X022117Y009314D01*
X022117Y009944D02*
X021519Y009944D01*
X020849Y010613D01*
X020062Y011400D01*
X019412Y011400D01*
X019274Y011538D01*
X019274Y012188D01*
X018487Y012975D01*
X012975Y012975D01*
X013369Y015278D02*
X013310Y015337D01*
X012582Y015337D01*
X011991Y015337D01*
X011794Y015534D01*
X011794Y015928D01*
X011204Y016519D01*
X009038Y016519D01*
X008251Y017306D01*
X008841Y017503D02*
X009235Y017109D01*
X012385Y017109D01*
X012582Y016912D01*
X013310Y016912D01*
X013369Y016853D01*
X013369Y016184D02*
X013369Y016125D01*
X014215Y016125D01*
X012582Y018881D02*
X011007Y018881D01*
X011007Y019082D01*
X011044Y019118D01*
X011086Y019220D01*
X011086Y019511D01*
X011541Y019511D01*
X011656Y019626D01*
X011656Y020652D01*
X012582Y020652D01*
X012582Y020416D01*
X012047Y020416D01*
X011932Y020301D01*
X011932Y019626D01*
X012047Y019511D01*
X012582Y019511D01*
X012582Y018881D01*
X012582Y018979D02*
X011007Y018979D01*
X011051Y019135D02*
X012582Y019135D01*
X012582Y019291D02*
X011086Y019291D01*
X011086Y019447D02*
X012582Y019447D01*
X011955Y019603D02*
X011634Y019603D01*
X011656Y019759D02*
X011932Y019759D01*
X011932Y019915D02*
X011656Y019915D01*
X011656Y020071D02*
X011932Y020071D01*
X011932Y020227D02*
X011656Y020227D01*
X011656Y020383D02*
X012014Y020383D01*
X011656Y020539D02*
X012582Y020539D01*
X010908Y019767D02*
X010810Y019668D01*
X010810Y019274D01*
X010416Y018881D01*
X008251Y018743D02*
X007995Y018743D01*
X007454Y019284D01*
X006991Y019291D02*
X006282Y019291D01*
X006246Y019255D02*
X006361Y019370D01*
X006361Y019966D01*
X006246Y020082D01*
X006231Y020082D01*
X006230Y020082D01*
X006136Y020121D01*
X003723Y020121D01*
X003723Y020967D01*
X005156Y020967D01*
X005257Y021009D01*
X005294Y021046D01*
X005967Y021046D01*
X005967Y020984D01*
X006083Y020869D01*
X006408Y020869D01*
X006606Y020671D01*
X006695Y020582D01*
X006810Y020534D01*
X007070Y020534D01*
X007070Y020301D01*
X006991Y020222D01*
X006991Y019114D01*
X007011Y019095D01*
X007011Y019078D01*
X006475Y019078D01*
X006390Y019163D01*
X006288Y019205D01*
X005692Y019205D01*
X005692Y019215D01*
X006136Y019215D01*
X006230Y019254D01*
X006231Y019255D01*
X006246Y019255D01*
X006418Y019135D02*
X006991Y019135D01*
X006991Y019447D02*
X006361Y019447D01*
X006361Y019603D02*
X006991Y019603D01*
X006991Y019759D02*
X006361Y019759D01*
X006361Y019915D02*
X006991Y019915D01*
X006991Y020071D02*
X006256Y020071D01*
X006798Y020539D02*
X003723Y020539D01*
X003723Y020383D02*
X007070Y020383D01*
X006996Y020227D02*
X003723Y020227D01*
X003723Y020695D02*
X006582Y020695D01*
X006426Y020851D02*
X003723Y020851D01*
X003133Y021243D02*
X002936Y021440D01*
X002936Y022621D01*
X003139Y022824D01*
X003771Y022824D01*
X003133Y021243D02*
X005101Y021243D01*
X005889Y022030D01*
X006420Y022030D01*
X006440Y022011D01*
X006440Y022621D01*
X009235Y022621D01*
X006676Y023074D02*
X006597Y023074D01*
X006440Y022916D01*
X006440Y022621D01*
X005967Y021007D02*
X005252Y021007D01*
X004117Y019511D02*
X003792Y019186D01*
X002662Y019186D01*
X002662Y018930D02*
X006234Y018930D01*
X006479Y018684D01*
X006086Y018290D02*
X005702Y018674D01*
X002662Y018674D01*
X003204Y018398D02*
X005588Y018398D01*
X005929Y018057D01*
X005977Y018037D01*
X006262Y017752D01*
X006262Y017752D01*
X006334Y017680D01*
X006428Y017641D01*
X007554Y017641D01*
X007660Y017535D01*
X007660Y016125D01*
X007445Y016125D01*
X007445Y016341D01*
X007089Y016341D01*
X007089Y016381D01*
X007050Y016381D01*
X007050Y016776D01*
X006849Y016776D01*
X006804Y016764D01*
X006763Y016740D01*
X006730Y016707D01*
X006706Y016666D01*
X006694Y016621D01*
X006694Y016381D01*
X007050Y016381D01*
X007050Y016341D01*
X006694Y016341D01*
X006694Y016125D01*
X006463Y016125D01*
X006490Y016322D01*
X006417Y016856D01*
X006202Y017350D01*
X005862Y017768D01*
X005862Y017768D01*
X005421Y018079D01*
X004913Y018260D01*
X004376Y018296D01*
X004376Y018296D01*
X003848Y018187D01*
X003848Y018187D01*
X003369Y017939D01*
X003227Y017806D01*
X003227Y018007D01*
X003183Y018051D01*
X003186Y018060D01*
X003186Y018162D01*
X003186Y018239D01*
X003204Y018258D01*
X003204Y018398D01*
X003204Y018355D02*
X005631Y018355D01*
X005786Y018200D02*
X005083Y018200D01*
X004913Y018260D02*
X004913Y018260D01*
X005421Y018079D02*
X005421Y018079D01*
X005472Y018044D02*
X005961Y018044D01*
X006126Y017888D02*
X005693Y017888D01*
X005862Y017768D02*
X005862Y017768D01*
X005892Y017732D02*
X006282Y017732D01*
X006018Y017576D02*
X007619Y017576D01*
X007660Y017420D02*
X006145Y017420D01*
X006202Y017350D02*
X006202Y017350D01*
X006239Y017264D02*
X007660Y017264D01*
X007660Y017108D02*
X006307Y017108D01*
X006375Y016952D02*
X007660Y016952D01*
X007660Y016796D02*
X006425Y016796D01*
X006417Y016856D02*
X006417Y016856D01*
X006446Y016640D02*
X006699Y016640D01*
X006694Y016484D02*
X006468Y016484D01*
X006489Y016328D02*
X006694Y016328D01*
X006694Y016172D02*
X006469Y016172D01*
X007089Y016381D02*
X007089Y016776D01*
X007290Y016776D01*
X007336Y016764D01*
X007376Y016740D01*
X007410Y016707D01*
X007433Y016666D01*
X007445Y016621D01*
X007445Y016381D01*
X007089Y016381D01*
X007089Y016484D02*
X007050Y016484D01*
X007050Y016640D02*
X007089Y016640D01*
X007440Y016640D02*
X007660Y016640D01*
X007660Y016484D02*
X007445Y016484D01*
X007445Y016328D02*
X007660Y016328D01*
X007660Y016172D02*
X007445Y016172D01*
X003909Y018200D02*
X003186Y018200D01*
X003186Y018162D02*
X003108Y018162D01*
X003108Y018162D01*
X003186Y018162D01*
X003191Y018044D02*
X003571Y018044D01*
X003369Y017939D02*
X003369Y017939D01*
X003314Y017888D02*
X003227Y017888D01*
X006784Y011204D02*
X007463Y011204D01*
X007463Y010613D01*
X007660Y010416D01*
X009038Y010416D01*
X009038Y009087D01*
X008975Y009087D01*
X008951Y009097D01*
X008645Y009097D01*
X008645Y009629D01*
X008411Y009629D01*
X008332Y009708D01*
X007382Y009708D01*
X007303Y009629D01*
X006784Y009629D01*
X006784Y009784D01*
X006702Y009983D01*
X006676Y010009D01*
X006676Y010072D01*
X006702Y010098D01*
X006784Y010297D01*
X006784Y010512D01*
X006702Y010711D01*
X006676Y010737D01*
X006676Y010800D01*
X006702Y010826D01*
X006784Y011025D01*
X006784Y011204D01*
X006784Y011180D02*
X007463Y011180D01*
X007463Y011024D02*
X006784Y011024D01*
X006719Y010868D02*
X007463Y010868D01*
X007463Y010712D02*
X006701Y010712D01*
X006766Y010556D02*
X007520Y010556D01*
X006784Y010400D02*
X009038Y010400D01*
X009038Y010244D02*
X006763Y010244D01*
X006692Y010089D02*
X009038Y010089D01*
X009038Y009933D02*
X006723Y009933D01*
X006784Y009777D02*
X009038Y009777D01*
X009038Y009621D02*
X008645Y009621D01*
X008645Y009465D02*
X009038Y009465D01*
X009038Y009309D02*
X008645Y009309D01*
X008645Y009153D02*
X009038Y009153D01*
X009314Y009153D02*
X009570Y009153D01*
X009570Y009169D02*
X009570Y008908D01*
X009636Y008841D01*
X009570Y008775D01*
X009570Y008120D01*
X009636Y008054D01*
X009228Y008054D01*
X009294Y008120D01*
X009294Y008578D01*
X009228Y008645D01*
X009294Y008711D01*
X009294Y008936D01*
X009314Y008983D01*
X009314Y009826D01*
X010219Y009826D01*
X010219Y009400D01*
X010113Y009294D01*
X009913Y009294D01*
X009889Y009284D01*
X009685Y009284D01*
X009570Y009169D01*
X009570Y008997D02*
X009314Y008997D01*
X009294Y008841D02*
X009635Y008841D01*
X009570Y008685D02*
X009268Y008685D01*
X009294Y008529D02*
X009570Y008529D01*
X009570Y008373D02*
X009294Y008373D01*
X009294Y008217D02*
X009570Y008217D01*
X009629Y008061D02*
X009235Y008061D01*
X008900Y007680D02*
X008841Y007621D01*
X008605Y007621D01*
X008251Y007267D01*
X007995Y007267D01*
X007798Y007070D01*
X008251Y006676D02*
X007267Y006676D01*
X007129Y006814D01*
X007129Y007070D01*
X006676Y007523D01*
X006676Y007916D01*
X007857Y008015D02*
X008290Y008448D01*
X008290Y008841D02*
X007857Y009274D01*
X009314Y009309D02*
X010128Y009309D01*
X010219Y009465D02*
X009314Y009465D01*
X009314Y009621D02*
X010219Y009621D01*
X010219Y009777D02*
X009314Y009777D01*
X013763Y005751D02*
X013782Y005731D01*
X013684Y005633D01*
X014058Y004963D02*
X014156Y004865D01*
X014530Y005731D02*
X014747Y005948D01*
X014747Y007267D01*
X016715Y009235D01*
X018369Y006952D02*
X019078Y007660D01*
X020062Y007660D01*
X021046Y008645D01*
X021369Y008645D01*
X021404Y008680D01*
X022113Y008680D01*
X022117Y008684D01*
X022385Y008684D01*
X022385Y008369D02*
X022117Y008369D01*
X021361Y008369D01*
X020259Y007267D01*
X019274Y007267D01*
X018487Y006479D01*
X017633Y006479D01*
X017160Y006952D01*
X018160Y006952D02*
X018369Y006952D01*
X019274Y006873D02*
X020456Y006873D01*
X021550Y007967D01*
X022030Y007967D01*
X022113Y008050D01*
X022117Y008054D01*
X022503Y008054D01*
X022117Y008369D02*
X022113Y008365D01*
X022818Y007621D02*
X022818Y007345D01*
X022822Y007341D01*
X022550Y007070D01*
X022030Y007070D01*
X022424Y006282D02*
X021046Y006282D01*
X020849Y006086D01*
X020633Y006086D01*
X020574Y006026D01*
X020397Y006026D01*
X020062Y005692D01*
X019078Y005692D01*
X018487Y005101D01*
X017503Y005101D01*
X017160Y005444D01*
X017160Y005952D01*
X018160Y005952D02*
X018353Y005952D01*
X019274Y006873D01*
X019668Y006479D02*
X019471Y006282D01*
X019668Y006479D02*
X020652Y006479D01*
X020849Y006676D01*
X023015Y006676D01*
X023137Y006798D01*
X023137Y007341D01*
X023133Y007345D01*
X023133Y007621D01*
X023448Y007345D02*
X023448Y006715D01*
X023015Y006282D01*
X022424Y006282D01*
X022424Y006263D01*
X022385Y006223D01*
X023743Y005692D02*
X023861Y005810D01*
X023861Y006558D01*
X024082Y006778D01*
X024082Y007341D01*
X024397Y007341D02*
X024397Y006692D01*
X024530Y006558D01*
X024530Y005810D01*
X024649Y005692D01*
X024649Y004649D01*
X025180Y004117D01*
X023743Y004649D02*
X023211Y004117D01*
X023743Y004649D02*
X023743Y005692D01*
X020574Y005357D02*
X020121Y004904D01*
X019668Y004904D01*
X019668Y004304D01*
X019619Y004255D01*
X017749Y004255D01*
X020849Y002936D02*
X020849Y002149D01*
X012515Y002149D01*
X012268Y001902D01*
X012268Y001902D01*
X012190Y001824D01*
X012089Y001782D01*
X011944Y001782D01*
X011944Y001760D01*
X011893Y001709D01*
X011913Y001674D01*
X011926Y001629D01*
X011926Y001408D01*
X011570Y001408D01*
X011570Y001369D01*
X011926Y001369D01*
X011926Y001149D01*
X011913Y001103D01*
X011890Y001062D01*
X011857Y001029D01*
X011816Y001006D01*
X011770Y000993D01*
X011570Y000993D01*
X011570Y001369D01*
X011530Y001369D01*
X011174Y001369D01*
X011174Y001149D01*
X011187Y001103D01*
X011210Y001062D01*
X011243Y001029D01*
X011284Y001006D01*
X011330Y000993D01*
X011530Y000993D01*
X011530Y001369D01*
X011530Y001408D01*
X011174Y001408D01*
X011174Y001629D01*
X011187Y001674D01*
X011207Y001709D01*
X011156Y001760D01*
X011156Y002149D01*
X011086Y002149D01*
X011086Y001476D01*
X010970Y001361D01*
X010335Y001361D01*
X010219Y001476D01*
X010219Y001995D01*
X010066Y002149D01*
X009979Y002149D01*
X009826Y001995D01*
X009826Y001476D01*
X009710Y001361D01*
X009075Y001361D01*
X008960Y001476D01*
X008960Y002427D01*
X008975Y002442D01*
X008841Y002442D01*
X008841Y002778D01*
X008841Y002778D01*
X008054Y002778D01*
X008054Y002442D01*
X008054Y002778D01*
X008054Y002778D01*
X007639Y002778D01*
X007639Y002597D01*
X007651Y002552D01*
X007675Y002511D01*
X007708Y002478D01*
X007749Y002454D01*
X007794Y002442D01*
X008054Y002442D01*
X008314Y002442D01*
X008359Y002454D01*
X008400Y002478D01*
X008433Y002511D01*
X008448Y002536D01*
X008462Y002511D01*
X008495Y002478D01*
X008536Y002454D01*
X008582Y002442D01*
X008841Y002442D01*
X008841Y002778D01*
X008841Y002778D01*
X008469Y002778D01*
X008054Y002778D01*
X008054Y002778D01*
X008054Y002778D01*
X007639Y002778D01*
X007639Y002959D01*
X007651Y003005D01*
X007675Y003046D01*
X007708Y003079D01*
X007731Y003092D01*
X007731Y003138D01*
X007621Y003248D01*
X007621Y003726D01*
X007731Y003836D01*
X007731Y004380D01*
X007857Y004506D01*
X007857Y004511D01*
X007463Y004511D01*
X007463Y004339D01*
X007500Y004074D01*
X007463Y003809D01*
X007463Y000807D01*
X033637Y000807D01*
X033485Y000950D01*
X033485Y000950D01*
X033205Y001410D01*
X033205Y001410D01*
X033060Y001929D01*
X033060Y002468D01*
X033205Y002987D01*
X033205Y002987D01*
X033485Y003448D01*
X033485Y003448D01*
X033645Y003597D01*
X033645Y012030D01*
X031282Y012030D01*
X031282Y004117D01*
X027936Y004117D01*
X027936Y002936D01*
X020849Y002936D01*
X020849Y002913D02*
X028367Y002913D01*
X028367Y002864D02*
X028482Y002749D01*
X029177Y002749D01*
X029292Y002864D01*
X029292Y003559D01*
X029177Y003674D01*
X028482Y003674D01*
X028367Y003559D01*
X028367Y002864D01*
X028474Y002757D02*
X020849Y002757D01*
X020849Y002601D02*
X033097Y002601D01*
X033060Y002445D02*
X020849Y002445D01*
X020849Y002289D02*
X033060Y002289D01*
X033060Y002134D02*
X012500Y002134D01*
X012344Y001978D02*
X033060Y001978D01*
X033090Y001822D02*
X012184Y001822D01*
X012034Y002058D02*
X011550Y002058D01*
X011156Y002134D02*
X011086Y002134D01*
X011086Y001978D02*
X011156Y001978D01*
X011156Y001822D02*
X011086Y001822D01*
X011086Y001666D02*
X011184Y001666D01*
X011174Y001510D02*
X011086Y001510D01*
X011174Y001354D02*
X007463Y001354D01*
X007463Y001510D02*
X008960Y001510D01*
X008960Y001666D02*
X007463Y001666D01*
X007463Y001822D02*
X008960Y001822D01*
X008960Y001978D02*
X007463Y001978D01*
X007463Y002134D02*
X008960Y002134D01*
X008960Y002289D02*
X007463Y002289D01*
X007463Y002445D02*
X007782Y002445D01*
X007639Y002601D02*
X007463Y002601D01*
X007463Y002757D02*
X007639Y002757D01*
X007639Y002913D02*
X007463Y002913D01*
X007463Y003069D02*
X007699Y003069D01*
X007644Y003225D02*
X007463Y003225D01*
X007463Y003381D02*
X007621Y003381D01*
X007621Y003537D02*
X007463Y003537D01*
X007463Y003693D02*
X007621Y003693D01*
X007731Y003849D02*
X007469Y003849D01*
X007490Y004005D02*
X007731Y004005D01*
X007731Y004161D02*
X007488Y004161D01*
X007466Y004317D02*
X007731Y004317D01*
X007824Y004473D02*
X007463Y004473D01*
X008054Y002757D02*
X008054Y002757D01*
X008054Y002601D02*
X008054Y002601D01*
X008054Y002445D02*
X008054Y002445D01*
X008326Y002445D02*
X008569Y002445D01*
X008841Y002445D02*
X008841Y002445D01*
X008841Y002601D02*
X008841Y002601D01*
X008841Y002757D02*
X008841Y002757D01*
X009393Y001952D02*
X009826Y002385D01*
X009964Y002134D02*
X010081Y002134D01*
X010219Y001978D02*
X009826Y001978D01*
X009826Y001822D02*
X010219Y001822D01*
X010219Y001666D02*
X009826Y001666D01*
X009826Y001510D02*
X010219Y001510D01*
X010652Y001952D02*
X010219Y002385D01*
X011530Y001354D02*
X011570Y001354D01*
X011570Y001198D02*
X011530Y001198D01*
X011530Y001042D02*
X011570Y001042D01*
X011869Y001042D02*
X033429Y001042D01*
X033485Y000950D02*
X033485Y000950D01*
X033554Y000886D02*
X007463Y000886D01*
X007463Y001042D02*
X011231Y001042D01*
X011174Y001198D02*
X007463Y001198D01*
X011926Y001198D02*
X033334Y001198D01*
X033239Y001354D02*
X011926Y001354D01*
X011926Y001510D02*
X033177Y001510D01*
X033134Y001666D02*
X011916Y001666D01*
X012034Y002058D02*
X012385Y002408D01*
X012385Y004708D01*
X012385Y004904D01*
X012188Y005101D01*
X011853Y005101D01*
X011794Y005042D01*
X001899Y005495D02*
X001896Y005499D01*
X001899Y006282D02*
X001896Y006286D01*
X001899Y007070D02*
X001896Y007074D01*
X001899Y008645D02*
X001896Y008649D01*
X014291Y022227D02*
X014528Y022464D01*
X014528Y022477D01*
X015513Y022477D01*
X014528Y024446D02*
X014407Y024446D01*
X014353Y024393D01*
X022374Y015484D02*
X022469Y015484D01*
X025341Y014121D02*
X025377Y014156D01*
X030692Y014156D01*
X028133Y013172D02*
X028133Y013113D01*
X026361Y013172D02*
X025967Y012778D01*
X025967Y011904D01*
X025971Y011908D01*
X025971Y011523D01*
X025381Y010932D01*
X025341Y011908D02*
X025341Y014121D01*
X025967Y013369D02*
X025656Y013058D01*
X025656Y011908D01*
X026676Y011774D02*
X026676Y011204D01*
X026676Y010889D02*
X029393Y010889D01*
X030101Y011597D01*
X031282Y011648D02*
X033645Y011648D01*
X033645Y011492D02*
X031282Y011492D01*
X031282Y011336D02*
X033645Y011336D01*
X033645Y011180D02*
X031282Y011180D01*
X031282Y011024D02*
X033645Y011024D01*
X033645Y010868D02*
X031282Y010868D01*
X031282Y010712D02*
X033645Y010712D01*
X033645Y010556D02*
X031282Y010556D01*
X031282Y010400D02*
X033645Y010400D01*
X033645Y010244D02*
X031282Y010244D01*
X031282Y010089D02*
X033645Y010089D01*
X033645Y009933D02*
X031282Y009933D01*
X031282Y009777D02*
X033645Y009777D01*
X033645Y009621D02*
X031282Y009621D01*
X031282Y009465D02*
X033645Y009465D01*
X033645Y009309D02*
X031282Y009309D01*
X031282Y009153D02*
X033645Y009153D01*
X033645Y008997D02*
X031282Y008997D01*
X031282Y008841D02*
X033645Y008841D01*
X033645Y008685D02*
X031282Y008685D01*
X031282Y008529D02*
X033645Y008529D01*
X033645Y008373D02*
X031282Y008373D01*
X031282Y008217D02*
X033645Y008217D01*
X033645Y008061D02*
X031282Y008061D01*
X031282Y007905D02*
X033645Y007905D01*
X033645Y007749D02*
X031282Y007749D01*
X031282Y007593D02*
X033645Y007593D01*
X033645Y007437D02*
X031282Y007437D01*
X031282Y007281D02*
X033645Y007281D01*
X033645Y007125D02*
X031282Y007125D01*
X031282Y006969D02*
X033645Y006969D01*
X033645Y006813D02*
X031282Y006813D01*
X031282Y006657D02*
X033645Y006657D01*
X033645Y006501D02*
X031282Y006501D01*
X031282Y006345D02*
X033645Y006345D01*
X033645Y006189D02*
X031282Y006189D01*
X031282Y006033D02*
X033645Y006033D01*
X033645Y005877D02*
X031282Y005877D01*
X031282Y005721D02*
X033645Y005721D01*
X033645Y005565D02*
X031282Y005565D01*
X031282Y005409D02*
X033645Y005409D01*
X033645Y005253D02*
X032912Y005253D01*
X032928Y005244D02*
X032887Y005268D01*
X032841Y005280D01*
X032621Y005280D01*
X032621Y004924D01*
X032997Y004924D01*
X032997Y005125D01*
X032984Y005170D01*
X032961Y005211D01*
X032928Y005244D01*
X032997Y005097D02*
X033645Y005097D01*
X033645Y004941D02*
X032997Y004941D01*
X032997Y004885D02*
X032621Y004885D01*
X032621Y004924D01*
X032582Y004924D01*
X032582Y005280D01*
X032361Y005280D01*
X032316Y005268D01*
X032281Y005248D01*
X032230Y005298D01*
X031634Y005298D01*
X031519Y005183D01*
X031519Y004626D01*
X031634Y004511D01*
X031655Y004511D01*
X031655Y003674D01*
X031435Y003674D01*
X031320Y003559D01*
X031320Y002864D01*
X031435Y002749D01*
X032130Y002749D01*
X032245Y002864D01*
X032245Y003559D01*
X032209Y003595D01*
X032209Y004511D01*
X032230Y004511D01*
X032281Y004561D01*
X032316Y004541D01*
X032361Y004529D01*
X032582Y004529D01*
X032582Y004885D01*
X032621Y004885D01*
X032621Y004529D01*
X032841Y004529D01*
X032887Y004541D01*
X032928Y004565D01*
X032961Y004598D01*
X032984Y004639D01*
X032997Y004684D01*
X032997Y004885D01*
X032997Y004785D02*
X033645Y004785D01*
X033645Y004629D02*
X032979Y004629D01*
X032621Y004629D02*
X032582Y004629D01*
X032582Y004785D02*
X032621Y004785D01*
X032621Y004941D02*
X032582Y004941D01*
X032582Y005097D02*
X032621Y005097D01*
X032621Y005253D02*
X032582Y005253D01*
X032290Y005253D02*
X032275Y005253D01*
X031589Y005253D02*
X031282Y005253D01*
X031282Y005097D02*
X031519Y005097D01*
X031519Y004941D02*
X031282Y004941D01*
X031282Y004785D02*
X031519Y004785D01*
X031519Y004629D02*
X031282Y004629D01*
X031282Y004473D02*
X031655Y004473D01*
X031655Y004317D02*
X031282Y004317D01*
X031282Y004161D02*
X031655Y004161D01*
X031655Y004005D02*
X027936Y004005D01*
X027936Y003849D02*
X031655Y003849D01*
X031655Y003693D02*
X027936Y003693D01*
X027936Y003537D02*
X028367Y003537D01*
X028367Y003381D02*
X027936Y003381D01*
X027936Y003225D02*
X028367Y003225D01*
X028367Y003069D02*
X027936Y003069D01*
X029185Y002757D02*
X030442Y002757D01*
X030451Y002749D02*
X031145Y002749D01*
X031261Y002864D01*
X031261Y003559D01*
X031145Y003674D01*
X030451Y003674D01*
X030336Y003559D01*
X030336Y002864D01*
X030451Y002749D01*
X030336Y002913D02*
X030256Y002913D01*
X030258Y002922D02*
X030258Y003202D01*
X029824Y003202D01*
X029824Y003221D01*
X030258Y003221D01*
X030258Y003501D01*
X030246Y003546D01*
X030223Y003587D01*
X030189Y003620D01*
X030149Y003644D01*
X030103Y003656D01*
X029824Y003656D01*
X029824Y003221D01*
X029804Y003221D01*
X029804Y003202D01*
X029369Y003202D01*
X029369Y002922D01*
X029382Y002877D01*
X029405Y002836D01*
X029438Y002803D01*
X029479Y002779D01*
X029525Y002767D01*
X029804Y002767D01*
X029804Y003202D01*
X029824Y003202D01*
X029824Y002767D01*
X030103Y002767D01*
X030149Y002779D01*
X030189Y002803D01*
X030223Y002836D01*
X030246Y002877D01*
X030258Y002922D01*
X030258Y003069D02*
X030336Y003069D01*
X030336Y003225D02*
X030258Y003225D01*
X030258Y003381D02*
X030336Y003381D01*
X030336Y003537D02*
X030249Y003537D01*
X029824Y003537D02*
X029804Y003537D01*
X029804Y003656D02*
X029525Y003656D01*
X029479Y003644D01*
X029438Y003620D01*
X029405Y003587D01*
X029382Y003546D01*
X029369Y003501D01*
X029369Y003221D01*
X029804Y003221D01*
X029804Y003656D01*
X029804Y003381D02*
X029824Y003381D01*
X029824Y003225D02*
X029804Y003225D01*
X029804Y003069D02*
X029824Y003069D01*
X029824Y002913D02*
X029804Y002913D01*
X029372Y002913D02*
X029292Y002913D01*
X029292Y003069D02*
X029369Y003069D01*
X029369Y003225D02*
X029292Y003225D01*
X029292Y003381D02*
X029369Y003381D01*
X029379Y003537D02*
X029292Y003537D01*
X031261Y003537D02*
X031320Y003537D01*
X031320Y003381D02*
X031261Y003381D01*
X031261Y003225D02*
X031320Y003225D01*
X031320Y003069D02*
X031261Y003069D01*
X031261Y002913D02*
X031320Y002913D01*
X031427Y002757D02*
X031154Y002757D01*
X032138Y002757D02*
X033141Y002757D01*
X033184Y002913D02*
X032245Y002913D01*
X032245Y003069D02*
X033255Y003069D01*
X033350Y003225D02*
X032245Y003225D01*
X032245Y003381D02*
X033445Y003381D01*
X033581Y003537D02*
X032245Y003537D01*
X032209Y003693D02*
X033645Y003693D01*
X033645Y003849D02*
X032209Y003849D01*
X032209Y004005D02*
X033645Y004005D01*
X033645Y004161D02*
X032209Y004161D01*
X032209Y004317D02*
X033645Y004317D01*
X033645Y004473D02*
X032209Y004473D01*
X027542Y007857D02*
X027542Y008369D01*
X028507Y008369D01*
X028526Y008389D01*
X029412Y008389D01*
X029471Y008448D01*
X030337Y008448D02*
X031479Y008448D01*
X029314Y010219D02*
X028963Y010570D01*
X026680Y010570D01*
X026680Y010255D02*
X027971Y010255D01*
X028097Y010255D01*
X028133Y010219D01*
X028723Y009629D02*
X027542Y009629D01*
X027231Y009940D01*
X026680Y009940D01*
X026676Y008369D02*
X027542Y008369D01*
X026676Y011774D02*
X026755Y011853D01*
X023452Y011908D02*
X023452Y012932D01*
X023408Y012975D01*
X023408Y012916D01*
X023467Y012975D01*
X022818Y012778D02*
X022818Y011912D01*
X022822Y011908D01*
X022818Y012778D02*
X022621Y012975D01*
X021715Y012444D02*
X021715Y011873D01*
X021637Y011794D01*
X021637Y011007D01*
X021755Y010889D01*
X022117Y010889D01*
X031282Y011804D02*
X033645Y011804D01*
X033645Y011960D02*
X031282Y011960D01*
D57*
X030101Y011597D03*
X029314Y010219D03*
X028723Y009629D03*
X028133Y010219D03*
X027542Y011400D03*
X025771Y013566D03*
X024141Y013526D03*
X022621Y012975D03*
X021637Y011794D03*
X020456Y012975D03*
X018290Y011794D03*
X016715Y012385D03*
X015534Y014156D03*
X016125Y014747D03*
X017306Y014944D03*
X017897Y016519D03*
X019865Y017503D03*
X021046Y018290D03*
X022621Y017306D03*
X020456Y015731D03*
X021637Y015534D03*
X024983Y016715D03*
X026164Y016715D03*
X026952Y015731D03*
X025967Y015534D03*
X028133Y016715D03*
X029314Y014747D03*
X030692Y014156D03*
X025574Y020062D03*
X027345Y020849D03*
X028723Y022227D03*
X025574Y025180D03*
X024393Y025574D03*
X022818Y025377D03*
X019339Y022359D03*
X019471Y019274D03*
X013763Y020062D03*
X013763Y020652D03*
X013763Y021243D03*
X012385Y018881D03*
X011794Y018093D03*
X012778Y017897D03*
X013566Y017503D03*
X011991Y016519D03*
X010810Y015928D03*
X011597Y014550D03*
X012582Y013960D03*
X012778Y013172D03*
X011991Y011204D03*
X010416Y010613D03*
X010416Y010023D03*
X011204Y010023D03*
X011991Y009629D03*
X011597Y008841D03*
X012385Y008841D03*
X012975Y009629D03*
X014156Y009629D03*
X016715Y009235D03*
X017897Y009432D03*
X019471Y009038D03*
X022030Y007070D03*
X023015Y006282D03*
X023211Y005101D03*
X023015Y002542D03*
X022030Y002542D03*
X019668Y004904D03*
X019471Y006282D03*
X015928Y005101D03*
X015534Y003330D03*
X012385Y004708D03*
X011794Y003723D03*
X010810Y004117D03*
X010416Y003526D03*
X009629Y003526D03*
X008841Y004117D03*
X008448Y004708D03*
X009629Y004708D03*
X010219Y006086D03*
X011204Y006282D03*
X010416Y007463D03*
X011204Y007660D03*
X012778Y007267D03*
X010613Y008841D03*
X009432Y009038D03*
X009432Y008251D03*
X009432Y006873D03*
X008841Y006086D03*
X005889Y008251D03*
X007070Y010023D03*
X007070Y010810D03*
X009826Y013960D03*
X007267Y016912D03*
X006676Y017306D03*
X006676Y019471D03*
X006676Y020259D03*
X005692Y020849D03*
X005101Y022227D03*
X008251Y020849D03*
X009432Y021243D03*
X010613Y021243D03*
X009235Y022621D03*
X010416Y018881D03*
X009235Y018487D03*
X001755Y013172D03*
X001755Y011991D03*
X001755Y010613D03*
X002936Y004511D03*
X027149Y005889D03*
X028723Y005101D03*
X029511Y006282D03*
X027542Y007857D03*
X018290Y025574D03*
D58*
X015513Y024446D02*
X014528Y024446D01*
X014353Y024393D02*
X013763Y024393D01*
X013763Y022227D01*
X013233Y022227D01*
X012249Y021243D01*
X011361Y021243D01*
X010613Y021243D02*
X009904Y021243D01*
X009432Y021243D01*
X009432Y021046D01*
X008841Y021971D02*
X011674Y021971D01*
X011930Y022227D01*
X013763Y022227D02*
X014291Y022227D01*
X014528Y022203D02*
X014528Y022203D01*
X014528Y021954D02*
X014528Y022477D01*
X014528Y022477D01*
X014528Y021954D01*
X014237Y021954D01*
X014188Y021964D01*
X014156Y021977D01*
X014156Y021615D01*
X014184Y021587D01*
X014226Y021486D01*
X014226Y021449D01*
X014543Y021133D01*
X014637Y021039D01*
X014688Y020916D01*
X014688Y019837D01*
X015157Y019837D01*
X015157Y019171D01*
X015344Y019171D01*
X015344Y019837D01*
X015822Y019837D01*
X015871Y019827D01*
X015918Y019808D01*
X015960Y019780D01*
X015996Y019744D01*
X016024Y019702D01*
X016044Y019655D01*
X016054Y019605D01*
X016054Y019171D01*
X015344Y019171D01*
X015344Y018984D01*
X016054Y018984D01*
X016054Y018684D01*
X016125Y018684D01*
X016125Y020712D01*
X015961Y020644D01*
X015733Y020644D01*
X015523Y020732D01*
X015361Y020893D01*
X015274Y021104D01*
X015274Y021332D01*
X015361Y021542D01*
X015523Y021704D01*
X015733Y021791D01*
X015961Y021791D01*
X016125Y021723D01*
X016125Y022818D01*
X016026Y022818D01*
X016036Y022769D01*
X016036Y022477D01*
X015513Y022477D01*
X015513Y022477D01*
X015513Y021954D01*
X015804Y021954D01*
X015854Y021964D01*
X015900Y021984D01*
X015943Y022012D01*
X015978Y022048D01*
X016007Y022090D01*
X016026Y022137D01*
X016036Y022186D01*
X016036Y022477D01*
X015513Y022477D01*
X015513Y022477D01*
X015513Y021954D01*
X015222Y021954D01*
X015172Y021964D01*
X015125Y021984D01*
X015083Y022012D01*
X015047Y022048D01*
X015021Y022087D01*
X014994Y022048D01*
X014958Y022012D01*
X014916Y021984D01*
X014869Y021964D01*
X014820Y021954D01*
X014528Y021954D01*
X014156Y021889D02*
X016125Y021889D01*
X016125Y022203D02*
X016036Y022203D01*
X016036Y022516D02*
X016125Y022516D01*
X015513Y022477D02*
X015052Y022477D01*
X014528Y022477D01*
X014528Y022477D01*
X015513Y022477D01*
X015513Y022477D01*
X015513Y022203D02*
X015513Y022203D01*
X015395Y021576D02*
X014189Y021576D01*
X014414Y021262D02*
X015274Y021262D01*
X015338Y020949D02*
X014674Y020949D01*
X014688Y020635D02*
X016125Y020635D01*
X016125Y020322D02*
X014688Y020322D01*
X014688Y020008D02*
X016125Y020008D01*
X016125Y019695D02*
X016027Y019695D01*
X016054Y019381D02*
X016125Y019381D01*
X016125Y019068D02*
X015344Y019068D01*
X015344Y019381D02*
X015157Y019381D01*
X015157Y019695D02*
X015344Y019695D01*
X016054Y018754D02*
X016125Y018754D01*
X013763Y020062D02*
X013723Y020101D01*
X013172Y020101D01*
X013566Y017503D02*
X018684Y017503D01*
X020456Y019274D01*
X022030Y019274D01*
X022030Y019530D01*
X022030Y019274D02*
X023020Y019274D01*
X023560Y018734D01*
X024246Y018734D01*
X025574Y020062D01*
X026361Y013172D02*
X028133Y013172D01*
X029708Y013172D01*
X031676Y011204D01*
X015513Y023462D02*
X014528Y023462D01*
X008841Y021971D02*
X007641Y021971D01*
X007306Y021637D01*
X002743Y017532D02*
X002254Y017532D01*
X002219Y017498D01*
X009826Y013960D02*
X009826Y012503D01*
X005495Y007857D02*
X005298Y007857D01*
X004314Y007857D01*
X001899Y007857D01*
X001899Y008645D02*
X002897Y008645D01*
X002739Y007070D02*
X001899Y007070D01*
X001899Y006282D02*
X002739Y006282D01*
X002739Y005495D02*
X001899Y005495D01*
X005495Y007857D02*
X005889Y007463D01*
X005889Y007070D01*
X007660Y005298D01*
X007660Y004314D01*
X008841Y002778D02*
X009412Y002778D01*
X009629Y005692D02*
X009629Y006282D01*
X010416Y007070D01*
X010416Y007463D01*
X008999Y007463D01*
X008841Y007621D01*
X012975Y004963D02*
X013074Y004865D01*
X012975Y004963D02*
X014058Y004963D01*
D59*
X003867Y002906D02*
X003557Y002906D01*
X003441Y003023D02*
X003796Y003023D01*
X003725Y003139D02*
X003324Y003139D01*
X003207Y003256D02*
X003654Y003256D01*
X003651Y003262D02*
X003939Y002787D01*
X004345Y002408D01*
X004345Y002408D01*
X004838Y002153D01*
X005381Y002040D01*
X005935Y002078D01*
X005935Y002078D01*
X006458Y002264D01*
X006458Y002264D01*
X006912Y002584D01*
X007129Y002851D01*
X007129Y000835D01*
X005629Y000835D01*
X001445Y005018D01*
X001445Y005018D01*
X001371Y005092D01*
X001275Y005132D01*
X001031Y005132D01*
X001031Y017211D01*
X001056Y017197D01*
X001096Y017186D01*
X001540Y017186D01*
X001540Y017202D01*
X001658Y017202D01*
X001658Y017186D01*
X001923Y017186D01*
X001923Y017117D01*
X001933Y017077D01*
X001954Y017041D01*
X001984Y017011D01*
X002020Y016990D01*
X002061Y016979D01*
X002210Y016979D01*
X002210Y017248D01*
X002229Y017283D01*
X002229Y016979D01*
X002378Y016979D01*
X002406Y016987D01*
X002435Y016979D01*
X002598Y016979D01*
X002491Y016599D01*
X002491Y016197D01*
X002189Y016371D01*
X001829Y016409D01*
X001484Y016297D01*
X001215Y016054D01*
X001068Y015723D01*
X001068Y015361D01*
X001215Y015030D01*
X001484Y014788D01*
X001484Y014788D01*
X001829Y014676D01*
X002189Y014713D01*
X002189Y014713D01*
X002503Y014895D01*
X002716Y015188D01*
X002747Y015335D01*
X002930Y015035D01*
X003335Y014656D01*
X003335Y014656D01*
X003424Y014610D01*
X003225Y014528D01*
X003210Y014513D01*
X003195Y014528D01*
X002986Y014615D01*
X002760Y014615D01*
X002551Y014528D01*
X002391Y014368D01*
X002305Y014159D01*
X002305Y013933D01*
X002391Y013724D01*
X002433Y013682D01*
X002391Y013640D01*
X002305Y013431D01*
X002305Y013205D01*
X002391Y012996D01*
X002433Y012954D01*
X002391Y012911D01*
X002305Y012702D01*
X002305Y012476D01*
X002391Y012267D01*
X002433Y012225D01*
X002391Y012183D01*
X002305Y011974D01*
X002305Y011748D01*
X002391Y011539D01*
X002433Y011497D01*
X002391Y011455D01*
X002305Y011246D01*
X002305Y011020D01*
X002391Y010811D01*
X002433Y010769D01*
X002391Y010726D01*
X002305Y010518D01*
X002305Y010291D01*
X002391Y010083D01*
X002433Y010040D01*
X002391Y009998D01*
X002305Y009789D01*
X002305Y009563D01*
X002391Y009354D01*
X002551Y009194D01*
X002760Y009108D01*
X002986Y009108D01*
X003195Y009194D01*
X003210Y009209D01*
X003225Y009194D01*
X003434Y009108D01*
X003660Y009108D01*
X003869Y009194D01*
X003884Y009209D01*
X003899Y009194D01*
X004108Y009108D01*
X004334Y009108D01*
X004543Y009194D01*
X004558Y009209D01*
X004573Y009194D01*
X004782Y009108D01*
X005008Y009108D01*
X005217Y009194D01*
X005232Y009209D01*
X005247Y009194D01*
X005456Y009108D01*
X005682Y009108D01*
X005891Y009194D01*
X005906Y009209D01*
X005921Y009194D01*
X006130Y009108D01*
X006356Y009108D01*
X006565Y009194D01*
X006665Y009294D01*
X007208Y009294D01*
X007208Y008987D01*
X007247Y008893D01*
X007319Y008821D01*
X007413Y008782D01*
X007876Y008782D01*
X008014Y008645D01*
X007876Y008507D01*
X007413Y008507D01*
X007319Y008468D01*
X007247Y008396D01*
X007208Y008302D01*
X007208Y007728D01*
X007247Y007633D01*
X007319Y007561D01*
X007413Y007523D01*
X007778Y007523D01*
X007778Y007523D01*
X007531Y007523D01*
X007463Y007495D01*
X007396Y007523D01*
X007149Y007523D01*
X007098Y007574D01*
X007129Y007649D01*
X007129Y008184D01*
X007090Y008278D01*
X007029Y008338D01*
X007032Y008348D01*
X007032Y008546D01*
X006715Y008546D01*
X006715Y008625D01*
X006637Y008625D01*
X006637Y008961D01*
X006458Y008961D01*
X006418Y008950D01*
X006382Y008929D01*
X006352Y008900D01*
X006331Y008863D01*
X006320Y008823D01*
X006320Y008625D01*
X006637Y008625D01*
X006637Y008546D01*
X006320Y008546D01*
X006320Y008348D01*
X006323Y008338D01*
X006262Y008278D01*
X006223Y008184D01*
X006223Y007713D01*
X005845Y008091D01*
X005729Y008208D01*
X005577Y008271D01*
X004656Y008271D01*
X004562Y008310D01*
X004078Y008310D01*
X004097Y008320D01*
X004126Y008350D01*
X004147Y008386D01*
X004158Y008427D01*
X004158Y008605D01*
X003802Y008605D01*
X003802Y008289D01*
X004015Y008289D01*
X003972Y008271D01*
X003972Y008271D01*
X003317Y008271D01*
X003350Y008303D01*
X003382Y008380D01*
X003399Y008350D01*
X003429Y008320D01*
X003465Y008300D01*
X003506Y008289D01*
X003723Y008289D01*
X003723Y008605D01*
X003802Y008605D01*
X003802Y008684D01*
X003723Y008684D01*
X003723Y009000D01*
X003506Y009000D01*
X003465Y008990D01*
X003429Y008969D01*
X003399Y008939D01*
X003382Y008909D01*
X003350Y008986D01*
X003278Y009058D01*
X003184Y009097D01*
X002609Y009097D01*
X002515Y009058D01*
X002320Y009058D01*
X002277Y009102D01*
X002183Y009141D01*
X001608Y009141D01*
X001514Y009102D01*
X001442Y009030D01*
X001403Y008936D01*
X001403Y008361D01*
X001442Y008267D01*
X001455Y008255D01*
X001442Y008242D01*
X001403Y008148D01*
X001403Y007574D01*
X001442Y007480D01*
X001455Y007467D01*
X001442Y007455D01*
X001403Y007361D01*
X001403Y006787D01*
X001442Y006693D01*
X001455Y006680D01*
X001442Y006667D01*
X001403Y006573D01*
X001403Y005999D01*
X001442Y005905D01*
X001455Y005893D01*
X001442Y005880D01*
X001403Y005786D01*
X001403Y005212D01*
X001442Y005118D01*
X001514Y005046D01*
X001608Y005007D01*
X002183Y005007D01*
X002277Y005046D01*
X002313Y005082D01*
X002397Y005082D01*
X002397Y005081D01*
X002491Y005042D01*
X002987Y005042D01*
X003081Y005081D01*
X003153Y005153D01*
X003185Y005231D01*
X003202Y005200D01*
X003232Y005171D01*
X003268Y005150D01*
X003309Y005139D01*
X003487Y005139D01*
X003487Y005456D01*
X003566Y005456D01*
X003566Y005534D01*
X003882Y005534D01*
X003882Y005713D01*
X003872Y005753D01*
X003851Y005789D01*
X003821Y005819D01*
X003785Y005840D01*
X003744Y005851D01*
X003566Y005851D01*
X003566Y005534D01*
X003487Y005534D01*
X003487Y005851D01*
X003309Y005851D01*
X003268Y005840D01*
X003232Y005819D01*
X003202Y005789D01*
X003185Y005759D01*
X003153Y005837D01*
X003101Y005889D01*
X003153Y005941D01*
X003185Y006018D01*
X003202Y005988D01*
X003232Y005958D01*
X003268Y005937D01*
X003309Y005926D01*
X003487Y005926D01*
X003487Y006243D01*
X003566Y006243D01*
X003566Y006322D01*
X003487Y006322D01*
X003487Y006638D01*
X003309Y006638D01*
X003268Y006627D01*
X003232Y006606D01*
X003202Y006577D01*
X003185Y006547D01*
X003153Y006624D01*
X003101Y006676D01*
X003153Y006728D01*
X003185Y006805D01*
X003202Y006775D01*
X003232Y006746D01*
X003268Y006725D01*
X003309Y006714D01*
X003487Y006714D01*
X003487Y007030D01*
X003566Y007030D01*
X003566Y006714D01*
X003744Y006714D01*
X003785Y006725D01*
X003821Y006746D01*
X003851Y006775D01*
X003872Y006812D01*
X003882Y006852D01*
X003882Y007030D01*
X003566Y007030D01*
X003566Y007109D01*
X003882Y007109D01*
X003882Y007288D01*
X003872Y007328D01*
X003851Y007364D01*
X003821Y007394D01*
X003785Y007415D01*
X003744Y007426D01*
X003566Y007426D01*
X003566Y007109D01*
X003487Y007109D01*
X003487Y007426D01*
X003309Y007426D01*
X003268Y007415D01*
X003232Y007394D01*
X003202Y007364D01*
X003185Y007334D01*
X003153Y007412D01*
X003121Y007444D01*
X003972Y007444D01*
X003972Y007443D01*
X004049Y007411D01*
X004019Y007394D01*
X003990Y007364D01*
X003969Y007328D01*
X003958Y007288D01*
X003958Y007109D01*
X004274Y007109D01*
X004274Y007030D01*
X004353Y007030D01*
X004353Y006714D01*
X004532Y006714D01*
X004572Y006725D01*
X004608Y006746D01*
X004638Y006775D01*
X004659Y006812D01*
X004670Y006852D01*
X004670Y007030D01*
X004353Y007030D01*
X004353Y007109D01*
X004670Y007109D01*
X004670Y007288D01*
X004659Y007328D01*
X004638Y007364D01*
X004608Y007394D01*
X004578Y007411D01*
X004656Y007443D01*
X004656Y007444D01*
X004845Y007444D01*
X004845Y007334D01*
X004884Y007240D01*
X004945Y007179D01*
X004942Y007169D01*
X004942Y006971D01*
X005259Y006971D01*
X005259Y006893D01*
X004942Y006893D01*
X004942Y006694D01*
X004953Y006654D01*
X004974Y006618D01*
X005004Y006588D01*
X005040Y006567D01*
X005080Y006556D01*
X005259Y006556D01*
X005259Y006893D01*
X005337Y006893D01*
X005337Y006556D01*
X005516Y006556D01*
X005556Y006567D01*
X005593Y006588D01*
X005622Y006618D01*
X005643Y006654D01*
X005654Y006694D01*
X005654Y006720D01*
X005654Y006719D01*
X006567Y005807D01*
X006458Y005884D01*
X005935Y006069D01*
X005381Y006107D01*
X004838Y005994D01*
X004838Y005994D01*
X004345Y005739D01*
X003939Y005360D01*
X003877Y005258D01*
X003882Y005277D01*
X003882Y005456D01*
X003566Y005456D01*
X003566Y005139D01*
X003744Y005139D01*
X003785Y005150D01*
X003821Y005171D01*
X003829Y005179D01*
X003651Y004886D01*
X003651Y004886D01*
X003501Y004351D01*
X003501Y003796D01*
X003651Y003262D01*
X003651Y003262D01*
X003620Y003372D02*
X003091Y003372D01*
X002974Y003489D02*
X003587Y003489D01*
X003555Y003606D02*
X002858Y003606D01*
X002741Y003722D02*
X003522Y003722D01*
X003501Y003839D02*
X002624Y003839D01*
X002508Y003955D02*
X003501Y003955D01*
X003501Y004072D02*
X002391Y004072D01*
X002274Y004189D02*
X003501Y004189D01*
X003501Y004305D02*
X002158Y004305D01*
X002041Y004422D02*
X003521Y004422D01*
X003554Y004538D02*
X001925Y004538D01*
X001808Y004655D02*
X003586Y004655D01*
X003619Y004772D02*
X001691Y004772D01*
X001575Y004888D02*
X003652Y004888D01*
X003723Y005005D02*
X001458Y005005D01*
X001441Y005122D02*
X001300Y005122D01*
X001403Y005238D02*
X001031Y005238D01*
X001031Y005355D02*
X001403Y005355D01*
X001403Y005471D02*
X001031Y005471D01*
X001031Y005588D02*
X001403Y005588D01*
X001403Y005705D02*
X001031Y005705D01*
X001031Y005821D02*
X001418Y005821D01*
X001429Y005938D02*
X001031Y005938D01*
X001031Y006054D02*
X001403Y006054D01*
X001403Y006171D02*
X001031Y006171D01*
X001031Y006288D02*
X001403Y006288D01*
X001403Y006404D02*
X001031Y006404D01*
X001031Y006521D02*
X001403Y006521D01*
X001430Y006637D02*
X001031Y006637D01*
X001031Y006754D02*
X001417Y006754D01*
X001403Y006871D02*
X001031Y006871D01*
X001031Y006987D02*
X001403Y006987D01*
X001403Y007104D02*
X001031Y007104D01*
X001031Y007220D02*
X001403Y007220D01*
X001403Y007337D02*
X001031Y007337D01*
X001031Y007454D02*
X001442Y007454D01*
X001405Y007570D02*
X001031Y007570D01*
X001031Y007687D02*
X001403Y007687D01*
X001403Y007804D02*
X001031Y007804D01*
X001031Y007920D02*
X001403Y007920D01*
X001403Y008037D02*
X001031Y008037D01*
X001031Y008153D02*
X001406Y008153D01*
X001441Y008270D02*
X001031Y008270D01*
X001031Y008387D02*
X001403Y008387D01*
X001403Y008503D02*
X001031Y008503D01*
X001031Y008620D02*
X001403Y008620D01*
X001403Y008736D02*
X001031Y008736D01*
X001031Y008853D02*
X001403Y008853D01*
X001418Y008970D02*
X001031Y008970D01*
X001031Y009086D02*
X001499Y009086D01*
X001031Y009203D02*
X002543Y009203D01*
X002583Y009086D02*
X002292Y009086D01*
X002515Y009058D02*
X002515Y009058D01*
X002426Y009319D02*
X001031Y009319D01*
X001031Y009436D02*
X002357Y009436D01*
X002309Y009553D02*
X001031Y009553D01*
X001031Y009669D02*
X002305Y009669D01*
X002305Y009786D02*
X001031Y009786D01*
X001031Y009903D02*
X002352Y009903D01*
X002412Y010019D02*
X001031Y010019D01*
X001031Y010136D02*
X002369Y010136D01*
X002321Y010252D02*
X001031Y010252D01*
X001031Y010369D02*
X002305Y010369D01*
X002305Y010486D02*
X001031Y010486D01*
X001031Y010602D02*
X002340Y010602D01*
X002388Y010719D02*
X001031Y010719D01*
X001031Y010835D02*
X002381Y010835D01*
X002333Y010952D02*
X001031Y010952D01*
X001031Y011069D02*
X002305Y011069D01*
X002305Y011185D02*
X001031Y011185D01*
X001031Y011302D02*
X002328Y011302D01*
X002376Y011418D02*
X001031Y011418D01*
X001031Y011535D02*
X002395Y011535D01*
X002345Y011652D02*
X001031Y011652D01*
X001031Y011768D02*
X002305Y011768D01*
X002305Y011885D02*
X001031Y011885D01*
X001031Y012002D02*
X002316Y012002D01*
X002364Y012118D02*
X001031Y012118D01*
X001031Y012235D02*
X002424Y012235D01*
X002356Y012351D02*
X001031Y012351D01*
X001031Y012468D02*
X002308Y012468D01*
X002305Y012585D02*
X001031Y012585D01*
X001031Y012701D02*
X002305Y012701D01*
X002352Y012818D02*
X001031Y012818D01*
X001031Y012934D02*
X002414Y012934D01*
X002368Y013051D02*
X001031Y013051D01*
X001031Y013168D02*
X002320Y013168D01*
X002305Y013284D02*
X001031Y013284D01*
X001031Y013401D02*
X002305Y013401D01*
X002341Y013517D02*
X001031Y013517D01*
X001031Y013634D02*
X002389Y013634D01*
X002380Y013751D02*
X001031Y013751D01*
X001031Y013867D02*
X002332Y013867D01*
X002305Y013984D02*
X001031Y013984D01*
X001031Y014101D02*
X002305Y014101D01*
X002329Y014217D02*
X001031Y014217D01*
X001031Y014334D02*
X002377Y014334D01*
X002473Y014450D02*
X001031Y014450D01*
X001031Y014567D02*
X002645Y014567D01*
X002503Y014895D02*
X002503Y014895D01*
X002503Y014895D01*
X002519Y014917D02*
X003056Y014917D01*
X002932Y015033D02*
X002604Y015033D01*
X002689Y015150D02*
X002860Y015150D01*
X002930Y015035D02*
X002930Y015035D01*
X002930Y015035D01*
X002716Y015188D02*
X002716Y015188D01*
X002733Y015267D02*
X002789Y015267D01*
X003181Y014800D02*
X002340Y014800D01*
X001906Y014684D02*
X003306Y014684D01*
X003319Y014567D02*
X003101Y014567D01*
X001829Y014676D02*
X001829Y014676D01*
X001804Y014684D02*
X001031Y014684D01*
X001031Y014800D02*
X001470Y014800D01*
X001341Y014917D02*
X001031Y014917D01*
X001031Y015033D02*
X001214Y015033D01*
X001215Y015030D02*
X001215Y015030D01*
X001162Y015150D02*
X001031Y015150D01*
X001031Y015267D02*
X001110Y015267D01*
X001068Y015383D02*
X001031Y015383D01*
X001031Y015500D02*
X001068Y015500D01*
X001068Y015616D02*
X001031Y015616D01*
X001031Y015733D02*
X001072Y015733D01*
X001031Y015850D02*
X001124Y015850D01*
X001176Y015966D02*
X001031Y015966D01*
X001031Y016083D02*
X001247Y016083D01*
X001215Y016054D02*
X001215Y016054D01*
X001376Y016200D02*
X001031Y016200D01*
X001031Y016316D02*
X001544Y016316D01*
X001484Y016297D02*
X001484Y016297D01*
X001829Y016409D02*
X001829Y016409D01*
X002189Y016371D02*
X002189Y016371D01*
X002285Y016316D02*
X002491Y016316D01*
X002487Y016200D02*
X002491Y016200D01*
X002491Y016433D02*
X001031Y016433D01*
X001031Y016549D02*
X002491Y016549D01*
X002510Y016666D02*
X001031Y016666D01*
X001031Y016783D02*
X002543Y016783D01*
X002575Y016899D02*
X001031Y016899D01*
X001031Y017016D02*
X001979Y017016D01*
X001923Y017132D02*
X001031Y017132D01*
X002210Y017132D02*
X002229Y017132D01*
X002229Y017016D02*
X002210Y017016D01*
X002210Y017249D02*
X002229Y017249D01*
X001511Y018354D02*
X001393Y018354D01*
X001393Y018994D01*
X001511Y018994D01*
X001511Y018734D01*
X001511Y018354D01*
X001511Y018415D02*
X001393Y018415D01*
X001393Y018532D02*
X001511Y018532D01*
X001511Y018648D02*
X001393Y018648D01*
X001393Y018765D02*
X001511Y018765D01*
X001511Y018882D02*
X001393Y018882D01*
X002229Y020065D02*
X002210Y020099D01*
X002210Y020368D01*
X002061Y020368D01*
X002028Y020360D01*
X002242Y020573D01*
X002281Y020669D01*
X002281Y023330D01*
X008606Y025227D01*
X008501Y024851D01*
X008501Y024296D01*
X008651Y023762D01*
X008651Y023762D01*
X008939Y023287D01*
X008939Y023287D01*
X009177Y023065D01*
X008996Y023065D01*
X008902Y023026D01*
X008832Y022956D01*
X007129Y022956D01*
X007129Y023341D01*
X007090Y023435D01*
X007029Y023496D01*
X007032Y023506D01*
X007032Y023704D01*
X006715Y023704D01*
X006715Y023782D01*
X006637Y023782D01*
X006637Y023704D01*
X006320Y023704D01*
X006320Y023506D01*
X006323Y023496D01*
X006262Y023435D01*
X006223Y023341D01*
X006223Y023173D01*
X006156Y023106D01*
X006145Y023078D01*
X006145Y023144D01*
X006117Y023211D01*
X006145Y023279D01*
X006145Y023814D01*
X006106Y023908D01*
X006034Y023980D01*
X005940Y024019D01*
X005444Y024019D01*
X005350Y023980D01*
X005278Y023908D01*
X005246Y023831D01*
X004328Y022913D01*
X004328Y023176D01*
X004289Y023270D01*
X004217Y023342D01*
X004123Y023381D01*
X003418Y023381D01*
X003324Y023342D01*
X003252Y023270D01*
X003213Y023176D01*
X003213Y023158D01*
X003072Y023158D01*
X002949Y023107D01*
X002746Y022905D01*
X002652Y022811D01*
X002601Y022688D01*
X002601Y021373D01*
X002652Y021250D01*
X002849Y021053D01*
X002943Y020959D01*
X003066Y020908D01*
X003389Y020908D01*
X003389Y019995D01*
X003413Y019938D01*
X003408Y019928D01*
X003408Y019520D01*
X003219Y019520D01*
X003222Y019524D01*
X003222Y019733D01*
X003140Y019874D01*
X003189Y019874D01*
X003189Y020230D01*
X003179Y020271D01*
X003158Y020307D01*
X003128Y020336D01*
X003092Y020357D01*
X003051Y020368D01*
X002802Y020368D01*
X002802Y020019D01*
X002684Y020019D01*
X002684Y020368D01*
X002435Y020368D01*
X002406Y020361D01*
X002378Y020368D01*
X002229Y020368D01*
X002229Y020065D01*
X002229Y020164D02*
X002210Y020164D01*
X002210Y020281D02*
X002229Y020281D01*
X002066Y020397D02*
X003389Y020397D01*
X003389Y020281D02*
X003173Y020281D01*
X003189Y020164D02*
X003389Y020164D01*
X003389Y020048D02*
X003189Y020048D01*
X003189Y019931D02*
X003410Y019931D01*
X003408Y019814D02*
X003175Y019814D01*
X003222Y019698D02*
X003408Y019698D01*
X003408Y019581D02*
X003222Y019581D01*
X003723Y019581D02*
X006086Y019581D01*
X006086Y019550D02*
X006086Y019786D01*
X005559Y019786D01*
X005481Y019865D01*
X005431Y019865D01*
X005371Y019806D01*
X004831Y019806D01*
X004772Y019865D01*
X003723Y019865D01*
X003723Y019274D01*
X005298Y019274D01*
X005298Y019471D01*
X005481Y019471D01*
X005559Y019550D01*
X006086Y019550D01*
X006086Y019698D02*
X003723Y019698D01*
X003723Y019814D02*
X004823Y019814D01*
X005111Y019540D02*
X005101Y019530D01*
X005082Y019511D01*
X004117Y019511D01*
X003723Y019465D02*
X005298Y019465D01*
X005298Y019348D02*
X003723Y019348D01*
X004117Y020219D02*
X005082Y020219D01*
X005101Y020200D01*
X005751Y020200D01*
X005899Y020052D01*
X006469Y020052D01*
X006479Y020062D01*
X007267Y019786D02*
X007793Y019786D01*
X007871Y019865D01*
X008054Y019865D01*
X008054Y020484D01*
X008512Y020484D01*
X008616Y020588D01*
X008616Y020652D01*
X009235Y020652D01*
X009235Y021440D01*
X010810Y021440D01*
X010810Y020652D01*
X011400Y020652D01*
X011400Y020200D01*
X010933Y020200D01*
X010830Y020096D01*
X010830Y020062D01*
X008645Y020062D01*
X008645Y019078D01*
X008580Y019078D01*
X008521Y019137D01*
X007981Y019137D01*
X007972Y019128D01*
X007897Y019203D01*
X007897Y019446D01*
X007793Y019550D01*
X007267Y019550D01*
X007267Y019786D01*
X007267Y019698D02*
X008645Y019698D01*
X008645Y019814D02*
X007821Y019814D01*
X008054Y019931D02*
X008645Y019931D01*
X008645Y020048D02*
X008054Y020048D01*
X008054Y020164D02*
X010898Y020164D01*
X011007Y020456D02*
X010613Y020456D01*
X010613Y021243D01*
X010810Y021214D02*
X009235Y021214D01*
X009235Y021330D02*
X010810Y021330D01*
X010810Y021097D02*
X009235Y021097D01*
X009235Y020981D02*
X010810Y020981D01*
X010810Y020864D02*
X009235Y020864D01*
X009235Y020747D02*
X010810Y020747D01*
X011400Y020631D02*
X008616Y020631D01*
X008542Y020514D02*
X011400Y020514D01*
X011400Y020397D02*
X008054Y020397D01*
X008054Y020281D02*
X011400Y020281D01*
X011715Y020418D02*
X011715Y020715D01*
X011673Y020819D01*
X011684Y020830D01*
X012331Y020830D01*
X012483Y020893D01*
X013207Y021617D01*
X013399Y021617D01*
X013358Y021576D01*
X013319Y021482D01*
X013319Y021126D01*
X013192Y021126D01*
X013192Y020830D01*
X013152Y020830D01*
X013152Y020790D01*
X012777Y020790D01*
X012777Y020631D01*
X011715Y020631D01*
X011715Y020514D02*
X012857Y020514D01*
X012868Y020508D02*
X012791Y020476D01*
X012791Y020475D01*
X012078Y020475D01*
X011984Y020436D01*
X011965Y020418D01*
X011834Y020418D01*
X011834Y019708D01*
X011755Y019708D01*
X011755Y020418D01*
X011715Y020418D01*
X011755Y020397D02*
X011834Y020397D01*
X011834Y020281D02*
X011755Y020281D01*
X011755Y020164D02*
X011834Y020164D01*
X011834Y020048D02*
X011755Y020048D01*
X011755Y019931D02*
X011834Y019931D01*
X011834Y019814D02*
X011755Y019814D01*
X011755Y019629D02*
X011834Y019629D01*
X011834Y018919D01*
X012012Y018919D01*
X012052Y018929D01*
X012089Y018950D01*
X012118Y018980D01*
X012139Y019016D01*
X012150Y019057D01*
X012150Y019352D01*
X012355Y019352D01*
X012355Y019452D01*
X012355Y019452D01*
X012355Y019352D01*
X012603Y019352D01*
X012643Y019362D01*
X012679Y019383D01*
X012709Y019413D01*
X012730Y019449D01*
X012734Y019464D01*
X012759Y019439D01*
X012759Y019224D01*
X012798Y019130D01*
X012870Y019058D01*
X012964Y019019D01*
X013499Y019019D01*
X013593Y019058D01*
X013653Y019118D01*
X013663Y019115D01*
X013861Y019115D01*
X013861Y019432D01*
X013940Y019432D01*
X013940Y019115D01*
X014038Y019115D01*
X013650Y019115D01*
X013861Y019231D02*
X013940Y019231D01*
X013940Y019348D02*
X013861Y019348D01*
X014038Y019115D02*
X014038Y018031D01*
X014086Y017916D01*
X013879Y017916D01*
X013805Y017947D01*
X013327Y017947D01*
X013233Y017908D01*
X013161Y017836D01*
X013122Y017742D01*
X013122Y017326D01*
X013121Y017326D01*
X013027Y017287D01*
X012995Y017255D01*
X012923Y017326D01*
X012829Y017365D01*
X012602Y017365D01*
X012574Y017393D01*
X012451Y017444D01*
X009374Y017444D01*
X009031Y017787D01*
X008983Y017806D01*
X008513Y018277D01*
X008593Y018310D01*
X008665Y018381D01*
X008704Y018476D01*
X008704Y018763D01*
X008707Y018763D01*
X008823Y018811D01*
X008912Y018899D01*
X008960Y019015D01*
X008960Y019291D01*
X009136Y019291D01*
X009136Y019587D01*
X009175Y019587D01*
X009175Y019291D01*
X009412Y019291D01*
X009453Y019301D01*
X009489Y019322D01*
X009519Y019352D01*
X009540Y019388D01*
X009550Y019429D01*
X009550Y019587D01*
X009175Y019587D01*
X009175Y019627D01*
X009550Y019627D01*
X009550Y019747D01*
X009784Y019747D01*
X009784Y019666D01*
X010100Y019666D01*
X010100Y019587D01*
X009784Y019587D01*
X009784Y019389D01*
X009794Y019349D01*
X009815Y019313D01*
X009845Y019283D01*
X009881Y019262D01*
X009922Y019251D01*
X010048Y019251D01*
X010011Y019214D01*
X009972Y019120D01*
X009972Y018642D01*
X010011Y018548D01*
X010083Y018476D01*
X010177Y018437D01*
X010655Y018437D01*
X010749Y018476D01*
X010821Y018548D01*
X010860Y018642D01*
X010860Y018852D01*
X011094Y019085D01*
X011145Y019208D01*
X011145Y019352D01*
X011233Y019352D01*
X011233Y019452D01*
X011233Y019452D01*
X011233Y019352D01*
X011438Y019352D01*
X011438Y019057D01*
X011449Y019016D01*
X011470Y018980D01*
X011500Y018950D01*
X011536Y018929D01*
X011576Y018919D01*
X011755Y018919D01*
X011755Y019629D01*
X011755Y019581D02*
X011834Y019581D01*
X011834Y019465D02*
X011755Y019465D01*
X011755Y019348D02*
X011834Y019348D01*
X011834Y019231D02*
X011755Y019231D01*
X011755Y019115D02*
X011834Y019115D01*
X011834Y018998D02*
X011755Y018998D01*
X011460Y018998D02*
X011007Y018998D01*
X011106Y019115D02*
X011438Y019115D01*
X011438Y019231D02*
X011145Y019231D01*
X011145Y019348D02*
X011438Y019348D01*
X011233Y019767D02*
X010908Y019767D01*
X010029Y019231D02*
X008960Y019231D01*
X008960Y019115D02*
X009972Y019115D01*
X009972Y018998D02*
X008953Y018998D01*
X008894Y018882D02*
X009972Y018882D01*
X009972Y018765D02*
X008713Y018765D01*
X008704Y018648D02*
X009972Y018648D01*
X010027Y018532D02*
X008704Y018532D01*
X008679Y018415D02*
X014038Y018415D01*
X014038Y018298D02*
X008566Y018298D01*
X008608Y018182D02*
X014038Y018182D01*
X014038Y018065D02*
X008724Y018065D01*
X008841Y017949D02*
X014072Y017949D01*
X014353Y018093D02*
X018290Y018093D01*
X019471Y019274D01*
X019027Y019276D02*
X018491Y018739D01*
X018491Y019019D01*
X017845Y019019D01*
X017845Y018417D01*
X018168Y018417D01*
X018160Y018408D01*
X016434Y018408D01*
X016475Y018450D01*
X016538Y018602D01*
X016538Y022900D01*
X016475Y023052D01*
X016359Y023168D01*
X016207Y023231D01*
X016034Y023231D01*
X016034Y023778D01*
X015995Y023872D01*
X015923Y023944D01*
X015901Y023954D01*
X015923Y023963D01*
X015995Y024035D01*
X016034Y024129D01*
X018880Y024129D01*
X018880Y024012D02*
X015973Y024012D01*
X015972Y023896D02*
X018880Y023896D01*
X018880Y023779D02*
X016034Y023779D01*
X016034Y023663D02*
X018880Y023663D01*
X018880Y023546D02*
X016034Y023546D01*
X016034Y023429D02*
X018856Y023429D01*
X018854Y023428D02*
X018793Y023368D01*
X018784Y023371D01*
X018586Y023371D01*
X018586Y023054D01*
X018507Y023054D01*
X018507Y023371D01*
X018309Y023371D01*
X018268Y023360D01*
X018232Y023339D01*
X018202Y023309D01*
X018181Y023273D01*
X018171Y023232D01*
X018171Y023054D01*
X018507Y023054D01*
X018507Y022975D01*
X018586Y022975D01*
X018586Y022659D01*
X018784Y022659D01*
X018793Y022661D01*
X018854Y022601D01*
X018895Y022584D01*
X018895Y022120D01*
X018934Y022026D01*
X019006Y021954D01*
X019100Y021915D01*
X019578Y021915D01*
X019673Y021954D01*
X019745Y022026D01*
X019783Y022120D01*
X019783Y022598D01*
X019745Y022692D01*
X019683Y022754D01*
X019688Y022767D01*
X019688Y023262D01*
X019649Y023356D01*
X019577Y023428D01*
X019551Y023439D01*
X019551Y024765D01*
X019588Y024765D01*
X019682Y024804D01*
X019733Y024855D01*
X019784Y024804D01*
X019878Y024765D01*
X019923Y024765D01*
X019923Y023145D01*
X019974Y023021D01*
X020068Y022927D01*
X020462Y022533D01*
X020586Y022482D01*
X024452Y022482D01*
X024542Y022392D01*
X023913Y022392D01*
X023913Y022095D01*
X024742Y022095D01*
X024742Y022192D01*
X024896Y022038D01*
X024990Y021944D01*
X025113Y021893D01*
X028320Y021893D01*
X028390Y021822D01*
X028484Y021783D01*
X028962Y021783D01*
X029056Y021822D01*
X029128Y021894D01*
X029167Y021988D01*
X029167Y022466D01*
X029128Y022560D01*
X029056Y022632D01*
X028962Y022671D01*
X028484Y022671D01*
X028390Y022632D01*
X028320Y022562D01*
X025319Y022562D01*
X025039Y022842D01*
X025094Y022842D01*
X025094Y023670D01*
X024798Y023670D01*
X024798Y023085D01*
X024780Y023103D01*
X024656Y023154D01*
X020792Y023154D01*
X020595Y023351D01*
X020595Y024794D01*
X020665Y024765D01*
X021163Y024765D01*
X021257Y024804D01*
X021329Y024876D01*
X021360Y024951D01*
X021376Y024923D01*
X021406Y024893D01*
X021442Y024873D01*
X021483Y024862D01*
X021697Y024862D01*
X021697Y025214D01*
X021707Y025214D01*
X021707Y025224D01*
X021697Y025224D01*
X021697Y025576D01*
X021483Y025576D01*
X021442Y025565D01*
X021406Y025544D01*
X021376Y025514D01*
X021360Y025486D01*
X021329Y025562D01*
X021257Y025634D01*
X021163Y025673D01*
X020665Y025673D01*
X020571Y025634D01*
X020521Y025583D01*
X020470Y025634D01*
X020376Y025673D01*
X019878Y025673D01*
X019784Y025634D01*
X019733Y025583D01*
X019682Y025634D01*
X019588Y025673D01*
X019091Y025673D01*
X018997Y025634D01*
X018925Y025562D01*
X018886Y025468D01*
X018886Y025176D01*
X018880Y025162D01*
X018880Y023439D01*
X018854Y023428D01*
X018586Y023313D02*
X018507Y023313D01*
X018507Y023196D02*
X018586Y023196D01*
X018586Y023080D02*
X018507Y023080D01*
X018507Y022975D02*
X018171Y022975D01*
X018171Y022797D01*
X018181Y022756D01*
X018202Y022720D01*
X018232Y022691D01*
X018268Y022670D01*
X018309Y022659D01*
X018507Y022659D01*
X018507Y022975D01*
X018507Y022963D02*
X018586Y022963D01*
X018586Y022846D02*
X018507Y022846D01*
X018507Y022730D02*
X018586Y022730D01*
X018842Y022613D02*
X016538Y022613D01*
X016538Y022496D02*
X018895Y022496D01*
X018895Y022380D02*
X016538Y022380D01*
X016538Y022263D02*
X018895Y022263D01*
X018895Y022147D02*
X016538Y022147D01*
X016538Y022030D02*
X018933Y022030D01*
X019746Y022030D02*
X023046Y022030D01*
X023046Y022056D02*
X023046Y021964D01*
X022988Y021906D01*
X022949Y021812D01*
X022949Y021395D01*
X022960Y021367D01*
X022949Y021339D01*
X022949Y020922D01*
X022960Y020895D01*
X022949Y020867D01*
X022949Y020450D01*
X022960Y020422D01*
X022949Y020394D01*
X022949Y019978D01*
X022988Y019883D01*
X023046Y019826D01*
X023046Y019733D01*
X023874Y019733D01*
X023874Y019694D01*
X023046Y019694D01*
X023046Y019688D01*
X022483Y019688D01*
X022483Y019798D01*
X022444Y019892D01*
X022384Y019952D01*
X022386Y019962D01*
X022386Y020160D01*
X022070Y020160D01*
X022070Y020239D01*
X022386Y020239D01*
X022386Y020437D01*
X022375Y020478D01*
X022355Y020514D01*
X022325Y020543D01*
X022289Y020564D01*
X022248Y020575D01*
X022070Y020575D01*
X022070Y020239D01*
X021991Y020239D01*
X021991Y020160D01*
X021674Y020160D01*
X021674Y019962D01*
X021677Y019952D01*
X021617Y019892D01*
X021578Y019798D01*
X021578Y019688D01*
X020373Y019688D01*
X020221Y019625D01*
X020105Y019509D01*
X019915Y019319D01*
X019915Y019514D01*
X019876Y019608D01*
X019804Y019680D01*
X019710Y019719D01*
X019232Y019719D01*
X019138Y019680D01*
X019066Y019608D01*
X019027Y019514D01*
X019027Y019276D01*
X018983Y019231D02*
X018491Y019231D01*
X018491Y019137D02*
X018491Y019601D01*
X018480Y019641D01*
X018459Y019677D01*
X018429Y019707D01*
X018393Y019728D01*
X018353Y019739D01*
X017845Y019739D01*
X017845Y019137D01*
X017727Y019137D01*
X017727Y019739D01*
X017220Y019739D01*
X017180Y019728D01*
X017143Y019707D01*
X017114Y019677D01*
X017093Y019641D01*
X017082Y019601D01*
X017082Y019137D01*
X017727Y019137D01*
X017727Y019019D01*
X017082Y019019D01*
X017082Y018555D01*
X017093Y018514D01*
X017114Y018478D01*
X017143Y018448D01*
X017180Y018427D01*
X017220Y018417D01*
X017727Y018417D01*
X017727Y019019D01*
X017845Y019019D01*
X017845Y019137D01*
X018491Y019137D01*
X018491Y018998D02*
X018750Y018998D01*
X018866Y019115D02*
X017845Y019115D01*
X017845Y019231D02*
X017727Y019231D01*
X017727Y019115D02*
X016538Y019115D01*
X016538Y019231D02*
X017082Y019231D01*
X017082Y019348D02*
X016538Y019348D01*
X016538Y019465D02*
X017082Y019465D01*
X017082Y019581D02*
X016538Y019581D01*
X016538Y019698D02*
X017134Y019698D01*
X016538Y019814D02*
X021585Y019814D01*
X021578Y019698D02*
X019760Y019698D01*
X019887Y019581D02*
X020178Y019581D01*
X020061Y019465D02*
X019915Y019465D01*
X019915Y019348D02*
X019944Y019348D01*
X020531Y018765D02*
X022141Y018765D01*
X022141Y018734D02*
X022536Y018734D01*
X022141Y018734D01*
X022141Y018671D01*
X022083Y018613D01*
X022072Y018586D01*
X021467Y018586D01*
X021451Y018623D01*
X021379Y018695D01*
X021285Y018734D01*
X020807Y018734D01*
X020713Y018695D01*
X020641Y018623D01*
X020602Y018529D01*
X020602Y018051D01*
X020641Y017957D01*
X020713Y017885D01*
X020807Y017846D01*
X021285Y017846D01*
X021379Y017885D01*
X021451Y017957D01*
X021467Y017995D01*
X022141Y017995D01*
X022141Y017986D01*
X022141Y017857D01*
X022152Y017816D01*
X022173Y017780D01*
X022202Y017751D01*
X022239Y017730D01*
X022279Y017719D01*
X022536Y017719D01*
X022536Y017986D01*
X022141Y017986D01*
X022536Y017986D01*
X022536Y017986D01*
X022536Y017986D01*
X022536Y017719D01*
X022793Y017719D01*
X022834Y017730D01*
X022870Y017751D01*
X022900Y017780D01*
X022921Y017816D01*
X022932Y017857D01*
X022932Y017986D01*
X022536Y017986D01*
X022536Y017986D01*
X022932Y017986D01*
X022932Y018049D01*
X022989Y018107D01*
X023028Y018201D01*
X023028Y018519D01*
X022989Y018613D01*
X022932Y018671D01*
X022932Y018734D01*
X022536Y018734D01*
X022536Y018734D01*
X022536Y018734D01*
X022932Y018734D01*
X022932Y018778D01*
X023068Y018642D01*
X023068Y018575D01*
X023107Y018481D01*
X023179Y018409D01*
X023273Y018370D01*
X023359Y018370D01*
X023406Y018350D01*
X023273Y018350D01*
X023179Y018311D01*
X023107Y018239D01*
X023068Y018145D01*
X023068Y017827D01*
X023107Y017733D01*
X023179Y017661D01*
X023273Y017622D01*
X023847Y017622D01*
X023941Y017661D01*
X024013Y017733D01*
X024052Y017827D01*
X024052Y017842D01*
X024701Y017842D01*
X024701Y017438D01*
X024740Y017344D01*
X024812Y017272D01*
X024906Y017233D01*
X025252Y017233D01*
X025252Y017147D01*
X025222Y017159D01*
X024744Y017159D01*
X024650Y017120D01*
X024580Y017050D01*
X022554Y017050D01*
X022431Y016999D01*
X022235Y016802D01*
X022140Y016708D01*
X022089Y016585D01*
X022089Y016558D01*
X022088Y016557D01*
X022016Y016485D01*
X021977Y016391D01*
X021977Y016073D01*
X022016Y015979D01*
X022088Y015907D01*
X022180Y015869D01*
X022040Y015869D01*
X021970Y015939D01*
X021876Y015978D01*
X021666Y015978D01*
X021578Y016067D01*
X021578Y016137D01*
X021617Y016177D01*
X021656Y016271D01*
X021656Y016766D01*
X021617Y016860D01*
X021545Y016932D01*
X021451Y016971D01*
X020916Y016971D01*
X020822Y016932D01*
X020762Y016872D01*
X020752Y016874D01*
X020554Y016874D01*
X020554Y016558D01*
X020475Y016558D01*
X020475Y016479D01*
X020139Y016479D01*
X020139Y016301D01*
X020150Y016260D01*
X020171Y016224D01*
X020200Y016194D01*
X020234Y016175D01*
X020217Y016175D01*
X020123Y016136D01*
X020053Y016067D01*
X014748Y016067D01*
X014406Y016410D01*
X014282Y016461D01*
X014149Y016461D01*
X014146Y016460D01*
X013818Y016460D01*
X013794Y016519D01*
X013822Y016586D01*
X013822Y017066D01*
X013879Y017089D01*
X018766Y017089D01*
X018918Y017152D01*
X020627Y018861D01*
X022141Y018861D01*
X022141Y018734D01*
X022118Y018648D02*
X021426Y018648D01*
X020666Y018648D02*
X020414Y018648D01*
X020297Y018532D02*
X020603Y018532D01*
X020602Y018415D02*
X020181Y018415D01*
X020064Y018298D02*
X020602Y018298D01*
X020602Y018182D02*
X019948Y018182D01*
X019831Y018065D02*
X020602Y018065D01*
X020650Y017949D02*
X019714Y017949D01*
X019598Y017832D02*
X022148Y017832D01*
X022141Y017949D02*
X021443Y017949D01*
X022536Y017949D02*
X022536Y017949D01*
X022536Y017832D02*
X022536Y017832D01*
X022925Y017832D02*
X023068Y017832D01*
X023068Y017949D02*
X022932Y017949D01*
X022948Y018065D02*
X023068Y018065D01*
X023083Y018182D02*
X023020Y018182D01*
X023028Y018298D02*
X023166Y018298D01*
X023173Y018415D02*
X023028Y018415D01*
X023023Y018532D02*
X023086Y018532D01*
X023061Y018648D02*
X022954Y018648D01*
X022945Y018765D02*
X022932Y018765D01*
X023531Y019348D02*
X024275Y019348D01*
X024324Y019397D02*
X024075Y019148D01*
X023731Y019148D01*
X023482Y019397D01*
X023874Y019397D01*
X023874Y019694D01*
X023913Y019694D01*
X023913Y019397D01*
X024324Y019397D01*
X024159Y019231D02*
X023647Y019231D01*
X023874Y019465D02*
X023913Y019465D01*
X023913Y019581D02*
X023874Y019581D01*
X023874Y019698D02*
X022483Y019698D01*
X022476Y019814D02*
X023046Y019814D01*
X022968Y019931D02*
X022405Y019931D01*
X022386Y020048D02*
X022949Y020048D01*
X022949Y020164D02*
X022070Y020164D01*
X021991Y020164D02*
X016538Y020164D01*
X016538Y020048D02*
X021674Y020048D01*
X021656Y019931D02*
X016538Y019931D01*
X016538Y020281D02*
X021674Y020281D01*
X021674Y020239D02*
X021991Y020239D01*
X021991Y020575D01*
X021813Y020575D01*
X021772Y020564D01*
X021736Y020543D01*
X021706Y020514D01*
X021685Y020478D01*
X021674Y020437D01*
X021674Y020239D01*
X021674Y020397D02*
X016538Y020397D01*
X016538Y020514D02*
X021706Y020514D01*
X021991Y020514D02*
X022070Y020514D01*
X022070Y020397D02*
X021991Y020397D01*
X021991Y020281D02*
X022070Y020281D01*
X022386Y020281D02*
X022949Y020281D01*
X022950Y020397D02*
X022386Y020397D01*
X022354Y020514D02*
X022949Y020514D01*
X022949Y020631D02*
X016538Y020631D01*
X016538Y020747D02*
X022949Y020747D01*
X022949Y020864D02*
X016538Y020864D01*
X016538Y020981D02*
X022949Y020981D01*
X022949Y021097D02*
X016538Y021097D01*
X016538Y021214D02*
X022949Y021214D01*
X022949Y021330D02*
X016538Y021330D01*
X016538Y021447D02*
X022949Y021447D01*
X022949Y021564D02*
X016538Y021564D01*
X016538Y021680D02*
X022949Y021680D01*
X022949Y021797D02*
X016538Y021797D01*
X016538Y021913D02*
X022995Y021913D01*
X023046Y022056D02*
X023874Y022056D01*
X023874Y022095D01*
X023046Y022095D01*
X023046Y022254D01*
X023056Y022295D01*
X023077Y022331D01*
X023107Y022360D01*
X023143Y022381D01*
X023184Y022392D01*
X023874Y022392D01*
X023874Y022095D01*
X023913Y022095D01*
X023913Y022056D01*
X024742Y022056D01*
X024742Y021964D01*
X024800Y021906D01*
X024838Y021812D01*
X024838Y021395D01*
X024827Y021367D01*
X024838Y021339D01*
X024838Y020922D01*
X024827Y020895D01*
X024838Y020867D01*
X024838Y020450D01*
X024827Y020422D01*
X024838Y020394D01*
X024838Y019978D01*
X024800Y019883D01*
X024742Y019826D01*
X024742Y019814D01*
X024742Y019814D01*
X025130Y020202D01*
X025130Y020301D01*
X025169Y020395D01*
X025241Y020467D01*
X025335Y020506D01*
X025813Y020506D01*
X025907Y020467D01*
X025979Y020395D01*
X026018Y020301D01*
X026018Y019823D01*
X025979Y019729D01*
X025907Y019657D01*
X025813Y019618D01*
X025714Y019618D01*
X025219Y019123D01*
X025322Y019123D01*
X025350Y019111D01*
X025378Y019123D01*
X025795Y019123D01*
X025823Y019111D01*
X025851Y019123D01*
X026267Y019123D01*
X026295Y019111D01*
X026323Y019123D01*
X026740Y019123D01*
X026768Y019111D01*
X026795Y019123D01*
X027212Y019123D01*
X027240Y019111D01*
X027268Y019123D01*
X027685Y019123D01*
X027712Y019111D01*
X027740Y019123D01*
X028157Y019123D01*
X028185Y019111D01*
X028213Y019123D01*
X028630Y019123D01*
X028657Y019111D01*
X028685Y019123D01*
X029102Y019123D01*
X029130Y019111D01*
X029158Y019123D01*
X029574Y019123D01*
X029602Y019111D01*
X029630Y019123D01*
X030047Y019123D01*
X030075Y019111D01*
X030103Y019123D01*
X030519Y019123D01*
X030547Y019111D01*
X030575Y019123D01*
X030869Y019123D01*
X030869Y022745D01*
X030575Y022745D01*
X030481Y022784D01*
X030423Y022842D01*
X030331Y022842D01*
X030331Y023670D01*
X030291Y023670D01*
X030291Y022842D01*
X030199Y022842D01*
X030141Y022784D01*
X030047Y022745D01*
X029630Y022745D01*
X029602Y022756D01*
X029574Y022745D01*
X029158Y022745D01*
X029130Y022756D01*
X029102Y022745D01*
X028685Y022745D01*
X028657Y022756D01*
X028630Y022745D01*
X028213Y022745D01*
X028185Y022756D01*
X028157Y022745D01*
X027740Y022745D01*
X027712Y022756D01*
X027685Y022745D01*
X027268Y022745D01*
X027240Y022756D01*
X027212Y022745D01*
X026795Y022745D01*
X026768Y022756D01*
X026740Y022745D01*
X026323Y022745D01*
X026295Y022756D01*
X026267Y022745D01*
X025851Y022745D01*
X025823Y022756D01*
X025795Y022745D01*
X025378Y022745D01*
X025284Y022784D01*
X025226Y022842D01*
X025134Y022842D01*
X025134Y023670D01*
X025094Y023670D01*
X025094Y023710D01*
X025094Y024538D01*
X024936Y024538D01*
X024895Y024527D01*
X024859Y024506D01*
X024829Y024476D01*
X024808Y024440D01*
X024798Y024400D01*
X024798Y023710D01*
X025094Y023710D01*
X025134Y023710D01*
X025134Y024538D01*
X025200Y024538D01*
X025200Y024816D01*
X025169Y024847D01*
X025130Y024941D01*
X025130Y025419D01*
X025169Y025513D01*
X025241Y025585D01*
X025335Y025624D01*
X025813Y025624D01*
X025907Y025585D01*
X025979Y025513D01*
X026018Y025419D01*
X026018Y024941D01*
X025979Y024847D01*
X025948Y024816D01*
X025948Y024635D01*
X026267Y024635D01*
X026295Y024623D01*
X026323Y024635D01*
X026740Y024635D01*
X026768Y024623D01*
X026795Y024635D01*
X027212Y024635D01*
X027240Y024623D01*
X027268Y024635D01*
X027685Y024635D01*
X027712Y024623D01*
X027740Y024635D01*
X028157Y024635D01*
X028185Y024623D01*
X028213Y024635D01*
X028630Y024635D01*
X028657Y024623D01*
X028685Y024635D01*
X029102Y024635D01*
X029130Y024623D01*
X029158Y024635D01*
X029574Y024635D01*
X029602Y024623D01*
X029630Y024635D01*
X030047Y024635D01*
X030141Y024596D01*
X030199Y024538D01*
X030291Y024538D01*
X030291Y023710D01*
X030331Y023710D01*
X030331Y024538D01*
X030423Y024538D01*
X030481Y024596D01*
X030575Y024635D01*
X030869Y024635D01*
X030869Y026670D01*
X027977Y029563D01*
X023021Y029563D01*
X023233Y029074D01*
X023309Y028524D01*
X023233Y027974D01*
X023233Y027974D01*
X023012Y027465D01*
X023012Y027465D01*
X022662Y027034D01*
X022662Y027034D01*
X022662Y027034D01*
X022208Y026714D01*
X022208Y026714D01*
X021685Y026528D01*
X021685Y026528D01*
X021131Y026490D01*
X021131Y026490D01*
X020588Y026603D01*
X020588Y026603D01*
X020095Y026858D01*
X020095Y026858D01*
X019689Y027237D01*
X019689Y027237D01*
X019401Y027712D01*
X019401Y027712D01*
X019353Y027881D01*
X019353Y026772D01*
X019314Y026676D01*
X019240Y026603D01*
X019144Y026563D01*
X013059Y026563D01*
X011757Y026172D01*
X011912Y026063D01*
X011912Y026063D01*
X012262Y025633D01*
X012262Y025633D01*
X012483Y025124D01*
X012483Y025124D01*
X012559Y024574D01*
X012483Y024024D01*
X012483Y024024D01*
X012262Y023515D01*
X012262Y023515D01*
X011912Y023084D01*
X011912Y023084D01*
X011912Y023084D01*
X011458Y022764D01*
X011458Y022764D01*
X010935Y022578D01*
X010935Y022578D01*
X010381Y022540D01*
X010381Y022540D01*
X009838Y022653D01*
X009679Y022735D01*
X009679Y022385D01*
X011478Y022385D01*
X011478Y022632D01*
X011517Y022727D01*
X011589Y022799D01*
X011683Y022837D01*
X012178Y022837D01*
X012272Y022799D01*
X012344Y022727D01*
X012383Y022632D01*
X012383Y021962D01*
X012780Y022359D01*
X012780Y022632D01*
X012819Y022727D01*
X012891Y022799D01*
X012985Y022837D01*
X013349Y022837D01*
X013349Y024475D01*
X013412Y024627D01*
X013529Y024743D01*
X013680Y024806D01*
X014025Y024806D01*
X014046Y024857D01*
X014118Y024929D01*
X014212Y024968D01*
X014845Y024968D01*
X014939Y024929D01*
X015008Y024859D01*
X015033Y024859D01*
X015102Y024929D01*
X015196Y024968D01*
X015829Y024968D01*
X015923Y024929D01*
X015995Y024857D01*
X016034Y024763D01*
X016034Y024129D01*
X016034Y024246D02*
X018880Y024246D01*
X018880Y024362D02*
X016034Y024362D01*
X016034Y024479D02*
X018880Y024479D01*
X018880Y024595D02*
X016034Y024595D01*
X016034Y024712D02*
X018880Y024712D01*
X018880Y024829D02*
X016007Y024829D01*
X015883Y024945D02*
X018880Y024945D01*
X018880Y025062D02*
X012492Y025062D01*
X012508Y024945D02*
X014158Y024945D01*
X014034Y024829D02*
X012524Y024829D01*
X012540Y024712D02*
X013498Y024712D01*
X013399Y024595D02*
X012556Y024595D01*
X012546Y024479D02*
X013351Y024479D01*
X013349Y024362D02*
X012530Y024362D01*
X012514Y024246D02*
X013349Y024246D01*
X013349Y024129D02*
X012498Y024129D01*
X012478Y024012D02*
X013349Y024012D01*
X013349Y023896D02*
X012428Y023896D01*
X012377Y023779D02*
X013349Y023779D01*
X013349Y023663D02*
X012326Y023663D01*
X012276Y023546D02*
X013349Y023546D01*
X013349Y023429D02*
X012193Y023429D01*
X012098Y023313D02*
X013349Y023313D01*
X013349Y023196D02*
X012003Y023196D01*
X011906Y023080D02*
X013349Y023080D01*
X013349Y022963D02*
X011740Y022963D01*
X011575Y022846D02*
X013349Y022846D01*
X012822Y022730D02*
X012341Y022730D01*
X012383Y022613D02*
X012780Y022613D01*
X012780Y022496D02*
X012383Y022496D01*
X012383Y022380D02*
X012780Y022380D01*
X012684Y022263D02*
X012383Y022263D01*
X012383Y022147D02*
X012568Y022147D01*
X012451Y022030D02*
X012383Y022030D01*
X013037Y021447D02*
X013319Y021447D01*
X013319Y021330D02*
X012920Y021330D01*
X012804Y021214D02*
X013319Y021214D01*
X013192Y021097D02*
X013152Y021097D01*
X013152Y021126D02*
X012915Y021126D01*
X012875Y021116D01*
X012838Y021095D01*
X012809Y021065D01*
X012788Y021029D01*
X012777Y020988D01*
X012777Y020830D01*
X013152Y020830D01*
X013152Y021126D01*
X013152Y020981D02*
X013192Y020981D01*
X013192Y020864D02*
X013152Y020864D01*
X012777Y020864D02*
X012414Y020864D01*
X012571Y020981D02*
X012777Y020981D01*
X012843Y021097D02*
X012687Y021097D01*
X012777Y020747D02*
X011702Y020747D01*
X012355Y020160D02*
X013113Y020160D01*
X013172Y020101D01*
X012868Y020508D02*
X012838Y020525D01*
X012809Y020555D01*
X012788Y020591D01*
X012777Y020631D01*
X012680Y019963D02*
X012355Y019963D01*
X012680Y019963D02*
X013172Y019471D01*
X013231Y019471D01*
X012759Y019348D02*
X012150Y019348D01*
X012150Y019231D02*
X012759Y019231D01*
X012812Y019115D02*
X012150Y019115D01*
X012129Y018998D02*
X014038Y018998D01*
X014038Y018882D02*
X010890Y018882D01*
X010860Y018765D02*
X014038Y018765D01*
X014038Y018648D02*
X010860Y018648D01*
X010805Y018532D02*
X014038Y018532D01*
X014353Y018093D02*
X014353Y020849D01*
X013960Y021243D01*
X013763Y021243D01*
X013352Y021564D02*
X013154Y021564D01*
X011478Y022496D02*
X009679Y022496D01*
X009679Y022613D02*
X010030Y022613D01*
X009690Y022730D02*
X009679Y022730D01*
X009162Y023080D02*
X007129Y023080D01*
X007129Y023196D02*
X009037Y023196D01*
X008924Y023313D02*
X007129Y023313D01*
X007092Y023429D02*
X008853Y023429D01*
X008782Y023546D02*
X007032Y023546D01*
X007032Y023663D02*
X008711Y023663D01*
X008646Y023779D02*
X006715Y023779D01*
X006715Y023782D02*
X007032Y023782D01*
X007032Y023980D01*
X007021Y024021D01*
X007000Y024057D01*
X006971Y024087D01*
X006934Y024108D01*
X006894Y024119D01*
X006715Y024119D01*
X006715Y023782D01*
X006637Y023782D02*
X006637Y024119D01*
X006458Y024119D01*
X006418Y024108D01*
X006382Y024087D01*
X006352Y024057D01*
X006331Y024021D01*
X006320Y023980D01*
X006320Y023782D01*
X006637Y023782D01*
X006637Y023779D02*
X006145Y023779D01*
X006145Y023663D02*
X006320Y023663D01*
X006320Y023546D02*
X006145Y023546D01*
X006145Y023429D02*
X006260Y023429D01*
X006223Y023313D02*
X006145Y023313D01*
X006123Y023196D02*
X006223Y023196D01*
X006145Y023080D02*
X006145Y023080D01*
X007129Y022963D02*
X008839Y022963D01*
X008613Y023896D02*
X007032Y023896D01*
X007023Y024012D02*
X008581Y024012D01*
X008548Y024129D02*
X004946Y024129D01*
X005273Y023896D02*
X004169Y023896D01*
X004557Y024012D02*
X005429Y024012D01*
X005335Y024246D02*
X008515Y024246D01*
X008501Y024362D02*
X005723Y024362D01*
X006112Y024479D02*
X008501Y024479D01*
X008501Y024595D02*
X006501Y024595D01*
X006889Y024712D02*
X008501Y024712D01*
X008501Y024829D02*
X007278Y024829D01*
X007667Y024945D02*
X008527Y024945D01*
X008560Y025062D02*
X008056Y025062D01*
X008444Y025179D02*
X008593Y025179D01*
X006715Y024012D02*
X006637Y024012D01*
X006637Y023896D02*
X006715Y023896D01*
X006320Y023896D02*
X006111Y023896D01*
X005954Y024012D02*
X006329Y024012D01*
X005246Y023831D02*
X005246Y023831D01*
X005194Y023779D02*
X003780Y023779D01*
X003391Y023663D02*
X005077Y023663D01*
X004961Y023546D02*
X003002Y023546D01*
X003295Y023313D02*
X002281Y023313D01*
X002281Y023196D02*
X003222Y023196D01*
X002921Y023080D02*
X002281Y023080D01*
X002281Y022963D02*
X002805Y022963D01*
X002688Y022846D02*
X002281Y022846D01*
X002281Y022730D02*
X002619Y022730D01*
X002601Y022613D02*
X002281Y022613D01*
X002281Y022496D02*
X002601Y022496D01*
X002601Y022380D02*
X002281Y022380D01*
X002281Y022263D02*
X002601Y022263D01*
X002601Y022147D02*
X002281Y022147D01*
X002281Y022030D02*
X002601Y022030D01*
X002601Y021913D02*
X002281Y021913D01*
X002281Y021797D02*
X002601Y021797D01*
X002601Y021680D02*
X002281Y021680D01*
X002281Y021564D02*
X002601Y021564D01*
X002601Y021447D02*
X002281Y021447D01*
X002281Y021330D02*
X002619Y021330D01*
X002689Y021214D02*
X002281Y021214D01*
X002281Y021097D02*
X002805Y021097D01*
X002922Y020981D02*
X002281Y020981D01*
X002281Y020864D02*
X003389Y020864D01*
X003389Y020747D02*
X002281Y020747D01*
X002266Y020631D02*
X003389Y020631D01*
X003389Y020514D02*
X002183Y020514D01*
X002684Y020281D02*
X002802Y020281D01*
X002802Y020164D02*
X002684Y020164D01*
X002684Y020048D02*
X002802Y020048D01*
X005111Y019540D02*
X005899Y019540D01*
X005899Y019796D01*
X005531Y019814D02*
X005380Y019814D01*
X005899Y019284D02*
X006469Y019284D01*
X006479Y019274D01*
X007267Y019581D02*
X008645Y019581D01*
X008645Y019465D02*
X007878Y019465D01*
X007897Y019348D02*
X008645Y019348D01*
X008645Y019231D02*
X007897Y019231D01*
X008543Y019115D02*
X008645Y019115D01*
X009136Y019348D02*
X009175Y019348D01*
X009175Y019465D02*
X009136Y019465D01*
X009136Y019581D02*
X009175Y019581D01*
X009550Y019581D02*
X009784Y019581D01*
X009784Y019465D02*
X009550Y019465D01*
X009515Y019348D02*
X009795Y019348D01*
X009784Y019698D02*
X009550Y019698D01*
X008054Y018290D02*
X008841Y017503D01*
X009102Y017715D02*
X013122Y017715D01*
X013122Y017599D02*
X009219Y017599D01*
X009335Y017482D02*
X013122Y017482D01*
X013122Y017366D02*
X012602Y017366D01*
X013159Y017832D02*
X008958Y017832D01*
X008251Y017306D02*
X007660Y017897D01*
X006479Y017897D01*
X006086Y018290D01*
X006479Y018684D02*
X006873Y018290D01*
X008054Y018290D01*
X007995Y017089D02*
X008755Y016329D01*
X008849Y016235D01*
X008972Y016184D01*
X011065Y016184D01*
X011460Y015789D01*
X011460Y015468D01*
X011510Y015345D01*
X011707Y015148D01*
X011801Y015054D01*
X011924Y015003D01*
X012165Y015003D01*
X012168Y014996D01*
X012240Y014924D01*
X012317Y014892D01*
X012287Y014874D01*
X012257Y014845D01*
X012237Y014808D01*
X012226Y014768D01*
X012226Y014589D01*
X012542Y014589D01*
X012542Y014511D01*
X012226Y014511D01*
X012226Y014332D01*
X012237Y014292D01*
X012257Y014256D01*
X012287Y014226D01*
X012323Y014205D01*
X012364Y014194D01*
X012542Y014194D01*
X012542Y014511D01*
X012621Y014511D01*
X012621Y014194D01*
X012799Y014194D01*
X012840Y014205D01*
X012876Y014226D01*
X012906Y014256D01*
X012927Y014292D01*
X012931Y014307D01*
X012955Y014248D01*
X013027Y014176D01*
X013033Y014173D01*
X013033Y013696D01*
X013076Y013592D01*
X013017Y013616D01*
X012539Y013616D01*
X012445Y013577D01*
X012373Y013505D01*
X012334Y013411D01*
X012334Y012933D01*
X012373Y012839D01*
X012397Y012815D01*
X012358Y012799D01*
X012297Y012738D01*
X012288Y012741D01*
X012089Y012741D01*
X012089Y012424D01*
X012011Y012424D01*
X012011Y012741D01*
X011813Y012741D01*
X011772Y012730D01*
X011736Y012709D01*
X011706Y012679D01*
X011685Y012643D01*
X011674Y012603D01*
X011674Y012424D01*
X012011Y012424D01*
X012011Y012345D01*
X012089Y012345D01*
X012089Y012029D01*
X012288Y012029D01*
X012297Y012031D01*
X012358Y011971D01*
X012452Y011932D01*
X012916Y011932D01*
X012916Y011310D01*
X012955Y011216D01*
X013027Y011144D01*
X013034Y011141D01*
X013034Y010810D01*
X012956Y010810D01*
X012956Y011205D01*
X012777Y011205D01*
X012737Y011194D01*
X012700Y011173D01*
X012671Y011144D01*
X012650Y011108D01*
X012639Y011067D01*
X012639Y010810D01*
X012956Y010810D01*
X012956Y010731D01*
X012639Y010731D01*
X012639Y010534D01*
X011338Y010534D01*
X011222Y010486D01*
X011202Y010467D01*
X010965Y010467D01*
X010871Y010428D01*
X010799Y010356D01*
X010760Y010262D01*
X010760Y009944D01*
X010747Y009944D01*
X010632Y009896D01*
X010543Y009807D01*
X010089Y009353D01*
X009901Y009353D01*
X009906Y009372D01*
X009906Y009609D01*
X009609Y009609D01*
X009609Y009649D01*
X009570Y009649D01*
X009570Y010024D01*
X009570Y010200D01*
X009609Y010200D01*
X009609Y010239D01*
X009570Y010239D01*
X009570Y010615D01*
X009411Y010615D01*
X009371Y010604D01*
X009334Y010583D01*
X009332Y010581D01*
X009322Y010606D01*
X009316Y010612D01*
X009571Y010868D01*
X010236Y010868D01*
X010239Y010862D01*
X010311Y010790D01*
X010405Y010751D01*
X010940Y010751D01*
X011007Y010779D01*
X011074Y010751D01*
X011609Y010751D01*
X011691Y010785D01*
X011752Y010760D01*
X012230Y010760D01*
X012324Y010799D01*
X012396Y010871D01*
X012435Y010965D01*
X012435Y011443D01*
X012396Y011537D01*
X012324Y011609D01*
X012230Y011648D01*
X011752Y011648D01*
X011691Y011622D01*
X011609Y011656D01*
X011074Y011656D01*
X011007Y011629D01*
X010940Y011656D01*
X010405Y011656D01*
X010311Y011617D01*
X010278Y011585D01*
X010278Y013459D01*
X010239Y013553D01*
X010239Y013554D01*
X010239Y013647D01*
X010270Y013721D01*
X010270Y014199D01*
X010231Y014293D01*
X010159Y014365D01*
X010065Y014404D01*
X009587Y014404D01*
X009493Y014365D01*
X009421Y014293D01*
X009382Y014199D01*
X009382Y013721D01*
X009412Y013647D01*
X009412Y013554D01*
X009412Y013553D01*
X009380Y013476D01*
X009362Y013506D01*
X009333Y013536D01*
X009297Y013557D01*
X009256Y013567D01*
X009078Y013567D01*
X009078Y012542D01*
X008999Y012542D01*
X008999Y012463D01*
X009078Y012463D01*
X009078Y011438D01*
X009192Y011438D01*
X008504Y010751D01*
X007799Y010751D01*
X007798Y010752D01*
X007798Y011270D01*
X007747Y011393D01*
X007653Y011487D01*
X007530Y011538D01*
X006724Y011538D01*
X006725Y011539D01*
X006811Y011748D01*
X006811Y011974D01*
X006725Y012183D01*
X006683Y012225D01*
X006725Y012267D01*
X006811Y012476D01*
X006811Y012702D01*
X006725Y012911D01*
X006683Y012954D01*
X006725Y012996D01*
X006811Y013205D01*
X006811Y013431D01*
X006725Y013640D01*
X006683Y013682D01*
X006725Y013724D01*
X006811Y013933D01*
X006811Y014159D01*
X006725Y014368D01*
X006565Y014528D01*
X006356Y014615D01*
X006130Y014615D01*
X005921Y014528D01*
X005906Y014513D01*
X005891Y014528D01*
X005682Y014615D01*
X005594Y014615D01*
X005902Y014832D01*
X005902Y014832D01*
X006252Y015263D01*
X006474Y015772D01*
X006476Y015790D01*
X006724Y015790D01*
X006714Y015752D01*
X006714Y015534D01*
X007030Y015534D01*
X007030Y015456D01*
X006714Y015456D01*
X006714Y015238D01*
X006725Y015197D01*
X006746Y015161D01*
X006775Y015131D01*
X006812Y015111D01*
X006852Y015100D01*
X007030Y015100D01*
X007030Y015456D01*
X007109Y015456D01*
X007109Y015534D01*
X007426Y015534D01*
X007426Y015752D01*
X007415Y015790D01*
X007727Y015790D01*
X007850Y015841D01*
X007944Y015935D01*
X007995Y016058D01*
X007995Y017089D01*
X007995Y017016D02*
X008068Y017016D01*
X007995Y016899D02*
X008184Y016899D01*
X008301Y016783D02*
X007995Y016783D01*
X007995Y016666D02*
X008418Y016666D01*
X008534Y016549D02*
X007995Y016549D01*
X007995Y016433D02*
X008651Y016433D01*
X008767Y016316D02*
X007995Y016316D01*
X007995Y016200D02*
X008934Y016200D01*
X007995Y016083D02*
X011166Y016083D01*
X011283Y015966D02*
X007957Y015966D01*
X007858Y015850D02*
X011399Y015850D01*
X011460Y015733D02*
X007426Y015733D01*
X007426Y015616D02*
X011460Y015616D01*
X011460Y015500D02*
X007109Y015500D01*
X007109Y015456D02*
X007426Y015456D01*
X007426Y015238D01*
X007415Y015197D01*
X007394Y015161D01*
X007364Y015131D01*
X007328Y015111D01*
X007288Y015100D01*
X007109Y015100D01*
X007109Y015456D01*
X007109Y015383D02*
X007030Y015383D01*
X007030Y015267D02*
X007109Y015267D01*
X007109Y015150D02*
X007030Y015150D01*
X006757Y015150D02*
X006161Y015150D01*
X006252Y015263D02*
X006252Y015263D01*
X006254Y015267D02*
X006714Y015267D01*
X006714Y015383D02*
X006305Y015383D01*
X006355Y015500D02*
X007030Y015500D01*
X006714Y015616D02*
X006406Y015616D01*
X006457Y015733D02*
X006714Y015733D01*
X006474Y015772D02*
X006474Y015772D01*
X006066Y015033D02*
X007619Y015033D01*
X007619Y014917D02*
X005971Y014917D01*
X005902Y014832D02*
X005902Y014832D01*
X005857Y014800D02*
X007619Y014800D01*
X007619Y014684D02*
X005692Y014684D01*
X005797Y014567D02*
X006015Y014567D01*
X006471Y014567D02*
X008034Y014567D01*
X008034Y014609D02*
X008034Y014491D01*
X007619Y014491D01*
X007619Y013860D01*
X007630Y013819D01*
X007651Y013783D01*
X007681Y013754D01*
X007717Y013733D01*
X007757Y013722D01*
X008034Y013722D01*
X008034Y014491D01*
X008152Y014491D01*
X008152Y013722D01*
X008429Y013722D01*
X008470Y013733D01*
X008506Y013754D01*
X008536Y013783D01*
X008557Y013819D01*
X008567Y013860D01*
X008567Y014491D01*
X008152Y014491D01*
X008152Y014609D01*
X008034Y014609D01*
X007619Y014609D01*
X007619Y015240D01*
X007630Y015281D01*
X007651Y015317D01*
X007681Y015347D01*
X007717Y015368D01*
X007757Y015378D01*
X008034Y015378D01*
X008034Y014609D01*
X008034Y014684D02*
X008152Y014684D01*
X008152Y014609D02*
X008152Y015378D01*
X008429Y015378D01*
X008470Y015368D01*
X008506Y015347D01*
X008536Y015317D01*
X008557Y015281D01*
X008567Y015240D01*
X008567Y014609D01*
X008152Y014609D01*
X008152Y014567D02*
X010711Y014567D01*
X010711Y014609D02*
X010711Y014491D01*
X010297Y014491D01*
X010297Y013860D01*
X010307Y013819D01*
X010328Y013783D01*
X010358Y013754D01*
X010394Y013733D01*
X010435Y013722D01*
X010711Y013722D01*
X010711Y014491D01*
X010830Y014491D01*
X010830Y014609D01*
X011245Y014609D01*
X011245Y015240D01*
X011234Y015281D01*
X011213Y015317D01*
X011183Y015347D01*
X011147Y015368D01*
X011106Y015378D01*
X010830Y015378D01*
X010830Y014609D01*
X010711Y014609D01*
X010297Y014609D01*
X010297Y015240D01*
X010307Y015281D01*
X010328Y015317D01*
X010358Y015347D01*
X010394Y015368D01*
X010435Y015378D01*
X010711Y015378D01*
X010711Y014609D01*
X010711Y014684D02*
X010830Y014684D01*
X010830Y014800D02*
X010711Y014800D01*
X010711Y014917D02*
X010830Y014917D01*
X010830Y015033D02*
X010711Y015033D01*
X010711Y015150D02*
X010830Y015150D01*
X010830Y015267D02*
X010711Y015267D01*
X010304Y015267D02*
X008560Y015267D01*
X008567Y015150D02*
X010297Y015150D01*
X010297Y015033D02*
X008567Y015033D01*
X008567Y014917D02*
X010297Y014917D01*
X010297Y014800D02*
X008567Y014800D01*
X008567Y014684D02*
X010297Y014684D01*
X010297Y014450D02*
X008567Y014450D01*
X008567Y014334D02*
X009462Y014334D01*
X009389Y014217D02*
X008567Y014217D01*
X008567Y014101D02*
X009382Y014101D01*
X009382Y013984D02*
X008567Y013984D01*
X008567Y013867D02*
X009382Y013867D01*
X009382Y013751D02*
X008501Y013751D01*
X008726Y013517D02*
X006776Y013517D01*
X006811Y013401D02*
X008682Y013401D01*
X008682Y013429D02*
X008682Y012542D01*
X008999Y012542D01*
X008999Y013567D01*
X008820Y013567D01*
X008780Y013557D01*
X008744Y013536D01*
X008714Y013506D01*
X008693Y013470D01*
X008682Y013429D01*
X008682Y013284D02*
X006811Y013284D01*
X006796Y013168D02*
X008682Y013168D01*
X008682Y013051D02*
X006748Y013051D01*
X006702Y012934D02*
X008682Y012934D01*
X008682Y012818D02*
X006764Y012818D01*
X006811Y012701D02*
X008682Y012701D01*
X008682Y012585D02*
X006811Y012585D01*
X006808Y012468D02*
X008999Y012468D01*
X008999Y012463D02*
X008682Y012463D01*
X008682Y011576D01*
X008693Y011536D01*
X008714Y011500D01*
X008744Y011470D01*
X008780Y011449D01*
X008820Y011438D01*
X008999Y011438D01*
X008999Y012463D01*
X008999Y012351D02*
X009078Y012351D01*
X009078Y012235D02*
X008999Y012235D01*
X008999Y012118D02*
X009078Y012118D01*
X009078Y012002D02*
X008999Y012002D01*
X008999Y011885D02*
X009078Y011885D01*
X009078Y011768D02*
X008999Y011768D01*
X008999Y011652D02*
X009078Y011652D01*
X009078Y011535D02*
X008999Y011535D01*
X009172Y011418D02*
X007722Y011418D01*
X007785Y011302D02*
X009055Y011302D01*
X008939Y011185D02*
X007798Y011185D01*
X007798Y011069D02*
X008822Y011069D01*
X008705Y010952D02*
X007798Y010952D01*
X007798Y010835D02*
X008589Y010835D01*
X009323Y010602D02*
X009368Y010602D01*
X009422Y010719D02*
X012639Y010719D01*
X012639Y010835D02*
X012361Y010835D01*
X012430Y010952D02*
X012639Y010952D01*
X012639Y011069D02*
X012435Y011069D01*
X012435Y011185D02*
X012721Y011185D01*
X012920Y011302D02*
X012435Y011302D01*
X012435Y011418D02*
X012916Y011418D01*
X012916Y011535D02*
X012397Y011535D01*
X012327Y012002D02*
X010278Y012002D01*
X010278Y012118D02*
X011690Y012118D01*
X011685Y012126D02*
X011706Y012090D01*
X011736Y012061D01*
X011772Y012040D01*
X011813Y012029D01*
X012011Y012029D01*
X012011Y012345D01*
X011674Y012345D01*
X011674Y012167D01*
X011685Y012126D01*
X011674Y012235D02*
X010278Y012235D01*
X010278Y012351D02*
X012011Y012351D01*
X012011Y012235D02*
X012089Y012235D01*
X012089Y012118D02*
X012011Y012118D01*
X012011Y012468D02*
X012089Y012468D01*
X012089Y012585D02*
X012011Y012585D01*
X012011Y012701D02*
X012089Y012701D01*
X012395Y012818D02*
X010278Y012818D01*
X010278Y012934D02*
X012334Y012934D01*
X012334Y013051D02*
X010278Y013051D01*
X010278Y013168D02*
X012334Y013168D01*
X012334Y013284D02*
X010278Y013284D01*
X010278Y013401D02*
X012334Y013401D01*
X012386Y013517D02*
X010254Y013517D01*
X010239Y013634D02*
X013059Y013634D01*
X013033Y013751D02*
X011178Y013751D01*
X011183Y013754D02*
X011213Y013783D01*
X011234Y013819D01*
X011245Y013860D01*
X011245Y014491D01*
X010830Y014491D01*
X010830Y013722D01*
X011106Y013722D01*
X011147Y013733D01*
X011183Y013754D01*
X011245Y013867D02*
X013033Y013867D01*
X013033Y013984D02*
X011245Y013984D01*
X011245Y014101D02*
X013033Y014101D01*
X012986Y014217D02*
X012861Y014217D01*
X012621Y014217D02*
X012542Y014217D01*
X012542Y014334D02*
X012621Y014334D01*
X012621Y014450D02*
X012542Y014450D01*
X012542Y014567D02*
X010830Y014567D01*
X010830Y014450D02*
X010711Y014450D01*
X010711Y014334D02*
X010830Y014334D01*
X010830Y014217D02*
X010711Y014217D01*
X010711Y014101D02*
X010830Y014101D01*
X010830Y013984D02*
X010711Y013984D01*
X010711Y013867D02*
X010830Y013867D01*
X010830Y013751D02*
X010711Y013751D01*
X010363Y013751D02*
X010270Y013751D01*
X010270Y013867D02*
X010297Y013867D01*
X010297Y013984D02*
X010270Y013984D01*
X010270Y014101D02*
X010297Y014101D01*
X010297Y014217D02*
X010262Y014217D01*
X010297Y014334D02*
X010190Y014334D01*
X009412Y013634D02*
X006727Y013634D01*
X006736Y013751D02*
X007686Y013751D01*
X007619Y013867D02*
X006784Y013867D01*
X006811Y013984D02*
X007619Y013984D01*
X007619Y014101D02*
X006811Y014101D01*
X006787Y014217D02*
X007619Y014217D01*
X007619Y014334D02*
X006739Y014334D01*
X006643Y014450D02*
X007619Y014450D01*
X008034Y014450D02*
X008152Y014450D01*
X008152Y014334D02*
X008034Y014334D01*
X008034Y014217D02*
X008152Y014217D01*
X008152Y014101D02*
X008034Y014101D01*
X008034Y013984D02*
X008152Y013984D01*
X008152Y013867D02*
X008034Y013867D01*
X008034Y013751D02*
X008152Y013751D01*
X008999Y013517D02*
X009078Y013517D01*
X009078Y013401D02*
X008999Y013401D01*
X008999Y013284D02*
X009078Y013284D01*
X009078Y013168D02*
X008999Y013168D01*
X008999Y013051D02*
X009078Y013051D01*
X009078Y012934D02*
X008999Y012934D01*
X008999Y012818D02*
X009078Y012818D01*
X009078Y012701D02*
X008999Y012701D01*
X008999Y012585D02*
X009078Y012585D01*
X008682Y012351D02*
X006760Y012351D01*
X006692Y012235D02*
X008682Y012235D01*
X008682Y012118D02*
X006752Y012118D01*
X006800Y012002D02*
X008682Y012002D01*
X008682Y011885D02*
X006811Y011885D01*
X006811Y011768D02*
X008682Y011768D01*
X008682Y011652D02*
X006772Y011652D01*
X007538Y011535D02*
X008694Y011535D01*
X009539Y010835D02*
X010265Y010835D01*
X009874Y010553D02*
X009845Y010583D01*
X009808Y010604D01*
X009768Y010615D01*
X009609Y010615D01*
X009609Y010239D01*
X009906Y010239D01*
X009906Y010477D01*
X009895Y010517D01*
X009874Y010553D01*
X009904Y010486D02*
X011221Y010486D01*
X011400Y010219D02*
X011204Y010023D01*
X011400Y010219D02*
X011991Y010219D01*
X013369Y010219D01*
X013743Y010593D01*
X013834Y010239D02*
X013991Y010239D01*
X014085Y010278D01*
X014157Y010350D01*
X014196Y010444D01*
X014196Y011097D01*
X014157Y011191D01*
X014085Y011263D01*
X013991Y011302D01*
X018822Y011302D01*
X018822Y011271D02*
X018861Y011177D01*
X018921Y011116D01*
X018919Y011106D01*
X018919Y010908D01*
X019235Y010908D01*
X019235Y010830D01*
X018919Y010830D01*
X018919Y010631D01*
X018929Y010591D01*
X018950Y010555D01*
X018980Y010525D01*
X019016Y010504D01*
X019057Y010493D01*
X019235Y010493D01*
X019235Y010830D01*
X019314Y010830D01*
X019314Y010908D01*
X019630Y010908D01*
X019630Y011066D01*
X019923Y011066D01*
X020376Y010613D01*
X019838Y010075D01*
X019759Y010043D01*
X019687Y009971D01*
X019649Y009877D01*
X019649Y009482D01*
X019232Y009482D01*
X019138Y009443D01*
X019066Y009371D01*
X019027Y009277D01*
X019027Y008799D01*
X019066Y008705D01*
X019138Y008633D01*
X019232Y008594D01*
X019710Y008594D01*
X019804Y008633D01*
X019875Y008704D01*
X020632Y008704D01*
X019923Y007995D01*
X019011Y007995D01*
X018888Y007944D01*
X018794Y007850D01*
X018721Y007777D01*
X018721Y008184D01*
X018393Y008513D01*
X017928Y008513D01*
X017599Y008184D01*
X017599Y008169D01*
X017353Y008416D01*
X017195Y008416D01*
X017195Y007986D01*
X017126Y007986D01*
X017126Y007917D01*
X016696Y007917D01*
X016696Y007759D01*
X016943Y007513D01*
X016928Y007513D01*
X016599Y007184D01*
X016599Y006719D01*
X016867Y006452D01*
X016599Y006184D01*
X016599Y005719D01*
X016826Y005493D01*
X016826Y005377D01*
X016877Y005254D01*
X016971Y005160D01*
X017313Y004818D01*
X017436Y004767D01*
X018554Y004767D01*
X018677Y004818D01*
X018771Y004912D01*
X019216Y005357D01*
X020100Y005357D01*
X020027Y005284D01*
X020001Y005309D01*
X019907Y005348D01*
X019429Y005348D01*
X019335Y005309D01*
X019263Y005237D01*
X019224Y005143D01*
X019224Y004747D01*
X018978Y004747D01*
X018883Y004708D01*
X018811Y004636D01*
X018792Y004589D01*
X018576Y004589D01*
X018556Y004636D01*
X018484Y004708D01*
X018390Y004747D01*
X017107Y004747D01*
X017013Y004708D01*
X016941Y004636D01*
X016902Y004542D01*
X016902Y003968D01*
X016941Y003874D01*
X017013Y003802D01*
X017107Y003763D01*
X018390Y003763D01*
X018484Y003802D01*
X018556Y003874D01*
X018576Y003920D01*
X018792Y003920D01*
X018811Y003874D01*
X018883Y003802D01*
X018978Y003763D01*
X020260Y003763D01*
X020354Y003802D01*
X020426Y003874D01*
X020465Y003968D01*
X020465Y004542D01*
X020426Y004636D01*
X020376Y004686D01*
X020575Y004885D01*
X020821Y004885D01*
X020916Y004924D01*
X020987Y004996D01*
X021026Y005090D01*
X021026Y005625D01*
X020999Y005692D01*
X021026Y005759D01*
X021026Y005797D01*
X021039Y005802D01*
X021133Y005896D01*
X021185Y005948D01*
X021935Y005948D01*
X021971Y005862D01*
X022031Y005801D01*
X022029Y005791D01*
X022029Y005593D01*
X022345Y005593D01*
X022345Y005515D01*
X022029Y005515D01*
X022029Y005317D01*
X022040Y005276D01*
X022061Y005240D01*
X022090Y005210D01*
X022126Y005189D01*
X022167Y005178D01*
X022345Y005178D01*
X022345Y005515D01*
X022424Y005515D01*
X022424Y005178D01*
X022603Y005178D01*
X022643Y005189D01*
X022679Y005210D01*
X022709Y005240D01*
X022730Y005276D01*
X022741Y005317D01*
X022741Y005387D01*
X022760Y005368D01*
X022796Y005347D01*
X022836Y005336D01*
X023034Y005336D01*
X023034Y005652D01*
X023113Y005652D01*
X023113Y005336D01*
X023311Y005336D01*
X023321Y005339D01*
X023381Y005278D01*
X023408Y005267D01*
X023408Y004787D01*
X023374Y004753D01*
X021195Y004753D01*
X021101Y004714D01*
X021029Y004642D01*
X020990Y004548D01*
X020990Y003686D01*
X021029Y003592D01*
X021101Y003520D01*
X021195Y003481D01*
X023397Y003481D01*
X023491Y003520D01*
X023563Y003592D01*
X023602Y003686D01*
X023602Y004034D01*
X024027Y004459D01*
X024078Y004582D01*
X024078Y005267D01*
X024104Y005278D01*
X024176Y005350D01*
X024196Y005397D01*
X024215Y005350D01*
X024287Y005278D01*
X024314Y005267D01*
X024314Y004582D01*
X024365Y004459D01*
X024790Y004034D01*
X024790Y003686D01*
X024829Y003592D01*
X024901Y003520D01*
X024995Y003481D01*
X027197Y003481D01*
X027291Y003520D01*
X027363Y003592D01*
X027402Y003686D01*
X027402Y004548D01*
X027363Y004642D01*
X027291Y004714D01*
X027197Y004753D01*
X025017Y004753D01*
X024983Y004787D01*
X024983Y005267D01*
X025010Y005278D01*
X025071Y005339D01*
X025080Y005336D01*
X025278Y005336D01*
X025278Y005652D01*
X025357Y005652D01*
X025357Y005336D01*
X025555Y005336D01*
X025596Y005347D01*
X025632Y005368D01*
X025662Y005397D01*
X025683Y005434D01*
X025693Y005474D01*
X025693Y005652D01*
X025357Y005652D01*
X025357Y005731D01*
X025278Y005731D01*
X025278Y006048D01*
X025080Y006048D01*
X025071Y006045D01*
X025010Y006106D01*
X024916Y006145D01*
X024892Y006145D01*
X024964Y006216D01*
X025003Y006310D01*
X025003Y006806D01*
X025001Y006810D01*
X025109Y006810D01*
X025184Y006841D01*
X025259Y006810D01*
X025424Y006810D01*
X025499Y006841D01*
X025574Y006810D01*
X025739Y006810D01*
X025814Y006841D01*
X025889Y006810D01*
X026054Y006810D01*
X026174Y006860D01*
X026266Y006952D01*
X026316Y007072D01*
X026316Y007611D01*
X026266Y007731D01*
X026263Y007735D01*
X026263Y007798D01*
X026218Y007906D01*
X026135Y007989D01*
X026135Y007989D01*
X025697Y008427D01*
X025817Y008427D01*
X025868Y008441D01*
X025895Y008457D01*
X026150Y008202D01*
X026233Y008119D01*
X026248Y008113D01*
X026249Y008111D01*
X026245Y008090D01*
X026245Y008050D01*
X026245Y008010D01*
X026254Y007965D01*
X026272Y007923D01*
X026297Y007886D01*
X026329Y007854D01*
X026366Y007829D01*
X026408Y007811D01*
X026453Y007802D01*
X026680Y007802D01*
X026907Y007802D01*
X026952Y007811D01*
X026994Y007829D01*
X027031Y007854D01*
X027063Y007886D01*
X027088Y007923D01*
X027098Y007947D01*
X027098Y007618D01*
X027137Y007524D01*
X027209Y007452D01*
X027303Y007413D01*
X027781Y007413D01*
X027875Y007452D01*
X027947Y007524D01*
X027986Y007618D01*
X027986Y008034D01*
X028110Y008034D01*
X028113Y008027D01*
X028173Y007967D01*
X028171Y007957D01*
X028171Y007759D01*
X028487Y007759D01*
X028487Y007680D01*
X028171Y007680D01*
X028171Y007482D01*
X028181Y007441D01*
X028202Y007405D01*
X028232Y007376D01*
X028268Y007355D01*
X028309Y007344D01*
X028487Y007344D01*
X028487Y007680D01*
X028566Y007680D01*
X028566Y007759D01*
X028882Y007759D01*
X028882Y007957D01*
X028880Y007967D01*
X028940Y008027D01*
X028951Y008054D01*
X029070Y008054D01*
X029090Y008034D01*
X029184Y007995D01*
X029758Y007995D01*
X029853Y008034D01*
X029904Y008086D01*
X029956Y008034D01*
X030050Y007995D01*
X030625Y007995D01*
X030719Y008034D01*
X030791Y008106D01*
X030794Y008113D01*
X030948Y008113D01*
X030948Y004452D01*
X027869Y004452D01*
X027746Y004401D01*
X027652Y004307D01*
X027601Y004184D01*
X027601Y003271D01*
X020783Y003271D01*
X020660Y003220D01*
X020566Y003125D01*
X020515Y003002D01*
X020515Y002483D01*
X020348Y002483D01*
X020358Y002500D01*
X020369Y002541D01*
X020369Y002739D01*
X019678Y002739D01*
X019678Y002857D01*
X020369Y002857D01*
X020369Y003055D01*
X020358Y003096D01*
X020337Y003132D01*
X020307Y003162D01*
X020271Y003183D01*
X020230Y003193D01*
X019678Y003193D01*
X019678Y002857D01*
X019560Y002857D01*
X019560Y002739D01*
X018869Y002739D01*
X018869Y002541D01*
X018880Y002500D01*
X018890Y002483D01*
X018478Y002483D01*
X018488Y002500D01*
X018499Y002541D01*
X018499Y002739D01*
X017808Y002739D01*
X017808Y002857D01*
X018499Y002857D01*
X018499Y003055D01*
X018488Y003096D01*
X018467Y003132D01*
X018437Y003162D01*
X018401Y003183D01*
X018360Y003193D01*
X017808Y003193D01*
X017808Y002857D01*
X017690Y002857D01*
X017690Y002739D01*
X016999Y002739D01*
X016999Y002541D01*
X017010Y002500D01*
X017020Y002483D01*
X014394Y002483D01*
X014394Y002680D01*
X014058Y002680D01*
X014058Y002798D01*
X014394Y002798D01*
X014394Y003095D01*
X014383Y003135D01*
X014362Y003171D01*
X014333Y003201D01*
X014297Y003222D01*
X014256Y003233D01*
X014058Y003233D01*
X014058Y002798D01*
X013940Y002798D01*
X013940Y003203D01*
X013949Y003212D01*
X013970Y003249D01*
X013981Y003289D01*
X013981Y003507D01*
X013981Y003725D01*
X013970Y003765D01*
X013949Y003801D01*
X013919Y003831D01*
X013883Y003852D01*
X013843Y003863D01*
X013723Y003863D01*
X013710Y003863D01*
X013652Y003921D01*
X013558Y003960D01*
X013431Y003960D01*
X013410Y003981D01*
X013410Y004550D01*
X013704Y004550D01*
X013704Y004539D01*
X013743Y004444D01*
X013815Y004373D01*
X013909Y004334D01*
X014404Y004334D01*
X014498Y004373D01*
X014570Y004444D01*
X014609Y004539D01*
X014609Y005192D01*
X014606Y005200D01*
X014778Y005200D01*
X014872Y005239D01*
X014944Y005311D01*
X014983Y005405D01*
X014983Y005711D01*
X015031Y005758D01*
X015082Y005881D01*
X015082Y007128D01*
X016745Y008791D01*
X016954Y008791D01*
X017049Y008830D01*
X017120Y008902D01*
X017159Y008996D01*
X017159Y009474D01*
X017120Y009568D01*
X017049Y009640D01*
X016954Y009679D01*
X016476Y009679D01*
X016382Y009640D01*
X016310Y009568D01*
X016271Y009474D01*
X016271Y009264D01*
X014557Y007550D01*
X014530Y007523D01*
X014530Y009265D01*
X014561Y009296D01*
X014600Y009390D01*
X014600Y009868D01*
X014561Y009962D01*
X014489Y010034D01*
X014395Y010073D01*
X013917Y010073D01*
X013823Y010034D01*
X013751Y009962D01*
X013712Y009868D01*
X013712Y009390D01*
X013751Y009296D01*
X013782Y009265D01*
X013782Y009197D01*
X013743Y009197D01*
X013743Y008881D01*
X013664Y008881D01*
X013664Y009197D01*
X013466Y009197D01*
X013456Y009195D01*
X013396Y009255D01*
X013302Y009294D01*
X012767Y009294D01*
X012685Y009260D01*
X012624Y009285D01*
X012386Y009285D01*
X012396Y009296D01*
X012435Y009390D01*
X012435Y009868D01*
X012420Y009904D01*
X013432Y009904D01*
X013547Y009952D01*
X013636Y010041D01*
X013834Y010239D01*
X013731Y010136D02*
X019899Y010136D01*
X020015Y010252D02*
X014023Y010252D01*
X014165Y010369D02*
X020132Y010369D01*
X020249Y010486D02*
X014196Y010486D01*
X014196Y010602D02*
X018926Y010602D01*
X018919Y010719D02*
X014196Y010719D01*
X014196Y010835D02*
X019235Y010835D01*
X019314Y010835D02*
X020154Y010835D01*
X020270Y010719D02*
X019630Y010719D01*
X019630Y010631D02*
X019630Y010830D01*
X019314Y010830D01*
X019314Y010493D01*
X019492Y010493D01*
X019533Y010504D01*
X019569Y010525D01*
X019599Y010555D01*
X019620Y010591D01*
X019630Y010631D01*
X019623Y010602D02*
X020365Y010602D01*
X020037Y010952D02*
X019630Y010952D01*
X019314Y010719D02*
X019235Y010719D01*
X019235Y010602D02*
X019314Y010602D01*
X018919Y010952D02*
X014196Y010952D01*
X014196Y011069D02*
X018919Y011069D01*
X018857Y011185D02*
X014159Y011185D01*
X013991Y011302D02*
X013818Y011302D01*
X013822Y011310D01*
X013822Y011963D01*
X013786Y012049D01*
X016313Y012049D01*
X016382Y011980D01*
X016476Y011941D01*
X016954Y011941D01*
X017049Y011980D01*
X017120Y012052D01*
X017159Y012146D01*
X017159Y012624D01*
X017152Y012641D01*
X018348Y012641D01*
X018940Y012049D01*
X018940Y011975D01*
X018933Y011972D01*
X018861Y011900D01*
X018822Y011806D01*
X018822Y011271D01*
X018822Y011418D02*
X013822Y011418D01*
X013822Y011535D02*
X018822Y011535D01*
X018822Y011652D02*
X013822Y011652D01*
X013822Y011768D02*
X018822Y011768D01*
X018855Y011885D02*
X013822Y011885D01*
X013806Y012002D02*
X016361Y012002D01*
X017070Y012002D02*
X018940Y012002D01*
X018871Y012118D02*
X017148Y012118D01*
X017159Y012235D02*
X018754Y012235D01*
X018638Y012351D02*
X017159Y012351D01*
X017159Y012468D02*
X018521Y012468D01*
X018405Y012585D02*
X017159Y012585D01*
X015938Y013822D02*
X015867Y013751D01*
X015773Y013712D01*
X015295Y013712D01*
X015201Y013751D01*
X015129Y013823D01*
X015090Y013917D01*
X015090Y014395D01*
X015129Y014489D01*
X015201Y014561D01*
X015295Y014600D01*
X015681Y014600D01*
X015681Y014986D01*
X015720Y015080D01*
X015792Y015152D01*
X015886Y015191D01*
X016364Y015191D01*
X016458Y015152D01*
X016530Y015080D01*
X016569Y014986D01*
X016569Y014885D01*
X016862Y014885D01*
X016862Y015183D01*
X016901Y015277D01*
X016973Y015349D01*
X017067Y015388D01*
X017545Y015388D01*
X017639Y015349D01*
X017709Y015278D01*
X021200Y015278D01*
X021193Y015295D01*
X021193Y015505D01*
X020959Y015738D01*
X020908Y015861D01*
X020908Y016069D01*
X020822Y016105D01*
X020762Y016165D01*
X020752Y016163D01*
X020725Y016163D01*
X020789Y016136D01*
X020861Y016064D01*
X020900Y015970D01*
X020900Y015492D01*
X020861Y015398D01*
X020789Y015326D01*
X020695Y015287D01*
X020217Y015287D01*
X020123Y015326D01*
X020053Y015395D01*
X014542Y015395D01*
X014419Y015446D01*
X014324Y015541D01*
X014075Y015790D01*
X013751Y015790D01*
X013711Y015750D01*
X013664Y015731D01*
X013711Y015712D01*
X013783Y015640D01*
X013822Y015546D01*
X013822Y015011D01*
X013794Y014944D01*
X013822Y014877D01*
X013822Y014342D01*
X013783Y014248D01*
X013711Y014176D01*
X013705Y014173D01*
X013705Y013902D01*
X013903Y013704D01*
X019144Y013704D01*
X019267Y013653D01*
X019361Y013559D01*
X020012Y012908D01*
X020012Y013214D01*
X020051Y013308D01*
X020123Y013380D01*
X020217Y013419D01*
X020695Y013419D01*
X020789Y013380D01*
X020861Y013308D01*
X020900Y013214D01*
X020900Y012736D01*
X020861Y012642D01*
X020791Y012573D01*
X020791Y011933D01*
X021134Y011591D01*
X021135Y011588D01*
X021210Y011513D01*
X021193Y011555D01*
X021193Y012033D01*
X021232Y012127D01*
X021268Y012164D01*
X021263Y012176D01*
X021263Y012711D01*
X021302Y012805D01*
X021362Y012866D01*
X021360Y012876D01*
X021360Y013074D01*
X021676Y013074D01*
X021676Y013152D01*
X021360Y013152D01*
X021360Y013351D01*
X021370Y013391D01*
X021391Y013427D01*
X021421Y013457D01*
X021457Y013478D01*
X021498Y013489D01*
X021676Y013489D01*
X021676Y013152D01*
X021755Y013152D01*
X022071Y013152D01*
X022071Y013351D01*
X022060Y013391D01*
X022040Y013427D01*
X022010Y013457D01*
X021974Y013478D01*
X021933Y013489D01*
X021755Y013489D01*
X021755Y013152D01*
X021755Y013074D01*
X022071Y013074D01*
X022071Y012876D01*
X022069Y012866D01*
X022129Y012805D01*
X022168Y012711D01*
X022168Y012176D01*
X022129Y012082D01*
X022081Y012034D01*
X022081Y012033D01*
X022081Y011555D01*
X022076Y011544D01*
X022383Y011544D01*
X022492Y011499D01*
X022523Y011499D01*
X022523Y011529D01*
X022477Y011639D01*
X022477Y012178D01*
X022483Y012192D01*
X022483Y012531D01*
X022382Y012531D01*
X022288Y012570D01*
X022216Y012642D01*
X022177Y012736D01*
X022177Y013214D01*
X022216Y013308D01*
X022288Y013380D01*
X022382Y013419D01*
X022860Y013419D01*
X022954Y013380D01*
X023026Y013308D01*
X023028Y013303D01*
X023034Y013317D01*
X023106Y013389D01*
X023200Y013428D01*
X023735Y013428D01*
X023829Y013389D01*
X023889Y013329D01*
X023899Y013331D01*
X024097Y013331D01*
X024097Y013015D01*
X024176Y013015D01*
X024176Y013331D01*
X024374Y013331D01*
X024415Y013320D01*
X024451Y013299D01*
X024452Y013299D01*
X024452Y013822D01*
X015938Y013822D01*
X015866Y013751D02*
X024452Y013751D01*
X024452Y013634D02*
X019286Y013634D01*
X019402Y013517D02*
X024452Y013517D01*
X024452Y013401D02*
X023800Y013401D01*
X024097Y013284D02*
X024176Y013284D01*
X024176Y013168D02*
X024097Y013168D01*
X024097Y013051D02*
X024176Y013051D01*
X024176Y012936D02*
X024176Y012619D01*
X024374Y012619D01*
X024415Y012630D01*
X024451Y012651D01*
X024452Y012652D01*
X024452Y012440D01*
X024314Y012440D01*
X024239Y012409D01*
X024164Y012440D01*
X023999Y012440D01*
X023924Y012409D01*
X023849Y012440D01*
X023786Y012440D01*
X023786Y012544D01*
X023829Y012561D01*
X023889Y012622D01*
X023899Y012619D01*
X024097Y012619D01*
X024097Y012936D01*
X024176Y012936D01*
X024176Y012934D02*
X024097Y012934D01*
X024097Y012818D02*
X024176Y012818D01*
X024176Y012701D02*
X024097Y012701D01*
X023852Y012585D02*
X024452Y012585D01*
X024452Y012468D02*
X023786Y012468D01*
X023134Y013401D02*
X022904Y013401D01*
X022337Y013401D02*
X022055Y013401D01*
X022071Y013284D02*
X022206Y013284D01*
X022177Y013168D02*
X022071Y013168D01*
X022071Y013051D02*
X022177Y013051D01*
X022177Y012934D02*
X022071Y012934D01*
X022117Y012818D02*
X022177Y012818D01*
X022168Y012701D02*
X022191Y012701D01*
X022168Y012585D02*
X022274Y012585D01*
X022168Y012468D02*
X022483Y012468D01*
X022483Y012351D02*
X022168Y012351D01*
X022168Y012235D02*
X022483Y012235D01*
X022477Y012118D02*
X022144Y012118D01*
X022081Y012002D02*
X022477Y012002D01*
X022477Y011885D02*
X022081Y011885D01*
X022081Y011768D02*
X022477Y011768D01*
X022477Y011652D02*
X022081Y011652D01*
X022405Y011535D02*
X022520Y011535D01*
X021201Y011535D02*
X021188Y011535D01*
X021193Y011652D02*
X021073Y011652D01*
X020956Y011768D02*
X021193Y011768D01*
X021193Y011885D02*
X020840Y011885D01*
X020791Y012002D02*
X021193Y012002D01*
X021228Y012118D02*
X020791Y012118D01*
X020791Y012235D02*
X021263Y012235D01*
X021263Y012351D02*
X020791Y012351D01*
X020791Y012468D02*
X021263Y012468D01*
X021263Y012585D02*
X020803Y012585D01*
X020885Y012701D02*
X021263Y012701D01*
X021314Y012818D02*
X020900Y012818D01*
X020900Y012934D02*
X021360Y012934D01*
X021360Y013051D02*
X020900Y013051D01*
X020900Y013168D02*
X021360Y013168D01*
X021360Y013284D02*
X020871Y013284D01*
X020739Y013401D02*
X021376Y013401D01*
X021676Y013401D02*
X021755Y013401D01*
X021755Y013284D02*
X021676Y013284D01*
X021676Y013168D02*
X021755Y013168D01*
X020172Y013401D02*
X019519Y013401D01*
X019636Y013284D02*
X020041Y013284D01*
X020012Y013168D02*
X019752Y013168D01*
X019869Y013051D02*
X020012Y013051D01*
X020012Y012934D02*
X019985Y012934D01*
X016862Y014917D02*
X016569Y014917D01*
X016549Y015033D02*
X016862Y015033D01*
X016862Y015150D02*
X016460Y015150D01*
X016897Y015267D02*
X013822Y015267D01*
X013822Y015383D02*
X017056Y015383D01*
X017556Y015383D02*
X020065Y015383D01*
X020069Y016083D02*
X014732Y016083D01*
X014616Y016200D02*
X020195Y016200D01*
X020139Y016316D02*
X014499Y016316D01*
X014350Y016433D02*
X020139Y016433D01*
X020139Y016558D02*
X020475Y016558D01*
X020475Y016874D01*
X020277Y016874D01*
X020237Y016864D01*
X020200Y016843D01*
X020171Y016813D01*
X020150Y016777D01*
X020139Y016736D01*
X020139Y016558D01*
X020139Y016666D02*
X013822Y016666D01*
X013822Y016783D02*
X020153Y016783D01*
X020475Y016783D02*
X020554Y016783D01*
X020554Y016666D02*
X020475Y016666D01*
X020475Y016549D02*
X013807Y016549D01*
X013822Y016899D02*
X020789Y016899D01*
X021579Y016899D02*
X022331Y016899D01*
X022215Y016783D02*
X021650Y016783D01*
X021656Y016666D02*
X022123Y016666D01*
X022080Y016549D02*
X021656Y016549D01*
X021656Y016433D02*
X021994Y016433D01*
X021977Y016316D02*
X021656Y016316D01*
X021627Y016200D02*
X021977Y016200D01*
X021977Y016083D02*
X021578Y016083D01*
X021905Y015966D02*
X022029Y015966D01*
X022488Y015868D02*
X022756Y015868D01*
X022851Y015907D01*
X022922Y015979D01*
X022961Y016073D01*
X022961Y016381D01*
X023103Y016381D01*
X023098Y016361D01*
X023098Y016232D01*
X023098Y016169D01*
X023040Y016111D01*
X023001Y016017D01*
X023001Y015699D01*
X023040Y015605D01*
X023098Y015547D01*
X023098Y015484D01*
X023098Y015355D01*
X023109Y015314D01*
X023129Y015278D01*
X022942Y015278D01*
X022961Y015325D01*
X022961Y015643D01*
X022922Y015737D01*
X022851Y015809D01*
X022756Y015848D01*
X022536Y015848D01*
X022488Y015868D01*
X022532Y015850D02*
X023001Y015850D01*
X023001Y015966D02*
X022910Y015966D01*
X022961Y016083D02*
X023028Y016083D01*
X022961Y016200D02*
X023098Y016200D01*
X023098Y016232D02*
X023493Y016232D01*
X023493Y016232D01*
X023493Y016232D01*
X023888Y016232D01*
X023888Y016193D01*
X024972Y016193D01*
X025050Y016271D01*
X024744Y016271D01*
X024650Y016310D01*
X024580Y016381D01*
X023883Y016381D01*
X023888Y016361D01*
X023888Y016232D01*
X023493Y016232D01*
X023098Y016232D01*
X023098Y016316D02*
X022961Y016316D01*
X022924Y015733D02*
X023001Y015733D01*
X023035Y015616D02*
X022961Y015616D01*
X022961Y015500D02*
X023098Y015500D01*
X023098Y015484D02*
X023493Y015484D01*
X023098Y015484D01*
X023098Y015383D02*
X022961Y015383D01*
X023493Y015484D02*
X023493Y015484D01*
X023493Y015484D01*
X023888Y015484D01*
X023888Y015355D01*
X023877Y015314D01*
X023857Y015278D01*
X025050Y015278D01*
X025173Y015227D01*
X025267Y015133D01*
X025319Y015082D01*
X028910Y015082D01*
X028981Y015152D01*
X029075Y015191D01*
X029553Y015191D01*
X029647Y015152D01*
X029719Y015080D01*
X029758Y014986D01*
X029758Y014508D01*
X029751Y014491D01*
X030288Y014491D01*
X030359Y014561D01*
X030453Y014600D01*
X030869Y014600D01*
X030869Y017233D01*
X030575Y017233D01*
X030547Y017245D01*
X030519Y017233D01*
X030103Y017233D01*
X030075Y017245D01*
X030047Y017233D01*
X029630Y017233D01*
X029602Y017245D01*
X029574Y017233D01*
X029158Y017233D01*
X029130Y017245D01*
X029102Y017233D01*
X028685Y017233D01*
X028657Y017245D01*
X028630Y017233D01*
X028213Y017233D01*
X028185Y017245D01*
X028157Y017233D01*
X027740Y017233D01*
X027712Y017245D01*
X027685Y017233D01*
X027268Y017233D01*
X027240Y017245D01*
X027212Y017233D01*
X026795Y017233D01*
X026768Y017245D01*
X026740Y017233D01*
X026323Y017233D01*
X026295Y017245D01*
X026267Y017233D01*
X025921Y017233D01*
X025921Y017158D01*
X025925Y017159D01*
X026403Y017159D01*
X026497Y017120D01*
X026568Y017050D01*
X027729Y017050D01*
X027800Y017120D01*
X027894Y017159D01*
X028372Y017159D01*
X028466Y017120D01*
X028538Y017049D01*
X028577Y016954D01*
X028577Y016476D01*
X028538Y016382D01*
X028466Y016310D01*
X028372Y016271D01*
X027894Y016271D01*
X027800Y016310D01*
X027729Y016381D01*
X026568Y016381D01*
X026497Y016310D01*
X026403Y016271D01*
X025925Y016271D01*
X025921Y016273D01*
X025921Y016268D01*
X025870Y016145D01*
X025776Y016051D01*
X025776Y016051D01*
X025394Y015669D01*
X025394Y015669D01*
X025300Y015574D01*
X025177Y015524D01*
X023888Y015524D01*
X023888Y015484D01*
X023493Y015484D01*
X023888Y015500D02*
X030869Y015500D01*
X030869Y015616D02*
X025342Y015616D01*
X025458Y015733D02*
X030869Y015733D01*
X030869Y015850D02*
X025575Y015850D01*
X025692Y015966D02*
X030869Y015966D01*
X030869Y016083D02*
X025808Y016083D01*
X025893Y016200D02*
X030869Y016200D01*
X030869Y016316D02*
X028472Y016316D01*
X028559Y016433D02*
X030869Y016433D01*
X030869Y016549D02*
X028577Y016549D01*
X028577Y016666D02*
X030869Y016666D01*
X030869Y016783D02*
X028577Y016783D01*
X028577Y016899D02*
X030869Y016899D01*
X030869Y017016D02*
X028551Y017016D01*
X028437Y017132D02*
X030869Y017132D01*
X030869Y015383D02*
X023888Y015383D01*
X023888Y016200D02*
X024978Y016200D01*
X024644Y016316D02*
X023888Y016316D01*
X024679Y017132D02*
X018870Y017132D01*
X019015Y017249D02*
X024867Y017249D01*
X024731Y017366D02*
X019131Y017366D01*
X019248Y017482D02*
X024701Y017482D01*
X024701Y017599D02*
X019365Y017599D01*
X019481Y017715D02*
X023124Y017715D01*
X023996Y017715D02*
X024701Y017715D01*
X024701Y017832D02*
X024052Y017832D01*
X022472Y017016D02*
X013822Y017016D01*
X012542Y016164D02*
X012542Y016086D01*
X012226Y016086D01*
X012226Y015907D01*
X012237Y015867D01*
X012257Y015830D01*
X012287Y015801D01*
X012317Y015783D01*
X012240Y015751D01*
X012168Y015679D01*
X012165Y015672D01*
X012130Y015672D01*
X012129Y015673D01*
X012129Y015995D01*
X012078Y016118D01*
X011984Y016212D01*
X011421Y016774D01*
X012129Y016774D01*
X012129Y016665D01*
X012168Y016570D01*
X012240Y016498D01*
X012317Y016466D01*
X012287Y016449D01*
X012257Y016419D01*
X012237Y016383D01*
X012226Y016343D01*
X012226Y016164D01*
X012542Y016164D01*
X012226Y016200D02*
X011996Y016200D01*
X012092Y016083D02*
X012226Y016083D01*
X012226Y015966D02*
X012129Y015966D01*
X012129Y015850D02*
X012246Y015850D01*
X012222Y015733D02*
X012129Y015733D01*
X012226Y016316D02*
X011879Y016316D01*
X011763Y016433D02*
X012271Y016433D01*
X012189Y016549D02*
X011646Y016549D01*
X011530Y016666D02*
X012129Y016666D01*
X013669Y015733D02*
X014132Y015733D01*
X014249Y015616D02*
X013792Y015616D01*
X013822Y015500D02*
X014365Y015500D01*
X013822Y015150D02*
X015790Y015150D01*
X015701Y015033D02*
X013822Y015033D01*
X013805Y014917D02*
X015681Y014917D01*
X015681Y014800D02*
X013822Y014800D01*
X013822Y014684D02*
X015681Y014684D01*
X015215Y014567D02*
X013822Y014567D01*
X013822Y014450D02*
X015113Y014450D01*
X015090Y014334D02*
X013818Y014334D01*
X013752Y014217D02*
X015090Y014217D01*
X015090Y014101D02*
X013705Y014101D01*
X013705Y013984D02*
X015090Y013984D01*
X015111Y013867D02*
X013739Y013867D01*
X013856Y013751D02*
X015203Y013751D01*
X012916Y011885D02*
X010278Y011885D01*
X010278Y011768D02*
X012916Y011768D01*
X012916Y011652D02*
X011620Y011652D01*
X011341Y011204D02*
X011991Y011204D01*
X012639Y010602D02*
X009811Y010602D01*
X009609Y010602D02*
X009570Y010602D01*
X009570Y010486D02*
X009609Y010486D01*
X009609Y010369D02*
X009570Y010369D01*
X009570Y010252D02*
X009609Y010252D01*
X009609Y010200D02*
X009906Y010200D01*
X009906Y009962D01*
X009896Y009924D01*
X009906Y009886D01*
X009906Y009649D01*
X009609Y009649D01*
X009609Y010200D01*
X009609Y010136D02*
X009570Y010136D01*
X009570Y010019D02*
X009609Y010019D01*
X009609Y009903D02*
X009570Y009903D01*
X009570Y009786D02*
X009609Y009786D01*
X009609Y009669D02*
X009570Y009669D01*
X009906Y009669D02*
X010405Y009669D01*
X010288Y009553D02*
X009906Y009553D01*
X009906Y009436D02*
X010172Y009436D01*
X010219Y009038D02*
X010810Y009629D01*
X011991Y009629D01*
X011991Y007601D01*
X012444Y007334D02*
X012405Y007240D01*
X012344Y007179D01*
X012347Y007169D01*
X012347Y006971D01*
X012030Y006971D01*
X012030Y006893D01*
X012347Y006893D01*
X012347Y006694D01*
X012336Y006654D01*
X012315Y006618D01*
X012295Y006597D01*
X012845Y006597D01*
X013389Y007141D01*
X013389Y007582D01*
X013369Y007590D01*
X013302Y007562D01*
X012767Y007562D01*
X012673Y007601D01*
X012601Y007673D01*
X012562Y007767D01*
X012562Y008262D01*
X012601Y008356D01*
X012655Y008410D01*
X012624Y008397D01*
X012306Y008397D01*
X012306Y008046D01*
X012333Y008035D01*
X012405Y007963D01*
X012444Y007869D01*
X012444Y007334D01*
X012444Y007337D02*
X013389Y007337D01*
X013389Y007220D02*
X012386Y007220D01*
X012347Y007104D02*
X013351Y007104D01*
X013235Y006987D02*
X012347Y006987D01*
X012347Y006871D02*
X013118Y006871D01*
X013002Y006754D02*
X012347Y006754D01*
X012327Y006637D02*
X012885Y006637D01*
X012975Y006282D02*
X011204Y006282D01*
X011204Y003290D01*
X010849Y002936D01*
X010790Y002995D01*
X010416Y002995D01*
X010219Y002995D02*
X010219Y002385D01*
X009826Y002385D02*
X009826Y002995D01*
X009993Y003497D02*
X009352Y003497D01*
X009352Y003397D01*
X009237Y003397D01*
X009237Y003467D01*
X008861Y003467D01*
X008861Y003507D01*
X008822Y003507D01*
X008822Y003804D01*
X008584Y003804D01*
X008544Y003793D01*
X008508Y003772D01*
X008478Y003742D01*
X008457Y003706D01*
X008448Y003671D01*
X008438Y003706D01*
X008418Y003742D01*
X008388Y003772D01*
X008352Y003793D01*
X008311Y003804D01*
X008192Y003804D01*
X008192Y004577D01*
X008141Y004700D01*
X008074Y004767D01*
X008074Y005380D01*
X008011Y005532D01*
X007202Y006341D01*
X008140Y006341D01*
X008397Y006084D01*
X008397Y005846D01*
X008436Y005752D01*
X008508Y005680D01*
X008602Y005641D01*
X008620Y005641D01*
X008586Y005622D01*
X008557Y005593D01*
X008536Y005556D01*
X008525Y005516D01*
X008525Y005337D01*
X008861Y005337D01*
X008861Y005259D01*
X008525Y005259D01*
X008525Y005080D01*
X008536Y005040D01*
X008557Y005004D01*
X008586Y004974D01*
X008623Y004953D01*
X008663Y004942D01*
X008861Y004942D01*
X008861Y005259D01*
X008940Y005259D01*
X008940Y004942D01*
X009138Y004942D01*
X009148Y004945D01*
X009185Y004908D01*
X009185Y004469D01*
X009224Y004374D01*
X009296Y004303D01*
X009324Y004291D01*
X009324Y003810D01*
X009355Y003736D01*
X009352Y003725D01*
X009352Y003556D01*
X009993Y003556D01*
X009993Y003497D01*
X010052Y003497D02*
X010052Y003556D01*
X010693Y003556D01*
X010693Y003725D01*
X010690Y003736D01*
X010721Y003810D01*
X010721Y003972D01*
X010731Y003995D01*
X010731Y005364D01*
X010889Y005522D01*
X010889Y003428D01*
X010693Y003428D01*
X010693Y003497D01*
X010052Y003497D01*
X010693Y003489D02*
X010889Y003489D01*
X010889Y003606D02*
X010693Y003606D01*
X010693Y003722D02*
X010889Y003722D01*
X010889Y003839D02*
X010721Y003839D01*
X010721Y003955D02*
X010889Y003955D01*
X010889Y004072D02*
X010731Y004072D01*
X010731Y004189D02*
X010889Y004189D01*
X010889Y004305D02*
X010731Y004305D01*
X010731Y004422D02*
X010889Y004422D01*
X010889Y004538D02*
X010731Y004538D01*
X010731Y004655D02*
X010889Y004655D01*
X010889Y004772D02*
X010731Y004772D01*
X010731Y004888D02*
X010889Y004888D01*
X010889Y005005D02*
X010731Y005005D01*
X010731Y005122D02*
X010889Y005122D01*
X010889Y005238D02*
X010731Y005238D01*
X010731Y005355D02*
X010889Y005355D01*
X010889Y005471D02*
X010838Y005471D01*
X010810Y005889D02*
X010416Y005495D01*
X010416Y004058D01*
X010219Y004058D02*
X010219Y004708D01*
X010219Y006086D01*
X009629Y005692D02*
X009629Y005298D01*
X009570Y005298D01*
X009629Y005298D02*
X010023Y005298D01*
X010023Y004058D01*
X009324Y004072D02*
X008192Y004072D01*
X008192Y003955D02*
X009324Y003955D01*
X009324Y003839D02*
X008192Y003839D01*
X008429Y003722D02*
X008466Y003722D01*
X008449Y003507D02*
X008192Y003507D01*
X008192Y003467D01*
X008822Y003467D01*
X008822Y003507D01*
X008449Y003507D01*
X008192Y003489D02*
X008822Y003489D01*
X008861Y003489D02*
X009352Y003489D01*
X009352Y003606D02*
X009237Y003606D01*
X009237Y003666D02*
X009226Y003706D01*
X009205Y003742D01*
X009175Y003772D01*
X009139Y003793D01*
X009099Y003804D01*
X008861Y003804D01*
X008861Y003507D01*
X009237Y003507D01*
X009237Y003666D01*
X009216Y003722D02*
X009352Y003722D01*
X009324Y004189D02*
X008192Y004189D01*
X008192Y004305D02*
X009293Y004305D01*
X009204Y004422D02*
X008192Y004422D01*
X008192Y004538D02*
X009185Y004538D01*
X009185Y004655D02*
X008160Y004655D01*
X008074Y004772D02*
X009185Y004772D01*
X009185Y004888D02*
X008074Y004888D01*
X008074Y005005D02*
X008556Y005005D01*
X008525Y005122D02*
X008074Y005122D01*
X008074Y005238D02*
X008525Y005238D01*
X008525Y005355D02*
X008074Y005355D01*
X008036Y005471D02*
X008525Y005471D01*
X008554Y005588D02*
X007955Y005588D01*
X007838Y005705D02*
X008484Y005705D01*
X008408Y005821D02*
X007722Y005821D01*
X007605Y005938D02*
X008397Y005938D01*
X008397Y006054D02*
X007489Y006054D01*
X007372Y006171D02*
X008311Y006171D01*
X008194Y006288D02*
X007255Y006288D01*
X006436Y005938D02*
X006306Y005938D01*
X006319Y006054D02*
X005978Y006054D01*
X005935Y006069D02*
X005935Y006069D01*
X006086Y006288D02*
X003566Y006288D01*
X003566Y006322D02*
X003882Y006322D01*
X003882Y006500D01*
X003872Y006541D01*
X003851Y006577D01*
X003821Y006606D01*
X003785Y006627D01*
X003744Y006638D01*
X003566Y006638D01*
X003566Y006322D01*
X003566Y006243D02*
X003882Y006243D01*
X003882Y006065D01*
X003872Y006024D01*
X003851Y005988D01*
X003821Y005958D01*
X003785Y005937D01*
X003744Y005926D01*
X003566Y005926D01*
X003566Y006243D01*
X003566Y006171D02*
X003487Y006171D01*
X003487Y006054D02*
X003566Y006054D01*
X003566Y005938D02*
X003487Y005938D01*
X003487Y005821D02*
X003566Y005821D01*
X003566Y005705D02*
X003487Y005705D01*
X003487Y005588D02*
X003566Y005588D01*
X003566Y005471D02*
X004058Y005471D01*
X003939Y005360D02*
X003939Y005360D01*
X003936Y005355D02*
X003882Y005355D01*
X003882Y005588D02*
X004183Y005588D01*
X004308Y005705D02*
X003882Y005705D01*
X003817Y005821D02*
X004504Y005821D01*
X004345Y005739D02*
X004345Y005739D01*
X004729Y005938D02*
X003786Y005938D01*
X003880Y006054D02*
X005127Y006054D01*
X005381Y006107D02*
X005381Y006107D01*
X005853Y006521D02*
X003877Y006521D01*
X003882Y006404D02*
X005970Y006404D01*
X006203Y006171D02*
X003882Y006171D01*
X003566Y006404D02*
X003487Y006404D01*
X003487Y006521D02*
X003566Y006521D01*
X003566Y006637D02*
X003487Y006637D01*
X003487Y006754D02*
X003566Y006754D01*
X003566Y006871D02*
X003487Y006871D01*
X003487Y006987D02*
X003566Y006987D01*
X003566Y007104D02*
X004274Y007104D01*
X004274Y007030D02*
X003958Y007030D01*
X003958Y006852D01*
X003969Y006812D01*
X003990Y006775D01*
X004019Y006746D01*
X004056Y006725D01*
X004096Y006714D01*
X004274Y006714D01*
X004274Y007030D01*
X004274Y006987D02*
X004353Y006987D01*
X004353Y006871D02*
X004274Y006871D01*
X004274Y006754D02*
X004353Y006754D01*
X004617Y006754D02*
X004942Y006754D01*
X004942Y006871D02*
X004670Y006871D01*
X004670Y006987D02*
X004942Y006987D01*
X004942Y007104D02*
X004353Y007104D01*
X004670Y007220D02*
X004904Y007220D01*
X004845Y007337D02*
X004654Y007337D01*
X003974Y007337D02*
X003866Y007337D01*
X003882Y007220D02*
X003958Y007220D01*
X003958Y006987D02*
X003882Y006987D01*
X003882Y006871D02*
X003958Y006871D01*
X004011Y006754D02*
X003829Y006754D01*
X003747Y006637D02*
X004963Y006637D01*
X005259Y006637D02*
X005337Y006637D01*
X005337Y006754D02*
X005259Y006754D01*
X005259Y006871D02*
X005337Y006871D01*
X005634Y006637D02*
X005736Y006637D01*
X006458Y005884D02*
X006458Y005884D01*
X006547Y005821D02*
X006553Y005821D01*
X008251Y006676D02*
X008841Y006086D01*
X009080Y006530D02*
X009174Y006491D01*
X009240Y006425D01*
X009278Y006517D01*
X009812Y007050D01*
X009237Y007050D01*
X009237Y006932D01*
X008861Y006932D01*
X008861Y006893D01*
X009237Y006893D01*
X009237Y006734D01*
X009226Y006693D01*
X009205Y006657D01*
X009175Y006628D01*
X009139Y006607D01*
X009099Y006596D01*
X008861Y006596D01*
X008861Y006893D01*
X008822Y006893D01*
X008822Y006596D01*
X008777Y006596D01*
X008843Y006530D01*
X009080Y006530D01*
X009101Y006521D02*
X009283Y006521D01*
X009185Y006637D02*
X009399Y006637D01*
X009516Y006754D02*
X009237Y006754D01*
X009237Y006871D02*
X009633Y006871D01*
X009749Y006987D02*
X009237Y006987D01*
X008861Y006871D02*
X008822Y006871D01*
X008822Y006754D02*
X008861Y006754D01*
X008861Y006637D02*
X008822Y006637D01*
X008900Y007680D02*
X008900Y008251D01*
X008900Y008448D02*
X008290Y008448D01*
X007989Y008620D02*
X006715Y008620D01*
X006715Y008625D02*
X007032Y008625D01*
X007032Y008823D01*
X007021Y008863D01*
X007000Y008900D01*
X006971Y008929D01*
X006934Y008950D01*
X006894Y008961D01*
X006715Y008961D01*
X006715Y008625D01*
X006637Y008620D02*
X003802Y008620D01*
X003802Y008684D02*
X004158Y008684D01*
X004158Y008862D01*
X004147Y008903D01*
X004126Y008939D01*
X004097Y008969D01*
X004060Y008990D01*
X004020Y009000D01*
X003802Y009000D01*
X003802Y008684D01*
X003802Y008736D02*
X003723Y008736D01*
X003723Y008853D02*
X003802Y008853D01*
X003802Y008970D02*
X003723Y008970D01*
X003878Y009203D02*
X003891Y009203D01*
X004095Y008970D02*
X007215Y008970D01*
X007208Y009086D02*
X003210Y009086D01*
X003204Y009203D02*
X003217Y009203D01*
X003357Y008970D02*
X003430Y008970D01*
X003723Y008503D02*
X003802Y008503D01*
X003802Y008387D02*
X003723Y008387D01*
X004147Y008387D02*
X006320Y008387D01*
X006320Y008503D02*
X004158Y008503D01*
X004158Y008736D02*
X006320Y008736D01*
X006328Y008853D02*
X004158Y008853D01*
X004552Y009203D02*
X004565Y009203D01*
X005226Y009203D02*
X005239Y009203D01*
X005900Y009203D02*
X005913Y009203D01*
X006574Y009203D02*
X007208Y009203D01*
X007287Y008853D02*
X007024Y008853D01*
X007032Y008736D02*
X007922Y008736D01*
X008290Y008841D02*
X008900Y008841D01*
X009402Y008853D02*
X009461Y008853D01*
X009461Y008736D02*
X009402Y008736D01*
X009402Y008674D02*
X009402Y009236D01*
X009411Y009234D01*
X009461Y009234D01*
X009461Y008674D01*
X009402Y008674D01*
X009402Y008615D02*
X009461Y008615D01*
X009461Y007974D01*
X009630Y007974D01*
X009641Y007977D01*
X009716Y007946D01*
X009877Y007946D01*
X009901Y007936D01*
X010483Y007936D01*
X010511Y007907D01*
X010177Y007907D01*
X010103Y007877D01*
X009314Y007877D01*
X009295Y007923D01*
X009244Y007974D01*
X009402Y007974D01*
X009402Y008615D01*
X009402Y008503D02*
X009461Y008503D01*
X009461Y008387D02*
X009402Y008387D01*
X009402Y008270D02*
X009461Y008270D01*
X009461Y008153D02*
X009402Y008153D01*
X009402Y008037D02*
X009461Y008037D01*
X009296Y007920D02*
X010498Y007920D01*
X010613Y008251D02*
X009963Y008251D01*
X009963Y008448D02*
X011204Y008448D01*
X011597Y008841D01*
X012406Y009319D02*
X013741Y009319D01*
X013712Y009436D02*
X012435Y009436D01*
X012435Y009553D02*
X013712Y009553D01*
X013712Y009669D02*
X012435Y009669D01*
X012435Y009786D02*
X013712Y009786D01*
X013727Y009903D02*
X012421Y009903D01*
X012956Y010835D02*
X013034Y010835D01*
X013034Y010952D02*
X012956Y010952D01*
X012956Y011069D02*
X013034Y011069D01*
X012986Y011185D02*
X012956Y011185D01*
X013614Y010019D02*
X013809Y010019D01*
X014504Y010019D02*
X019736Y010019D01*
X019659Y009903D02*
X014586Y009903D01*
X014600Y009786D02*
X019649Y009786D01*
X019649Y009669D02*
X016978Y009669D01*
X017127Y009553D02*
X019649Y009553D01*
X019131Y009436D02*
X017159Y009436D01*
X017159Y009319D02*
X019045Y009319D01*
X019027Y009203D02*
X017159Y009203D01*
X017159Y009086D02*
X019027Y009086D01*
X019027Y008970D02*
X017148Y008970D01*
X017071Y008853D02*
X019027Y008853D01*
X019053Y008736D02*
X016690Y008736D01*
X016573Y008620D02*
X019171Y008620D01*
X018635Y008270D02*
X020198Y008270D01*
X020082Y008153D02*
X018721Y008153D01*
X018721Y008037D02*
X019965Y008037D01*
X020315Y008387D02*
X018519Y008387D01*
X018402Y008503D02*
X020432Y008503D01*
X020548Y008620D02*
X019772Y008620D01*
X018864Y007920D02*
X018721Y007920D01*
X018721Y007804D02*
X018748Y007804D01*
X017802Y008387D02*
X017382Y008387D01*
X017498Y008270D02*
X017685Y008270D01*
X017918Y008503D02*
X016457Y008503D01*
X016340Y008387D02*
X016939Y008387D01*
X016968Y008416D02*
X016696Y008144D01*
X016696Y007986D01*
X017126Y007986D01*
X017126Y008416D01*
X016968Y008416D01*
X017126Y008387D02*
X017195Y008387D01*
X017195Y008270D02*
X017126Y008270D01*
X017126Y008153D02*
X017195Y008153D01*
X017195Y008037D02*
X017126Y008037D01*
X017126Y007920D02*
X015874Y007920D01*
X015990Y008037D02*
X016696Y008037D01*
X016706Y008153D02*
X016107Y008153D01*
X016224Y008270D02*
X016822Y008270D01*
X016696Y007804D02*
X015757Y007804D01*
X015641Y007687D02*
X016769Y007687D01*
X016885Y007570D02*
X015524Y007570D01*
X015407Y007454D02*
X016869Y007454D01*
X016752Y007337D02*
X015291Y007337D01*
X015174Y007220D02*
X016636Y007220D01*
X016599Y007104D02*
X015082Y007104D01*
X015082Y006987D02*
X016599Y006987D01*
X016599Y006871D02*
X015082Y006871D01*
X015082Y006754D02*
X016599Y006754D01*
X016681Y006637D02*
X015082Y006637D01*
X015082Y006521D02*
X016798Y006521D01*
X016819Y006404D02*
X015082Y006404D01*
X015082Y006288D02*
X016703Y006288D01*
X016599Y006171D02*
X015082Y006171D01*
X015082Y006054D02*
X016599Y006054D01*
X016599Y005938D02*
X015082Y005938D01*
X015057Y005821D02*
X016599Y005821D01*
X016614Y005705D02*
X014983Y005705D01*
X014983Y005588D02*
X016731Y005588D01*
X016826Y005471D02*
X014983Y005471D01*
X014962Y005355D02*
X016835Y005355D01*
X016893Y005238D02*
X014871Y005238D01*
X014609Y005122D02*
X017009Y005122D01*
X017126Y005005D02*
X014609Y005005D01*
X014609Y004888D02*
X017243Y004888D01*
X017424Y004772D02*
X014609Y004772D01*
X014609Y004655D02*
X016960Y004655D01*
X016902Y004538D02*
X014609Y004538D01*
X014548Y004422D02*
X016902Y004422D01*
X016902Y004305D02*
X013410Y004305D01*
X013410Y004189D02*
X016902Y004189D01*
X016902Y004072D02*
X013410Y004072D01*
X013568Y003955D02*
X016908Y003955D01*
X016976Y003839D02*
X013906Y003839D01*
X013981Y003722D02*
X020990Y003722D01*
X020990Y003839D02*
X020392Y003839D01*
X020460Y003955D02*
X020990Y003955D01*
X020990Y004072D02*
X020465Y004072D01*
X020465Y004189D02*
X020990Y004189D01*
X020990Y004305D02*
X020465Y004305D01*
X020465Y004422D02*
X020990Y004422D01*
X020990Y004538D02*
X020465Y004538D01*
X020407Y004655D02*
X021042Y004655D01*
X020830Y004888D02*
X023408Y004888D01*
X023408Y005005D02*
X020991Y005005D01*
X021026Y005122D02*
X023408Y005122D01*
X023408Y005238D02*
X022707Y005238D01*
X022741Y005355D02*
X022782Y005355D01*
X023034Y005355D02*
X023113Y005355D01*
X023113Y005471D02*
X023034Y005471D01*
X023034Y005588D02*
X023113Y005588D01*
X022424Y005471D02*
X022345Y005471D01*
X022345Y005355D02*
X022424Y005355D01*
X022424Y005238D02*
X022345Y005238D01*
X022062Y005238D02*
X021026Y005238D01*
X021026Y005355D02*
X022029Y005355D01*
X022029Y005471D02*
X021026Y005471D01*
X021026Y005588D02*
X022345Y005588D01*
X022029Y005705D02*
X021004Y005705D01*
X021058Y005821D02*
X022012Y005821D01*
X021939Y005938D02*
X021175Y005938D01*
X020098Y005355D02*
X019214Y005355D01*
X019264Y005238D02*
X019097Y005238D01*
X018981Y005122D02*
X019224Y005122D01*
X019224Y005005D02*
X018864Y005005D01*
X018747Y004888D02*
X019224Y004888D01*
X019224Y004772D02*
X018566Y004772D01*
X018537Y004655D02*
X018831Y004655D01*
X018846Y003839D02*
X018522Y003839D01*
X018460Y003139D02*
X018908Y003139D01*
X018901Y003132D02*
X018880Y003096D01*
X018869Y003055D01*
X018869Y002857D01*
X019560Y002857D01*
X019560Y003193D01*
X019007Y003193D01*
X018967Y003183D01*
X018931Y003162D01*
X018901Y003132D01*
X018869Y003023D02*
X018499Y003023D01*
X018499Y002906D02*
X018869Y002906D01*
X018869Y002673D02*
X018499Y002673D01*
X018499Y002556D02*
X018869Y002556D01*
X019560Y002789D02*
X017808Y002789D01*
X017808Y002906D02*
X017690Y002906D01*
X017690Y002857D02*
X017690Y003193D01*
X017137Y003193D01*
X017097Y003183D01*
X017061Y003162D01*
X017031Y003132D01*
X017010Y003096D01*
X016999Y003055D01*
X016999Y002857D01*
X017690Y002857D01*
X017690Y002789D02*
X014058Y002789D01*
X014058Y002906D02*
X013940Y002906D01*
X013940Y002798D02*
X013940Y002680D01*
X013604Y002680D01*
X013604Y002483D01*
X013528Y002483D01*
X013528Y002680D01*
X013192Y002680D01*
X013192Y002798D01*
X013528Y002798D01*
X013528Y003054D01*
X013558Y003054D01*
X013604Y003073D01*
X013604Y002798D01*
X013940Y002798D01*
X013940Y002789D02*
X013192Y002789D01*
X013074Y002789D02*
X012719Y002789D01*
X012737Y002798D02*
X013074Y002798D01*
X013074Y002680D01*
X012737Y002680D01*
X012737Y002483D01*
X012719Y002483D01*
X012719Y004304D01*
X012738Y004323D01*
X012738Y003775D01*
X012789Y003651D01*
X013054Y003386D01*
X013054Y003259D01*
X013065Y003233D01*
X012876Y003233D01*
X012835Y003222D01*
X012799Y003201D01*
X012769Y003171D01*
X012748Y003135D01*
X012737Y003095D01*
X012737Y002798D01*
X012737Y002906D02*
X012719Y002906D01*
X012719Y003023D02*
X012737Y003023D01*
X012751Y003139D02*
X012719Y003139D01*
X012719Y003256D02*
X013055Y003256D01*
X013054Y003372D02*
X012719Y003372D01*
X012719Y003489D02*
X012951Y003489D01*
X012835Y003606D02*
X012719Y003606D01*
X012719Y003722D02*
X012760Y003722D01*
X012738Y003839D02*
X012719Y003839D01*
X012719Y003955D02*
X012738Y003955D01*
X012738Y004072D02*
X012719Y004072D01*
X012719Y004189D02*
X012738Y004189D01*
X012738Y004305D02*
X012721Y004305D01*
X012050Y004008D02*
X012050Y002547D01*
X011986Y002483D01*
X011900Y002483D01*
X011892Y002491D01*
X011798Y002530D01*
X011302Y002530D01*
X011208Y002491D01*
X011200Y002483D01*
X011152Y002483D01*
X011224Y002555D01*
X011256Y002632D01*
X011273Y002602D01*
X011303Y002572D01*
X011339Y002551D01*
X011380Y002541D01*
X011538Y002541D01*
X011538Y002916D01*
X011578Y002916D01*
X011578Y002956D01*
X011538Y002956D01*
X011538Y003331D01*
X011519Y003331D01*
X011519Y004018D01*
X011536Y004008D01*
X011576Y003997D01*
X011755Y003997D01*
X011755Y004334D01*
X011834Y004334D01*
X011834Y003997D01*
X012012Y003997D01*
X012050Y004008D01*
X012050Y003955D02*
X011519Y003955D01*
X011519Y003839D02*
X012050Y003839D01*
X012050Y003722D02*
X011519Y003722D01*
X011519Y003606D02*
X012050Y003606D01*
X012050Y003489D02*
X011519Y003489D01*
X011519Y003372D02*
X012050Y003372D01*
X012050Y003256D02*
X011851Y003256D01*
X011843Y003270D02*
X011864Y003234D01*
X011874Y003193D01*
X011874Y002956D01*
X011578Y002956D01*
X011578Y003331D01*
X011736Y003331D01*
X011777Y003320D01*
X011813Y003299D01*
X011843Y003270D01*
X011874Y003139D02*
X012050Y003139D01*
X012050Y003023D02*
X011874Y003023D01*
X011874Y002916D02*
X011578Y002916D01*
X011578Y002541D01*
X011736Y002541D01*
X011777Y002551D01*
X011813Y002572D01*
X011843Y002602D01*
X011864Y002638D01*
X011874Y002679D01*
X011874Y002916D01*
X011874Y002906D02*
X012050Y002906D01*
X012050Y002789D02*
X011874Y002789D01*
X011873Y002673D02*
X012050Y002673D01*
X012050Y002556D02*
X011785Y002556D01*
X011578Y002556D02*
X011538Y002556D01*
X011538Y002673D02*
X011578Y002673D01*
X011578Y002789D02*
X011538Y002789D01*
X011538Y002906D02*
X011578Y002906D01*
X011578Y003023D02*
X011538Y003023D01*
X011538Y003139D02*
X011578Y003139D01*
X011578Y003256D02*
X011538Y003256D01*
X011331Y002556D02*
X011224Y002556D01*
X012719Y002556D02*
X012737Y002556D01*
X012737Y002673D02*
X012719Y002673D01*
X013528Y002673D02*
X013604Y002673D01*
X013604Y002556D02*
X013528Y002556D01*
X013528Y002906D02*
X013604Y002906D01*
X013604Y003023D02*
X013528Y003023D01*
X013940Y003023D02*
X014058Y003023D01*
X014058Y003139D02*
X013940Y003139D01*
X013972Y003256D02*
X020747Y003256D01*
X020579Y003139D02*
X020330Y003139D01*
X020369Y003023D02*
X020523Y003023D01*
X020515Y002906D02*
X020369Y002906D01*
X020515Y002789D02*
X019678Y002789D01*
X019678Y002906D02*
X019560Y002906D01*
X019560Y003023D02*
X019678Y003023D01*
X019678Y003139D02*
X019560Y003139D01*
X020369Y002673D02*
X020515Y002673D01*
X020515Y002556D02*
X020369Y002556D01*
X021176Y003489D02*
X013981Y003489D01*
X013981Y003507D02*
X013763Y003507D01*
X013981Y003507D01*
X013981Y003606D02*
X021023Y003606D01*
X020461Y004772D02*
X023393Y004772D01*
X023873Y004305D02*
X024519Y004305D01*
X024635Y004189D02*
X023756Y004189D01*
X023640Y004072D02*
X024752Y004072D01*
X024790Y003955D02*
X023602Y003955D01*
X023602Y003839D02*
X024790Y003839D01*
X024790Y003722D02*
X023602Y003722D01*
X023568Y003606D02*
X024823Y003606D01*
X024976Y003489D02*
X023416Y003489D01*
X023990Y004422D02*
X024402Y004422D01*
X024332Y004538D02*
X024060Y004538D01*
X024078Y004655D02*
X024314Y004655D01*
X024314Y004772D02*
X024078Y004772D01*
X024078Y004888D02*
X024314Y004888D01*
X024314Y005005D02*
X024078Y005005D01*
X024078Y005122D02*
X024314Y005122D01*
X024314Y005238D02*
X024078Y005238D01*
X024178Y005355D02*
X024213Y005355D01*
X024983Y005238D02*
X030948Y005238D01*
X030948Y005122D02*
X024983Y005122D01*
X024983Y005005D02*
X030948Y005005D01*
X030948Y004888D02*
X024983Y004888D01*
X024999Y004772D02*
X030948Y004772D01*
X030948Y004655D02*
X027350Y004655D01*
X027402Y004538D02*
X030948Y004538D01*
X030948Y005355D02*
X025610Y005355D01*
X025693Y005471D02*
X030948Y005471D01*
X030948Y005588D02*
X025693Y005588D01*
X025693Y005731D02*
X025693Y005910D01*
X025683Y005950D01*
X025662Y005986D01*
X025632Y006016D01*
X025596Y006037D01*
X025555Y006048D01*
X025357Y006048D01*
X025357Y005731D01*
X025693Y005731D01*
X025693Y005821D02*
X030948Y005821D01*
X030948Y005705D02*
X025357Y005705D01*
X025357Y005821D02*
X025278Y005821D01*
X025278Y005938D02*
X025357Y005938D01*
X025061Y006054D02*
X030948Y006054D01*
X030948Y005938D02*
X025686Y005938D01*
X025357Y005588D02*
X025278Y005588D01*
X025278Y005471D02*
X025357Y005471D01*
X025357Y005355D02*
X025278Y005355D01*
X024919Y006171D02*
X030948Y006171D01*
X030948Y006288D02*
X024993Y006288D01*
X025003Y006404D02*
X030948Y006404D01*
X030948Y006521D02*
X025003Y006521D01*
X025003Y006637D02*
X030948Y006637D01*
X030948Y006754D02*
X025003Y006754D01*
X026185Y006871D02*
X030948Y006871D01*
X030948Y006987D02*
X026281Y006987D01*
X026316Y007104D02*
X030948Y007104D01*
X030948Y007220D02*
X026316Y007220D01*
X026316Y007337D02*
X030948Y007337D01*
X030948Y007454D02*
X028875Y007454D01*
X028872Y007441D02*
X028882Y007482D01*
X028882Y007680D01*
X028566Y007680D01*
X028566Y007344D01*
X028744Y007344D01*
X028785Y007355D01*
X028821Y007376D01*
X028851Y007405D01*
X028872Y007441D01*
X028882Y007570D02*
X030948Y007570D01*
X030948Y007687D02*
X028566Y007687D01*
X028487Y007687D02*
X027986Y007687D01*
X027986Y007804D02*
X028171Y007804D01*
X028171Y007920D02*
X027986Y007920D01*
X027966Y007570D02*
X028171Y007570D01*
X028178Y007454D02*
X027877Y007454D01*
X027208Y007454D02*
X026316Y007454D01*
X026316Y007570D02*
X027118Y007570D01*
X027098Y007687D02*
X026284Y007687D01*
X026260Y007804D02*
X026447Y007804D01*
X026274Y007920D02*
X026204Y007920D01*
X026245Y008037D02*
X026087Y008037D01*
X026245Y008050D02*
X026339Y008050D01*
X026339Y008050D01*
X026245Y008050D01*
X026198Y008153D02*
X025971Y008153D01*
X026082Y008270D02*
X025854Y008270D01*
X025965Y008387D02*
X025737Y008387D01*
X024456Y008739D02*
X024456Y009274D01*
X024436Y009270D01*
X024436Y009566D01*
X024357Y009566D01*
X024357Y009270D01*
X024337Y009274D01*
X024337Y008739D01*
X024456Y008739D01*
X024456Y008853D02*
X024337Y008853D01*
X024337Y008970D02*
X024456Y008970D01*
X024456Y009086D02*
X024337Y009086D01*
X024337Y009203D02*
X024456Y009203D01*
X024436Y009319D02*
X024357Y009319D01*
X024357Y009436D02*
X024436Y009436D01*
X024436Y009553D02*
X024357Y009553D01*
X024337Y009586D02*
X024041Y009586D01*
X024045Y009566D01*
X023511Y009566D01*
X023511Y009684D01*
X024045Y009684D01*
X024041Y009664D01*
X024337Y009664D01*
X024337Y009586D01*
X024357Y009684D02*
X024357Y009980D01*
X024337Y009976D01*
X024337Y010511D01*
X024456Y010511D01*
X024456Y009976D01*
X024436Y009980D01*
X024436Y009684D01*
X024357Y009684D01*
X024456Y009664D02*
X024752Y009664D01*
X024748Y009684D01*
X025282Y009684D01*
X025282Y009566D01*
X024748Y009566D01*
X024752Y009586D01*
X024456Y009586D01*
X024456Y009664D01*
X024436Y009786D02*
X024357Y009786D01*
X024357Y009903D02*
X024436Y009903D01*
X024456Y010019D02*
X024337Y010019D01*
X024337Y010136D02*
X024456Y010136D01*
X024456Y010252D02*
X024337Y010252D01*
X024337Y010369D02*
X024456Y010369D01*
X024456Y010486D02*
X024337Y010486D01*
X024042Y009669D02*
X023511Y009669D01*
X024751Y009669D02*
X025282Y009669D01*
X026680Y008021D02*
X026680Y008021D01*
X026680Y007802D01*
X026680Y008021D01*
X026680Y007920D02*
X026680Y007920D01*
X026680Y007804D02*
X026680Y007804D01*
X026913Y007804D02*
X027098Y007804D01*
X027086Y007920D02*
X027098Y007920D01*
X028487Y007570D02*
X028566Y007570D01*
X028566Y007454D02*
X028487Y007454D01*
X028882Y007804D02*
X030948Y007804D01*
X030948Y007920D02*
X028882Y007920D01*
X028944Y008037D02*
X029087Y008037D01*
X029855Y008037D02*
X029953Y008037D01*
X030722Y008037D02*
X030948Y008037D01*
X029254Y011223D02*
X027211Y011223D01*
X027211Y011282D01*
X027162Y011403D01*
X027121Y011444D01*
X027169Y011492D01*
X027208Y011586D01*
X027208Y012121D01*
X027169Y012215D01*
X027108Y012275D01*
X027111Y012285D01*
X027111Y012483D01*
X026794Y012483D01*
X026794Y012562D01*
X027111Y012562D01*
X027111Y012759D01*
X027716Y012759D01*
X027719Y012752D01*
X027779Y012691D01*
X027777Y012681D01*
X027777Y012483D01*
X028093Y012483D01*
X028093Y012404D01*
X028172Y012404D01*
X028172Y012068D01*
X028351Y012068D01*
X028391Y012079D01*
X028427Y012100D01*
X028457Y012130D01*
X028478Y012166D01*
X028489Y012206D01*
X028489Y012404D01*
X028172Y012404D01*
X028172Y012483D01*
X028489Y012483D01*
X028489Y012681D01*
X028486Y012691D01*
X028547Y012752D01*
X028550Y012759D01*
X029536Y012759D01*
X030254Y012041D01*
X029862Y012041D01*
X029768Y012002D01*
X029696Y011930D01*
X029657Y011836D01*
X029657Y011627D01*
X029254Y011223D01*
X029333Y011302D02*
X027203Y011302D01*
X027146Y011418D02*
X029449Y011418D01*
X029566Y011535D02*
X027187Y011535D01*
X027208Y011652D02*
X029657Y011652D01*
X029657Y011768D02*
X027208Y011768D01*
X027208Y011885D02*
X029677Y011885D01*
X029767Y012002D02*
X027208Y012002D01*
X027208Y012118D02*
X027820Y012118D01*
X027809Y012130D02*
X027838Y012100D01*
X027875Y012079D01*
X027915Y012068D01*
X028093Y012068D01*
X028093Y012404D01*
X027777Y012404D01*
X027777Y012206D01*
X027788Y012166D01*
X027809Y012130D01*
X027777Y012235D02*
X027149Y012235D01*
X027111Y012351D02*
X027777Y012351D01*
X027777Y012585D02*
X027111Y012585D01*
X027111Y012701D02*
X027769Y012701D01*
X028093Y012468D02*
X027111Y012468D01*
X026715Y012483D02*
X026399Y012483D01*
X026399Y012285D01*
X026402Y012275D01*
X026341Y012215D01*
X026316Y012154D01*
X026316Y012178D01*
X026302Y012211D01*
X026302Y012640D01*
X026399Y012737D01*
X026399Y012562D01*
X026715Y012562D01*
X026715Y012483D01*
X026399Y012468D02*
X026302Y012468D01*
X026302Y012585D02*
X026399Y012585D01*
X026399Y012701D02*
X026363Y012701D01*
X026399Y012351D02*
X026302Y012351D01*
X026302Y012235D02*
X026361Y012235D01*
X025676Y012950D02*
X025676Y013822D01*
X030288Y013822D01*
X030359Y013751D01*
X030453Y013712D01*
X030869Y013712D01*
X030869Y012595D01*
X030058Y013406D01*
X030058Y013406D01*
X029942Y013523D01*
X029790Y013586D01*
X026279Y013586D01*
X026127Y013523D01*
X026011Y013406D01*
X025948Y013254D01*
X025948Y013232D01*
X025684Y012968D01*
X025676Y012950D01*
X025676Y013051D02*
X025767Y013051D01*
X025676Y013168D02*
X025883Y013168D01*
X025960Y013284D02*
X025676Y013284D01*
X025676Y013401D02*
X026008Y013401D01*
X026122Y013517D02*
X025676Y013517D01*
X025676Y013634D02*
X030869Y013634D01*
X030869Y013517D02*
X029947Y013517D01*
X030063Y013401D02*
X030869Y013401D01*
X030869Y013284D02*
X030180Y013284D01*
X030297Y013168D02*
X030869Y013168D01*
X030869Y013051D02*
X030413Y013051D01*
X030530Y012934D02*
X030869Y012934D01*
X030869Y012818D02*
X030646Y012818D01*
X030763Y012701D02*
X030869Y012701D01*
X030177Y012118D02*
X028445Y012118D01*
X028489Y012235D02*
X030060Y012235D01*
X029944Y012351D02*
X028489Y012351D01*
X028489Y012585D02*
X029710Y012585D01*
X029594Y012701D02*
X028496Y012701D01*
X028172Y012468D02*
X029827Y012468D01*
X030360Y013751D02*
X025676Y013751D01*
X025250Y015150D02*
X028979Y015150D01*
X029649Y015150D02*
X030869Y015150D01*
X030869Y015033D02*
X029738Y015033D01*
X029758Y014917D02*
X030869Y014917D01*
X030869Y014800D02*
X029758Y014800D01*
X029758Y014684D02*
X030869Y014684D01*
X030372Y014567D02*
X029758Y014567D01*
X030869Y015267D02*
X025078Y015267D01*
X026503Y016316D02*
X027794Y016316D01*
X027828Y017132D02*
X026469Y017132D01*
X026303Y019115D02*
X026287Y019115D01*
X025831Y019115D02*
X025815Y019115D01*
X025561Y019465D02*
X030869Y019465D01*
X030869Y019581D02*
X025678Y019581D01*
X025948Y019698D02*
X030869Y019698D01*
X030869Y019814D02*
X026014Y019814D01*
X026018Y019931D02*
X030869Y019931D01*
X030869Y020048D02*
X026018Y020048D01*
X026018Y020164D02*
X030869Y020164D01*
X030869Y020281D02*
X026018Y020281D01*
X025976Y020397D02*
X030869Y020397D01*
X030869Y020514D02*
X024838Y020514D01*
X024837Y020397D02*
X025171Y020397D01*
X025130Y020281D02*
X024838Y020281D01*
X024838Y020164D02*
X025091Y020164D01*
X024975Y020048D02*
X024838Y020048D01*
X024819Y019931D02*
X024858Y019931D01*
X024838Y020631D02*
X030869Y020631D01*
X030869Y020747D02*
X024838Y020747D01*
X024838Y020864D02*
X030869Y020864D01*
X030869Y020981D02*
X024838Y020981D01*
X024838Y021097D02*
X030869Y021097D01*
X030869Y021214D02*
X024838Y021214D01*
X024838Y021330D02*
X030869Y021330D01*
X030869Y021447D02*
X024838Y021447D01*
X024838Y021564D02*
X030869Y021564D01*
X030869Y021680D02*
X024838Y021680D01*
X024838Y021797D02*
X028452Y021797D01*
X028995Y021797D02*
X030869Y021797D01*
X030869Y021913D02*
X029136Y021913D01*
X029167Y022030D02*
X030869Y022030D01*
X030869Y022147D02*
X029167Y022147D01*
X029167Y022263D02*
X030869Y022263D01*
X030869Y022380D02*
X029167Y022380D01*
X029155Y022496D02*
X030869Y022496D01*
X030869Y022613D02*
X029076Y022613D01*
X028371Y022613D02*
X025267Y022613D01*
X025151Y022730D02*
X030869Y022730D01*
X030331Y022846D02*
X030291Y022846D01*
X030291Y022963D02*
X030331Y022963D01*
X030331Y023080D02*
X030291Y023080D01*
X030291Y023196D02*
X030331Y023196D01*
X030331Y023313D02*
X030291Y023313D01*
X030291Y023429D02*
X030331Y023429D01*
X030331Y023546D02*
X030291Y023546D01*
X030291Y023663D02*
X030331Y023663D01*
X030331Y023779D02*
X030291Y023779D01*
X030291Y023896D02*
X030331Y023896D01*
X030331Y024012D02*
X030291Y024012D01*
X030291Y024129D02*
X030331Y024129D01*
X030331Y024246D02*
X030291Y024246D01*
X030291Y024362D02*
X030331Y024362D01*
X030331Y024479D02*
X030291Y024479D01*
X030141Y024595D02*
X030481Y024595D01*
X030869Y024712D02*
X025948Y024712D01*
X025961Y024829D02*
X030869Y024829D01*
X030869Y024945D02*
X026018Y024945D01*
X026018Y025062D02*
X030869Y025062D01*
X030869Y025179D02*
X029005Y025179D01*
X029150Y025194D02*
X029150Y025194D01*
X029464Y025375D01*
X029677Y025668D01*
X029677Y025668D01*
X029752Y026023D01*
X029677Y026377D01*
X029464Y026670D01*
X029464Y026670D01*
X029150Y026851D01*
X028790Y026889D01*
X028790Y026889D01*
X028445Y026777D01*
X028176Y026535D01*
X028176Y026535D01*
X028028Y026204D01*
X028028Y025841D01*
X028176Y025510D01*
X028445Y025268D01*
X028790Y025156D01*
X028790Y025156D01*
X029150Y025194D01*
X029326Y025295D02*
X030869Y025295D01*
X030869Y025412D02*
X029491Y025412D01*
X029464Y025375D02*
X029464Y025375D01*
X029464Y025375D01*
X029575Y025528D02*
X030869Y025528D01*
X030869Y025645D02*
X029660Y025645D01*
X029697Y025762D02*
X030869Y025762D01*
X030869Y025878D02*
X029722Y025878D01*
X029746Y025995D02*
X030869Y025995D01*
X030869Y026111D02*
X029733Y026111D01*
X029709Y026228D02*
X030869Y026228D01*
X030869Y026345D02*
X029684Y026345D01*
X029677Y026377D02*
X029677Y026377D01*
X029616Y026461D02*
X030869Y026461D01*
X030869Y026578D02*
X029531Y026578D01*
X029422Y026694D02*
X030845Y026694D01*
X030728Y026811D02*
X029220Y026811D01*
X029150Y026851D02*
X029150Y026851D01*
X028549Y026811D02*
X022346Y026811D01*
X022511Y026928D02*
X030612Y026928D01*
X030495Y027044D02*
X022670Y027044D01*
X022765Y027161D02*
X030379Y027161D01*
X030262Y027278D02*
X022860Y027278D01*
X022955Y027394D02*
X030145Y027394D01*
X030029Y027511D02*
X024929Y027511D01*
X024935Y027520D02*
X024945Y027561D01*
X024945Y027759D01*
X024629Y027759D01*
X024629Y027837D01*
X024945Y027837D01*
X024945Y028036D01*
X024943Y028045D01*
X025003Y028106D01*
X025023Y028153D01*
X025463Y028153D01*
X025463Y028097D01*
X025502Y028003D01*
X025574Y027931D01*
X025668Y027892D01*
X026373Y027892D01*
X026467Y027931D01*
X026521Y027984D01*
X026574Y027931D01*
X026668Y027892D01*
X027373Y027892D01*
X027467Y027931D01*
X027539Y028003D01*
X027578Y028097D01*
X027578Y028801D01*
X027539Y028895D01*
X027467Y028967D01*
X027373Y029006D01*
X026668Y029006D01*
X026574Y028967D01*
X026521Y028913D01*
X026467Y028967D01*
X026373Y029006D01*
X025668Y029006D01*
X025574Y028967D01*
X025502Y028895D01*
X025463Y028801D01*
X025463Y028744D01*
X025038Y028744D01*
X025003Y028829D01*
X024931Y028901D01*
X024837Y028940D01*
X024342Y028940D01*
X024248Y028901D01*
X024176Y028829D01*
X024137Y028735D01*
X024137Y028200D01*
X024176Y028106D01*
X024236Y028045D01*
X024234Y028036D01*
X024234Y027837D01*
X024550Y027837D01*
X024550Y027759D01*
X024234Y027759D01*
X024234Y027561D01*
X024244Y027520D01*
X024265Y027484D01*
X024295Y027454D01*
X024331Y027433D01*
X024372Y027423D01*
X024550Y027423D01*
X024550Y027759D01*
X024629Y027759D01*
X024629Y027423D01*
X024807Y027423D01*
X024848Y027433D01*
X024884Y027454D01*
X024914Y027484D01*
X024935Y027520D01*
X024945Y027627D02*
X029912Y027627D01*
X029795Y027744D02*
X024945Y027744D01*
X024945Y027861D02*
X029679Y027861D01*
X029562Y027977D02*
X027513Y027977D01*
X027576Y028094D02*
X029446Y028094D01*
X029329Y028210D02*
X027578Y028210D01*
X027578Y028327D02*
X029212Y028327D01*
X029096Y028444D02*
X027578Y028444D01*
X027578Y028560D02*
X028979Y028560D01*
X028863Y028677D02*
X027578Y028677D01*
X027578Y028793D02*
X028746Y028793D01*
X028629Y028910D02*
X027523Y028910D01*
X028280Y029260D02*
X023152Y029260D01*
X023102Y029376D02*
X028163Y029376D01*
X028046Y029493D02*
X023051Y029493D01*
X023203Y029143D02*
X028396Y029143D01*
X028513Y029027D02*
X023240Y029027D01*
X023256Y028910D02*
X024270Y028910D01*
X024161Y028793D02*
X023272Y028793D01*
X023288Y028677D02*
X024137Y028677D01*
X024137Y028560D02*
X023304Y028560D01*
X023298Y028444D02*
X024137Y028444D01*
X024137Y028327D02*
X023282Y028327D01*
X023266Y028210D02*
X024137Y028210D01*
X024188Y028094D02*
X023250Y028094D01*
X023234Y027977D02*
X024234Y027977D01*
X024234Y027861D02*
X023184Y027861D01*
X023134Y027744D02*
X024234Y027744D01*
X024234Y027627D02*
X023083Y027627D01*
X023032Y027511D02*
X024250Y027511D01*
X024550Y027511D02*
X024629Y027511D01*
X024629Y027627D02*
X024550Y027627D01*
X024550Y027744D02*
X024629Y027744D01*
X024945Y027977D02*
X025528Y027977D01*
X025465Y028094D02*
X024991Y028094D01*
X025018Y028793D02*
X025463Y028793D01*
X025518Y028910D02*
X024909Y028910D01*
X026513Y027977D02*
X026528Y027977D01*
X028224Y026578D02*
X021826Y026578D01*
X022154Y026694D02*
X028353Y026694D01*
X028445Y026777D02*
X028445Y026777D01*
X028143Y026461D02*
X012720Y026461D01*
X012331Y026345D02*
X028091Y026345D01*
X028039Y026228D02*
X011943Y026228D01*
X011844Y026111D02*
X013862Y026111D01*
X013898Y026148D02*
X013752Y026001D01*
X013672Y025810D01*
X013672Y025602D01*
X013752Y025410D01*
X013898Y025264D01*
X014090Y025184D01*
X014298Y025184D01*
X014489Y025264D01*
X014636Y025410D01*
X014715Y025602D01*
X014715Y025810D01*
X014636Y026001D01*
X014489Y026148D01*
X014298Y026227D01*
X014090Y026227D01*
X013898Y026148D01*
X013749Y025995D02*
X011968Y025995D01*
X012063Y025878D02*
X013701Y025878D01*
X013672Y025762D02*
X012157Y025762D01*
X012252Y025645D02*
X013672Y025645D01*
X013703Y025528D02*
X012308Y025528D01*
X012358Y025412D02*
X013751Y025412D01*
X013867Y025295D02*
X012409Y025295D01*
X012460Y025179D02*
X018886Y025179D01*
X018886Y025295D02*
X014521Y025295D01*
X014637Y025412D02*
X018886Y025412D01*
X018911Y025528D02*
X014685Y025528D01*
X014715Y025645D02*
X019024Y025645D01*
X019655Y025645D02*
X019811Y025645D01*
X020442Y025645D02*
X020599Y025645D01*
X021230Y025645D02*
X028116Y025645D01*
X028168Y025528D02*
X025963Y025528D01*
X026018Y025412D02*
X028285Y025412D01*
X028176Y025510D02*
X028176Y025510D01*
X028064Y025762D02*
X014715Y025762D01*
X014687Y025878D02*
X028028Y025878D01*
X028028Y025995D02*
X014639Y025995D01*
X014526Y026111D02*
X028028Y026111D01*
X028415Y025295D02*
X026018Y025295D01*
X026018Y025179D02*
X028720Y025179D01*
X025187Y024829D02*
X021282Y024829D01*
X021358Y024945D02*
X021364Y024945D01*
X021697Y024945D02*
X021707Y024945D01*
X021707Y024862D02*
X021921Y024862D01*
X021961Y024873D01*
X021997Y024893D01*
X022027Y024923D01*
X022048Y024959D01*
X022059Y025000D01*
X022059Y025214D01*
X021707Y025214D01*
X021707Y024862D01*
X021697Y025062D02*
X021707Y025062D01*
X021697Y025179D02*
X021707Y025179D01*
X021707Y025224D02*
X022059Y025224D01*
X022059Y025438D01*
X022048Y025478D01*
X022027Y025514D01*
X021997Y025544D01*
X021961Y025565D01*
X021921Y025576D01*
X021707Y025576D01*
X021707Y025224D01*
X021697Y025295D02*
X021707Y025295D01*
X021697Y025412D02*
X021707Y025412D01*
X021697Y025528D02*
X021707Y025528D01*
X022013Y025528D02*
X025184Y025528D01*
X025130Y025412D02*
X022059Y025412D01*
X022059Y025295D02*
X025130Y025295D01*
X025130Y025179D02*
X022059Y025179D01*
X022059Y025062D02*
X025130Y025062D01*
X025130Y024945D02*
X022040Y024945D01*
X021390Y025528D02*
X021343Y025528D01*
X020595Y024712D02*
X025200Y024712D01*
X025200Y024595D02*
X020595Y024595D01*
X020595Y024479D02*
X024832Y024479D01*
X024798Y024362D02*
X020595Y024362D01*
X020595Y024246D02*
X024798Y024246D01*
X024798Y024129D02*
X020595Y024129D01*
X020595Y024012D02*
X024798Y024012D01*
X024798Y023896D02*
X020595Y023896D01*
X020595Y023779D02*
X024798Y023779D01*
X024798Y023663D02*
X020595Y023663D01*
X020595Y023546D02*
X024798Y023546D01*
X024798Y023429D02*
X020595Y023429D01*
X020633Y023313D02*
X024798Y023313D01*
X024798Y023196D02*
X020749Y023196D01*
X020266Y022730D02*
X019707Y022730D01*
X019688Y022846D02*
X020149Y022846D01*
X020032Y022963D02*
X019688Y022963D01*
X019688Y023080D02*
X019950Y023080D01*
X019923Y023196D02*
X019688Y023196D01*
X019667Y023313D02*
X019923Y023313D01*
X019923Y023429D02*
X019575Y023429D01*
X019551Y023546D02*
X019923Y023546D01*
X019923Y023663D02*
X019551Y023663D01*
X019551Y023779D02*
X019923Y023779D01*
X019923Y023896D02*
X019551Y023896D01*
X019551Y024012D02*
X019923Y024012D01*
X019923Y024129D02*
X019551Y024129D01*
X019551Y024246D02*
X019923Y024246D01*
X019923Y024362D02*
X019551Y024362D01*
X019551Y024479D02*
X019923Y024479D01*
X019923Y024595D02*
X019551Y024595D01*
X019551Y024712D02*
X019923Y024712D01*
X019759Y024829D02*
X019707Y024829D01*
X019181Y026578D02*
X020709Y026578D01*
X020411Y026694D02*
X019321Y026694D01*
X019353Y026811D02*
X020186Y026811D01*
X020021Y026928D02*
X019353Y026928D01*
X019353Y027044D02*
X019896Y027044D01*
X019771Y027161D02*
X019353Y027161D01*
X019353Y027278D02*
X019665Y027278D01*
X019594Y027394D02*
X019353Y027394D01*
X019353Y027511D02*
X019523Y027511D01*
X019452Y027627D02*
X019353Y027627D01*
X019353Y027744D02*
X019392Y027744D01*
X019359Y027861D02*
X019353Y027861D01*
X015142Y024945D02*
X014899Y024945D01*
X016034Y023313D02*
X018206Y023313D01*
X018171Y023196D02*
X016292Y023196D01*
X016448Y023080D02*
X018171Y023080D01*
X018171Y022963D02*
X016512Y022963D01*
X016538Y022846D02*
X018171Y022846D01*
X018197Y022730D02*
X016538Y022730D01*
X019777Y022613D02*
X020382Y022613D01*
X020550Y022496D02*
X019783Y022496D01*
X019783Y022380D02*
X023141Y022380D01*
X023048Y022263D02*
X019783Y022263D01*
X019783Y022147D02*
X023046Y022147D01*
X023874Y022147D02*
X023913Y022147D01*
X023913Y022263D02*
X023874Y022263D01*
X023874Y022380D02*
X023913Y022380D01*
X024742Y022147D02*
X024787Y022147D01*
X024742Y022030D02*
X024904Y022030D01*
X024792Y021913D02*
X025063Y021913D01*
X025094Y022846D02*
X025134Y022846D01*
X025134Y022963D02*
X025094Y022963D01*
X025094Y023080D02*
X025134Y023080D01*
X025134Y023196D02*
X025094Y023196D01*
X025094Y023313D02*
X025134Y023313D01*
X025134Y023429D02*
X025094Y023429D01*
X025094Y023546D02*
X025134Y023546D01*
X025134Y023663D02*
X025094Y023663D01*
X025094Y023779D02*
X025134Y023779D01*
X025134Y023896D02*
X025094Y023896D01*
X025094Y024012D02*
X025134Y024012D01*
X025134Y024129D02*
X025094Y024129D01*
X025094Y024246D02*
X025134Y024246D01*
X025134Y024362D02*
X025094Y024362D01*
X025094Y024479D02*
X025134Y024479D01*
X019182Y019698D02*
X018438Y019698D01*
X018491Y019581D02*
X019055Y019581D01*
X019027Y019465D02*
X018491Y019465D01*
X018491Y019348D02*
X019027Y019348D01*
X018633Y018882D02*
X018491Y018882D01*
X018491Y018765D02*
X018516Y018765D01*
X018167Y018415D02*
X016441Y018415D01*
X016509Y018532D02*
X017088Y018532D01*
X017082Y018648D02*
X016538Y018648D01*
X016538Y018765D02*
X017082Y018765D01*
X017082Y018882D02*
X016538Y018882D01*
X016538Y018998D02*
X017082Y018998D01*
X017727Y018998D02*
X017845Y018998D01*
X017845Y018882D02*
X017727Y018882D01*
X017727Y018765D02*
X017845Y018765D01*
X017845Y018648D02*
X017727Y018648D01*
X017727Y018532D02*
X017845Y018532D01*
X017845Y019348D02*
X017727Y019348D01*
X017727Y019465D02*
X017845Y019465D01*
X017845Y019581D02*
X017727Y019581D01*
X017727Y019698D02*
X017845Y019698D01*
X020842Y016083D02*
X020875Y016083D01*
X020900Y015966D02*
X020908Y015966D01*
X020900Y015850D02*
X020913Y015850D01*
X020900Y015733D02*
X020965Y015733D01*
X020900Y015616D02*
X021081Y015616D01*
X021193Y015500D02*
X020900Y015500D01*
X020846Y015383D02*
X021193Y015383D01*
X025342Y019115D02*
X025358Y019115D01*
X025328Y019231D02*
X030869Y019231D01*
X030869Y019348D02*
X025444Y019348D01*
X026759Y019115D02*
X026776Y019115D01*
X027232Y019115D02*
X027248Y019115D01*
X027704Y019115D02*
X027721Y019115D01*
X028177Y019115D02*
X028193Y019115D01*
X028649Y019115D02*
X028666Y019115D01*
X029122Y019115D02*
X029138Y019115D01*
X029594Y019115D02*
X029610Y019115D01*
X030067Y019115D02*
X030083Y019115D01*
X030539Y019115D02*
X030555Y019115D01*
X028172Y012351D02*
X028093Y012351D01*
X028093Y012235D02*
X028172Y012235D01*
X028172Y012118D02*
X028093Y012118D01*
X027797Y004422D02*
X027402Y004422D01*
X027402Y004305D02*
X027652Y004305D01*
X027603Y004189D02*
X027402Y004189D01*
X027402Y004072D02*
X027601Y004072D01*
X027601Y003955D02*
X027402Y003955D01*
X027402Y003839D02*
X027601Y003839D01*
X027601Y003722D02*
X027402Y003722D01*
X027368Y003606D02*
X027601Y003606D01*
X027601Y003489D02*
X027216Y003489D01*
X027601Y003372D02*
X013981Y003372D01*
X013763Y003507D02*
X013763Y003507D01*
X013723Y003849D02*
X013723Y003849D01*
X013723Y003863D01*
X013723Y003849D01*
X013765Y004422D02*
X013410Y004422D01*
X013410Y004538D02*
X013704Y004538D01*
X014381Y003139D02*
X017038Y003139D01*
X016999Y003023D02*
X014394Y003023D01*
X014394Y002906D02*
X016999Y002906D01*
X016999Y002673D02*
X014394Y002673D01*
X014394Y002556D02*
X016999Y002556D01*
X017690Y003023D02*
X017808Y003023D01*
X017808Y003139D02*
X017690Y003139D01*
X013704Y007011D02*
X012975Y006282D01*
X013704Y007011D02*
X013704Y008015D01*
X013782Y008467D02*
X013436Y008467D01*
X013435Y008467D01*
X013456Y008488D01*
X013466Y008486D01*
X013664Y008486D01*
X013664Y008802D01*
X013743Y008802D01*
X013743Y008486D01*
X013782Y008486D01*
X013782Y008467D01*
X013743Y008503D02*
X013664Y008503D01*
X013664Y008620D02*
X013743Y008620D01*
X013743Y008736D02*
X013664Y008736D01*
X013664Y008970D02*
X013743Y008970D01*
X013743Y009086D02*
X013664Y009086D01*
X013782Y009203D02*
X013448Y009203D01*
X013034Y008841D02*
X013034Y008015D01*
X012562Y008037D02*
X012328Y008037D01*
X012306Y008153D02*
X012562Y008153D01*
X012565Y008270D02*
X012306Y008270D01*
X012306Y008387D02*
X012631Y008387D01*
X012562Y007920D02*
X012422Y007920D01*
X012444Y007804D02*
X012562Y007804D01*
X012595Y007687D02*
X012444Y007687D01*
X012444Y007570D02*
X012747Y007570D01*
X012444Y007454D02*
X013389Y007454D01*
X013389Y007570D02*
X013322Y007570D01*
X014530Y007570D02*
X014577Y007570D01*
X014557Y007550D02*
X014557Y007550D01*
X014530Y007687D02*
X014694Y007687D01*
X014811Y007804D02*
X014530Y007804D01*
X014530Y007920D02*
X014927Y007920D01*
X015044Y008037D02*
X014530Y008037D01*
X014530Y008153D02*
X015160Y008153D01*
X015277Y008270D02*
X014530Y008270D01*
X014530Y008387D02*
X015394Y008387D01*
X015510Y008503D02*
X014530Y008503D01*
X014530Y008620D02*
X015627Y008620D01*
X015743Y008736D02*
X014530Y008736D01*
X014530Y008853D02*
X015860Y008853D01*
X015977Y008970D02*
X014530Y008970D01*
X014530Y009086D02*
X016093Y009086D01*
X016210Y009203D02*
X014530Y009203D01*
X014571Y009319D02*
X016271Y009319D01*
X016271Y009436D02*
X014600Y009436D01*
X014600Y009553D02*
X016304Y009553D01*
X016453Y009669D02*
X014600Y009669D01*
X011638Y007179D02*
X011635Y007169D01*
X011635Y006971D01*
X011952Y006971D01*
X011952Y006893D01*
X011635Y006893D01*
X011635Y006694D01*
X011646Y006654D01*
X011667Y006618D01*
X011687Y006597D01*
X011616Y006597D01*
X011609Y006615D01*
X011537Y006687D01*
X011443Y006726D01*
X011306Y006726D01*
X011471Y006891D01*
X011519Y007007D01*
X011519Y007248D01*
X011537Y007255D01*
X011561Y007279D01*
X011577Y007240D01*
X011638Y007179D01*
X011596Y007220D02*
X011519Y007220D01*
X011519Y007104D02*
X011635Y007104D01*
X011635Y006987D02*
X011510Y006987D01*
X011450Y006871D02*
X011635Y006871D01*
X011635Y006754D02*
X011333Y006754D01*
X011587Y006637D02*
X011656Y006637D01*
X011204Y007070D02*
X010810Y006676D01*
X010810Y005889D01*
X011204Y007070D02*
X011204Y007660D01*
X010613Y008251D01*
X010416Y008645D02*
X009963Y008645D01*
X009963Y009038D02*
X010219Y009038D01*
X010416Y008645D02*
X010613Y008841D01*
X010522Y009786D02*
X009906Y009786D01*
X009902Y009903D02*
X010648Y009903D01*
X010760Y010019D02*
X009906Y010019D01*
X009906Y010136D02*
X010760Y010136D01*
X010760Y010252D02*
X009906Y010252D01*
X009906Y010369D02*
X010812Y010369D01*
X009461Y009203D02*
X009402Y009203D01*
X009402Y009086D02*
X009461Y009086D01*
X009461Y008970D02*
X009402Y008970D01*
X007404Y008503D02*
X007032Y008503D01*
X007032Y008387D02*
X007243Y008387D01*
X007208Y008270D02*
X007093Y008270D01*
X007129Y008153D02*
X007208Y008153D01*
X007208Y008037D02*
X007129Y008037D01*
X007129Y007920D02*
X007208Y007920D01*
X007208Y007804D02*
X007129Y007804D01*
X007129Y007687D02*
X007224Y007687D01*
X007310Y007570D02*
X007102Y007570D01*
X006223Y007804D02*
X006133Y007804D01*
X006223Y007920D02*
X006017Y007920D01*
X005900Y008037D02*
X006223Y008037D01*
X006223Y008153D02*
X005783Y008153D01*
X005579Y008270D02*
X006259Y008270D01*
X006637Y008736D02*
X006715Y008736D01*
X006715Y008853D02*
X006637Y008853D01*
X004656Y008271D02*
X004656Y008271D01*
X003566Y007337D02*
X003487Y007337D01*
X003487Y007220D02*
X003566Y007220D01*
X003187Y007337D02*
X003184Y007337D01*
X003164Y006754D02*
X003224Y006754D01*
X003306Y006637D02*
X003140Y006637D01*
X003150Y005938D02*
X003267Y005938D01*
X003236Y005821D02*
X003159Y005821D01*
X003487Y005355D02*
X003566Y005355D01*
X003566Y005238D02*
X003487Y005238D01*
X003794Y005122D02*
X003121Y005122D01*
X003674Y002789D02*
X003938Y002789D01*
X004062Y002673D02*
X003790Y002673D01*
X003907Y002556D02*
X004187Y002556D01*
X004312Y002439D02*
X004024Y002439D01*
X004140Y002323D02*
X004510Y002323D01*
X004735Y002206D02*
X004257Y002206D01*
X004373Y002090D02*
X005143Y002090D01*
X005381Y002040D02*
X005381Y002040D01*
X004838Y002153D02*
X004838Y002153D01*
X004607Y001856D02*
X007129Y001856D01*
X007129Y001740D02*
X004723Y001740D01*
X004840Y001623D02*
X007129Y001623D01*
X007129Y001507D02*
X004957Y001507D01*
X005073Y001390D02*
X007129Y001390D01*
X007129Y001273D02*
X005190Y001273D01*
X005306Y001157D02*
X007129Y001157D01*
X007129Y001040D02*
X005423Y001040D01*
X005540Y000924D02*
X007129Y000924D01*
X007129Y001973D02*
X004490Y001973D01*
X005968Y002090D02*
X007129Y002090D01*
X007129Y002206D02*
X006296Y002206D01*
X006542Y002323D02*
X007129Y002323D01*
X007129Y002439D02*
X006707Y002439D01*
X006872Y002556D02*
X007129Y002556D01*
X007129Y002673D02*
X006984Y002673D01*
X006912Y002584D02*
X006912Y002584D01*
X006912Y002584D01*
X007079Y002789D02*
X007129Y002789D01*
X008822Y003606D02*
X008861Y003606D01*
X008861Y003722D02*
X008822Y003722D01*
X008861Y005005D02*
X008940Y005005D01*
X008940Y005122D02*
X008861Y005122D01*
X008861Y005238D02*
X008940Y005238D01*
X011755Y004305D02*
X011834Y004305D01*
X011834Y004189D02*
X011755Y004189D01*
X011755Y004072D02*
X011834Y004072D01*
X008841Y001164D02*
X008645Y001361D01*
X008841Y001164D02*
X011597Y001164D01*
X001899Y007857D02*
X001896Y007861D01*
X009351Y013517D02*
X009397Y013517D01*
X010278Y012701D02*
X011728Y012701D01*
X011674Y012585D02*
X010278Y012585D01*
X010278Y012468D02*
X011674Y012468D01*
X011063Y011652D02*
X010951Y011652D01*
X010393Y011652D02*
X010278Y011652D01*
X011245Y014217D02*
X012302Y014217D01*
X012226Y014334D02*
X011245Y014334D01*
X011245Y014450D02*
X012226Y014450D01*
X012226Y014684D02*
X011245Y014684D01*
X011245Y014800D02*
X012234Y014800D01*
X012256Y014917D02*
X011245Y014917D01*
X011245Y015033D02*
X011851Y015033D01*
X011705Y015150D02*
X011245Y015150D01*
X011238Y015267D02*
X011589Y015267D01*
X011495Y015383D02*
X007426Y015383D01*
X007426Y015267D02*
X007626Y015267D01*
X007619Y015150D02*
X007383Y015150D01*
X008034Y015150D02*
X008152Y015150D01*
X008152Y015033D02*
X008034Y015033D01*
X008034Y014917D02*
X008152Y014917D01*
X008152Y014800D02*
X008034Y014800D01*
X008034Y015267D02*
X008152Y015267D01*
X011034Y022613D02*
X011478Y022613D01*
X011520Y022730D02*
X011362Y022730D01*
X004844Y023429D02*
X002614Y023429D01*
X004246Y023313D02*
X004727Y023313D01*
X004611Y023196D02*
X004319Y023196D01*
X004328Y023080D02*
X004494Y023080D01*
X004378Y022963D02*
X004328Y022963D01*
D60*
X004511Y022621D02*
X005436Y023546D01*
X005692Y023546D01*
X005692Y022877D02*
X005495Y022877D01*
X005101Y022483D01*
X005101Y022227D01*
X004511Y021834D02*
X004511Y022621D01*
X004511Y021834D02*
X003780Y021834D01*
X003771Y021824D01*
X003526Y018290D02*
X005495Y018290D01*
X006676Y017109D01*
X003526Y018290D02*
X003398Y018162D01*
X002662Y018162D01*
X009432Y011204D02*
X008645Y010416D01*
X008684Y010416D01*
X008881Y010219D01*
X009432Y011204D02*
X010672Y011204D01*
X012719Y012385D02*
X013369Y012385D01*
X013369Y011637D01*
X013369Y011597D01*
X013369Y012385D02*
X016715Y012385D01*
X013763Y013369D02*
X013369Y013763D01*
X013369Y014609D01*
X012778Y013172D02*
X012975Y012975D01*
X013743Y010771D02*
X013743Y010593D01*
X016322Y014550D02*
X016125Y014747D01*
X014609Y015731D02*
X020456Y015731D01*
X023560Y017986D02*
X023752Y018178D01*
X024871Y018178D01*
X019339Y022359D02*
X019339Y022891D01*
X019215Y023015D01*
X019215Y025095D01*
X019339Y025219D01*
X020127Y025219D02*
X020259Y025087D01*
X020259Y023211D01*
X020652Y022818D01*
X024589Y022818D01*
X025586Y023690D02*
X025586Y023789D01*
X025574Y023802D01*
X014609Y015731D02*
X014215Y016125D01*
X020456Y012975D02*
X020456Y011794D01*
X020849Y011400D01*
X024711Y011908D02*
X024786Y011983D01*
X031932Y004904D02*
X031932Y003361D01*
X031782Y003211D01*
X013408Y003507D02*
X013074Y003841D01*
X013074Y004865D01*
X005298Y007601D02*
X005298Y007857D01*
D61*
X009629Y002995D02*
X009412Y002778D01*
D62*
X012975Y005633D02*
X013684Y005633D01*
X013763Y005751D02*
X013763Y006282D01*
X014156Y006676D01*
X014156Y009629D01*
X008389Y020849D02*
X008841Y021302D01*
X008389Y020849D02*
X008251Y020849D01*
X006873Y020849D01*
X006460Y021263D01*
X006440Y021263D01*
X025574Y023802D02*
X025574Y025180D01*
M02*
