G75*
%MOIN*%
%OFA0B0*%
%FSLAX24Y24*%
%IPPOS*%
%LPD*%
%AMOC8*
5,1,8,0,0,1.08239X$1,22.5*
%
%ADD10C,0.1580*%
%ADD11OC8,0.0670*%
%ADD12C,0.0860*%
%ADD13C,0.0460*%
%ADD14R,0.0454X0.0454*%
%ADD15R,0.0454X0.0493*%
%ADD16C,0.1000*%
%ADD17C,0.0135*%
%ADD18C,0.0190*%
%ADD19C,0.0454*%
%ADD20R,0.0375X0.1438*%
%ADD21R,0.1438X0.0375*%
%ADD22R,0.0456X0.0456*%
%ADD23R,0.1044X0.0621*%
%ADD24C,0.0336*%
%ADD25R,0.1025X0.0572*%
%ADD26R,0.0336X0.0779*%
%ADD27R,0.0635X0.0847*%
%ADD28C,0.0316*%
%ADD29R,0.0749X0.0217*%
%ADD30R,0.2160X0.0820*%
%ADD31R,0.0454X0.0158*%
%ADD32R,0.0414X0.1084*%
%ADD33R,0.0532X0.0375*%
%ADD34R,0.0493X0.0454*%
%ADD35R,0.0847X0.0532*%
%ADD36R,0.0158X0.0454*%
%ADD37R,0.1084X0.0414*%
%ADD38R,0.0375X0.0532*%
%ADD39R,0.0532X0.0847*%
%ADD40R,0.0454X0.1871*%
%ADD41R,0.0690X0.1399*%
%ADD42R,0.0710X0.0710*%
%ADD43R,0.0662X0.0662*%
%ADD44R,0.0532X0.0277*%
%ADD45R,0.1241X0.0532*%
%ADD46R,0.0454X0.0454*%
%ADD47R,0.0454X0.0532*%
%ADD48R,0.0532X0.0454*%
%ADD49R,0.0454X0.0611*%
%ADD50R,0.1151X0.1064*%
%ADD51R,0.0532X0.0729*%
%ADD52R,0.0257X0.0454*%
%ADD53R,0.0591X0.0591*%
%ADD54R,0.0857X0.0857*%
%ADD55R,0.0611X0.0147*%
%ADD56R,0.0710X0.1044*%
%ADD57R,0.0690X0.0769*%
%ADD58R,0.0414X0.0336*%
%ADD59R,0.0769X0.0769*%
%ADD60R,0.0436X0.0436*%
%ADD61C,0.0436*%
D10*
X006899Y003952D03*
X005889Y017700D03*
X011899Y025952D03*
X022649Y029902D03*
X036399Y003577D03*
D11*
X019538Y007330D03*
X019538Y008330D03*
X019538Y009330D03*
X018538Y009330D03*
X018538Y008330D03*
X018538Y007330D03*
D12*
X003101Y016920D02*
X003103Y016947D01*
X003109Y016974D01*
X003118Y017000D01*
X003131Y017024D01*
X003147Y017047D01*
X003166Y017066D01*
X003188Y017083D01*
X003212Y017097D01*
X003237Y017107D01*
X003264Y017114D01*
X003291Y017117D01*
X003319Y017116D01*
X003346Y017111D01*
X003372Y017103D01*
X003396Y017091D01*
X003419Y017075D01*
X003440Y017057D01*
X003457Y017036D01*
X003472Y017012D01*
X003483Y016987D01*
X003491Y016961D01*
X003495Y016934D01*
X003495Y016906D01*
X003491Y016879D01*
X003483Y016853D01*
X003472Y016828D01*
X003457Y016804D01*
X003440Y016783D01*
X003419Y016765D01*
X003397Y016749D01*
X003372Y016737D01*
X003346Y016729D01*
X003319Y016724D01*
X003291Y016723D01*
X003264Y016726D01*
X003237Y016733D01*
X003212Y016743D01*
X003188Y016757D01*
X003166Y016774D01*
X003147Y016793D01*
X003131Y016816D01*
X003118Y016840D01*
X003109Y016866D01*
X003103Y016893D01*
X003101Y016920D01*
X030062Y027400D02*
X030064Y027427D01*
X030070Y027454D01*
X030079Y027480D01*
X030092Y027504D01*
X030108Y027527D01*
X030127Y027546D01*
X030149Y027563D01*
X030173Y027577D01*
X030198Y027587D01*
X030225Y027594D01*
X030252Y027597D01*
X030280Y027596D01*
X030307Y027591D01*
X030333Y027583D01*
X030357Y027571D01*
X030380Y027555D01*
X030401Y027537D01*
X030418Y027516D01*
X030433Y027492D01*
X030444Y027467D01*
X030452Y027441D01*
X030456Y027414D01*
X030456Y027386D01*
X030452Y027359D01*
X030444Y027333D01*
X030433Y027308D01*
X030418Y027284D01*
X030401Y027263D01*
X030380Y027245D01*
X030358Y027229D01*
X030333Y027217D01*
X030307Y027209D01*
X030280Y027204D01*
X030252Y027203D01*
X030225Y027206D01*
X030198Y027213D01*
X030173Y027223D01*
X030149Y027237D01*
X030127Y027254D01*
X030108Y027273D01*
X030092Y027296D01*
X030079Y027320D01*
X030070Y027346D01*
X030064Y027373D01*
X030062Y027400D01*
X036306Y007747D02*
X036308Y007774D01*
X036314Y007801D01*
X036323Y007827D01*
X036336Y007851D01*
X036352Y007874D01*
X036371Y007893D01*
X036393Y007910D01*
X036417Y007924D01*
X036442Y007934D01*
X036469Y007941D01*
X036496Y007944D01*
X036524Y007943D01*
X036551Y007938D01*
X036577Y007930D01*
X036601Y007918D01*
X036624Y007902D01*
X036645Y007884D01*
X036662Y007863D01*
X036677Y007839D01*
X036688Y007814D01*
X036696Y007788D01*
X036700Y007761D01*
X036700Y007733D01*
X036696Y007706D01*
X036688Y007680D01*
X036677Y007655D01*
X036662Y007631D01*
X036645Y007610D01*
X036624Y007592D01*
X036602Y007576D01*
X036577Y007564D01*
X036551Y007556D01*
X036524Y007551D01*
X036496Y007550D01*
X036469Y007553D01*
X036442Y007560D01*
X036417Y007570D01*
X036393Y007584D01*
X036371Y007601D01*
X036352Y007620D01*
X036336Y007643D01*
X036323Y007667D01*
X036314Y007693D01*
X036308Y007720D01*
X036306Y007747D01*
D13*
X036503Y007747D03*
X030259Y027400D03*
X003298Y016920D03*
D14*
X013960Y016715D03*
X013960Y017503D03*
X013960Y018290D03*
X013960Y015928D03*
X006873Y007857D03*
X006086Y007857D03*
X006086Y007070D03*
X006873Y007070D03*
X006873Y006282D03*
X006086Y006282D03*
D15*
X008054Y009294D03*
X008054Y009963D03*
X013172Y006420D03*
X013172Y005751D03*
X014353Y006341D03*
X014353Y007011D03*
X013369Y008310D03*
X013369Y008979D03*
X012928Y003436D03*
X012928Y002767D03*
X021952Y006735D03*
X021952Y007404D03*
X023763Y007601D03*
X023763Y006932D03*
X029904Y009097D03*
X029904Y009767D03*
X028133Y013231D03*
X028133Y013900D03*
X029511Y013822D03*
X029511Y014491D03*
X023093Y014491D03*
X023093Y013822D03*
X020652Y012916D03*
X020652Y012247D03*
X014747Y015987D03*
X014747Y016656D03*
X014747Y017562D03*
X014747Y018231D03*
X013566Y020318D03*
X013566Y020987D03*
X014550Y020711D03*
X014550Y021381D03*
X014156Y024255D03*
X014156Y024924D03*
X008645Y023743D03*
X008645Y023074D03*
X007070Y024255D03*
X007070Y024924D03*
X022621Y023940D03*
X022621Y023271D03*
X023408Y021578D03*
X023408Y020908D03*
X025377Y025633D03*
X025377Y026302D03*
X025967Y029176D03*
X025967Y029845D03*
D16*
X025524Y011003D02*
X025526Y011034D01*
X025532Y011065D01*
X025542Y011095D01*
X025555Y011123D01*
X025572Y011150D01*
X025592Y011174D01*
X025615Y011196D01*
X025640Y011214D01*
X025668Y011229D01*
X025697Y011241D01*
X025727Y011249D01*
X025758Y011253D01*
X025790Y011253D01*
X025821Y011249D01*
X025851Y011241D01*
X025880Y011229D01*
X025908Y011214D01*
X025933Y011196D01*
X025956Y011174D01*
X025976Y011150D01*
X025993Y011123D01*
X026006Y011095D01*
X026016Y011065D01*
X026022Y011034D01*
X026024Y011003D01*
X026022Y010972D01*
X026016Y010941D01*
X026006Y010911D01*
X025993Y010883D01*
X025976Y010856D01*
X025956Y010832D01*
X025933Y010810D01*
X025908Y010792D01*
X025880Y010777D01*
X025851Y010765D01*
X025821Y010757D01*
X025790Y010753D01*
X025758Y010753D01*
X025727Y010757D01*
X025697Y010765D01*
X025668Y010777D01*
X025640Y010792D01*
X025615Y010810D01*
X025592Y010832D01*
X025572Y010856D01*
X025555Y010883D01*
X025542Y010911D01*
X025532Y010941D01*
X025526Y010972D01*
X025524Y011003D01*
D17*
X024595Y010986D02*
X024375Y010986D01*
X024375Y011020D01*
X024595Y011020D01*
X024595Y010986D01*
X024595Y010789D02*
X024375Y010789D01*
X024375Y010823D01*
X024595Y010823D01*
X024595Y010789D01*
X024595Y010592D02*
X024375Y010592D01*
X024375Y010626D01*
X024595Y010626D01*
X024595Y010592D01*
X024595Y010395D02*
X024375Y010395D01*
X024375Y010429D01*
X024595Y010429D01*
X024595Y010395D01*
X024595Y010198D02*
X024375Y010198D01*
X024375Y010232D01*
X024595Y010232D01*
X024595Y010198D01*
X024595Y010002D02*
X024375Y010002D01*
X024375Y010036D01*
X024595Y010036D01*
X024595Y010002D01*
X024807Y009823D02*
X024807Y009603D01*
X024773Y009603D01*
X024773Y009823D01*
X024807Y009823D01*
X024807Y009737D02*
X024773Y009737D01*
X025004Y009823D02*
X025004Y009603D01*
X024970Y009603D01*
X024970Y009823D01*
X025004Y009823D01*
X025004Y009737D02*
X024970Y009737D01*
X025201Y009823D02*
X025201Y009603D01*
X025167Y009603D01*
X025167Y009823D01*
X025201Y009823D01*
X025201Y009737D02*
X025167Y009737D01*
X025398Y009823D02*
X025398Y009603D01*
X025364Y009603D01*
X025364Y009823D01*
X025398Y009823D01*
X025398Y009737D02*
X025364Y009737D01*
X025595Y009823D02*
X025595Y009603D01*
X025561Y009603D01*
X025561Y009823D01*
X025595Y009823D01*
X025595Y009737D02*
X025561Y009737D01*
X025791Y009823D02*
X025791Y009603D01*
X025757Y009603D01*
X025757Y009823D01*
X025791Y009823D01*
X025791Y009737D02*
X025757Y009737D01*
X025988Y009823D02*
X025988Y009603D01*
X025954Y009603D01*
X025954Y009823D01*
X025988Y009823D01*
X025988Y009737D02*
X025954Y009737D01*
X026185Y009823D02*
X026185Y009603D01*
X026151Y009603D01*
X026151Y009823D01*
X026185Y009823D01*
X026185Y009737D02*
X026151Y009737D01*
X026382Y009823D02*
X026382Y009603D01*
X026348Y009603D01*
X026348Y009823D01*
X026382Y009823D01*
X026382Y009737D02*
X026348Y009737D01*
X026579Y009823D02*
X026579Y009603D01*
X026545Y009603D01*
X026545Y009823D01*
X026579Y009823D01*
X026579Y009737D02*
X026545Y009737D01*
X026776Y009823D02*
X026776Y009603D01*
X026742Y009603D01*
X026742Y009823D01*
X026776Y009823D01*
X026776Y009737D02*
X026742Y009737D01*
X026954Y010036D02*
X027174Y010036D01*
X027174Y010002D01*
X026954Y010002D01*
X026954Y010036D01*
X026954Y010232D02*
X027174Y010232D01*
X027174Y010198D01*
X026954Y010198D01*
X026954Y010232D01*
X026954Y010429D02*
X027174Y010429D01*
X027174Y010395D01*
X026954Y010395D01*
X026954Y010429D01*
X026954Y010626D02*
X027174Y010626D01*
X027174Y010592D01*
X026954Y010592D01*
X026954Y010626D01*
X026954Y010823D02*
X027174Y010823D01*
X027174Y010789D01*
X026954Y010789D01*
X026954Y010823D01*
X026954Y011020D02*
X027174Y011020D01*
X027174Y010986D01*
X026954Y010986D01*
X026954Y011020D01*
X026954Y011217D02*
X027174Y011217D01*
X027174Y011183D01*
X026954Y011183D01*
X026954Y011217D01*
X026954Y011414D02*
X027174Y011414D01*
X027174Y011380D01*
X026954Y011380D01*
X026954Y011414D01*
X026954Y011610D02*
X027174Y011610D01*
X027174Y011576D01*
X026954Y011576D01*
X026954Y011610D01*
X026954Y011807D02*
X027174Y011807D01*
X027174Y011773D01*
X026954Y011773D01*
X026954Y011807D01*
X026954Y012004D02*
X027174Y012004D01*
X027174Y011970D01*
X026954Y011970D01*
X026954Y012004D01*
X026742Y012182D02*
X026742Y012402D01*
X026776Y012402D01*
X026776Y012182D01*
X026742Y012182D01*
X026742Y012316D02*
X026776Y012316D01*
X026545Y012402D02*
X026545Y012182D01*
X026545Y012402D02*
X026579Y012402D01*
X026579Y012182D01*
X026545Y012182D01*
X026545Y012316D02*
X026579Y012316D01*
X026348Y012402D02*
X026348Y012182D01*
X026348Y012402D02*
X026382Y012402D01*
X026382Y012182D01*
X026348Y012182D01*
X026348Y012316D02*
X026382Y012316D01*
X026151Y012402D02*
X026151Y012182D01*
X026151Y012402D02*
X026185Y012402D01*
X026185Y012182D01*
X026151Y012182D01*
X026151Y012316D02*
X026185Y012316D01*
X025954Y012402D02*
X025954Y012182D01*
X025954Y012402D02*
X025988Y012402D01*
X025988Y012182D01*
X025954Y012182D01*
X025954Y012316D02*
X025988Y012316D01*
X025757Y012402D02*
X025757Y012182D01*
X025757Y012402D02*
X025791Y012402D01*
X025791Y012182D01*
X025757Y012182D01*
X025757Y012316D02*
X025791Y012316D01*
X025561Y012402D02*
X025561Y012182D01*
X025561Y012402D02*
X025595Y012402D01*
X025595Y012182D01*
X025561Y012182D01*
X025561Y012316D02*
X025595Y012316D01*
X025364Y012402D02*
X025364Y012182D01*
X025364Y012402D02*
X025398Y012402D01*
X025398Y012182D01*
X025364Y012182D01*
X025364Y012316D02*
X025398Y012316D01*
X025167Y012402D02*
X025167Y012182D01*
X025167Y012402D02*
X025201Y012402D01*
X025201Y012182D01*
X025167Y012182D01*
X025167Y012316D02*
X025201Y012316D01*
X024970Y012402D02*
X024970Y012182D01*
X024970Y012402D02*
X025004Y012402D01*
X025004Y012182D01*
X024970Y012182D01*
X024970Y012316D02*
X025004Y012316D01*
X024773Y012402D02*
X024773Y012182D01*
X024773Y012402D02*
X024807Y012402D01*
X024807Y012182D01*
X024773Y012182D01*
X024773Y012316D02*
X024807Y012316D01*
X024595Y011970D02*
X024375Y011970D01*
X024375Y012004D01*
X024595Y012004D01*
X024595Y011970D01*
X024595Y011773D02*
X024375Y011773D01*
X024375Y011807D01*
X024595Y011807D01*
X024595Y011773D01*
X024595Y011576D02*
X024375Y011576D01*
X024375Y011610D01*
X024595Y011610D01*
X024595Y011576D01*
X024595Y011380D02*
X024375Y011380D01*
X024375Y011414D01*
X024595Y011414D01*
X024595Y011380D01*
X024595Y011183D02*
X024375Y011183D01*
X024375Y011217D01*
X024595Y011217D01*
X024595Y011183D01*
D18*
X023701Y011295D02*
X023281Y011295D01*
X023281Y011341D01*
X023701Y011341D01*
X023701Y011295D01*
X023701Y010980D02*
X023281Y010980D01*
X023281Y011026D01*
X023701Y011026D01*
X023701Y010980D01*
X023701Y010665D02*
X023281Y010665D01*
X023281Y010711D01*
X023701Y010711D01*
X023701Y010665D01*
X023701Y010350D02*
X023281Y010350D01*
X023281Y010396D01*
X023701Y010396D01*
X023701Y010350D01*
X023701Y010035D02*
X023281Y010035D01*
X023281Y010081D01*
X023701Y010081D01*
X023701Y010035D01*
X023701Y009720D02*
X023281Y009720D01*
X023281Y009766D01*
X023701Y009766D01*
X023701Y009720D01*
X023701Y009405D02*
X023281Y009405D01*
X023281Y009451D01*
X023701Y009451D01*
X023701Y009405D01*
X024177Y008509D02*
X024223Y008509D01*
X024177Y008509D02*
X024177Y008929D01*
X024223Y008929D01*
X024223Y008509D01*
X024223Y008698D02*
X024177Y008698D01*
X024177Y008887D02*
X024223Y008887D01*
X024492Y008509D02*
X024538Y008509D01*
X024492Y008509D02*
X024492Y008929D01*
X024538Y008929D01*
X024538Y008509D01*
X024538Y008698D02*
X024492Y008698D01*
X024492Y008887D02*
X024538Y008887D01*
X024807Y008509D02*
X024853Y008509D01*
X024807Y008509D02*
X024807Y008929D01*
X024853Y008929D01*
X024853Y008509D01*
X024853Y008698D02*
X024807Y008698D01*
X024807Y008887D02*
X024853Y008887D01*
X025122Y008509D02*
X025168Y008509D01*
X025122Y008509D02*
X025122Y008929D01*
X025168Y008929D01*
X025168Y008509D01*
X025168Y008698D02*
X025122Y008698D01*
X025122Y008887D02*
X025168Y008887D01*
X025437Y008509D02*
X025483Y008509D01*
X025437Y008509D02*
X025437Y008929D01*
X025483Y008929D01*
X025483Y008509D01*
X025483Y008698D02*
X025437Y008698D01*
X025437Y008887D02*
X025483Y008887D01*
X025751Y008509D02*
X025797Y008509D01*
X025751Y008509D02*
X025751Y008929D01*
X025797Y008929D01*
X025797Y008509D01*
X025797Y008698D02*
X025751Y008698D01*
X025751Y008887D02*
X025797Y008887D01*
X026066Y008509D02*
X026112Y008509D01*
X026066Y008509D02*
X026066Y008929D01*
X026112Y008929D01*
X026112Y008509D01*
X026112Y008698D02*
X026066Y008698D01*
X026066Y008887D02*
X026112Y008887D01*
X026381Y008509D02*
X026427Y008509D01*
X026381Y008509D02*
X026381Y008929D01*
X026427Y008929D01*
X026427Y008509D01*
X026427Y008698D02*
X026381Y008698D01*
X026381Y008887D02*
X026427Y008887D01*
X026696Y008509D02*
X026742Y008509D01*
X026696Y008509D02*
X026696Y008929D01*
X026742Y008929D01*
X026742Y008509D01*
X026742Y008698D02*
X026696Y008698D01*
X026696Y008887D02*
X026742Y008887D01*
X027011Y008509D02*
X027057Y008509D01*
X027011Y008509D02*
X027011Y008929D01*
X027057Y008929D01*
X027057Y008509D01*
X027057Y008698D02*
X027011Y008698D01*
X027011Y008887D02*
X027057Y008887D01*
X027326Y008509D02*
X027372Y008509D01*
X027326Y008509D02*
X027326Y008929D01*
X027372Y008929D01*
X027372Y008509D01*
X027372Y008698D02*
X027326Y008698D01*
X027326Y008887D02*
X027372Y008887D01*
X027848Y009405D02*
X028268Y009405D01*
X027848Y009405D02*
X027848Y009451D01*
X028268Y009451D01*
X028268Y009405D01*
X028268Y009720D02*
X027848Y009720D01*
X027848Y009766D01*
X028268Y009766D01*
X028268Y009720D01*
X028268Y010035D02*
X027848Y010035D01*
X027848Y010081D01*
X028268Y010081D01*
X028268Y010035D01*
X028268Y010350D02*
X027848Y010350D01*
X027848Y010396D01*
X028268Y010396D01*
X028268Y010350D01*
X028268Y010665D02*
X027848Y010665D01*
X027848Y010711D01*
X028268Y010711D01*
X028268Y010665D01*
X028268Y010980D02*
X027848Y010980D01*
X027848Y011026D01*
X028268Y011026D01*
X028268Y010980D01*
X028268Y011295D02*
X027848Y011295D01*
X027848Y011341D01*
X028268Y011341D01*
X028268Y011295D01*
X028268Y011610D02*
X027848Y011610D01*
X027848Y011656D01*
X028268Y011656D01*
X028268Y011610D01*
X028268Y011925D02*
X027848Y011925D01*
X027848Y011971D01*
X028268Y011971D01*
X028268Y011925D01*
X028268Y012240D02*
X027848Y012240D01*
X027848Y012286D01*
X028268Y012286D01*
X028268Y012240D01*
X028268Y012555D02*
X027848Y012555D01*
X027848Y012601D01*
X028268Y012601D01*
X028268Y012555D01*
X027372Y013076D02*
X027326Y013076D01*
X027326Y013496D01*
X027372Y013496D01*
X027372Y013076D01*
X027372Y013265D02*
X027326Y013265D01*
X027326Y013454D02*
X027372Y013454D01*
X027057Y013076D02*
X027011Y013076D01*
X027011Y013496D01*
X027057Y013496D01*
X027057Y013076D01*
X027057Y013265D02*
X027011Y013265D01*
X027011Y013454D02*
X027057Y013454D01*
X026742Y013076D02*
X026696Y013076D01*
X026696Y013496D01*
X026742Y013496D01*
X026742Y013076D01*
X026742Y013265D02*
X026696Y013265D01*
X026696Y013454D02*
X026742Y013454D01*
X026427Y013076D02*
X026381Y013076D01*
X026381Y013496D01*
X026427Y013496D01*
X026427Y013076D01*
X026427Y013265D02*
X026381Y013265D01*
X026381Y013454D02*
X026427Y013454D01*
X026112Y013076D02*
X026066Y013076D01*
X026066Y013496D01*
X026112Y013496D01*
X026112Y013076D01*
X026112Y013265D02*
X026066Y013265D01*
X026066Y013454D02*
X026112Y013454D01*
X025797Y013076D02*
X025751Y013076D01*
X025751Y013496D01*
X025797Y013496D01*
X025797Y013076D01*
X025797Y013265D02*
X025751Y013265D01*
X025751Y013454D02*
X025797Y013454D01*
X025483Y013076D02*
X025437Y013076D01*
X025437Y013496D01*
X025483Y013496D01*
X025483Y013076D01*
X025483Y013265D02*
X025437Y013265D01*
X025437Y013454D02*
X025483Y013454D01*
X025168Y013076D02*
X025122Y013076D01*
X025122Y013496D01*
X025168Y013496D01*
X025168Y013076D01*
X025168Y013265D02*
X025122Y013265D01*
X025122Y013454D02*
X025168Y013454D01*
X024853Y013076D02*
X024807Y013076D01*
X024807Y013496D01*
X024853Y013496D01*
X024853Y013076D01*
X024853Y013265D02*
X024807Y013265D01*
X024807Y013454D02*
X024853Y013454D01*
X024538Y013076D02*
X024492Y013076D01*
X024492Y013496D01*
X024538Y013496D01*
X024538Y013076D01*
X024538Y013265D02*
X024492Y013265D01*
X024492Y013454D02*
X024538Y013454D01*
X024223Y013076D02*
X024177Y013076D01*
X024177Y013496D01*
X024223Y013496D01*
X024223Y013076D01*
X024223Y013265D02*
X024177Y013265D01*
X024177Y013454D02*
X024223Y013454D01*
X023701Y012555D02*
X023281Y012555D01*
X023281Y012601D01*
X023701Y012601D01*
X023701Y012555D01*
X023701Y012240D02*
X023281Y012240D01*
X023281Y012286D01*
X023701Y012286D01*
X023701Y012240D01*
X023701Y011925D02*
X023281Y011925D01*
X023281Y011971D01*
X023701Y011971D01*
X023701Y011925D01*
X023701Y011610D02*
X023281Y011610D01*
X023281Y011656D01*
X023701Y011656D01*
X023701Y011610D01*
D19*
X025774Y011003D03*
D20*
X026492Y019556D03*
X026964Y019556D03*
X027437Y019556D03*
X027909Y019556D03*
X028382Y019556D03*
X028854Y019556D03*
X029327Y019556D03*
X029799Y019556D03*
X030272Y019556D03*
X030744Y019556D03*
X031216Y019556D03*
X031689Y019556D03*
X032161Y019556D03*
X032161Y025068D03*
X031689Y025068D03*
X031216Y025068D03*
X030744Y025068D03*
X030272Y025068D03*
X029799Y025068D03*
X029327Y025068D03*
X028854Y025068D03*
X028382Y025068D03*
X027909Y025068D03*
X027437Y025068D03*
X026964Y025068D03*
X026492Y025068D03*
D21*
X025272Y023454D03*
X025272Y022981D03*
X025272Y022509D03*
X025272Y022036D03*
X025272Y021564D03*
X025272Y021091D03*
D22*
X023375Y026597D03*
X022391Y026597D03*
X021406Y026597D03*
X020422Y026597D03*
D23*
X002830Y020431D03*
X002830Y019673D03*
D24*
X002830Y018979D03*
X003026Y018979D03*
X003026Y021124D03*
X002830Y021124D03*
D25*
X002977Y021124D03*
X002977Y018979D03*
D26*
X003597Y018875D03*
X003597Y021228D03*
D27*
X004121Y021193D03*
X004121Y018910D03*
D28*
X004200Y019097D03*
X004042Y019097D03*
X004042Y021006D03*
X004200Y021006D03*
D29*
X004040Y020563D03*
X004040Y020308D03*
X004040Y020052D03*
X004040Y019796D03*
X004040Y019540D03*
D30*
X023674Y005495D03*
X027474Y005495D03*
D31*
X011341Y009629D03*
X011341Y009826D03*
X011341Y010023D03*
X011341Y010219D03*
X011341Y010416D03*
X010278Y010416D03*
X010278Y010219D03*
X010278Y010023D03*
X010278Y009826D03*
X010278Y009629D03*
D32*
X010810Y010023D03*
D33*
X010219Y008999D03*
X010219Y008290D03*
X010219Y004865D03*
X010219Y004156D03*
X009432Y004156D03*
X009432Y004865D03*
X012385Y022267D03*
X012385Y022975D03*
X013763Y022857D03*
X013763Y023566D03*
D34*
X008586Y024983D03*
X007916Y024983D03*
X021893Y017897D03*
X022562Y017897D03*
X024845Y014353D03*
X025515Y014353D03*
X022168Y011007D03*
X021499Y011007D03*
X025239Y007936D03*
X025908Y007936D03*
X026026Y007070D03*
X026696Y007070D03*
X025121Y007070D03*
X024452Y007070D03*
X033310Y006282D03*
X033979Y006282D03*
X015082Y009393D03*
X014412Y009393D03*
X014412Y010219D03*
X015082Y010219D03*
X012719Y012582D03*
X012050Y012582D03*
X013428Y013763D03*
X014097Y013763D03*
X009176Y008448D03*
X008507Y008448D03*
G36*
X008311Y006978D02*
X008658Y007325D01*
X008979Y007004D01*
X008632Y006657D01*
X008311Y006978D01*
G37*
G36*
X007838Y006505D02*
X008185Y006852D01*
X008506Y006531D01*
X008159Y006184D01*
X007838Y006505D01*
G37*
X010278Y006676D03*
X010948Y006676D03*
D35*
X009235Y009393D03*
X009235Y010652D03*
D36*
X011007Y005436D03*
X011204Y005436D03*
X011400Y005436D03*
X011597Y005436D03*
X011794Y005436D03*
X011794Y004373D03*
X011597Y004373D03*
X011400Y004373D03*
X011204Y004373D03*
X011007Y004373D03*
D37*
X011400Y004904D03*
D38*
X012227Y004314D03*
X012936Y004314D03*
X010967Y011007D03*
X010259Y011007D03*
X010259Y011597D03*
X010967Y011597D03*
D39*
X010771Y003330D03*
X012030Y003330D03*
D40*
X011204Y013881D03*
X010416Y013881D03*
D41*
X009471Y015928D03*
X012149Y015928D03*
D42*
X030208Y004589D03*
X031192Y004589D03*
X032176Y004589D03*
X033160Y004589D03*
D43*
X005149Y023202D03*
X005149Y024202D03*
X027399Y029827D03*
X028399Y029827D03*
D44*
X024151Y020112D03*
X023127Y020112D03*
X023127Y019738D03*
X023127Y019364D03*
X024151Y019364D03*
X023847Y017610D03*
X023847Y016862D03*
X024871Y016862D03*
X024871Y017236D03*
X024871Y017610D03*
D45*
X020997Y005633D03*
X020997Y004176D03*
X019127Y004176D03*
X019127Y005633D03*
D46*
G36*
X007854Y007545D02*
X008175Y007866D01*
X008496Y007545D01*
X008175Y007224D01*
X007854Y007545D01*
G37*
G36*
X007297Y006988D02*
X007618Y007309D01*
X007939Y006988D01*
X007618Y006667D01*
X007297Y006988D01*
G37*
D47*
X008448Y016873D03*
X008448Y017739D03*
X005298Y020810D03*
X005298Y021676D03*
D48*
X006243Y009826D03*
X007109Y009826D03*
X030849Y009826D03*
X031715Y009826D03*
D49*
X015908Y007109D03*
X015160Y007109D03*
X015534Y006243D03*
D50*
X016629Y020456D03*
X019164Y020456D03*
D51*
X015377Y004117D03*
X014511Y004117D03*
D52*
X014786Y004885D03*
X015101Y004885D03*
D53*
X015906Y023855D03*
X016891Y023855D03*
X016891Y024840D03*
X016891Y025824D03*
X015906Y025824D03*
X015906Y024840D03*
D54*
X015572Y027084D03*
X017225Y022596D03*
D55*
X010889Y022660D03*
X010889Y022503D03*
X010889Y022345D03*
X010889Y022818D03*
X010889Y022975D03*
X010889Y023133D03*
X010889Y023290D03*
X009550Y023290D03*
X009550Y023133D03*
X009550Y022975D03*
X009550Y022818D03*
X009550Y022660D03*
X009550Y022503D03*
X009550Y022345D03*
D56*
X010219Y022818D03*
D57*
X007424Y021243D03*
X006322Y021243D03*
D58*
X014550Y022168D03*
X014550Y022680D03*
D59*
X005219Y009727D03*
X005219Y008743D03*
X005219Y007759D03*
X005219Y006774D03*
X005219Y005790D03*
X003251Y005790D03*
X003251Y006774D03*
X003251Y007759D03*
X003251Y008743D03*
X003251Y009727D03*
D60*
X003133Y010810D03*
X003133Y011991D03*
X003133Y013369D03*
X003133Y014550D03*
X008251Y010613D03*
X009038Y011400D03*
X009629Y011400D03*
X010810Y010416D03*
X010810Y009629D03*
X011794Y008841D03*
X012582Y009038D03*
X014156Y008645D03*
X012582Y007660D03*
X011597Y007463D03*
X010810Y008251D03*
X010219Y007463D03*
X009826Y006086D03*
X010219Y005495D03*
X011007Y006086D03*
X011007Y004904D03*
X011794Y004904D03*
X012188Y005495D03*
X013172Y005101D03*
X013763Y006086D03*
X016912Y004708D03*
X017306Y006479D03*
X020849Y007660D03*
X021046Y006282D03*
X023408Y008448D03*
X024393Y007660D03*
X024589Y006479D03*
X024393Y003920D03*
X023408Y003920D03*
X028526Y007267D03*
X030101Y006479D03*
X030889Y007660D03*
X028920Y009235D03*
X030101Y011007D03*
X029511Y011597D03*
X030692Y011597D03*
X031479Y012975D03*
X028920Y012778D03*
X027149Y014944D03*
X025519Y014904D03*
X023999Y014353D03*
X023015Y013172D03*
X021834Y014353D03*
X019668Y013172D03*
X018093Y013763D03*
X016912Y015534D03*
X017503Y016125D03*
X018684Y016322D03*
X019274Y017897D03*
X021243Y018881D03*
X022424Y019668D03*
X020849Y020652D03*
X023015Y022424D03*
X026952Y021440D03*
X028723Y022227D03*
X030101Y023605D03*
X026952Y026558D03*
X025771Y026952D03*
X024196Y026755D03*
X019668Y026952D03*
X012975Y023015D03*
X013172Y022227D03*
X013960Y021637D03*
X012975Y021046D03*
X012778Y020259D03*
X011991Y020259D03*
X010219Y020259D03*
X010219Y021046D03*
X009432Y021046D03*
X010219Y021834D03*
X008645Y022424D03*
X006676Y023015D03*
X007857Y024393D03*
X008645Y024393D03*
X010023Y024589D03*
X010219Y023802D03*
X008448Y025771D03*
X008645Y018881D03*
X008645Y018290D03*
X012188Y017306D03*
X013369Y017897D03*
X014944Y018881D03*
X012975Y015928D03*
X013960Y015337D03*
X014156Y014550D03*
X013369Y012582D03*
X012582Y011400D03*
X011794Y011400D03*
X011794Y011991D03*
X013369Y011007D03*
X013763Y010219D03*
X012975Y010219D03*
X011991Y010219D03*
X014353Y011007D03*
X015534Y011007D03*
X018093Y010613D03*
X019274Y010810D03*
X020849Y010416D03*
X023015Y016912D03*
X021834Y017109D03*
X023999Y018684D03*
X026361Y018093D03*
X027542Y018093D03*
X028330Y017109D03*
X027345Y016912D03*
X029511Y018093D03*
X030692Y016125D03*
X032070Y015534D03*
X011204Y015337D03*
X008448Y014747D03*
X007463Y006086D03*
X008251Y005889D03*
D61*
X011794Y021243D03*
X011794Y021834D03*
X011794Y022424D03*
M02*
