%
M48
M72
T01C0.0236
T02C0.0256
T03C0.0276
T04C0.0315
T05C0.0354
T06C0.0374
T07C0.0402
T08C0.0531
T09C0.1440
%
T01
X2740Y4437
X5693Y8177
X6874Y9949
X6874Y10736
X9236Y8965
X9236Y8177
X10220Y7390
X11008Y7587
X11402Y8768
X12189Y8768
X11795Y9555
X11008Y9949
X10220Y9949
X10220Y10539
X11795Y11130
X12780Y9555
X13961Y9555
X16520Y9161
X17701Y9358
X19276Y8965
X21835Y6996
X22819Y6209
X23016Y5028
X22819Y2469
X21835Y2469
X19472Y4831
X19276Y6209
X15732Y5028
X15339Y3256
X12189Y4634
X11598Y3650
X10614Y4043
X10220Y3453
X9433Y3453
X8646Y4043
X8252Y4634
X9433Y4634
X10024Y6012
X11008Y6209
X12583Y7193
X10417Y8768
X9236Y6799
X8646Y6012
X1559Y10539
X1559Y11917
X1559Y13098
X6480Y17232
X7071Y16839
X9039Y18807
X10220Y19988
X10417Y21169
X9236Y21169
X8055Y20776
X6480Y20185
X6480Y19398
X5496Y20776
X4906Y22154
X9039Y22547
X13567Y21169
X13567Y20579
X13567Y19988
X12189Y18807
X11598Y17823
X11008Y18807
X13370Y17429
X11795Y16445
X10614Y15854
X11402Y14476
X12386Y13886
X12583Y13098
X15339Y14083
X15929Y14673
X17110Y14870
X17701Y16445
X19669Y17429
X20850Y18217
X19276Y19201
X22425Y17232
X21441Y15461
X20260Y15657
X20260Y12902
X21441Y11720
X22425Y12902
X23945Y13453
X25575Y13492
X25772Y15461
X26756Y15657
X25969Y16642
X24787Y16642
X27937Y16642
X29118Y14673
X30496Y14083
X29906Y11524
X29118Y10146
X28528Y9555
X27937Y10146
X27346Y11327
X27346Y7783
X29315Y6209
X28528Y5028
X26953Y5815
X18094Y11720
X16520Y12311
X9630Y13886
X19144Y22285
X22622Y25303
X24197Y25500
X25378Y25106
X28528Y22154
X27150Y20776
X25378Y19988
X18094Y25500
T02
X19144Y25145
X19931Y25145
X20719Y25145
X21506Y25145
X2626Y19555
X2469Y19555
X2469Y17645
X2626Y17645
T03
X1453Y17527
X1256Y17527
X1256Y19673
X1453Y19673
T04
X1700Y8575
X1700Y7787
X1700Y7000
X1700Y6213
X1700Y5425
T05
X14333Y22404
X15317Y22404
X15317Y23388
X14333Y23388
X14333Y24372
X15317Y24372
X28634Y3138
X29618Y3138
X30602Y3138
X31587Y3138
T06
X17965Y5878
X17965Y6878
X17965Y7878
X16965Y7878
X16965Y6878
X16965Y5878
T07
X3575Y21750
X3575Y22750
X25825Y28375
X26825Y28375
T08
X15652Y21144
X13998Y25632
T09
X5325Y4000
X4315Y16248
X10325Y24500
X21075Y28450
X34825Y2125
M30
