G75*
%MOIN*%
%OFA0B0*%
%FSLAX24Y24*%
%IPPOS*%
%LPD*%
%AMOC8*
5,1,8,0,0,1.08239X$1,22.5*
%
%ADD10C,0.1500*%
%ADD11OC8,0.0670*%
%ADD12C,0.0860*%
%ADD13C,0.0460*%
%ADD14R,0.0454X0.0454*%
%ADD15R,0.0454X0.0493*%
%ADD16C,0.1000*%
%ADD17C,0.0135*%
%ADD18C,0.0190*%
%ADD19C,0.0454*%
%ADD20R,0.0375X0.1438*%
%ADD21R,0.1438X0.0375*%
%ADD22R,0.0456X0.0456*%
%ADD23R,0.1044X0.0621*%
%ADD24C,0.0336*%
%ADD25R,0.1025X0.0572*%
%ADD26R,0.0336X0.0779*%
%ADD27R,0.0635X0.0847*%
%ADD28C,0.0316*%
%ADD29R,0.0749X0.0217*%
%ADD30R,0.2160X0.0820*%
%ADD31R,0.0454X0.0158*%
%ADD32R,0.0414X0.1084*%
%ADD33R,0.0532X0.0375*%
%ADD34R,0.0493X0.0454*%
%ADD35R,0.0847X0.0532*%
%ADD36R,0.0158X0.0454*%
%ADD37R,0.1084X0.0414*%
%ADD38R,0.0375X0.0532*%
%ADD39R,0.0532X0.0847*%
%ADD40R,0.0454X0.1871*%
%ADD41R,0.0690X0.1399*%
%ADD42R,0.0336X0.0532*%
%ADD43R,0.0454X0.0611*%
%ADD44R,0.0591X0.0591*%
%ADD45C,0.0591*%
%ADD46R,0.0662X0.0662*%
%ADD47R,0.0611X0.0454*%
%ADD48R,0.0532X0.0532*%
%ADD49R,0.0532X0.0277*%
%ADD50R,0.1241X0.0532*%
%ADD51R,0.0513X0.0178*%
%ADD52R,0.0454X0.1241*%
%ADD53R,0.0454X0.0532*%
%ADD54R,0.0532X0.0454*%
%ADD55R,0.0591X0.0237*%
%ADD56R,0.1151X0.1064*%
%ADD57R,0.0454X0.0769*%
%ADD58R,0.0532X0.0729*%
%ADD59R,0.0257X0.0454*%
%ADD60R,0.0436X0.0436*%
D10*
X005521Y004271D03*
X004511Y016519D03*
X010521Y024771D03*
X021271Y028721D03*
X035021Y002396D03*
D11*
X018160Y006149D03*
X018160Y007149D03*
X018160Y008149D03*
X017160Y008149D03*
X017160Y007149D03*
X017160Y006149D03*
D12*
X001723Y015739D02*
X001725Y015766D01*
X001731Y015793D01*
X001740Y015819D01*
X001753Y015843D01*
X001769Y015866D01*
X001788Y015885D01*
X001810Y015902D01*
X001834Y015916D01*
X001859Y015926D01*
X001886Y015933D01*
X001913Y015936D01*
X001941Y015935D01*
X001968Y015930D01*
X001994Y015922D01*
X002018Y015910D01*
X002041Y015894D01*
X002062Y015876D01*
X002079Y015855D01*
X002094Y015831D01*
X002105Y015806D01*
X002113Y015780D01*
X002117Y015753D01*
X002117Y015725D01*
X002113Y015698D01*
X002105Y015672D01*
X002094Y015647D01*
X002079Y015623D01*
X002062Y015602D01*
X002041Y015584D01*
X002019Y015568D01*
X001994Y015556D01*
X001968Y015548D01*
X001941Y015543D01*
X001913Y015542D01*
X001886Y015545D01*
X001859Y015552D01*
X001834Y015562D01*
X001810Y015576D01*
X001788Y015593D01*
X001769Y015612D01*
X001753Y015635D01*
X001740Y015659D01*
X001731Y015685D01*
X001725Y015712D01*
X001723Y015739D01*
X028684Y026219D02*
X028686Y026246D01*
X028692Y026273D01*
X028701Y026299D01*
X028714Y026323D01*
X028730Y026346D01*
X028749Y026365D01*
X028771Y026382D01*
X028795Y026396D01*
X028820Y026406D01*
X028847Y026413D01*
X028874Y026416D01*
X028902Y026415D01*
X028929Y026410D01*
X028955Y026402D01*
X028979Y026390D01*
X029002Y026374D01*
X029023Y026356D01*
X029040Y026335D01*
X029055Y026311D01*
X029066Y026286D01*
X029074Y026260D01*
X029078Y026233D01*
X029078Y026205D01*
X029074Y026178D01*
X029066Y026152D01*
X029055Y026127D01*
X029040Y026103D01*
X029023Y026082D01*
X029002Y026064D01*
X028980Y026048D01*
X028955Y026036D01*
X028929Y026028D01*
X028902Y026023D01*
X028874Y026022D01*
X028847Y026025D01*
X028820Y026032D01*
X028795Y026042D01*
X028771Y026056D01*
X028749Y026073D01*
X028730Y026092D01*
X028714Y026115D01*
X028701Y026139D01*
X028692Y026165D01*
X028686Y026192D01*
X028684Y026219D01*
X034928Y006566D02*
X034930Y006593D01*
X034936Y006620D01*
X034945Y006646D01*
X034958Y006670D01*
X034974Y006693D01*
X034993Y006712D01*
X035015Y006729D01*
X035039Y006743D01*
X035064Y006753D01*
X035091Y006760D01*
X035118Y006763D01*
X035146Y006762D01*
X035173Y006757D01*
X035199Y006749D01*
X035223Y006737D01*
X035246Y006721D01*
X035267Y006703D01*
X035284Y006682D01*
X035299Y006658D01*
X035310Y006633D01*
X035318Y006607D01*
X035322Y006580D01*
X035322Y006552D01*
X035318Y006525D01*
X035310Y006499D01*
X035299Y006474D01*
X035284Y006450D01*
X035267Y006429D01*
X035246Y006411D01*
X035224Y006395D01*
X035199Y006383D01*
X035173Y006375D01*
X035146Y006370D01*
X035118Y006369D01*
X035091Y006372D01*
X035064Y006379D01*
X035039Y006389D01*
X035015Y006403D01*
X034993Y006420D01*
X034974Y006439D01*
X034958Y006462D01*
X034945Y006486D01*
X034936Y006512D01*
X034930Y006539D01*
X034928Y006566D01*
D13*
X035125Y006566D03*
X028881Y026219D03*
X001920Y015739D03*
D14*
X004314Y008054D03*
X004314Y007267D03*
X003526Y007267D03*
X002739Y007267D03*
X002739Y006479D03*
X002739Y005692D03*
X003526Y005692D03*
X003526Y006479D03*
X012582Y014747D03*
X012582Y015534D03*
X012582Y016322D03*
X012582Y017109D03*
D15*
X013369Y017050D03*
X013369Y016381D03*
X013369Y015475D03*
X013369Y014806D03*
X008251Y018940D03*
X008251Y019609D03*
X010139Y019824D03*
X010139Y020493D03*
X008841Y021499D03*
X008841Y022168D03*
X006676Y023271D03*
X006676Y023940D03*
X005692Y023743D03*
X005692Y023074D03*
X005101Y020397D03*
X005101Y019727D03*
X019274Y011735D03*
X019274Y011066D03*
X021715Y012641D03*
X021715Y013310D03*
X026755Y012719D03*
X026755Y012050D03*
X028133Y012641D03*
X028133Y013310D03*
X028526Y008586D03*
X028526Y007916D03*
X022385Y006420D03*
X022385Y005751D03*
X020574Y005554D03*
X020574Y006223D03*
X012975Y005830D03*
X012975Y005160D03*
X011794Y005239D03*
X011794Y004570D03*
X011550Y002255D03*
X011550Y001586D03*
X011991Y007129D03*
X011991Y007798D03*
X006676Y008113D03*
X006676Y008782D03*
X005298Y007798D03*
X005298Y007129D03*
X022030Y019727D03*
X022030Y020397D03*
X024589Y027995D03*
X024589Y028664D03*
D16*
X024147Y009822D02*
X024149Y009853D01*
X024155Y009884D01*
X024165Y009914D01*
X024178Y009942D01*
X024195Y009969D01*
X024215Y009993D01*
X024238Y010015D01*
X024263Y010033D01*
X024291Y010048D01*
X024320Y010060D01*
X024350Y010068D01*
X024381Y010072D01*
X024413Y010072D01*
X024444Y010068D01*
X024474Y010060D01*
X024503Y010048D01*
X024531Y010033D01*
X024556Y010015D01*
X024579Y009993D01*
X024599Y009969D01*
X024616Y009942D01*
X024629Y009914D01*
X024639Y009884D01*
X024645Y009853D01*
X024647Y009822D01*
X024645Y009791D01*
X024639Y009760D01*
X024629Y009730D01*
X024616Y009702D01*
X024599Y009675D01*
X024579Y009651D01*
X024556Y009629D01*
X024531Y009611D01*
X024503Y009596D01*
X024474Y009584D01*
X024444Y009576D01*
X024413Y009572D01*
X024381Y009572D01*
X024350Y009576D01*
X024320Y009584D01*
X024291Y009596D01*
X024263Y009611D01*
X024238Y009629D01*
X024215Y009651D01*
X024195Y009675D01*
X024178Y009702D01*
X024165Y009730D01*
X024155Y009760D01*
X024149Y009791D01*
X024147Y009822D01*
D17*
X023217Y009805D02*
X022997Y009805D01*
X022997Y009839D01*
X023217Y009839D01*
X023217Y009805D01*
X023217Y009608D02*
X022997Y009608D01*
X022997Y009642D01*
X023217Y009642D01*
X023217Y009608D01*
X023217Y009411D02*
X022997Y009411D01*
X022997Y009445D01*
X023217Y009445D01*
X023217Y009411D01*
X023217Y009214D02*
X022997Y009214D01*
X022997Y009248D01*
X023217Y009248D01*
X023217Y009214D01*
X023217Y009017D02*
X022997Y009017D01*
X022997Y009051D01*
X023217Y009051D01*
X023217Y009017D01*
X023217Y008820D02*
X022997Y008820D01*
X022997Y008854D01*
X023217Y008854D01*
X023217Y008820D01*
X023429Y008642D02*
X023429Y008422D01*
X023395Y008422D01*
X023395Y008642D01*
X023429Y008642D01*
X023429Y008556D02*
X023395Y008556D01*
X023626Y008642D02*
X023626Y008422D01*
X023592Y008422D01*
X023592Y008642D01*
X023626Y008642D01*
X023626Y008556D02*
X023592Y008556D01*
X023823Y008642D02*
X023823Y008422D01*
X023789Y008422D01*
X023789Y008642D01*
X023823Y008642D01*
X023823Y008556D02*
X023789Y008556D01*
X024020Y008642D02*
X024020Y008422D01*
X023986Y008422D01*
X023986Y008642D01*
X024020Y008642D01*
X024020Y008556D02*
X023986Y008556D01*
X024217Y008642D02*
X024217Y008422D01*
X024183Y008422D01*
X024183Y008642D01*
X024217Y008642D01*
X024217Y008556D02*
X024183Y008556D01*
X024414Y008642D02*
X024414Y008422D01*
X024380Y008422D01*
X024380Y008642D01*
X024414Y008642D01*
X024414Y008556D02*
X024380Y008556D01*
X024610Y008642D02*
X024610Y008422D01*
X024576Y008422D01*
X024576Y008642D01*
X024610Y008642D01*
X024610Y008556D02*
X024576Y008556D01*
X024807Y008642D02*
X024807Y008422D01*
X024773Y008422D01*
X024773Y008642D01*
X024807Y008642D01*
X024807Y008556D02*
X024773Y008556D01*
X025004Y008642D02*
X025004Y008422D01*
X024970Y008422D01*
X024970Y008642D01*
X025004Y008642D01*
X025004Y008556D02*
X024970Y008556D01*
X025201Y008642D02*
X025201Y008422D01*
X025167Y008422D01*
X025167Y008642D01*
X025201Y008642D01*
X025201Y008556D02*
X025167Y008556D01*
X025398Y008642D02*
X025398Y008422D01*
X025364Y008422D01*
X025364Y008642D01*
X025398Y008642D01*
X025398Y008556D02*
X025364Y008556D01*
X025576Y008854D02*
X025796Y008854D01*
X025796Y008820D01*
X025576Y008820D01*
X025576Y008854D01*
X025576Y009051D02*
X025796Y009051D01*
X025796Y009017D01*
X025576Y009017D01*
X025576Y009051D01*
X025576Y009248D02*
X025796Y009248D01*
X025796Y009214D01*
X025576Y009214D01*
X025576Y009248D01*
X025576Y009445D02*
X025796Y009445D01*
X025796Y009411D01*
X025576Y009411D01*
X025576Y009445D01*
X025576Y009642D02*
X025796Y009642D01*
X025796Y009608D01*
X025576Y009608D01*
X025576Y009642D01*
X025576Y009839D02*
X025796Y009839D01*
X025796Y009805D01*
X025576Y009805D01*
X025576Y009839D01*
X025576Y010036D02*
X025796Y010036D01*
X025796Y010002D01*
X025576Y010002D01*
X025576Y010036D01*
X025576Y010232D02*
X025796Y010232D01*
X025796Y010198D01*
X025576Y010198D01*
X025576Y010232D01*
X025576Y010429D02*
X025796Y010429D01*
X025796Y010395D01*
X025576Y010395D01*
X025576Y010429D01*
X025576Y010626D02*
X025796Y010626D01*
X025796Y010592D01*
X025576Y010592D01*
X025576Y010626D01*
X025576Y010823D02*
X025796Y010823D01*
X025796Y010789D01*
X025576Y010789D01*
X025576Y010823D01*
X025364Y011001D02*
X025364Y011221D01*
X025398Y011221D01*
X025398Y011001D01*
X025364Y011001D01*
X025364Y011135D02*
X025398Y011135D01*
X025167Y011221D02*
X025167Y011001D01*
X025167Y011221D02*
X025201Y011221D01*
X025201Y011001D01*
X025167Y011001D01*
X025167Y011135D02*
X025201Y011135D01*
X024970Y011221D02*
X024970Y011001D01*
X024970Y011221D02*
X025004Y011221D01*
X025004Y011001D01*
X024970Y011001D01*
X024970Y011135D02*
X025004Y011135D01*
X024773Y011221D02*
X024773Y011001D01*
X024773Y011221D02*
X024807Y011221D01*
X024807Y011001D01*
X024773Y011001D01*
X024773Y011135D02*
X024807Y011135D01*
X024576Y011221D02*
X024576Y011001D01*
X024576Y011221D02*
X024610Y011221D01*
X024610Y011001D01*
X024576Y011001D01*
X024576Y011135D02*
X024610Y011135D01*
X024380Y011221D02*
X024380Y011001D01*
X024380Y011221D02*
X024414Y011221D01*
X024414Y011001D01*
X024380Y011001D01*
X024380Y011135D02*
X024414Y011135D01*
X024183Y011221D02*
X024183Y011001D01*
X024183Y011221D02*
X024217Y011221D01*
X024217Y011001D01*
X024183Y011001D01*
X024183Y011135D02*
X024217Y011135D01*
X023986Y011221D02*
X023986Y011001D01*
X023986Y011221D02*
X024020Y011221D01*
X024020Y011001D01*
X023986Y011001D01*
X023986Y011135D02*
X024020Y011135D01*
X023789Y011221D02*
X023789Y011001D01*
X023789Y011221D02*
X023823Y011221D01*
X023823Y011001D01*
X023789Y011001D01*
X023789Y011135D02*
X023823Y011135D01*
X023592Y011221D02*
X023592Y011001D01*
X023592Y011221D02*
X023626Y011221D01*
X023626Y011001D01*
X023592Y011001D01*
X023592Y011135D02*
X023626Y011135D01*
X023395Y011221D02*
X023395Y011001D01*
X023395Y011221D02*
X023429Y011221D01*
X023429Y011001D01*
X023395Y011001D01*
X023395Y011135D02*
X023429Y011135D01*
X023217Y010789D02*
X022997Y010789D01*
X022997Y010823D01*
X023217Y010823D01*
X023217Y010789D01*
X023217Y010592D02*
X022997Y010592D01*
X022997Y010626D01*
X023217Y010626D01*
X023217Y010592D01*
X023217Y010395D02*
X022997Y010395D01*
X022997Y010429D01*
X023217Y010429D01*
X023217Y010395D01*
X023217Y010198D02*
X022997Y010198D01*
X022997Y010232D01*
X023217Y010232D01*
X023217Y010198D01*
X023217Y010002D02*
X022997Y010002D01*
X022997Y010036D01*
X023217Y010036D01*
X023217Y010002D01*
D18*
X022323Y010114D02*
X021903Y010114D01*
X021903Y010160D01*
X022323Y010160D01*
X022323Y010114D01*
X022323Y009799D02*
X021903Y009799D01*
X021903Y009845D01*
X022323Y009845D01*
X022323Y009799D01*
X022323Y009484D02*
X021903Y009484D01*
X021903Y009530D01*
X022323Y009530D01*
X022323Y009484D01*
X022323Y009169D02*
X021903Y009169D01*
X021903Y009215D01*
X022323Y009215D01*
X022323Y009169D01*
X022323Y008854D02*
X021903Y008854D01*
X021903Y008900D01*
X022323Y008900D01*
X022323Y008854D01*
X022323Y008539D02*
X021903Y008539D01*
X021903Y008585D01*
X022323Y008585D01*
X022323Y008539D01*
X022323Y008224D02*
X021903Y008224D01*
X021903Y008270D01*
X022323Y008270D01*
X022323Y008224D01*
X022799Y007328D02*
X022845Y007328D01*
X022799Y007328D02*
X022799Y007748D01*
X022845Y007748D01*
X022845Y007328D01*
X022845Y007517D02*
X022799Y007517D01*
X022799Y007706D02*
X022845Y007706D01*
X023114Y007328D02*
X023160Y007328D01*
X023114Y007328D02*
X023114Y007748D01*
X023160Y007748D01*
X023160Y007328D01*
X023160Y007517D02*
X023114Y007517D01*
X023114Y007706D02*
X023160Y007706D01*
X023429Y007328D02*
X023475Y007328D01*
X023429Y007328D02*
X023429Y007748D01*
X023475Y007748D01*
X023475Y007328D01*
X023475Y007517D02*
X023429Y007517D01*
X023429Y007706D02*
X023475Y007706D01*
X023744Y007328D02*
X023790Y007328D01*
X023744Y007328D02*
X023744Y007748D01*
X023790Y007748D01*
X023790Y007328D01*
X023790Y007517D02*
X023744Y007517D01*
X023744Y007706D02*
X023790Y007706D01*
X024059Y007328D02*
X024105Y007328D01*
X024059Y007328D02*
X024059Y007748D01*
X024105Y007748D01*
X024105Y007328D01*
X024105Y007517D02*
X024059Y007517D01*
X024059Y007706D02*
X024105Y007706D01*
X024374Y007328D02*
X024420Y007328D01*
X024374Y007328D02*
X024374Y007748D01*
X024420Y007748D01*
X024420Y007328D01*
X024420Y007517D02*
X024374Y007517D01*
X024374Y007706D02*
X024420Y007706D01*
X024688Y007328D02*
X024734Y007328D01*
X024688Y007328D02*
X024688Y007748D01*
X024734Y007748D01*
X024734Y007328D01*
X024734Y007517D02*
X024688Y007517D01*
X024688Y007706D02*
X024734Y007706D01*
X025003Y007328D02*
X025049Y007328D01*
X025003Y007328D02*
X025003Y007748D01*
X025049Y007748D01*
X025049Y007328D01*
X025049Y007517D02*
X025003Y007517D01*
X025003Y007706D02*
X025049Y007706D01*
X025318Y007328D02*
X025364Y007328D01*
X025318Y007328D02*
X025318Y007748D01*
X025364Y007748D01*
X025364Y007328D01*
X025364Y007517D02*
X025318Y007517D01*
X025318Y007706D02*
X025364Y007706D01*
X025633Y007328D02*
X025679Y007328D01*
X025633Y007328D02*
X025633Y007748D01*
X025679Y007748D01*
X025679Y007328D01*
X025679Y007517D02*
X025633Y007517D01*
X025633Y007706D02*
X025679Y007706D01*
X025948Y007328D02*
X025994Y007328D01*
X025948Y007328D02*
X025948Y007748D01*
X025994Y007748D01*
X025994Y007328D01*
X025994Y007517D02*
X025948Y007517D01*
X025948Y007706D02*
X025994Y007706D01*
X026470Y008224D02*
X026890Y008224D01*
X026470Y008224D02*
X026470Y008270D01*
X026890Y008270D01*
X026890Y008224D01*
X026890Y008539D02*
X026470Y008539D01*
X026470Y008585D01*
X026890Y008585D01*
X026890Y008539D01*
X026890Y008854D02*
X026470Y008854D01*
X026470Y008900D01*
X026890Y008900D01*
X026890Y008854D01*
X026890Y009169D02*
X026470Y009169D01*
X026470Y009215D01*
X026890Y009215D01*
X026890Y009169D01*
X026890Y009484D02*
X026470Y009484D01*
X026470Y009530D01*
X026890Y009530D01*
X026890Y009484D01*
X026890Y009799D02*
X026470Y009799D01*
X026470Y009845D01*
X026890Y009845D01*
X026890Y009799D01*
X026890Y010114D02*
X026470Y010114D01*
X026470Y010160D01*
X026890Y010160D01*
X026890Y010114D01*
X026890Y010429D02*
X026470Y010429D01*
X026470Y010475D01*
X026890Y010475D01*
X026890Y010429D01*
X026890Y010744D02*
X026470Y010744D01*
X026470Y010790D01*
X026890Y010790D01*
X026890Y010744D01*
X026890Y011059D02*
X026470Y011059D01*
X026470Y011105D01*
X026890Y011105D01*
X026890Y011059D01*
X026890Y011374D02*
X026470Y011374D01*
X026470Y011420D01*
X026890Y011420D01*
X026890Y011374D01*
X025994Y011895D02*
X025948Y011895D01*
X025948Y012315D01*
X025994Y012315D01*
X025994Y011895D01*
X025994Y012084D02*
X025948Y012084D01*
X025948Y012273D02*
X025994Y012273D01*
X025679Y011895D02*
X025633Y011895D01*
X025633Y012315D01*
X025679Y012315D01*
X025679Y011895D01*
X025679Y012084D02*
X025633Y012084D01*
X025633Y012273D02*
X025679Y012273D01*
X025364Y011895D02*
X025318Y011895D01*
X025318Y012315D01*
X025364Y012315D01*
X025364Y011895D01*
X025364Y012084D02*
X025318Y012084D01*
X025318Y012273D02*
X025364Y012273D01*
X025049Y011895D02*
X025003Y011895D01*
X025003Y012315D01*
X025049Y012315D01*
X025049Y011895D01*
X025049Y012084D02*
X025003Y012084D01*
X025003Y012273D02*
X025049Y012273D01*
X024734Y011895D02*
X024688Y011895D01*
X024688Y012315D01*
X024734Y012315D01*
X024734Y011895D01*
X024734Y012084D02*
X024688Y012084D01*
X024688Y012273D02*
X024734Y012273D01*
X024420Y011895D02*
X024374Y011895D01*
X024374Y012315D01*
X024420Y012315D01*
X024420Y011895D01*
X024420Y012084D02*
X024374Y012084D01*
X024374Y012273D02*
X024420Y012273D01*
X024105Y011895D02*
X024059Y011895D01*
X024059Y012315D01*
X024105Y012315D01*
X024105Y011895D01*
X024105Y012084D02*
X024059Y012084D01*
X024059Y012273D02*
X024105Y012273D01*
X023790Y011895D02*
X023744Y011895D01*
X023744Y012315D01*
X023790Y012315D01*
X023790Y011895D01*
X023790Y012084D02*
X023744Y012084D01*
X023744Y012273D02*
X023790Y012273D01*
X023475Y011895D02*
X023429Y011895D01*
X023429Y012315D01*
X023475Y012315D01*
X023475Y011895D01*
X023475Y012084D02*
X023429Y012084D01*
X023429Y012273D02*
X023475Y012273D01*
X023160Y011895D02*
X023114Y011895D01*
X023114Y012315D01*
X023160Y012315D01*
X023160Y011895D01*
X023160Y012084D02*
X023114Y012084D01*
X023114Y012273D02*
X023160Y012273D01*
X022845Y011895D02*
X022799Y011895D01*
X022799Y012315D01*
X022845Y012315D01*
X022845Y011895D01*
X022845Y012084D02*
X022799Y012084D01*
X022799Y012273D02*
X022845Y012273D01*
X022323Y011374D02*
X021903Y011374D01*
X021903Y011420D01*
X022323Y011420D01*
X022323Y011374D01*
X022323Y011059D02*
X021903Y011059D01*
X021903Y011105D01*
X022323Y011105D01*
X022323Y011059D01*
X022323Y010744D02*
X021903Y010744D01*
X021903Y010790D01*
X022323Y010790D01*
X022323Y010744D01*
X022323Y010429D02*
X021903Y010429D01*
X021903Y010475D01*
X022323Y010475D01*
X022323Y010429D01*
D19*
X024397Y009822D03*
D20*
X025114Y018375D03*
X025586Y018375D03*
X026059Y018375D03*
X026531Y018375D03*
X027004Y018375D03*
X027476Y018375D03*
X027949Y018375D03*
X028421Y018375D03*
X028894Y018375D03*
X029366Y018375D03*
X029838Y018375D03*
X030311Y018375D03*
X030783Y018375D03*
X030783Y023887D03*
X030311Y023887D03*
X029838Y023887D03*
X029366Y023887D03*
X028894Y023887D03*
X028421Y023887D03*
X027949Y023887D03*
X027476Y023887D03*
X027004Y023887D03*
X026531Y023887D03*
X026059Y023887D03*
X025586Y023887D03*
X025114Y023887D03*
D21*
X023894Y022273D03*
X023894Y021800D03*
X023894Y021328D03*
X023894Y020855D03*
X023894Y020383D03*
X023894Y019910D03*
D22*
X021702Y025416D03*
X020914Y025416D03*
X020127Y025416D03*
X019339Y025416D03*
D23*
X001452Y019249D03*
X001452Y018492D03*
D24*
X001452Y017798D03*
X001649Y017798D03*
X001649Y019943D03*
X001452Y019943D03*
D25*
X001599Y019943D03*
X001599Y017798D03*
D26*
X002219Y017694D03*
X002219Y020047D03*
D27*
X002743Y020012D03*
X002743Y017729D03*
D28*
X002822Y017916D03*
X002664Y017916D03*
X002664Y019825D03*
X002822Y019825D03*
D29*
X002662Y019382D03*
X002662Y019126D03*
X002662Y018871D03*
X002662Y018615D03*
X002662Y018359D03*
D30*
X022296Y004314D03*
X026096Y004314D03*
D31*
X009963Y008448D03*
X009963Y008645D03*
X009963Y008841D03*
X009963Y009038D03*
X009963Y009235D03*
X008900Y009235D03*
X008900Y009038D03*
X008900Y008841D03*
X008900Y008645D03*
X008900Y008448D03*
D32*
X009432Y008841D03*
D33*
X008841Y007818D03*
X008841Y007109D03*
X008841Y003684D03*
X008841Y002975D03*
X008054Y002975D03*
X008054Y003684D03*
X009155Y019804D03*
X009155Y020513D03*
X013172Y020298D03*
X013172Y021007D03*
X004117Y020416D03*
X004117Y019708D03*
D34*
X013231Y019668D03*
X013900Y019668D03*
X018546Y023211D03*
X019215Y023211D03*
X020515Y016715D03*
X021184Y016715D03*
X023467Y013172D03*
X024137Y013172D03*
X020790Y009826D03*
X020121Y009826D03*
X023861Y006755D03*
X024530Y006755D03*
X024649Y005889D03*
X025318Y005889D03*
X023743Y005889D03*
X023074Y005889D03*
X031932Y005101D03*
X032601Y005101D03*
X013704Y008211D03*
X013034Y008211D03*
X013034Y009038D03*
X013704Y009038D03*
X011341Y011400D03*
X010672Y011400D03*
X012050Y012582D03*
X012719Y012582D03*
X007798Y007267D03*
X007129Y007267D03*
X008900Y005495D03*
X009570Y005495D03*
D35*
X007857Y008211D03*
X007857Y009471D03*
D36*
X009629Y004255D03*
X009826Y004255D03*
X010023Y004255D03*
X010219Y004255D03*
X010416Y004255D03*
X010416Y003192D03*
X010219Y003192D03*
X010023Y003192D03*
X009826Y003192D03*
X009629Y003192D03*
D37*
X010023Y003723D03*
D38*
X010849Y003133D03*
X011558Y003133D03*
X009589Y009826D03*
X009589Y010416D03*
X008881Y010416D03*
X008881Y009826D03*
D39*
X009393Y002149D03*
X010652Y002149D03*
D40*
X009826Y012700D03*
X009038Y012700D03*
D41*
X008093Y014747D03*
X010771Y014747D03*
D42*
X011361Y021440D03*
X009904Y021440D03*
D43*
X013369Y011834D03*
X013743Y010967D03*
X012995Y010967D03*
X013782Y005928D03*
X014530Y005928D03*
X014156Y005062D03*
D44*
X028830Y003408D03*
X029814Y003408D03*
X030798Y003408D03*
X031782Y003408D03*
X015513Y022674D03*
X015513Y023659D03*
X015513Y024643D03*
X014528Y024643D03*
X014528Y023659D03*
X014528Y022674D03*
D45*
X015847Y021414D03*
X014194Y025903D03*
D46*
X003771Y023021D03*
X003771Y022021D03*
X026021Y028646D03*
X027021Y028646D03*
D47*
X007306Y021834D03*
X006440Y022208D03*
X006440Y021460D03*
D48*
X001896Y008845D03*
X001896Y008058D03*
X001896Y007271D03*
X001896Y006483D03*
X001896Y005696D03*
D49*
X022469Y015681D03*
X023493Y015681D03*
X023493Y016055D03*
X023493Y016429D03*
X022469Y016429D03*
X022536Y018183D03*
X022536Y018557D03*
X022536Y018931D03*
X023560Y018931D03*
X023560Y018183D03*
D50*
X019619Y004452D03*
X019619Y002995D03*
X017749Y002995D03*
X017749Y004452D03*
D51*
X012355Y019767D03*
X012355Y019963D03*
X012355Y020160D03*
X012355Y020357D03*
X011233Y020357D03*
X011233Y020160D03*
X011233Y019963D03*
X011233Y019767D03*
D52*
X011794Y019865D03*
D53*
X007070Y016558D03*
X007070Y015692D03*
D54*
X003763Y008841D03*
X002897Y008841D03*
X029471Y008645D03*
X030337Y008645D03*
D55*
X007454Y019481D03*
X007454Y019737D03*
X007454Y019993D03*
X007454Y020249D03*
X005899Y020249D03*
X005899Y019993D03*
X005899Y019737D03*
X005899Y019481D03*
D56*
X015251Y019274D03*
X017786Y019274D03*
D57*
X013233Y022424D03*
X011930Y022424D03*
D58*
X013133Y002936D03*
X013999Y002936D03*
D59*
X013723Y003704D03*
X013408Y003704D03*
D60*
X012385Y004904D03*
X011794Y003920D03*
X010810Y004314D03*
X010416Y003723D03*
X009629Y003723D03*
X008841Y004314D03*
X008448Y004904D03*
X009629Y004904D03*
X010219Y006282D03*
X009432Y007070D03*
X008841Y006282D03*
X010416Y007660D03*
X011204Y007857D03*
X012778Y007463D03*
X011204Y006479D03*
X009432Y008448D03*
X009432Y009235D03*
X010613Y009038D03*
X011597Y009038D03*
X012385Y009038D03*
X011991Y009826D03*
X011204Y010219D03*
X010416Y010219D03*
X010416Y010810D03*
X011991Y011400D03*
X012975Y009826D03*
X014156Y009826D03*
X016715Y009432D03*
X017897Y009629D03*
X019471Y009235D03*
X022030Y007267D03*
X023015Y006479D03*
X023211Y005298D03*
X023015Y002739D03*
X022030Y002739D03*
X019668Y005101D03*
X019471Y006479D03*
X015928Y005298D03*
X015534Y003526D03*
X007070Y010219D03*
X007070Y011007D03*
X005889Y008448D03*
X001755Y010810D03*
X001755Y012188D03*
X001755Y013369D03*
X007267Y017109D03*
X006676Y017503D03*
X006676Y019668D03*
X006676Y020456D03*
X005692Y021046D03*
X005101Y022424D03*
X008251Y021046D03*
X009432Y021440D03*
X010613Y021440D03*
X009235Y022818D03*
X010416Y019078D03*
X009235Y018684D03*
X011794Y018290D03*
X012778Y018093D03*
X013566Y017700D03*
X011991Y016715D03*
X010810Y016125D03*
X011597Y014747D03*
X012582Y014156D03*
X012778Y013369D03*
X015534Y014353D03*
X016125Y014944D03*
X017306Y015141D03*
X017897Y016715D03*
X019865Y017700D03*
X021046Y018487D03*
X022621Y017503D03*
X020456Y015928D03*
X021637Y015731D03*
X024141Y013723D03*
X022621Y013172D03*
X021637Y011991D03*
X020456Y013172D03*
X018290Y011991D03*
X016715Y012582D03*
X009826Y014156D03*
X012385Y019078D03*
X013763Y020259D03*
X013763Y020849D03*
X013763Y021440D03*
X019339Y022556D03*
X019471Y019471D03*
X024983Y016912D03*
X026164Y016912D03*
X026952Y015928D03*
X025967Y015731D03*
X028133Y016912D03*
X029314Y014944D03*
X030692Y014353D03*
X030101Y011794D03*
X029314Y010416D03*
X028723Y009826D03*
X028133Y010416D03*
X027542Y011597D03*
X025771Y013763D03*
X027542Y008054D03*
X029511Y006479D03*
X028723Y005298D03*
X027149Y006086D03*
X025574Y020259D03*
X027345Y021046D03*
X028723Y022424D03*
X025574Y025377D03*
X024393Y025771D03*
X022818Y025574D03*
X018290Y025771D03*
X002936Y004708D03*
M02*
