G75*
%MOIN*%
%OFA0B0*%
%FSLAX24Y24*%
%IPPOS*%
%LPD*%
%AMOC8*
5,1,8,0,0,1.08239X$1,22.5*
%
%ADD10C,0.0010*%
%ADD11C,0.0000*%
D10*
X001028Y004797D02*
X005325Y000500D01*
X036575Y000500D01*
X036575Y008422D01*
X034075Y008422D01*
X034075Y023564D01*
X027889Y029750D01*
X018897Y029750D01*
X018897Y026750D01*
X012825Y026750D01*
X001825Y023450D01*
X001825Y020647D01*
X001425Y020247D01*
X000575Y020247D01*
X000575Y004797D01*
X001028Y004797D01*
X001259Y017389D02*
X001472Y017389D01*
X001492Y017391D01*
X001512Y017395D01*
X001531Y017403D01*
X001548Y017414D01*
X001564Y017427D01*
X001577Y017443D01*
X001588Y017460D01*
X001596Y017479D01*
X001600Y017499D01*
X001602Y017519D01*
X001602Y017535D01*
X001600Y017555D01*
X001596Y017575D01*
X001588Y017594D01*
X001577Y017611D01*
X001564Y017627D01*
X001548Y017640D01*
X001531Y017651D01*
X001512Y017659D01*
X001492Y017663D01*
X001472Y017665D01*
X001259Y017665D01*
X001239Y017663D01*
X001219Y017659D01*
X001200Y017651D01*
X001183Y017640D01*
X001167Y017627D01*
X001154Y017611D01*
X001143Y017594D01*
X001135Y017575D01*
X001131Y017555D01*
X001129Y017535D01*
X001129Y017519D01*
X001131Y017499D01*
X001135Y017479D01*
X001143Y017460D01*
X001154Y017443D01*
X001167Y017427D01*
X001183Y017414D01*
X001200Y017403D01*
X001219Y017395D01*
X001239Y017391D01*
X001259Y017389D01*
X002481Y017515D02*
X002635Y017515D01*
X002656Y017517D01*
X002677Y017522D01*
X002697Y017531D01*
X002715Y017542D01*
X002731Y017557D01*
X002744Y017574D01*
X002754Y017593D01*
X002761Y017613D01*
X002765Y017634D01*
X002765Y017656D01*
X002761Y017677D01*
X002754Y017697D01*
X002744Y017716D01*
X002731Y017733D01*
X002715Y017748D01*
X002697Y017759D01*
X002677Y017768D01*
X002656Y017773D01*
X002635Y017775D01*
X002481Y017775D01*
X002460Y017773D01*
X002439Y017768D01*
X002419Y017759D01*
X002401Y017748D01*
X002385Y017733D01*
X002372Y017716D01*
X002362Y017697D01*
X002355Y017677D01*
X002351Y017656D01*
X002351Y017634D01*
X002355Y017613D01*
X002362Y017593D01*
X002372Y017574D01*
X002385Y017557D01*
X002401Y017542D01*
X002419Y017531D01*
X002439Y017522D01*
X002460Y017517D01*
X002481Y017515D01*
X002481Y019425D02*
X002635Y019425D01*
X002656Y019427D01*
X002677Y019432D01*
X002697Y019441D01*
X002715Y019452D01*
X002731Y019467D01*
X002744Y019484D01*
X002754Y019503D01*
X002761Y019523D01*
X002765Y019544D01*
X002765Y019566D01*
X002761Y019587D01*
X002754Y019607D01*
X002744Y019626D01*
X002731Y019643D01*
X002715Y019658D01*
X002697Y019669D01*
X002677Y019678D01*
X002656Y019683D01*
X002635Y019685D01*
X002481Y019685D01*
X002460Y019683D01*
X002439Y019678D01*
X002419Y019669D01*
X002401Y019658D01*
X002385Y019643D01*
X002372Y019626D01*
X002362Y019607D01*
X002355Y019587D01*
X002351Y019566D01*
X002351Y019544D01*
X002355Y019523D01*
X002362Y019503D01*
X002372Y019484D01*
X002385Y019467D01*
X002401Y019452D01*
X002419Y019441D01*
X002439Y019432D01*
X002460Y019427D01*
X002481Y019425D01*
X001602Y019665D02*
X001602Y019681D01*
X001600Y019701D01*
X001596Y019721D01*
X001588Y019740D01*
X001577Y019757D01*
X001564Y019773D01*
X001548Y019786D01*
X001531Y019797D01*
X001512Y019805D01*
X001492Y019809D01*
X001472Y019811D01*
X001259Y019811D01*
X001239Y019809D01*
X001219Y019805D01*
X001200Y019797D01*
X001183Y019786D01*
X001167Y019773D01*
X001154Y019757D01*
X001143Y019740D01*
X001135Y019721D01*
X001131Y019701D01*
X001129Y019681D01*
X001129Y019665D01*
X001131Y019645D01*
X001135Y019625D01*
X001143Y019606D01*
X001154Y019589D01*
X001167Y019573D01*
X001183Y019560D01*
X001200Y019549D01*
X001219Y019541D01*
X001239Y019537D01*
X001259Y019535D01*
X001472Y019535D01*
X001492Y019537D01*
X001512Y019541D01*
X001531Y019549D01*
X001548Y019560D01*
X001564Y019573D01*
X001577Y019589D01*
X001588Y019606D01*
X001596Y019625D01*
X001600Y019645D01*
X001602Y019665D01*
D11*
X001315Y019673D02*
X001317Y019696D01*
X001323Y019719D01*
X001333Y019740D01*
X001346Y019760D01*
X001362Y019777D01*
X001381Y019791D01*
X001402Y019801D01*
X001424Y019808D01*
X001447Y019811D01*
X001471Y019810D01*
X001493Y019805D01*
X001515Y019796D01*
X001535Y019784D01*
X001553Y019768D01*
X001567Y019750D01*
X001579Y019730D01*
X001587Y019708D01*
X001591Y019685D01*
X001591Y019661D01*
X001587Y019638D01*
X001579Y019616D01*
X001567Y019596D01*
X001553Y019578D01*
X001535Y019562D01*
X001515Y019550D01*
X001493Y019541D01*
X001471Y019536D01*
X001447Y019535D01*
X001424Y019538D01*
X001402Y019545D01*
X001381Y019555D01*
X001362Y019569D01*
X001346Y019586D01*
X001333Y019606D01*
X001323Y019627D01*
X001317Y019650D01*
X001315Y019673D01*
X001118Y019673D02*
X001120Y019696D01*
X001126Y019719D01*
X001136Y019740D01*
X001149Y019760D01*
X001165Y019777D01*
X001184Y019791D01*
X001205Y019801D01*
X001227Y019808D01*
X001250Y019811D01*
X001274Y019810D01*
X001296Y019805D01*
X001318Y019796D01*
X001338Y019784D01*
X001356Y019768D01*
X001370Y019750D01*
X001382Y019730D01*
X001390Y019708D01*
X001394Y019685D01*
X001394Y019661D01*
X001390Y019638D01*
X001382Y019616D01*
X001370Y019596D01*
X001356Y019578D01*
X001338Y019562D01*
X001318Y019550D01*
X001296Y019541D01*
X001274Y019536D01*
X001250Y019535D01*
X001227Y019538D01*
X001205Y019545D01*
X001184Y019555D01*
X001165Y019569D01*
X001149Y019586D01*
X001136Y019606D01*
X001126Y019627D01*
X001120Y019650D01*
X001118Y019673D01*
X002341Y019555D02*
X002343Y019577D01*
X002349Y019599D01*
X002358Y019619D01*
X002371Y019637D01*
X002387Y019653D01*
X002405Y019666D01*
X002425Y019675D01*
X002447Y019681D01*
X002469Y019683D01*
X002491Y019681D01*
X002513Y019675D01*
X002533Y019666D01*
X002551Y019653D01*
X002567Y019637D01*
X002580Y019619D01*
X002589Y019599D01*
X002595Y019577D01*
X002597Y019555D01*
X002595Y019533D01*
X002589Y019511D01*
X002580Y019491D01*
X002567Y019473D01*
X002551Y019457D01*
X002533Y019444D01*
X002513Y019435D01*
X002491Y019429D01*
X002469Y019427D01*
X002447Y019429D01*
X002425Y019435D01*
X002405Y019444D01*
X002387Y019457D01*
X002371Y019473D01*
X002358Y019491D01*
X002349Y019511D01*
X002343Y019533D01*
X002341Y019555D01*
X002498Y019555D02*
X002500Y019577D01*
X002506Y019599D01*
X002515Y019619D01*
X002528Y019637D01*
X002544Y019653D01*
X002562Y019666D01*
X002582Y019675D01*
X002604Y019681D01*
X002626Y019683D01*
X002648Y019681D01*
X002670Y019675D01*
X002690Y019666D01*
X002708Y019653D01*
X002724Y019637D01*
X002737Y019619D01*
X002746Y019599D01*
X002752Y019577D01*
X002754Y019555D01*
X002752Y019533D01*
X002746Y019511D01*
X002737Y019491D01*
X002724Y019473D01*
X002708Y019457D01*
X002690Y019444D01*
X002670Y019435D01*
X002648Y019429D01*
X002626Y019427D01*
X002604Y019429D01*
X002582Y019435D01*
X002562Y019444D01*
X002544Y019457D01*
X002528Y019473D01*
X002515Y019491D01*
X002506Y019511D01*
X002500Y019533D01*
X002498Y019555D01*
X002341Y017645D02*
X002343Y017667D01*
X002349Y017689D01*
X002358Y017709D01*
X002371Y017727D01*
X002387Y017743D01*
X002405Y017756D01*
X002425Y017765D01*
X002447Y017771D01*
X002469Y017773D01*
X002491Y017771D01*
X002513Y017765D01*
X002533Y017756D01*
X002551Y017743D01*
X002567Y017727D01*
X002580Y017709D01*
X002589Y017689D01*
X002595Y017667D01*
X002597Y017645D01*
X002595Y017623D01*
X002589Y017601D01*
X002580Y017581D01*
X002567Y017563D01*
X002551Y017547D01*
X002533Y017534D01*
X002513Y017525D01*
X002491Y017519D01*
X002469Y017517D01*
X002447Y017519D01*
X002425Y017525D01*
X002405Y017534D01*
X002387Y017547D01*
X002371Y017563D01*
X002358Y017581D01*
X002349Y017601D01*
X002343Y017623D01*
X002341Y017645D01*
X002498Y017645D02*
X002500Y017667D01*
X002506Y017689D01*
X002515Y017709D01*
X002528Y017727D01*
X002544Y017743D01*
X002562Y017756D01*
X002582Y017765D01*
X002604Y017771D01*
X002626Y017773D01*
X002648Y017771D01*
X002670Y017765D01*
X002690Y017756D01*
X002708Y017743D01*
X002724Y017727D01*
X002737Y017709D01*
X002746Y017689D01*
X002752Y017667D01*
X002754Y017645D01*
X002752Y017623D01*
X002746Y017601D01*
X002737Y017581D01*
X002724Y017563D01*
X002708Y017547D01*
X002690Y017534D01*
X002670Y017525D01*
X002648Y017519D01*
X002626Y017517D01*
X002604Y017519D01*
X002582Y017525D01*
X002562Y017534D01*
X002544Y017547D01*
X002528Y017563D01*
X002515Y017581D01*
X002506Y017601D01*
X002500Y017623D01*
X002498Y017645D01*
X001315Y017527D02*
X001317Y017550D01*
X001323Y017573D01*
X001333Y017594D01*
X001346Y017614D01*
X001362Y017631D01*
X001381Y017645D01*
X001402Y017655D01*
X001424Y017662D01*
X001447Y017665D01*
X001471Y017664D01*
X001493Y017659D01*
X001515Y017650D01*
X001535Y017638D01*
X001553Y017622D01*
X001567Y017604D01*
X001579Y017584D01*
X001587Y017562D01*
X001591Y017539D01*
X001591Y017515D01*
X001587Y017492D01*
X001579Y017470D01*
X001567Y017450D01*
X001553Y017432D01*
X001535Y017416D01*
X001515Y017404D01*
X001493Y017395D01*
X001471Y017390D01*
X001447Y017389D01*
X001424Y017392D01*
X001402Y017399D01*
X001381Y017409D01*
X001362Y017423D01*
X001346Y017440D01*
X001333Y017460D01*
X001323Y017481D01*
X001317Y017504D01*
X001315Y017527D01*
X001118Y017527D02*
X001120Y017550D01*
X001126Y017573D01*
X001136Y017594D01*
X001149Y017614D01*
X001165Y017631D01*
X001184Y017645D01*
X001205Y017655D01*
X001227Y017662D01*
X001250Y017665D01*
X001274Y017664D01*
X001296Y017659D01*
X001318Y017650D01*
X001338Y017638D01*
X001356Y017622D01*
X001370Y017604D01*
X001382Y017584D01*
X001390Y017562D01*
X001394Y017539D01*
X001394Y017515D01*
X001390Y017492D01*
X001382Y017470D01*
X001370Y017450D01*
X001356Y017432D01*
X001338Y017416D01*
X001318Y017404D01*
X001296Y017395D01*
X001274Y017390D01*
X001250Y017389D01*
X001227Y017392D01*
X001205Y017399D01*
X001184Y017409D01*
X001165Y017423D01*
X001149Y017440D01*
X001136Y017460D01*
X001126Y017481D01*
X001120Y017504D01*
X001118Y017527D01*
X003595Y016248D02*
X003597Y016301D01*
X003603Y016354D01*
X003613Y016406D01*
X003626Y016458D01*
X003644Y016508D01*
X003665Y016557D01*
X003689Y016604D01*
X003717Y016649D01*
X003749Y016692D01*
X003783Y016733D01*
X003820Y016771D01*
X003860Y016806D01*
X003903Y016838D01*
X003947Y016867D01*
X003994Y016893D01*
X004043Y016914D01*
X004093Y016933D01*
X004144Y016947D01*
X004196Y016958D01*
X004249Y016965D01*
X004302Y016968D01*
X004355Y016967D01*
X004408Y016962D01*
X004460Y016953D01*
X004512Y016941D01*
X004563Y016924D01*
X004612Y016904D01*
X004660Y016880D01*
X004705Y016853D01*
X004749Y016823D01*
X004790Y016789D01*
X004829Y016752D01*
X004865Y016713D01*
X004897Y016671D01*
X004927Y016627D01*
X004953Y016581D01*
X004976Y016533D01*
X004996Y016483D01*
X005011Y016432D01*
X005023Y016380D01*
X005031Y016328D01*
X005035Y016275D01*
X005035Y016221D01*
X005031Y016168D01*
X005023Y016116D01*
X005011Y016064D01*
X004996Y016013D01*
X004976Y015963D01*
X004953Y015915D01*
X004927Y015869D01*
X004897Y015825D01*
X004865Y015783D01*
X004829Y015744D01*
X004790Y015707D01*
X004749Y015673D01*
X004705Y015643D01*
X004660Y015616D01*
X004612Y015592D01*
X004563Y015572D01*
X004512Y015555D01*
X004460Y015543D01*
X004408Y015534D01*
X004355Y015529D01*
X004302Y015528D01*
X004249Y015531D01*
X004196Y015538D01*
X004144Y015549D01*
X004093Y015563D01*
X004043Y015582D01*
X003994Y015603D01*
X003947Y015629D01*
X003903Y015658D01*
X003860Y015690D01*
X003820Y015725D01*
X003783Y015763D01*
X003749Y015804D01*
X003717Y015847D01*
X003689Y015892D01*
X003665Y015939D01*
X003644Y015988D01*
X003626Y016038D01*
X003613Y016090D01*
X003603Y016142D01*
X003597Y016195D01*
X003595Y016248D01*
X009605Y024500D02*
X009607Y024553D01*
X009613Y024606D01*
X009623Y024658D01*
X009636Y024710D01*
X009654Y024760D01*
X009675Y024809D01*
X009699Y024856D01*
X009727Y024901D01*
X009759Y024944D01*
X009793Y024985D01*
X009830Y025023D01*
X009870Y025058D01*
X009913Y025090D01*
X009957Y025119D01*
X010004Y025145D01*
X010053Y025166D01*
X010103Y025185D01*
X010154Y025199D01*
X010206Y025210D01*
X010259Y025217D01*
X010312Y025220D01*
X010365Y025219D01*
X010418Y025214D01*
X010470Y025205D01*
X010522Y025193D01*
X010573Y025176D01*
X010622Y025156D01*
X010670Y025132D01*
X010715Y025105D01*
X010759Y025075D01*
X010800Y025041D01*
X010839Y025004D01*
X010875Y024965D01*
X010907Y024923D01*
X010937Y024879D01*
X010963Y024833D01*
X010986Y024785D01*
X011006Y024735D01*
X011021Y024684D01*
X011033Y024632D01*
X011041Y024580D01*
X011045Y024527D01*
X011045Y024473D01*
X011041Y024420D01*
X011033Y024368D01*
X011021Y024316D01*
X011006Y024265D01*
X010986Y024215D01*
X010963Y024167D01*
X010937Y024121D01*
X010907Y024077D01*
X010875Y024035D01*
X010839Y023996D01*
X010800Y023959D01*
X010759Y023925D01*
X010715Y023895D01*
X010670Y023868D01*
X010622Y023844D01*
X010573Y023824D01*
X010522Y023807D01*
X010470Y023795D01*
X010418Y023786D01*
X010365Y023781D01*
X010312Y023780D01*
X010259Y023783D01*
X010206Y023790D01*
X010154Y023801D01*
X010103Y023815D01*
X010053Y023834D01*
X010004Y023855D01*
X009957Y023881D01*
X009913Y023910D01*
X009870Y023942D01*
X009830Y023977D01*
X009793Y024015D01*
X009759Y024056D01*
X009727Y024099D01*
X009699Y024144D01*
X009675Y024191D01*
X009654Y024240D01*
X009636Y024290D01*
X009623Y024342D01*
X009613Y024394D01*
X009607Y024447D01*
X009605Y024500D01*
X013732Y025632D02*
X013734Y025664D01*
X013740Y025696D01*
X013749Y025726D01*
X013762Y025756D01*
X013779Y025783D01*
X013799Y025808D01*
X013822Y025831D01*
X013847Y025851D01*
X013874Y025868D01*
X013904Y025881D01*
X013934Y025890D01*
X013966Y025896D01*
X013998Y025898D01*
X014030Y025896D01*
X014062Y025890D01*
X014092Y025881D01*
X014122Y025868D01*
X014149Y025851D01*
X014174Y025831D01*
X014197Y025808D01*
X014217Y025783D01*
X014234Y025756D01*
X014247Y025726D01*
X014256Y025696D01*
X014262Y025664D01*
X014264Y025632D01*
X014262Y025600D01*
X014256Y025568D01*
X014247Y025538D01*
X014234Y025508D01*
X014217Y025481D01*
X014197Y025456D01*
X014174Y025433D01*
X014149Y025413D01*
X014122Y025396D01*
X014092Y025383D01*
X014062Y025374D01*
X014030Y025368D01*
X013998Y025366D01*
X013966Y025368D01*
X013934Y025374D01*
X013904Y025383D01*
X013874Y025396D01*
X013847Y025413D01*
X013822Y025433D01*
X013799Y025456D01*
X013779Y025481D01*
X013762Y025508D01*
X013749Y025538D01*
X013740Y025568D01*
X013734Y025600D01*
X013732Y025632D01*
X015386Y021144D02*
X015388Y021176D01*
X015394Y021208D01*
X015403Y021238D01*
X015416Y021268D01*
X015433Y021295D01*
X015453Y021320D01*
X015476Y021343D01*
X015501Y021363D01*
X015528Y021380D01*
X015558Y021393D01*
X015588Y021402D01*
X015620Y021408D01*
X015652Y021410D01*
X015684Y021408D01*
X015716Y021402D01*
X015746Y021393D01*
X015776Y021380D01*
X015803Y021363D01*
X015828Y021343D01*
X015851Y021320D01*
X015871Y021295D01*
X015888Y021268D01*
X015901Y021238D01*
X015910Y021208D01*
X015916Y021176D01*
X015918Y021144D01*
X015916Y021112D01*
X015910Y021080D01*
X015901Y021050D01*
X015888Y021020D01*
X015871Y020993D01*
X015851Y020968D01*
X015828Y020945D01*
X015803Y020925D01*
X015776Y020908D01*
X015746Y020895D01*
X015716Y020886D01*
X015684Y020880D01*
X015652Y020878D01*
X015620Y020880D01*
X015588Y020886D01*
X015558Y020895D01*
X015528Y020908D01*
X015501Y020925D01*
X015476Y020945D01*
X015453Y020968D01*
X015433Y020993D01*
X015416Y021020D01*
X015403Y021050D01*
X015394Y021080D01*
X015388Y021112D01*
X015386Y021144D01*
X020355Y028450D02*
X020357Y028503D01*
X020363Y028556D01*
X020373Y028608D01*
X020386Y028660D01*
X020404Y028710D01*
X020425Y028759D01*
X020449Y028806D01*
X020477Y028851D01*
X020509Y028894D01*
X020543Y028935D01*
X020580Y028973D01*
X020620Y029008D01*
X020663Y029040D01*
X020707Y029069D01*
X020754Y029095D01*
X020803Y029116D01*
X020853Y029135D01*
X020904Y029149D01*
X020956Y029160D01*
X021009Y029167D01*
X021062Y029170D01*
X021115Y029169D01*
X021168Y029164D01*
X021220Y029155D01*
X021272Y029143D01*
X021323Y029126D01*
X021372Y029106D01*
X021420Y029082D01*
X021465Y029055D01*
X021509Y029025D01*
X021550Y028991D01*
X021589Y028954D01*
X021625Y028915D01*
X021657Y028873D01*
X021687Y028829D01*
X021713Y028783D01*
X021736Y028735D01*
X021756Y028685D01*
X021771Y028634D01*
X021783Y028582D01*
X021791Y028530D01*
X021795Y028477D01*
X021795Y028423D01*
X021791Y028370D01*
X021783Y028318D01*
X021771Y028266D01*
X021756Y028215D01*
X021736Y028165D01*
X021713Y028117D01*
X021687Y028071D01*
X021657Y028027D01*
X021625Y027985D01*
X021589Y027946D01*
X021550Y027909D01*
X021509Y027875D01*
X021465Y027845D01*
X021420Y027818D01*
X021372Y027794D01*
X021323Y027774D01*
X021272Y027757D01*
X021220Y027745D01*
X021168Y027736D01*
X021115Y027731D01*
X021062Y027730D01*
X021009Y027733D01*
X020956Y027740D01*
X020904Y027751D01*
X020853Y027765D01*
X020803Y027784D01*
X020754Y027805D01*
X020707Y027831D01*
X020663Y027860D01*
X020620Y027892D01*
X020580Y027927D01*
X020543Y027965D01*
X020509Y028006D01*
X020477Y028049D01*
X020449Y028094D01*
X020425Y028141D01*
X020404Y028190D01*
X020386Y028240D01*
X020373Y028292D01*
X020363Y028344D01*
X020357Y028397D01*
X020355Y028450D01*
X004605Y004000D02*
X004607Y004053D01*
X004613Y004106D01*
X004623Y004158D01*
X004636Y004210D01*
X004654Y004260D01*
X004675Y004309D01*
X004699Y004356D01*
X004727Y004401D01*
X004759Y004444D01*
X004793Y004485D01*
X004830Y004523D01*
X004870Y004558D01*
X004913Y004590D01*
X004957Y004619D01*
X005004Y004645D01*
X005053Y004666D01*
X005103Y004685D01*
X005154Y004699D01*
X005206Y004710D01*
X005259Y004717D01*
X005312Y004720D01*
X005365Y004719D01*
X005418Y004714D01*
X005470Y004705D01*
X005522Y004693D01*
X005573Y004676D01*
X005622Y004656D01*
X005670Y004632D01*
X005715Y004605D01*
X005759Y004575D01*
X005800Y004541D01*
X005839Y004504D01*
X005875Y004465D01*
X005907Y004423D01*
X005937Y004379D01*
X005963Y004333D01*
X005986Y004285D01*
X006006Y004235D01*
X006021Y004184D01*
X006033Y004132D01*
X006041Y004080D01*
X006045Y004027D01*
X006045Y003973D01*
X006041Y003920D01*
X006033Y003868D01*
X006021Y003816D01*
X006006Y003765D01*
X005986Y003715D01*
X005963Y003667D01*
X005937Y003621D01*
X005907Y003577D01*
X005875Y003535D01*
X005839Y003496D01*
X005800Y003459D01*
X005759Y003425D01*
X005715Y003395D01*
X005670Y003368D01*
X005622Y003344D01*
X005573Y003324D01*
X005522Y003307D01*
X005470Y003295D01*
X005418Y003286D01*
X005365Y003281D01*
X005312Y003280D01*
X005259Y003283D01*
X005206Y003290D01*
X005154Y003301D01*
X005103Y003315D01*
X005053Y003334D01*
X005004Y003355D01*
X004957Y003381D01*
X004913Y003410D01*
X004870Y003442D01*
X004830Y003477D01*
X004793Y003515D01*
X004759Y003556D01*
X004727Y003599D01*
X004699Y003644D01*
X004675Y003691D01*
X004654Y003740D01*
X004636Y003790D01*
X004623Y003842D01*
X004613Y003894D01*
X004607Y003947D01*
X004605Y004000D01*
X034105Y002125D02*
X034107Y002178D01*
X034113Y002231D01*
X034123Y002283D01*
X034136Y002335D01*
X034154Y002385D01*
X034175Y002434D01*
X034199Y002481D01*
X034227Y002526D01*
X034259Y002569D01*
X034293Y002610D01*
X034330Y002648D01*
X034370Y002683D01*
X034413Y002715D01*
X034457Y002744D01*
X034504Y002770D01*
X034553Y002791D01*
X034603Y002810D01*
X034654Y002824D01*
X034706Y002835D01*
X034759Y002842D01*
X034812Y002845D01*
X034865Y002844D01*
X034918Y002839D01*
X034970Y002830D01*
X035022Y002818D01*
X035073Y002801D01*
X035122Y002781D01*
X035170Y002757D01*
X035215Y002730D01*
X035259Y002700D01*
X035300Y002666D01*
X035339Y002629D01*
X035375Y002590D01*
X035407Y002548D01*
X035437Y002504D01*
X035463Y002458D01*
X035486Y002410D01*
X035506Y002360D01*
X035521Y002309D01*
X035533Y002257D01*
X035541Y002205D01*
X035545Y002152D01*
X035545Y002098D01*
X035541Y002045D01*
X035533Y001993D01*
X035521Y001941D01*
X035506Y001890D01*
X035486Y001840D01*
X035463Y001792D01*
X035437Y001746D01*
X035407Y001702D01*
X035375Y001660D01*
X035339Y001621D01*
X035300Y001584D01*
X035259Y001550D01*
X035215Y001520D01*
X035170Y001493D01*
X035122Y001469D01*
X035073Y001449D01*
X035022Y001432D01*
X034970Y001420D01*
X034918Y001411D01*
X034865Y001406D01*
X034812Y001405D01*
X034759Y001408D01*
X034706Y001415D01*
X034654Y001426D01*
X034603Y001440D01*
X034553Y001459D01*
X034504Y001480D01*
X034457Y001506D01*
X034413Y001535D01*
X034370Y001567D01*
X034330Y001602D01*
X034293Y001640D01*
X034259Y001681D01*
X034227Y001724D01*
X034199Y001769D01*
X034175Y001816D01*
X034154Y001865D01*
X034136Y001915D01*
X034123Y001967D01*
X034113Y002019D01*
X034107Y002072D01*
X034105Y002125D01*
M02*
