G75*
%MOIN*%
%OFA0B0*%
%FSLAX24Y24*%
%IPPOS*%
%LPD*%
%AMOC8*
5,1,8,0,0,1.08239X$1,22.5*
%
%ADD10C,0.1500*%
%ADD11C,0.0685*%
%ADD12OC8,0.0670*%
%ADD13R,0.0456X0.0456*%
%ADD14C,0.0336*%
%ADD15C,0.0316*%
%ADD16R,0.0591X0.0591*%
%ADD17C,0.0591*%
%ADD18R,0.0662X0.0662*%
%ADD19R,0.0532X0.0532*%
%ADD20R,0.0436X0.0436*%
D10*
X005521Y004074D03*
X004511Y016322D03*
X010521Y024574D03*
X021271Y028524D03*
X035021Y002199D03*
D11*
X006243Y009676D03*
X005569Y009676D03*
X004895Y009676D03*
X004221Y009676D03*
X003547Y009676D03*
X002873Y009676D03*
X002873Y010405D03*
X002873Y011133D03*
X002873Y011861D03*
X002873Y012589D03*
X002873Y013318D03*
X002873Y014046D03*
X003547Y014046D03*
X004221Y014046D03*
X004895Y014046D03*
X005569Y014046D03*
X006243Y014046D03*
X006243Y013318D03*
X006243Y012589D03*
X006243Y011861D03*
X006243Y011133D03*
X006243Y010405D03*
D12*
X017160Y007952D03*
X018160Y007952D03*
X018160Y006952D03*
X017160Y006952D03*
X017160Y005952D03*
X018160Y005952D03*
D13*
X019339Y025219D03*
X020127Y025219D03*
X020914Y025219D03*
X021702Y025219D03*
D14*
X001649Y019747D03*
X001452Y019747D03*
X001452Y017601D03*
X001649Y017601D03*
D15*
X002664Y017719D03*
X002822Y017719D03*
X002822Y019628D03*
X002664Y019628D03*
D16*
X014528Y022477D03*
X015513Y022477D03*
X015513Y023462D03*
X015513Y024446D03*
X014528Y024446D03*
X014528Y023462D03*
X028830Y003211D03*
X029814Y003211D03*
X030798Y003211D03*
X031782Y003211D03*
D17*
X015847Y021218D03*
X014194Y025706D03*
D18*
X003771Y022824D03*
X003771Y021824D03*
X026021Y028449D03*
X027021Y028449D03*
D19*
X001896Y008649D03*
X001896Y007861D03*
X001896Y007074D03*
X001896Y006286D03*
X001896Y005499D03*
D20*
X002936Y004511D03*
X005889Y008251D03*
X007070Y010023D03*
X007070Y010810D03*
X009432Y009038D03*
X009432Y008251D03*
X010416Y007463D03*
X011204Y007660D03*
X012778Y007267D03*
X011204Y006282D03*
X010219Y006086D03*
X009432Y006873D03*
X008841Y006086D03*
X008448Y004708D03*
X008841Y004117D03*
X009629Y003526D03*
X010416Y003526D03*
X010810Y004117D03*
X011794Y003723D03*
X012385Y004708D03*
X009629Y004708D03*
X010613Y008841D03*
X011597Y008841D03*
X012385Y008841D03*
X011991Y009629D03*
X011204Y010023D03*
X010416Y010023D03*
X010416Y010613D03*
X011991Y011204D03*
X012975Y009629D03*
X014156Y009629D03*
X016715Y009235D03*
X017897Y009432D03*
X019471Y009038D03*
X022030Y007070D03*
X023015Y006282D03*
X023211Y005101D03*
X023015Y002542D03*
X022030Y002542D03*
X019668Y004904D03*
X019471Y006282D03*
X015928Y005101D03*
X015534Y003330D03*
X018290Y011794D03*
X016715Y012385D03*
X015534Y014156D03*
X016125Y014747D03*
X017306Y014944D03*
X017897Y016519D03*
X019865Y017503D03*
X021046Y018290D03*
X022621Y017306D03*
X020456Y015731D03*
X021637Y015534D03*
X024141Y013526D03*
X022621Y012975D03*
X021637Y011794D03*
X020456Y012975D03*
X024983Y016715D03*
X026164Y016715D03*
X026952Y015731D03*
X025967Y015534D03*
X028133Y016715D03*
X029314Y014747D03*
X030692Y014156D03*
X030101Y011597D03*
X029314Y010219D03*
X028723Y009629D03*
X028133Y010219D03*
X027542Y011400D03*
X025771Y013566D03*
X027542Y007857D03*
X029511Y006282D03*
X028723Y005101D03*
X027149Y005889D03*
X012778Y013172D03*
X012582Y013960D03*
X011597Y014550D03*
X010810Y015928D03*
X011991Y016519D03*
X012778Y017897D03*
X013566Y017503D03*
X012385Y018881D03*
X011794Y018093D03*
X010416Y018881D03*
X009235Y018487D03*
X007267Y016912D03*
X006676Y017306D03*
X006676Y019471D03*
X006676Y020259D03*
X005692Y020849D03*
X005101Y022227D03*
X008251Y020849D03*
X009432Y021243D03*
X010613Y021243D03*
X009235Y022621D03*
X013763Y021243D03*
X013763Y020652D03*
X013763Y020062D03*
X019471Y019274D03*
X019339Y022359D03*
X022818Y025377D03*
X024393Y025574D03*
X025574Y025180D03*
X028723Y022227D03*
X027345Y020849D03*
X025574Y020062D03*
X018290Y025574D03*
X009826Y013960D03*
X001755Y013172D03*
X001755Y011991D03*
X001755Y010613D03*
M02*
