G75*
%MOIN*%
%OFA0B0*%
%FSLAX24Y24*%
%IPPOS*%
%LPD*%
%AMOC8*
5,1,8,0,0,1.08239X$1,22.5*
%
%ADD10C,0.0010*%
%ADD11C,0.0000*%
%ADD12C,0.0160*%
D10*
X001224Y004871D02*
X005521Y000574D01*
X036771Y000574D01*
X036771Y008496D01*
X034271Y008496D01*
X034271Y023638D01*
X028085Y029824D01*
X019093Y029824D01*
X019093Y026824D01*
X013021Y026824D01*
X002021Y023524D01*
X002021Y020721D01*
X001621Y020321D01*
X000771Y020321D01*
X000771Y004871D01*
X001224Y004871D01*
X001455Y017463D02*
X001667Y017463D01*
X001687Y017465D01*
X001707Y017469D01*
X001726Y017477D01*
X001743Y017488D01*
X001759Y017501D01*
X001772Y017517D01*
X001783Y017534D01*
X001791Y017553D01*
X001795Y017573D01*
X001797Y017593D01*
X001797Y017609D01*
X001795Y017629D01*
X001791Y017649D01*
X001783Y017668D01*
X001772Y017685D01*
X001759Y017701D01*
X001743Y017714D01*
X001726Y017725D01*
X001707Y017733D01*
X001687Y017737D01*
X001667Y017739D01*
X001455Y017739D01*
X001435Y017737D01*
X001415Y017733D01*
X001396Y017725D01*
X001379Y017714D01*
X001363Y017701D01*
X001350Y017685D01*
X001339Y017668D01*
X001331Y017649D01*
X001327Y017629D01*
X001325Y017609D01*
X001325Y017593D01*
X001327Y017573D01*
X001331Y017553D01*
X001339Y017534D01*
X001350Y017517D01*
X001363Y017501D01*
X001379Y017488D01*
X001396Y017477D01*
X001415Y017469D01*
X001435Y017465D01*
X001455Y017463D01*
X002677Y017589D02*
X002831Y017589D01*
X002852Y017591D01*
X002873Y017596D01*
X002893Y017605D01*
X002911Y017616D01*
X002927Y017631D01*
X002940Y017648D01*
X002950Y017667D01*
X002957Y017687D01*
X002961Y017708D01*
X002961Y017730D01*
X002957Y017751D01*
X002950Y017771D01*
X002940Y017790D01*
X002927Y017807D01*
X002911Y017822D01*
X002893Y017833D01*
X002873Y017842D01*
X002852Y017847D01*
X002831Y017849D01*
X002677Y017849D01*
X002656Y017847D01*
X002635Y017842D01*
X002615Y017833D01*
X002597Y017822D01*
X002581Y017807D01*
X002568Y017790D01*
X002558Y017771D01*
X002551Y017751D01*
X002547Y017730D01*
X002547Y017708D01*
X002551Y017687D01*
X002558Y017667D01*
X002568Y017648D01*
X002581Y017631D01*
X002597Y017616D01*
X002615Y017605D01*
X002635Y017596D01*
X002656Y017591D01*
X002677Y017589D01*
X002677Y019499D02*
X002831Y019499D01*
X002831Y019498D02*
X002852Y019500D01*
X002873Y019505D01*
X002893Y019514D01*
X002911Y019525D01*
X002927Y019540D01*
X002940Y019557D01*
X002950Y019576D01*
X002957Y019596D01*
X002961Y019617D01*
X002961Y019639D01*
X002957Y019660D01*
X002950Y019680D01*
X002940Y019699D01*
X002927Y019716D01*
X002911Y019731D01*
X002893Y019742D01*
X002873Y019751D01*
X002852Y019756D01*
X002831Y019758D01*
X002677Y019758D01*
X002656Y019756D01*
X002635Y019751D01*
X002615Y019742D01*
X002597Y019731D01*
X002581Y019716D01*
X002568Y019699D01*
X002558Y019680D01*
X002551Y019660D01*
X002547Y019639D01*
X002547Y019617D01*
X002551Y019596D01*
X002558Y019576D01*
X002568Y019557D01*
X002581Y019540D01*
X002597Y019525D01*
X002615Y019514D01*
X002635Y019505D01*
X002656Y019500D01*
X002677Y019498D01*
X001797Y019739D02*
X001797Y019754D01*
X001795Y019774D01*
X001791Y019794D01*
X001783Y019813D01*
X001772Y019830D01*
X001759Y019846D01*
X001743Y019859D01*
X001726Y019870D01*
X001707Y019878D01*
X001687Y019882D01*
X001667Y019884D01*
X001455Y019884D01*
X001435Y019882D01*
X001415Y019878D01*
X001396Y019870D01*
X001379Y019859D01*
X001363Y019846D01*
X001350Y019830D01*
X001339Y019813D01*
X001331Y019794D01*
X001327Y019774D01*
X001325Y019754D01*
X001325Y019739D01*
X001327Y019719D01*
X001331Y019699D01*
X001339Y019680D01*
X001350Y019663D01*
X001363Y019647D01*
X001379Y019634D01*
X001396Y019623D01*
X001415Y019615D01*
X001435Y019611D01*
X001455Y019609D01*
X001667Y019609D01*
X001687Y019611D01*
X001707Y019615D01*
X001726Y019623D01*
X001743Y019634D01*
X001759Y019647D01*
X001772Y019663D01*
X001783Y019680D01*
X001791Y019699D01*
X001795Y019719D01*
X001797Y019739D01*
D11*
X001511Y019747D02*
X001513Y019770D01*
X001519Y019793D01*
X001529Y019814D01*
X001542Y019834D01*
X001558Y019851D01*
X001577Y019865D01*
X001598Y019875D01*
X001620Y019882D01*
X001643Y019885D01*
X001667Y019884D01*
X001689Y019879D01*
X001711Y019870D01*
X001731Y019858D01*
X001749Y019842D01*
X001763Y019824D01*
X001775Y019804D01*
X001783Y019782D01*
X001787Y019759D01*
X001787Y019735D01*
X001783Y019712D01*
X001775Y019690D01*
X001763Y019670D01*
X001749Y019652D01*
X001731Y019636D01*
X001711Y019624D01*
X001689Y019615D01*
X001667Y019610D01*
X001643Y019609D01*
X001620Y019612D01*
X001598Y019619D01*
X001577Y019629D01*
X001558Y019643D01*
X001542Y019660D01*
X001529Y019680D01*
X001519Y019701D01*
X001513Y019724D01*
X001511Y019747D01*
X001314Y019747D02*
X001316Y019770D01*
X001322Y019793D01*
X001332Y019814D01*
X001345Y019834D01*
X001361Y019851D01*
X001380Y019865D01*
X001401Y019875D01*
X001423Y019882D01*
X001446Y019885D01*
X001470Y019884D01*
X001492Y019879D01*
X001514Y019870D01*
X001534Y019858D01*
X001552Y019842D01*
X001566Y019824D01*
X001578Y019804D01*
X001586Y019782D01*
X001590Y019759D01*
X001590Y019735D01*
X001586Y019712D01*
X001578Y019690D01*
X001566Y019670D01*
X001552Y019652D01*
X001534Y019636D01*
X001514Y019624D01*
X001492Y019615D01*
X001470Y019610D01*
X001446Y019609D01*
X001423Y019612D01*
X001401Y019619D01*
X001380Y019629D01*
X001361Y019643D01*
X001345Y019660D01*
X001332Y019680D01*
X001322Y019701D01*
X001316Y019724D01*
X001314Y019747D01*
X002536Y019628D02*
X002538Y019650D01*
X002544Y019672D01*
X002553Y019692D01*
X002566Y019710D01*
X002582Y019726D01*
X002600Y019739D01*
X002620Y019748D01*
X002642Y019754D01*
X002664Y019756D01*
X002686Y019754D01*
X002708Y019748D01*
X002728Y019739D01*
X002746Y019726D01*
X002762Y019710D01*
X002775Y019692D01*
X002784Y019672D01*
X002790Y019650D01*
X002792Y019628D01*
X002790Y019606D01*
X002784Y019584D01*
X002775Y019564D01*
X002762Y019546D01*
X002746Y019530D01*
X002728Y019517D01*
X002708Y019508D01*
X002686Y019502D01*
X002664Y019500D01*
X002642Y019502D01*
X002620Y019508D01*
X002600Y019517D01*
X002582Y019530D01*
X002566Y019546D01*
X002553Y019564D01*
X002544Y019584D01*
X002538Y019606D01*
X002536Y019628D01*
X002694Y019628D02*
X002696Y019650D01*
X002702Y019672D01*
X002711Y019692D01*
X002724Y019710D01*
X002740Y019726D01*
X002758Y019739D01*
X002778Y019748D01*
X002800Y019754D01*
X002822Y019756D01*
X002844Y019754D01*
X002866Y019748D01*
X002886Y019739D01*
X002904Y019726D01*
X002920Y019710D01*
X002933Y019692D01*
X002942Y019672D01*
X002948Y019650D01*
X002950Y019628D01*
X002948Y019606D01*
X002942Y019584D01*
X002933Y019564D01*
X002920Y019546D01*
X002904Y019530D01*
X002886Y019517D01*
X002866Y019508D01*
X002844Y019502D01*
X002822Y019500D01*
X002800Y019502D01*
X002778Y019508D01*
X002758Y019517D01*
X002740Y019530D01*
X002724Y019546D01*
X002711Y019564D01*
X002702Y019584D01*
X002696Y019606D01*
X002694Y019628D01*
X002536Y017719D02*
X002538Y017741D01*
X002544Y017763D01*
X002553Y017783D01*
X002566Y017801D01*
X002582Y017817D01*
X002600Y017830D01*
X002620Y017839D01*
X002642Y017845D01*
X002664Y017847D01*
X002686Y017845D01*
X002708Y017839D01*
X002728Y017830D01*
X002746Y017817D01*
X002762Y017801D01*
X002775Y017783D01*
X002784Y017763D01*
X002790Y017741D01*
X002792Y017719D01*
X002790Y017697D01*
X002784Y017675D01*
X002775Y017655D01*
X002762Y017637D01*
X002746Y017621D01*
X002728Y017608D01*
X002708Y017599D01*
X002686Y017593D01*
X002664Y017591D01*
X002642Y017593D01*
X002620Y017599D01*
X002600Y017608D01*
X002582Y017621D01*
X002566Y017637D01*
X002553Y017655D01*
X002544Y017675D01*
X002538Y017697D01*
X002536Y017719D01*
X002694Y017719D02*
X002696Y017741D01*
X002702Y017763D01*
X002711Y017783D01*
X002724Y017801D01*
X002740Y017817D01*
X002758Y017830D01*
X002778Y017839D01*
X002800Y017845D01*
X002822Y017847D01*
X002844Y017845D01*
X002866Y017839D01*
X002886Y017830D01*
X002904Y017817D01*
X002920Y017801D01*
X002933Y017783D01*
X002942Y017763D01*
X002948Y017741D01*
X002950Y017719D01*
X002948Y017697D01*
X002942Y017675D01*
X002933Y017655D01*
X002920Y017637D01*
X002904Y017621D01*
X002886Y017608D01*
X002866Y017599D01*
X002844Y017593D01*
X002822Y017591D01*
X002800Y017593D01*
X002778Y017599D01*
X002758Y017608D01*
X002740Y017621D01*
X002724Y017637D01*
X002711Y017655D01*
X002702Y017675D01*
X002696Y017697D01*
X002694Y017719D01*
X001511Y017601D02*
X001513Y017624D01*
X001519Y017647D01*
X001529Y017668D01*
X001542Y017688D01*
X001558Y017705D01*
X001577Y017719D01*
X001598Y017729D01*
X001620Y017736D01*
X001643Y017739D01*
X001667Y017738D01*
X001689Y017733D01*
X001711Y017724D01*
X001731Y017712D01*
X001749Y017696D01*
X001763Y017678D01*
X001775Y017658D01*
X001783Y017636D01*
X001787Y017613D01*
X001787Y017589D01*
X001783Y017566D01*
X001775Y017544D01*
X001763Y017524D01*
X001749Y017506D01*
X001731Y017490D01*
X001711Y017478D01*
X001689Y017469D01*
X001667Y017464D01*
X001643Y017463D01*
X001620Y017466D01*
X001598Y017473D01*
X001577Y017483D01*
X001558Y017497D01*
X001542Y017514D01*
X001529Y017534D01*
X001519Y017555D01*
X001513Y017578D01*
X001511Y017601D01*
X001314Y017601D02*
X001316Y017624D01*
X001322Y017647D01*
X001332Y017668D01*
X001345Y017688D01*
X001361Y017705D01*
X001380Y017719D01*
X001401Y017729D01*
X001423Y017736D01*
X001446Y017739D01*
X001470Y017738D01*
X001492Y017733D01*
X001514Y017724D01*
X001534Y017712D01*
X001552Y017696D01*
X001566Y017678D01*
X001578Y017658D01*
X001586Y017636D01*
X001590Y017613D01*
X001590Y017589D01*
X001586Y017566D01*
X001578Y017544D01*
X001566Y017524D01*
X001552Y017506D01*
X001534Y017490D01*
X001514Y017478D01*
X001492Y017469D01*
X001470Y017464D01*
X001446Y017463D01*
X001423Y017466D01*
X001401Y017473D01*
X001380Y017483D01*
X001361Y017497D01*
X001345Y017514D01*
X001332Y017534D01*
X001322Y017555D01*
X001316Y017578D01*
X001314Y017601D01*
X003791Y016322D02*
X003793Y016375D01*
X003799Y016428D01*
X003809Y016480D01*
X003822Y016532D01*
X003840Y016582D01*
X003861Y016631D01*
X003885Y016678D01*
X003913Y016723D01*
X003945Y016766D01*
X003979Y016807D01*
X004016Y016845D01*
X004056Y016880D01*
X004099Y016912D01*
X004143Y016941D01*
X004190Y016967D01*
X004239Y016988D01*
X004289Y017007D01*
X004340Y017021D01*
X004392Y017032D01*
X004445Y017039D01*
X004498Y017042D01*
X004551Y017041D01*
X004604Y017036D01*
X004656Y017027D01*
X004708Y017015D01*
X004759Y016998D01*
X004808Y016978D01*
X004856Y016954D01*
X004901Y016927D01*
X004945Y016897D01*
X004986Y016863D01*
X005025Y016826D01*
X005061Y016787D01*
X005093Y016745D01*
X005123Y016701D01*
X005149Y016655D01*
X005172Y016607D01*
X005192Y016557D01*
X005207Y016506D01*
X005219Y016454D01*
X005227Y016402D01*
X005231Y016349D01*
X005231Y016295D01*
X005227Y016242D01*
X005219Y016190D01*
X005207Y016138D01*
X005192Y016087D01*
X005172Y016037D01*
X005149Y015989D01*
X005123Y015943D01*
X005093Y015899D01*
X005061Y015857D01*
X005025Y015818D01*
X004986Y015781D01*
X004945Y015747D01*
X004901Y015717D01*
X004856Y015690D01*
X004808Y015666D01*
X004759Y015646D01*
X004708Y015629D01*
X004656Y015617D01*
X004604Y015608D01*
X004551Y015603D01*
X004498Y015602D01*
X004445Y015605D01*
X004392Y015612D01*
X004340Y015623D01*
X004289Y015637D01*
X004239Y015656D01*
X004190Y015677D01*
X004143Y015703D01*
X004099Y015732D01*
X004056Y015764D01*
X004016Y015799D01*
X003979Y015837D01*
X003945Y015878D01*
X003913Y015921D01*
X003885Y015966D01*
X003861Y016013D01*
X003840Y016062D01*
X003822Y016112D01*
X003809Y016164D01*
X003799Y016216D01*
X003793Y016269D01*
X003791Y016322D01*
X003234Y014046D02*
X003236Y014081D01*
X003242Y014116D01*
X003252Y014149D01*
X003265Y014182D01*
X003282Y014213D01*
X003302Y014241D01*
X003326Y014267D01*
X003352Y014291D01*
X003380Y014311D01*
X003411Y014328D01*
X003444Y014341D01*
X003477Y014351D01*
X003512Y014357D01*
X003547Y014359D01*
X003582Y014357D01*
X003617Y014351D01*
X003650Y014341D01*
X003683Y014328D01*
X003714Y014311D01*
X003742Y014291D01*
X003768Y014267D01*
X003792Y014241D01*
X003812Y014213D01*
X003829Y014182D01*
X003842Y014149D01*
X003852Y014116D01*
X003858Y014081D01*
X003860Y014046D01*
X003858Y014011D01*
X003852Y013976D01*
X003842Y013943D01*
X003829Y013910D01*
X003812Y013879D01*
X003792Y013851D01*
X003768Y013825D01*
X003742Y013801D01*
X003714Y013781D01*
X003683Y013764D01*
X003650Y013751D01*
X003617Y013741D01*
X003582Y013735D01*
X003547Y013733D01*
X003512Y013735D01*
X003477Y013741D01*
X003444Y013751D01*
X003411Y013764D01*
X003380Y013781D01*
X003352Y013801D01*
X003326Y013825D01*
X003302Y013851D01*
X003282Y013879D01*
X003265Y013910D01*
X003252Y013943D01*
X003242Y013976D01*
X003236Y014011D01*
X003234Y014046D01*
X002560Y014046D02*
X002562Y014081D01*
X002568Y014116D01*
X002578Y014149D01*
X002591Y014182D01*
X002608Y014213D01*
X002628Y014241D01*
X002652Y014267D01*
X002678Y014291D01*
X002706Y014311D01*
X002737Y014328D01*
X002770Y014341D01*
X002803Y014351D01*
X002838Y014357D01*
X002873Y014359D01*
X002908Y014357D01*
X002943Y014351D01*
X002976Y014341D01*
X003009Y014328D01*
X003040Y014311D01*
X003068Y014291D01*
X003094Y014267D01*
X003118Y014241D01*
X003138Y014213D01*
X003155Y014182D01*
X003168Y014149D01*
X003178Y014116D01*
X003184Y014081D01*
X003186Y014046D01*
X003184Y014011D01*
X003178Y013976D01*
X003168Y013943D01*
X003155Y013910D01*
X003138Y013879D01*
X003118Y013851D01*
X003094Y013825D01*
X003068Y013801D01*
X003040Y013781D01*
X003009Y013764D01*
X002976Y013751D01*
X002943Y013741D01*
X002908Y013735D01*
X002873Y013733D01*
X002838Y013735D01*
X002803Y013741D01*
X002770Y013751D01*
X002737Y013764D01*
X002706Y013781D01*
X002678Y013801D01*
X002652Y013825D01*
X002628Y013851D01*
X002608Y013879D01*
X002591Y013910D01*
X002578Y013943D01*
X002568Y013976D01*
X002562Y014011D01*
X002560Y014046D01*
X002560Y013318D02*
X002562Y013353D01*
X002568Y013388D01*
X002578Y013421D01*
X002591Y013454D01*
X002608Y013485D01*
X002628Y013513D01*
X002652Y013539D01*
X002678Y013563D01*
X002706Y013583D01*
X002737Y013600D01*
X002770Y013613D01*
X002803Y013623D01*
X002838Y013629D01*
X002873Y013631D01*
X002908Y013629D01*
X002943Y013623D01*
X002976Y013613D01*
X003009Y013600D01*
X003040Y013583D01*
X003068Y013563D01*
X003094Y013539D01*
X003118Y013513D01*
X003138Y013485D01*
X003155Y013454D01*
X003168Y013421D01*
X003178Y013388D01*
X003184Y013353D01*
X003186Y013318D01*
X003184Y013283D01*
X003178Y013248D01*
X003168Y013215D01*
X003155Y013182D01*
X003138Y013151D01*
X003118Y013123D01*
X003094Y013097D01*
X003068Y013073D01*
X003040Y013053D01*
X003009Y013036D01*
X002976Y013023D01*
X002943Y013013D01*
X002908Y013007D01*
X002873Y013005D01*
X002838Y013007D01*
X002803Y013013D01*
X002770Y013023D01*
X002737Y013036D01*
X002706Y013053D01*
X002678Y013073D01*
X002652Y013097D01*
X002628Y013123D01*
X002608Y013151D01*
X002591Y013182D01*
X002578Y013215D01*
X002568Y013248D01*
X002562Y013283D01*
X002560Y013318D01*
X002560Y012589D02*
X002562Y012624D01*
X002568Y012659D01*
X002578Y012692D01*
X002591Y012725D01*
X002608Y012756D01*
X002628Y012784D01*
X002652Y012810D01*
X002678Y012834D01*
X002706Y012854D01*
X002737Y012871D01*
X002770Y012884D01*
X002803Y012894D01*
X002838Y012900D01*
X002873Y012902D01*
X002908Y012900D01*
X002943Y012894D01*
X002976Y012884D01*
X003009Y012871D01*
X003040Y012854D01*
X003068Y012834D01*
X003094Y012810D01*
X003118Y012784D01*
X003138Y012756D01*
X003155Y012725D01*
X003168Y012692D01*
X003178Y012659D01*
X003184Y012624D01*
X003186Y012589D01*
X003184Y012554D01*
X003178Y012519D01*
X003168Y012486D01*
X003155Y012453D01*
X003138Y012422D01*
X003118Y012394D01*
X003094Y012368D01*
X003068Y012344D01*
X003040Y012324D01*
X003009Y012307D01*
X002976Y012294D01*
X002943Y012284D01*
X002908Y012278D01*
X002873Y012276D01*
X002838Y012278D01*
X002803Y012284D01*
X002770Y012294D01*
X002737Y012307D01*
X002706Y012324D01*
X002678Y012344D01*
X002652Y012368D01*
X002628Y012394D01*
X002608Y012422D01*
X002591Y012453D01*
X002578Y012486D01*
X002568Y012519D01*
X002562Y012554D01*
X002560Y012589D01*
X002560Y011861D02*
X002562Y011896D01*
X002568Y011931D01*
X002578Y011964D01*
X002591Y011997D01*
X002608Y012028D01*
X002628Y012056D01*
X002652Y012082D01*
X002678Y012106D01*
X002706Y012126D01*
X002737Y012143D01*
X002770Y012156D01*
X002803Y012166D01*
X002838Y012172D01*
X002873Y012174D01*
X002908Y012172D01*
X002943Y012166D01*
X002976Y012156D01*
X003009Y012143D01*
X003040Y012126D01*
X003068Y012106D01*
X003094Y012082D01*
X003118Y012056D01*
X003138Y012028D01*
X003155Y011997D01*
X003168Y011964D01*
X003178Y011931D01*
X003184Y011896D01*
X003186Y011861D01*
X003184Y011826D01*
X003178Y011791D01*
X003168Y011758D01*
X003155Y011725D01*
X003138Y011694D01*
X003118Y011666D01*
X003094Y011640D01*
X003068Y011616D01*
X003040Y011596D01*
X003009Y011579D01*
X002976Y011566D01*
X002943Y011556D01*
X002908Y011550D01*
X002873Y011548D01*
X002838Y011550D01*
X002803Y011556D01*
X002770Y011566D01*
X002737Y011579D01*
X002706Y011596D01*
X002678Y011616D01*
X002652Y011640D01*
X002628Y011666D01*
X002608Y011694D01*
X002591Y011725D01*
X002578Y011758D01*
X002568Y011791D01*
X002562Y011826D01*
X002560Y011861D01*
X002560Y011133D02*
X002562Y011168D01*
X002568Y011203D01*
X002578Y011236D01*
X002591Y011269D01*
X002608Y011300D01*
X002628Y011328D01*
X002652Y011354D01*
X002678Y011378D01*
X002706Y011398D01*
X002737Y011415D01*
X002770Y011428D01*
X002803Y011438D01*
X002838Y011444D01*
X002873Y011446D01*
X002908Y011444D01*
X002943Y011438D01*
X002976Y011428D01*
X003009Y011415D01*
X003040Y011398D01*
X003068Y011378D01*
X003094Y011354D01*
X003118Y011328D01*
X003138Y011300D01*
X003155Y011269D01*
X003168Y011236D01*
X003178Y011203D01*
X003184Y011168D01*
X003186Y011133D01*
X003184Y011098D01*
X003178Y011063D01*
X003168Y011030D01*
X003155Y010997D01*
X003138Y010966D01*
X003118Y010938D01*
X003094Y010912D01*
X003068Y010888D01*
X003040Y010868D01*
X003009Y010851D01*
X002976Y010838D01*
X002943Y010828D01*
X002908Y010822D01*
X002873Y010820D01*
X002838Y010822D01*
X002803Y010828D01*
X002770Y010838D01*
X002737Y010851D01*
X002706Y010868D01*
X002678Y010888D01*
X002652Y010912D01*
X002628Y010938D01*
X002608Y010966D01*
X002591Y010997D01*
X002578Y011030D01*
X002568Y011063D01*
X002562Y011098D01*
X002560Y011133D01*
X002560Y010405D02*
X002562Y010440D01*
X002568Y010475D01*
X002578Y010508D01*
X002591Y010541D01*
X002608Y010572D01*
X002628Y010600D01*
X002652Y010626D01*
X002678Y010650D01*
X002706Y010670D01*
X002737Y010687D01*
X002770Y010700D01*
X002803Y010710D01*
X002838Y010716D01*
X002873Y010718D01*
X002908Y010716D01*
X002943Y010710D01*
X002976Y010700D01*
X003009Y010687D01*
X003040Y010670D01*
X003068Y010650D01*
X003094Y010626D01*
X003118Y010600D01*
X003138Y010572D01*
X003155Y010541D01*
X003168Y010508D01*
X003178Y010475D01*
X003184Y010440D01*
X003186Y010405D01*
X003184Y010370D01*
X003178Y010335D01*
X003168Y010302D01*
X003155Y010269D01*
X003138Y010238D01*
X003118Y010210D01*
X003094Y010184D01*
X003068Y010160D01*
X003040Y010140D01*
X003009Y010123D01*
X002976Y010110D01*
X002943Y010100D01*
X002908Y010094D01*
X002873Y010092D01*
X002838Y010094D01*
X002803Y010100D01*
X002770Y010110D01*
X002737Y010123D01*
X002706Y010140D01*
X002678Y010160D01*
X002652Y010184D01*
X002628Y010210D01*
X002608Y010238D01*
X002591Y010269D01*
X002578Y010302D01*
X002568Y010335D01*
X002562Y010370D01*
X002560Y010405D01*
X002560Y009676D02*
X002562Y009711D01*
X002568Y009746D01*
X002578Y009779D01*
X002591Y009812D01*
X002608Y009843D01*
X002628Y009871D01*
X002652Y009897D01*
X002678Y009921D01*
X002706Y009941D01*
X002737Y009958D01*
X002770Y009971D01*
X002803Y009981D01*
X002838Y009987D01*
X002873Y009989D01*
X002908Y009987D01*
X002943Y009981D01*
X002976Y009971D01*
X003009Y009958D01*
X003040Y009941D01*
X003068Y009921D01*
X003094Y009897D01*
X003118Y009871D01*
X003138Y009843D01*
X003155Y009812D01*
X003168Y009779D01*
X003178Y009746D01*
X003184Y009711D01*
X003186Y009676D01*
X003184Y009641D01*
X003178Y009606D01*
X003168Y009573D01*
X003155Y009540D01*
X003138Y009509D01*
X003118Y009481D01*
X003094Y009455D01*
X003068Y009431D01*
X003040Y009411D01*
X003009Y009394D01*
X002976Y009381D01*
X002943Y009371D01*
X002908Y009365D01*
X002873Y009363D01*
X002838Y009365D01*
X002803Y009371D01*
X002770Y009381D01*
X002737Y009394D01*
X002706Y009411D01*
X002678Y009431D01*
X002652Y009455D01*
X002628Y009481D01*
X002608Y009509D01*
X002591Y009540D01*
X002578Y009573D01*
X002568Y009606D01*
X002562Y009641D01*
X002560Y009676D01*
X003234Y009676D02*
X003236Y009711D01*
X003242Y009746D01*
X003252Y009779D01*
X003265Y009812D01*
X003282Y009843D01*
X003302Y009871D01*
X003326Y009897D01*
X003352Y009921D01*
X003380Y009941D01*
X003411Y009958D01*
X003444Y009971D01*
X003477Y009981D01*
X003512Y009987D01*
X003547Y009989D01*
X003582Y009987D01*
X003617Y009981D01*
X003650Y009971D01*
X003683Y009958D01*
X003714Y009941D01*
X003742Y009921D01*
X003768Y009897D01*
X003792Y009871D01*
X003812Y009843D01*
X003829Y009812D01*
X003842Y009779D01*
X003852Y009746D01*
X003858Y009711D01*
X003860Y009676D01*
X003858Y009641D01*
X003852Y009606D01*
X003842Y009573D01*
X003829Y009540D01*
X003812Y009509D01*
X003792Y009481D01*
X003768Y009455D01*
X003742Y009431D01*
X003714Y009411D01*
X003683Y009394D01*
X003650Y009381D01*
X003617Y009371D01*
X003582Y009365D01*
X003547Y009363D01*
X003512Y009365D01*
X003477Y009371D01*
X003444Y009381D01*
X003411Y009394D01*
X003380Y009411D01*
X003352Y009431D01*
X003326Y009455D01*
X003302Y009481D01*
X003282Y009509D01*
X003265Y009540D01*
X003252Y009573D01*
X003242Y009606D01*
X003236Y009641D01*
X003234Y009676D01*
X003908Y009676D02*
X003910Y009711D01*
X003916Y009746D01*
X003926Y009779D01*
X003939Y009812D01*
X003956Y009843D01*
X003976Y009871D01*
X004000Y009897D01*
X004026Y009921D01*
X004054Y009941D01*
X004085Y009958D01*
X004118Y009971D01*
X004151Y009981D01*
X004186Y009987D01*
X004221Y009989D01*
X004256Y009987D01*
X004291Y009981D01*
X004324Y009971D01*
X004357Y009958D01*
X004388Y009941D01*
X004416Y009921D01*
X004442Y009897D01*
X004466Y009871D01*
X004486Y009843D01*
X004503Y009812D01*
X004516Y009779D01*
X004526Y009746D01*
X004532Y009711D01*
X004534Y009676D01*
X004532Y009641D01*
X004526Y009606D01*
X004516Y009573D01*
X004503Y009540D01*
X004486Y009509D01*
X004466Y009481D01*
X004442Y009455D01*
X004416Y009431D01*
X004388Y009411D01*
X004357Y009394D01*
X004324Y009381D01*
X004291Y009371D01*
X004256Y009365D01*
X004221Y009363D01*
X004186Y009365D01*
X004151Y009371D01*
X004118Y009381D01*
X004085Y009394D01*
X004054Y009411D01*
X004026Y009431D01*
X004000Y009455D01*
X003976Y009481D01*
X003956Y009509D01*
X003939Y009540D01*
X003926Y009573D01*
X003916Y009606D01*
X003910Y009641D01*
X003908Y009676D01*
X004582Y009676D02*
X004584Y009711D01*
X004590Y009746D01*
X004600Y009779D01*
X004613Y009812D01*
X004630Y009843D01*
X004650Y009871D01*
X004674Y009897D01*
X004700Y009921D01*
X004728Y009941D01*
X004759Y009958D01*
X004792Y009971D01*
X004825Y009981D01*
X004860Y009987D01*
X004895Y009989D01*
X004930Y009987D01*
X004965Y009981D01*
X004998Y009971D01*
X005031Y009958D01*
X005062Y009941D01*
X005090Y009921D01*
X005116Y009897D01*
X005140Y009871D01*
X005160Y009843D01*
X005177Y009812D01*
X005190Y009779D01*
X005200Y009746D01*
X005206Y009711D01*
X005208Y009676D01*
X005206Y009641D01*
X005200Y009606D01*
X005190Y009573D01*
X005177Y009540D01*
X005160Y009509D01*
X005140Y009481D01*
X005116Y009455D01*
X005090Y009431D01*
X005062Y009411D01*
X005031Y009394D01*
X004998Y009381D01*
X004965Y009371D01*
X004930Y009365D01*
X004895Y009363D01*
X004860Y009365D01*
X004825Y009371D01*
X004792Y009381D01*
X004759Y009394D01*
X004728Y009411D01*
X004700Y009431D01*
X004674Y009455D01*
X004650Y009481D01*
X004630Y009509D01*
X004613Y009540D01*
X004600Y009573D01*
X004590Y009606D01*
X004584Y009641D01*
X004582Y009676D01*
X005256Y009676D02*
X005258Y009711D01*
X005264Y009746D01*
X005274Y009779D01*
X005287Y009812D01*
X005304Y009843D01*
X005324Y009871D01*
X005348Y009897D01*
X005374Y009921D01*
X005402Y009941D01*
X005433Y009958D01*
X005466Y009971D01*
X005499Y009981D01*
X005534Y009987D01*
X005569Y009989D01*
X005604Y009987D01*
X005639Y009981D01*
X005672Y009971D01*
X005705Y009958D01*
X005736Y009941D01*
X005764Y009921D01*
X005790Y009897D01*
X005814Y009871D01*
X005834Y009843D01*
X005851Y009812D01*
X005864Y009779D01*
X005874Y009746D01*
X005880Y009711D01*
X005882Y009676D01*
X005880Y009641D01*
X005874Y009606D01*
X005864Y009573D01*
X005851Y009540D01*
X005834Y009509D01*
X005814Y009481D01*
X005790Y009455D01*
X005764Y009431D01*
X005736Y009411D01*
X005705Y009394D01*
X005672Y009381D01*
X005639Y009371D01*
X005604Y009365D01*
X005569Y009363D01*
X005534Y009365D01*
X005499Y009371D01*
X005466Y009381D01*
X005433Y009394D01*
X005402Y009411D01*
X005374Y009431D01*
X005348Y009455D01*
X005324Y009481D01*
X005304Y009509D01*
X005287Y009540D01*
X005274Y009573D01*
X005264Y009606D01*
X005258Y009641D01*
X005256Y009676D01*
X005930Y009676D02*
X005932Y009711D01*
X005938Y009746D01*
X005948Y009779D01*
X005961Y009812D01*
X005978Y009843D01*
X005998Y009871D01*
X006022Y009897D01*
X006048Y009921D01*
X006076Y009941D01*
X006107Y009958D01*
X006140Y009971D01*
X006173Y009981D01*
X006208Y009987D01*
X006243Y009989D01*
X006278Y009987D01*
X006313Y009981D01*
X006346Y009971D01*
X006379Y009958D01*
X006410Y009941D01*
X006438Y009921D01*
X006464Y009897D01*
X006488Y009871D01*
X006508Y009843D01*
X006525Y009812D01*
X006538Y009779D01*
X006548Y009746D01*
X006554Y009711D01*
X006556Y009676D01*
X006554Y009641D01*
X006548Y009606D01*
X006538Y009573D01*
X006525Y009540D01*
X006508Y009509D01*
X006488Y009481D01*
X006464Y009455D01*
X006438Y009431D01*
X006410Y009411D01*
X006379Y009394D01*
X006346Y009381D01*
X006313Y009371D01*
X006278Y009365D01*
X006243Y009363D01*
X006208Y009365D01*
X006173Y009371D01*
X006140Y009381D01*
X006107Y009394D01*
X006076Y009411D01*
X006048Y009431D01*
X006022Y009455D01*
X005998Y009481D01*
X005978Y009509D01*
X005961Y009540D01*
X005948Y009573D01*
X005938Y009606D01*
X005932Y009641D01*
X005930Y009676D01*
X005930Y010405D02*
X005932Y010440D01*
X005938Y010475D01*
X005948Y010508D01*
X005961Y010541D01*
X005978Y010572D01*
X005998Y010600D01*
X006022Y010626D01*
X006048Y010650D01*
X006076Y010670D01*
X006107Y010687D01*
X006140Y010700D01*
X006173Y010710D01*
X006208Y010716D01*
X006243Y010718D01*
X006278Y010716D01*
X006313Y010710D01*
X006346Y010700D01*
X006379Y010687D01*
X006410Y010670D01*
X006438Y010650D01*
X006464Y010626D01*
X006488Y010600D01*
X006508Y010572D01*
X006525Y010541D01*
X006538Y010508D01*
X006548Y010475D01*
X006554Y010440D01*
X006556Y010405D01*
X006554Y010370D01*
X006548Y010335D01*
X006538Y010302D01*
X006525Y010269D01*
X006508Y010238D01*
X006488Y010210D01*
X006464Y010184D01*
X006438Y010160D01*
X006410Y010140D01*
X006379Y010123D01*
X006346Y010110D01*
X006313Y010100D01*
X006278Y010094D01*
X006243Y010092D01*
X006208Y010094D01*
X006173Y010100D01*
X006140Y010110D01*
X006107Y010123D01*
X006076Y010140D01*
X006048Y010160D01*
X006022Y010184D01*
X005998Y010210D01*
X005978Y010238D01*
X005961Y010269D01*
X005948Y010302D01*
X005938Y010335D01*
X005932Y010370D01*
X005930Y010405D01*
X005930Y011133D02*
X005932Y011168D01*
X005938Y011203D01*
X005948Y011236D01*
X005961Y011269D01*
X005978Y011300D01*
X005998Y011328D01*
X006022Y011354D01*
X006048Y011378D01*
X006076Y011398D01*
X006107Y011415D01*
X006140Y011428D01*
X006173Y011438D01*
X006208Y011444D01*
X006243Y011446D01*
X006278Y011444D01*
X006313Y011438D01*
X006346Y011428D01*
X006379Y011415D01*
X006410Y011398D01*
X006438Y011378D01*
X006464Y011354D01*
X006488Y011328D01*
X006508Y011300D01*
X006525Y011269D01*
X006538Y011236D01*
X006548Y011203D01*
X006554Y011168D01*
X006556Y011133D01*
X006554Y011098D01*
X006548Y011063D01*
X006538Y011030D01*
X006525Y010997D01*
X006508Y010966D01*
X006488Y010938D01*
X006464Y010912D01*
X006438Y010888D01*
X006410Y010868D01*
X006379Y010851D01*
X006346Y010838D01*
X006313Y010828D01*
X006278Y010822D01*
X006243Y010820D01*
X006208Y010822D01*
X006173Y010828D01*
X006140Y010838D01*
X006107Y010851D01*
X006076Y010868D01*
X006048Y010888D01*
X006022Y010912D01*
X005998Y010938D01*
X005978Y010966D01*
X005961Y010997D01*
X005948Y011030D01*
X005938Y011063D01*
X005932Y011098D01*
X005930Y011133D01*
X005930Y011861D02*
X005932Y011896D01*
X005938Y011931D01*
X005948Y011964D01*
X005961Y011997D01*
X005978Y012028D01*
X005998Y012056D01*
X006022Y012082D01*
X006048Y012106D01*
X006076Y012126D01*
X006107Y012143D01*
X006140Y012156D01*
X006173Y012166D01*
X006208Y012172D01*
X006243Y012174D01*
X006278Y012172D01*
X006313Y012166D01*
X006346Y012156D01*
X006379Y012143D01*
X006410Y012126D01*
X006438Y012106D01*
X006464Y012082D01*
X006488Y012056D01*
X006508Y012028D01*
X006525Y011997D01*
X006538Y011964D01*
X006548Y011931D01*
X006554Y011896D01*
X006556Y011861D01*
X006554Y011826D01*
X006548Y011791D01*
X006538Y011758D01*
X006525Y011725D01*
X006508Y011694D01*
X006488Y011666D01*
X006464Y011640D01*
X006438Y011616D01*
X006410Y011596D01*
X006379Y011579D01*
X006346Y011566D01*
X006313Y011556D01*
X006278Y011550D01*
X006243Y011548D01*
X006208Y011550D01*
X006173Y011556D01*
X006140Y011566D01*
X006107Y011579D01*
X006076Y011596D01*
X006048Y011616D01*
X006022Y011640D01*
X005998Y011666D01*
X005978Y011694D01*
X005961Y011725D01*
X005948Y011758D01*
X005938Y011791D01*
X005932Y011826D01*
X005930Y011861D01*
X005930Y012589D02*
X005932Y012624D01*
X005938Y012659D01*
X005948Y012692D01*
X005961Y012725D01*
X005978Y012756D01*
X005998Y012784D01*
X006022Y012810D01*
X006048Y012834D01*
X006076Y012854D01*
X006107Y012871D01*
X006140Y012884D01*
X006173Y012894D01*
X006208Y012900D01*
X006243Y012902D01*
X006278Y012900D01*
X006313Y012894D01*
X006346Y012884D01*
X006379Y012871D01*
X006410Y012854D01*
X006438Y012834D01*
X006464Y012810D01*
X006488Y012784D01*
X006508Y012756D01*
X006525Y012725D01*
X006538Y012692D01*
X006548Y012659D01*
X006554Y012624D01*
X006556Y012589D01*
X006554Y012554D01*
X006548Y012519D01*
X006538Y012486D01*
X006525Y012453D01*
X006508Y012422D01*
X006488Y012394D01*
X006464Y012368D01*
X006438Y012344D01*
X006410Y012324D01*
X006379Y012307D01*
X006346Y012294D01*
X006313Y012284D01*
X006278Y012278D01*
X006243Y012276D01*
X006208Y012278D01*
X006173Y012284D01*
X006140Y012294D01*
X006107Y012307D01*
X006076Y012324D01*
X006048Y012344D01*
X006022Y012368D01*
X005998Y012394D01*
X005978Y012422D01*
X005961Y012453D01*
X005948Y012486D01*
X005938Y012519D01*
X005932Y012554D01*
X005930Y012589D01*
X005930Y013318D02*
X005932Y013353D01*
X005938Y013388D01*
X005948Y013421D01*
X005961Y013454D01*
X005978Y013485D01*
X005998Y013513D01*
X006022Y013539D01*
X006048Y013563D01*
X006076Y013583D01*
X006107Y013600D01*
X006140Y013613D01*
X006173Y013623D01*
X006208Y013629D01*
X006243Y013631D01*
X006278Y013629D01*
X006313Y013623D01*
X006346Y013613D01*
X006379Y013600D01*
X006410Y013583D01*
X006438Y013563D01*
X006464Y013539D01*
X006488Y013513D01*
X006508Y013485D01*
X006525Y013454D01*
X006538Y013421D01*
X006548Y013388D01*
X006554Y013353D01*
X006556Y013318D01*
X006554Y013283D01*
X006548Y013248D01*
X006538Y013215D01*
X006525Y013182D01*
X006508Y013151D01*
X006488Y013123D01*
X006464Y013097D01*
X006438Y013073D01*
X006410Y013053D01*
X006379Y013036D01*
X006346Y013023D01*
X006313Y013013D01*
X006278Y013007D01*
X006243Y013005D01*
X006208Y013007D01*
X006173Y013013D01*
X006140Y013023D01*
X006107Y013036D01*
X006076Y013053D01*
X006048Y013073D01*
X006022Y013097D01*
X005998Y013123D01*
X005978Y013151D01*
X005961Y013182D01*
X005948Y013215D01*
X005938Y013248D01*
X005932Y013283D01*
X005930Y013318D01*
X005930Y014046D02*
X005932Y014081D01*
X005938Y014116D01*
X005948Y014149D01*
X005961Y014182D01*
X005978Y014213D01*
X005998Y014241D01*
X006022Y014267D01*
X006048Y014291D01*
X006076Y014311D01*
X006107Y014328D01*
X006140Y014341D01*
X006173Y014351D01*
X006208Y014357D01*
X006243Y014359D01*
X006278Y014357D01*
X006313Y014351D01*
X006346Y014341D01*
X006379Y014328D01*
X006410Y014311D01*
X006438Y014291D01*
X006464Y014267D01*
X006488Y014241D01*
X006508Y014213D01*
X006525Y014182D01*
X006538Y014149D01*
X006548Y014116D01*
X006554Y014081D01*
X006556Y014046D01*
X006554Y014011D01*
X006548Y013976D01*
X006538Y013943D01*
X006525Y013910D01*
X006508Y013879D01*
X006488Y013851D01*
X006464Y013825D01*
X006438Y013801D01*
X006410Y013781D01*
X006379Y013764D01*
X006346Y013751D01*
X006313Y013741D01*
X006278Y013735D01*
X006243Y013733D01*
X006208Y013735D01*
X006173Y013741D01*
X006140Y013751D01*
X006107Y013764D01*
X006076Y013781D01*
X006048Y013801D01*
X006022Y013825D01*
X005998Y013851D01*
X005978Y013879D01*
X005961Y013910D01*
X005948Y013943D01*
X005938Y013976D01*
X005932Y014011D01*
X005930Y014046D01*
X005256Y014046D02*
X005258Y014081D01*
X005264Y014116D01*
X005274Y014149D01*
X005287Y014182D01*
X005304Y014213D01*
X005324Y014241D01*
X005348Y014267D01*
X005374Y014291D01*
X005402Y014311D01*
X005433Y014328D01*
X005466Y014341D01*
X005499Y014351D01*
X005534Y014357D01*
X005569Y014359D01*
X005604Y014357D01*
X005639Y014351D01*
X005672Y014341D01*
X005705Y014328D01*
X005736Y014311D01*
X005764Y014291D01*
X005790Y014267D01*
X005814Y014241D01*
X005834Y014213D01*
X005851Y014182D01*
X005864Y014149D01*
X005874Y014116D01*
X005880Y014081D01*
X005882Y014046D01*
X005880Y014011D01*
X005874Y013976D01*
X005864Y013943D01*
X005851Y013910D01*
X005834Y013879D01*
X005814Y013851D01*
X005790Y013825D01*
X005764Y013801D01*
X005736Y013781D01*
X005705Y013764D01*
X005672Y013751D01*
X005639Y013741D01*
X005604Y013735D01*
X005569Y013733D01*
X005534Y013735D01*
X005499Y013741D01*
X005466Y013751D01*
X005433Y013764D01*
X005402Y013781D01*
X005374Y013801D01*
X005348Y013825D01*
X005324Y013851D01*
X005304Y013879D01*
X005287Y013910D01*
X005274Y013943D01*
X005264Y013976D01*
X005258Y014011D01*
X005256Y014046D01*
X004582Y014046D02*
X004584Y014081D01*
X004590Y014116D01*
X004600Y014149D01*
X004613Y014182D01*
X004630Y014213D01*
X004650Y014241D01*
X004674Y014267D01*
X004700Y014291D01*
X004728Y014311D01*
X004759Y014328D01*
X004792Y014341D01*
X004825Y014351D01*
X004860Y014357D01*
X004895Y014359D01*
X004930Y014357D01*
X004965Y014351D01*
X004998Y014341D01*
X005031Y014328D01*
X005062Y014311D01*
X005090Y014291D01*
X005116Y014267D01*
X005140Y014241D01*
X005160Y014213D01*
X005177Y014182D01*
X005190Y014149D01*
X005200Y014116D01*
X005206Y014081D01*
X005208Y014046D01*
X005206Y014011D01*
X005200Y013976D01*
X005190Y013943D01*
X005177Y013910D01*
X005160Y013879D01*
X005140Y013851D01*
X005116Y013825D01*
X005090Y013801D01*
X005062Y013781D01*
X005031Y013764D01*
X004998Y013751D01*
X004965Y013741D01*
X004930Y013735D01*
X004895Y013733D01*
X004860Y013735D01*
X004825Y013741D01*
X004792Y013751D01*
X004759Y013764D01*
X004728Y013781D01*
X004700Y013801D01*
X004674Y013825D01*
X004650Y013851D01*
X004630Y013879D01*
X004613Y013910D01*
X004600Y013943D01*
X004590Y013976D01*
X004584Y014011D01*
X004582Y014046D01*
X003908Y014046D02*
X003910Y014081D01*
X003916Y014116D01*
X003926Y014149D01*
X003939Y014182D01*
X003956Y014213D01*
X003976Y014241D01*
X004000Y014267D01*
X004026Y014291D01*
X004054Y014311D01*
X004085Y014328D01*
X004118Y014341D01*
X004151Y014351D01*
X004186Y014357D01*
X004221Y014359D01*
X004256Y014357D01*
X004291Y014351D01*
X004324Y014341D01*
X004357Y014328D01*
X004388Y014311D01*
X004416Y014291D01*
X004442Y014267D01*
X004466Y014241D01*
X004486Y014213D01*
X004503Y014182D01*
X004516Y014149D01*
X004526Y014116D01*
X004532Y014081D01*
X004534Y014046D01*
X004532Y014011D01*
X004526Y013976D01*
X004516Y013943D01*
X004503Y013910D01*
X004486Y013879D01*
X004466Y013851D01*
X004442Y013825D01*
X004416Y013801D01*
X004388Y013781D01*
X004357Y013764D01*
X004324Y013751D01*
X004291Y013741D01*
X004256Y013735D01*
X004221Y013733D01*
X004186Y013735D01*
X004151Y013741D01*
X004118Y013751D01*
X004085Y013764D01*
X004054Y013781D01*
X004026Y013801D01*
X004000Y013825D01*
X003976Y013851D01*
X003956Y013879D01*
X003939Y013910D01*
X003926Y013943D01*
X003916Y013976D01*
X003910Y014011D01*
X003908Y014046D01*
X015581Y021218D02*
X015583Y021250D01*
X015589Y021282D01*
X015598Y021312D01*
X015611Y021342D01*
X015628Y021369D01*
X015648Y021394D01*
X015671Y021417D01*
X015696Y021437D01*
X015723Y021454D01*
X015753Y021467D01*
X015783Y021476D01*
X015815Y021482D01*
X015847Y021484D01*
X015879Y021482D01*
X015911Y021476D01*
X015941Y021467D01*
X015971Y021454D01*
X015998Y021437D01*
X016023Y021417D01*
X016046Y021394D01*
X016066Y021369D01*
X016083Y021342D01*
X016096Y021312D01*
X016105Y021282D01*
X016111Y021250D01*
X016113Y021218D01*
X016111Y021186D01*
X016105Y021154D01*
X016096Y021124D01*
X016083Y021094D01*
X016066Y021067D01*
X016046Y021042D01*
X016023Y021019D01*
X015998Y020999D01*
X015971Y020982D01*
X015941Y020969D01*
X015911Y020960D01*
X015879Y020954D01*
X015847Y020952D01*
X015815Y020954D01*
X015783Y020960D01*
X015753Y020969D01*
X015723Y020982D01*
X015696Y020999D01*
X015671Y021019D01*
X015648Y021042D01*
X015628Y021067D01*
X015611Y021094D01*
X015598Y021124D01*
X015589Y021154D01*
X015583Y021186D01*
X015581Y021218D01*
X009801Y024574D02*
X009803Y024627D01*
X009809Y024680D01*
X009819Y024732D01*
X009832Y024784D01*
X009850Y024834D01*
X009871Y024883D01*
X009895Y024930D01*
X009923Y024975D01*
X009955Y025018D01*
X009989Y025059D01*
X010026Y025097D01*
X010066Y025132D01*
X010109Y025164D01*
X010153Y025193D01*
X010200Y025219D01*
X010249Y025240D01*
X010299Y025259D01*
X010350Y025273D01*
X010402Y025284D01*
X010455Y025291D01*
X010508Y025294D01*
X010561Y025293D01*
X010614Y025288D01*
X010666Y025279D01*
X010718Y025267D01*
X010769Y025250D01*
X010818Y025230D01*
X010866Y025206D01*
X010911Y025179D01*
X010955Y025149D01*
X010996Y025115D01*
X011035Y025078D01*
X011071Y025039D01*
X011103Y024997D01*
X011133Y024953D01*
X011159Y024907D01*
X011182Y024859D01*
X011202Y024809D01*
X011217Y024758D01*
X011229Y024706D01*
X011237Y024654D01*
X011241Y024601D01*
X011241Y024547D01*
X011237Y024494D01*
X011229Y024442D01*
X011217Y024390D01*
X011202Y024339D01*
X011182Y024289D01*
X011159Y024241D01*
X011133Y024195D01*
X011103Y024151D01*
X011071Y024109D01*
X011035Y024070D01*
X010996Y024033D01*
X010955Y023999D01*
X010911Y023969D01*
X010866Y023942D01*
X010818Y023918D01*
X010769Y023898D01*
X010718Y023881D01*
X010666Y023869D01*
X010614Y023860D01*
X010561Y023855D01*
X010508Y023854D01*
X010455Y023857D01*
X010402Y023864D01*
X010350Y023875D01*
X010299Y023889D01*
X010249Y023908D01*
X010200Y023929D01*
X010153Y023955D01*
X010109Y023984D01*
X010066Y024016D01*
X010026Y024051D01*
X009989Y024089D01*
X009955Y024130D01*
X009923Y024173D01*
X009895Y024218D01*
X009871Y024265D01*
X009850Y024314D01*
X009832Y024364D01*
X009819Y024416D01*
X009809Y024468D01*
X009803Y024521D01*
X009801Y024574D01*
X013928Y025706D02*
X013930Y025738D01*
X013936Y025770D01*
X013945Y025800D01*
X013958Y025830D01*
X013975Y025857D01*
X013995Y025882D01*
X014018Y025905D01*
X014043Y025925D01*
X014070Y025942D01*
X014100Y025955D01*
X014130Y025964D01*
X014162Y025970D01*
X014194Y025972D01*
X014226Y025970D01*
X014258Y025964D01*
X014288Y025955D01*
X014318Y025942D01*
X014345Y025925D01*
X014370Y025905D01*
X014393Y025882D01*
X014413Y025857D01*
X014430Y025830D01*
X014443Y025800D01*
X014452Y025770D01*
X014458Y025738D01*
X014460Y025706D01*
X014458Y025674D01*
X014452Y025642D01*
X014443Y025612D01*
X014430Y025582D01*
X014413Y025555D01*
X014393Y025530D01*
X014370Y025507D01*
X014345Y025487D01*
X014318Y025470D01*
X014288Y025457D01*
X014258Y025448D01*
X014226Y025442D01*
X014194Y025440D01*
X014162Y025442D01*
X014130Y025448D01*
X014100Y025457D01*
X014070Y025470D01*
X014043Y025487D01*
X014018Y025507D01*
X013995Y025530D01*
X013975Y025555D01*
X013958Y025582D01*
X013945Y025612D01*
X013936Y025642D01*
X013930Y025674D01*
X013928Y025706D01*
X020551Y028524D02*
X020553Y028577D01*
X020559Y028630D01*
X020569Y028682D01*
X020582Y028734D01*
X020600Y028784D01*
X020621Y028833D01*
X020645Y028880D01*
X020673Y028925D01*
X020705Y028968D01*
X020739Y029009D01*
X020776Y029047D01*
X020816Y029082D01*
X020859Y029114D01*
X020903Y029143D01*
X020950Y029169D01*
X020999Y029190D01*
X021049Y029209D01*
X021100Y029223D01*
X021152Y029234D01*
X021205Y029241D01*
X021258Y029244D01*
X021311Y029243D01*
X021364Y029238D01*
X021416Y029229D01*
X021468Y029217D01*
X021519Y029200D01*
X021568Y029180D01*
X021616Y029156D01*
X021661Y029129D01*
X021705Y029099D01*
X021746Y029065D01*
X021785Y029028D01*
X021821Y028989D01*
X021853Y028947D01*
X021883Y028903D01*
X021909Y028857D01*
X021932Y028809D01*
X021952Y028759D01*
X021967Y028708D01*
X021979Y028656D01*
X021987Y028604D01*
X021991Y028551D01*
X021991Y028497D01*
X021987Y028444D01*
X021979Y028392D01*
X021967Y028340D01*
X021952Y028289D01*
X021932Y028239D01*
X021909Y028191D01*
X021883Y028145D01*
X021853Y028101D01*
X021821Y028059D01*
X021785Y028020D01*
X021746Y027983D01*
X021705Y027949D01*
X021661Y027919D01*
X021616Y027892D01*
X021568Y027868D01*
X021519Y027848D01*
X021468Y027831D01*
X021416Y027819D01*
X021364Y027810D01*
X021311Y027805D01*
X021258Y027804D01*
X021205Y027807D01*
X021152Y027814D01*
X021100Y027825D01*
X021049Y027839D01*
X020999Y027858D01*
X020950Y027879D01*
X020903Y027905D01*
X020859Y027934D01*
X020816Y027966D01*
X020776Y028001D01*
X020739Y028039D01*
X020705Y028080D01*
X020673Y028123D01*
X020645Y028168D01*
X020621Y028215D01*
X020600Y028264D01*
X020582Y028314D01*
X020569Y028366D01*
X020559Y028418D01*
X020553Y028471D01*
X020551Y028524D01*
X004801Y004074D02*
X004803Y004127D01*
X004809Y004180D01*
X004819Y004232D01*
X004832Y004284D01*
X004850Y004334D01*
X004871Y004383D01*
X004895Y004430D01*
X004923Y004475D01*
X004955Y004518D01*
X004989Y004559D01*
X005026Y004597D01*
X005066Y004632D01*
X005109Y004664D01*
X005153Y004693D01*
X005200Y004719D01*
X005249Y004740D01*
X005299Y004759D01*
X005350Y004773D01*
X005402Y004784D01*
X005455Y004791D01*
X005508Y004794D01*
X005561Y004793D01*
X005614Y004788D01*
X005666Y004779D01*
X005718Y004767D01*
X005769Y004750D01*
X005818Y004730D01*
X005866Y004706D01*
X005911Y004679D01*
X005955Y004649D01*
X005996Y004615D01*
X006035Y004578D01*
X006071Y004539D01*
X006103Y004497D01*
X006133Y004453D01*
X006159Y004407D01*
X006182Y004359D01*
X006202Y004309D01*
X006217Y004258D01*
X006229Y004206D01*
X006237Y004154D01*
X006241Y004101D01*
X006241Y004047D01*
X006237Y003994D01*
X006229Y003942D01*
X006217Y003890D01*
X006202Y003839D01*
X006182Y003789D01*
X006159Y003741D01*
X006133Y003695D01*
X006103Y003651D01*
X006071Y003609D01*
X006035Y003570D01*
X005996Y003533D01*
X005955Y003499D01*
X005911Y003469D01*
X005866Y003442D01*
X005818Y003418D01*
X005769Y003398D01*
X005718Y003381D01*
X005666Y003369D01*
X005614Y003360D01*
X005561Y003355D01*
X005508Y003354D01*
X005455Y003357D01*
X005402Y003364D01*
X005350Y003375D01*
X005299Y003389D01*
X005249Y003408D01*
X005200Y003429D01*
X005153Y003455D01*
X005109Y003484D01*
X005066Y003516D01*
X005026Y003551D01*
X004989Y003589D01*
X004955Y003630D01*
X004923Y003673D01*
X004895Y003718D01*
X004871Y003765D01*
X004850Y003814D01*
X004832Y003864D01*
X004819Y003916D01*
X004809Y003968D01*
X004803Y004021D01*
X004801Y004074D01*
X034301Y002199D02*
X034303Y002252D01*
X034309Y002305D01*
X034319Y002357D01*
X034332Y002409D01*
X034350Y002459D01*
X034371Y002508D01*
X034395Y002555D01*
X034423Y002600D01*
X034455Y002643D01*
X034489Y002684D01*
X034526Y002722D01*
X034566Y002757D01*
X034609Y002789D01*
X034653Y002818D01*
X034700Y002844D01*
X034749Y002865D01*
X034799Y002884D01*
X034850Y002898D01*
X034902Y002909D01*
X034955Y002916D01*
X035008Y002919D01*
X035061Y002918D01*
X035114Y002913D01*
X035166Y002904D01*
X035218Y002892D01*
X035269Y002875D01*
X035318Y002855D01*
X035366Y002831D01*
X035411Y002804D01*
X035455Y002774D01*
X035496Y002740D01*
X035535Y002703D01*
X035571Y002664D01*
X035603Y002622D01*
X035633Y002578D01*
X035659Y002532D01*
X035682Y002484D01*
X035702Y002434D01*
X035717Y002383D01*
X035729Y002331D01*
X035737Y002279D01*
X035741Y002226D01*
X035741Y002172D01*
X035737Y002119D01*
X035729Y002067D01*
X035717Y002015D01*
X035702Y001964D01*
X035682Y001914D01*
X035659Y001866D01*
X035633Y001820D01*
X035603Y001776D01*
X035571Y001734D01*
X035535Y001695D01*
X035496Y001658D01*
X035455Y001624D01*
X035411Y001594D01*
X035366Y001567D01*
X035318Y001543D01*
X035269Y001523D01*
X035218Y001506D01*
X035166Y001494D01*
X035114Y001485D01*
X035061Y001480D01*
X035008Y001479D01*
X034955Y001482D01*
X034902Y001489D01*
X034850Y001500D01*
X034799Y001514D01*
X034749Y001533D01*
X034700Y001554D01*
X034653Y001580D01*
X034609Y001609D01*
X034566Y001641D01*
X034526Y001676D01*
X034489Y001714D01*
X034455Y001755D01*
X034423Y001798D01*
X034395Y001843D01*
X034371Y001890D01*
X034350Y001939D01*
X034332Y001989D01*
X034319Y002041D01*
X034309Y002093D01*
X034303Y002146D01*
X034301Y002199D01*
D12*
X001361Y000574D02*
X000180Y000574D01*
X000771Y000967D02*
X000771Y000180D01*
M02*
