G75*
%MOIN*%
%OFA0B0*%
%FSLAX24Y24*%
%IPPOS*%
%LPD*%
%AMOC8*
5,1,8,0,0,1.08239X$1,22.5*
%
%ADD10C,0.1500*%
%ADD11OC8,0.0670*%
%ADD12R,0.0456X0.0456*%
%ADD13C,0.0336*%
%ADD14C,0.0316*%
%ADD15R,0.0591X0.0591*%
%ADD16C,0.0591*%
%ADD17R,0.0662X0.0662*%
%ADD18R,0.0532X0.0532*%
%ADD19R,0.0436X0.0436*%
D10*
X005521Y004271D03*
X004511Y016519D03*
X010521Y024771D03*
X021271Y028721D03*
X035021Y002396D03*
D11*
X018160Y006149D03*
X018160Y007149D03*
X018160Y008149D03*
X017160Y008149D03*
X017160Y007149D03*
X017160Y006149D03*
D12*
X019339Y025416D03*
X020127Y025416D03*
X020914Y025416D03*
X021702Y025416D03*
D13*
X001649Y019943D03*
X001452Y019943D03*
X001452Y017798D03*
X001649Y017798D03*
D14*
X002664Y017916D03*
X002822Y017916D03*
X002822Y019825D03*
X002664Y019825D03*
D15*
X014528Y022674D03*
X014528Y023659D03*
X014528Y024643D03*
X015513Y024643D03*
X015513Y023659D03*
X015513Y022674D03*
X028830Y003408D03*
X029814Y003408D03*
X030798Y003408D03*
X031782Y003408D03*
D16*
X015847Y021414D03*
X014194Y025903D03*
D17*
X003771Y023021D03*
X003771Y022021D03*
X026021Y028646D03*
X027021Y028646D03*
D18*
X001896Y008845D03*
X001896Y008058D03*
X001896Y007271D03*
X001896Y006483D03*
X001896Y005696D03*
D19*
X002936Y004708D03*
X005889Y008448D03*
X007070Y010219D03*
X007070Y011007D03*
X009432Y009235D03*
X009432Y008448D03*
X010416Y007660D03*
X011204Y007857D03*
X012778Y007463D03*
X011204Y006479D03*
X010219Y006282D03*
X009432Y007070D03*
X008841Y006282D03*
X008448Y004904D03*
X008841Y004314D03*
X009629Y004904D03*
X009629Y003723D03*
X010416Y003723D03*
X010810Y004314D03*
X011794Y003920D03*
X012385Y004904D03*
X015534Y003526D03*
X015928Y005298D03*
X019471Y006479D03*
X019668Y005101D03*
X022030Y007267D03*
X023015Y006479D03*
X023211Y005298D03*
X023015Y002739D03*
X022030Y002739D03*
X027149Y006086D03*
X028723Y005298D03*
X029511Y006479D03*
X027542Y008054D03*
X028723Y009826D03*
X028133Y010416D03*
X029314Y010416D03*
X030101Y011794D03*
X027542Y011597D03*
X025771Y013763D03*
X024141Y013723D03*
X022621Y013172D03*
X021637Y011991D03*
X020456Y013172D03*
X018290Y011991D03*
X016715Y012582D03*
X015534Y014353D03*
X016125Y014944D03*
X017306Y015141D03*
X017897Y016715D03*
X019865Y017700D03*
X021046Y018487D03*
X022621Y017503D03*
X020456Y015928D03*
X021637Y015731D03*
X024983Y016912D03*
X026164Y016912D03*
X026952Y015928D03*
X025967Y015731D03*
X028133Y016912D03*
X029314Y014944D03*
X030692Y014353D03*
X025574Y020259D03*
X027345Y021046D03*
X028723Y022424D03*
X025574Y025377D03*
X024393Y025771D03*
X022818Y025574D03*
X019339Y022556D03*
X019471Y019471D03*
X013763Y020259D03*
X013763Y020849D03*
X013763Y021440D03*
X012385Y019078D03*
X011794Y018290D03*
X012778Y018093D03*
X013566Y017700D03*
X011991Y016715D03*
X010810Y016125D03*
X011597Y014747D03*
X012582Y014156D03*
X012778Y013369D03*
X011991Y011400D03*
X011204Y010219D03*
X010416Y010219D03*
X010416Y010810D03*
X011991Y009826D03*
X011597Y009038D03*
X012385Y009038D03*
X012975Y009826D03*
X014156Y009826D03*
X016715Y009432D03*
X017897Y009629D03*
X019471Y009235D03*
X010613Y009038D03*
X009826Y014156D03*
X007267Y017109D03*
X006676Y017503D03*
X006676Y019668D03*
X006676Y020456D03*
X005692Y021046D03*
X005101Y022424D03*
X008251Y021046D03*
X009432Y021440D03*
X010613Y021440D03*
X009235Y022818D03*
X010416Y019078D03*
X009235Y018684D03*
X001755Y013369D03*
X001755Y012188D03*
X001755Y010810D03*
X018290Y025771D03*
M02*
