G75*
%MOIN*%
%OFA0B0*%
%FSLAX24Y24*%
%IPPOS*%
%LPD*%
%AMOC8*
5,1,8,0,0,1.08239X$1,22.5*
%
%ADD10C,0.1580*%
%ADD11OC8,0.0670*%
%ADD12R,0.0456X0.0456*%
%ADD13C,0.0336*%
%ADD14C,0.0316*%
%ADD15R,0.0710X0.0710*%
%ADD16R,0.0662X0.0662*%
%ADD17R,0.0591X0.0591*%
%ADD18R,0.0857X0.0857*%
%ADD19R,0.0769X0.0769*%
%ADD20R,0.0436X0.0436*%
%ADD21C,0.0436*%
D10*
X006899Y003952D03*
X005889Y017700D03*
X011899Y025952D03*
X022649Y029902D03*
X036399Y003577D03*
D11*
X019538Y007330D03*
X019538Y008330D03*
X019538Y009330D03*
X018538Y009330D03*
X018538Y008330D03*
X018538Y007330D03*
D12*
X020422Y026597D03*
X021406Y026597D03*
X022391Y026597D03*
X023375Y026597D03*
D13*
X003026Y021124D03*
X002830Y021124D03*
X002830Y018979D03*
X003026Y018979D03*
D14*
X004042Y019097D03*
X004200Y019097D03*
X004200Y021006D03*
X004042Y021006D03*
D15*
X030208Y004589D03*
X031192Y004589D03*
X032176Y004589D03*
X033160Y004589D03*
D16*
X005149Y023202D03*
X005149Y024202D03*
X027399Y029827D03*
X028399Y029827D03*
D17*
X016891Y025824D03*
X016891Y024840D03*
X016891Y023855D03*
X015906Y023855D03*
X015906Y024840D03*
X015906Y025824D03*
D18*
X015572Y027084D03*
X017225Y022596D03*
D19*
X005219Y009727D03*
X005219Y008743D03*
X005219Y007759D03*
X005219Y006774D03*
X005219Y005790D03*
X003251Y005790D03*
X003251Y006774D03*
X003251Y007759D03*
X003251Y008743D03*
X003251Y009727D03*
D20*
X003133Y010810D03*
X003133Y011991D03*
X003133Y013369D03*
X003133Y014550D03*
X008251Y010613D03*
X009038Y011400D03*
X009629Y011400D03*
X010810Y010416D03*
X010810Y009629D03*
X011794Y008841D03*
X012582Y009038D03*
X014156Y008645D03*
X012582Y007660D03*
X011597Y007463D03*
X010810Y008251D03*
X010219Y007463D03*
X009826Y006086D03*
X010219Y005495D03*
X011007Y006086D03*
X011007Y004904D03*
X011794Y004904D03*
X012188Y005495D03*
X013172Y005101D03*
X013763Y006086D03*
X016912Y004708D03*
X017306Y006479D03*
X020849Y007660D03*
X021046Y006282D03*
X023408Y008448D03*
X024393Y007660D03*
X024589Y006479D03*
X024393Y003920D03*
X023408Y003920D03*
X028526Y007267D03*
X030101Y006479D03*
X030889Y007660D03*
X028920Y009235D03*
X030101Y011007D03*
X029511Y011597D03*
X030692Y011597D03*
X031479Y012975D03*
X028920Y012778D03*
X027149Y014944D03*
X025519Y014904D03*
X023999Y014353D03*
X023015Y013172D03*
X021834Y014353D03*
X019668Y013172D03*
X018093Y013763D03*
X016912Y015534D03*
X017503Y016125D03*
X018684Y016322D03*
X019274Y017897D03*
X021243Y018881D03*
X022424Y019668D03*
X020849Y020652D03*
X023015Y022424D03*
X026952Y021440D03*
X028723Y022227D03*
X030101Y023605D03*
X026952Y026558D03*
X025771Y026952D03*
X024196Y026755D03*
X019668Y026952D03*
X012975Y023015D03*
X013172Y022227D03*
X013960Y021637D03*
X012975Y021046D03*
X012778Y020259D03*
X011991Y020259D03*
X010219Y020259D03*
X010219Y021046D03*
X009432Y021046D03*
X010219Y021834D03*
X008645Y022424D03*
X006676Y023015D03*
X007857Y024393D03*
X008645Y024393D03*
X010023Y024589D03*
X010219Y023802D03*
X008448Y025771D03*
X008645Y018881D03*
X008645Y018290D03*
X012188Y017306D03*
X013369Y017897D03*
X014944Y018881D03*
X012975Y015928D03*
X013960Y015337D03*
X014156Y014550D03*
X013369Y012582D03*
X012582Y011400D03*
X011794Y011400D03*
X011794Y011991D03*
X013369Y011007D03*
X013763Y010219D03*
X012975Y010219D03*
X011991Y010219D03*
X014353Y011007D03*
X015534Y011007D03*
X018093Y010613D03*
X019274Y010810D03*
X020849Y010416D03*
X023015Y016912D03*
X021834Y017109D03*
X023999Y018684D03*
X026361Y018093D03*
X027542Y018093D03*
X028330Y017109D03*
X027345Y016912D03*
X029511Y018093D03*
X030692Y016125D03*
X032070Y015534D03*
X011204Y015337D03*
X008448Y014747D03*
X007463Y006086D03*
X008251Y005889D03*
D21*
X011794Y021243D03*
X011794Y021834D03*
X011794Y022424D03*
M02*
