%
M48
M72
T01C0.0236
T02C0.0256
T03C0.0276
T04C0.0315
T05C0.0354
T06C0.0374
T07C0.0402
T08C0.0531
T09C0.0625
T10C0.1440
%
T01
X2936Y4511
X5889Y8251
X7070Y10023
X7070Y10810
X9432Y9038
X9432Y8251
X10416Y7463
X11204Y7660
X12778Y7267
X11204Y6282
X10219Y6086
X9432Y6873
X8841Y6086
X8448Y4708
X8841Y4117
X9629Y3526
X10416Y3526
X10810Y4117
X11794Y3723
X12385Y4708
X9629Y4708
X10613Y8841
X11597Y8841
X12385Y8841
X11991Y9629
X11204Y10023
X10416Y10023
X10416Y10613
X11991Y11204
X12975Y9629
X14156Y9629
X16715Y9235
X17897Y9432
X19471Y9038
X22030Y7070
X23015Y6282
X23211Y5101
X23015Y2542
X22030Y2542
X19668Y4904
X19471Y6282
X15928Y5101
X15534Y3330
X18290Y11794
X16715Y12385
X15534Y14156
X16125Y14747
X17306Y14944
X17897Y16519
X19865Y17503
X21046Y18290
X22621Y17306
X20456Y15731
X21637Y15534
X24141Y13526
X22621Y12975
X21637Y11794
X20456Y12975
X24983Y16715
X26164Y16715
X26952Y15731
X25967Y15534
X28133Y16715
X29314Y14747
X30692Y14156
X30101Y11597
X29314Y10219
X28723Y9629
X28133Y10219
X27542Y11400
X25771Y13566
X27542Y7857
X29511Y6282
X28723Y5101
X27149Y5889
X12778Y13172
X12582Y13960
X11597Y14550
X10810Y15928
X11991Y16519
X12778Y17897
X13566Y17503
X12385Y18881
X11794Y18093
X10416Y18881
X9235Y18487
X7267Y16912
X6676Y17306
X6676Y19471
X6676Y20259
X5692Y20849
X5101Y22227
X8251Y20849
X9432Y21243
X10613Y21243
X9235Y22621
X13763Y21243
X13763Y20652
X13763Y20062
X19471Y19274
X19339Y22359
X22818Y25377
X24393Y25574
X25574Y25180
X28723Y22227
X27345Y20849
X25574Y20062
X18290Y25574
X9826Y13960
X1755Y13172
X1755Y11991
X1755Y10613
T02
X2664Y17719
X2822Y17719
X2822Y19628
X2664Y19628
X19339Y25219
X20127Y25219
X20914Y25219
X21702Y25219
T03
X1649Y19747
X1452Y19747
X1452Y17601
X1649Y17601
T04
X1896Y8649
X1896Y7861
X1896Y7074
X1896Y6286
X1896Y5499
T05
X14528Y22477
X15513Y22477
X15513Y23462
X15513Y24446
X14528Y24446
X14528Y23462
X28830Y3211
X29814Y3211
X30798Y3211
X31782Y3211
T06
X18160Y5952
X18160Y6952
X18160Y7952
X17160Y7952
X17160Y6952
X17160Y5952
T07
X3771Y21824
X3771Y22824
X26021Y28449
X27021Y28449
T08
X15847Y21218
X14194Y25706
T09
X6243Y14046
X5569Y14046
X4895Y14046
X4221Y14046
X3547Y14046
X2873Y14046
X2873Y13318
X2873Y12589
X2873Y11861
X2873Y11133
X2873Y10405
X2873Y9676
X3547Y9676
X4221Y9676
X4895Y9676
X5569Y9676
X6243Y9676
X6243Y10405
X6243Y11133
X6243Y11861
X6243Y12589
X6243Y13318
T10
X5521Y4074
X4511Y16322
X10521Y24574
X21271Y28524
X35021Y2199
M30
