%
M48
M72
T01C0.0236
T02C0.0256
T03C0.0276
T04C0.0354
T05C0.0374
T06C0.0402
T07C0.0433
T08C0.0472
T09C0.0531
T10C0.1520
%
T01
X7463Y6086
X8251Y5889
X9826Y6086
X10219Y5495
X11007Y6086
X11007Y4904
X11794Y4904
X12188Y5495
X13172Y5101
X13763Y6086
X12582Y7660
X11597Y7463
X10810Y8251
X11794Y8841
X12582Y9038
X14156Y8645
X13763Y10219
X12975Y10219
X13369Y11007
X12582Y11400
X11794Y11400
X11794Y11991
X13369Y12582
X14353Y11007
X15534Y11007
X18093Y10613
X19274Y10810
X20849Y10416
X23408Y8448
X24393Y7660
X24589Y6479
X24393Y3920
X23408Y3920
X21046Y6282
X20849Y7660
X17306Y6479
X16912Y4708
X10219Y7463
X10810Y9629
X10810Y10416
X11991Y10219
X9629Y11400
X9038Y11400
X8251Y10613
X3133Y10810
X3133Y11991
X3133Y13369
X3133Y14550
X8448Y14747
X11204Y15337
X12975Y15928
X13960Y15337
X14156Y14550
X16912Y15534
X17503Y16125
X18684Y16322
X19274Y17897
X21243Y18881
X22424Y19668
X20849Y20652
X23015Y22424
X26952Y21440
X28723Y22227
X30101Y23605
X26952Y26558
X25771Y26952
X24196Y26755
X19668Y26952
X12975Y23015
X13172Y22227
X13960Y21637
X12975Y21046
X12778Y20259
X11991Y20259
X11794Y21243
X11794Y21834
X11794Y22424
X10219Y21834
X10219Y21046
X9432Y21046
X10219Y20259
X8645Y18881
X8645Y18290
X12188Y17306
X13369Y17897
X14944Y18881
X8645Y22424
X6676Y23015
X7857Y24393
X8645Y24393
X10023Y24589
X10219Y23802
X8448Y25771
X21834Y17109
X23015Y16912
X23999Y18684
X26361Y18093
X27542Y18093
X28330Y17109
X27345Y16912
X29511Y18093
X30692Y16125
X32070Y15534
X31479Y12975
X30692Y11597
X30101Y11007
X29511Y11597
X28920Y12778
X27149Y14944
X25519Y14904
X23999Y14353
X23015Y13172
X21834Y14353
X19668Y13172
X18093Y13763
X28526Y7267
X30101Y6479
X30889Y7660
X28920Y9235
T02
X23375Y26597
X22391Y26597
X21406Y26597
X20422Y26597
X4200Y21006
X4042Y21006
X4042Y19097
X4200Y19097
T03
X3026Y18979
X2830Y18979
X2830Y21124
X3026Y21124
T04
X15906Y23855
X16891Y23855
X16891Y24840
X16891Y25824
X15906Y25824
X15906Y24840
T05
X18538Y9330
X19538Y9330
X19538Y8330
X18538Y8330
X18538Y7330
X19538Y7330
T06
X5149Y23202
X5149Y24202
X27399Y29827
X28399Y29827
T07
X30208Y4589
X31192Y4589
X32176Y4589
X33160Y4589
T08
X5219Y5790
X5219Y6774
X5219Y7759
X5219Y8743
X5219Y9727
X3251Y9727
X3251Y8743
X3251Y7759
X3251Y6774
X3251Y5790
T09
X17225Y22596
X15572Y27084
T10
X6899Y3952
X5889Y17700
X11899Y25952
X22649Y29902
X36399Y3577
M30
