G75*
%MOIN*%
%OFA0B0*%
%FSLAX24Y24*%
%IPPOS*%
%LPD*%
%AMOC8*
5,1,8,0,0,1.08239X$1,22.5*
%
%ADD10OC8,0.0610*%
%ADD11C,0.0400*%
%ADD12R,0.0394X0.0394*%
%ADD13R,0.0394X0.0433*%
%ADD14C,0.0087*%
%ADD15C,0.0190*%
%ADD16C,0.0142*%
%ADD17C,0.0394*%
%ADD18R,0.0315X0.1378*%
%ADD19R,0.1378X0.0315*%
%ADD20R,0.0396X0.0396*%
%ADD21R,0.0984X0.0561*%
%ADD22R,0.0965X0.0512*%
%ADD23R,0.0276X0.0719*%
%ADD24R,0.0575X0.0787*%
%ADD25R,0.0689X0.0157*%
%ADD26R,0.2100X0.0760*%
%ADD27R,0.0394X0.0098*%
%ADD28R,0.0354X0.1024*%
%ADD29R,0.0472X0.0315*%
%ADD30R,0.0433X0.0394*%
%ADD31R,0.0787X0.0472*%
%ADD32R,0.0098X0.0394*%
%ADD33R,0.1024X0.0354*%
%ADD34R,0.0315X0.0472*%
%ADD35R,0.0472X0.0787*%
%ADD36R,0.0394X0.1811*%
%ADD37R,0.0630X0.1339*%
%ADD38R,0.0650X0.0650*%
%ADD39R,0.0602X0.0602*%
%ADD40R,0.0472X0.0217*%
%ADD41R,0.1181X0.0472*%
%ADD42R,0.0394X0.0394*%
%ADD43R,0.0394X0.0472*%
%ADD44R,0.0472X0.0394*%
%ADD45R,0.0394X0.0551*%
%ADD46R,0.1091X0.1004*%
%ADD47R,0.0472X0.0669*%
%ADD48R,0.0197X0.0394*%
%ADD49R,0.0531X0.0531*%
%ADD50R,0.0797X0.0797*%
%ADD51R,0.0551X0.0087*%
%ADD52R,0.0650X0.0984*%
%ADD53R,0.0630X0.0709*%
%ADD54R,0.0354X0.0276*%
%ADD55R,0.0709X0.0709*%
%ADD56C,0.0079*%
%ADD57C,0.0157*%
%ADD58R,0.0376X0.0376*%
%ADD59C,0.0315*%
%ADD60C,0.0118*%
%ADD61C,0.0126*%
%ADD62C,0.0160*%
%ADD63C,0.0236*%
%ADD64C,0.0376*%
D10*
X018538Y007330D03*
X018538Y008330D03*
X018538Y009330D03*
X019538Y009330D03*
X019538Y008330D03*
X019538Y007330D03*
D11*
X003298Y016920D03*
X030259Y027400D03*
X036503Y007747D03*
D12*
X013960Y015928D03*
X013960Y016715D03*
X013960Y017503D03*
X013960Y018290D03*
X006873Y007857D03*
X006086Y007857D03*
X006086Y007070D03*
X006873Y007070D03*
X006873Y006282D03*
X006086Y006282D03*
D13*
X008054Y009294D03*
X008054Y009963D03*
X013172Y006420D03*
X013172Y005751D03*
X014353Y006341D03*
X014353Y007011D03*
X013369Y008310D03*
X013369Y008979D03*
X012928Y003436D03*
X012928Y002767D03*
X021952Y006735D03*
X021952Y007404D03*
X023763Y007601D03*
X023763Y006932D03*
X029904Y009097D03*
X029904Y009767D03*
X028133Y013231D03*
X028133Y013900D03*
X029511Y013822D03*
X029511Y014491D03*
X023093Y014491D03*
X023093Y013822D03*
X020652Y012916D03*
X020652Y012247D03*
X014747Y015987D03*
X014747Y016656D03*
X014747Y017562D03*
X014747Y018231D03*
X013566Y020318D03*
X013566Y020987D03*
X014550Y020711D03*
X014550Y021381D03*
X014156Y024255D03*
X014156Y024924D03*
X008645Y023743D03*
X008645Y023074D03*
X007070Y024255D03*
X007070Y024924D03*
X022621Y023940D03*
X022621Y023271D03*
X023408Y021578D03*
X023408Y020908D03*
X025377Y025633D03*
X025377Y026302D03*
X025967Y029176D03*
X025967Y029845D03*
D14*
X025960Y012396D02*
X025960Y012188D01*
X025960Y012396D02*
X025982Y012396D01*
X025982Y012188D01*
X025960Y012188D01*
X025960Y012274D02*
X025982Y012274D01*
X025982Y012360D02*
X025960Y012360D01*
X025763Y012396D02*
X025763Y012188D01*
X025763Y012396D02*
X025785Y012396D01*
X025785Y012188D01*
X025763Y012188D01*
X025763Y012274D02*
X025785Y012274D01*
X025785Y012360D02*
X025763Y012360D01*
X025567Y012396D02*
X025567Y012188D01*
X025567Y012396D02*
X025589Y012396D01*
X025589Y012188D01*
X025567Y012188D01*
X025567Y012274D02*
X025589Y012274D01*
X025589Y012360D02*
X025567Y012360D01*
X025370Y012396D02*
X025370Y012188D01*
X025370Y012396D02*
X025392Y012396D01*
X025392Y012188D01*
X025370Y012188D01*
X025370Y012274D02*
X025392Y012274D01*
X025392Y012360D02*
X025370Y012360D01*
X025173Y012396D02*
X025173Y012188D01*
X025173Y012396D02*
X025195Y012396D01*
X025195Y012188D01*
X025173Y012188D01*
X025173Y012274D02*
X025195Y012274D01*
X025195Y012360D02*
X025173Y012360D01*
X024976Y012396D02*
X024976Y012188D01*
X024976Y012396D02*
X024998Y012396D01*
X024998Y012188D01*
X024976Y012188D01*
X024976Y012274D02*
X024998Y012274D01*
X024998Y012360D02*
X024976Y012360D01*
X024779Y012396D02*
X024779Y012188D01*
X024779Y012396D02*
X024801Y012396D01*
X024801Y012188D01*
X024779Y012188D01*
X024779Y012274D02*
X024801Y012274D01*
X024801Y012360D02*
X024779Y012360D01*
X024589Y011976D02*
X024381Y011976D01*
X024381Y011998D01*
X024589Y011998D01*
X024589Y011976D01*
X024589Y011779D02*
X024381Y011779D01*
X024381Y011801D01*
X024589Y011801D01*
X024589Y011779D01*
X024589Y011582D02*
X024381Y011582D01*
X024381Y011604D01*
X024589Y011604D01*
X024589Y011582D01*
X024589Y011386D02*
X024381Y011386D01*
X024381Y011408D01*
X024589Y011408D01*
X024589Y011386D01*
X024589Y011189D02*
X024381Y011189D01*
X024381Y011211D01*
X024589Y011211D01*
X024589Y011189D01*
X024589Y010992D02*
X024381Y010992D01*
X024381Y011014D01*
X024589Y011014D01*
X024589Y010992D01*
X024589Y010795D02*
X024381Y010795D01*
X024381Y010817D01*
X024589Y010817D01*
X024589Y010795D01*
X024589Y010598D02*
X024381Y010598D01*
X024381Y010620D01*
X024589Y010620D01*
X024589Y010598D01*
X024589Y010401D02*
X024381Y010401D01*
X024381Y010423D01*
X024589Y010423D01*
X024589Y010401D01*
X024589Y010204D02*
X024381Y010204D01*
X024381Y010226D01*
X024589Y010226D01*
X024589Y010204D01*
X024589Y010008D02*
X024381Y010008D01*
X024381Y010030D01*
X024589Y010030D01*
X024589Y010008D01*
X024801Y009817D02*
X024801Y009609D01*
X024779Y009609D01*
X024779Y009817D01*
X024801Y009817D01*
X024801Y009695D02*
X024779Y009695D01*
X024779Y009781D02*
X024801Y009781D01*
X024998Y009817D02*
X024998Y009609D01*
X024976Y009609D01*
X024976Y009817D01*
X024998Y009817D01*
X024998Y009695D02*
X024976Y009695D01*
X024976Y009781D02*
X024998Y009781D01*
X025195Y009817D02*
X025195Y009609D01*
X025173Y009609D01*
X025173Y009817D01*
X025195Y009817D01*
X025195Y009695D02*
X025173Y009695D01*
X025173Y009781D02*
X025195Y009781D01*
X025392Y009817D02*
X025392Y009609D01*
X025370Y009609D01*
X025370Y009817D01*
X025392Y009817D01*
X025392Y009695D02*
X025370Y009695D01*
X025370Y009781D02*
X025392Y009781D01*
X025589Y009817D02*
X025589Y009609D01*
X025567Y009609D01*
X025567Y009817D01*
X025589Y009817D01*
X025589Y009695D02*
X025567Y009695D01*
X025567Y009781D02*
X025589Y009781D01*
X025785Y009817D02*
X025785Y009609D01*
X025763Y009609D01*
X025763Y009817D01*
X025785Y009817D01*
X025785Y009695D02*
X025763Y009695D01*
X025763Y009781D02*
X025785Y009781D01*
X025982Y009817D02*
X025982Y009609D01*
X025960Y009609D01*
X025960Y009817D01*
X025982Y009817D01*
X025982Y009695D02*
X025960Y009695D01*
X025960Y009781D02*
X025982Y009781D01*
X026179Y009817D02*
X026179Y009609D01*
X026157Y009609D01*
X026157Y009817D01*
X026179Y009817D01*
X026179Y009695D02*
X026157Y009695D01*
X026157Y009781D02*
X026179Y009781D01*
X026376Y009817D02*
X026376Y009609D01*
X026354Y009609D01*
X026354Y009817D01*
X026376Y009817D01*
X026376Y009695D02*
X026354Y009695D01*
X026354Y009781D02*
X026376Y009781D01*
X026573Y009817D02*
X026573Y009609D01*
X026551Y009609D01*
X026551Y009817D01*
X026573Y009817D01*
X026573Y009695D02*
X026551Y009695D01*
X026551Y009781D02*
X026573Y009781D01*
X026770Y009817D02*
X026770Y009609D01*
X026748Y009609D01*
X026748Y009817D01*
X026770Y009817D01*
X026770Y009695D02*
X026748Y009695D01*
X026748Y009781D02*
X026770Y009781D01*
X026960Y010030D02*
X027168Y010030D01*
X027168Y010008D01*
X026960Y010008D01*
X026960Y010030D01*
X026960Y010226D02*
X027168Y010226D01*
X027168Y010204D01*
X026960Y010204D01*
X026960Y010226D01*
X026960Y010423D02*
X027168Y010423D01*
X027168Y010401D01*
X026960Y010401D01*
X026960Y010423D01*
X026960Y010620D02*
X027168Y010620D01*
X027168Y010598D01*
X026960Y010598D01*
X026960Y010620D01*
X026960Y010817D02*
X027168Y010817D01*
X027168Y010795D01*
X026960Y010795D01*
X026960Y010817D01*
X026960Y011014D02*
X027168Y011014D01*
X027168Y010992D01*
X026960Y010992D01*
X026960Y011014D01*
X026960Y011211D02*
X027168Y011211D01*
X027168Y011189D01*
X026960Y011189D01*
X026960Y011211D01*
X026960Y011408D02*
X027168Y011408D01*
X027168Y011386D01*
X026960Y011386D01*
X026960Y011408D01*
X026960Y011604D02*
X027168Y011604D01*
X027168Y011582D01*
X026960Y011582D01*
X026960Y011604D01*
X026960Y011801D02*
X027168Y011801D01*
X027168Y011779D01*
X026960Y011779D01*
X026960Y011801D01*
X026960Y011998D02*
X027168Y011998D01*
X027168Y011976D01*
X026960Y011976D01*
X026960Y011998D01*
X026748Y012188D02*
X026748Y012396D01*
X026770Y012396D01*
X026770Y012188D01*
X026748Y012188D01*
X026748Y012274D02*
X026770Y012274D01*
X026770Y012360D02*
X026748Y012360D01*
X026551Y012396D02*
X026551Y012188D01*
X026551Y012396D02*
X026573Y012396D01*
X026573Y012188D01*
X026551Y012188D01*
X026551Y012274D02*
X026573Y012274D01*
X026573Y012360D02*
X026551Y012360D01*
X026354Y012396D02*
X026354Y012188D01*
X026354Y012396D02*
X026376Y012396D01*
X026376Y012188D01*
X026354Y012188D01*
X026354Y012274D02*
X026376Y012274D01*
X026376Y012360D02*
X026354Y012360D01*
X026157Y012396D02*
X026157Y012188D01*
X026157Y012396D02*
X026179Y012396D01*
X026179Y012188D01*
X026157Y012188D01*
X026157Y012274D02*
X026179Y012274D01*
X026179Y012360D02*
X026157Y012360D01*
D15*
X026629Y010148D02*
X024919Y010148D01*
X024919Y011858D01*
X026629Y011858D01*
X026629Y010148D01*
X026629Y010337D02*
X024919Y010337D01*
X024919Y010526D02*
X026629Y010526D01*
X026629Y010715D02*
X024919Y010715D01*
X024919Y010904D02*
X026629Y010904D01*
X026629Y011093D02*
X024919Y011093D01*
X024919Y011282D02*
X026629Y011282D01*
X026629Y011471D02*
X024919Y011471D01*
X024919Y011660D02*
X026629Y011660D01*
X026629Y011849D02*
X024919Y011849D01*
D16*
X023695Y011931D02*
X023287Y011931D01*
X023287Y011965D01*
X023695Y011965D01*
X023695Y011931D01*
X023695Y011616D02*
X023287Y011616D01*
X023287Y011650D01*
X023695Y011650D01*
X023695Y011616D01*
X023695Y011301D02*
X023287Y011301D01*
X023287Y011335D01*
X023695Y011335D01*
X023695Y011301D01*
X023695Y010986D02*
X023287Y010986D01*
X023287Y011020D01*
X023695Y011020D01*
X023695Y010986D01*
X023695Y010671D02*
X023287Y010671D01*
X023287Y010705D01*
X023695Y010705D01*
X023695Y010671D01*
X023695Y010356D02*
X023287Y010356D01*
X023287Y010390D01*
X023695Y010390D01*
X023695Y010356D01*
X023695Y010041D02*
X023287Y010041D01*
X023287Y010075D01*
X023695Y010075D01*
X023695Y010041D01*
X023695Y009726D02*
X023287Y009726D01*
X023287Y009760D01*
X023695Y009760D01*
X023695Y009726D01*
X023695Y009411D02*
X023287Y009411D01*
X023287Y009445D01*
X023695Y009445D01*
X023695Y009411D01*
X024183Y008515D02*
X024217Y008515D01*
X024183Y008515D02*
X024183Y008923D01*
X024217Y008923D01*
X024217Y008515D01*
X024217Y008656D02*
X024183Y008656D01*
X024183Y008797D02*
X024217Y008797D01*
X024498Y008515D02*
X024532Y008515D01*
X024498Y008515D02*
X024498Y008923D01*
X024532Y008923D01*
X024532Y008515D01*
X024532Y008656D02*
X024498Y008656D01*
X024498Y008797D02*
X024532Y008797D01*
X024813Y008515D02*
X024847Y008515D01*
X024813Y008515D02*
X024813Y008923D01*
X024847Y008923D01*
X024847Y008515D01*
X024847Y008656D02*
X024813Y008656D01*
X024813Y008797D02*
X024847Y008797D01*
X025128Y008515D02*
X025162Y008515D01*
X025128Y008515D02*
X025128Y008923D01*
X025162Y008923D01*
X025162Y008515D01*
X025162Y008656D02*
X025128Y008656D01*
X025128Y008797D02*
X025162Y008797D01*
X025443Y008515D02*
X025477Y008515D01*
X025443Y008515D02*
X025443Y008923D01*
X025477Y008923D01*
X025477Y008515D01*
X025477Y008656D02*
X025443Y008656D01*
X025443Y008797D02*
X025477Y008797D01*
X025757Y008515D02*
X025791Y008515D01*
X025757Y008515D02*
X025757Y008923D01*
X025791Y008923D01*
X025791Y008515D01*
X025791Y008656D02*
X025757Y008656D01*
X025757Y008797D02*
X025791Y008797D01*
X026072Y008515D02*
X026106Y008515D01*
X026072Y008515D02*
X026072Y008923D01*
X026106Y008923D01*
X026106Y008515D01*
X026106Y008656D02*
X026072Y008656D01*
X026072Y008797D02*
X026106Y008797D01*
X026387Y008515D02*
X026421Y008515D01*
X026387Y008515D02*
X026387Y008923D01*
X026421Y008923D01*
X026421Y008515D01*
X026421Y008656D02*
X026387Y008656D01*
X026387Y008797D02*
X026421Y008797D01*
X026702Y008515D02*
X026736Y008515D01*
X026702Y008515D02*
X026702Y008923D01*
X026736Y008923D01*
X026736Y008515D01*
X026736Y008656D02*
X026702Y008656D01*
X026702Y008797D02*
X026736Y008797D01*
X027017Y008515D02*
X027051Y008515D01*
X027017Y008515D02*
X027017Y008923D01*
X027051Y008923D01*
X027051Y008515D01*
X027051Y008656D02*
X027017Y008656D01*
X027017Y008797D02*
X027051Y008797D01*
X027332Y008515D02*
X027366Y008515D01*
X027332Y008515D02*
X027332Y008923D01*
X027366Y008923D01*
X027366Y008515D01*
X027366Y008656D02*
X027332Y008656D01*
X027332Y008797D02*
X027366Y008797D01*
X027854Y009411D02*
X028262Y009411D01*
X027854Y009411D02*
X027854Y009445D01*
X028262Y009445D01*
X028262Y009411D01*
X028262Y009726D02*
X027854Y009726D01*
X027854Y009760D01*
X028262Y009760D01*
X028262Y009726D01*
X028262Y010041D02*
X027854Y010041D01*
X027854Y010075D01*
X028262Y010075D01*
X028262Y010041D01*
X028262Y010356D02*
X027854Y010356D01*
X027854Y010390D01*
X028262Y010390D01*
X028262Y010356D01*
X028262Y010671D02*
X027854Y010671D01*
X027854Y010705D01*
X028262Y010705D01*
X028262Y010671D01*
X028262Y010986D02*
X027854Y010986D01*
X027854Y011020D01*
X028262Y011020D01*
X028262Y010986D01*
X028262Y011301D02*
X027854Y011301D01*
X027854Y011335D01*
X028262Y011335D01*
X028262Y011301D01*
X028262Y011616D02*
X027854Y011616D01*
X027854Y011650D01*
X028262Y011650D01*
X028262Y011616D01*
X028262Y011931D02*
X027854Y011931D01*
X027854Y011965D01*
X028262Y011965D01*
X028262Y011931D01*
X028262Y012246D02*
X027854Y012246D01*
X027854Y012280D01*
X028262Y012280D01*
X028262Y012246D01*
X028262Y012561D02*
X027854Y012561D01*
X027854Y012595D01*
X028262Y012595D01*
X028262Y012561D01*
X027366Y013082D02*
X027332Y013082D01*
X027332Y013490D01*
X027366Y013490D01*
X027366Y013082D01*
X027366Y013223D02*
X027332Y013223D01*
X027332Y013364D02*
X027366Y013364D01*
X027051Y013082D02*
X027017Y013082D01*
X027017Y013490D01*
X027051Y013490D01*
X027051Y013082D01*
X027051Y013223D02*
X027017Y013223D01*
X027017Y013364D02*
X027051Y013364D01*
X026736Y013082D02*
X026702Y013082D01*
X026702Y013490D01*
X026736Y013490D01*
X026736Y013082D01*
X026736Y013223D02*
X026702Y013223D01*
X026702Y013364D02*
X026736Y013364D01*
X026421Y013082D02*
X026387Y013082D01*
X026387Y013490D01*
X026421Y013490D01*
X026421Y013082D01*
X026421Y013223D02*
X026387Y013223D01*
X026387Y013364D02*
X026421Y013364D01*
X026106Y013082D02*
X026072Y013082D01*
X026072Y013490D01*
X026106Y013490D01*
X026106Y013082D01*
X026106Y013223D02*
X026072Y013223D01*
X026072Y013364D02*
X026106Y013364D01*
X025791Y013082D02*
X025757Y013082D01*
X025757Y013490D01*
X025791Y013490D01*
X025791Y013082D01*
X025791Y013223D02*
X025757Y013223D01*
X025757Y013364D02*
X025791Y013364D01*
X025477Y013082D02*
X025443Y013082D01*
X025443Y013490D01*
X025477Y013490D01*
X025477Y013082D01*
X025477Y013223D02*
X025443Y013223D01*
X025443Y013364D02*
X025477Y013364D01*
X025162Y013082D02*
X025128Y013082D01*
X025128Y013490D01*
X025162Y013490D01*
X025162Y013082D01*
X025162Y013223D02*
X025128Y013223D01*
X025128Y013364D02*
X025162Y013364D01*
X024847Y013082D02*
X024813Y013082D01*
X024813Y013490D01*
X024847Y013490D01*
X024847Y013082D01*
X024847Y013223D02*
X024813Y013223D01*
X024813Y013364D02*
X024847Y013364D01*
X024532Y013082D02*
X024498Y013082D01*
X024498Y013490D01*
X024532Y013490D01*
X024532Y013082D01*
X024532Y013223D02*
X024498Y013223D01*
X024498Y013364D02*
X024532Y013364D01*
X024217Y013082D02*
X024183Y013082D01*
X024183Y013490D01*
X024217Y013490D01*
X024217Y013082D01*
X024217Y013223D02*
X024183Y013223D01*
X024183Y013364D02*
X024217Y013364D01*
X023695Y012561D02*
X023287Y012561D01*
X023287Y012595D01*
X023695Y012595D01*
X023695Y012561D01*
X023695Y012246D02*
X023287Y012246D01*
X023287Y012280D01*
X023695Y012280D01*
X023695Y012246D01*
D17*
X025774Y011003D03*
D18*
X026492Y019556D03*
X026964Y019556D03*
X027437Y019556D03*
X027909Y019556D03*
X028382Y019556D03*
X028854Y019556D03*
X029327Y019556D03*
X029799Y019556D03*
X030272Y019556D03*
X030744Y019556D03*
X031216Y019556D03*
X031689Y019556D03*
X032161Y019556D03*
X032161Y025068D03*
X031689Y025068D03*
X031216Y025068D03*
X030744Y025068D03*
X030272Y025068D03*
X029799Y025068D03*
X029327Y025068D03*
X028854Y025068D03*
X028382Y025068D03*
X027909Y025068D03*
X027437Y025068D03*
X026964Y025068D03*
X026492Y025068D03*
D19*
X025272Y023454D03*
X025272Y022981D03*
X025272Y022509D03*
X025272Y022036D03*
X025272Y021564D03*
X025272Y021091D03*
D20*
X023375Y026597D03*
X022391Y026597D03*
X021406Y026597D03*
X020422Y026597D03*
D21*
X002830Y020431D03*
X002830Y019673D03*
D22*
X002977Y018979D03*
X002977Y021124D03*
D23*
X003597Y021228D03*
X003597Y018875D03*
D24*
X004121Y018910D03*
X004121Y021193D03*
D25*
X004040Y020563D03*
X004040Y020308D03*
X004040Y020052D03*
X004040Y019796D03*
X004040Y019540D03*
D26*
X023674Y005495D03*
X027474Y005495D03*
D27*
X011341Y009629D03*
X011341Y009826D03*
X011341Y010023D03*
X011341Y010219D03*
X011341Y010416D03*
X010278Y010416D03*
X010278Y010219D03*
X010278Y010023D03*
X010278Y009826D03*
X010278Y009629D03*
D28*
X010810Y010023D03*
D29*
X010219Y008999D03*
X010219Y008290D03*
X010219Y004865D03*
X010219Y004156D03*
X009432Y004156D03*
X009432Y004865D03*
X012385Y022267D03*
X012385Y022975D03*
X013763Y022857D03*
X013763Y023566D03*
D30*
X008586Y024983D03*
X007916Y024983D03*
X021893Y017897D03*
X022562Y017897D03*
X024845Y014353D03*
X025515Y014353D03*
X022168Y011007D03*
X021499Y011007D03*
X025239Y007936D03*
X025908Y007936D03*
X026026Y007070D03*
X026696Y007070D03*
X025121Y007070D03*
X024452Y007070D03*
X033310Y006282D03*
X033979Y006282D03*
X015082Y009393D03*
X014412Y009393D03*
X014412Y010219D03*
X015082Y010219D03*
X012719Y012582D03*
X012050Y012582D03*
X013428Y013763D03*
X014097Y013763D03*
X009176Y008448D03*
X008507Y008448D03*
G36*
X008353Y006978D02*
X008658Y007283D01*
X008937Y007004D01*
X008632Y006699D01*
X008353Y006978D01*
G37*
G36*
X007880Y006505D02*
X008185Y006810D01*
X008464Y006531D01*
X008159Y006226D01*
X007880Y006505D01*
G37*
X010278Y006676D03*
X010948Y006676D03*
D31*
X009235Y009393D03*
X009235Y010652D03*
D32*
X011007Y005436D03*
X011204Y005436D03*
X011400Y005436D03*
X011597Y005436D03*
X011794Y005436D03*
X011794Y004373D03*
X011597Y004373D03*
X011400Y004373D03*
X011204Y004373D03*
X011007Y004373D03*
D33*
X011400Y004904D03*
D34*
X012227Y004314D03*
X012936Y004314D03*
X010967Y011007D03*
X010259Y011007D03*
X010259Y011597D03*
X010967Y011597D03*
D35*
X010771Y003330D03*
X012030Y003330D03*
D36*
X011204Y013881D03*
X010416Y013881D03*
D37*
X009471Y015928D03*
X012149Y015928D03*
D38*
X030208Y004589D03*
X031192Y004589D03*
X032176Y004589D03*
X033160Y004589D03*
D39*
X005149Y023202D03*
X005149Y024202D03*
X027399Y029827D03*
X028399Y029827D03*
D40*
X024151Y020112D03*
X023127Y020112D03*
X023127Y019738D03*
X023127Y019364D03*
X024151Y019364D03*
X023847Y017610D03*
X023847Y016862D03*
X024871Y016862D03*
X024871Y017236D03*
X024871Y017610D03*
D41*
X020997Y005633D03*
X020997Y004176D03*
X019127Y004176D03*
X019127Y005633D03*
D42*
G36*
X007897Y007545D02*
X008175Y007823D01*
X008453Y007545D01*
X008175Y007267D01*
X007897Y007545D01*
G37*
G36*
X007340Y006988D02*
X007618Y007266D01*
X007896Y006988D01*
X007618Y006710D01*
X007340Y006988D01*
G37*
D43*
X008448Y016873D03*
X008448Y017739D03*
X005298Y020810D03*
X005298Y021676D03*
D44*
X006243Y009826D03*
X007109Y009826D03*
X030849Y009826D03*
X031715Y009826D03*
D45*
X015908Y007109D03*
X015160Y007109D03*
X015534Y006243D03*
D46*
X016629Y020456D03*
X019164Y020456D03*
D47*
X015377Y004117D03*
X014511Y004117D03*
D48*
X014786Y004885D03*
X015101Y004885D03*
D49*
X015906Y023855D03*
X016891Y023855D03*
X016891Y024840D03*
X016891Y025824D03*
X015906Y025824D03*
X015906Y024840D03*
D50*
X015572Y027084D03*
X017225Y022596D03*
D51*
X010889Y022660D03*
X010889Y022503D03*
X010889Y022345D03*
X010889Y022818D03*
X010889Y022975D03*
X010889Y023133D03*
X010889Y023290D03*
X009550Y023290D03*
X009550Y023133D03*
X009550Y022975D03*
X009550Y022818D03*
X009550Y022660D03*
X009550Y022503D03*
X009550Y022345D03*
D52*
X010219Y022818D03*
D53*
X007424Y021243D03*
X006322Y021243D03*
D54*
X014550Y022168D03*
X014550Y022680D03*
D55*
X005219Y009727D03*
X005219Y008743D03*
X005219Y007759D03*
X005219Y006774D03*
X005219Y005790D03*
X003251Y005790D03*
X003251Y006774D03*
X003251Y007759D03*
X003251Y008743D03*
X003251Y009727D03*
D56*
X009353Y005660D02*
X010800Y005660D01*
X010800Y005174D01*
X010892Y005082D01*
X011121Y005082D01*
X011204Y005164D01*
X011286Y005082D01*
X011909Y005082D01*
X012001Y005174D01*
X012001Y005267D01*
X012101Y005267D01*
X012101Y004708D01*
X012005Y004708D01*
X011966Y004669D01*
X011909Y004727D01*
X011483Y004727D01*
X011400Y004645D01*
X011318Y004727D01*
X010892Y004727D01*
X010800Y004635D01*
X010800Y004479D01*
X009345Y004479D01*
X009345Y005610D01*
X009353Y005629D01*
X009353Y005660D01*
X009353Y005659D02*
X010800Y005659D01*
X010800Y005582D02*
X009345Y005582D01*
X009345Y005505D02*
X010800Y005505D01*
X010800Y005427D02*
X009345Y005427D01*
X009345Y005350D02*
X010800Y005350D01*
X010800Y005273D02*
X009345Y005273D01*
X009345Y005196D02*
X010800Y005196D01*
X010855Y005119D02*
X009345Y005119D01*
X009345Y005041D02*
X012101Y005041D01*
X012101Y004964D02*
X009345Y004964D01*
X009345Y004887D02*
X012101Y004887D01*
X012101Y004810D02*
X009345Y004810D01*
X009345Y004732D02*
X012101Y004732D01*
X012101Y005119D02*
X011946Y005119D01*
X012001Y005196D02*
X012101Y005196D01*
X011400Y004904D02*
X011204Y005101D01*
X011204Y005436D01*
X011007Y005436D02*
X011007Y006086D01*
X011304Y006479D02*
X011304Y006637D01*
X010987Y006637D01*
X010987Y006715D01*
X011304Y006715D01*
X011304Y006891D01*
X011294Y006927D01*
X011276Y006958D01*
X011250Y006984D01*
X011218Y007003D01*
X011183Y007012D01*
X010987Y007012D01*
X010987Y006715D01*
X010908Y006715D01*
X010908Y007012D01*
X010810Y007012D01*
X010810Y007070D01*
X011400Y007070D01*
X011400Y006479D01*
X011304Y006479D01*
X011304Y006509D02*
X011400Y006509D01*
X011400Y006586D02*
X011304Y006586D01*
X011400Y006663D02*
X010987Y006663D01*
X010987Y006741D02*
X010908Y006741D01*
X010908Y006818D02*
X010987Y006818D01*
X010987Y006895D02*
X010908Y006895D01*
X010908Y006972D02*
X010987Y006972D01*
X010810Y007050D02*
X011400Y007050D01*
X011400Y006972D02*
X011262Y006972D01*
X011303Y006895D02*
X011400Y006895D01*
X011400Y006818D02*
X011304Y006818D01*
X011304Y006741D02*
X011400Y006741D01*
X011249Y005119D02*
X011158Y005119D01*
X011400Y004904D02*
X011400Y004373D01*
X011390Y004655D02*
X011411Y004655D01*
X010987Y004282D02*
X010987Y003881D01*
X010469Y003881D01*
X010377Y003789D01*
X010377Y003692D01*
X008952Y003692D01*
X008952Y004479D01*
X009149Y004479D01*
X009149Y004398D01*
X009264Y004282D01*
X010987Y004282D01*
X010987Y004269D02*
X008952Y004269D01*
X008952Y004346D02*
X009200Y004346D01*
X009149Y004423D02*
X008952Y004423D01*
X008952Y004192D02*
X010987Y004192D01*
X010987Y004114D02*
X008952Y004114D01*
X008952Y004037D02*
X010987Y004037D01*
X010987Y003960D02*
X008952Y003960D01*
X008952Y003883D02*
X010987Y003883D01*
X010394Y003805D02*
X008952Y003805D01*
X008952Y003728D02*
X010377Y003728D01*
X010800Y004501D02*
X009345Y004501D01*
X009345Y004578D02*
X010800Y004578D01*
X010820Y004655D02*
X009345Y004655D01*
X014353Y006341D02*
X014452Y006243D01*
X010259Y009038D02*
X010219Y008999D01*
X010278Y010023D02*
X010810Y010023D01*
X011007Y010219D01*
X011341Y010219D01*
X010278Y010416D02*
X010259Y010436D01*
X010259Y011007D01*
X013763Y010219D02*
X014412Y010219D01*
X019538Y009330D02*
X019566Y009330D01*
X019668Y009432D01*
X022168Y011007D02*
X022172Y011003D01*
X023491Y011003D01*
X024485Y011003D01*
X024485Y011200D02*
X023885Y011200D01*
X023763Y011322D01*
X023495Y011322D01*
X023491Y011318D01*
X023491Y011633D02*
X023495Y011637D01*
X023763Y011637D01*
X024003Y011397D01*
X024485Y011397D01*
X024485Y011593D02*
X024121Y011593D01*
X023763Y011952D01*
X023495Y011952D01*
X023491Y011948D01*
X023491Y012263D02*
X023495Y012267D01*
X023763Y012267D01*
X024239Y011790D01*
X024485Y011790D01*
X024485Y011987D02*
X024475Y011987D01*
X023881Y012582D01*
X023495Y012582D01*
X023491Y012578D01*
X024196Y012897D02*
X024196Y013282D01*
X024200Y013286D01*
X024511Y013282D02*
X024511Y013015D01*
X024987Y012538D01*
X024987Y012292D01*
X024987Y011790D01*
X025774Y011003D01*
X026562Y011790D01*
X026562Y012292D01*
X026562Y012546D01*
X027030Y013015D01*
X027030Y013219D01*
X027034Y013223D01*
X027034Y013286D01*
X027030Y013282D02*
X027030Y013219D01*
X026719Y013286D02*
X026715Y013282D01*
X026715Y013015D01*
X026365Y012664D01*
X026365Y012292D01*
X026168Y012292D02*
X026168Y012782D01*
X026400Y013015D01*
X026400Y013282D01*
X026404Y013286D01*
X026089Y013286D02*
X026086Y013282D01*
X026086Y013015D01*
X025971Y012900D01*
X025971Y012292D01*
X025774Y012292D02*
X025774Y013286D01*
X025460Y013286D02*
X025456Y013282D01*
X025456Y013015D01*
X025578Y012893D01*
X025578Y012292D01*
X025381Y012292D02*
X025381Y012774D01*
X025141Y013015D01*
X025141Y013282D01*
X025145Y013286D01*
X024830Y013286D02*
X024826Y013282D01*
X024826Y013015D01*
X025184Y012656D01*
X025184Y012292D01*
X024790Y012292D02*
X024790Y012302D01*
X024196Y012897D01*
X024511Y013282D02*
X024515Y013286D01*
X026759Y012310D02*
X026759Y012292D01*
X027064Y011987D02*
X027066Y011987D01*
X027660Y012582D01*
X028054Y012582D01*
X028058Y012578D01*
X028054Y012267D02*
X028058Y012263D01*
X028054Y012267D02*
X027778Y012267D01*
X027302Y011790D01*
X027064Y011790D01*
X027064Y011593D02*
X027420Y011593D01*
X027778Y011952D01*
X028054Y011952D01*
X028058Y011948D01*
X028054Y011637D02*
X027778Y011637D01*
X027538Y011397D01*
X027064Y011397D01*
X027064Y011200D02*
X027656Y011200D01*
X027778Y011322D01*
X028054Y011322D01*
X028058Y011318D01*
X028058Y011633D02*
X028054Y011637D01*
X028058Y011003D02*
X027064Y011003D01*
X027064Y010806D02*
X027664Y010806D01*
X027778Y010692D01*
X028054Y010692D01*
X028058Y010688D01*
X028054Y010377D02*
X027778Y010377D01*
X027546Y010609D01*
X027064Y010609D01*
X027064Y010412D02*
X027428Y010412D01*
X027778Y010062D01*
X028054Y010062D01*
X028058Y010058D01*
X028054Y009747D02*
X027778Y009747D01*
X027310Y010215D01*
X027064Y010215D01*
X027064Y010019D02*
X027074Y010019D01*
X027660Y009432D01*
X028054Y009432D01*
X028058Y009428D01*
X028058Y009743D02*
X028054Y009747D01*
X028058Y010373D02*
X028054Y010377D01*
X027345Y009117D02*
X026759Y009704D01*
X026759Y009713D01*
X026562Y009713D02*
X026562Y009467D01*
X027030Y008999D01*
X027030Y008723D01*
X027034Y008719D01*
X027345Y008723D02*
X027349Y008719D01*
X027345Y008723D02*
X027345Y009117D01*
X026715Y008999D02*
X026715Y008723D01*
X026719Y008719D01*
X026715Y008999D02*
X026365Y009349D01*
X026365Y009713D01*
X026168Y009713D02*
X026168Y009231D01*
X026400Y008999D01*
X026400Y008723D01*
X026404Y008719D01*
X026089Y008719D02*
X026086Y008723D01*
X026086Y008999D01*
X025971Y009113D01*
X025971Y009713D01*
X025774Y009713D02*
X025774Y008719D01*
X025460Y008719D02*
X025456Y008723D01*
X025456Y008999D01*
X025578Y009121D01*
X025578Y009713D01*
X025381Y009713D02*
X025381Y010609D01*
X025774Y011003D01*
X024485Y010806D02*
X023877Y010806D01*
X023763Y010692D01*
X023495Y010692D01*
X023491Y010688D01*
X023495Y010377D02*
X023491Y010373D01*
X023495Y010377D02*
X023763Y010377D01*
X023995Y010609D01*
X024485Y010609D01*
X024485Y010412D02*
X024113Y010412D01*
X023763Y010062D01*
X023763Y009747D02*
X024231Y010215D01*
X024485Y010215D01*
X024485Y010019D02*
X024467Y010019D01*
X023881Y009432D01*
X024196Y008999D02*
X024790Y009593D01*
X024790Y009713D01*
X024987Y009713D02*
X024987Y009475D01*
X024511Y008999D01*
X024826Y008999D02*
X024826Y008723D01*
X024830Y008719D01*
X024826Y008999D02*
X025184Y009357D01*
X025184Y009713D01*
X025381Y009713D02*
X025381Y009239D01*
X025141Y008999D01*
X025141Y008755D01*
X025145Y008751D01*
X025145Y008719D01*
X025141Y008723D02*
X025141Y008755D01*
X024589Y005495D02*
X023674Y005495D01*
X026558Y005495D02*
X027474Y005495D01*
X026492Y019556D02*
X026249Y019556D01*
X023127Y019738D02*
X023116Y019738D01*
X023046Y019668D01*
X022424Y019668D01*
X014156Y024255D02*
X013900Y023999D01*
X011400Y023999D01*
X010889Y023487D01*
X010889Y023290D01*
X010889Y023133D02*
X011322Y023133D01*
X011794Y023605D01*
X011597Y022975D02*
X010889Y022975D01*
X010889Y022818D02*
X011400Y022818D01*
X011794Y022424D01*
X011400Y022503D02*
X011400Y022227D01*
X011794Y021834D01*
X011204Y021834D02*
X011204Y022227D01*
X011086Y022345D01*
X010889Y022345D01*
X010889Y022660D02*
X011243Y022660D01*
X011400Y022503D01*
X011204Y021834D02*
X011794Y021243D01*
X012975Y021046D02*
X013507Y021046D01*
X013566Y020987D01*
X012385Y022975D02*
X012424Y023015D01*
X010219Y022818D02*
X009550Y022818D01*
X009550Y022975D02*
X009196Y022975D01*
X008645Y022424D01*
X008841Y021834D02*
X009353Y022345D01*
X009550Y022345D01*
X009550Y022503D01*
X009550Y023133D02*
X008172Y023133D01*
X009550Y023290D02*
X009550Y024471D01*
X009038Y024983D01*
X008586Y024983D01*
X003597Y021228D02*
X003494Y021124D01*
X002977Y021124D01*
X002830Y020977D01*
X002830Y020431D01*
X002830Y019673D02*
X002830Y019126D01*
X002977Y018979D01*
X003494Y018979D01*
X003597Y018875D01*
X025967Y029845D02*
X025986Y029827D01*
X027399Y029827D01*
D57*
X022391Y026597D02*
X022391Y024426D01*
X022621Y024196D01*
X022621Y023940D01*
X022621Y023271D02*
X022621Y022818D01*
X023015Y022424D01*
X020849Y020652D02*
X019668Y019471D01*
X014550Y019471D01*
X014550Y020711D01*
X014550Y021381D02*
X014550Y021637D01*
X013960Y021637D01*
X014550Y021637D02*
X014550Y022168D01*
X012385Y022975D02*
X011597Y022975D01*
X010613Y023530D02*
X010532Y023530D01*
X010416Y023415D01*
X010416Y022221D01*
X010532Y022105D01*
X010613Y022105D01*
X010613Y021834D01*
X009826Y021834D01*
X009826Y022105D01*
X009907Y022105D01*
X010023Y022221D01*
X010023Y022785D01*
X009990Y022818D01*
X010023Y022850D01*
X010023Y023415D01*
X009907Y023530D01*
X009826Y023530D01*
X009826Y023605D01*
X010613Y023605D01*
X010613Y023530D01*
X010478Y023477D02*
X009961Y023477D01*
X010023Y023321D02*
X010416Y023321D01*
X010416Y023165D02*
X010023Y023165D01*
X010023Y023009D02*
X010416Y023009D01*
X010416Y022853D02*
X010023Y022853D01*
X010023Y022697D02*
X010416Y022697D01*
X010416Y022541D02*
X010023Y022541D01*
X010023Y022385D02*
X010416Y022385D01*
X010416Y022229D02*
X010023Y022229D01*
X009826Y022073D02*
X010613Y022073D01*
X010613Y021917D02*
X009826Y021917D01*
X009038Y021917D02*
X005674Y021917D01*
X005674Y021936D02*
X005662Y021981D01*
X005638Y022022D01*
X005630Y022030D01*
X007857Y022030D01*
X007857Y023408D01*
X008287Y023408D01*
X008301Y023394D01*
X008281Y023359D01*
X008269Y023314D01*
X008269Y023093D01*
X008625Y023093D01*
X008625Y023054D01*
X008269Y023054D01*
X008269Y022834D01*
X008281Y022788D01*
X008305Y022747D01*
X008309Y022743D01*
X008260Y022694D01*
X008260Y022154D01*
X008375Y022039D01*
X008914Y022039D01*
X009030Y022154D01*
X009030Y022475D01*
X009038Y022484D01*
X009038Y021637D01*
X007936Y021637D01*
X007936Y021679D01*
X007821Y021794D01*
X007028Y021794D01*
X006912Y021679D01*
X006912Y021637D01*
X006873Y021637D01*
X006873Y020583D01*
X005692Y020583D01*
X005692Y021128D01*
X005576Y021243D01*
X005495Y021243D01*
X005495Y021261D01*
X005518Y021261D01*
X005564Y021273D01*
X005605Y021297D01*
X005638Y021330D01*
X005662Y021371D01*
X005674Y021416D01*
X005674Y021656D01*
X005495Y021656D01*
X005495Y021696D01*
X005674Y021696D01*
X005674Y021936D01*
X005674Y021761D02*
X005933Y021761D01*
X005938Y021764D02*
X005897Y021740D01*
X005864Y021707D01*
X005840Y021666D01*
X005828Y021621D01*
X005828Y021322D01*
X006243Y021322D01*
X006243Y021776D01*
X005983Y021776D01*
X005938Y021764D01*
X005828Y021605D02*
X005674Y021605D01*
X005674Y021449D02*
X005828Y021449D01*
X005731Y021243D02*
X006322Y021243D01*
X006322Y020563D01*
X007857Y020563D01*
X008359Y020062D01*
X009629Y020062D01*
X010219Y019471D01*
X014550Y019471D01*
X013763Y018487D02*
X013960Y018290D01*
X014688Y018290D01*
X014747Y018231D01*
X014747Y017562D02*
X014747Y017503D01*
X015593Y017503D01*
X014747Y016656D02*
X014688Y016715D01*
X013960Y016715D01*
X013369Y016715D01*
X013172Y016912D01*
X013172Y017306D01*
X012582Y017897D01*
X010416Y017897D01*
X009629Y018684D01*
X009038Y019274D01*
X007857Y019274D01*
X007463Y019668D01*
X007080Y020052D01*
X004040Y020052D01*
X004040Y020308D02*
X007611Y020308D01*
X007857Y020062D01*
X008251Y019668D01*
X009432Y019668D01*
X010219Y018881D01*
X010613Y018487D01*
X013763Y018487D01*
X017700Y015928D02*
X026361Y015928D01*
X026404Y015885D01*
X026404Y013286D01*
X026164Y013361D02*
X026164Y015534D01*
X016912Y015534D01*
X015141Y014747D02*
X020456Y014747D01*
X021243Y013960D01*
X021243Y013369D01*
X021637Y012975D01*
X022975Y011637D01*
X023495Y011637D01*
X023495Y011952D02*
X023054Y011952D01*
X022227Y012778D01*
X023015Y012385D02*
X023133Y012267D01*
X023495Y012267D01*
X023015Y012385D02*
X023015Y013172D01*
X023093Y013251D01*
X023093Y013822D01*
X023999Y014353D02*
X024196Y014156D01*
X024196Y013290D01*
X024200Y013286D01*
X024830Y013286D02*
X024830Y014310D01*
X024786Y014353D01*
X024786Y014294D01*
X024845Y014353D01*
X026719Y013286D02*
X026719Y015499D01*
X026755Y015534D01*
X032070Y015534D01*
X030692Y016125D02*
X026558Y016125D01*
X026361Y016322D01*
X018684Y016322D01*
X019865Y014353D02*
X020652Y013566D01*
X020652Y012916D01*
X020790Y012778D01*
X021440Y012778D01*
X022227Y011991D01*
X021499Y011263D01*
X021499Y011007D01*
X020849Y010416D02*
X022424Y010416D01*
X022700Y010692D01*
X023495Y010692D01*
X023495Y011322D02*
X022897Y011322D01*
X022227Y011991D01*
X022424Y010023D02*
X022747Y010023D01*
X022782Y010058D01*
X023491Y010058D01*
X023495Y010062D01*
X023763Y010062D01*
X023763Y009747D02*
X023495Y009747D01*
X022739Y009747D01*
X021637Y008645D01*
X020652Y008645D01*
X019865Y007857D01*
X019011Y007857D01*
X018538Y008330D01*
X019538Y008330D02*
X019747Y008330D01*
X020456Y009038D01*
X021440Y009038D01*
X022424Y010023D01*
X022928Y009345D02*
X021834Y008251D01*
X020652Y008251D01*
X019731Y007330D01*
X019538Y007330D01*
X019865Y006479D02*
X018881Y006479D01*
X018538Y006822D01*
X018538Y007330D01*
X019865Y006479D02*
X020456Y007070D01*
X021440Y007070D01*
X021774Y007404D01*
X021952Y007404D01*
X022011Y007463D01*
X022227Y007463D01*
X022424Y007660D01*
X023802Y007660D01*
X023802Y007641D01*
X023763Y007601D01*
X023802Y007660D02*
X024393Y007660D01*
X024826Y008093D01*
X024826Y008723D01*
X024515Y008719D02*
X024515Y008176D01*
X024393Y008054D01*
X022227Y008054D01*
X022030Y007857D01*
X021046Y007857D01*
X020849Y007660D01*
X021952Y006735D02*
X021499Y006282D01*
X021046Y006282D01*
X021046Y005682D01*
X020997Y005633D01*
X019127Y005633D01*
X022227Y004314D02*
X022227Y003526D01*
X013893Y003526D01*
X013646Y003280D01*
X013646Y003280D01*
X013568Y003202D01*
X013467Y003160D01*
X013322Y003160D01*
X013322Y003138D01*
X013271Y003087D01*
X013291Y003052D01*
X013304Y003007D01*
X013304Y002786D01*
X012948Y002786D01*
X012948Y002747D01*
X013304Y002747D01*
X013304Y002527D01*
X013291Y002481D01*
X013268Y002440D01*
X013235Y002407D01*
X013194Y002384D01*
X013148Y002371D01*
X012948Y002371D01*
X012948Y002747D01*
X012908Y002747D01*
X012552Y002747D01*
X012552Y002527D01*
X012565Y002481D01*
X012588Y002440D01*
X012621Y002407D01*
X012662Y002384D01*
X012708Y002371D01*
X012908Y002371D01*
X012908Y002747D01*
X012908Y002786D01*
X012552Y002786D01*
X012552Y003007D01*
X012565Y003052D01*
X012585Y003087D01*
X012534Y003138D01*
X012534Y003526D01*
X012463Y003526D01*
X012463Y002854D01*
X012348Y002739D01*
X011713Y002739D01*
X011597Y002854D01*
X011597Y003373D01*
X011444Y003526D01*
X011357Y003526D01*
X011204Y003373D01*
X011204Y002854D01*
X011088Y002739D01*
X010453Y002739D01*
X010337Y002854D01*
X010337Y003805D01*
X010353Y003820D01*
X010219Y003820D01*
X010219Y004156D01*
X010219Y004156D01*
X009432Y004156D01*
X009432Y003820D01*
X009692Y003820D01*
X009737Y003832D01*
X009778Y003856D01*
X009811Y003889D01*
X009826Y003914D01*
X009840Y003889D01*
X009873Y003856D01*
X009914Y003832D01*
X009960Y003820D01*
X010219Y003820D01*
X010219Y004156D01*
X010219Y004156D01*
X009847Y004156D01*
X009432Y004156D01*
X009432Y004156D01*
X009432Y003820D01*
X009172Y003820D01*
X009127Y003832D01*
X009086Y003856D01*
X009053Y003889D01*
X009029Y003930D01*
X009017Y003975D01*
X009017Y004156D01*
X009432Y004156D01*
X009432Y004156D01*
X009432Y004156D01*
X009017Y004156D01*
X009017Y004337D01*
X009029Y004383D01*
X009053Y004424D01*
X009086Y004457D01*
X009109Y004470D01*
X009109Y004516D01*
X008999Y004626D01*
X008999Y005104D01*
X009109Y005214D01*
X009109Y005758D01*
X009235Y005884D01*
X009235Y005889D01*
X008841Y005889D01*
X008841Y004217D01*
X008878Y003952D01*
X008841Y003687D01*
X008841Y002185D01*
X035015Y002185D01*
X034863Y002328D01*
X034863Y002328D01*
X034583Y002788D01*
X034583Y002788D01*
X034438Y003307D01*
X034438Y003846D01*
X034583Y004365D01*
X034583Y004365D01*
X034863Y004826D01*
X034863Y004826D01*
X035023Y004975D01*
X035023Y013408D01*
X032660Y013408D01*
X032660Y005495D01*
X029314Y005495D01*
X029314Y004314D01*
X022227Y004314D01*
X022227Y004291D02*
X029686Y004291D01*
X029686Y004183D02*
X029801Y004068D01*
X030614Y004068D01*
X030716Y004169D01*
X030724Y004155D01*
X030757Y004122D01*
X030798Y004098D01*
X030843Y004086D01*
X031162Y004086D01*
X031162Y004560D01*
X031221Y004560D01*
X031221Y004086D01*
X031540Y004086D01*
X031586Y004098D01*
X031626Y004122D01*
X031660Y004155D01*
X031668Y004169D01*
X031770Y004068D01*
X032582Y004068D01*
X032668Y004154D01*
X032754Y004068D01*
X033567Y004068D01*
X033682Y004183D01*
X033682Y004996D01*
X033587Y005091D01*
X033587Y005889D01*
X033608Y005889D01*
X033659Y005939D01*
X033694Y005919D01*
X033739Y005907D01*
X033960Y005907D01*
X033960Y006263D01*
X033999Y006263D01*
X033999Y006302D01*
X034374Y006302D01*
X034374Y006503D01*
X034362Y006548D01*
X034339Y006589D01*
X034305Y006622D01*
X034265Y006646D01*
X034219Y006658D01*
X033999Y006658D01*
X033999Y006302D01*
X033960Y006302D01*
X033960Y006658D01*
X033739Y006658D01*
X033694Y006646D01*
X033659Y006625D01*
X033608Y006676D01*
X033012Y006676D01*
X032897Y006561D01*
X032897Y006004D01*
X033012Y005889D01*
X033033Y005889D01*
X033033Y005111D01*
X032754Y005111D01*
X032668Y005025D01*
X032582Y005111D01*
X031770Y005111D01*
X031668Y005009D01*
X031660Y005024D01*
X031626Y005057D01*
X031586Y005081D01*
X031540Y005093D01*
X031221Y005093D01*
X031221Y004619D01*
X031162Y004619D01*
X031162Y005093D01*
X030843Y005093D01*
X030798Y005081D01*
X030757Y005057D01*
X030724Y005024D01*
X030716Y005009D01*
X030614Y005111D01*
X029801Y005111D01*
X029686Y004996D01*
X029686Y004183D01*
X029734Y004135D02*
X022227Y004135D01*
X022227Y003979D02*
X034475Y003979D01*
X034438Y003823D02*
X022227Y003823D01*
X022227Y003667D02*
X034438Y003667D01*
X034438Y003511D02*
X013878Y003511D01*
X013722Y003355D02*
X034438Y003355D01*
X034468Y003199D02*
X013562Y003199D01*
X013412Y003436D02*
X012928Y003436D01*
X012534Y003511D02*
X012463Y003511D01*
X012463Y003355D02*
X012534Y003355D01*
X012534Y003199D02*
X012463Y003199D01*
X012463Y003044D02*
X012562Y003044D01*
X012552Y002888D02*
X012463Y002888D01*
X012552Y002732D02*
X008841Y002732D01*
X008841Y002888D02*
X010337Y002888D01*
X010337Y003044D02*
X008841Y003044D01*
X008841Y003199D02*
X010337Y003199D01*
X010337Y003355D02*
X008841Y003355D01*
X008841Y003511D02*
X010337Y003511D01*
X010337Y003667D02*
X008841Y003667D01*
X008860Y003823D02*
X009160Y003823D01*
X009017Y003979D02*
X008874Y003979D01*
X008853Y004135D02*
X009017Y004135D01*
X009017Y004291D02*
X008841Y004291D01*
X008841Y004447D02*
X009076Y004447D01*
X009022Y004603D02*
X008841Y004603D01*
X008841Y004759D02*
X008999Y004759D01*
X008999Y004915D02*
X008841Y004915D01*
X008841Y005071D02*
X008999Y005071D01*
X009109Y005227D02*
X008841Y005227D01*
X008841Y005383D02*
X009109Y005383D01*
X009109Y005539D02*
X008841Y005539D01*
X008841Y005695D02*
X009109Y005695D01*
X009202Y005851D02*
X008841Y005851D01*
X008645Y007070D02*
X008605Y007110D01*
X008645Y008054D02*
X009629Y008054D01*
X009176Y008448D02*
X009373Y008645D01*
X009629Y008645D01*
X009983Y008999D01*
X010219Y008999D01*
X010377Y008841D01*
X010219Y008999D02*
X010278Y009058D01*
X010606Y009432D02*
X011014Y009432D01*
X010948Y009498D01*
X010948Y010153D01*
X011014Y010219D01*
X010948Y010285D01*
X010948Y010547D01*
X011063Y010662D01*
X011267Y010662D01*
X011291Y010672D01*
X011491Y010672D01*
X011597Y010778D01*
X011597Y011204D01*
X010692Y011204D01*
X010692Y010361D01*
X010672Y010314D01*
X010672Y010089D01*
X010606Y010023D01*
X010672Y009956D01*
X010672Y009498D01*
X010606Y009432D01*
X010613Y009439D02*
X011007Y009439D01*
X010948Y009595D02*
X010672Y009595D01*
X010672Y009751D02*
X010948Y009751D01*
X010948Y009907D02*
X010672Y009907D01*
X010646Y010063D02*
X010948Y010063D01*
X011013Y010219D02*
X010672Y010219D01*
X010692Y010375D02*
X010948Y010375D01*
X010948Y010531D02*
X010692Y010531D01*
X010692Y010687D02*
X011506Y010687D01*
X011597Y010843D02*
X010692Y010843D01*
X010692Y010999D02*
X011597Y010999D01*
X011597Y011155D02*
X010692Y011155D01*
X010416Y011155D02*
X008841Y011155D01*
X008841Y011086D02*
X008841Y011794D01*
X010416Y011794D01*
X010416Y010465D01*
X010353Y010465D01*
X010329Y010475D01*
X010023Y010475D01*
X010023Y011007D01*
X009789Y011007D01*
X009710Y011086D01*
X008841Y011086D01*
X008841Y011310D02*
X010416Y011310D01*
X010416Y011466D02*
X008841Y011466D01*
X008841Y011622D02*
X010416Y011622D01*
X010416Y011778D02*
X008841Y011778D01*
X009235Y010652D02*
X009668Y010219D01*
X010023Y010531D02*
X010416Y010531D01*
X010416Y010687D02*
X010023Y010687D01*
X010023Y010843D02*
X010416Y010843D01*
X010416Y010999D02*
X010023Y010999D01*
X010259Y011597D02*
X010259Y012030D01*
X010810Y012582D01*
X014353Y014353D02*
X019865Y014353D01*
X022621Y017306D02*
X023015Y016912D01*
X023797Y016912D01*
X023847Y016862D01*
X023752Y016862D01*
X023847Y017610D02*
X023802Y017655D01*
X023802Y017897D01*
X023999Y018093D01*
X026361Y018093D01*
X026964Y017712D02*
X026964Y019556D01*
X027542Y018093D02*
X029511Y018093D01*
X026964Y017712D02*
X026488Y017236D01*
X024871Y017236D01*
X022621Y017306D02*
X022621Y017897D01*
X022562Y017897D01*
X027034Y014436D02*
X027345Y014747D01*
X027034Y014436D02*
X027034Y013286D01*
X027345Y013282D02*
X027345Y014156D01*
X027739Y014550D01*
X027349Y013286D02*
X027349Y012900D01*
X026759Y012310D01*
X027345Y013282D02*
X027349Y013286D01*
X028054Y013152D02*
X028054Y012582D01*
X028054Y012267D02*
X030771Y012267D01*
X031479Y012975D01*
X032660Y013026D02*
X035023Y013026D01*
X035023Y012870D02*
X032660Y012870D01*
X032660Y012714D02*
X035023Y012714D01*
X035023Y012558D02*
X032660Y012558D01*
X032660Y012402D02*
X035023Y012402D01*
X035023Y012246D02*
X032660Y012246D01*
X032660Y012090D02*
X035023Y012090D01*
X035023Y011934D02*
X032660Y011934D01*
X032660Y011778D02*
X035023Y011778D01*
X035023Y011622D02*
X032660Y011622D01*
X032660Y011466D02*
X035023Y011466D01*
X035023Y011310D02*
X032660Y011310D01*
X032660Y011155D02*
X035023Y011155D01*
X035023Y010999D02*
X032660Y010999D01*
X032660Y010843D02*
X035023Y010843D01*
X035023Y010687D02*
X032660Y010687D01*
X032660Y010531D02*
X035023Y010531D01*
X035023Y010375D02*
X032660Y010375D01*
X032660Y010219D02*
X035023Y010219D01*
X035023Y010063D02*
X032660Y010063D01*
X032660Y009907D02*
X035023Y009907D01*
X035023Y009751D02*
X032660Y009751D01*
X032660Y009595D02*
X035023Y009595D01*
X035023Y009439D02*
X032660Y009439D01*
X032660Y009283D02*
X035023Y009283D01*
X035023Y009127D02*
X032660Y009127D01*
X032660Y008971D02*
X035023Y008971D01*
X035023Y008815D02*
X032660Y008815D01*
X032660Y008659D02*
X035023Y008659D01*
X035023Y008503D02*
X032660Y008503D01*
X032660Y008347D02*
X035023Y008347D01*
X035023Y008191D02*
X032660Y008191D01*
X032660Y008035D02*
X035023Y008035D01*
X035023Y007879D02*
X032660Y007879D01*
X032660Y007723D02*
X035023Y007723D01*
X035023Y007567D02*
X032660Y007567D01*
X032660Y007411D02*
X035023Y007411D01*
X035023Y007255D02*
X032660Y007255D01*
X032660Y007099D02*
X035023Y007099D01*
X035023Y006943D02*
X032660Y006943D01*
X032660Y006787D02*
X035023Y006787D01*
X035023Y006631D02*
X034290Y006631D01*
X034374Y006475D02*
X035023Y006475D01*
X035023Y006319D02*
X034374Y006319D01*
X034374Y006263D02*
X033999Y006263D01*
X033999Y005907D01*
X034219Y005907D01*
X034265Y005919D01*
X034305Y005942D01*
X034339Y005976D01*
X034362Y006017D01*
X034374Y006062D01*
X034374Y006263D01*
X034374Y006163D02*
X035023Y006163D01*
X035023Y006007D02*
X034357Y006007D01*
X033999Y006007D02*
X033960Y006007D01*
X033960Y006163D02*
X033999Y006163D01*
X033999Y006319D02*
X033960Y006319D01*
X033960Y006475D02*
X033999Y006475D01*
X033999Y006631D02*
X033960Y006631D01*
X033668Y006631D02*
X033653Y006631D01*
X032967Y006631D02*
X032660Y006631D01*
X032660Y006475D02*
X032897Y006475D01*
X032897Y006319D02*
X032660Y006319D01*
X032660Y006163D02*
X032897Y006163D01*
X032897Y006007D02*
X032660Y006007D01*
X032660Y005851D02*
X033033Y005851D01*
X033033Y005695D02*
X032660Y005695D01*
X032660Y005539D02*
X033033Y005539D01*
X033033Y005383D02*
X029314Y005383D01*
X029314Y005227D02*
X033033Y005227D01*
X032714Y005071D02*
X032622Y005071D01*
X031730Y005071D02*
X031602Y005071D01*
X031221Y005071D02*
X031162Y005071D01*
X031162Y004915D02*
X031221Y004915D01*
X031221Y004759D02*
X031162Y004759D01*
X031162Y004447D02*
X031221Y004447D01*
X031221Y004291D02*
X031162Y004291D01*
X031162Y004135D02*
X031221Y004135D01*
X031640Y004135D02*
X031702Y004135D01*
X032650Y004135D02*
X032686Y004135D01*
X033634Y004135D02*
X034519Y004135D01*
X034562Y004291D02*
X033682Y004291D01*
X033682Y004447D02*
X034633Y004447D01*
X034728Y004603D02*
X033682Y004603D01*
X033682Y004759D02*
X034823Y004759D01*
X034959Y004915D02*
X033682Y004915D01*
X033606Y005071D02*
X035023Y005071D01*
X035023Y005227D02*
X033587Y005227D01*
X033587Y005383D02*
X035023Y005383D01*
X035023Y005539D02*
X033587Y005539D01*
X033587Y005695D02*
X035023Y005695D01*
X035023Y005851D02*
X033587Y005851D01*
X030781Y005071D02*
X030654Y005071D01*
X029761Y005071D02*
X029314Y005071D01*
X029314Y004915D02*
X029686Y004915D01*
X029686Y004759D02*
X029314Y004759D01*
X029314Y004603D02*
X029686Y004603D01*
X029686Y004447D02*
X029314Y004447D01*
X030681Y004135D02*
X030743Y004135D01*
X034511Y003044D02*
X013294Y003044D01*
X013304Y002888D02*
X034555Y002888D01*
X034617Y002732D02*
X013304Y002732D01*
X013304Y002576D02*
X034712Y002576D01*
X034807Y002420D02*
X013247Y002420D01*
X012948Y002420D02*
X012908Y002420D01*
X012908Y002576D02*
X012948Y002576D01*
X012948Y002732D02*
X012908Y002732D01*
X012552Y002576D02*
X008841Y002576D01*
X008841Y002420D02*
X012609Y002420D01*
X012030Y003330D02*
X011597Y003763D01*
X011459Y003511D02*
X011342Y003511D01*
X011204Y003355D02*
X011597Y003355D01*
X011597Y003199D02*
X011204Y003199D01*
X011204Y003044D02*
X011597Y003044D01*
X011597Y002888D02*
X011204Y002888D01*
X010771Y003330D02*
X011204Y003763D01*
X010219Y003823D02*
X010219Y003823D01*
X010219Y003979D02*
X010219Y003979D01*
X010219Y004135D02*
X010219Y004135D01*
X009947Y003823D02*
X009704Y003823D01*
X009432Y003823D02*
X009432Y003823D01*
X009432Y003979D02*
X009432Y003979D01*
X009432Y004135D02*
X009432Y004135D01*
X008841Y002264D02*
X034932Y002264D01*
X034863Y002328D02*
X034863Y002328D01*
X026558Y005495D02*
X026026Y006026D01*
X026026Y007070D01*
X025908Y007188D01*
X025908Y007936D01*
X025774Y008070D01*
X025774Y008719D01*
X025460Y008719D02*
X025460Y008156D01*
X025239Y007936D01*
X025239Y007188D01*
X025121Y007070D01*
X025121Y006026D01*
X024589Y005495D01*
X023928Y008448D02*
X023408Y008448D01*
X023928Y008448D02*
X024200Y008719D01*
X024196Y008723D01*
X024196Y008999D01*
X024511Y008999D02*
X024511Y008723D01*
X024515Y008719D01*
X023881Y009432D02*
X023495Y009432D01*
X023491Y009428D01*
X023408Y009345D01*
X022928Y009345D01*
X023491Y009743D02*
X023495Y009747D01*
X028054Y009747D02*
X028920Y009747D01*
X029885Y009747D01*
X029904Y009767D01*
X030790Y009767D01*
X030849Y009826D01*
X031715Y009826D02*
X032857Y009826D01*
X030692Y011597D02*
X030341Y011948D01*
X028058Y011948D01*
X028058Y011633D02*
X029349Y011633D01*
X029475Y011633D01*
X029511Y011597D01*
X030101Y011007D02*
X028920Y011007D01*
X028609Y011318D01*
X028058Y011318D01*
X028920Y009747D02*
X028920Y009235D01*
X028054Y013152D02*
X028133Y013231D01*
X029511Y014491D02*
X029511Y014550D01*
X032660Y013338D02*
X035023Y013338D01*
X035023Y013182D02*
X032660Y013182D01*
X030101Y023605D02*
X026558Y023605D01*
X025967Y024196D01*
X014747Y013763D02*
X014727Y013743D01*
X018093Y010613D02*
X016125Y008645D01*
X016125Y007326D01*
X015908Y007109D01*
X015160Y007109D02*
X015062Y007011D01*
X015160Y007109D02*
X015141Y007129D01*
X015436Y006341D02*
X015534Y006243D01*
X013763Y006282D02*
X013763Y006086D01*
X013763Y003786D01*
X013412Y003436D01*
X013763Y006282D02*
X013566Y006479D01*
X013231Y006479D01*
X013172Y006420D01*
X009668Y009826D02*
X009235Y009393D01*
X008054Y009294D02*
X008054Y008900D01*
X008507Y008448D01*
X008507Y008192D01*
X008645Y008054D01*
X008823Y017503D02*
X008823Y017719D01*
X008467Y017719D01*
X008467Y017759D01*
X008428Y017759D01*
X008428Y018154D01*
X008227Y018154D01*
X008182Y018142D01*
X008141Y018118D01*
X008108Y018085D01*
X008084Y018044D01*
X008072Y017999D01*
X008072Y017759D01*
X008428Y017759D01*
X008428Y017719D01*
X008072Y017719D01*
X008072Y017503D01*
X007841Y017503D01*
X007868Y017700D01*
X007795Y018234D01*
X007580Y018728D01*
X007580Y018728D01*
X007240Y019146D01*
X007240Y019146D01*
X007240Y019146D01*
X006799Y019457D01*
X006291Y019638D01*
X005754Y019674D01*
X005754Y019674D01*
X005226Y019565D01*
X004747Y019317D01*
X004605Y019184D01*
X004605Y019385D01*
X004561Y019429D01*
X004563Y019438D01*
X004563Y019540D01*
X004563Y019617D01*
X004582Y019635D01*
X004582Y019776D01*
X006966Y019776D01*
X007230Y019512D01*
X007624Y019118D01*
X007701Y019041D01*
X007802Y018999D01*
X008924Y018999D01*
X009038Y018885D01*
X009038Y017503D01*
X008823Y017503D01*
X008823Y017550D02*
X009038Y017550D01*
X009038Y017706D02*
X008823Y017706D01*
X008823Y017759D02*
X008823Y017999D01*
X008811Y018044D01*
X008788Y018085D01*
X008754Y018118D01*
X008714Y018142D01*
X008668Y018154D01*
X008467Y018154D01*
X008467Y017759D01*
X008823Y017759D01*
X008823Y017862D02*
X009038Y017862D01*
X009038Y018018D02*
X008818Y018018D01*
X009038Y018174D02*
X007803Y018174D01*
X007795Y018234D02*
X007795Y018234D01*
X007753Y018330D02*
X009038Y018330D01*
X009038Y018486D02*
X007685Y018486D01*
X007617Y018642D02*
X009038Y018642D01*
X009038Y018798D02*
X007523Y018798D01*
X007396Y018954D02*
X008969Y018954D01*
X008467Y018018D02*
X008428Y018018D01*
X008428Y017862D02*
X008467Y017862D01*
X008072Y017862D02*
X007846Y017862D01*
X007824Y018018D02*
X008077Y018018D01*
X008072Y017706D02*
X007867Y017706D01*
X007847Y017550D02*
X008072Y017550D01*
X007632Y019110D02*
X007270Y019110D01*
X007071Y019265D02*
X007476Y019265D01*
X007320Y019421D02*
X006850Y019421D01*
X006799Y019457D02*
X006799Y019457D01*
X007008Y019733D02*
X004582Y019733D01*
X004563Y019577D02*
X005287Y019577D01*
X005226Y019565D02*
X005226Y019565D01*
X004949Y019421D02*
X004569Y019421D01*
X004563Y019540D02*
X004486Y019540D01*
X004563Y019540D01*
X004486Y019540D02*
X004486Y019540D01*
X004605Y019265D02*
X004692Y019265D01*
X004747Y019317D02*
X004747Y019317D01*
X005052Y020563D02*
X004040Y020563D01*
X005052Y020563D02*
X005298Y020810D01*
X005692Y020825D02*
X005839Y020825D01*
X005840Y020820D02*
X005864Y020779D01*
X005897Y020746D01*
X005938Y020722D01*
X005983Y020710D01*
X006243Y020710D01*
X006243Y021164D01*
X006400Y021164D01*
X006400Y020710D01*
X006660Y020710D01*
X006706Y020722D01*
X006746Y020746D01*
X006780Y020779D01*
X006803Y020820D01*
X006815Y020865D01*
X006815Y021164D01*
X006400Y021164D01*
X006400Y021322D01*
X006243Y021322D01*
X006243Y021164D01*
X005828Y021164D01*
X005828Y020865D01*
X005840Y020820D01*
X005828Y020981D02*
X005692Y020981D01*
X005682Y021137D02*
X005828Y021137D01*
X005731Y021243D02*
X005298Y021676D01*
X005062Y021676D01*
X004511Y022227D01*
X004511Y023802D01*
X004910Y024202D01*
X005149Y024202D01*
X006676Y023861D02*
X006676Y023015D01*
X007857Y023009D02*
X008269Y023009D01*
X008269Y022853D02*
X007857Y022853D01*
X007857Y022697D02*
X008263Y022697D01*
X008260Y022541D02*
X007857Y022541D01*
X007857Y022385D02*
X008260Y022385D01*
X008260Y022229D02*
X007857Y022229D01*
X007857Y022073D02*
X008341Y022073D01*
X008054Y021834D02*
X006440Y021834D01*
X006322Y021715D01*
X006322Y021243D01*
X006400Y021293D02*
X006873Y021293D01*
X006815Y021322D02*
X006815Y021621D01*
X006803Y021666D01*
X006780Y021707D01*
X006746Y021740D01*
X006706Y021764D01*
X006660Y021776D01*
X006400Y021776D01*
X006400Y021322D01*
X006815Y021322D01*
X006815Y021449D02*
X006873Y021449D01*
X006873Y021605D02*
X006815Y021605D01*
X006710Y021761D02*
X006995Y021761D01*
X006400Y021761D02*
X006243Y021761D01*
X006243Y021605D02*
X006400Y021605D01*
X006400Y021449D02*
X006243Y021449D01*
X006243Y021293D02*
X005599Y021293D01*
X005692Y020669D02*
X006873Y020669D01*
X006873Y020825D02*
X006805Y020825D01*
X006815Y020981D02*
X006873Y020981D01*
X006873Y021137D02*
X006815Y021137D01*
X006400Y021137D02*
X006243Y021137D01*
X006243Y020981D02*
X006400Y020981D01*
X006400Y020825D02*
X006243Y020825D01*
X007854Y021761D02*
X009038Y021761D01*
X008841Y021834D02*
X008054Y021834D01*
X008054Y023015D01*
X008172Y023133D01*
X008269Y023165D02*
X007857Y023165D01*
X007857Y023321D02*
X008271Y023321D01*
X009030Y022385D02*
X009038Y022385D01*
X009030Y022229D02*
X009038Y022229D01*
X009038Y022073D02*
X008948Y022073D01*
X007070Y024255D02*
X006676Y023861D01*
X006291Y019638D02*
X006291Y019638D01*
X006461Y019577D02*
X007164Y019577D01*
X007230Y019512D02*
X007230Y019512D01*
D58*
X008645Y018881D03*
X008645Y018290D03*
X010219Y020259D03*
X010219Y021046D03*
X009432Y021046D03*
X010219Y021834D03*
X008645Y022424D03*
X006676Y023015D03*
X007857Y024393D03*
X008645Y024393D03*
X010023Y024589D03*
X010219Y023802D03*
X008448Y025771D03*
X012975Y023015D03*
X013172Y022227D03*
X013960Y021637D03*
X012975Y021046D03*
X012778Y020259D03*
X011991Y020259D03*
X014944Y018881D03*
X013369Y017897D03*
X012188Y017306D03*
X012975Y015928D03*
X013960Y015337D03*
X014156Y014550D03*
X013369Y012582D03*
X012582Y011400D03*
X011794Y011400D03*
X011794Y011991D03*
X013369Y011007D03*
X013763Y010219D03*
X012975Y010219D03*
X011991Y010219D03*
X010810Y010416D03*
X010810Y009629D03*
X011794Y008841D03*
X012582Y009038D03*
X014156Y008645D03*
X012582Y007660D03*
X011597Y007463D03*
X010810Y008251D03*
X010219Y007463D03*
X009826Y006086D03*
X010219Y005495D03*
X011007Y006086D03*
X011007Y004904D03*
X011794Y004904D03*
X012188Y005495D03*
X013172Y005101D03*
X013763Y006086D03*
X016912Y004708D03*
X017306Y006479D03*
X020849Y007660D03*
X021046Y006282D03*
X023408Y008448D03*
X024393Y007660D03*
X024589Y006479D03*
X024393Y003920D03*
X023408Y003920D03*
X028526Y007267D03*
X030101Y006479D03*
X030889Y007660D03*
X028920Y009235D03*
X030101Y011007D03*
X029511Y011597D03*
X030692Y011597D03*
X031479Y012975D03*
X028920Y012778D03*
X027149Y014944D03*
X025519Y014904D03*
X023999Y014353D03*
X023015Y013172D03*
X021834Y014353D03*
X019668Y013172D03*
X018093Y013763D03*
X016912Y015534D03*
X017503Y016125D03*
X018684Y016322D03*
X019274Y017897D03*
X021243Y018881D03*
X022424Y019668D03*
X020849Y020652D03*
X023015Y022424D03*
X026952Y021440D03*
X028723Y022227D03*
X030101Y023605D03*
X026952Y026558D03*
X025771Y026952D03*
X024196Y026755D03*
X019668Y026952D03*
X023999Y018684D03*
X023015Y016912D03*
X021834Y017109D03*
X026361Y018093D03*
X027542Y018093D03*
X028330Y017109D03*
X027345Y016912D03*
X029511Y018093D03*
X030692Y016125D03*
X032070Y015534D03*
X020849Y010416D03*
X019274Y010810D03*
X018093Y010613D03*
X015534Y011007D03*
X014353Y011007D03*
X009629Y011400D03*
X009038Y011400D03*
X008251Y010613D03*
X003133Y010810D03*
X003133Y011991D03*
X003133Y013369D03*
X003133Y014550D03*
X008448Y014747D03*
X011204Y015337D03*
X008251Y005889D03*
X007463Y006086D03*
D59*
X006086Y006282D02*
X005593Y005790D01*
X005219Y005790D01*
X003251Y005790D01*
X003251Y006774D02*
X005219Y006774D01*
X005397Y006774D01*
X005692Y007070D01*
X006086Y007070D01*
X005987Y007759D02*
X005219Y007759D01*
X003251Y007759D01*
X003251Y008743D02*
X005219Y008743D01*
X005318Y008841D01*
X007267Y008841D01*
X007660Y008448D01*
X007660Y008054D01*
X008251Y007463D01*
X008645Y007070D01*
X009038Y006676D01*
X009038Y005692D01*
X010219Y004156D02*
X010790Y004156D01*
X011007Y007070D02*
X011007Y007660D01*
X011794Y008448D01*
X011794Y008841D01*
X010377Y008841D01*
X006243Y009826D02*
X006145Y009727D01*
X005219Y009727D01*
X003251Y009727D01*
X005987Y007759D02*
X006086Y007857D01*
X011204Y013881D02*
X011204Y015337D01*
X014944Y018881D02*
X020062Y018881D01*
X021834Y020652D01*
X023408Y020652D01*
X023408Y020908D01*
X023408Y020652D02*
X023610Y020652D01*
X024151Y020112D01*
X025624Y020112D01*
X026952Y021440D01*
X027739Y014550D02*
X029511Y014550D01*
X031086Y014550D01*
X033054Y012582D01*
X017503Y020062D02*
X017432Y020062D01*
X017432Y020362D01*
X016722Y020362D01*
X016722Y020549D01*
X016535Y020549D01*
X016535Y021215D01*
X016058Y021215D01*
X016008Y021205D01*
X015962Y021186D01*
X015928Y021163D01*
X015928Y022424D01*
X015534Y022818D01*
X015534Y023355D01*
X015566Y023342D01*
X015615Y023332D01*
X015906Y023332D01*
X015906Y023855D01*
X015534Y023855D01*
X015534Y023855D01*
X015906Y023855D01*
X015906Y023855D01*
X015906Y023855D01*
X015906Y023332D01*
X016197Y023332D01*
X016247Y023342D01*
X016294Y023361D01*
X016336Y023390D01*
X016372Y023426D01*
X016399Y023465D01*
X016425Y023426D01*
X016461Y023390D01*
X016503Y023361D01*
X016550Y023342D01*
X016600Y023332D01*
X016891Y023332D01*
X017182Y023332D01*
X017231Y023342D01*
X017278Y023361D01*
X017321Y023390D01*
X017356Y023426D01*
X017385Y023468D01*
X017404Y023515D01*
X017414Y023564D01*
X017414Y023855D01*
X016891Y023855D01*
X016891Y023855D01*
X016891Y023332D01*
X016891Y023855D01*
X016891Y023855D01*
X017414Y023855D01*
X017414Y024147D01*
X017404Y024196D01*
X017503Y024196D01*
X017503Y023270D01*
X016772Y023270D01*
X016671Y023228D01*
X016593Y023150D01*
X016551Y023049D01*
X016551Y022142D01*
X016593Y022041D01*
X016671Y021963D01*
X016772Y021921D01*
X017503Y021921D01*
X017503Y020062D01*
X017503Y020132D02*
X017432Y020132D01*
X017503Y020446D02*
X016722Y020446D01*
X016722Y020549D02*
X017432Y020549D01*
X017432Y020983D01*
X017422Y021033D01*
X017402Y021080D01*
X017374Y021122D01*
X017338Y021158D01*
X017296Y021186D01*
X017249Y021205D01*
X017199Y021215D01*
X016722Y021215D01*
X016722Y020549D01*
X016722Y020759D02*
X016535Y020759D01*
X016535Y021073D02*
X016722Y021073D01*
X017405Y021073D02*
X017503Y021073D01*
X017503Y021386D02*
X015928Y021386D01*
X015928Y021700D02*
X017503Y021700D01*
X016621Y022013D02*
X015928Y022013D01*
X015928Y022327D02*
X016551Y022327D01*
X016551Y022640D02*
X015712Y022640D01*
X015534Y022954D02*
X016551Y022954D01*
X016765Y023267D02*
X015534Y023267D01*
X015633Y023605D02*
X015883Y023855D01*
X015906Y023855D01*
X015906Y023855D01*
X016367Y023855D01*
X016891Y023855D01*
X016891Y023855D01*
X015906Y023855D01*
X015906Y023580D02*
X015906Y023580D01*
X015633Y023605D02*
X013960Y023605D01*
X013920Y023566D01*
X013763Y023566D01*
X013723Y023605D01*
X011794Y023605D01*
X012424Y023015D02*
X012975Y023015D01*
X016891Y023580D02*
X016891Y023580D01*
X017414Y023580D02*
X017503Y023580D01*
X017503Y023894D02*
X017414Y023894D01*
X017432Y020759D02*
X017503Y020759D01*
X004121Y018910D02*
X003632Y018910D01*
X003597Y018875D01*
X014353Y006341D02*
X014452Y006243D01*
X014353Y006341D02*
X015436Y006341D01*
D60*
X002641Y005459D02*
X002409Y005632D01*
X002409Y018589D01*
X002434Y018575D01*
X002474Y018564D01*
X002918Y018564D01*
X002918Y018589D01*
X002928Y018593D01*
X002948Y018585D01*
X003036Y018585D01*
X003036Y018564D01*
X003300Y018564D01*
X003300Y018495D01*
X003311Y018455D01*
X003332Y018419D01*
X003362Y018389D01*
X003398Y018368D01*
X003439Y018357D01*
X003587Y018357D01*
X003587Y018626D01*
X003607Y018661D01*
X003607Y018357D01*
X003756Y018357D01*
X003784Y018365D01*
X003813Y018357D01*
X003976Y018357D01*
X003869Y017977D01*
X003869Y017575D01*
X003567Y017749D01*
X003207Y017787D01*
X002862Y017675D01*
X002593Y017432D01*
X002446Y017101D01*
X002446Y016739D01*
X002593Y016408D01*
X002593Y016408D01*
X002593Y016408D01*
X002862Y016165D01*
X002862Y016165D01*
X003207Y016053D01*
X003567Y016091D01*
X003567Y016091D01*
X003881Y016273D01*
X004094Y016566D01*
X004125Y016713D01*
X004307Y016413D01*
X004307Y016413D01*
X004307Y016413D01*
X004713Y016034D01*
X004789Y015995D01*
X004286Y015995D01*
X004008Y015880D01*
X003795Y015667D01*
X003680Y015390D01*
X003680Y011089D01*
X003795Y010811D01*
X004008Y010598D01*
X004286Y010483D01*
X007586Y010483D01*
X007864Y010598D01*
X008077Y010811D01*
X008192Y011089D01*
X008192Y015390D01*
X008077Y015667D01*
X007864Y015880D01*
X007586Y015995D01*
X006976Y015995D01*
X007280Y016210D01*
X007630Y016641D01*
X007851Y017150D01*
X007854Y017168D01*
X008102Y017168D01*
X008092Y017130D01*
X008092Y016912D01*
X008408Y016912D01*
X008408Y016834D01*
X008092Y016834D01*
X008092Y016616D01*
X008103Y016575D01*
X008124Y016539D01*
X008153Y016509D01*
X008189Y016488D01*
X008230Y016478D01*
X008408Y016478D01*
X008408Y016834D01*
X008487Y016834D01*
X008487Y016912D01*
X008804Y016912D01*
X008804Y017130D01*
X008793Y017168D01*
X009105Y017168D01*
X009228Y017219D01*
X009322Y017313D01*
X009373Y017436D01*
X009373Y018467D01*
X009439Y018400D01*
X009439Y018400D01*
X010133Y017707D01*
X010227Y017613D01*
X010350Y017562D01*
X012443Y017562D01*
X012837Y017167D01*
X012837Y016846D01*
X012888Y016723D01*
X013085Y016526D01*
X013179Y016432D01*
X013302Y016381D01*
X013543Y016381D01*
X013546Y016374D01*
X013618Y016302D01*
X013695Y016270D01*
X013665Y016252D01*
X013635Y016223D01*
X013614Y016186D01*
X013604Y016146D01*
X013604Y015967D01*
X013920Y015967D01*
X013920Y015889D01*
X013604Y015889D01*
X013604Y015710D01*
X013614Y015670D01*
X013635Y015634D01*
X013665Y015604D01*
X013701Y015583D01*
X013742Y015572D01*
X013920Y015572D01*
X013920Y015889D01*
X013999Y015889D01*
X013999Y015572D01*
X014177Y015572D01*
X014218Y015583D01*
X014254Y015604D01*
X014284Y015634D01*
X014305Y015670D01*
X014309Y015685D01*
X014333Y015626D01*
X014405Y015554D01*
X014411Y015551D01*
X014411Y015074D01*
X014454Y014970D01*
X014395Y014994D01*
X013917Y014994D01*
X013823Y014955D01*
X013751Y014883D01*
X013712Y014789D01*
X013712Y014311D01*
X013751Y014217D01*
X013775Y014193D01*
X013736Y014176D01*
X013675Y014116D01*
X013666Y014119D01*
X013467Y014119D01*
X013467Y013802D01*
X013389Y013802D01*
X013389Y014119D01*
X013191Y014119D01*
X013150Y014108D01*
X013114Y014087D01*
X013084Y014057D01*
X013063Y014021D01*
X013052Y013980D01*
X013052Y013802D01*
X013389Y013802D01*
X013389Y013723D01*
X013467Y013723D01*
X013467Y013407D01*
X013666Y013407D01*
X013675Y013409D01*
X013736Y013349D01*
X013830Y013310D01*
X014365Y013310D01*
X014412Y013330D01*
X014412Y012102D01*
X014223Y011912D01*
X012716Y011912D01*
X012600Y011864D01*
X012580Y011844D01*
X012343Y011844D01*
X012249Y011806D01*
X012177Y011734D01*
X012138Y011639D01*
X012138Y011322D01*
X012125Y011322D01*
X012009Y011274D01*
X011921Y011185D01*
X011467Y010731D01*
X011279Y010731D01*
X011284Y010750D01*
X011284Y010987D01*
X010987Y010987D01*
X010987Y011026D01*
X011284Y011026D01*
X011284Y011264D01*
X011274Y011302D01*
X011284Y011340D01*
X011284Y011578D01*
X010987Y011578D01*
X010987Y011617D01*
X010948Y011617D01*
X010948Y011993D01*
X010789Y011993D01*
X010749Y011982D01*
X010712Y011961D01*
X010710Y011959D01*
X010700Y011984D01*
X010693Y011991D01*
X010947Y012246D01*
X011614Y012246D01*
X011617Y012240D01*
X011689Y012168D01*
X011783Y012129D01*
X012318Y012129D01*
X012385Y012157D01*
X012452Y012129D01*
X012987Y012129D01*
X013069Y012163D01*
X013130Y012138D01*
X013608Y012138D01*
X013702Y012177D01*
X013774Y012249D01*
X013813Y012343D01*
X013813Y012821D01*
X013774Y012915D01*
X013702Y012987D01*
X013608Y013026D01*
X013130Y013026D01*
X013069Y013000D01*
X012987Y013034D01*
X012452Y013034D01*
X012385Y013006D01*
X012318Y013034D01*
X011783Y013034D01*
X011689Y012995D01*
X011656Y012963D01*
X011656Y014837D01*
X011617Y014931D01*
X011617Y014932D01*
X011617Y015025D01*
X011648Y015098D01*
X011648Y015576D01*
X011609Y015671D01*
X011537Y015743D01*
X011443Y015781D01*
X010965Y015781D01*
X010871Y015743D01*
X010799Y015671D01*
X010760Y015576D01*
X010760Y015098D01*
X010790Y015025D01*
X010790Y014932D01*
X010790Y014931D01*
X010758Y014854D01*
X010740Y014884D01*
X010711Y014914D01*
X010674Y014935D01*
X010634Y014945D01*
X010456Y014945D01*
X010456Y013920D01*
X010377Y013920D01*
X010377Y013841D01*
X010456Y013841D01*
X010456Y012816D01*
X010570Y012816D01*
X010525Y012772D01*
X010524Y012769D01*
X009975Y012220D01*
X009937Y012129D01*
X008775Y012129D01*
X008652Y012078D01*
X008558Y011984D01*
X008507Y011861D01*
X008507Y010940D01*
X008558Y010817D01*
X008586Y010789D01*
X008586Y010365D01*
X008624Y010271D01*
X008696Y010199D01*
X008791Y010160D01*
X009254Y010160D01*
X009392Y010023D01*
X009254Y009885D01*
X008791Y009885D01*
X008696Y009846D01*
X008624Y009774D01*
X008586Y009680D01*
X008586Y009105D01*
X008624Y009011D01*
X008696Y008939D01*
X008791Y008900D01*
X009156Y008900D01*
X009156Y008900D01*
X008909Y008900D01*
X008841Y008873D01*
X008774Y008900D01*
X008527Y008900D01*
X008476Y008952D01*
X008507Y009027D01*
X008507Y009562D01*
X008468Y009656D01*
X008407Y009716D01*
X008410Y009726D01*
X008410Y009924D01*
X008093Y009924D01*
X008093Y010003D01*
X008015Y010003D01*
X008015Y010339D01*
X007836Y010339D01*
X007796Y010328D01*
X007760Y010307D01*
X007730Y010278D01*
X007709Y010241D01*
X007698Y010201D01*
X007698Y010003D01*
X008015Y010003D01*
X008015Y009924D01*
X007698Y009924D01*
X007698Y009726D01*
X007701Y009716D01*
X007640Y009656D01*
X007601Y009562D01*
X007601Y009091D01*
X007501Y009192D01*
X007349Y009255D01*
X005802Y009255D01*
X005826Y009314D01*
X006227Y009314D01*
X006369Y009373D01*
X006530Y009373D01*
X006624Y009412D01*
X006696Y009484D01*
X006728Y009561D01*
X006746Y009531D01*
X006775Y009502D01*
X006812Y009481D01*
X006852Y009470D01*
X007070Y009470D01*
X007070Y009786D01*
X007149Y009786D01*
X007149Y009865D01*
X007504Y009865D01*
X007504Y010043D01*
X007494Y010084D01*
X007473Y010120D01*
X007443Y010150D01*
X007407Y010171D01*
X007366Y010182D01*
X007149Y010182D01*
X007149Y009865D01*
X007070Y009865D01*
X007070Y010182D01*
X006852Y010182D01*
X006812Y010171D01*
X006775Y010150D01*
X006746Y010120D01*
X006728Y010090D01*
X006696Y010167D01*
X006624Y010239D01*
X006530Y010278D01*
X005956Y010278D01*
X005862Y010239D01*
X005808Y010185D01*
X005791Y010227D01*
X005719Y010299D01*
X005625Y010337D01*
X004814Y010337D01*
X004720Y010299D01*
X004648Y010227D01*
X004613Y010141D01*
X003858Y010141D01*
X003822Y010227D01*
X003750Y010299D01*
X003656Y010337D01*
X002846Y010337D01*
X002752Y010299D01*
X002680Y010227D01*
X002641Y010132D01*
X002641Y009322D01*
X002677Y009235D01*
X002641Y009148D01*
X002641Y008338D01*
X002677Y008251D01*
X002641Y008164D01*
X002641Y007354D01*
X002677Y007267D01*
X002641Y007180D01*
X002641Y006369D01*
X002677Y006282D01*
X002641Y006195D01*
X002641Y005459D01*
X002641Y005567D02*
X002497Y005567D01*
X002409Y005683D02*
X002641Y005683D01*
X002641Y005800D02*
X002409Y005800D01*
X002409Y005916D02*
X002641Y005916D01*
X002641Y006033D02*
X002409Y006033D01*
X002409Y006150D02*
X002641Y006150D01*
X002670Y006266D02*
X002409Y006266D01*
X002409Y006383D02*
X002641Y006383D01*
X002641Y006499D02*
X002409Y006499D01*
X002409Y006616D02*
X002641Y006616D01*
X002641Y006733D02*
X002409Y006733D01*
X002409Y006849D02*
X002641Y006849D01*
X002641Y006966D02*
X002409Y006966D01*
X002409Y007083D02*
X002641Y007083D01*
X002649Y007199D02*
X002409Y007199D01*
X002409Y007316D02*
X002656Y007316D01*
X002641Y007432D02*
X002409Y007432D01*
X002409Y007549D02*
X002641Y007549D01*
X002641Y007666D02*
X002409Y007666D01*
X002409Y007782D02*
X002641Y007782D01*
X002641Y007899D02*
X002409Y007899D01*
X002409Y008015D02*
X002641Y008015D01*
X002641Y008132D02*
X002409Y008132D01*
X002409Y008249D02*
X002676Y008249D01*
X002641Y008365D02*
X002409Y008365D01*
X002409Y008482D02*
X002641Y008482D01*
X002641Y008598D02*
X002409Y008598D01*
X002409Y008715D02*
X002641Y008715D01*
X002641Y008832D02*
X002409Y008832D01*
X002409Y008948D02*
X002641Y008948D01*
X002641Y009065D02*
X002409Y009065D01*
X002409Y009182D02*
X002654Y009182D01*
X002651Y009298D02*
X002409Y009298D01*
X002409Y009415D02*
X002641Y009415D01*
X002641Y009531D02*
X002409Y009531D01*
X002409Y009648D02*
X002641Y009648D01*
X002641Y009765D02*
X002409Y009765D01*
X002409Y009881D02*
X002641Y009881D01*
X002641Y009998D02*
X002409Y009998D01*
X002409Y010114D02*
X002641Y010114D01*
X002684Y010231D02*
X002409Y010231D01*
X002409Y010348D02*
X008593Y010348D01*
X008586Y010464D02*
X002409Y010464D01*
X002409Y010581D02*
X004050Y010581D01*
X003909Y010697D02*
X002409Y010697D01*
X002409Y010814D02*
X003794Y010814D01*
X003746Y010931D02*
X002409Y010931D01*
X002409Y011047D02*
X003697Y011047D01*
X003680Y011164D02*
X002409Y011164D01*
X002409Y011280D02*
X003680Y011280D01*
X003680Y011397D02*
X002409Y011397D01*
X002409Y011514D02*
X003680Y011514D01*
X003680Y011630D02*
X002409Y011630D01*
X002409Y011747D02*
X003680Y011747D01*
X003680Y011864D02*
X002409Y011864D01*
X002409Y011980D02*
X003680Y011980D01*
X003680Y012097D02*
X002409Y012097D01*
X002409Y012213D02*
X003680Y012213D01*
X003680Y012330D02*
X002409Y012330D01*
X002409Y012447D02*
X003680Y012447D01*
X003680Y012563D02*
X002409Y012563D01*
X002409Y012680D02*
X003680Y012680D01*
X003680Y012796D02*
X002409Y012796D01*
X002409Y012913D02*
X003680Y012913D01*
X003680Y013030D02*
X002409Y013030D01*
X002409Y013146D02*
X003680Y013146D01*
X003680Y013263D02*
X002409Y013263D01*
X002409Y013379D02*
X003680Y013379D01*
X003680Y013496D02*
X002409Y013496D01*
X002409Y013613D02*
X003680Y013613D01*
X003680Y013729D02*
X002409Y013729D01*
X002409Y013846D02*
X003680Y013846D01*
X003680Y013963D02*
X002409Y013963D01*
X002409Y014079D02*
X003680Y014079D01*
X003680Y014196D02*
X002409Y014196D01*
X002409Y014312D02*
X003680Y014312D01*
X003680Y014429D02*
X002409Y014429D01*
X002409Y014546D02*
X003680Y014546D01*
X003680Y014662D02*
X002409Y014662D01*
X002409Y014779D02*
X003680Y014779D01*
X003680Y014895D02*
X002409Y014895D01*
X002409Y015012D02*
X003680Y015012D01*
X003680Y015129D02*
X002409Y015129D01*
X002409Y015245D02*
X003680Y015245D01*
X003680Y015362D02*
X002409Y015362D01*
X002409Y015478D02*
X003717Y015478D01*
X003765Y015595D02*
X002409Y015595D01*
X002409Y015712D02*
X003840Y015712D01*
X003956Y015828D02*
X002409Y015828D01*
X002409Y015945D02*
X004165Y015945D01*
X003881Y016273D02*
X003881Y016273D01*
X003881Y016273D01*
X003897Y016295D02*
X004434Y016295D01*
X004310Y016411D02*
X003982Y016411D01*
X004067Y016528D02*
X004238Y016528D01*
X004167Y016645D02*
X004111Y016645D01*
X004094Y016566D02*
X004094Y016566D01*
X003718Y016178D02*
X004559Y016178D01*
X004684Y016062D02*
X003284Y016062D01*
X003207Y016053D02*
X003207Y016053D01*
X003182Y016062D02*
X002409Y016062D01*
X002409Y016178D02*
X002848Y016178D01*
X002719Y016295D02*
X002409Y016295D01*
X002409Y016411D02*
X002592Y016411D01*
X002540Y016528D02*
X002409Y016528D01*
X002409Y016645D02*
X002488Y016645D01*
X002446Y016761D02*
X002409Y016761D01*
X002409Y016878D02*
X002446Y016878D01*
X002446Y016994D02*
X002409Y016994D01*
X002409Y017111D02*
X002450Y017111D01*
X002409Y017228D02*
X002502Y017228D01*
X002554Y017344D02*
X002409Y017344D01*
X002409Y017461D02*
X002625Y017461D01*
X002593Y017432D02*
X002593Y017432D01*
X002754Y017577D02*
X002409Y017577D01*
X002409Y017694D02*
X002922Y017694D01*
X002862Y017675D02*
X002862Y017675D01*
X003207Y017787D02*
X003207Y017787D01*
X003567Y017749D02*
X003567Y017749D01*
X003662Y017694D02*
X003869Y017694D01*
X003864Y017577D02*
X003869Y017577D01*
X003869Y017811D02*
X002409Y017811D01*
X002409Y017927D02*
X003869Y017927D01*
X003888Y018044D02*
X002409Y018044D01*
X002409Y018161D02*
X003921Y018161D01*
X003953Y018277D02*
X002409Y018277D01*
X002409Y018394D02*
X003357Y018394D01*
X003300Y018510D02*
X002409Y018510D01*
X003587Y018510D02*
X003607Y018510D01*
X003607Y018394D02*
X003587Y018394D01*
X003588Y018627D02*
X003607Y018627D01*
X002889Y019732D02*
X002771Y019732D01*
X002771Y020372D01*
X002889Y020372D01*
X002889Y020112D01*
X002889Y019732D01*
X002889Y019793D02*
X002771Y019793D01*
X002771Y019910D02*
X002889Y019910D01*
X002889Y020026D02*
X002771Y020026D01*
X002771Y020143D02*
X002889Y020143D01*
X002889Y020259D02*
X002771Y020259D01*
X004062Y021390D02*
X004062Y021746D01*
X003813Y021746D01*
X003784Y021739D01*
X003756Y021746D01*
X003659Y021746D01*
X003659Y024720D01*
X010278Y027173D01*
X010029Y026764D01*
X010029Y026764D01*
X009879Y026229D01*
X009879Y025674D01*
X010029Y025140D01*
X010317Y024665D01*
X010723Y024286D01*
X011084Y024100D01*
X010638Y023654D01*
X010611Y023589D01*
X010562Y023589D01*
X010468Y023550D01*
X010396Y023479D01*
X010392Y023469D01*
X010278Y023469D01*
X010278Y022877D01*
X010160Y022877D01*
X010160Y023469D01*
X010047Y023469D01*
X010043Y023479D01*
X009971Y023550D01*
X009877Y023589D01*
X009845Y023589D01*
X009845Y024530D01*
X009800Y024639D01*
X009289Y025150D01*
X009206Y025233D01*
X009097Y025278D01*
X009038Y025278D01*
X009019Y025325D01*
X008947Y025397D01*
X008853Y025436D01*
X008318Y025436D01*
X008224Y025397D01*
X008163Y025336D01*
X008154Y025339D01*
X007956Y025339D01*
X007956Y025023D01*
X007877Y025023D01*
X007877Y025339D01*
X007679Y025339D01*
X007638Y025328D01*
X007602Y025307D01*
X007572Y025278D01*
X007551Y025241D01*
X007541Y025201D01*
X007541Y025023D01*
X007877Y025023D01*
X007877Y024944D01*
X007541Y024944D01*
X007541Y024765D01*
X007551Y024725D01*
X007572Y024689D01*
X007602Y024659D01*
X007638Y024638D01*
X007679Y024627D01*
X007877Y024627D01*
X007877Y024944D01*
X007956Y024944D01*
X007956Y024627D01*
X008154Y024627D01*
X008163Y024630D01*
X008224Y024569D01*
X008318Y024530D01*
X008853Y024530D01*
X008947Y024569D01*
X008991Y024613D01*
X009255Y024349D01*
X009255Y023665D01*
X009228Y023692D01*
X009105Y023743D01*
X008684Y023743D01*
X008684Y023782D01*
X009000Y023782D01*
X009000Y023980D01*
X008990Y024021D01*
X008969Y024057D01*
X008939Y024087D01*
X008903Y024108D01*
X008862Y024119D01*
X008684Y024119D01*
X008684Y023782D01*
X008605Y023782D01*
X008605Y023743D01*
X007791Y023743D01*
X007668Y023692D01*
X007573Y023598D01*
X007523Y023475D01*
X007523Y022365D01*
X005428Y022365D01*
X005305Y022314D01*
X005211Y022220D01*
X005190Y022168D01*
X005050Y022168D01*
X005045Y022166D01*
X004845Y022366D01*
X004845Y022645D01*
X005501Y022645D01*
X005595Y022684D01*
X005667Y022756D01*
X005706Y022850D01*
X005706Y022947D01*
X005780Y023021D01*
X006173Y023415D01*
X006225Y023538D01*
X006225Y023860D01*
X006376Y024011D01*
X006341Y023928D01*
X006341Y023418D01*
X006271Y023348D01*
X006232Y023254D01*
X006232Y022776D01*
X006271Y022682D01*
X006343Y022610D01*
X006437Y022571D01*
X006915Y022571D01*
X007009Y022610D01*
X007081Y022682D01*
X007120Y022776D01*
X007120Y023254D01*
X007081Y023348D01*
X007011Y023418D01*
X007011Y023722D01*
X007071Y023782D01*
X007318Y023782D01*
X007412Y023821D01*
X007484Y023893D01*
X007523Y023987D01*
X007523Y024522D01*
X007495Y024589D01*
X007523Y024657D01*
X007523Y025192D01*
X007484Y025286D01*
X007412Y025358D01*
X007318Y025397D01*
X006822Y025397D01*
X006728Y025358D01*
X006656Y025286D01*
X006624Y025209D01*
X006624Y025209D01*
X005706Y024291D01*
X005706Y024554D01*
X005667Y024648D01*
X005595Y024720D01*
X005501Y024759D01*
X004796Y024759D01*
X004702Y024720D01*
X004630Y024648D01*
X004591Y024554D01*
X004591Y024356D01*
X004321Y024086D01*
X004227Y023992D01*
X004176Y023869D01*
X004176Y022161D01*
X004227Y022038D01*
X004321Y021944D01*
X004778Y021487D01*
X004778Y021487D01*
X004845Y021419D01*
X004845Y021389D01*
X004884Y021295D01*
X004936Y021243D01*
X004884Y021191D01*
X004845Y021097D01*
X004845Y020898D01*
X004570Y020898D01*
X004584Y020930D01*
X004584Y021083D01*
X004567Y021122D01*
X004567Y021134D01*
X004562Y021134D01*
X004525Y021224D01*
X004496Y021252D01*
X004567Y021252D01*
X004567Y021608D01*
X004557Y021648D01*
X004536Y021685D01*
X004506Y021714D01*
X004470Y021735D01*
X004429Y021746D01*
X004180Y021746D01*
X004180Y021390D01*
X004123Y021390D01*
X004121Y021389D01*
X004119Y021390D01*
X004062Y021390D01*
X004062Y021426D02*
X004180Y021426D01*
X004180Y021542D02*
X004062Y021542D01*
X004062Y021659D02*
X004180Y021659D01*
X004373Y021892D02*
X003659Y021892D01*
X003659Y021775D02*
X004489Y021775D01*
X004551Y021659D02*
X004606Y021659D01*
X004567Y021542D02*
X004722Y021542D01*
X004839Y021426D02*
X004567Y021426D01*
X004567Y021309D02*
X004878Y021309D01*
X004886Y021192D02*
X004538Y021192D01*
X004584Y021076D02*
X004845Y021076D01*
X004845Y020959D02*
X004584Y020959D01*
X004321Y021944D02*
X004321Y021944D01*
X004256Y022009D02*
X003659Y022009D01*
X003659Y022125D02*
X004191Y022125D01*
X004176Y022242D02*
X003659Y022242D01*
X003659Y022358D02*
X004176Y022358D01*
X004176Y022475D02*
X003659Y022475D01*
X003659Y022592D02*
X004176Y022592D01*
X004176Y022708D02*
X003659Y022708D01*
X003659Y022825D02*
X004176Y022825D01*
X004176Y022942D02*
X003659Y022942D01*
X003659Y023058D02*
X004176Y023058D01*
X004176Y023175D02*
X003659Y023175D01*
X003659Y023291D02*
X004176Y023291D01*
X004176Y023408D02*
X003659Y023408D01*
X003659Y023525D02*
X004176Y023525D01*
X004176Y023641D02*
X003659Y023641D01*
X003659Y023758D02*
X004176Y023758D01*
X004178Y023874D02*
X003659Y023874D01*
X003659Y023991D02*
X004227Y023991D01*
X004343Y024108D02*
X003659Y024108D01*
X003659Y024224D02*
X004460Y024224D01*
X004576Y024341D02*
X003659Y024341D01*
X003659Y024457D02*
X004591Y024457D01*
X004600Y024574D02*
X003659Y024574D01*
X003659Y024691D02*
X004673Y024691D01*
X004524Y025041D02*
X006455Y025041D01*
X006572Y025157D02*
X004839Y025157D01*
X005153Y025274D02*
X006651Y025274D01*
X006807Y025390D02*
X005468Y025390D01*
X005782Y025507D02*
X009926Y025507D01*
X009893Y025624D02*
X006097Y025624D01*
X006412Y025740D02*
X009879Y025740D01*
X009879Y025857D02*
X006726Y025857D01*
X007041Y025973D02*
X009879Y025973D01*
X009879Y026090D02*
X007356Y026090D01*
X007670Y026207D02*
X009879Y026207D01*
X009905Y026323D02*
X007985Y026323D01*
X008300Y026440D02*
X009938Y026440D01*
X009971Y026556D02*
X008614Y026556D01*
X008929Y026673D02*
X010003Y026673D01*
X010045Y026790D02*
X009244Y026790D01*
X009558Y026906D02*
X010116Y026906D01*
X010186Y027023D02*
X009873Y027023D01*
X010188Y027140D02*
X010257Y027140D01*
X012341Y027938D02*
X020445Y030941D01*
X020917Y030941D01*
X020779Y030714D01*
X020779Y030714D01*
X020629Y030179D01*
X020629Y029624D01*
X020779Y029090D01*
X020779Y029090D01*
X021067Y028615D01*
X021473Y028236D01*
X021966Y027981D01*
X022509Y027868D01*
X022509Y027868D01*
X023063Y027906D01*
X023063Y027906D01*
X023586Y028092D01*
X024040Y028412D01*
X024390Y028843D01*
X024611Y029352D01*
X024687Y029902D01*
X024611Y030452D01*
X024399Y030941D01*
X029354Y030941D01*
X032247Y028048D01*
X032247Y026013D01*
X031953Y026013D01*
X031859Y025974D01*
X031801Y025916D01*
X031709Y025916D01*
X031709Y025087D01*
X031669Y025087D01*
X031669Y025916D01*
X031577Y025916D01*
X031519Y025974D01*
X031425Y026013D01*
X031008Y026013D01*
X030980Y026001D01*
X030952Y026013D01*
X030536Y026013D01*
X030508Y026001D01*
X030480Y026013D01*
X030063Y026013D01*
X030035Y026001D01*
X030007Y026013D01*
X029591Y026013D01*
X029563Y026001D01*
X029535Y026013D01*
X029118Y026013D01*
X029090Y026001D01*
X029063Y026013D01*
X028646Y026013D01*
X028618Y026001D01*
X028590Y026013D01*
X028173Y026013D01*
X028146Y026001D01*
X028118Y026013D01*
X027701Y026013D01*
X027673Y026001D01*
X027645Y026013D01*
X027326Y026013D01*
X027326Y026194D01*
X027357Y026225D01*
X027396Y026319D01*
X027396Y026797D01*
X027357Y026891D01*
X027285Y026963D01*
X027191Y027002D01*
X026713Y027002D01*
X026619Y026963D01*
X026547Y026891D01*
X026508Y026797D01*
X026508Y026319D01*
X026547Y026225D01*
X026578Y026194D01*
X026578Y025916D01*
X026512Y025916D01*
X026512Y025087D01*
X026472Y025087D01*
X026472Y025048D01*
X026175Y025048D01*
X026175Y024463D01*
X026158Y024481D01*
X026034Y024532D01*
X022758Y024532D01*
X022725Y024565D01*
X022725Y026178D01*
X022734Y026182D01*
X022806Y026254D01*
X022844Y026348D01*
X022844Y026846D01*
X022806Y026940D01*
X022734Y027012D01*
X022639Y027051D01*
X022142Y027051D01*
X022048Y027012D01*
X021976Y026940D01*
X021937Y026846D01*
X021937Y026348D01*
X021976Y026254D01*
X022048Y026182D01*
X022056Y026178D01*
X022056Y024359D01*
X022107Y024237D01*
X022168Y024175D01*
X022168Y023672D01*
X022196Y023605D01*
X022168Y023538D01*
X022168Y023003D01*
X022207Y022909D01*
X022279Y022837D01*
X022286Y022834D01*
X022286Y022751D01*
X022337Y022628D01*
X022571Y022395D01*
X022571Y022185D01*
X022610Y022091D01*
X022682Y022019D01*
X022776Y021980D01*
X023254Y021980D01*
X023348Y022019D01*
X023420Y022091D01*
X023459Y022185D01*
X023459Y022663D01*
X023420Y022757D01*
X023348Y022829D01*
X023254Y022868D01*
X023044Y022868D01*
X023019Y022893D01*
X023035Y022909D01*
X023074Y023003D01*
X023074Y023538D01*
X023046Y023605D01*
X023074Y023672D01*
X023074Y023860D01*
X025830Y023860D01*
X025920Y023770D01*
X025291Y023770D01*
X025291Y023473D01*
X026120Y023473D01*
X026120Y023570D01*
X026274Y023416D01*
X026368Y023321D01*
X026491Y023271D01*
X029698Y023271D01*
X029768Y023200D01*
X029862Y023161D01*
X030340Y023161D01*
X030434Y023200D01*
X030506Y023272D01*
X030545Y023366D01*
X030545Y023844D01*
X030506Y023938D01*
X030434Y024010D01*
X030340Y024049D01*
X029862Y024049D01*
X029768Y024010D01*
X029698Y023940D01*
X026697Y023940D01*
X026417Y024220D01*
X026472Y024220D01*
X026472Y025048D01*
X026512Y025048D01*
X026512Y024220D01*
X026604Y024220D01*
X026662Y024162D01*
X026756Y024123D01*
X027173Y024123D01*
X027201Y024134D01*
X027229Y024123D01*
X027645Y024123D01*
X027673Y024134D01*
X027701Y024123D01*
X028118Y024123D01*
X028146Y024134D01*
X028173Y024123D01*
X028590Y024123D01*
X028618Y024134D01*
X028646Y024123D01*
X029063Y024123D01*
X029090Y024134D01*
X029118Y024123D01*
X029535Y024123D01*
X029563Y024134D01*
X029591Y024123D01*
X030007Y024123D01*
X030035Y024134D01*
X030063Y024123D01*
X030480Y024123D01*
X030508Y024134D01*
X030536Y024123D01*
X030952Y024123D01*
X030980Y024134D01*
X031008Y024123D01*
X031425Y024123D01*
X031519Y024162D01*
X031577Y024220D01*
X031669Y024220D01*
X031669Y025048D01*
X031709Y025048D01*
X031709Y024220D01*
X031801Y024220D01*
X031859Y024162D01*
X031953Y024123D01*
X032247Y024123D01*
X032247Y020501D01*
X031953Y020501D01*
X031925Y020489D01*
X031897Y020501D01*
X031480Y020501D01*
X031453Y020489D01*
X031425Y020501D01*
X031008Y020501D01*
X030980Y020489D01*
X030952Y020501D01*
X030536Y020501D01*
X030508Y020489D01*
X030480Y020501D01*
X030063Y020501D01*
X030035Y020489D01*
X030007Y020501D01*
X029591Y020501D01*
X029563Y020489D01*
X029535Y020501D01*
X029118Y020501D01*
X029090Y020489D01*
X029063Y020501D01*
X028646Y020501D01*
X028618Y020489D01*
X028590Y020501D01*
X028173Y020501D01*
X028146Y020489D01*
X028118Y020501D01*
X027701Y020501D01*
X027673Y020489D01*
X027645Y020501D01*
X027229Y020501D01*
X027201Y020489D01*
X027173Y020501D01*
X026756Y020501D01*
X026728Y020489D01*
X026700Y020501D01*
X026597Y020501D01*
X027092Y020996D01*
X027191Y020996D01*
X027285Y021035D01*
X027357Y021107D01*
X027396Y021201D01*
X027396Y021679D01*
X027357Y021773D01*
X027285Y021845D01*
X027191Y021884D01*
X026713Y021884D01*
X026619Y021845D01*
X026547Y021773D01*
X026508Y021679D01*
X026508Y021580D01*
X026120Y021192D01*
X026120Y021192D01*
X026120Y021204D01*
X026177Y021261D01*
X026216Y021355D01*
X026216Y021772D01*
X026205Y021800D01*
X026216Y021828D01*
X026216Y022245D01*
X026205Y022273D01*
X026216Y022300D01*
X026216Y022717D01*
X026205Y022745D01*
X026216Y022773D01*
X026216Y023190D01*
X026177Y023284D01*
X026120Y023342D01*
X026120Y023434D01*
X025291Y023434D01*
X025291Y023473D01*
X025252Y023473D01*
X025252Y023434D01*
X024424Y023434D01*
X024424Y023342D01*
X024366Y023284D01*
X024327Y023190D01*
X024327Y022773D01*
X024338Y022745D01*
X024327Y022717D01*
X024327Y022300D01*
X024338Y022273D01*
X024327Y022245D01*
X024327Y021828D01*
X024338Y021800D01*
X024327Y021772D01*
X024327Y021355D01*
X024366Y021261D01*
X024424Y021204D01*
X024424Y021111D01*
X025252Y021111D01*
X025252Y021072D01*
X024424Y021072D01*
X024424Y020913D01*
X024434Y020873D01*
X024455Y020836D01*
X024485Y020807D01*
X024521Y020786D01*
X024562Y020775D01*
X025252Y020775D01*
X025252Y021072D01*
X025291Y021072D01*
X025291Y020775D01*
X025702Y020775D01*
X025453Y020525D01*
X024322Y020525D01*
X023861Y020986D01*
X023861Y021176D01*
X023822Y021270D01*
X023762Y021330D01*
X023764Y021340D01*
X023764Y021538D01*
X023448Y021538D01*
X023448Y021617D01*
X023764Y021617D01*
X023764Y021815D01*
X023753Y021856D01*
X023732Y021892D01*
X024327Y021892D01*
X024328Y021775D02*
X023764Y021775D01*
X023764Y021659D02*
X024327Y021659D01*
X024327Y021542D02*
X023448Y021542D01*
X023448Y021617D02*
X023369Y021617D01*
X023369Y021953D01*
X023191Y021953D01*
X023150Y021942D01*
X023114Y021921D01*
X023084Y021892D01*
X023063Y021856D01*
X023052Y021815D01*
X023052Y021617D01*
X023369Y021617D01*
X023369Y021538D01*
X023052Y021538D01*
X023052Y021340D01*
X023055Y021330D01*
X022995Y021270D01*
X022956Y021176D01*
X022956Y021066D01*
X021751Y021066D01*
X021599Y021003D01*
X021483Y020887D01*
X021293Y020697D01*
X021293Y020891D01*
X021254Y020986D01*
X021182Y021057D01*
X021088Y021096D01*
X020610Y021096D01*
X020516Y021057D01*
X020444Y020986D01*
X020405Y020891D01*
X020405Y020682D01*
X019869Y020145D01*
X019869Y020397D01*
X019223Y020397D01*
X019223Y020515D01*
X019105Y020515D01*
X019105Y021117D01*
X018598Y021117D01*
X018558Y021106D01*
X018521Y021085D01*
X018492Y021055D01*
X018471Y021019D01*
X018460Y020978D01*
X018460Y020515D01*
X019105Y020515D01*
X019105Y020397D01*
X018460Y020397D01*
X018460Y019933D01*
X018471Y019892D01*
X018492Y019856D01*
X018521Y019826D01*
X018557Y019806D01*
X017832Y019806D01*
X017853Y019828D01*
X017916Y019980D01*
X017916Y024278D01*
X017853Y024430D01*
X017737Y024546D01*
X017585Y024609D01*
X017412Y024609D01*
X017412Y025156D01*
X017373Y025250D01*
X017301Y025322D01*
X017279Y025332D01*
X017301Y025341D01*
X017373Y025413D01*
X017412Y025507D01*
X022056Y025507D01*
X022056Y025624D02*
X017412Y025624D01*
X017412Y025740D02*
X022056Y025740D01*
X022056Y025857D02*
X017412Y025857D01*
X017412Y025973D02*
X022056Y025973D01*
X022056Y026090D02*
X017412Y026090D01*
X017412Y026141D02*
X017373Y026235D01*
X017301Y026307D01*
X017207Y026346D01*
X016574Y026346D01*
X016480Y026307D01*
X016408Y026235D01*
X016399Y026212D01*
X016389Y026235D01*
X016317Y026307D01*
X016223Y026346D01*
X015590Y026346D01*
X015496Y026307D01*
X015424Y026235D01*
X015385Y026141D01*
X015385Y025507D01*
X013876Y025507D01*
X013861Y025402D02*
X013937Y025952D01*
X013861Y026502D01*
X013640Y027011D01*
X013290Y027441D01*
X013290Y027441D01*
X012836Y027762D01*
X012341Y027938D01*
X012390Y027956D02*
X022087Y027956D01*
X021966Y027981D02*
X021966Y027981D01*
X021789Y028072D02*
X012705Y028072D01*
X012618Y027839D02*
X029521Y027839D01*
X029554Y027913D02*
X029406Y027582D01*
X029406Y027219D01*
X029554Y026888D01*
X029823Y026646D01*
X030168Y026534D01*
X030528Y026572D01*
X030842Y026753D01*
X031055Y027046D01*
X031055Y027046D01*
X031130Y027400D01*
X031055Y027755D01*
X030842Y028048D01*
X030842Y028048D01*
X030842Y028048D01*
X030528Y028229D01*
X030168Y028267D01*
X030168Y028267D01*
X029823Y028155D01*
X029554Y027913D01*
X029554Y027913D01*
X029602Y027956D02*
X023204Y027956D01*
X023532Y028072D02*
X029731Y028072D01*
X029823Y028155D02*
X029823Y028155D01*
X029927Y028189D02*
X023724Y028189D01*
X023586Y028092D02*
X023586Y028092D01*
X023889Y028306D02*
X031990Y028306D01*
X031873Y028422D02*
X024048Y028422D01*
X024040Y028412D02*
X024040Y028412D01*
X024040Y028412D01*
X024143Y028539D02*
X031756Y028539D01*
X031640Y028655D02*
X024238Y028655D01*
X024333Y028772D02*
X031523Y028772D01*
X031407Y028889D02*
X026307Y028889D01*
X026312Y028898D02*
X026323Y028939D01*
X026323Y029137D01*
X026007Y029137D01*
X026007Y029215D01*
X026323Y029215D01*
X026323Y029414D01*
X026321Y029423D01*
X026381Y029484D01*
X026401Y029531D01*
X026841Y029531D01*
X026841Y029475D01*
X026880Y029381D01*
X026952Y029309D01*
X027046Y029270D01*
X027751Y029270D01*
X027845Y029309D01*
X027899Y029362D01*
X027952Y029309D01*
X028046Y029270D01*
X028751Y029270D01*
X028845Y029309D01*
X028917Y029381D01*
X028956Y029475D01*
X028956Y030179D01*
X028917Y030273D01*
X028845Y030345D01*
X028751Y030384D01*
X028046Y030384D01*
X027952Y030345D01*
X027899Y030291D01*
X027845Y030345D01*
X027751Y030384D01*
X027046Y030384D01*
X026952Y030345D01*
X026880Y030273D01*
X026841Y030179D01*
X026841Y030122D01*
X026416Y030122D01*
X026381Y030207D01*
X026309Y030279D01*
X026215Y030318D01*
X025720Y030318D01*
X025626Y030279D01*
X025554Y030207D01*
X025515Y030113D01*
X025515Y029578D01*
X025554Y029484D01*
X025614Y029423D01*
X025611Y029414D01*
X025611Y029215D01*
X025928Y029215D01*
X025928Y029137D01*
X025611Y029137D01*
X025611Y028939D01*
X025622Y028898D01*
X025643Y028862D01*
X025673Y028832D01*
X025709Y028811D01*
X025750Y028800D01*
X025928Y028800D01*
X025928Y029137D01*
X026007Y029137D01*
X026007Y028800D01*
X026185Y028800D01*
X026226Y028811D01*
X026262Y028832D01*
X026292Y028862D01*
X026312Y028898D01*
X026323Y029005D02*
X031290Y029005D01*
X031173Y029122D02*
X026323Y029122D01*
X026323Y029239D02*
X031057Y029239D01*
X030940Y029355D02*
X028891Y029355D01*
X028954Y029472D02*
X030824Y029472D01*
X030707Y029588D02*
X028956Y029588D01*
X028956Y029705D02*
X030590Y029705D01*
X030474Y029822D02*
X028956Y029822D01*
X028956Y029938D02*
X030357Y029938D01*
X030241Y030055D02*
X028956Y030055D01*
X028956Y030171D02*
X030124Y030171D01*
X030007Y030288D02*
X028901Y030288D01*
X029424Y030871D02*
X024429Y030871D01*
X024480Y030754D02*
X029541Y030754D01*
X029657Y030638D02*
X024530Y030638D01*
X024581Y030521D02*
X029774Y030521D01*
X029891Y030405D02*
X024618Y030405D01*
X024634Y030288D02*
X025648Y030288D01*
X025539Y030171D02*
X024650Y030171D01*
X024666Y030055D02*
X025515Y030055D01*
X025515Y029938D02*
X024682Y029938D01*
X024687Y029902D02*
X024687Y029902D01*
X024676Y029822D02*
X025515Y029822D01*
X025515Y029705D02*
X024660Y029705D01*
X024644Y029588D02*
X025515Y029588D01*
X025566Y029472D02*
X024628Y029472D01*
X024612Y029355D02*
X025611Y029355D01*
X025611Y029239D02*
X024562Y029239D01*
X024611Y029352D02*
X024611Y029352D01*
X024511Y029122D02*
X025611Y029122D01*
X025611Y029005D02*
X024461Y029005D01*
X024410Y028889D02*
X025628Y028889D01*
X025928Y028889D02*
X026007Y028889D01*
X026007Y029005D02*
X025928Y029005D01*
X025928Y029122D02*
X026007Y029122D01*
X026323Y029355D02*
X026906Y029355D01*
X026843Y029472D02*
X026369Y029472D01*
X026396Y030171D02*
X026841Y030171D01*
X026896Y030288D02*
X026287Y030288D01*
X027891Y029355D02*
X027906Y029355D01*
X029469Y027723D02*
X016059Y027723D01*
X016021Y027738D02*
X016115Y027699D01*
X016187Y027627D01*
X016226Y027533D01*
X016226Y026634D01*
X016187Y026540D01*
X016115Y026468D01*
X016021Y026429D01*
X015122Y026429D01*
X015028Y026468D01*
X014956Y026540D01*
X014917Y026634D01*
X014917Y027533D01*
X014956Y027627D01*
X015028Y027699D01*
X015122Y027738D01*
X016021Y027738D01*
X016196Y027606D02*
X029417Y027606D01*
X029406Y027489D02*
X016226Y027489D01*
X016226Y027373D02*
X029406Y027373D01*
X029406Y027256D02*
X016226Y027256D01*
X016226Y027140D02*
X029442Y027140D01*
X029494Y027023D02*
X023690Y027023D01*
X023718Y027012D02*
X023624Y027051D01*
X023126Y027051D01*
X023032Y027012D01*
X022960Y026940D01*
X022921Y026846D01*
X022921Y026348D01*
X022960Y026254D01*
X023032Y026182D01*
X023126Y026143D01*
X023354Y026143D01*
X023479Y026017D01*
X023603Y025966D01*
X024952Y025966D01*
X024963Y025941D01*
X025024Y025880D01*
X025021Y025870D01*
X025021Y025672D01*
X025337Y025672D01*
X025337Y025593D01*
X025021Y025593D01*
X025021Y025395D01*
X025032Y025355D01*
X025053Y025319D01*
X025082Y025289D01*
X025119Y025268D01*
X025159Y025257D01*
X025337Y025257D01*
X025337Y025593D01*
X025416Y025593D01*
X025416Y025257D01*
X025595Y025257D01*
X025635Y025268D01*
X025671Y025289D01*
X025701Y025319D01*
X025722Y025355D01*
X025733Y025395D01*
X025733Y025593D01*
X025416Y025593D01*
X025416Y025672D01*
X025733Y025672D01*
X025733Y025870D01*
X025730Y025880D01*
X025791Y025941D01*
X025830Y026035D01*
X025830Y026569D01*
X025791Y026664D01*
X025719Y026736D01*
X025625Y026774D01*
X025129Y026774D01*
X025035Y026736D01*
X024963Y026664D01*
X024952Y026638D01*
X023829Y026638D01*
X023829Y026846D01*
X023790Y026940D01*
X023718Y027012D01*
X023804Y026906D02*
X026562Y026906D01*
X026508Y026790D02*
X023829Y026790D01*
X023829Y026673D02*
X024973Y026673D01*
X025781Y026673D02*
X026508Y026673D01*
X026508Y026556D02*
X025830Y026556D01*
X025830Y026440D02*
X026508Y026440D01*
X026508Y026323D02*
X025830Y026323D01*
X025830Y026207D02*
X026565Y026207D01*
X026578Y026090D02*
X025830Y026090D01*
X025804Y025973D02*
X026578Y025973D01*
X026472Y025916D02*
X026314Y025916D01*
X026273Y025905D01*
X026237Y025884D01*
X026207Y025854D01*
X026186Y025818D01*
X026175Y025778D01*
X026175Y025087D01*
X026472Y025087D01*
X026472Y025916D01*
X026472Y025857D02*
X026512Y025857D01*
X026512Y025740D02*
X026472Y025740D01*
X026472Y025624D02*
X026512Y025624D01*
X026512Y025507D02*
X026472Y025507D01*
X026472Y025390D02*
X026512Y025390D01*
X026512Y025274D02*
X026472Y025274D01*
X026472Y025157D02*
X026512Y025157D01*
X026512Y025041D02*
X026472Y025041D01*
X026472Y024924D02*
X026512Y024924D01*
X026512Y024807D02*
X026472Y024807D01*
X026472Y024691D02*
X026512Y024691D01*
X026512Y024574D02*
X026472Y024574D01*
X026472Y024457D02*
X026512Y024457D01*
X026512Y024341D02*
X026472Y024341D01*
X026472Y024224D02*
X026512Y024224D01*
X026529Y024108D02*
X032247Y024108D01*
X032247Y023991D02*
X030454Y023991D01*
X030533Y023874D02*
X032247Y023874D01*
X032247Y023758D02*
X030545Y023758D01*
X030545Y023641D02*
X032247Y023641D01*
X032247Y023525D02*
X030545Y023525D01*
X030545Y023408D02*
X032247Y023408D01*
X032247Y023291D02*
X030514Y023291D01*
X030373Y023175D02*
X032247Y023175D01*
X032247Y023058D02*
X026216Y023058D01*
X026216Y022942D02*
X032247Y022942D01*
X032247Y022825D02*
X026216Y022825D01*
X026216Y022708D02*
X032247Y022708D01*
X032247Y022592D02*
X026216Y022592D01*
X026216Y022475D02*
X032247Y022475D01*
X032247Y022358D02*
X026216Y022358D01*
X026216Y022242D02*
X032247Y022242D01*
X032247Y022125D02*
X026216Y022125D01*
X026216Y022009D02*
X032247Y022009D01*
X032247Y021892D02*
X026216Y021892D01*
X026215Y021775D02*
X026549Y021775D01*
X026508Y021659D02*
X026216Y021659D01*
X026216Y021542D02*
X026469Y021542D01*
X026353Y021426D02*
X026216Y021426D01*
X026197Y021309D02*
X026236Y021309D01*
X026939Y020843D02*
X032247Y020843D01*
X032247Y020959D02*
X027056Y020959D01*
X027326Y021076D02*
X032247Y021076D01*
X032247Y021192D02*
X027392Y021192D01*
X027396Y021309D02*
X032247Y021309D01*
X032247Y021426D02*
X027396Y021426D01*
X027396Y021542D02*
X032247Y021542D01*
X032247Y021659D02*
X027396Y021659D01*
X027354Y021775D02*
X032247Y021775D01*
X032247Y020726D02*
X026822Y020726D01*
X026706Y020609D02*
X032247Y020609D01*
X031933Y020493D02*
X031917Y020493D01*
X031461Y020493D02*
X031444Y020493D01*
X030988Y020493D02*
X030972Y020493D01*
X030516Y020493D02*
X030500Y020493D01*
X030043Y020493D02*
X030027Y020493D01*
X029571Y020493D02*
X029555Y020493D01*
X029099Y020493D02*
X029082Y020493D01*
X028626Y020493D02*
X028610Y020493D01*
X028154Y020493D02*
X028137Y020493D01*
X027681Y020493D02*
X027665Y020493D01*
X027209Y020493D02*
X027192Y020493D01*
X026736Y020493D02*
X026720Y020493D01*
X025653Y020726D02*
X024121Y020726D01*
X024005Y020843D02*
X024452Y020843D01*
X024424Y020959D02*
X023888Y020959D01*
X023861Y021076D02*
X025252Y021076D01*
X025252Y020959D02*
X025291Y020959D01*
X025291Y020843D02*
X025252Y020843D01*
X025537Y020609D02*
X024238Y020609D01*
X023658Y020020D02*
X023522Y020156D01*
X023522Y020112D01*
X023127Y020112D01*
X023127Y020112D01*
X023522Y020112D01*
X023522Y020049D01*
X023580Y019991D01*
X023619Y019897D01*
X023619Y019579D01*
X023580Y019485D01*
X023522Y019427D01*
X023522Y019364D01*
X023522Y019235D01*
X023511Y019194D01*
X023490Y019158D01*
X023461Y019129D01*
X023424Y019108D01*
X023384Y019097D01*
X023127Y019097D01*
X023127Y019364D01*
X023127Y019364D01*
X023522Y019364D01*
X023127Y019364D01*
X023127Y019364D01*
X023127Y019097D01*
X022870Y019097D01*
X022829Y019108D01*
X022793Y019129D01*
X022763Y019158D01*
X022742Y019194D01*
X022732Y019235D01*
X022732Y019253D01*
X022663Y019224D01*
X022185Y019224D01*
X022091Y019263D01*
X022019Y019335D01*
X021980Y019429D01*
X021980Y019907D01*
X022019Y020001D01*
X022091Y020073D01*
X022185Y020112D01*
X022663Y020112D01*
X022732Y020084D01*
X022732Y020112D01*
X023127Y020112D01*
X023127Y020112D01*
X022732Y020112D01*
X022732Y020239D01*
X022005Y020239D01*
X020296Y018530D01*
X020144Y018467D01*
X015257Y018467D01*
X015200Y018444D01*
X015200Y017964D01*
X015172Y017897D01*
X015196Y017837D01*
X015524Y017837D01*
X015527Y017839D01*
X015660Y017839D01*
X015784Y017788D01*
X016126Y017445D01*
X021431Y017445D01*
X021500Y017514D01*
X021595Y017553D01*
X021612Y017553D01*
X021578Y017572D01*
X021549Y017602D01*
X021528Y017638D01*
X021517Y017679D01*
X021517Y017857D01*
X021853Y017857D01*
X021853Y017936D01*
X021517Y017936D01*
X021517Y018114D01*
X021528Y018155D01*
X021549Y018191D01*
X021578Y018221D01*
X021615Y018242D01*
X021655Y018252D01*
X021853Y018252D01*
X021853Y017936D01*
X021932Y017936D01*
X021932Y018252D01*
X022130Y018252D01*
X022140Y018250D01*
X022200Y018310D01*
X022294Y018349D01*
X022829Y018349D01*
X022923Y018310D01*
X022995Y018238D01*
X023034Y018144D01*
X023034Y017649D01*
X022995Y017555D01*
X022956Y017515D01*
X022956Y017445D01*
X023044Y017356D01*
X023254Y017356D01*
X023348Y017317D01*
X023418Y017247D01*
X023558Y017247D01*
X023466Y017285D01*
X023394Y017357D01*
X023355Y017451D01*
X023355Y017769D01*
X023394Y017863D01*
X023466Y017935D01*
X023467Y017936D01*
X023467Y017963D01*
X023518Y018086D01*
X023612Y018180D01*
X023809Y018377D01*
X023932Y018428D01*
X025958Y018428D01*
X026028Y018498D01*
X026122Y018537D01*
X026600Y018537D01*
X026630Y018525D01*
X026630Y018611D01*
X026284Y018611D01*
X026190Y018650D01*
X026118Y018722D01*
X026079Y018816D01*
X026079Y019220D01*
X024643Y019220D01*
X024643Y019205D01*
X024604Y019111D01*
X024532Y019039D01*
X024438Y019000D01*
X023863Y019000D01*
X023769Y019039D01*
X023697Y019111D01*
X023658Y019205D01*
X023658Y019523D01*
X023697Y019617D01*
X023769Y019689D01*
X023863Y019728D01*
X023997Y019728D01*
X023949Y019748D01*
X023863Y019748D01*
X023769Y019787D01*
X023697Y019859D01*
X023658Y019953D01*
X023658Y020020D01*
X023652Y020026D02*
X023545Y020026D01*
X023535Y020143D02*
X023522Y020143D01*
X023614Y019910D02*
X023676Y019910D01*
X023619Y019793D02*
X023763Y019793D01*
X023757Y019676D02*
X023619Y019676D01*
X023611Y019560D02*
X023674Y019560D01*
X023658Y019443D02*
X023538Y019443D01*
X023522Y019327D02*
X023658Y019327D01*
X023658Y019210D02*
X023515Y019210D01*
X023715Y019093D02*
X020859Y019093D01*
X020743Y018977D02*
X026079Y018977D01*
X026079Y019093D02*
X024586Y019093D01*
X024643Y019210D02*
X026079Y019210D01*
X026079Y018860D02*
X020626Y018860D01*
X020509Y018744D02*
X026109Y018744D01*
X026245Y018627D02*
X020393Y018627D01*
X020248Y018510D02*
X026057Y018510D01*
X025958Y017759D02*
X025261Y017759D01*
X025266Y017739D01*
X025266Y017610D01*
X024871Y017610D01*
X024871Y017610D01*
X024476Y017610D01*
X024476Y017547D01*
X024418Y017489D01*
X024379Y017395D01*
X024379Y017077D01*
X024418Y016983D01*
X024476Y016925D01*
X024476Y016862D01*
X024476Y016733D01*
X024487Y016692D01*
X024507Y016656D01*
X024320Y016656D01*
X024339Y016703D01*
X024339Y017021D01*
X024300Y017115D01*
X024228Y017187D01*
X024134Y017226D01*
X023914Y017226D01*
X023866Y017246D01*
X024134Y017246D01*
X024228Y017285D01*
X024300Y017357D01*
X024339Y017451D01*
X024339Y017759D01*
X024481Y017759D01*
X024476Y017739D01*
X024476Y017610D01*
X024871Y017610D01*
X024871Y017610D01*
X025266Y017610D01*
X025266Y017571D01*
X026349Y017571D01*
X026428Y017649D01*
X026122Y017649D01*
X026028Y017688D01*
X025958Y017759D01*
X026022Y017694D02*
X025266Y017694D01*
X025266Y017577D02*
X026356Y017577D01*
X026836Y017111D02*
X032247Y017111D01*
X032247Y016994D02*
X026720Y016994D01*
X026678Y016952D02*
X027154Y017429D01*
X027248Y017523D01*
X027299Y017646D01*
X027299Y017651D01*
X027303Y017649D01*
X027781Y017649D01*
X027875Y017688D01*
X027946Y017759D01*
X029107Y017759D01*
X029178Y017688D01*
X029272Y017649D01*
X029750Y017649D01*
X029844Y017688D01*
X029916Y017760D01*
X029955Y017854D01*
X029955Y018332D01*
X029916Y018426D01*
X029844Y018498D01*
X029750Y018537D01*
X029272Y018537D01*
X029178Y018498D01*
X029107Y018428D01*
X027946Y018428D01*
X027875Y018498D01*
X027781Y018537D01*
X027303Y018537D01*
X027299Y018536D01*
X027299Y018611D01*
X027645Y018611D01*
X027673Y018623D01*
X027701Y018611D01*
X028118Y018611D01*
X028146Y018623D01*
X028173Y018611D01*
X028590Y018611D01*
X028618Y018623D01*
X028646Y018611D01*
X029063Y018611D01*
X029090Y018623D01*
X029118Y018611D01*
X029535Y018611D01*
X029563Y018623D01*
X029591Y018611D01*
X030007Y018611D01*
X030035Y018623D01*
X030063Y018611D01*
X030480Y018611D01*
X030508Y018623D01*
X030536Y018611D01*
X030952Y018611D01*
X030980Y018623D01*
X031008Y018611D01*
X031425Y018611D01*
X031453Y018623D01*
X031480Y018611D01*
X031897Y018611D01*
X031925Y018623D01*
X031953Y018611D01*
X032247Y018611D01*
X032247Y015978D01*
X031831Y015978D01*
X031737Y015939D01*
X031666Y015869D01*
X031129Y015869D01*
X031136Y015886D01*
X031136Y016364D01*
X031097Y016458D01*
X031025Y016530D01*
X030931Y016569D01*
X030453Y016569D01*
X030359Y016530D01*
X030288Y016460D01*
X026697Y016460D01*
X026645Y016511D01*
X026551Y016605D01*
X026428Y016656D01*
X025235Y016656D01*
X025255Y016692D01*
X025266Y016733D01*
X025266Y016862D01*
X024871Y016862D01*
X024871Y016862D01*
X024476Y016862D01*
X024871Y016862D01*
X024871Y016862D01*
X025266Y016862D01*
X025266Y016901D01*
X026555Y016901D01*
X026678Y016952D01*
X026456Y016645D02*
X032247Y016645D01*
X032247Y016761D02*
X025266Y016761D01*
X025266Y016878D02*
X032247Y016878D01*
X032247Y017228D02*
X026953Y017228D01*
X027069Y017344D02*
X032247Y017344D01*
X032247Y017461D02*
X027186Y017461D01*
X027271Y017577D02*
X032247Y017577D01*
X032247Y017694D02*
X029850Y017694D01*
X029937Y017811D02*
X032247Y017811D01*
X032247Y017927D02*
X029955Y017927D01*
X029955Y018044D02*
X032247Y018044D01*
X032247Y018161D02*
X029955Y018161D01*
X029955Y018277D02*
X032247Y018277D01*
X032247Y018394D02*
X029929Y018394D01*
X029815Y018510D02*
X032247Y018510D01*
X032247Y016528D02*
X031027Y016528D01*
X031116Y016411D02*
X032247Y016411D01*
X032247Y016295D02*
X031136Y016295D01*
X031136Y016178D02*
X032247Y016178D01*
X032247Y016062D02*
X031136Y016062D01*
X031136Y015945D02*
X031750Y015945D01*
X031666Y015200D02*
X031737Y015129D01*
X031831Y015090D01*
X032247Y015090D01*
X032247Y013973D01*
X031320Y014901D01*
X031168Y014963D01*
X027657Y014963D01*
X027505Y014901D01*
X027389Y014784D01*
X027326Y014632D01*
X027326Y014610D01*
X027062Y014346D01*
X027054Y014327D01*
X027054Y015200D01*
X031666Y015200D01*
X031738Y015129D02*
X027054Y015129D01*
X027054Y015012D02*
X032247Y015012D01*
X032247Y014895D02*
X031325Y014895D01*
X031441Y014779D02*
X032247Y014779D01*
X032247Y014662D02*
X031558Y014662D01*
X031675Y014546D02*
X032247Y014546D01*
X032247Y014429D02*
X031791Y014429D01*
X031908Y014312D02*
X032247Y014312D01*
X032247Y014196D02*
X032024Y014196D01*
X032141Y014079D02*
X032247Y014079D01*
X031632Y013419D02*
X031240Y013419D01*
X031146Y013380D01*
X031074Y013308D01*
X031035Y013214D01*
X031035Y013005D01*
X030632Y012601D01*
X028589Y012601D01*
X028589Y012660D01*
X028540Y012780D01*
X028499Y012822D01*
X028547Y012870D01*
X028586Y012964D01*
X028586Y013499D01*
X028547Y013593D01*
X028486Y013653D01*
X028489Y013663D01*
X028489Y013861D01*
X028172Y013861D01*
X028172Y013940D01*
X028489Y013940D01*
X028489Y014137D01*
X029094Y014137D01*
X029097Y014130D01*
X029157Y014069D01*
X029155Y014059D01*
X029155Y013861D01*
X029471Y013861D01*
X029471Y013782D01*
X029550Y013782D01*
X029550Y013446D01*
X029728Y013446D01*
X029769Y013457D01*
X029805Y013478D01*
X029835Y013508D01*
X029856Y013544D01*
X029867Y013584D01*
X029867Y013782D01*
X029550Y013782D01*
X029550Y013861D01*
X029867Y013861D01*
X029867Y014059D01*
X029864Y014069D01*
X029925Y014130D01*
X029927Y014137D01*
X030914Y014137D01*
X031632Y013419D01*
X031555Y013496D02*
X029823Y013496D01*
X029867Y013613D02*
X031438Y013613D01*
X031322Y013729D02*
X029867Y013729D01*
X029867Y013963D02*
X031088Y013963D01*
X030972Y014079D02*
X029874Y014079D01*
X029550Y013846D02*
X031205Y013846D01*
X031145Y013379D02*
X028586Y013379D01*
X028586Y013263D02*
X031055Y013263D01*
X031035Y013146D02*
X028586Y013146D01*
X028586Y013030D02*
X031035Y013030D01*
X030944Y012913D02*
X028565Y012913D01*
X028524Y012796D02*
X030827Y012796D01*
X030710Y012680D02*
X028581Y012680D01*
X028586Y013496D02*
X029198Y013496D01*
X029187Y013508D02*
X029216Y013478D01*
X029252Y013457D01*
X029293Y013446D01*
X029471Y013446D01*
X029471Y013782D01*
X029155Y013782D01*
X029155Y013584D01*
X029166Y013544D01*
X029187Y013508D01*
X029155Y013613D02*
X028527Y013613D01*
X028489Y013729D02*
X029155Y013729D01*
X029155Y013963D02*
X028489Y013963D01*
X028489Y014079D02*
X029147Y014079D01*
X029471Y013846D02*
X028489Y013846D01*
X028093Y013861D02*
X027777Y013861D01*
X027777Y013663D01*
X027779Y013653D01*
X027719Y013593D01*
X027694Y013532D01*
X027694Y013556D01*
X027680Y013589D01*
X027680Y014018D01*
X027777Y014115D01*
X027777Y013940D01*
X028093Y013940D01*
X028093Y013861D01*
X027777Y013846D02*
X027680Y013846D01*
X027680Y013963D02*
X027777Y013963D01*
X027777Y014079D02*
X027741Y014079D01*
X027777Y013729D02*
X027680Y013729D01*
X027680Y013613D02*
X027739Y013613D01*
X027145Y014429D02*
X027054Y014429D01*
X027054Y014546D02*
X027261Y014546D01*
X027338Y014662D02*
X027054Y014662D01*
X027054Y014779D02*
X027386Y014779D01*
X027500Y014895D02*
X027054Y014895D01*
X025830Y014895D02*
X020780Y014895D01*
X020739Y014936D02*
X020645Y015031D01*
X020522Y015082D01*
X015281Y015082D01*
X015083Y015280D01*
X015083Y015551D01*
X015089Y015554D01*
X015161Y015626D01*
X015200Y015720D01*
X015200Y016255D01*
X015172Y016322D01*
X015200Y016389D01*
X015200Y016924D01*
X015161Y017018D01*
X015089Y017090D01*
X015042Y017109D01*
X015089Y017128D01*
X015129Y017168D01*
X015453Y017168D01*
X015702Y016919D01*
X015797Y016824D01*
X015920Y016773D01*
X021431Y016773D01*
X021500Y016704D01*
X021595Y016665D01*
X022073Y016665D01*
X022167Y016704D01*
X022239Y016776D01*
X022278Y016870D01*
X022278Y017348D01*
X022239Y017442D01*
X022167Y017514D01*
X022103Y017541D01*
X022130Y017541D01*
X022140Y017543D01*
X022200Y017483D01*
X022286Y017447D01*
X022286Y017239D01*
X022337Y017116D01*
X022571Y016883D01*
X022571Y016673D01*
X022578Y016656D01*
X019087Y016656D01*
X019017Y016727D01*
X018923Y016766D01*
X018445Y016766D01*
X018351Y016727D01*
X018279Y016655D01*
X018240Y016561D01*
X018240Y016263D01*
X017947Y016263D01*
X017947Y016364D01*
X017908Y016458D01*
X017836Y016530D01*
X017742Y016569D01*
X017264Y016569D01*
X017170Y016530D01*
X017098Y016458D01*
X017059Y016364D01*
X017059Y015978D01*
X016673Y015978D01*
X016579Y015939D01*
X016507Y015867D01*
X016468Y015773D01*
X016468Y015295D01*
X016507Y015201D01*
X016579Y015129D01*
X016673Y015090D01*
X017151Y015090D01*
X017245Y015129D01*
X017316Y015200D01*
X025830Y015200D01*
X025830Y014677D01*
X025829Y014677D01*
X025793Y014698D01*
X025752Y014709D01*
X025554Y014709D01*
X025554Y014393D01*
X025475Y014393D01*
X025475Y014709D01*
X025277Y014709D01*
X025267Y014707D01*
X025207Y014767D01*
X025113Y014806D01*
X024578Y014806D01*
X024484Y014767D01*
X024412Y014695D01*
X024406Y014681D01*
X024404Y014686D01*
X024332Y014758D01*
X024238Y014797D01*
X023760Y014797D01*
X023666Y014758D01*
X023594Y014686D01*
X023555Y014592D01*
X023555Y014114D01*
X023594Y014020D01*
X023666Y013948D01*
X023760Y013909D01*
X023861Y013909D01*
X023861Y013570D01*
X023855Y013556D01*
X023855Y013017D01*
X023900Y012907D01*
X023900Y012877D01*
X023870Y012877D01*
X023761Y012922D01*
X023454Y012922D01*
X023459Y012933D01*
X023459Y013411D01*
X023458Y013412D01*
X023507Y013460D01*
X023546Y013554D01*
X023546Y014089D01*
X023507Y014183D01*
X023447Y014244D01*
X023449Y014254D01*
X023449Y014452D01*
X023133Y014452D01*
X023133Y014530D01*
X023449Y014530D01*
X023449Y014728D01*
X023438Y014769D01*
X023418Y014805D01*
X023388Y014835D01*
X023352Y014856D01*
X023311Y014867D01*
X023133Y014867D01*
X023133Y014530D01*
X023054Y014530D01*
X023054Y014452D01*
X022737Y014452D01*
X022737Y014254D01*
X022740Y014244D01*
X022680Y014183D01*
X022641Y014089D01*
X022641Y013554D01*
X022646Y013542D01*
X022610Y013505D01*
X022571Y013411D01*
X022571Y012933D01*
X022588Y012891D01*
X022513Y012966D01*
X022512Y012969D01*
X022169Y013311D01*
X022169Y013951D01*
X022239Y014020D01*
X022278Y014114D01*
X022278Y014592D01*
X022239Y014686D01*
X022167Y014758D01*
X022073Y014797D01*
X021595Y014797D01*
X021500Y014758D01*
X021428Y014686D01*
X021390Y014592D01*
X021390Y014286D01*
X020739Y014936D01*
X020664Y015012D02*
X025830Y015012D01*
X025830Y015129D02*
X017244Y015129D01*
X016581Y015129D02*
X015234Y015129D01*
X015117Y015245D02*
X016489Y015245D01*
X016468Y015362D02*
X015083Y015362D01*
X015083Y015478D02*
X016468Y015478D01*
X016468Y015595D02*
X015130Y015595D01*
X015196Y015712D02*
X016468Y015712D01*
X016491Y015828D02*
X015200Y015828D01*
X015200Y015945D02*
X016593Y015945D01*
X017059Y016062D02*
X015200Y016062D01*
X015200Y016178D02*
X017059Y016178D01*
X017059Y016295D02*
X015183Y016295D01*
X015200Y016411D02*
X017078Y016411D01*
X017168Y016528D02*
X015200Y016528D01*
X015200Y016645D02*
X018275Y016645D01*
X018240Y016528D02*
X017838Y016528D01*
X017927Y016411D02*
X018240Y016411D01*
X018240Y016295D02*
X017947Y016295D01*
X018434Y016761D02*
X015200Y016761D01*
X015200Y016878D02*
X015743Y016878D01*
X015627Y016994D02*
X015170Y016994D01*
X015047Y017111D02*
X015510Y017111D01*
X015994Y017577D02*
X021573Y017577D01*
X021517Y017694D02*
X015877Y017694D01*
X015728Y017811D02*
X021517Y017811D01*
X021517Y018044D02*
X015200Y018044D01*
X015200Y018161D02*
X021531Y018161D01*
X021853Y018161D02*
X021932Y018161D01*
X021932Y018044D02*
X021853Y018044D01*
X021853Y017927D02*
X015185Y017927D01*
X015200Y018277D02*
X022167Y018277D01*
X022957Y018277D02*
X023709Y018277D01*
X023593Y018161D02*
X023028Y018161D01*
X023034Y018044D02*
X023501Y018044D01*
X023458Y017927D02*
X023034Y017927D01*
X023034Y017811D02*
X023372Y017811D01*
X023355Y017694D02*
X023034Y017694D01*
X023005Y017577D02*
X023355Y017577D01*
X023355Y017461D02*
X022956Y017461D01*
X023283Y017344D02*
X023407Y017344D01*
X023910Y017228D02*
X024379Y017228D01*
X024379Y017344D02*
X024288Y017344D01*
X024339Y017461D02*
X024406Y017461D01*
X024339Y017577D02*
X024476Y017577D01*
X024476Y017694D02*
X024339Y017694D01*
X024302Y017111D02*
X024379Y017111D01*
X024413Y016994D02*
X024339Y016994D01*
X024339Y016878D02*
X024476Y016878D01*
X024476Y016761D02*
X024339Y016761D01*
X022571Y016761D02*
X022224Y016761D01*
X022278Y016878D02*
X022571Y016878D01*
X022459Y016994D02*
X022278Y016994D01*
X022278Y017111D02*
X022343Y017111D01*
X022291Y017228D02*
X022278Y017228D01*
X022278Y017344D02*
X022286Y017344D01*
X022253Y017461D02*
X022220Y017461D01*
X021447Y017461D02*
X016110Y017461D01*
X015200Y018394D02*
X023850Y018394D01*
X023127Y019210D02*
X023127Y019210D01*
X023127Y019327D02*
X023127Y019327D01*
X022738Y019210D02*
X020976Y019210D01*
X021092Y019327D02*
X022028Y019327D01*
X021980Y019443D02*
X021209Y019443D01*
X021326Y019560D02*
X021980Y019560D01*
X021980Y019676D02*
X021442Y019676D01*
X021559Y019793D02*
X021980Y019793D01*
X021981Y019910D02*
X021675Y019910D01*
X021792Y020026D02*
X022044Y020026D01*
X021909Y020143D02*
X022732Y020143D01*
X022956Y021076D02*
X021138Y021076D01*
X021265Y020959D02*
X021556Y020959D01*
X021439Y020843D02*
X021293Y020843D01*
X021293Y020726D02*
X021322Y020726D01*
X020560Y021076D02*
X019816Y021076D01*
X019807Y021085D02*
X019837Y021055D01*
X019858Y021019D01*
X019869Y020978D01*
X019869Y020515D01*
X019223Y020515D01*
X019223Y021117D01*
X019730Y021117D01*
X019771Y021106D01*
X019807Y021085D01*
X019869Y020959D02*
X020433Y020959D01*
X020405Y020843D02*
X019869Y020843D01*
X019869Y020726D02*
X020405Y020726D01*
X020333Y020609D02*
X019869Y020609D01*
X019869Y020376D02*
X020100Y020376D01*
X020216Y020493D02*
X019223Y020493D01*
X019223Y020609D02*
X019105Y020609D01*
X019105Y020493D02*
X017916Y020493D01*
X017916Y020609D02*
X018460Y020609D01*
X018460Y020726D02*
X017916Y020726D01*
X017916Y020843D02*
X018460Y020843D01*
X018460Y020959D02*
X017916Y020959D01*
X017916Y021076D02*
X018512Y021076D01*
X017916Y021192D02*
X022962Y021192D01*
X023034Y021309D02*
X017916Y021309D01*
X017916Y021426D02*
X023052Y021426D01*
X023052Y021659D02*
X017916Y021659D01*
X017916Y021775D02*
X023052Y021775D01*
X023084Y021892D02*
X017916Y021892D01*
X017916Y022009D02*
X022707Y022009D01*
X022595Y022125D02*
X017916Y022125D01*
X017916Y022242D02*
X022571Y022242D01*
X022571Y022358D02*
X017916Y022358D01*
X017916Y022475D02*
X022490Y022475D01*
X022374Y022592D02*
X017916Y022592D01*
X017916Y022708D02*
X022304Y022708D01*
X022286Y022825D02*
X017916Y022825D01*
X017916Y022942D02*
X022194Y022942D01*
X022168Y023058D02*
X017916Y023058D01*
X017916Y023175D02*
X022168Y023175D01*
X022168Y023291D02*
X017916Y023291D01*
X017916Y023408D02*
X022168Y023408D01*
X022168Y023525D02*
X017916Y023525D01*
X017916Y023641D02*
X022181Y023641D01*
X022168Y023758D02*
X017916Y023758D01*
X017916Y023874D02*
X022168Y023874D01*
X022168Y023991D02*
X017916Y023991D01*
X017916Y024108D02*
X022168Y024108D01*
X022119Y024224D02*
X017916Y024224D01*
X017890Y024341D02*
X022064Y024341D01*
X022056Y024457D02*
X017826Y024457D01*
X017670Y024574D02*
X022056Y024574D01*
X022056Y024691D02*
X017412Y024691D01*
X017412Y024807D02*
X022056Y024807D01*
X022056Y024924D02*
X017412Y024924D01*
X017412Y025041D02*
X022056Y025041D01*
X022056Y025157D02*
X017412Y025157D01*
X017350Y025274D02*
X022056Y025274D01*
X022056Y025390D02*
X017350Y025390D01*
X017412Y025507D02*
X017412Y026141D01*
X017385Y026207D02*
X021039Y026207D01*
X021063Y026182D02*
X021158Y026143D01*
X021655Y026143D01*
X021749Y026182D01*
X021821Y026254D01*
X021860Y026348D01*
X021860Y026846D01*
X021821Y026940D01*
X021749Y027012D01*
X021655Y027051D01*
X021158Y027051D01*
X021063Y027012D01*
X020991Y026940D01*
X020953Y026846D01*
X020953Y026348D01*
X020991Y026254D01*
X021063Y026182D01*
X020963Y026323D02*
X020760Y026323D01*
X020768Y026337D02*
X020779Y026378D01*
X020779Y026592D01*
X020427Y026592D01*
X020427Y026602D01*
X020417Y026602D01*
X020417Y026954D01*
X020203Y026954D01*
X020163Y026943D01*
X020127Y026922D01*
X020097Y026892D01*
X020076Y026856D01*
X020065Y026816D01*
X020065Y026602D01*
X020417Y026602D01*
X020417Y026592D01*
X020065Y026592D01*
X020065Y026378D01*
X020076Y026337D01*
X020097Y026301D01*
X020127Y026271D01*
X020163Y026250D01*
X020203Y026240D01*
X020417Y026240D01*
X020417Y026592D01*
X020427Y026592D01*
X020427Y026240D01*
X020641Y026240D01*
X020681Y026250D01*
X020718Y026271D01*
X020747Y026301D01*
X020768Y026337D01*
X020779Y026440D02*
X020953Y026440D01*
X020953Y026556D02*
X020779Y026556D01*
X020779Y026602D02*
X020779Y026816D01*
X020768Y026856D01*
X020747Y026892D01*
X020718Y026922D01*
X020681Y026943D01*
X020641Y026954D01*
X020427Y026954D01*
X020427Y026602D01*
X020779Y026602D01*
X020779Y026673D02*
X020953Y026673D01*
X020953Y026790D02*
X020779Y026790D01*
X020733Y026906D02*
X020978Y026906D01*
X021091Y027023D02*
X016226Y027023D01*
X016226Y026906D02*
X020111Y026906D01*
X020065Y026790D02*
X016226Y026790D01*
X016226Y026673D02*
X020065Y026673D01*
X020065Y026556D02*
X016194Y026556D01*
X016047Y026440D02*
X020065Y026440D01*
X020084Y026323D02*
X017261Y026323D01*
X016520Y026323D02*
X016277Y026323D01*
X015536Y026323D02*
X013886Y026323D01*
X013902Y026207D02*
X015412Y026207D01*
X015385Y026090D02*
X013918Y026090D01*
X013934Y025973D02*
X015385Y025973D01*
X015385Y025857D02*
X013924Y025857D01*
X013908Y025740D02*
X015385Y025740D01*
X015385Y025624D02*
X013892Y025624D01*
X013861Y025402D02*
X013861Y025402D01*
X013640Y024893D01*
X013640Y024893D01*
X013290Y024462D01*
X013290Y024462D01*
X013290Y024462D01*
X013052Y024294D01*
X013704Y024294D01*
X013704Y024522D01*
X013743Y024616D01*
X013803Y024677D01*
X013800Y024687D01*
X013800Y024885D01*
X014117Y024885D01*
X014117Y024963D01*
X013800Y024963D01*
X013800Y025162D01*
X013811Y025202D01*
X013832Y025238D01*
X013862Y025268D01*
X013898Y025289D01*
X013939Y025300D01*
X014117Y025300D01*
X014117Y024963D01*
X014196Y024963D01*
X014512Y024963D01*
X014512Y025162D01*
X014501Y025202D01*
X014481Y025238D01*
X014451Y025268D01*
X014415Y025289D01*
X014374Y025300D01*
X014196Y025300D01*
X014196Y024963D01*
X014196Y024885D01*
X014512Y024885D01*
X014512Y024687D01*
X014510Y024677D01*
X014570Y024616D01*
X014609Y024522D01*
X014609Y024019D01*
X015121Y024019D01*
X015121Y024278D01*
X015184Y024430D01*
X015300Y024546D01*
X015385Y024581D01*
X015385Y025156D01*
X015424Y025250D01*
X015496Y025322D01*
X015518Y025332D01*
X015496Y025341D01*
X015424Y025413D01*
X015385Y025507D01*
X015447Y025390D02*
X013856Y025390D01*
X013872Y025274D02*
X013806Y025274D01*
X013800Y025157D02*
X013755Y025157D01*
X013800Y025041D02*
X013704Y025041D01*
X013654Y024924D02*
X014117Y024924D01*
X014196Y024924D02*
X015385Y024924D01*
X015385Y025041D02*
X014512Y025041D01*
X014512Y025157D02*
X015385Y025157D01*
X015447Y025274D02*
X014441Y025274D01*
X014196Y025274D02*
X014117Y025274D01*
X014117Y025157D02*
X014196Y025157D01*
X014196Y025041D02*
X014117Y025041D01*
X013800Y024807D02*
X013571Y024807D01*
X013476Y024691D02*
X013800Y024691D01*
X013725Y024574D02*
X013381Y024574D01*
X013284Y024457D02*
X013704Y024457D01*
X013704Y024341D02*
X013118Y024341D01*
X014512Y024691D02*
X015385Y024691D01*
X015385Y024807D02*
X014512Y024807D01*
X014588Y024574D02*
X015367Y024574D01*
X015211Y024457D02*
X014609Y024457D01*
X014609Y024341D02*
X015147Y024341D01*
X015121Y024224D02*
X014609Y024224D01*
X014609Y024108D02*
X015121Y024108D01*
X015121Y023192D02*
X015121Y022736D01*
X015184Y022584D01*
X015515Y022253D01*
X015515Y019980D01*
X015578Y019828D01*
X015599Y019806D01*
X014885Y019806D01*
X014885Y020275D01*
X014892Y020278D01*
X014964Y020350D01*
X015003Y020444D01*
X015003Y020979D01*
X014975Y021046D01*
X015003Y021113D01*
X015003Y021648D01*
X014964Y021742D01*
X014892Y021814D01*
X014885Y021817D01*
X014885Y021826D01*
X014944Y021885D01*
X014983Y021979D01*
X014983Y022357D01*
X014944Y022451D01*
X014884Y022511D01*
X014886Y022521D01*
X014886Y022670D01*
X014560Y022670D01*
X014560Y022690D01*
X014540Y022690D01*
X014540Y022670D01*
X014214Y022670D01*
X014214Y022521D01*
X014216Y022511D01*
X014156Y022451D01*
X014117Y022357D01*
X014117Y022081D01*
X013721Y022081D01*
X013626Y022042D01*
X013554Y021970D01*
X013516Y021876D01*
X013516Y021460D01*
X013318Y021460D01*
X013303Y021453D01*
X013214Y021490D01*
X012736Y021490D01*
X012642Y021451D01*
X012570Y021379D01*
X012531Y021285D01*
X012531Y020807D01*
X012570Y020713D01*
X012642Y020641D01*
X012736Y020602D01*
X013175Y020602D01*
X013213Y020565D01*
X013210Y020555D01*
X013210Y020357D01*
X013526Y020357D01*
X013526Y020278D01*
X013210Y020278D01*
X013210Y020080D01*
X013221Y020040D01*
X013242Y020004D01*
X013271Y019974D01*
X013308Y019953D01*
X013348Y019942D01*
X013526Y019942D01*
X013526Y020278D01*
X013605Y020278D01*
X013605Y019942D01*
X013784Y019942D01*
X013824Y019953D01*
X013860Y019974D01*
X013890Y020004D01*
X013911Y020040D01*
X013922Y020080D01*
X013922Y020278D01*
X013605Y020278D01*
X013605Y020357D01*
X013922Y020357D01*
X013922Y020555D01*
X013919Y020565D01*
X013980Y020626D01*
X014019Y020720D01*
X014019Y021193D01*
X014097Y021193D01*
X014097Y021113D01*
X014125Y021046D01*
X014097Y020979D01*
X014097Y020444D01*
X014136Y020350D01*
X014208Y020278D01*
X014215Y020275D01*
X014215Y019806D01*
X010358Y019806D01*
X009913Y020251D01*
X009818Y020346D01*
X009695Y020397D01*
X008497Y020397D01*
X008047Y020847D01*
X007924Y020898D01*
X007898Y020898D01*
X007898Y021184D01*
X007483Y021184D01*
X007483Y021302D01*
X007898Y021302D01*
X007898Y021302D01*
X009105Y021302D01*
X009228Y021353D01*
X009322Y021447D01*
X009373Y021570D01*
X009373Y021947D01*
X009472Y022046D01*
X009877Y022046D01*
X009971Y022085D01*
X010043Y022157D01*
X010047Y022167D01*
X010160Y022167D01*
X010160Y022759D01*
X010278Y022759D01*
X010278Y022167D01*
X010392Y022167D01*
X010396Y022157D01*
X010468Y022085D01*
X010562Y022046D01*
X010908Y022046D01*
X010908Y021775D01*
X010953Y021666D01*
X011350Y021269D01*
X011350Y021155D01*
X011418Y020991D01*
X011543Y020867D01*
X011706Y020799D01*
X011882Y020799D01*
X012046Y020867D01*
X012171Y020991D01*
X012238Y021155D01*
X012238Y021331D01*
X012171Y021495D01*
X012127Y021538D01*
X012171Y021582D01*
X012238Y021745D01*
X012238Y021922D01*
X012226Y021950D01*
X012365Y021950D01*
X012365Y022247D01*
X012404Y022247D01*
X012404Y021950D01*
X012642Y021950D01*
X012682Y021961D01*
X012719Y021982D01*
X012748Y022011D01*
X012769Y022048D01*
X012780Y022088D01*
X012780Y022247D01*
X012404Y022247D01*
X012404Y022286D01*
X012780Y022286D01*
X012780Y022445D01*
X012769Y022485D01*
X012748Y022522D01*
X012719Y022551D01*
X012688Y022569D01*
X012715Y022580D01*
X012736Y022571D01*
X013214Y022571D01*
X013308Y022610D01*
X013370Y022671D01*
X013378Y022638D01*
X013399Y022602D01*
X013429Y022572D01*
X013465Y022551D01*
X013506Y022541D01*
X013743Y022541D01*
X013743Y022837D01*
X013782Y022837D01*
X013782Y022541D01*
X014020Y022541D01*
X014060Y022551D01*
X014097Y022572D01*
X014126Y022602D01*
X014147Y022638D01*
X014158Y022679D01*
X014158Y022837D01*
X013782Y022837D01*
X013782Y022877D01*
X014158Y022877D01*
X014158Y023036D01*
X014147Y023076D01*
X014126Y023112D01*
X014097Y023142D01*
X014066Y023159D01*
X014144Y023191D01*
X014144Y023192D01*
X015121Y023192D01*
X015121Y023175D02*
X014104Y023175D01*
X014152Y023058D02*
X015121Y023058D01*
X015121Y022942D02*
X014828Y022942D01*
X014825Y022945D02*
X014789Y022966D01*
X014748Y022977D01*
X014560Y022977D01*
X014560Y022690D01*
X014886Y022690D01*
X014886Y022839D01*
X014875Y022879D01*
X014855Y022915D01*
X014825Y022945D01*
X014886Y022825D02*
X015121Y022825D01*
X015132Y022708D02*
X014886Y022708D01*
X014886Y022592D02*
X015181Y022592D01*
X015292Y022475D02*
X014920Y022475D01*
X014982Y022358D02*
X015409Y022358D01*
X015515Y022242D02*
X014983Y022242D01*
X014983Y022125D02*
X015515Y022125D01*
X015515Y022009D02*
X014983Y022009D01*
X014947Y021892D02*
X015515Y021892D01*
X015515Y021775D02*
X014931Y021775D01*
X014998Y021659D02*
X015515Y021659D01*
X015515Y021542D02*
X015003Y021542D01*
X015003Y021426D02*
X015515Y021426D01*
X015515Y021309D02*
X015003Y021309D01*
X015003Y021192D02*
X015515Y021192D01*
X015515Y021076D02*
X014987Y021076D01*
X015003Y020959D02*
X015515Y020959D01*
X015515Y020843D02*
X015003Y020843D01*
X015003Y020726D02*
X015515Y020726D01*
X015515Y020609D02*
X015003Y020609D01*
X015003Y020493D02*
X015515Y020493D01*
X015515Y020376D02*
X014975Y020376D01*
X014885Y020259D02*
X015515Y020259D01*
X015515Y020143D02*
X014885Y020143D01*
X014885Y020026D02*
X015515Y020026D01*
X015544Y019910D02*
X014885Y019910D01*
X014215Y019910D02*
X010254Y019910D01*
X010138Y020026D02*
X013229Y020026D01*
X013210Y020143D02*
X010021Y020143D01*
X009904Y020259D02*
X013210Y020259D01*
X013210Y020376D02*
X009745Y020376D01*
X009122Y021309D02*
X011311Y021309D01*
X011350Y021192D02*
X007483Y021192D01*
X007898Y021076D02*
X011383Y021076D01*
X011450Y020959D02*
X007898Y020959D01*
X008051Y020843D02*
X011601Y020843D01*
X011988Y020843D02*
X012531Y020843D01*
X012531Y020959D02*
X012138Y020959D01*
X012206Y021076D02*
X012531Y021076D01*
X012531Y021192D02*
X012238Y021192D01*
X012238Y021309D02*
X012541Y021309D01*
X012617Y021426D02*
X012199Y021426D01*
X012131Y021542D02*
X013516Y021542D01*
X013516Y021659D02*
X012202Y021659D01*
X012238Y021775D02*
X013516Y021775D01*
X013522Y021892D02*
X012238Y021892D01*
X012365Y022009D02*
X012404Y022009D01*
X012404Y022125D02*
X012365Y022125D01*
X012365Y022242D02*
X012404Y022242D01*
X012780Y022242D02*
X014117Y022242D01*
X014118Y022358D02*
X012780Y022358D01*
X012772Y022475D02*
X014180Y022475D01*
X014214Y022592D02*
X014116Y022592D01*
X014158Y022708D02*
X014214Y022708D01*
X014214Y022690D02*
X014540Y022690D01*
X014540Y022977D01*
X014352Y022977D01*
X014312Y022966D01*
X014275Y022945D01*
X014246Y022915D01*
X014225Y022879D01*
X014214Y022839D01*
X014214Y022690D01*
X014214Y022825D02*
X014158Y022825D01*
X014158Y022942D02*
X014272Y022942D01*
X014540Y022942D02*
X014560Y022942D01*
X014560Y022825D02*
X014540Y022825D01*
X014540Y022708D02*
X014560Y022708D01*
X014117Y022125D02*
X012780Y022125D01*
X012745Y022009D02*
X013593Y022009D01*
X013743Y022592D02*
X013782Y022592D01*
X013782Y022708D02*
X013743Y022708D01*
X013743Y022825D02*
X013782Y022825D01*
X013409Y022592D02*
X013265Y022592D01*
X014019Y021192D02*
X014097Y021192D01*
X014113Y021076D02*
X014019Y021076D01*
X014019Y020959D02*
X014097Y020959D01*
X014097Y020843D02*
X014019Y020843D01*
X014019Y020726D02*
X014097Y020726D01*
X014097Y020609D02*
X013963Y020609D01*
X013922Y020493D02*
X014097Y020493D01*
X014125Y020376D02*
X013922Y020376D01*
X013922Y020259D02*
X014215Y020259D01*
X014215Y020143D02*
X013922Y020143D01*
X013903Y020026D02*
X014215Y020026D01*
X013605Y020026D02*
X013526Y020026D01*
X013526Y020143D02*
X013605Y020143D01*
X013605Y020259D02*
X013526Y020259D01*
X013210Y020493D02*
X008401Y020493D01*
X008285Y020609D02*
X012719Y020609D01*
X012565Y020726D02*
X008168Y020726D01*
X009300Y021426D02*
X011194Y021426D01*
X011077Y021542D02*
X009361Y021542D01*
X009373Y021659D02*
X010961Y021659D01*
X010908Y021775D02*
X009373Y021775D01*
X009373Y021892D02*
X010908Y021892D01*
X010908Y022009D02*
X009434Y022009D01*
X010011Y022125D02*
X010428Y022125D01*
X010278Y022242D02*
X010160Y022242D01*
X010160Y022358D02*
X010278Y022358D01*
X010278Y022475D02*
X010160Y022475D01*
X010160Y022592D02*
X010278Y022592D01*
X010278Y022708D02*
X010160Y022708D01*
X010160Y022942D02*
X010278Y022942D01*
X010278Y023058D02*
X010160Y023058D01*
X010160Y023175D02*
X010278Y023175D01*
X010278Y023291D02*
X010160Y023291D01*
X010160Y023408D02*
X010278Y023408D01*
X010442Y023525D02*
X009997Y023525D01*
X009845Y023641D02*
X010633Y023641D01*
X010742Y023758D02*
X009845Y023758D01*
X009845Y023874D02*
X010858Y023874D01*
X010975Y023991D02*
X009845Y023991D01*
X009845Y024108D02*
X011068Y024108D01*
X010843Y024224D02*
X009845Y024224D01*
X009845Y024341D02*
X010665Y024341D01*
X010723Y024286D02*
X010723Y024286D01*
X010540Y024457D02*
X009845Y024457D01*
X009827Y024574D02*
X010415Y024574D01*
X010302Y024691D02*
X009748Y024691D01*
X009632Y024807D02*
X010231Y024807D01*
X010160Y024924D02*
X009515Y024924D01*
X009398Y025041D02*
X010089Y025041D01*
X010029Y025140D02*
X010029Y025140D01*
X010024Y025157D02*
X009282Y025157D01*
X009108Y025274D02*
X009991Y025274D01*
X009959Y025390D02*
X008954Y025390D01*
X008217Y025390D02*
X007332Y025390D01*
X007488Y025274D02*
X007570Y025274D01*
X007541Y025157D02*
X007523Y025157D01*
X007523Y025041D02*
X007541Y025041D01*
X007541Y024924D02*
X007523Y024924D01*
X007523Y024807D02*
X007541Y024807D01*
X007523Y024691D02*
X007571Y024691D01*
X007501Y024574D02*
X008219Y024574D01*
X007956Y024691D02*
X007877Y024691D01*
X007877Y024807D02*
X007956Y024807D01*
X007956Y024924D02*
X007877Y024924D01*
X007877Y025041D02*
X007956Y025041D01*
X007956Y025157D02*
X007877Y025157D01*
X007877Y025274D02*
X007956Y025274D01*
X007523Y024457D02*
X009146Y024457D01*
X009255Y024341D02*
X007523Y024341D01*
X007523Y024224D02*
X009255Y024224D01*
X009255Y024108D02*
X008903Y024108D01*
X008998Y023991D02*
X009255Y023991D01*
X009255Y023874D02*
X009000Y023874D01*
X009255Y023758D02*
X008684Y023758D01*
X008605Y023758D02*
X007046Y023758D01*
X007011Y023641D02*
X007617Y023641D01*
X007543Y023525D02*
X007011Y023525D01*
X007021Y023408D02*
X007523Y023408D01*
X007523Y023291D02*
X007104Y023291D01*
X007120Y023175D02*
X007523Y023175D01*
X007523Y023058D02*
X007120Y023058D01*
X007120Y022942D02*
X007523Y022942D01*
X007523Y022825D02*
X007120Y022825D01*
X007092Y022708D02*
X007523Y022708D01*
X007523Y022592D02*
X006966Y022592D01*
X007523Y022475D02*
X004845Y022475D01*
X004845Y022592D02*
X006386Y022592D01*
X006260Y022708D02*
X005619Y022708D01*
X005695Y022825D02*
X006232Y022825D01*
X006232Y022942D02*
X005706Y022942D01*
X005817Y023058D02*
X006232Y023058D01*
X006232Y023175D02*
X005933Y023175D01*
X006050Y023291D02*
X006248Y023291D01*
X006166Y023408D02*
X006331Y023408D01*
X006341Y023525D02*
X006219Y023525D01*
X006225Y023641D02*
X006341Y023641D01*
X006341Y023758D02*
X006225Y023758D01*
X006239Y023874D02*
X006341Y023874D01*
X006356Y023991D02*
X006368Y023991D01*
X005872Y024457D02*
X005706Y024457D01*
X005706Y024341D02*
X005756Y024341D01*
X005697Y024574D02*
X005989Y024574D01*
X006105Y024691D02*
X005624Y024691D01*
X006222Y024807D02*
X003895Y024807D01*
X004209Y024924D02*
X006339Y024924D01*
X007523Y024108D02*
X008386Y024108D01*
X008350Y024087D01*
X008320Y024057D01*
X008300Y024021D01*
X008289Y023980D01*
X008289Y023782D01*
X008605Y023782D01*
X008605Y024119D01*
X008427Y024119D01*
X008386Y024108D01*
X008291Y023991D02*
X007523Y023991D01*
X007465Y023874D02*
X008289Y023874D01*
X008605Y023874D02*
X008684Y023874D01*
X008684Y023991D02*
X008605Y023991D01*
X008605Y024108D02*
X008684Y024108D01*
X008952Y024574D02*
X009030Y024574D01*
X005413Y022358D02*
X004853Y022358D01*
X004969Y022242D02*
X005233Y022242D01*
X009373Y018394D02*
X009446Y018394D01*
X009373Y018277D02*
X009562Y018277D01*
X009679Y018161D02*
X009373Y018161D01*
X009373Y018044D02*
X009796Y018044D01*
X009912Y017927D02*
X009373Y017927D01*
X009373Y017811D02*
X010029Y017811D01*
X010145Y017694D02*
X009373Y017694D01*
X009373Y017577D02*
X010312Y017577D01*
X009373Y017461D02*
X012544Y017461D01*
X012661Y017344D02*
X009335Y017344D01*
X009236Y017228D02*
X012777Y017228D01*
X012837Y017111D02*
X008804Y017111D01*
X008804Y016994D02*
X012837Y016994D01*
X012837Y016878D02*
X008487Y016878D01*
X008487Y016834D02*
X008804Y016834D01*
X008804Y016616D01*
X008793Y016575D01*
X008772Y016539D01*
X008742Y016509D01*
X008706Y016488D01*
X008666Y016478D01*
X008487Y016478D01*
X008487Y016834D01*
X008487Y016761D02*
X008408Y016761D01*
X008408Y016645D02*
X008487Y016645D01*
X008487Y016528D02*
X008408Y016528D01*
X008135Y016528D02*
X007539Y016528D01*
X007630Y016641D02*
X007630Y016641D01*
X007632Y016645D02*
X008092Y016645D01*
X008092Y016761D02*
X007683Y016761D01*
X007733Y016878D02*
X008408Y016878D01*
X008092Y016994D02*
X007784Y016994D01*
X007835Y017111D02*
X008092Y017111D01*
X007851Y017150D02*
X007851Y017150D01*
X007444Y016411D02*
X008997Y016411D01*
X008997Y016295D02*
X007349Y016295D01*
X007280Y016210D02*
X007280Y016210D01*
X007280Y016210D01*
X007235Y016178D02*
X008997Y016178D01*
X008997Y016062D02*
X007070Y016062D01*
X007707Y015945D02*
X009412Y015945D01*
X009412Y015987D02*
X009412Y015869D01*
X008997Y015869D01*
X008997Y015238D01*
X009008Y015197D01*
X009029Y015161D01*
X009059Y015131D01*
X009095Y015111D01*
X009135Y015100D01*
X009412Y015100D01*
X009412Y015869D01*
X009530Y015869D01*
X009530Y015100D01*
X009807Y015100D01*
X009848Y015111D01*
X009884Y015131D01*
X009914Y015161D01*
X009935Y015197D01*
X009945Y015238D01*
X009945Y015869D01*
X009530Y015869D01*
X009530Y015987D01*
X009412Y015987D01*
X008997Y015987D01*
X008997Y016618D01*
X009008Y016659D01*
X009029Y016695D01*
X009059Y016725D01*
X009095Y016746D01*
X009135Y016756D01*
X009412Y016756D01*
X009412Y015987D01*
X009412Y016062D02*
X009530Y016062D01*
X009530Y015987D02*
X009530Y016756D01*
X009807Y016756D01*
X009848Y016746D01*
X009884Y016725D01*
X009914Y016695D01*
X009935Y016659D01*
X009945Y016618D01*
X009945Y015987D01*
X009530Y015987D01*
X009530Y015945D02*
X012089Y015945D01*
X012089Y015987D02*
X012089Y015869D01*
X011674Y015869D01*
X011674Y015238D01*
X011685Y015197D01*
X011706Y015161D01*
X011736Y015131D01*
X011772Y015111D01*
X011813Y015100D01*
X012089Y015100D01*
X012089Y015869D01*
X012208Y015869D01*
X012208Y015987D01*
X012623Y015987D01*
X012623Y016618D01*
X012612Y016659D01*
X012591Y016695D01*
X012561Y016725D01*
X012525Y016746D01*
X012484Y016756D01*
X012208Y016756D01*
X012208Y015987D01*
X012089Y015987D01*
X011674Y015987D01*
X011674Y016618D01*
X011685Y016659D01*
X011706Y016695D01*
X011736Y016725D01*
X011772Y016746D01*
X011813Y016756D01*
X012089Y016756D01*
X012089Y015987D01*
X012089Y016062D02*
X012208Y016062D01*
X012208Y016178D02*
X012089Y016178D01*
X012089Y016295D02*
X012208Y016295D01*
X012208Y016411D02*
X012089Y016411D01*
X012089Y016528D02*
X012208Y016528D01*
X012208Y016645D02*
X012089Y016645D01*
X011682Y016645D02*
X009938Y016645D01*
X009945Y016528D02*
X011674Y016528D01*
X011674Y016411D02*
X009945Y016411D01*
X009945Y016295D02*
X011674Y016295D01*
X011674Y016178D02*
X009945Y016178D01*
X009945Y016062D02*
X011674Y016062D01*
X011674Y015828D02*
X009945Y015828D01*
X009945Y015712D02*
X010840Y015712D01*
X010767Y015595D02*
X009945Y015595D01*
X009945Y015478D02*
X010760Y015478D01*
X010760Y015362D02*
X009945Y015362D01*
X009945Y015245D02*
X010760Y015245D01*
X010760Y015129D02*
X009879Y015129D01*
X010104Y014895D02*
X008192Y014895D01*
X008192Y014779D02*
X010060Y014779D01*
X010060Y014807D02*
X010060Y013920D01*
X010377Y013920D01*
X010377Y014945D01*
X010198Y014945D01*
X010158Y014935D01*
X010122Y014914D01*
X010092Y014884D01*
X010071Y014848D01*
X010060Y014807D01*
X010060Y014662D02*
X008192Y014662D01*
X008192Y014546D02*
X010060Y014546D01*
X010060Y014429D02*
X008192Y014429D01*
X008192Y014312D02*
X010060Y014312D01*
X010060Y014196D02*
X008192Y014196D01*
X008192Y014079D02*
X010060Y014079D01*
X010060Y013963D02*
X008192Y013963D01*
X008192Y013846D02*
X010377Y013846D01*
X010377Y013841D02*
X010060Y013841D01*
X010060Y012954D01*
X010071Y012914D01*
X010092Y012878D01*
X010122Y012848D01*
X010158Y012827D01*
X010198Y012816D01*
X010377Y012816D01*
X010377Y013841D01*
X010377Y013729D02*
X010456Y013729D01*
X010456Y013613D02*
X010377Y013613D01*
X010377Y013496D02*
X010456Y013496D01*
X010456Y013379D02*
X010377Y013379D01*
X010377Y013263D02*
X010456Y013263D01*
X010456Y013146D02*
X010377Y013146D01*
X010377Y013030D02*
X010456Y013030D01*
X010456Y012913D02*
X010377Y012913D01*
X010550Y012796D02*
X008192Y012796D01*
X008192Y012680D02*
X010435Y012680D01*
X010318Y012563D02*
X008192Y012563D01*
X008192Y012447D02*
X010202Y012447D01*
X010085Y012330D02*
X008192Y012330D01*
X008192Y012213D02*
X009972Y012213D01*
X010072Y012913D02*
X008192Y012913D01*
X008192Y013030D02*
X010060Y013030D01*
X010060Y013146D02*
X008192Y013146D01*
X008192Y013263D02*
X010060Y013263D01*
X010060Y013379D02*
X008192Y013379D01*
X008192Y013496D02*
X010060Y013496D01*
X010060Y013613D02*
X008192Y013613D01*
X008192Y013729D02*
X010060Y013729D01*
X010377Y013963D02*
X010456Y013963D01*
X010456Y014079D02*
X010377Y014079D01*
X010377Y014196D02*
X010456Y014196D01*
X010456Y014312D02*
X010377Y014312D01*
X010377Y014429D02*
X010456Y014429D01*
X010456Y014546D02*
X010377Y014546D01*
X010377Y014662D02*
X010456Y014662D01*
X010456Y014779D02*
X010377Y014779D01*
X010377Y014895D02*
X010456Y014895D01*
X010729Y014895D02*
X010775Y014895D01*
X010790Y015012D02*
X008192Y015012D01*
X008192Y015129D02*
X009064Y015129D01*
X008997Y015245D02*
X008192Y015245D01*
X008192Y015362D02*
X008997Y015362D01*
X008997Y015478D02*
X008155Y015478D01*
X008107Y015595D02*
X008997Y015595D01*
X008997Y015712D02*
X008032Y015712D01*
X007916Y015828D02*
X008997Y015828D01*
X009412Y015828D02*
X009530Y015828D01*
X009530Y015712D02*
X009412Y015712D01*
X009412Y015595D02*
X009530Y015595D01*
X009530Y015478D02*
X009412Y015478D01*
X009412Y015362D02*
X009530Y015362D01*
X009530Y015245D02*
X009412Y015245D01*
X009412Y015129D02*
X009530Y015129D01*
X009530Y016178D02*
X009412Y016178D01*
X009412Y016295D02*
X009530Y016295D01*
X009530Y016411D02*
X009412Y016411D01*
X009412Y016528D02*
X009530Y016528D01*
X009530Y016645D02*
X009412Y016645D01*
X009004Y016645D02*
X008804Y016645D01*
X008804Y016761D02*
X012872Y016761D01*
X012967Y016645D02*
X012615Y016645D01*
X012623Y016528D02*
X013083Y016528D01*
X013229Y016411D02*
X012623Y016411D01*
X012623Y016295D02*
X013634Y016295D01*
X013612Y016178D02*
X012623Y016178D01*
X012623Y016062D02*
X013604Y016062D01*
X013604Y015828D02*
X012623Y015828D01*
X012623Y015869D02*
X012208Y015869D01*
X012208Y015100D01*
X012484Y015100D01*
X012525Y015111D01*
X012561Y015131D01*
X012591Y015161D01*
X012612Y015197D01*
X012623Y015238D01*
X012623Y015869D01*
X012623Y015712D02*
X013604Y015712D01*
X013680Y015595D02*
X012623Y015595D01*
X012623Y015478D02*
X014411Y015478D01*
X014411Y015362D02*
X012623Y015362D01*
X012623Y015245D02*
X014411Y015245D01*
X014411Y015129D02*
X012556Y015129D01*
X012208Y015129D02*
X012089Y015129D01*
X012089Y015245D02*
X012208Y015245D01*
X012208Y015362D02*
X012089Y015362D01*
X012089Y015478D02*
X012208Y015478D01*
X012208Y015595D02*
X012089Y015595D01*
X012089Y015712D02*
X012208Y015712D01*
X012208Y015828D02*
X012089Y015828D01*
X012208Y015945D02*
X013920Y015945D01*
X013920Y015828D02*
X013999Y015828D01*
X013999Y015712D02*
X013920Y015712D01*
X013920Y015595D02*
X013999Y015595D01*
X014239Y015595D02*
X014364Y015595D01*
X014437Y015012D02*
X011617Y015012D01*
X011632Y014895D02*
X013764Y014895D01*
X013712Y014779D02*
X011656Y014779D01*
X011656Y014662D02*
X013712Y014662D01*
X013712Y014546D02*
X011656Y014546D01*
X011656Y014429D02*
X013712Y014429D01*
X013712Y014312D02*
X011656Y014312D01*
X011656Y014196D02*
X013773Y014196D01*
X013467Y014079D02*
X013389Y014079D01*
X013389Y013963D02*
X013467Y013963D01*
X013467Y013846D02*
X013389Y013846D01*
X013389Y013729D02*
X011656Y013729D01*
X011656Y013613D02*
X013052Y013613D01*
X013052Y013545D02*
X013052Y013723D01*
X013389Y013723D01*
X013389Y013407D01*
X013191Y013407D01*
X013150Y013418D01*
X013114Y013439D01*
X013084Y013468D01*
X013063Y013504D01*
X013052Y013545D01*
X013068Y013496D02*
X011656Y013496D01*
X011656Y013379D02*
X013705Y013379D01*
X013467Y013496D02*
X013389Y013496D01*
X013389Y013613D02*
X013467Y013613D01*
X013052Y013846D02*
X011656Y013846D01*
X011656Y013963D02*
X013052Y013963D01*
X013106Y014079D02*
X011656Y014079D01*
X011656Y013263D02*
X014412Y013263D01*
X014412Y013146D02*
X011656Y013146D01*
X011656Y013030D02*
X011771Y013030D01*
X012329Y013030D02*
X012441Y013030D01*
X012719Y012582D02*
X013369Y012582D01*
X013813Y012563D02*
X014412Y012563D01*
X014412Y012447D02*
X013813Y012447D01*
X013808Y012330D02*
X014412Y012330D01*
X014412Y012213D02*
X013739Y012213D01*
X014291Y011980D02*
X011189Y011980D01*
X011186Y011982D02*
X011146Y011993D01*
X010987Y011993D01*
X010987Y011617D01*
X011284Y011617D01*
X011284Y011854D01*
X011273Y011895D01*
X011252Y011931D01*
X011223Y011961D01*
X011186Y011982D01*
X011282Y011864D02*
X012599Y011864D01*
X012778Y011597D02*
X012582Y011400D01*
X012778Y011597D02*
X014353Y011597D01*
X014727Y011971D01*
X014727Y013743D01*
X015042Y013427D02*
X017691Y013427D01*
X017760Y013358D01*
X017854Y013319D01*
X018332Y013319D01*
X018426Y013358D01*
X018498Y013430D01*
X018537Y013524D01*
X018537Y014002D01*
X018530Y014019D01*
X019726Y014019D01*
X020318Y013427D01*
X020318Y013353D01*
X020311Y013350D01*
X020239Y013278D01*
X020200Y013184D01*
X020200Y012649D01*
X020239Y012555D01*
X020299Y012494D01*
X020297Y012484D01*
X020297Y012286D01*
X020613Y012286D01*
X020613Y012208D01*
X020297Y012208D01*
X020297Y012009D01*
X020307Y011969D01*
X020328Y011933D01*
X020358Y011903D01*
X020394Y011882D01*
X020435Y011871D01*
X020613Y011871D01*
X020613Y012208D01*
X020692Y012208D01*
X020692Y012286D01*
X021008Y012286D01*
X021008Y012444D01*
X021301Y012444D01*
X021754Y011991D01*
X021216Y011453D01*
X021137Y011421D01*
X021065Y011349D01*
X021026Y011255D01*
X021026Y010860D01*
X020610Y010860D01*
X020516Y010821D01*
X020444Y010749D01*
X020405Y010655D01*
X020405Y010177D01*
X020444Y010083D01*
X020516Y010011D01*
X020610Y009972D01*
X021088Y009972D01*
X021182Y010011D01*
X021253Y010082D01*
X022010Y010082D01*
X021301Y009373D01*
X020389Y009373D01*
X020266Y009322D01*
X020172Y009228D01*
X020099Y009155D01*
X020099Y009562D01*
X019771Y009891D01*
X019306Y009891D01*
X018977Y009562D01*
X018977Y009547D01*
X018731Y009794D01*
X018573Y009794D01*
X018573Y009364D01*
X018504Y009364D01*
X018504Y009794D01*
X018346Y009794D01*
X018074Y009522D01*
X018074Y009364D01*
X018504Y009364D01*
X018504Y009295D01*
X018074Y009295D01*
X018074Y009137D01*
X018321Y008891D01*
X018306Y008891D01*
X017977Y008562D01*
X017977Y008097D01*
X018245Y007830D01*
X017977Y007562D01*
X017977Y007097D01*
X018204Y006871D01*
X018204Y006755D01*
X018255Y006632D01*
X018349Y006538D01*
X018691Y006196D01*
X018814Y006145D01*
X019932Y006145D01*
X020055Y006196D01*
X020149Y006290D01*
X020594Y006735D01*
X021478Y006735D01*
X021405Y006662D01*
X021379Y006687D01*
X021285Y006726D01*
X020807Y006726D01*
X020713Y006687D01*
X020641Y006615D01*
X020602Y006521D01*
X020602Y006125D01*
X020355Y006125D01*
X020261Y006086D01*
X020189Y006014D01*
X020170Y005967D01*
X019954Y005967D01*
X019934Y006014D01*
X019862Y006086D01*
X019768Y006125D01*
X018485Y006125D01*
X018391Y006086D01*
X018319Y006014D01*
X018280Y005920D01*
X018280Y005346D01*
X018319Y005252D01*
X018391Y005180D01*
X018485Y005141D01*
X019768Y005141D01*
X019862Y005180D01*
X019934Y005252D01*
X019954Y005298D01*
X020170Y005298D01*
X020189Y005252D01*
X020261Y005180D01*
X020355Y005141D01*
X021638Y005141D01*
X021732Y005180D01*
X021804Y005252D01*
X021843Y005346D01*
X021843Y005920D01*
X021804Y006014D01*
X021754Y006064D01*
X021952Y006263D01*
X022199Y006263D01*
X022293Y006302D01*
X022365Y006374D01*
X022404Y006468D01*
X022404Y007003D01*
X022377Y007070D01*
X022404Y007137D01*
X022404Y007175D01*
X022417Y007180D01*
X022511Y007274D01*
X022563Y007326D01*
X023313Y007326D01*
X023349Y007240D01*
X023409Y007179D01*
X023407Y007169D01*
X023407Y006971D01*
X023723Y006971D01*
X023723Y006893D01*
X023407Y006893D01*
X023407Y006694D01*
X023418Y006654D01*
X023439Y006618D01*
X023468Y006588D01*
X023504Y006567D01*
X023545Y006556D01*
X023723Y006556D01*
X023723Y006893D01*
X023802Y006893D01*
X023802Y006556D01*
X023980Y006556D01*
X024021Y006567D01*
X024057Y006588D01*
X024087Y006618D01*
X024108Y006654D01*
X024119Y006694D01*
X024119Y006765D01*
X024137Y006746D01*
X024174Y006725D01*
X024214Y006714D01*
X024412Y006714D01*
X024412Y007030D01*
X024491Y007030D01*
X024491Y006714D01*
X024689Y006714D01*
X024699Y006716D01*
X024759Y006656D01*
X024786Y006645D01*
X024786Y006165D01*
X024752Y006131D01*
X022573Y006131D01*
X022479Y006092D01*
X022407Y006020D01*
X022368Y005926D01*
X022368Y005064D01*
X022407Y004970D01*
X022479Y004898D01*
X022573Y004859D01*
X024775Y004859D01*
X024869Y004898D01*
X024941Y004970D01*
X024980Y005064D01*
X024980Y005412D01*
X025405Y005837D01*
X025456Y005960D01*
X025456Y006645D01*
X025482Y006656D01*
X025554Y006728D01*
X025574Y006774D01*
X025593Y006728D01*
X025665Y006656D01*
X025692Y006645D01*
X025692Y005960D01*
X025743Y005837D01*
X026168Y005412D01*
X026168Y005064D01*
X026207Y004970D01*
X026279Y004898D01*
X026373Y004859D01*
X028575Y004859D01*
X028669Y004898D01*
X028741Y004970D01*
X028780Y005064D01*
X028780Y005926D01*
X028741Y006020D01*
X028669Y006092D01*
X028575Y006131D01*
X026395Y006131D01*
X026361Y006165D01*
X026361Y006645D01*
X026388Y006656D01*
X026448Y006716D01*
X026458Y006714D01*
X026656Y006714D01*
X026656Y007030D01*
X026735Y007030D01*
X026735Y006714D01*
X026933Y006714D01*
X026974Y006725D01*
X027010Y006746D01*
X027040Y006775D01*
X027060Y006812D01*
X027071Y006852D01*
X027071Y007030D01*
X026735Y007030D01*
X026735Y007109D01*
X026656Y007109D01*
X026656Y007426D01*
X026458Y007426D01*
X026448Y007423D01*
X026388Y007484D01*
X026294Y007523D01*
X026270Y007523D01*
X026342Y007594D01*
X026381Y007688D01*
X026381Y008184D01*
X026379Y008188D01*
X026487Y008188D01*
X026562Y008219D01*
X026637Y008188D01*
X026802Y008188D01*
X026877Y008219D01*
X026952Y008188D01*
X027117Y008188D01*
X027192Y008219D01*
X027267Y008188D01*
X027432Y008188D01*
X027552Y008238D01*
X027644Y008330D01*
X027694Y008450D01*
X027694Y008989D01*
X027644Y009109D01*
X027641Y009113D01*
X027641Y009176D01*
X027596Y009284D01*
X027513Y009367D01*
X027513Y009367D01*
X027075Y009805D01*
X027195Y009805D01*
X027246Y009819D01*
X027273Y009835D01*
X027528Y009580D01*
X027611Y009497D01*
X027626Y009491D01*
X027627Y009489D01*
X027623Y009468D01*
X027623Y009428D01*
X027623Y009388D01*
X027632Y009343D01*
X027649Y009301D01*
X027675Y009264D01*
X027707Y009232D01*
X027744Y009207D01*
X027786Y009189D01*
X027831Y009180D01*
X028058Y009180D01*
X028285Y009180D01*
X028330Y009189D01*
X028372Y009207D01*
X028409Y009232D01*
X028441Y009264D01*
X028466Y009301D01*
X028476Y009325D01*
X028476Y008996D01*
X028515Y008902D01*
X028587Y008830D01*
X028681Y008791D01*
X029159Y008791D01*
X029253Y008830D01*
X029325Y008902D01*
X029364Y008996D01*
X029364Y009412D01*
X029488Y009412D01*
X029491Y009405D01*
X029551Y009345D01*
X029549Y009335D01*
X029549Y009137D01*
X029865Y009137D01*
X029865Y009058D01*
X029549Y009058D01*
X029549Y008860D01*
X029559Y008819D01*
X029580Y008783D01*
X029610Y008754D01*
X029646Y008733D01*
X029687Y008722D01*
X029865Y008722D01*
X029865Y009058D01*
X029944Y009058D01*
X029944Y009137D01*
X030260Y009137D01*
X030260Y009335D01*
X030258Y009345D01*
X030318Y009405D01*
X030329Y009432D01*
X030448Y009432D01*
X030468Y009412D01*
X030562Y009373D01*
X031136Y009373D01*
X031230Y009412D01*
X031282Y009464D01*
X031334Y009412D01*
X031428Y009373D01*
X032003Y009373D01*
X032097Y009412D01*
X032169Y009484D01*
X032172Y009491D01*
X032326Y009491D01*
X032326Y005830D01*
X029247Y005830D01*
X029124Y005779D01*
X029030Y005685D01*
X028979Y005562D01*
X028979Y004649D01*
X022161Y004649D01*
X022038Y004598D01*
X021944Y004503D01*
X021893Y004380D01*
X021893Y003861D01*
X021726Y003861D01*
X021736Y003878D01*
X021747Y003919D01*
X021747Y004117D01*
X021056Y004117D01*
X021056Y004235D01*
X021747Y004235D01*
X021747Y004433D01*
X021736Y004474D01*
X021715Y004510D01*
X021685Y004540D01*
X021649Y004560D01*
X021608Y004571D01*
X021056Y004571D01*
X021056Y004235D01*
X020938Y004235D01*
X020938Y004117D01*
X020247Y004117D01*
X020247Y003919D01*
X020258Y003878D01*
X020268Y003861D01*
X019856Y003861D01*
X019866Y003878D01*
X019876Y003919D01*
X019876Y004117D01*
X019186Y004117D01*
X019186Y004235D01*
X019876Y004235D01*
X019876Y004433D01*
X019866Y004474D01*
X019845Y004510D01*
X019815Y004540D01*
X019779Y004560D01*
X019738Y004571D01*
X019186Y004571D01*
X019186Y004235D01*
X019068Y004235D01*
X019068Y004571D01*
X018515Y004571D01*
X018475Y004560D01*
X018439Y004540D01*
X018409Y004510D01*
X018388Y004474D01*
X018377Y004433D01*
X018377Y004235D01*
X019068Y004235D01*
X019068Y004117D01*
X018377Y004117D01*
X018377Y003919D01*
X018388Y003878D01*
X018398Y003861D01*
X015772Y003861D01*
X015772Y004058D01*
X015436Y004058D01*
X015436Y004176D01*
X015772Y004176D01*
X015772Y004473D01*
X015761Y004513D01*
X015740Y004549D01*
X015711Y004579D01*
X015674Y004600D01*
X015634Y004611D01*
X015436Y004611D01*
X015436Y004176D01*
X015318Y004176D01*
X015318Y004581D01*
X015327Y004590D01*
X015348Y004626D01*
X015359Y004667D01*
X015359Y004885D01*
X015359Y005103D01*
X015348Y005143D01*
X015327Y005179D01*
X015297Y005209D01*
X015261Y005230D01*
X015221Y005241D01*
X015101Y005241D01*
X015088Y005241D01*
X015030Y005299D01*
X014936Y005337D01*
X014809Y005337D01*
X014788Y005358D01*
X014788Y005928D01*
X015082Y005928D01*
X015082Y005916D01*
X014788Y005916D01*
X014788Y005800D02*
X015143Y005800D01*
X015121Y005822D02*
X015193Y005750D01*
X015287Y005711D01*
X015782Y005711D01*
X015876Y005750D01*
X015948Y005822D01*
X015987Y005916D01*
X018280Y005916D01*
X018280Y005800D02*
X015925Y005800D01*
X015987Y005916D02*
X015987Y006569D01*
X015984Y006578D01*
X016156Y006578D01*
X016250Y006617D01*
X016322Y006689D01*
X016361Y006783D01*
X016361Y007089D01*
X016409Y007136D01*
X016460Y007259D01*
X016460Y008506D01*
X018123Y010169D01*
X018332Y010169D01*
X018426Y010208D01*
X018498Y010280D01*
X018537Y010374D01*
X018537Y010852D01*
X018498Y010946D01*
X018426Y011018D01*
X018332Y011057D01*
X017854Y011057D01*
X017760Y011018D01*
X017688Y010946D01*
X017649Y010852D01*
X017649Y010642D01*
X015935Y008928D01*
X015908Y008901D01*
X015908Y010643D01*
X015939Y010674D01*
X015978Y010768D01*
X015978Y011246D01*
X015939Y011340D01*
X015867Y011412D01*
X015773Y011451D01*
X015295Y011451D01*
X015201Y011412D01*
X015129Y011340D01*
X015090Y011246D01*
X015090Y010768D01*
X015129Y010674D01*
X015160Y010643D01*
X015160Y010575D01*
X015121Y010575D01*
X015121Y010259D01*
X015042Y010259D01*
X015042Y010575D01*
X014844Y010575D01*
X014834Y010573D01*
X014774Y010633D01*
X014680Y010672D01*
X014145Y010672D01*
X014063Y010638D01*
X014002Y010663D01*
X013764Y010663D01*
X013774Y010674D01*
X013813Y010768D01*
X013813Y011246D01*
X013798Y011282D01*
X014416Y011282D01*
X014532Y011330D01*
X014620Y011419D01*
X014906Y011704D01*
X014994Y011793D01*
X015042Y011909D01*
X015042Y013427D01*
X015042Y013379D02*
X017738Y013379D01*
X018448Y013379D02*
X020318Y013379D01*
X020249Y013496D02*
X018526Y013496D01*
X018537Y013613D02*
X020132Y013613D01*
X020016Y013729D02*
X018537Y013729D01*
X018537Y013846D02*
X019899Y013846D01*
X019782Y013963D02*
X018537Y013963D01*
X020232Y013263D02*
X015042Y013263D01*
X015042Y013146D02*
X020200Y013146D01*
X020200Y013030D02*
X015042Y013030D01*
X015042Y012913D02*
X020200Y012913D01*
X020200Y012796D02*
X015042Y012796D01*
X015042Y012680D02*
X020200Y012680D01*
X020235Y012563D02*
X015042Y012563D01*
X015042Y012447D02*
X020297Y012447D01*
X020297Y012330D02*
X015042Y012330D01*
X015042Y012213D02*
X020613Y012213D01*
X020692Y012213D02*
X021532Y012213D01*
X021648Y012097D02*
X021008Y012097D01*
X021008Y012009D02*
X021008Y012208D01*
X020692Y012208D01*
X020692Y011871D01*
X020870Y011871D01*
X020911Y011882D01*
X020947Y011903D01*
X020977Y011933D01*
X020998Y011969D01*
X021008Y012009D01*
X021000Y011980D02*
X021743Y011980D01*
X021627Y011864D02*
X015024Y011864D01*
X015042Y011980D02*
X020304Y011980D01*
X020297Y012097D02*
X015042Y012097D01*
X014948Y011747D02*
X021510Y011747D01*
X021393Y011630D02*
X014832Y011630D01*
X014906Y011704D02*
X014906Y011704D01*
X014715Y011514D02*
X021277Y011514D01*
X021114Y011397D02*
X015882Y011397D01*
X015964Y011280D02*
X021037Y011280D01*
X021026Y011164D02*
X015978Y011164D01*
X015978Y011047D02*
X017831Y011047D01*
X017682Y010931D02*
X015978Y010931D01*
X015978Y010814D02*
X017649Y010814D01*
X017649Y010697D02*
X015949Y010697D01*
X015908Y010581D02*
X017588Y010581D01*
X017471Y010464D02*
X015908Y010464D01*
X015908Y010348D02*
X017355Y010348D01*
X017238Y010231D02*
X015908Y010231D01*
X015908Y010114D02*
X017121Y010114D01*
X017005Y009998D02*
X015908Y009998D01*
X015908Y009881D02*
X016888Y009881D01*
X016772Y009765D02*
X015908Y009765D01*
X015908Y009648D02*
X016655Y009648D01*
X016538Y009531D02*
X015908Y009531D01*
X015908Y009415D02*
X016422Y009415D01*
X016305Y009298D02*
X015908Y009298D01*
X015908Y009182D02*
X016189Y009182D01*
X016072Y009065D02*
X015908Y009065D01*
X015908Y008948D02*
X015955Y008948D01*
X016552Y008598D02*
X018014Y008598D01*
X017977Y008482D02*
X016460Y008482D01*
X016460Y008365D02*
X017977Y008365D01*
X017977Y008249D02*
X016460Y008249D01*
X016460Y008132D02*
X017977Y008132D01*
X018059Y008015D02*
X016460Y008015D01*
X016460Y007899D02*
X018176Y007899D01*
X018197Y007782D02*
X016460Y007782D01*
X016460Y007666D02*
X018081Y007666D01*
X017977Y007549D02*
X016460Y007549D01*
X016460Y007432D02*
X017977Y007432D01*
X017977Y007316D02*
X016460Y007316D01*
X016435Y007199D02*
X017977Y007199D01*
X017992Y007083D02*
X016361Y007083D01*
X016361Y006966D02*
X018109Y006966D01*
X018204Y006849D02*
X016361Y006849D01*
X016340Y006733D02*
X018213Y006733D01*
X018271Y006616D02*
X016249Y006616D01*
X015987Y006499D02*
X018387Y006499D01*
X018504Y006383D02*
X015987Y006383D01*
X015987Y006266D02*
X018620Y006266D01*
X018802Y006150D02*
X015987Y006150D01*
X015987Y006033D02*
X018338Y006033D01*
X018280Y005683D02*
X014788Y005683D01*
X014788Y005567D02*
X018280Y005567D01*
X018280Y005450D02*
X014788Y005450D01*
X014946Y005333D02*
X018285Y005333D01*
X018354Y005217D02*
X015284Y005217D01*
X015359Y005100D02*
X022368Y005100D01*
X022368Y005217D02*
X021770Y005217D01*
X021838Y005333D02*
X022368Y005333D01*
X022368Y005450D02*
X021843Y005450D01*
X021843Y005567D02*
X022368Y005567D01*
X022368Y005683D02*
X021843Y005683D01*
X021843Y005800D02*
X022368Y005800D01*
X022368Y005916D02*
X021843Y005916D01*
X021785Y006033D02*
X022420Y006033D01*
X022208Y006266D02*
X024786Y006266D01*
X024786Y006383D02*
X022369Y006383D01*
X022404Y006499D02*
X024786Y006499D01*
X024786Y006616D02*
X024085Y006616D01*
X024119Y006733D02*
X024160Y006733D01*
X024412Y006733D02*
X024491Y006733D01*
X024491Y006849D02*
X024412Y006849D01*
X024412Y006966D02*
X024491Y006966D01*
X023802Y006849D02*
X023723Y006849D01*
X023723Y006733D02*
X023802Y006733D01*
X023802Y006616D02*
X023723Y006616D01*
X023440Y006616D02*
X022404Y006616D01*
X022404Y006733D02*
X023407Y006733D01*
X023407Y006849D02*
X022404Y006849D01*
X022404Y006966D02*
X023723Y006966D01*
X023407Y007083D02*
X022382Y007083D01*
X022436Y007199D02*
X023390Y007199D01*
X023317Y007316D02*
X022553Y007316D01*
X021476Y006733D02*
X020592Y006733D01*
X020642Y006616D02*
X020475Y006616D01*
X020359Y006499D02*
X020602Y006499D01*
X020602Y006383D02*
X020242Y006383D01*
X020125Y006266D02*
X020602Y006266D01*
X020602Y006150D02*
X019944Y006150D01*
X019915Y006033D02*
X020209Y006033D01*
X020224Y005217D02*
X019900Y005217D01*
X019838Y004517D02*
X020286Y004517D01*
X020279Y004510D02*
X020258Y004474D01*
X020247Y004433D01*
X020247Y004235D01*
X020938Y004235D01*
X020938Y004571D01*
X020385Y004571D01*
X020345Y004560D01*
X020309Y004540D01*
X020279Y004510D01*
X020247Y004400D02*
X019876Y004400D01*
X019876Y004284D02*
X020247Y004284D01*
X020247Y004051D02*
X019876Y004051D01*
X019876Y003934D02*
X020247Y003934D01*
X020938Y004167D02*
X019186Y004167D01*
X019186Y004284D02*
X019068Y004284D01*
X019068Y004400D02*
X019186Y004400D01*
X019186Y004517D02*
X019068Y004517D01*
X019068Y004167D02*
X015436Y004167D01*
X015436Y004284D02*
X015318Y004284D01*
X015318Y004176D02*
X015318Y004058D01*
X014982Y004058D01*
X014982Y003861D01*
X014906Y003861D01*
X014906Y004058D01*
X014570Y004058D01*
X014570Y004176D01*
X014906Y004176D01*
X014906Y004432D01*
X014936Y004432D01*
X014982Y004451D01*
X014982Y004176D01*
X015318Y004176D01*
X015318Y004167D02*
X014570Y004167D01*
X014452Y004167D02*
X014097Y004167D01*
X014115Y004176D02*
X014452Y004176D01*
X014452Y004058D01*
X014115Y004058D01*
X014115Y003861D01*
X014097Y003861D01*
X014097Y005682D01*
X014116Y005700D01*
X014116Y005153D01*
X014167Y005029D01*
X014432Y004764D01*
X014432Y004637D01*
X014443Y004611D01*
X014254Y004611D01*
X014213Y004600D01*
X014177Y004579D01*
X014147Y004549D01*
X014126Y004513D01*
X014115Y004473D01*
X014115Y004176D01*
X014115Y004284D02*
X014097Y004284D01*
X014097Y004400D02*
X014115Y004400D01*
X014129Y004517D02*
X014097Y004517D01*
X014097Y004634D02*
X014433Y004634D01*
X014432Y004750D02*
X014097Y004750D01*
X014097Y004867D02*
X014329Y004867D01*
X014212Y004984D02*
X014097Y004984D01*
X014097Y005100D02*
X014137Y005100D01*
X014116Y005217D02*
X014097Y005217D01*
X014097Y005333D02*
X014116Y005333D01*
X014116Y005450D02*
X014097Y005450D01*
X014097Y005567D02*
X014116Y005567D01*
X014116Y005683D02*
X014098Y005683D01*
X013428Y005385D02*
X013428Y003925D01*
X013364Y003861D01*
X013278Y003861D01*
X013270Y003869D01*
X013176Y003908D01*
X012680Y003908D01*
X012586Y003869D01*
X012578Y003861D01*
X012530Y003861D01*
X012602Y003933D01*
X012634Y004010D01*
X012651Y003980D01*
X012681Y003950D01*
X012717Y003929D01*
X012757Y003919D01*
X012916Y003919D01*
X012916Y004294D01*
X012956Y004294D01*
X012956Y004334D01*
X012916Y004334D01*
X012916Y004709D01*
X012897Y004709D01*
X012897Y005396D01*
X012914Y005386D01*
X012954Y005375D01*
X013133Y005375D01*
X013133Y005711D01*
X013211Y005711D01*
X013211Y005375D01*
X013390Y005375D01*
X013428Y005385D01*
X013428Y005333D02*
X012897Y005333D01*
X012897Y005217D02*
X013428Y005217D01*
X013428Y005100D02*
X012897Y005100D01*
X012897Y004984D02*
X013428Y004984D01*
X013428Y004867D02*
X012897Y004867D01*
X012897Y004750D02*
X013428Y004750D01*
X013428Y004634D02*
X013229Y004634D01*
X013221Y004648D02*
X013191Y004677D01*
X013155Y004698D01*
X013114Y004709D01*
X012956Y004709D01*
X012956Y004334D01*
X013252Y004334D01*
X013252Y004571D01*
X013242Y004611D01*
X013221Y004648D01*
X013252Y004517D02*
X013428Y004517D01*
X013428Y004400D02*
X013252Y004400D01*
X013252Y004294D02*
X012956Y004294D01*
X012956Y003919D01*
X013114Y003919D01*
X013155Y003929D01*
X013191Y003950D01*
X013221Y003980D01*
X013242Y004016D01*
X013252Y004057D01*
X013252Y004294D01*
X013252Y004284D02*
X013428Y004284D01*
X013428Y004167D02*
X013252Y004167D01*
X013251Y004051D02*
X013428Y004051D01*
X013428Y003934D02*
X013163Y003934D01*
X012956Y003934D02*
X012916Y003934D01*
X012916Y004051D02*
X012956Y004051D01*
X012956Y004167D02*
X012916Y004167D01*
X012916Y004284D02*
X012956Y004284D01*
X012956Y004400D02*
X012916Y004400D01*
X012916Y004517D02*
X012956Y004517D01*
X012956Y004634D02*
X012916Y004634D01*
X012582Y004668D02*
X012227Y004314D01*
X012168Y004373D01*
X011794Y004373D01*
X011597Y004373D02*
X011597Y003763D01*
X011204Y003763D02*
X011204Y004373D01*
X011371Y004875D02*
X010730Y004875D01*
X010730Y004774D01*
X010615Y004774D01*
X010615Y004845D01*
X010239Y004845D01*
X010239Y004885D01*
X010200Y004885D01*
X010200Y005182D01*
X009962Y005182D01*
X009922Y005171D01*
X009885Y005150D01*
X009856Y005120D01*
X009835Y005084D01*
X009826Y005049D01*
X009816Y005084D01*
X009795Y005120D01*
X009766Y005150D01*
X009730Y005171D01*
X009689Y005182D01*
X009570Y005182D01*
X009570Y005955D01*
X009519Y006078D01*
X009452Y006145D01*
X009452Y006758D01*
X009389Y006910D01*
X009158Y007141D01*
X009154Y007150D01*
X008804Y007501D01*
X008794Y007505D01*
X008709Y007590D01*
X008709Y007596D01*
X008670Y007690D01*
X008641Y007719D01*
X009518Y007719D01*
X009775Y007462D01*
X009775Y007224D01*
X009814Y007130D01*
X009886Y007058D01*
X009980Y007019D01*
X009998Y007019D01*
X009964Y007000D01*
X009935Y006971D01*
X009914Y006934D01*
X009903Y006894D01*
X009903Y006715D01*
X010239Y006715D01*
X010239Y006637D01*
X009903Y006637D01*
X009903Y006458D01*
X009914Y006418D01*
X009935Y006382D01*
X009964Y006352D01*
X010000Y006331D01*
X010041Y006320D01*
X010239Y006320D01*
X010239Y006637D01*
X010318Y006637D01*
X010318Y006320D01*
X010516Y006320D01*
X010526Y006323D01*
X010563Y006286D01*
X010563Y005846D01*
X010602Y005752D01*
X010674Y005680D01*
X010702Y005669D01*
X010702Y005188D01*
X010733Y005114D01*
X010730Y005103D01*
X010730Y004934D01*
X011371Y004934D01*
X011371Y004875D01*
X011430Y004875D02*
X011430Y004934D01*
X012071Y004934D01*
X012071Y005103D01*
X012068Y005114D01*
X012099Y005188D01*
X012099Y005349D01*
X012109Y005373D01*
X012109Y006742D01*
X012267Y006900D01*
X012267Y004806D01*
X012071Y004806D01*
X012071Y004875D01*
X011430Y004875D01*
X011400Y005436D02*
X011400Y006676D01*
X011007Y006676D01*
X010948Y006676D01*
X011007Y006676D02*
X011007Y007070D01*
X010318Y006616D02*
X010239Y006616D01*
X010239Y006499D02*
X010318Y006499D01*
X010318Y006383D02*
X010239Y006383D01*
X009934Y006383D02*
X009452Y006383D01*
X009452Y006499D02*
X009903Y006499D01*
X009903Y006616D02*
X009452Y006616D01*
X009452Y006733D02*
X009903Y006733D01*
X009903Y006849D02*
X009414Y006849D01*
X009333Y006966D02*
X009932Y006966D01*
X009862Y007083D02*
X009216Y007083D01*
X009105Y007199D02*
X009786Y007199D01*
X009775Y007316D02*
X008989Y007316D01*
X008872Y007432D02*
X009775Y007432D01*
X009688Y007549D02*
X008750Y007549D01*
X008680Y007666D02*
X009572Y007666D01*
X009629Y008054D02*
X010219Y007463D01*
X010618Y007803D02*
X010552Y007869D01*
X010458Y007907D01*
X010221Y007907D01*
X010155Y007974D01*
X010200Y007974D01*
X010200Y008271D01*
X010239Y008271D01*
X010239Y008310D01*
X010615Y008310D01*
X010615Y008428D01*
X011190Y008428D01*
X010656Y007894D01*
X010618Y007803D01*
X010661Y007899D02*
X010479Y007899D01*
X010477Y007974D02*
X010517Y007985D01*
X010553Y008005D01*
X010583Y008035D01*
X010604Y008071D01*
X010615Y008112D01*
X010615Y008271D01*
X010239Y008271D01*
X010239Y007974D01*
X010477Y007974D01*
X010563Y008015D02*
X010777Y008015D01*
X010894Y008132D02*
X010615Y008132D01*
X010615Y008249D02*
X011010Y008249D01*
X011127Y008365D02*
X010615Y008365D01*
X010239Y008249D02*
X010200Y008249D01*
X010200Y008132D02*
X010239Y008132D01*
X010239Y008015D02*
X010200Y008015D01*
X010278Y009058D02*
X010278Y009629D01*
X010278Y009826D02*
X009668Y009826D01*
X009367Y009998D02*
X008093Y009998D01*
X008093Y010003D02*
X008410Y010003D01*
X008410Y010201D01*
X008399Y010241D01*
X008378Y010278D01*
X008349Y010307D01*
X008312Y010328D01*
X008272Y010339D01*
X008093Y010339D01*
X008093Y010003D01*
X008015Y009998D02*
X007504Y009998D01*
X007504Y009881D02*
X007698Y009881D01*
X007698Y009765D02*
X007504Y009765D01*
X007504Y009786D02*
X007149Y009786D01*
X007149Y009470D01*
X007366Y009470D01*
X007407Y009481D01*
X007443Y009502D01*
X007473Y009531D01*
X007494Y009567D01*
X007504Y009608D01*
X007504Y009786D01*
X007504Y009648D02*
X007637Y009648D01*
X007601Y009531D02*
X007473Y009531D01*
X007601Y009415D02*
X006627Y009415D01*
X006716Y009531D02*
X006746Y009531D01*
X007070Y009531D02*
X007149Y009531D01*
X007149Y009648D02*
X007070Y009648D01*
X007070Y009765D02*
X007149Y009765D01*
X007149Y009881D02*
X007070Y009881D01*
X007070Y009998D02*
X007149Y009998D01*
X007149Y010114D02*
X007070Y010114D01*
X006742Y010114D02*
X006718Y010114D01*
X006633Y010231D02*
X007706Y010231D01*
X007698Y010114D02*
X007476Y010114D01*
X008015Y010114D02*
X008093Y010114D01*
X008093Y010231D02*
X008015Y010231D01*
X008402Y010231D02*
X008665Y010231D01*
X008410Y010114D02*
X009300Y010114D01*
X009668Y010219D02*
X010278Y010219D01*
X010780Y010231D02*
X010839Y010231D01*
X010839Y010348D02*
X010780Y010348D01*
X010780Y010464D02*
X010839Y010464D01*
X010839Y010581D02*
X010780Y010581D01*
X010789Y010611D02*
X010839Y010611D01*
X010839Y010052D01*
X010780Y010052D01*
X010780Y010614D01*
X010789Y010611D01*
X010948Y011026D02*
X010948Y011402D01*
X010948Y011578D01*
X010987Y011578D01*
X010987Y011026D01*
X010948Y011026D01*
X010948Y011047D02*
X010987Y011047D01*
X010987Y011164D02*
X010948Y011164D01*
X010948Y011280D02*
X010987Y011280D01*
X010987Y011397D02*
X010948Y011397D01*
X010948Y011514D02*
X010987Y011514D01*
X010987Y011630D02*
X010948Y011630D01*
X010948Y011747D02*
X010987Y011747D01*
X010987Y011864D02*
X010948Y011864D01*
X010948Y011980D02*
X010987Y011980D01*
X010798Y012097D02*
X014407Y012097D01*
X014412Y012680D02*
X013813Y012680D01*
X013813Y012796D02*
X014412Y012796D01*
X014412Y012913D02*
X013775Y012913D01*
X014412Y013030D02*
X012998Y013030D01*
X011643Y012213D02*
X010915Y012213D01*
X010746Y011980D02*
X010701Y011980D01*
X011284Y011747D02*
X012190Y011747D01*
X012138Y011630D02*
X011284Y011630D01*
X011284Y011514D02*
X012138Y011514D01*
X012138Y011397D02*
X011284Y011397D01*
X011279Y011280D02*
X012026Y011280D01*
X011900Y011164D02*
X011284Y011164D01*
X011284Y011047D02*
X011783Y011047D01*
X011666Y010931D02*
X011284Y010931D01*
X011284Y010814D02*
X011550Y010814D01*
X011597Y010416D02*
X011341Y010416D01*
X011597Y010416D02*
X012188Y011007D01*
X013369Y011007D01*
X013369Y008979D01*
X013822Y008948D02*
X014124Y008948D01*
X014145Y008940D02*
X014680Y008940D01*
X014747Y008968D01*
X014767Y008960D01*
X014767Y008519D01*
X014223Y007975D01*
X013673Y007975D01*
X013693Y007996D01*
X013714Y008032D01*
X013725Y008072D01*
X013725Y008271D01*
X013408Y008271D01*
X013408Y008349D01*
X013725Y008349D01*
X013725Y008547D01*
X013722Y008557D01*
X013783Y008618D01*
X013822Y008712D01*
X013822Y009247D01*
X013783Y009341D01*
X013711Y009413D01*
X013684Y009424D01*
X013684Y009775D01*
X014002Y009775D01*
X014033Y009788D01*
X013979Y009734D01*
X013940Y009640D01*
X013940Y009145D01*
X013979Y009051D01*
X014051Y008979D01*
X014145Y008940D01*
X013973Y009065D02*
X013822Y009065D01*
X013822Y009182D02*
X013940Y009182D01*
X013940Y009298D02*
X013800Y009298D01*
X013706Y009415D02*
X013940Y009415D01*
X013940Y009531D02*
X013684Y009531D01*
X013684Y009648D02*
X013943Y009648D01*
X014009Y009765D02*
X013684Y009765D01*
X014412Y009393D02*
X014412Y010219D01*
X014813Y009845D02*
X014834Y009866D01*
X014844Y009863D01*
X015042Y009863D01*
X015042Y010180D01*
X015121Y010180D01*
X015121Y009863D01*
X015160Y009863D01*
X015160Y009845D01*
X014814Y009845D01*
X014813Y009845D01*
X015042Y009881D02*
X015121Y009881D01*
X015121Y009998D02*
X015042Y009998D01*
X015042Y010114D02*
X015121Y010114D01*
X015121Y010348D02*
X015042Y010348D01*
X015042Y010464D02*
X015121Y010464D01*
X015160Y010581D02*
X014826Y010581D01*
X015119Y010697D02*
X013784Y010697D01*
X013813Y010814D02*
X015090Y010814D01*
X015090Y010931D02*
X013813Y010931D01*
X013813Y011047D02*
X015090Y011047D01*
X015090Y011164D02*
X013813Y011164D01*
X013799Y011280D02*
X015105Y011280D01*
X015187Y011397D02*
X014598Y011397D01*
X012975Y010219D02*
X012582Y009826D01*
X011341Y009826D01*
X011341Y010023D02*
X011794Y010023D01*
X011991Y010219D01*
X011991Y009629D02*
X011341Y009629D01*
X011255Y009324D02*
X011279Y009314D01*
X011861Y009314D01*
X011889Y009285D01*
X011555Y009285D01*
X011481Y009255D01*
X010692Y009255D01*
X010673Y009301D01*
X010622Y009352D01*
X010780Y009352D01*
X010780Y009993D01*
X010839Y009993D01*
X010839Y009352D01*
X011008Y009352D01*
X011019Y009355D01*
X011094Y009324D01*
X011255Y009324D01*
X010839Y009415D02*
X010780Y009415D01*
X010780Y009531D02*
X010839Y009531D01*
X010839Y009648D02*
X010780Y009648D01*
X010780Y009765D02*
X010839Y009765D01*
X010839Y009881D02*
X010780Y009881D01*
X010780Y010114D02*
X010839Y010114D01*
X010674Y009298D02*
X011876Y009298D01*
X011991Y009629D02*
X012582Y009038D01*
X012582Y008448D01*
X012188Y008054D01*
X012188Y007267D01*
X011794Y006873D01*
X011794Y005436D01*
X011597Y005436D02*
X011597Y006086D01*
X011597Y007463D01*
X012216Y006849D02*
X012267Y006849D01*
X012267Y006733D02*
X012109Y006733D01*
X012109Y006616D02*
X012267Y006616D01*
X012267Y006499D02*
X012109Y006499D01*
X012109Y006383D02*
X012267Y006383D01*
X012267Y006266D02*
X012109Y006266D01*
X012109Y006150D02*
X012267Y006150D01*
X012267Y006033D02*
X012109Y006033D01*
X012109Y005916D02*
X012267Y005916D01*
X012267Y005800D02*
X012109Y005800D01*
X012109Y005683D02*
X012267Y005683D01*
X012267Y005567D02*
X012109Y005567D01*
X012109Y005450D02*
X012267Y005450D01*
X012267Y005333D02*
X012099Y005333D01*
X012099Y005217D02*
X012267Y005217D01*
X012267Y005100D02*
X012071Y005100D01*
X012071Y004984D02*
X012267Y004984D01*
X012267Y004867D02*
X012071Y004867D01*
X012582Y004668D02*
X012582Y007660D01*
X014353Y007660D01*
X015082Y008389D01*
X015082Y009393D01*
X014767Y008948D02*
X014700Y008948D01*
X014767Y008832D02*
X013822Y008832D01*
X013822Y008715D02*
X014767Y008715D01*
X014767Y008598D02*
X013764Y008598D01*
X013725Y008482D02*
X014729Y008482D01*
X014613Y008365D02*
X013725Y008365D01*
X013725Y008249D02*
X014496Y008249D01*
X014380Y008132D02*
X013725Y008132D01*
X013704Y008015D02*
X014263Y008015D01*
X013330Y008271D02*
X013013Y008271D01*
X013013Y008072D01*
X013024Y008032D01*
X013045Y007996D01*
X013065Y007975D01*
X012994Y007975D01*
X012987Y007993D01*
X012915Y008065D01*
X012821Y008104D01*
X012684Y008104D01*
X012849Y008269D01*
X012897Y008385D01*
X012897Y008510D01*
X012897Y008626D01*
X012915Y008633D01*
X012939Y008657D01*
X012955Y008618D01*
X013016Y008557D01*
X013013Y008547D01*
X013013Y008349D01*
X013330Y008349D01*
X013330Y008271D01*
X013013Y008249D02*
X012828Y008249D01*
X012888Y008365D02*
X013013Y008365D01*
X013013Y008482D02*
X012897Y008482D01*
X012897Y008598D02*
X012974Y008598D01*
X013013Y008132D02*
X012711Y008132D01*
X012965Y008015D02*
X013033Y008015D01*
X015082Y005916D02*
X015121Y005822D01*
X015101Y005241D02*
X015101Y005227D01*
X015101Y005227D01*
X015101Y005241D01*
X015141Y004885D02*
X015359Y004885D01*
X015141Y004885D01*
X015141Y004885D01*
X015359Y004867D02*
X022554Y004867D01*
X022401Y004984D02*
X015359Y004984D01*
X015359Y004750D02*
X028979Y004750D01*
X028979Y004867D02*
X028594Y004867D01*
X028746Y004984D02*
X028979Y004984D01*
X028979Y005100D02*
X028780Y005100D01*
X028780Y005217D02*
X028979Y005217D01*
X028979Y005333D02*
X028780Y005333D01*
X028780Y005450D02*
X028979Y005450D01*
X028981Y005567D02*
X028780Y005567D01*
X028780Y005683D02*
X029030Y005683D01*
X029175Y005800D02*
X028780Y005800D01*
X028780Y005916D02*
X032326Y005916D01*
X032326Y006033D02*
X028728Y006033D01*
X027071Y006849D02*
X032326Y006849D01*
X032326Y006733D02*
X026988Y006733D01*
X027071Y006966D02*
X032326Y006966D01*
X032326Y007083D02*
X026735Y007083D01*
X026735Y007109D02*
X027071Y007109D01*
X027071Y007288D01*
X027060Y007328D01*
X027040Y007364D01*
X027010Y007394D01*
X026974Y007415D01*
X026933Y007426D01*
X026735Y007426D01*
X026735Y007109D01*
X026735Y007199D02*
X026656Y007199D01*
X026656Y007316D02*
X026735Y007316D01*
X026439Y007432D02*
X032326Y007432D01*
X032326Y007316D02*
X027064Y007316D01*
X027071Y007199D02*
X032326Y007199D01*
X032326Y007549D02*
X026297Y007549D01*
X026371Y007666D02*
X032326Y007666D01*
X032326Y007782D02*
X026381Y007782D01*
X026381Y007899D02*
X032326Y007899D01*
X032326Y008015D02*
X026381Y008015D01*
X026381Y008132D02*
X032326Y008132D01*
X032326Y008249D02*
X027563Y008249D01*
X027659Y008365D02*
X032326Y008365D01*
X032326Y008482D02*
X027694Y008482D01*
X027694Y008598D02*
X032326Y008598D01*
X032326Y008715D02*
X027694Y008715D01*
X027694Y008832D02*
X028585Y008832D01*
X028496Y008948D02*
X027694Y008948D01*
X027662Y009065D02*
X028476Y009065D01*
X028476Y009182D02*
X028291Y009182D01*
X028464Y009298D02*
X028476Y009298D01*
X028058Y009298D02*
X028058Y009298D01*
X028058Y009399D02*
X028058Y009180D01*
X028058Y009399D01*
X028058Y009399D01*
X028058Y009182D02*
X028058Y009182D01*
X027825Y009182D02*
X027638Y009182D01*
X027652Y009298D02*
X027582Y009298D01*
X027623Y009415D02*
X027465Y009415D01*
X027623Y009428D02*
X027717Y009428D01*
X027717Y009428D01*
X027623Y009428D01*
X027576Y009531D02*
X027349Y009531D01*
X027460Y009648D02*
X027232Y009648D01*
X027343Y009765D02*
X027115Y009765D01*
X025834Y010117D02*
X025834Y010652D01*
X025814Y010648D01*
X025814Y010944D01*
X025735Y010944D01*
X025735Y010648D01*
X025715Y010652D01*
X025715Y010117D01*
X025834Y010117D01*
X025834Y010231D02*
X025715Y010231D01*
X025715Y010348D02*
X025834Y010348D01*
X025834Y010464D02*
X025715Y010464D01*
X025715Y010581D02*
X025834Y010581D01*
X025814Y010697D02*
X025735Y010697D01*
X025735Y010814D02*
X025814Y010814D01*
X025814Y010931D02*
X025735Y010931D01*
X025715Y010963D02*
X025419Y010963D01*
X025423Y010944D01*
X024889Y010944D01*
X024889Y011062D01*
X025423Y011062D01*
X025419Y011042D01*
X025715Y011042D01*
X025715Y010963D01*
X025735Y011062D02*
X025735Y011358D01*
X025715Y011354D01*
X025715Y011889D01*
X025834Y011889D01*
X025834Y011354D01*
X025814Y011358D01*
X025814Y011062D01*
X025735Y011062D01*
X025834Y011042D02*
X026130Y011042D01*
X026126Y011062D01*
X026660Y011062D01*
X026660Y010944D01*
X026126Y010944D01*
X026130Y010963D01*
X025834Y010963D01*
X025834Y011042D01*
X025814Y011164D02*
X025735Y011164D01*
X025735Y011280D02*
X025814Y011280D01*
X025834Y011397D02*
X025715Y011397D01*
X025715Y011514D02*
X025834Y011514D01*
X025834Y011630D02*
X025715Y011630D01*
X025715Y011747D02*
X025834Y011747D01*
X025834Y011864D02*
X025715Y011864D01*
X025420Y011047D02*
X024889Y011047D01*
X026129Y011047D02*
X026660Y011047D01*
X029364Y009298D02*
X029549Y009298D01*
X029549Y009182D02*
X029364Y009182D01*
X029364Y009065D02*
X029865Y009065D01*
X029944Y009065D02*
X032326Y009065D01*
X032326Y009182D02*
X030260Y009182D01*
X030260Y009298D02*
X032326Y009298D01*
X032326Y009415D02*
X032099Y009415D01*
X032326Y008948D02*
X030260Y008948D01*
X030260Y008860D02*
X030260Y009058D01*
X029944Y009058D01*
X029944Y008722D01*
X030122Y008722D01*
X030163Y008733D01*
X030199Y008754D01*
X030229Y008783D01*
X030249Y008819D01*
X030260Y008860D01*
X030253Y008832D02*
X032326Y008832D01*
X031331Y009415D02*
X031233Y009415D01*
X030465Y009415D02*
X030322Y009415D01*
X029944Y008948D02*
X029865Y008948D01*
X029865Y008832D02*
X029944Y008832D01*
X029556Y008832D02*
X029255Y008832D01*
X029344Y008948D02*
X029549Y008948D01*
X026735Y006966D02*
X026656Y006966D01*
X026656Y006849D02*
X026735Y006849D01*
X026735Y006733D02*
X026656Y006733D01*
X026361Y006616D02*
X032326Y006616D01*
X032326Y006499D02*
X026361Y006499D01*
X026361Y006383D02*
X032326Y006383D01*
X032326Y006266D02*
X026361Y006266D01*
X026377Y006150D02*
X032326Y006150D01*
X026354Y004867D02*
X024794Y004867D01*
X024946Y004984D02*
X026201Y004984D01*
X026168Y005100D02*
X024980Y005100D01*
X024980Y005217D02*
X026168Y005217D01*
X026168Y005333D02*
X024980Y005333D01*
X025018Y005450D02*
X026130Y005450D01*
X026013Y005567D02*
X025134Y005567D01*
X025251Y005683D02*
X025896Y005683D01*
X025780Y005800D02*
X025368Y005800D01*
X025438Y005916D02*
X025710Y005916D01*
X025692Y006033D02*
X025456Y006033D01*
X025456Y006150D02*
X025692Y006150D01*
X025692Y006266D02*
X025456Y006266D01*
X025456Y006383D02*
X025692Y006383D01*
X025692Y006499D02*
X025456Y006499D01*
X025456Y006616D02*
X025692Y006616D01*
X025591Y006733D02*
X025556Y006733D01*
X024771Y006150D02*
X021839Y006150D01*
X022125Y004634D02*
X015350Y004634D01*
X015318Y004517D02*
X015436Y004517D01*
X015436Y004400D02*
X015318Y004400D01*
X014982Y004400D02*
X014906Y004400D01*
X014906Y004284D02*
X014982Y004284D01*
X014982Y004051D02*
X014906Y004051D01*
X014906Y003934D02*
X014982Y003934D01*
X015772Y003934D02*
X018377Y003934D01*
X018377Y004051D02*
X015772Y004051D01*
X015772Y004284D02*
X018377Y004284D01*
X018377Y004400D02*
X015772Y004400D01*
X015759Y004517D02*
X018416Y004517D01*
X020938Y004517D02*
X021056Y004517D01*
X021056Y004400D02*
X020938Y004400D01*
X020938Y004284D02*
X021056Y004284D01*
X021056Y004167D02*
X021893Y004167D01*
X021893Y004051D02*
X021747Y004051D01*
X021747Y003934D02*
X021893Y003934D01*
X021893Y004284D02*
X021747Y004284D01*
X021747Y004400D02*
X021901Y004400D01*
X021957Y004517D02*
X021708Y004517D01*
X018130Y008715D02*
X016669Y008715D01*
X016785Y008832D02*
X018247Y008832D01*
X018263Y008948D02*
X016902Y008948D01*
X017018Y009065D02*
X018147Y009065D01*
X018074Y009182D02*
X017135Y009182D01*
X017252Y009298D02*
X018504Y009298D01*
X018504Y009415D02*
X018573Y009415D01*
X018573Y009531D02*
X018504Y009531D01*
X018504Y009648D02*
X018573Y009648D01*
X018573Y009765D02*
X018504Y009765D01*
X018317Y009765D02*
X017718Y009765D01*
X017835Y009881D02*
X019296Y009881D01*
X019180Y009765D02*
X018760Y009765D01*
X018876Y009648D02*
X019063Y009648D01*
X019780Y009881D02*
X021809Y009881D01*
X021693Y009765D02*
X019897Y009765D01*
X020013Y009648D02*
X021576Y009648D01*
X021460Y009531D02*
X020099Y009531D01*
X020099Y009415D02*
X021343Y009415D01*
X021150Y009998D02*
X021926Y009998D01*
X021026Y010931D02*
X018505Y010931D01*
X018537Y010814D02*
X020509Y010814D01*
X020423Y010697D02*
X018537Y010697D01*
X018537Y010581D02*
X020405Y010581D01*
X020405Y010464D02*
X018537Y010464D01*
X018526Y010348D02*
X020405Y010348D01*
X020405Y010231D02*
X018449Y010231D01*
X018068Y010114D02*
X020431Y010114D01*
X020549Y009998D02*
X017951Y009998D01*
X018200Y009648D02*
X017602Y009648D01*
X017485Y009531D02*
X018084Y009531D01*
X018074Y009415D02*
X017368Y009415D01*
X018356Y011047D02*
X021026Y011047D01*
X020692Y011980D02*
X020613Y011980D01*
X020613Y012097D02*
X020692Y012097D01*
X021008Y012330D02*
X021415Y012330D01*
X022334Y013146D02*
X022571Y013146D01*
X022571Y013030D02*
X022451Y013030D01*
X022566Y012913D02*
X022579Y012913D01*
X022571Y013263D02*
X022218Y013263D01*
X022169Y013379D02*
X022571Y013379D01*
X022606Y013496D02*
X022169Y013496D01*
X022169Y013613D02*
X022641Y013613D01*
X022641Y013729D02*
X022169Y013729D01*
X022169Y013846D02*
X022641Y013846D01*
X022641Y013963D02*
X022181Y013963D01*
X022263Y014079D02*
X022641Y014079D01*
X022692Y014196D02*
X022278Y014196D01*
X022278Y014312D02*
X022737Y014312D01*
X022737Y014429D02*
X022278Y014429D01*
X022278Y014546D02*
X022737Y014546D01*
X022737Y014530D02*
X023054Y014530D01*
X023054Y014867D01*
X022876Y014867D01*
X022835Y014856D01*
X022799Y014835D01*
X022769Y014805D01*
X022748Y014769D01*
X022737Y014728D01*
X022737Y014530D01*
X022737Y014662D02*
X022249Y014662D01*
X022117Y014779D02*
X022754Y014779D01*
X023054Y014779D02*
X023133Y014779D01*
X023133Y014662D02*
X023054Y014662D01*
X023054Y014546D02*
X023133Y014546D01*
X023449Y014546D02*
X023555Y014546D01*
X023555Y014429D02*
X023449Y014429D01*
X023449Y014312D02*
X023555Y014312D01*
X023555Y014196D02*
X023495Y014196D01*
X023546Y014079D02*
X023569Y014079D01*
X023546Y013963D02*
X023651Y013963D01*
X023546Y013846D02*
X023861Y013846D01*
X023861Y013729D02*
X023546Y013729D01*
X023546Y013613D02*
X023861Y013613D01*
X023855Y013496D02*
X023522Y013496D01*
X023459Y013379D02*
X023855Y013379D01*
X023855Y013263D02*
X023459Y013263D01*
X023459Y013146D02*
X023855Y013146D01*
X023855Y013030D02*
X023459Y013030D01*
X023783Y012913D02*
X023898Y012913D01*
X025164Y013818D02*
X025164Y013922D01*
X025207Y013939D01*
X025267Y014000D01*
X025277Y013997D01*
X025475Y013997D01*
X025475Y014314D01*
X025554Y014314D01*
X025554Y013997D01*
X025752Y013997D01*
X025793Y014008D01*
X025829Y014029D01*
X025830Y014030D01*
X025830Y013818D01*
X025692Y013818D01*
X025617Y013787D01*
X025542Y013818D01*
X025377Y013818D01*
X025302Y013787D01*
X025227Y013818D01*
X025164Y013818D01*
X025164Y013846D02*
X025830Y013846D01*
X025830Y013963D02*
X025230Y013963D01*
X025475Y014079D02*
X025554Y014079D01*
X025554Y014196D02*
X025475Y014196D01*
X025475Y014312D02*
X025554Y014312D01*
X025554Y014429D02*
X025475Y014429D01*
X025475Y014546D02*
X025554Y014546D01*
X025554Y014662D02*
X025475Y014662D01*
X025178Y014779D02*
X025830Y014779D01*
X024512Y014779D02*
X024282Y014779D01*
X023715Y014779D02*
X023433Y014779D01*
X023449Y014662D02*
X023584Y014662D01*
X021550Y014779D02*
X020897Y014779D01*
X021014Y014662D02*
X021419Y014662D01*
X021390Y014546D02*
X021130Y014546D01*
X021247Y014429D02*
X021390Y014429D01*
X021390Y014312D02*
X021363Y014312D01*
X021443Y016761D02*
X018934Y016761D01*
X018466Y019910D02*
X017887Y019910D01*
X017916Y020026D02*
X018460Y020026D01*
X018460Y020143D02*
X017916Y020143D01*
X017916Y020259D02*
X018460Y020259D01*
X018460Y020376D02*
X017916Y020376D01*
X019105Y020726D02*
X019223Y020726D01*
X019223Y020843D02*
X019105Y020843D01*
X019105Y020959D02*
X019223Y020959D01*
X019223Y021076D02*
X019105Y021076D01*
X019869Y020259D02*
X019983Y020259D01*
X017916Y021542D02*
X023369Y021542D01*
X023448Y021617D02*
X023448Y021953D01*
X023626Y021953D01*
X023667Y021942D01*
X023703Y021921D01*
X023732Y021892D01*
X023448Y021892D02*
X023369Y021892D01*
X023369Y021775D02*
X023448Y021775D01*
X023448Y021659D02*
X023369Y021659D01*
X023323Y022009D02*
X024327Y022009D01*
X024327Y022125D02*
X023434Y022125D01*
X023459Y022242D02*
X024327Y022242D01*
X024327Y022358D02*
X023459Y022358D01*
X023459Y022475D02*
X024327Y022475D01*
X024327Y022592D02*
X023459Y022592D01*
X023440Y022708D02*
X024327Y022708D01*
X024327Y022825D02*
X023352Y022825D01*
X023048Y022942D02*
X024327Y022942D01*
X024327Y023058D02*
X023074Y023058D01*
X023074Y023175D02*
X024327Y023175D01*
X024373Y023291D02*
X023074Y023291D01*
X023074Y023408D02*
X024424Y023408D01*
X024424Y023473D02*
X025252Y023473D01*
X025252Y023770D01*
X024562Y023770D01*
X024521Y023759D01*
X024485Y023738D01*
X024455Y023709D01*
X024434Y023672D01*
X024424Y023632D01*
X024424Y023473D01*
X024424Y023525D02*
X023074Y023525D01*
X023061Y023641D02*
X024426Y023641D01*
X024519Y023758D02*
X023074Y023758D01*
X022725Y024574D02*
X026175Y024574D01*
X026175Y024691D02*
X022725Y024691D01*
X022725Y024807D02*
X026175Y024807D01*
X026175Y024924D02*
X022725Y024924D01*
X022725Y025041D02*
X026175Y025041D01*
X026175Y025157D02*
X022725Y025157D01*
X022725Y025274D02*
X025109Y025274D01*
X025022Y025390D02*
X022725Y025390D01*
X022725Y025507D02*
X025021Y025507D01*
X025021Y025740D02*
X022725Y025740D01*
X022725Y025624D02*
X025337Y025624D01*
X025416Y025624D02*
X026175Y025624D01*
X026175Y025740D02*
X025733Y025740D01*
X025733Y025857D02*
X026210Y025857D01*
X026175Y025507D02*
X025733Y025507D01*
X025731Y025390D02*
X026175Y025390D01*
X026175Y025274D02*
X025645Y025274D01*
X025416Y025274D02*
X025337Y025274D01*
X025337Y025390D02*
X025416Y025390D01*
X025416Y025507D02*
X025337Y025507D01*
X025021Y025857D02*
X022725Y025857D01*
X022725Y025973D02*
X023585Y025973D01*
X023406Y026090D02*
X022725Y026090D01*
X022758Y026207D02*
X023007Y026207D01*
X022931Y026323D02*
X022834Y026323D01*
X022844Y026440D02*
X022921Y026440D01*
X022921Y026556D02*
X022844Y026556D01*
X022844Y026673D02*
X022921Y026673D01*
X022921Y026790D02*
X022844Y026790D01*
X022819Y026906D02*
X022946Y026906D01*
X023059Y027023D02*
X022706Y027023D01*
X022075Y027023D02*
X021722Y027023D01*
X021835Y026906D02*
X021962Y026906D01*
X021937Y026790D02*
X021860Y026790D01*
X021860Y026673D02*
X021937Y026673D01*
X021937Y026556D02*
X021860Y026556D01*
X021860Y026440D02*
X021937Y026440D01*
X021947Y026323D02*
X021850Y026323D01*
X021774Y026207D02*
X022023Y026207D01*
X020427Y026323D02*
X020417Y026323D01*
X020417Y026440D02*
X020427Y026440D01*
X020417Y026556D02*
X020427Y026556D01*
X020417Y026673D02*
X020427Y026673D01*
X020417Y026790D02*
X020427Y026790D01*
X020417Y026906D02*
X020427Y026906D01*
X021564Y028189D02*
X013020Y028189D01*
X013334Y028306D02*
X021399Y028306D01*
X021473Y028236D02*
X021473Y028236D01*
X021274Y028422D02*
X013649Y028422D01*
X013964Y028539D02*
X021149Y028539D01*
X021067Y028615D02*
X021067Y028615D01*
X021043Y028655D02*
X014278Y028655D01*
X014593Y028772D02*
X020972Y028772D01*
X020901Y028889D02*
X014908Y028889D01*
X015222Y029005D02*
X020830Y029005D01*
X020770Y029122D02*
X015537Y029122D01*
X015852Y029239D02*
X020737Y029239D01*
X020704Y029355D02*
X016166Y029355D01*
X016481Y029472D02*
X020672Y029472D01*
X020639Y029588D02*
X016796Y029588D01*
X017110Y029705D02*
X020629Y029705D01*
X020629Y029822D02*
X017425Y029822D01*
X017740Y029938D02*
X020629Y029938D01*
X020629Y030055D02*
X018054Y030055D01*
X018369Y030171D02*
X020629Y030171D01*
X020660Y030288D02*
X018684Y030288D01*
X018998Y030405D02*
X020692Y030405D01*
X020725Y030521D02*
X019313Y030521D01*
X019628Y030638D02*
X020758Y030638D01*
X020804Y030754D02*
X019942Y030754D01*
X020257Y030871D02*
X020875Y030871D01*
X024390Y028843D02*
X024390Y028843D01*
X027341Y026906D02*
X029546Y026906D01*
X029554Y026888D02*
X029554Y026888D01*
X029663Y026790D02*
X027396Y026790D01*
X027396Y026673D02*
X029793Y026673D01*
X029823Y026646D02*
X029823Y026646D01*
X030098Y026556D02*
X027396Y026556D01*
X027396Y026440D02*
X032247Y026440D01*
X032247Y026556D02*
X030383Y026556D01*
X030528Y026572D02*
X030528Y026572D01*
X030704Y026673D02*
X032247Y026673D01*
X032247Y026790D02*
X030869Y026790D01*
X030842Y026753D02*
X030842Y026753D01*
X030842Y026753D01*
X030953Y026906D02*
X032247Y026906D01*
X032247Y027023D02*
X031038Y027023D01*
X031075Y027140D02*
X032247Y027140D01*
X032247Y027256D02*
X031100Y027256D01*
X031124Y027373D02*
X032247Y027373D01*
X032247Y027489D02*
X031111Y027489D01*
X031087Y027606D02*
X032247Y027606D01*
X032247Y027723D02*
X031062Y027723D01*
X031055Y027755D02*
X031055Y027755D01*
X030994Y027839D02*
X032247Y027839D01*
X032247Y027956D02*
X030909Y027956D01*
X030800Y028072D02*
X032223Y028072D01*
X032106Y028189D02*
X030598Y028189D01*
X030528Y028229D02*
X030528Y028229D01*
X030168Y026534D02*
X030168Y026534D01*
X031519Y025973D02*
X031859Y025973D01*
X031709Y025857D02*
X031669Y025857D01*
X031669Y025740D02*
X031709Y025740D01*
X031709Y025624D02*
X031669Y025624D01*
X031669Y025507D02*
X031709Y025507D01*
X031709Y025390D02*
X031669Y025390D01*
X031669Y025274D02*
X031709Y025274D01*
X031709Y025157D02*
X031669Y025157D01*
X031669Y025041D02*
X031709Y025041D01*
X031709Y024924D02*
X031669Y024924D01*
X031669Y024807D02*
X031709Y024807D01*
X031709Y024691D02*
X031669Y024691D01*
X031669Y024574D02*
X031709Y024574D01*
X031709Y024457D02*
X031669Y024457D01*
X031669Y024341D02*
X031709Y024341D01*
X031709Y024224D02*
X031669Y024224D01*
X029749Y023991D02*
X026645Y023991D01*
X026165Y023525D02*
X026120Y023525D01*
X026120Y023408D02*
X026282Y023408D01*
X026170Y023291D02*
X026441Y023291D01*
X026216Y023175D02*
X029829Y023175D01*
X032247Y026090D02*
X027326Y026090D01*
X027338Y026207D02*
X032247Y026207D01*
X032247Y026323D02*
X027396Y026323D01*
X025291Y023758D02*
X025252Y023758D01*
X025252Y023641D02*
X025291Y023641D01*
X025291Y023525D02*
X025252Y023525D01*
X024327Y021426D02*
X023764Y021426D01*
X023783Y021309D02*
X024346Y021309D01*
X024424Y021192D02*
X023854Y021192D01*
X027847Y018510D02*
X029206Y018510D01*
X029172Y017694D02*
X027881Y017694D01*
X026628Y016528D02*
X030357Y016528D01*
X029550Y013729D02*
X029471Y013729D01*
X029471Y013613D02*
X029550Y013613D01*
X029550Y013496D02*
X029471Y013496D01*
X020242Y009298D02*
X020099Y009298D01*
X020099Y009182D02*
X020126Y009182D01*
X013211Y005683D02*
X013133Y005683D01*
X013133Y005567D02*
X013211Y005567D01*
X013211Y005450D02*
X013133Y005450D01*
X012709Y003934D02*
X012602Y003934D01*
X014097Y003934D02*
X014115Y003934D01*
X014115Y004051D02*
X014097Y004051D01*
X012975Y002542D02*
X010219Y002542D01*
X010023Y002739D01*
X010200Y004845D02*
X009570Y004845D01*
X009570Y004885D01*
X009827Y004885D01*
X010200Y004885D01*
X010200Y004845D01*
X010200Y004867D02*
X009570Y004867D01*
X009807Y005100D02*
X009844Y005100D01*
X009570Y005217D02*
X010702Y005217D01*
X010702Y005333D02*
X009570Y005333D01*
X009570Y005450D02*
X010702Y005450D01*
X010702Y005567D02*
X009570Y005567D01*
X009570Y005683D02*
X010671Y005683D01*
X010582Y005800D02*
X009570Y005800D01*
X009570Y005916D02*
X010563Y005916D01*
X010563Y006033D02*
X009538Y006033D01*
X009452Y006150D02*
X010563Y006150D01*
X010563Y006266D02*
X009452Y006266D01*
X008625Y006266D02*
X008368Y006266D01*
X008396Y006239D02*
X008172Y006462D01*
X008227Y006518D01*
X008451Y006294D01*
X008591Y006434D01*
X008596Y006443D01*
X008625Y006443D01*
X008625Y006145D01*
X008558Y006078D01*
X008507Y005955D01*
X008507Y005175D01*
X008290Y005441D01*
X008290Y005441D01*
X007836Y005762D01*
X007313Y005947D01*
X007166Y005957D01*
X007167Y005958D01*
X007197Y005988D01*
X007218Y006024D01*
X007229Y006065D01*
X007229Y006243D01*
X006912Y006243D01*
X006912Y006322D01*
X006834Y006322D01*
X006834Y006638D01*
X006655Y006638D01*
X006615Y006627D01*
X006578Y006606D01*
X006549Y006577D01*
X006531Y006547D01*
X006499Y006624D01*
X006447Y006676D01*
X006499Y006728D01*
X006531Y006805D01*
X006549Y006775D01*
X006578Y006746D01*
X006615Y006725D01*
X006655Y006714D01*
X006834Y006714D01*
X006834Y007030D01*
X006912Y007030D01*
X006912Y006714D01*
X007091Y006714D01*
X007131Y006725D01*
X007167Y006746D01*
X007197Y006775D01*
X007218Y006812D01*
X007229Y006852D01*
X007229Y006874D01*
X007339Y006764D01*
X007562Y006988D01*
X007618Y006933D01*
X007394Y006709D01*
X007520Y006583D01*
X007557Y006562D01*
X007597Y006551D01*
X007639Y006551D01*
X007680Y006562D01*
X007716Y006583D01*
X007842Y006709D01*
X007618Y006933D01*
X007674Y006988D01*
X007898Y006764D01*
X008024Y006891D01*
X008045Y006927D01*
X008056Y006967D01*
X008056Y007009D01*
X008047Y007043D01*
X008097Y007022D01*
X008097Y006943D01*
X008088Y006938D01*
X007948Y006798D01*
X008172Y006574D01*
X008116Y006518D01*
X008172Y006462D01*
X007934Y006225D01*
X008060Y006099D01*
X008096Y006078D01*
X008137Y006067D01*
X008179Y006067D01*
X008219Y006078D01*
X008255Y006099D01*
X008396Y006239D01*
X008306Y006150D02*
X008625Y006150D01*
X008539Y006033D02*
X007220Y006033D01*
X007229Y006150D02*
X008009Y006150D01*
X007975Y006266D02*
X006912Y006266D01*
X006912Y006322D02*
X007229Y006322D01*
X007229Y006500D01*
X007218Y006541D01*
X007197Y006577D01*
X007167Y006606D01*
X007131Y006627D01*
X007091Y006638D01*
X006912Y006638D01*
X006912Y006322D01*
X006912Y006383D02*
X006834Y006383D01*
X006834Y006499D02*
X006912Y006499D01*
X006912Y006616D02*
X006834Y006616D01*
X006834Y006733D02*
X006912Y006733D01*
X006912Y006849D02*
X006834Y006849D01*
X006834Y006966D02*
X006912Y006966D01*
X006912Y007030D02*
X006912Y007109D01*
X006834Y007109D01*
X006834Y007426D01*
X006655Y007426D01*
X006615Y007415D01*
X006578Y007394D01*
X006549Y007364D01*
X006531Y007334D01*
X006499Y007412D01*
X006447Y007463D01*
X006499Y007515D01*
X006531Y007593D01*
X006549Y007563D01*
X006578Y007533D01*
X006615Y007512D01*
X006655Y007501D01*
X006834Y007501D01*
X006834Y007818D01*
X006912Y007818D01*
X006912Y007501D01*
X007091Y007501D01*
X007131Y007512D01*
X007167Y007533D01*
X007197Y007563D01*
X007218Y007599D01*
X007229Y007639D01*
X007229Y007818D01*
X006912Y007818D01*
X006912Y007897D01*
X006834Y007897D01*
X006834Y008213D01*
X006655Y008213D01*
X006615Y008202D01*
X006578Y008181D01*
X006549Y008152D01*
X006531Y008122D01*
X006499Y008199D01*
X006427Y008271D01*
X006333Y008310D01*
X005838Y008310D01*
X005814Y008300D01*
X005830Y008338D01*
X005830Y008428D01*
X007095Y008428D01*
X007247Y008276D01*
X007247Y007972D01*
X007310Y007820D01*
X007426Y007704D01*
X007644Y007486D01*
X007673Y007417D01*
X007639Y007426D01*
X007597Y007426D01*
X007557Y007415D01*
X007520Y007394D01*
X007394Y007268D01*
X007618Y007044D01*
X007562Y006988D01*
X007339Y007212D01*
X007212Y007086D01*
X007192Y007050D01*
X007186Y007030D01*
X006912Y007030D01*
X006912Y007083D02*
X007211Y007083D01*
X007229Y007109D02*
X007229Y007288D01*
X007218Y007328D01*
X007197Y007364D01*
X007167Y007394D01*
X007131Y007415D01*
X007091Y007426D01*
X006912Y007426D01*
X006912Y007109D01*
X007229Y007109D01*
X007229Y007199D02*
X007326Y007199D01*
X007352Y007199D02*
X007463Y007199D01*
X007468Y007083D02*
X007580Y007083D01*
X007585Y006966D02*
X007540Y006966D01*
X007652Y006966D02*
X007696Y006966D01*
X007701Y006849D02*
X007813Y006849D01*
X007818Y006733D02*
X007883Y006733D01*
X007892Y006742D02*
X007752Y006602D01*
X007731Y006566D01*
X007720Y006525D01*
X007720Y006483D01*
X007731Y006443D01*
X007752Y006407D01*
X007878Y006280D01*
X008116Y006518D01*
X007892Y006742D01*
X007902Y006733D02*
X008013Y006733D01*
X008018Y006616D02*
X008129Y006616D01*
X008135Y006499D02*
X008097Y006499D01*
X008209Y006499D02*
X008246Y006499D01*
X008251Y006383D02*
X008363Y006383D01*
X008540Y006383D02*
X008625Y006383D01*
X008507Y005916D02*
X007400Y005916D01*
X007313Y005947D02*
X007313Y005947D01*
X007729Y005800D02*
X008507Y005800D01*
X008507Y005683D02*
X007947Y005683D01*
X007836Y005762D02*
X007836Y005762D01*
X008112Y005567D02*
X008507Y005567D01*
X008507Y005450D02*
X008278Y005450D01*
X008378Y005333D02*
X008507Y005333D01*
X008507Y005217D02*
X008473Y005217D01*
X008092Y006383D02*
X007981Y006383D01*
X007776Y006383D02*
X007229Y006383D01*
X007229Y006499D02*
X007720Y006499D01*
X007749Y006616D02*
X007766Y006616D01*
X007487Y006616D02*
X007151Y006616D01*
X007145Y006733D02*
X007418Y006733D01*
X007424Y006849D02*
X007535Y006849D01*
X007254Y006849D02*
X007228Y006849D01*
X007221Y007316D02*
X007442Y007316D01*
X007666Y007432D02*
X006479Y007432D01*
X006513Y007549D02*
X006562Y007549D01*
X006834Y007549D02*
X006912Y007549D01*
X006912Y007666D02*
X006834Y007666D01*
X006834Y007782D02*
X006912Y007782D01*
X006912Y007897D02*
X007229Y007897D01*
X007229Y008075D01*
X007218Y008115D01*
X007197Y008152D01*
X007167Y008181D01*
X007131Y008202D01*
X007091Y008213D01*
X006912Y008213D01*
X006912Y007897D01*
X006912Y007899D02*
X006834Y007899D01*
X006834Y008015D02*
X006912Y008015D01*
X006912Y008132D02*
X006834Y008132D01*
X006537Y008132D02*
X006527Y008132D01*
X006450Y008249D02*
X007247Y008249D01*
X007247Y008132D02*
X007208Y008132D01*
X007229Y008015D02*
X007247Y008015D01*
X007229Y007899D02*
X007277Y007899D01*
X007229Y007782D02*
X007348Y007782D01*
X007464Y007666D02*
X007229Y007666D01*
X007183Y007549D02*
X007581Y007549D01*
X006912Y007316D02*
X006834Y007316D01*
X006834Y007199D02*
X006912Y007199D01*
X006601Y006733D02*
X006501Y006733D01*
X006503Y006616D02*
X006595Y006616D01*
X007983Y006849D02*
X008000Y006849D01*
X008055Y006966D02*
X008097Y006966D01*
X007158Y008365D02*
X005830Y008365D01*
X005820Y009298D02*
X007601Y009298D01*
X007601Y009182D02*
X007511Y009182D01*
X008410Y009765D02*
X008621Y009765D01*
X008586Y009648D02*
X008471Y009648D01*
X008507Y009531D02*
X008586Y009531D01*
X008586Y009415D02*
X008507Y009415D01*
X008507Y009298D02*
X008586Y009298D01*
X008586Y009182D02*
X008507Y009182D01*
X008507Y009065D02*
X008602Y009065D01*
X008688Y008948D02*
X008479Y008948D01*
X008410Y009881D02*
X008782Y009881D01*
X008586Y010581D02*
X007822Y010581D01*
X007963Y010697D02*
X008586Y010697D01*
X008561Y010814D02*
X008078Y010814D01*
X008126Y010931D02*
X008511Y010931D01*
X008507Y011047D02*
X008175Y011047D01*
X008192Y011164D02*
X008507Y011164D01*
X008507Y011280D02*
X008192Y011280D01*
X008192Y011397D02*
X008507Y011397D01*
X008507Y011514D02*
X008192Y011514D01*
X008192Y011630D02*
X008507Y011630D01*
X008507Y011747D02*
X008192Y011747D01*
X008192Y011864D02*
X008508Y011864D01*
X008556Y011980D02*
X008192Y011980D01*
X008192Y012097D02*
X008697Y012097D01*
X005853Y010231D02*
X005786Y010231D01*
X004653Y010231D02*
X003818Y010231D01*
X010239Y005182D02*
X010239Y004885D01*
X010615Y004885D01*
X010615Y005043D01*
X010604Y005084D01*
X010583Y005120D01*
X010553Y005150D01*
X010517Y005171D01*
X010477Y005182D01*
X010239Y005182D01*
X010239Y005100D02*
X010200Y005100D01*
X010200Y004984D02*
X010239Y004984D01*
X010239Y004867D02*
X010730Y004867D01*
X010730Y004984D02*
X010615Y004984D01*
X010594Y005100D02*
X010730Y005100D01*
X011648Y015129D02*
X011741Y015129D01*
X011674Y015245D02*
X011648Y015245D01*
X011648Y015362D02*
X011674Y015362D01*
X011674Y015478D02*
X011648Y015478D01*
X011640Y015595D02*
X011674Y015595D01*
X011674Y015712D02*
X011568Y015712D01*
X013507Y017051D02*
X013507Y017373D01*
X013456Y017496D01*
X013362Y017590D01*
X012799Y018152D01*
X013507Y018152D01*
X013507Y018042D01*
X013546Y017948D01*
X013618Y017876D01*
X013695Y017844D01*
X013665Y017827D01*
X013635Y017797D01*
X013614Y017761D01*
X013604Y017721D01*
X013604Y017542D01*
X013920Y017542D01*
X013920Y017463D01*
X013604Y017463D01*
X013604Y017285D01*
X013614Y017245D01*
X013635Y017208D01*
X013665Y017179D01*
X013695Y017161D01*
X013618Y017129D01*
X013546Y017057D01*
X013543Y017050D01*
X013508Y017050D01*
X013507Y017051D01*
X013507Y017111D02*
X013600Y017111D01*
X013624Y017228D02*
X013507Y017228D01*
X013507Y017344D02*
X013604Y017344D01*
X013604Y017461D02*
X013470Y017461D01*
X013374Y017577D02*
X013604Y017577D01*
X013604Y017694D02*
X013257Y017694D01*
X013141Y017811D02*
X013649Y017811D01*
X013567Y017927D02*
X013024Y017927D01*
X012907Y018044D02*
X013507Y018044D01*
X008997Y016528D02*
X008761Y016528D01*
X004713Y016034D02*
X004713Y016034D01*
X013870Y026440D02*
X015097Y026440D01*
X014949Y026556D02*
X013837Y026556D01*
X013861Y026502D02*
X013861Y026502D01*
X013787Y026673D02*
X014917Y026673D01*
X014917Y026790D02*
X013736Y026790D01*
X013686Y026906D02*
X014917Y026906D01*
X014917Y027023D02*
X013630Y027023D01*
X013640Y027011D02*
X013640Y027011D01*
X013535Y027140D02*
X014917Y027140D01*
X014917Y027256D02*
X013441Y027256D01*
X013346Y027373D02*
X014917Y027373D01*
X014917Y027489D02*
X013222Y027489D01*
X013057Y027606D02*
X014947Y027606D01*
X015084Y027723D02*
X012891Y027723D01*
X012836Y027762D02*
X012836Y027762D01*
D61*
X011007Y004373D02*
X010790Y004156D01*
D62*
X008645Y006991D02*
X008645Y007069D01*
X008645Y007070D01*
X008251Y007463D02*
X008175Y007539D01*
X008175Y007545D01*
X014452Y006243D02*
X014452Y005219D01*
X014786Y004885D01*
X012050Y012582D02*
X010810Y012582D01*
X014097Y013763D02*
X014747Y013763D01*
X018093Y013763D01*
X017700Y015928D02*
X017503Y016125D01*
X015987Y017109D02*
X021834Y017109D01*
X024151Y019364D02*
X024342Y019556D01*
X026249Y019556D01*
X025967Y024196D02*
X022621Y024196D01*
X023669Y026302D02*
X023375Y026597D01*
X023669Y026302D02*
X025377Y026302D01*
X026952Y025180D02*
X026964Y025167D01*
X026964Y025068D01*
X015987Y017109D02*
X015593Y017503D01*
X014747Y015987D02*
X014747Y015141D01*
X015141Y014747D01*
X014353Y014353D02*
X014156Y014550D01*
X008054Y018487D02*
X006873Y019668D01*
X004904Y019668D01*
X004776Y019540D01*
X004040Y019540D01*
X005149Y023202D02*
X005158Y023211D01*
X005495Y023211D01*
X005889Y023605D01*
X005889Y023999D01*
X006814Y024924D01*
X007070Y024924D01*
X021834Y014353D02*
X021834Y013172D01*
X022227Y012778D01*
X026089Y013286D02*
X026164Y013361D01*
X033310Y006282D02*
X033310Y004739D01*
X033160Y004589D01*
D63*
X015534Y008054D02*
X015141Y007660D01*
X015141Y007129D01*
X015062Y007011D02*
X014353Y007011D01*
X015534Y008054D02*
X015534Y011007D01*
X026952Y025180D02*
X026952Y026558D01*
D64*
X011794Y022424D03*
X011794Y021834D03*
X011794Y021243D03*
M02*
