G75*
%MOIN*%
%OFA0B0*%
%FSLAX24Y24*%
%IPPOS*%
%LPD*%
%AMOC8*
5,1,8,0,0,1.08239X$1,22.5*
%
%ADD10OC8,0.0610*%
%ADD11R,0.0396X0.0396*%
%ADD12R,0.0650X0.0650*%
%ADD13R,0.0602X0.0602*%
%ADD14R,0.0531X0.0531*%
%ADD15R,0.0797X0.0797*%
%ADD16R,0.0709X0.0709*%
%ADD17R,0.0376X0.0376*%
%ADD18C,0.0157*%
%ADD19C,0.0315*%
%ADD20C,0.0160*%
%ADD21C,0.0118*%
%ADD22C,0.0376*%
%ADD23C,0.0079*%
D10*
X018538Y007330D03*
X018538Y008330D03*
X018538Y009330D03*
X019538Y009330D03*
X019538Y008330D03*
X019538Y007330D03*
D11*
X020422Y026597D03*
X021406Y026597D03*
X022391Y026597D03*
X023375Y026597D03*
D12*
X030208Y004589D03*
X031192Y004589D03*
X032176Y004589D03*
X033160Y004589D03*
D13*
X005149Y023202D03*
X005149Y024202D03*
X027399Y029827D03*
X028399Y029827D03*
D14*
X016891Y025824D03*
X016891Y024840D03*
X016891Y023855D03*
X015906Y023855D03*
X015906Y024840D03*
X015906Y025824D03*
D15*
X015572Y027084D03*
X017225Y022596D03*
D16*
X005219Y009727D03*
X005219Y008743D03*
X005219Y007759D03*
X005219Y006774D03*
X005219Y005790D03*
X003251Y005790D03*
X003251Y006774D03*
X003251Y007759D03*
X003251Y008743D03*
X003251Y009727D03*
D17*
X003133Y010810D03*
X003133Y011991D03*
X003133Y013369D03*
X003133Y014550D03*
X008251Y010613D03*
X009038Y011400D03*
X009629Y011400D03*
X010810Y010416D03*
X010810Y009629D03*
X011794Y008841D03*
X012582Y009038D03*
X014156Y008645D03*
X012582Y007660D03*
X011597Y007463D03*
X010810Y008251D03*
X010219Y007463D03*
X009826Y006086D03*
X010219Y005495D03*
X011007Y006086D03*
X011007Y004904D03*
X011794Y004904D03*
X012188Y005495D03*
X013172Y005101D03*
X013763Y006086D03*
X016912Y004708D03*
X017306Y006479D03*
X020849Y007660D03*
X021046Y006282D03*
X023408Y008448D03*
X024393Y007660D03*
X024589Y006479D03*
X024393Y003920D03*
X023408Y003920D03*
X028526Y007267D03*
X030101Y006479D03*
X030889Y007660D03*
X028920Y009235D03*
X030101Y011007D03*
X029511Y011597D03*
X030692Y011597D03*
X031479Y012975D03*
X028920Y012778D03*
X027149Y014944D03*
X025519Y014904D03*
X023999Y014353D03*
X023015Y013172D03*
X021834Y014353D03*
X019668Y013172D03*
X018093Y013763D03*
X016912Y015534D03*
X017503Y016125D03*
X018684Y016322D03*
X019274Y017897D03*
X021243Y018881D03*
X022424Y019668D03*
X020849Y020652D03*
X023015Y022424D03*
X026952Y021440D03*
X028723Y022227D03*
X030101Y023605D03*
X026952Y026558D03*
X025771Y026952D03*
X024196Y026755D03*
X019668Y026952D03*
X012975Y023015D03*
X013172Y022227D03*
X013960Y021637D03*
X012975Y021046D03*
X012778Y020259D03*
X011991Y020259D03*
X010219Y020259D03*
X010219Y021046D03*
X009432Y021046D03*
X010219Y021834D03*
X008645Y022424D03*
X006676Y023015D03*
X007857Y024393D03*
X008645Y024393D03*
X010023Y024589D03*
X010219Y023802D03*
X008448Y025771D03*
X008645Y018881D03*
X008645Y018290D03*
X012188Y017306D03*
X013369Y017897D03*
X014944Y018881D03*
X012975Y015928D03*
X013960Y015337D03*
X014156Y014550D03*
X013369Y012582D03*
X012582Y011400D03*
X011794Y011400D03*
X011794Y011991D03*
X013369Y011007D03*
X013763Y010219D03*
X012975Y010219D03*
X011991Y010219D03*
X014353Y011007D03*
X015534Y011007D03*
X018093Y010613D03*
X019274Y010810D03*
X020849Y010416D03*
X023015Y016912D03*
X021834Y017109D03*
X023999Y018684D03*
X026361Y018093D03*
X027542Y018093D03*
X028330Y017109D03*
X027345Y016912D03*
X029511Y018093D03*
X030692Y016125D03*
X032070Y015534D03*
X011204Y015337D03*
X008448Y014747D03*
X007463Y006086D03*
X008251Y005889D03*
D18*
X006479Y006676D02*
X005593Y005790D01*
X005219Y005790D01*
X005219Y006774D02*
X005318Y006873D01*
X005495Y006873D01*
X005692Y007070D01*
X014550Y007070D01*
X016912Y009432D01*
X016912Y015534D01*
X017503Y016125D02*
X017503Y009432D01*
X014747Y006676D01*
X006479Y006676D01*
X010219Y007463D02*
X011597Y007463D01*
X011007Y006086D02*
X013763Y006086D01*
X019538Y009330D02*
X019633Y009235D01*
X020456Y009235D01*
X020849Y008841D01*
X020849Y007660D01*
X021046Y007463D01*
X021046Y006282D01*
X023015Y006319D02*
X024196Y006319D01*
X024196Y006163D02*
X023015Y006163D01*
X023015Y006007D02*
X024786Y006007D01*
X024786Y006086D02*
X024786Y003526D01*
X023015Y003526D01*
X023015Y007857D01*
X024786Y007857D01*
X024786Y006873D01*
X024196Y006873D01*
X024196Y006086D01*
X024786Y006086D01*
X024786Y005851D02*
X023015Y005851D01*
X023015Y005695D02*
X024786Y005695D01*
X024786Y005539D02*
X023015Y005539D01*
X023015Y005383D02*
X024786Y005383D01*
X024786Y005227D02*
X023015Y005227D01*
X023015Y005071D02*
X024786Y005071D01*
X024786Y004915D02*
X023015Y004915D01*
X023015Y004759D02*
X024786Y004759D01*
X024786Y004603D02*
X023015Y004603D01*
X023015Y004447D02*
X024786Y004447D01*
X024786Y004291D02*
X023015Y004291D01*
X023015Y004135D02*
X024786Y004135D01*
X024786Y003979D02*
X023015Y003979D01*
X023015Y003823D02*
X024786Y003823D01*
X024786Y003667D02*
X023015Y003667D01*
X023015Y006475D02*
X024196Y006475D01*
X024196Y006631D02*
X023015Y006631D01*
X023015Y006787D02*
X024196Y006787D01*
X024786Y006943D02*
X023015Y006943D01*
X023015Y007099D02*
X024786Y007099D01*
X024786Y007255D02*
X023015Y007255D01*
X023015Y007411D02*
X024786Y007411D01*
X024786Y007567D02*
X023015Y007567D01*
X023015Y007723D02*
X024786Y007723D01*
X023408Y008448D02*
X022424Y009432D01*
X022424Y019668D01*
X020849Y020652D02*
X020849Y010416D01*
X018684Y011204D02*
X018093Y010613D01*
X018684Y011204D02*
X018684Y016322D01*
X021834Y017109D02*
X021834Y014353D01*
X023015Y013172D02*
X023015Y016912D01*
X023015Y021440D01*
X023015Y022424D02*
X023015Y026236D01*
X023375Y026597D01*
X018093Y024393D02*
X017646Y024840D01*
X016891Y024840D01*
X015906Y024840D01*
X018093Y024393D02*
X018093Y013763D01*
X014944Y013763D02*
X014944Y011794D01*
X013763Y011794D01*
X013763Y012188D01*
X013655Y012295D01*
X013696Y012336D01*
X013696Y012827D01*
X013615Y012908D01*
X013123Y012908D01*
X013042Y012827D01*
X013042Y012582D01*
X011204Y012582D01*
X009629Y011007D01*
X008841Y011007D01*
X008841Y013763D01*
X014944Y013763D01*
X014944Y013650D02*
X008841Y013650D01*
X008841Y013494D02*
X014944Y013494D01*
X014944Y013369D02*
X014353Y012778D01*
X014353Y012188D01*
X015534Y011007D01*
X014944Y011934D02*
X013763Y011934D01*
X013763Y012090D02*
X014944Y012090D01*
X014944Y012246D02*
X013704Y012246D01*
X013696Y012402D02*
X014944Y012402D01*
X014944Y012558D02*
X013696Y012558D01*
X013696Y012714D02*
X014944Y012714D01*
X014944Y012870D02*
X013653Y012870D01*
X013369Y012582D02*
X013369Y011007D01*
X013042Y012714D02*
X008841Y012714D01*
X008841Y012558D02*
X011180Y012558D01*
X011024Y012402D02*
X008841Y012402D01*
X008841Y012246D02*
X010868Y012246D01*
X010712Y012090D02*
X008841Y012090D01*
X008841Y011934D02*
X010556Y011934D01*
X010400Y011778D02*
X008841Y011778D01*
X008841Y011622D02*
X010244Y011622D01*
X010089Y011466D02*
X008841Y011466D01*
X008841Y011310D02*
X009933Y011310D01*
X009777Y011155D02*
X008841Y011155D01*
X008841Y012870D02*
X013085Y012870D01*
X014944Y013026D02*
X008841Y013026D01*
X008841Y013182D02*
X014944Y013182D01*
X014944Y013338D02*
X008841Y013338D01*
X009826Y014550D02*
X014156Y014550D01*
X009826Y014550D02*
X009235Y015141D01*
X009235Y017700D01*
X008645Y018290D01*
X008645Y022424D02*
X007267Y022424D01*
X006676Y023015D01*
X023999Y014353D02*
X024196Y014156D01*
X024196Y012188D01*
X027149Y009235D01*
X028920Y009235D01*
X030101Y011007D02*
X030101Y023605D01*
X031479Y026746D02*
X028399Y029827D01*
X031479Y026746D02*
X031479Y012975D01*
X030692Y011597D02*
X030692Y016125D01*
X032070Y015534D02*
X032070Y004904D01*
X032176Y004798D01*
X032176Y004589D01*
X029511Y011597D02*
X029511Y018093D01*
X027542Y018093D02*
X026361Y018093D01*
D19*
X026952Y021440D02*
X026952Y026558D01*
X016891Y023855D02*
X016891Y023332D01*
X016912Y023332D01*
X016912Y023270D01*
X016772Y023270D01*
X016671Y023228D01*
X016593Y023150D01*
X016551Y023049D01*
X016551Y022142D01*
X016593Y022041D01*
X016671Y021963D01*
X016772Y021921D01*
X016912Y021921D01*
X016912Y015998D01*
X016669Y015998D01*
X016568Y015956D01*
X016491Y015879D01*
X016449Y015777D01*
X016449Y015291D01*
X016491Y015190D01*
X016558Y015123D01*
X016558Y009579D01*
X014403Y007424D01*
X012061Y007424D01*
X012061Y007706D01*
X012019Y007808D01*
X011942Y007885D01*
X011840Y007927D01*
X011597Y007927D01*
X011597Y010416D01*
X012247Y010416D01*
X012247Y009464D01*
X012237Y009460D01*
X012160Y009382D01*
X012118Y009281D01*
X012118Y008795D01*
X012160Y008694D01*
X012237Y008617D01*
X012339Y008575D01*
X012385Y008575D01*
X012385Y008054D01*
X014353Y008054D01*
X015534Y009235D01*
X015534Y010543D01*
X015777Y010543D01*
X015879Y010585D01*
X015956Y010663D01*
X015998Y010764D01*
X015998Y011250D01*
X015956Y011351D01*
X015879Y011429D01*
X015777Y011470D01*
X015572Y011470D01*
X015534Y011508D01*
X015534Y023355D01*
X015566Y023342D01*
X015615Y023332D01*
X015906Y023332D01*
X015906Y023855D01*
X015906Y023855D01*
X015906Y023332D01*
X016197Y023332D01*
X016247Y023342D01*
X016294Y023361D01*
X016336Y023390D01*
X016372Y023426D01*
X016399Y023465D01*
X016425Y023426D01*
X016461Y023390D01*
X016503Y023361D01*
X016550Y023342D01*
X016600Y023332D01*
X016891Y023332D01*
X016891Y023855D01*
X016891Y023855D01*
X016367Y023855D01*
X015906Y023855D01*
X015906Y023855D01*
X016891Y023855D01*
X016891Y023855D01*
X016891Y023580D02*
X016891Y023580D01*
X016765Y023267D02*
X015534Y023267D01*
X015534Y022954D02*
X016551Y022954D01*
X016551Y022640D02*
X015534Y022640D01*
X015534Y022327D02*
X016551Y022327D01*
X016621Y022013D02*
X015534Y022013D01*
X015534Y021700D02*
X016912Y021700D01*
X016912Y021386D02*
X015534Y021386D01*
X015534Y021073D02*
X016912Y021073D01*
X016912Y020759D02*
X015534Y020759D01*
X015534Y020446D02*
X016912Y020446D01*
X016912Y020132D02*
X015534Y020132D01*
X015534Y019819D02*
X016912Y019819D01*
X016912Y019505D02*
X015534Y019505D01*
X015534Y019192D02*
X016912Y019192D01*
X016912Y018879D02*
X015534Y018879D01*
X015534Y018565D02*
X016912Y018565D01*
X016912Y018252D02*
X015534Y018252D01*
X015534Y017938D02*
X016912Y017938D01*
X016912Y017625D02*
X015534Y017625D01*
X015534Y017311D02*
X016912Y017311D01*
X016912Y016998D02*
X015534Y016998D01*
X015534Y016684D02*
X016912Y016684D01*
X016912Y016371D02*
X015534Y016371D01*
X015534Y016057D02*
X016912Y016057D01*
X016449Y015744D02*
X015534Y015744D01*
X015534Y015430D02*
X016449Y015430D01*
X016558Y015117D02*
X015534Y015117D01*
X015534Y014804D02*
X016558Y014804D01*
X016558Y014490D02*
X015534Y014490D01*
X015534Y014177D02*
X016558Y014177D01*
X016558Y013863D02*
X015534Y013863D01*
X015534Y013550D02*
X016558Y013550D01*
X016558Y013236D02*
X015534Y013236D01*
X015534Y012923D02*
X016558Y012923D01*
X016558Y012609D02*
X015534Y012609D01*
X015534Y012296D02*
X016558Y012296D01*
X016558Y011982D02*
X015534Y011982D01*
X015534Y011669D02*
X016558Y011669D01*
X016558Y011355D02*
X015952Y011355D01*
X015998Y011042D02*
X016558Y011042D01*
X016558Y010729D02*
X015983Y010729D01*
X015534Y010415D02*
X016558Y010415D01*
X016558Y010102D02*
X015534Y010102D01*
X015534Y009788D02*
X016558Y009788D01*
X016454Y009475D02*
X015534Y009475D01*
X015460Y009161D02*
X016140Y009161D01*
X015827Y008848D02*
X015147Y008848D01*
X014834Y008534D02*
X015514Y008534D01*
X015200Y008221D02*
X014520Y008221D01*
X014887Y007907D02*
X011888Y007907D01*
X012061Y007594D02*
X014573Y007594D01*
X012385Y008221D02*
X011597Y008221D01*
X011597Y008534D02*
X012385Y008534D01*
X012118Y008848D02*
X011597Y008848D01*
X011597Y009161D02*
X012118Y009161D01*
X012247Y009475D02*
X011597Y009475D01*
X011597Y009788D02*
X012247Y009788D01*
X012247Y010102D02*
X011597Y010102D01*
X011597Y010415D02*
X012247Y010415D01*
X009038Y011400D02*
X009038Y008841D01*
X007956Y007759D01*
X005219Y007759D01*
X014944Y013369D02*
X014944Y018881D01*
X011794Y021243D02*
X011204Y021243D01*
X010810Y021637D01*
X010810Y022582D01*
X011204Y022975D01*
X012936Y022975D01*
X012975Y023015D01*
X011204Y021243D02*
X011204Y015337D01*
X015906Y023580D02*
X015906Y023580D01*
X023015Y013172D02*
X023605Y012582D01*
X023605Y009038D01*
X024393Y008251D01*
X024393Y007660D01*
D20*
X023015Y021440D02*
X023015Y022424D01*
D21*
X004879Y003787D02*
X003015Y005180D01*
X003656Y005180D01*
X003750Y005219D01*
X003822Y005291D01*
X003861Y005385D01*
X003861Y006195D01*
X003825Y006282D01*
X003861Y006369D01*
X003861Y007180D01*
X003825Y007267D01*
X003861Y007354D01*
X003861Y008164D01*
X003825Y008251D01*
X003861Y008338D01*
X003861Y009148D01*
X003825Y009235D01*
X003861Y009322D01*
X003861Y010132D01*
X003822Y010227D01*
X003750Y010299D01*
X003656Y010337D01*
X002846Y010337D01*
X002752Y010299D01*
X002680Y010227D01*
X002641Y010132D01*
X002641Y009322D01*
X002677Y009235D01*
X002641Y009148D01*
X002641Y008338D01*
X002677Y008251D01*
X002641Y008164D01*
X002641Y007354D01*
X002677Y007267D01*
X002641Y007180D01*
X002641Y006369D01*
X002677Y006282D01*
X002641Y006195D01*
X002641Y005459D01*
X002409Y005632D01*
X002409Y021441D01*
X002589Y021441D01*
X002496Y021348D01*
X002436Y021203D01*
X002436Y021046D01*
X002496Y020901D01*
X002607Y020791D01*
X002751Y020731D01*
X002908Y020731D01*
X002928Y020739D01*
X002948Y020731D01*
X003105Y020731D01*
X003249Y020791D01*
X003360Y020901D01*
X003420Y021046D01*
X003420Y021203D01*
X003360Y021348D01*
X003267Y021441D01*
X003450Y021441D01*
X003546Y021481D01*
X003620Y021554D01*
X003659Y021650D01*
X003659Y024720D01*
X010278Y027173D01*
X010029Y026764D01*
X010029Y026764D01*
X009879Y026229D01*
X009879Y025674D01*
X010029Y025140D01*
X010317Y024665D01*
X010723Y024286D01*
X011216Y024031D01*
X011759Y023918D01*
X011759Y023918D01*
X012313Y023956D01*
X012313Y023956D01*
X012836Y024142D01*
X013290Y024462D01*
X013640Y024893D01*
X013861Y025402D01*
X013937Y025952D01*
X013861Y026502D01*
X013640Y027011D01*
X013290Y027441D01*
X013290Y027441D01*
X012836Y027762D01*
X012341Y027938D01*
X020445Y030941D01*
X020917Y030941D01*
X020779Y030714D01*
X020779Y030714D01*
X020629Y030179D01*
X020629Y029624D01*
X020779Y029090D01*
X020779Y029090D01*
X021067Y028615D01*
X021473Y028236D01*
X021966Y027981D01*
X022509Y027868D01*
X022509Y027868D01*
X023063Y027906D01*
X023063Y027906D01*
X023586Y028092D01*
X024040Y028412D01*
X024390Y028843D01*
X024611Y029352D01*
X024687Y029902D01*
X024611Y030452D01*
X024399Y030941D01*
X029354Y030941D01*
X032247Y028048D01*
X032247Y015978D01*
X031831Y015978D01*
X031814Y015971D01*
X031814Y026813D01*
X031763Y026936D01*
X028956Y029743D01*
X028956Y030179D01*
X028917Y030273D01*
X028845Y030345D01*
X028751Y030384D01*
X028046Y030384D01*
X027952Y030345D01*
X027899Y030291D01*
X027845Y030345D01*
X027751Y030384D01*
X027046Y030384D01*
X026952Y030345D01*
X026880Y030273D01*
X026841Y030179D01*
X026841Y029475D01*
X026880Y029381D01*
X026952Y029309D01*
X027046Y029270D01*
X027751Y029270D01*
X027845Y029309D01*
X027899Y029362D01*
X027952Y029309D01*
X028046Y029270D01*
X028482Y029270D01*
X031145Y026607D01*
X031145Y013379D01*
X031074Y013308D01*
X031035Y013214D01*
X031035Y012736D01*
X031074Y012642D01*
X031146Y012570D01*
X031240Y012531D01*
X031718Y012531D01*
X031735Y012538D01*
X031735Y005143D01*
X031706Y005131D01*
X031684Y005109D01*
X031662Y005131D01*
X031568Y005170D01*
X030816Y005170D01*
X030722Y005131D01*
X030700Y005109D01*
X030677Y005131D01*
X030583Y005170D01*
X029832Y005170D01*
X029738Y005131D01*
X029666Y005059D01*
X029627Y004965D01*
X029627Y004214D01*
X029666Y004120D01*
X029738Y004048D01*
X029832Y004009D01*
X030583Y004009D01*
X030677Y004048D01*
X030700Y004070D01*
X030722Y004048D01*
X030816Y004009D01*
X031568Y004009D01*
X031662Y004048D01*
X031684Y004070D01*
X031706Y004048D01*
X031800Y004009D01*
X032552Y004009D01*
X032646Y004048D01*
X032718Y004120D01*
X032729Y004146D01*
X032738Y004137D01*
X032774Y004116D01*
X032815Y004106D01*
X033111Y004106D01*
X033111Y004540D01*
X033210Y004540D01*
X033210Y004639D01*
X033644Y004639D01*
X033644Y004935D01*
X033633Y004976D01*
X033612Y005012D01*
X033583Y005042D01*
X033547Y005062D01*
X033506Y005073D01*
X033210Y005073D01*
X033210Y004639D01*
X033111Y004639D01*
X033111Y005073D01*
X032815Y005073D01*
X032774Y005062D01*
X032738Y005042D01*
X032729Y005033D01*
X032718Y005059D01*
X032646Y005131D01*
X032552Y005170D01*
X032404Y005170D01*
X032404Y014615D01*
X032426Y014593D01*
X032578Y014530D01*
X035388Y014530D01*
X035388Y009822D01*
X035427Y009726D01*
X035501Y009653D01*
X035597Y009613D01*
X037888Y009613D01*
X037888Y004946D01*
X037790Y005066D01*
X037790Y005066D01*
X037790Y005066D01*
X037336Y005387D01*
X036813Y005572D01*
X036259Y005610D01*
X035716Y005497D01*
X035716Y005497D01*
X035223Y005242D01*
X034817Y004863D01*
X034529Y004389D01*
X034529Y004389D01*
X034379Y003854D01*
X034379Y003299D01*
X034529Y002765D01*
X034529Y002765D01*
X034817Y002290D01*
X034817Y002290D01*
X034817Y002290D01*
X034901Y002212D01*
X007936Y002212D01*
X008290Y002462D01*
X008640Y002893D01*
X008861Y003402D01*
X008937Y003952D01*
X008861Y004502D01*
X008640Y005011D01*
X008290Y005441D01*
X008290Y005441D01*
X007836Y005762D01*
X007313Y005947D01*
X006759Y005985D01*
X006216Y005872D01*
X006216Y005872D01*
X006077Y005800D01*
X006618Y006341D01*
X010570Y006341D01*
X010563Y006325D01*
X010563Y005846D01*
X010602Y005752D01*
X010674Y005680D01*
X010768Y005641D01*
X011246Y005641D01*
X011340Y005680D01*
X011410Y005751D01*
X013359Y005751D01*
X013430Y005680D01*
X013524Y005641D01*
X014002Y005641D01*
X014096Y005680D01*
X014168Y005752D01*
X014207Y005846D01*
X014207Y006325D01*
X014200Y006341D01*
X014813Y006341D01*
X014936Y006392D01*
X017692Y009148D01*
X017787Y009242D01*
X017837Y009365D01*
X017837Y010176D01*
X017854Y010169D01*
X018332Y010169D01*
X018426Y010208D01*
X018498Y010280D01*
X018537Y010374D01*
X018537Y010584D01*
X018968Y011014D01*
X019019Y011137D01*
X019019Y015918D01*
X019089Y015989D01*
X019128Y016083D01*
X019128Y016561D01*
X019089Y016655D01*
X019017Y016727D01*
X018923Y016766D01*
X018445Y016766D01*
X018428Y016759D01*
X018428Y024459D01*
X018377Y024582D01*
X017836Y025123D01*
X017713Y025174D01*
X017405Y025174D01*
X017373Y025250D01*
X017301Y025322D01*
X017279Y025332D01*
X017301Y025341D01*
X017373Y025413D01*
X017412Y025507D01*
X022680Y025507D01*
X022680Y025624D02*
X017412Y025624D01*
X017412Y025740D02*
X022680Y025740D01*
X022680Y025857D02*
X017412Y025857D01*
X017412Y025973D02*
X022680Y025973D01*
X022680Y026090D02*
X017412Y026090D01*
X017412Y026141D02*
X017373Y026235D01*
X017301Y026307D01*
X017207Y026346D01*
X016574Y026346D01*
X016480Y026307D01*
X016408Y026235D01*
X016399Y026212D01*
X016389Y026235D01*
X016317Y026307D01*
X016223Y026346D01*
X015590Y026346D01*
X015496Y026307D01*
X015424Y026235D01*
X015385Y026141D01*
X015385Y025507D01*
X013876Y025507D01*
X013861Y025402D02*
X013861Y025402D01*
X013856Y025390D02*
X015447Y025390D01*
X015424Y025413D02*
X015496Y025341D01*
X015518Y025332D01*
X015496Y025322D01*
X015424Y025250D01*
X015385Y025156D01*
X015385Y024581D01*
X015300Y024546D01*
X015184Y024430D01*
X015121Y024278D01*
X015121Y019325D01*
X014705Y019325D01*
X014611Y019286D01*
X014539Y019214D01*
X014500Y019120D01*
X014500Y018642D01*
X014530Y018568D01*
X014530Y014914D01*
X014489Y014955D01*
X014395Y014994D01*
X013917Y014994D01*
X013823Y014955D01*
X013753Y014885D01*
X009964Y014885D01*
X009570Y015279D01*
X009570Y017766D01*
X009519Y017889D01*
X009425Y017983D01*
X009089Y018319D01*
X009089Y018529D01*
X009065Y018586D01*
X009089Y018642D01*
X009089Y019120D01*
X009050Y019214D01*
X008978Y019286D01*
X008884Y019325D01*
X008406Y019325D01*
X008311Y019286D01*
X008240Y019214D01*
X008201Y019120D01*
X008201Y018642D01*
X008224Y018586D01*
X008201Y018529D01*
X008201Y018051D01*
X008240Y017957D01*
X008311Y017885D01*
X008406Y017846D01*
X008615Y017846D01*
X008900Y017561D01*
X008900Y015074D01*
X008951Y014951D01*
X009542Y014361D01*
X009636Y014266D01*
X009759Y014215D01*
X013753Y014215D01*
X013823Y014145D01*
X013917Y014106D01*
X014395Y014106D01*
X014489Y014145D01*
X014530Y014186D01*
X014530Y014097D01*
X008775Y014097D01*
X008652Y014046D01*
X008558Y013952D01*
X008507Y013829D01*
X008507Y010940D01*
X008558Y010817D01*
X008625Y010750D01*
X008625Y009013D01*
X007784Y008172D01*
X005826Y008172D01*
X005794Y008251D01*
X005830Y008338D01*
X005830Y009148D01*
X005794Y009235D01*
X005830Y009322D01*
X005830Y010132D01*
X005791Y010227D01*
X005719Y010299D01*
X005625Y010337D01*
X004814Y010337D01*
X004720Y010299D01*
X004648Y010227D01*
X004609Y010132D01*
X004609Y009322D01*
X004645Y009235D01*
X004609Y009148D01*
X004609Y008338D01*
X004645Y008251D01*
X004609Y008164D01*
X004609Y007354D01*
X004645Y007267D01*
X004609Y007180D01*
X004609Y006369D01*
X004645Y006282D01*
X004609Y006195D01*
X004609Y005385D01*
X004648Y005291D01*
X004720Y005219D01*
X004814Y005180D01*
X005282Y005180D01*
X005029Y004764D01*
X004879Y004229D01*
X004879Y003787D01*
X004879Y003817D02*
X004838Y003817D01*
X004879Y003934D02*
X004682Y003934D01*
X004526Y004051D02*
X004879Y004051D01*
X004879Y004167D02*
X004370Y004167D01*
X004214Y004284D02*
X004894Y004284D01*
X004879Y004229D02*
X004879Y004229D01*
X004927Y004400D02*
X004058Y004400D01*
X003902Y004517D02*
X004960Y004517D01*
X004992Y004634D02*
X003746Y004634D01*
X003590Y004750D02*
X005025Y004750D01*
X005092Y004867D02*
X003433Y004867D01*
X003277Y004984D02*
X005163Y004984D01*
X005233Y005100D02*
X003121Y005100D01*
X003745Y005217D02*
X004725Y005217D01*
X004631Y005333D02*
X003840Y005333D01*
X003861Y005450D02*
X004609Y005450D01*
X004609Y005567D02*
X003861Y005567D01*
X003861Y005683D02*
X004609Y005683D01*
X004609Y005800D02*
X003861Y005800D01*
X003861Y005916D02*
X004609Y005916D01*
X004609Y006033D02*
X003861Y006033D01*
X003861Y006150D02*
X004609Y006150D01*
X004638Y006266D02*
X003832Y006266D01*
X003861Y006383D02*
X004609Y006383D01*
X004609Y006499D02*
X003861Y006499D01*
X003861Y006616D02*
X004609Y006616D01*
X004609Y006733D02*
X003861Y006733D01*
X003861Y006849D02*
X004609Y006849D01*
X004609Y006966D02*
X003861Y006966D01*
X003861Y007083D02*
X004609Y007083D01*
X004617Y007199D02*
X003853Y007199D01*
X003845Y007316D02*
X004625Y007316D01*
X004609Y007432D02*
X003861Y007432D01*
X003861Y007549D02*
X004609Y007549D01*
X004609Y007666D02*
X003861Y007666D01*
X003861Y007782D02*
X004609Y007782D01*
X004609Y007899D02*
X003861Y007899D01*
X003861Y008015D02*
X004609Y008015D01*
X004609Y008132D02*
X003861Y008132D01*
X003826Y008249D02*
X004644Y008249D01*
X004609Y008365D02*
X003861Y008365D01*
X003861Y008482D02*
X004609Y008482D01*
X004609Y008598D02*
X003861Y008598D01*
X003861Y008715D02*
X004609Y008715D01*
X004609Y008832D02*
X003861Y008832D01*
X003861Y008948D02*
X004609Y008948D01*
X004609Y009065D02*
X003861Y009065D01*
X003847Y009182D02*
X004623Y009182D01*
X004619Y009298D02*
X003851Y009298D01*
X003861Y009415D02*
X004609Y009415D01*
X004609Y009531D02*
X003861Y009531D01*
X003861Y009648D02*
X004609Y009648D01*
X004609Y009765D02*
X003861Y009765D01*
X003861Y009881D02*
X004609Y009881D01*
X004609Y009998D02*
X003861Y009998D01*
X003861Y010114D02*
X004609Y010114D01*
X004653Y010231D02*
X003818Y010231D01*
X004008Y010598D02*
X003795Y010811D01*
X003680Y011089D01*
X003680Y015390D01*
X003795Y015667D01*
X004008Y015880D01*
X004286Y015995D01*
X004789Y015995D01*
X004713Y016034D01*
X004713Y016034D01*
X004307Y016413D01*
X004307Y016413D01*
X004307Y016413D01*
X004019Y016888D01*
X004019Y016888D01*
X003869Y017422D01*
X003869Y017977D01*
X004019Y018512D01*
X004019Y018512D01*
X004141Y018713D01*
X004123Y018713D01*
X004121Y018714D01*
X004119Y018713D01*
X003966Y018713D01*
X003825Y018772D01*
X003717Y018879D01*
X003658Y019021D01*
X003658Y019173D01*
X003717Y019314D01*
X003825Y019422D01*
X003966Y019481D01*
X004119Y019481D01*
X004121Y019480D01*
X004123Y019481D01*
X004276Y019481D01*
X004417Y019422D01*
X004525Y019314D01*
X004562Y019224D01*
X004713Y019365D01*
X004713Y019365D01*
X005206Y019620D01*
X005206Y019620D01*
X005750Y019733D01*
X005750Y019733D01*
X006303Y019695D01*
X006303Y019695D01*
X006826Y019510D01*
X006826Y019510D01*
X007280Y019189D01*
X007280Y019189D01*
X007630Y018759D01*
X007630Y018759D01*
X007851Y018250D01*
X007851Y018250D01*
X007927Y017700D01*
X007851Y017150D01*
X007851Y017150D01*
X007630Y016641D01*
X007630Y016641D01*
X007280Y016210D01*
X007280Y016210D01*
X007280Y016210D01*
X006976Y015995D01*
X007586Y015995D01*
X007864Y015880D01*
X008077Y015667D01*
X008192Y015390D01*
X008192Y011089D01*
X008077Y010811D01*
X007864Y010598D01*
X007586Y010483D01*
X004286Y010483D01*
X004008Y010598D01*
X004050Y010581D02*
X002409Y010581D01*
X002409Y010697D02*
X003909Y010697D01*
X003794Y010814D02*
X002409Y010814D01*
X002409Y010931D02*
X003746Y010931D01*
X003697Y011047D02*
X002409Y011047D01*
X002409Y011164D02*
X003680Y011164D01*
X003680Y011280D02*
X002409Y011280D01*
X002409Y011397D02*
X003680Y011397D01*
X003680Y011514D02*
X002409Y011514D01*
X002409Y011630D02*
X003680Y011630D01*
X003680Y011747D02*
X002409Y011747D01*
X002409Y011864D02*
X003680Y011864D01*
X003680Y011980D02*
X002409Y011980D01*
X002409Y012097D02*
X003680Y012097D01*
X003680Y012213D02*
X002409Y012213D01*
X002409Y012330D02*
X003680Y012330D01*
X003680Y012447D02*
X002409Y012447D01*
X002409Y012563D02*
X003680Y012563D01*
X003680Y012680D02*
X002409Y012680D01*
X002409Y012796D02*
X003680Y012796D01*
X003680Y012913D02*
X002409Y012913D01*
X002409Y013030D02*
X003680Y013030D01*
X003680Y013146D02*
X002409Y013146D01*
X002409Y013263D02*
X003680Y013263D01*
X003680Y013379D02*
X002409Y013379D01*
X002409Y013496D02*
X003680Y013496D01*
X003680Y013613D02*
X002409Y013613D01*
X002409Y013729D02*
X003680Y013729D01*
X003680Y013846D02*
X002409Y013846D01*
X002409Y013963D02*
X003680Y013963D01*
X003680Y014079D02*
X002409Y014079D01*
X002409Y014196D02*
X003680Y014196D01*
X003680Y014312D02*
X002409Y014312D01*
X002409Y014429D02*
X003680Y014429D01*
X003680Y014546D02*
X002409Y014546D01*
X002409Y014662D02*
X003680Y014662D01*
X003680Y014779D02*
X002409Y014779D01*
X002409Y014895D02*
X003680Y014895D01*
X003680Y015012D02*
X002409Y015012D01*
X002409Y015129D02*
X003680Y015129D01*
X003680Y015245D02*
X002409Y015245D01*
X002409Y015362D02*
X003680Y015362D01*
X003717Y015478D02*
X002409Y015478D01*
X002409Y015595D02*
X003765Y015595D01*
X003840Y015712D02*
X002409Y015712D01*
X002409Y015828D02*
X003956Y015828D01*
X004165Y015945D02*
X002409Y015945D01*
X002409Y016062D02*
X004684Y016062D01*
X004559Y016178D02*
X002409Y016178D01*
X002409Y016295D02*
X004434Y016295D01*
X004310Y016411D02*
X002409Y016411D01*
X002409Y016528D02*
X004238Y016528D01*
X004167Y016645D02*
X002409Y016645D01*
X002409Y016761D02*
X004096Y016761D01*
X004025Y016878D02*
X002409Y016878D01*
X002409Y016994D02*
X003989Y016994D01*
X003956Y017111D02*
X002409Y017111D01*
X002409Y017228D02*
X003924Y017228D01*
X003891Y017344D02*
X002409Y017344D01*
X002409Y017461D02*
X003869Y017461D01*
X003869Y017577D02*
X002409Y017577D01*
X002409Y017694D02*
X003869Y017694D01*
X003869Y017811D02*
X002409Y017811D01*
X002409Y017927D02*
X003869Y017927D01*
X003888Y018044D02*
X002409Y018044D01*
X002409Y018161D02*
X003921Y018161D01*
X003953Y018277D02*
X002409Y018277D01*
X002409Y018394D02*
X003986Y018394D01*
X004019Y018510D02*
X002409Y018510D01*
X002409Y018627D02*
X002650Y018627D01*
X002607Y018645D02*
X002751Y018585D01*
X002908Y018585D01*
X002928Y018593D01*
X002948Y018585D01*
X003105Y018585D01*
X003249Y018645D01*
X003360Y018756D01*
X003420Y018901D01*
X003420Y019057D01*
X003360Y019202D01*
X003249Y019313D01*
X003105Y019373D01*
X002948Y019373D01*
X002928Y019364D01*
X002908Y019373D01*
X002751Y019373D01*
X002607Y019313D01*
X002496Y019202D01*
X002436Y019057D01*
X002436Y018901D01*
X002496Y018756D01*
X002607Y018645D01*
X002508Y018744D02*
X002409Y018744D01*
X002409Y018860D02*
X002453Y018860D01*
X002436Y018977D02*
X002409Y018977D01*
X002409Y019093D02*
X002451Y019093D01*
X002409Y019210D02*
X002504Y019210D01*
X002409Y019327D02*
X002640Y019327D01*
X002409Y019443D02*
X003875Y019443D01*
X003729Y019327D02*
X003216Y019327D01*
X003352Y019210D02*
X003674Y019210D01*
X003658Y019093D02*
X003405Y019093D01*
X003420Y018977D02*
X003676Y018977D01*
X003736Y018860D02*
X003403Y018860D01*
X003348Y018744D02*
X003892Y018744D01*
X004089Y018627D02*
X003206Y018627D01*
X002409Y019560D02*
X005089Y019560D01*
X004864Y019443D02*
X004367Y019443D01*
X004513Y019327D02*
X004672Y019327D01*
X005476Y019676D02*
X002409Y019676D01*
X002409Y019793D02*
X010790Y019793D01*
X010790Y019676D02*
X006357Y019676D01*
X006685Y019560D02*
X010790Y019560D01*
X010790Y019443D02*
X006920Y019443D01*
X007086Y019327D02*
X010790Y019327D01*
X010790Y019210D02*
X009051Y019210D01*
X009089Y019093D02*
X010790Y019093D01*
X010790Y018977D02*
X009089Y018977D01*
X009089Y018860D02*
X010790Y018860D01*
X010790Y018744D02*
X009089Y018744D01*
X009082Y018627D02*
X010790Y018627D01*
X010790Y018510D02*
X009089Y018510D01*
X009089Y018394D02*
X010790Y018394D01*
X010790Y018277D02*
X009131Y018277D01*
X009248Y018161D02*
X010790Y018161D01*
X010790Y018044D02*
X009364Y018044D01*
X009481Y017927D02*
X010790Y017927D01*
X010790Y017811D02*
X009551Y017811D01*
X009570Y017694D02*
X010790Y017694D01*
X010790Y017577D02*
X009570Y017577D01*
X009570Y017461D02*
X010790Y017461D01*
X010790Y017344D02*
X009570Y017344D01*
X009570Y017228D02*
X010790Y017228D01*
X010790Y017111D02*
X009570Y017111D01*
X009570Y016994D02*
X010790Y016994D01*
X010790Y016878D02*
X009570Y016878D01*
X009570Y016761D02*
X010790Y016761D01*
X010790Y016645D02*
X009570Y016645D01*
X009570Y016528D02*
X010790Y016528D01*
X010790Y016411D02*
X009570Y016411D01*
X009570Y016295D02*
X010790Y016295D01*
X010790Y016178D02*
X009570Y016178D01*
X009570Y016062D02*
X010790Y016062D01*
X010790Y015945D02*
X009570Y015945D01*
X009570Y015828D02*
X010790Y015828D01*
X010790Y015712D02*
X009570Y015712D01*
X009570Y015595D02*
X010767Y015595D01*
X010760Y015576D02*
X010760Y015098D01*
X010799Y015004D01*
X010871Y014932D01*
X010965Y014893D01*
X011443Y014893D01*
X011537Y014932D01*
X011609Y015004D01*
X011648Y015098D01*
X011648Y015576D01*
X011617Y015650D01*
X011617Y020830D01*
X011632Y020830D01*
X011706Y020799D01*
X011882Y020799D01*
X012046Y020867D01*
X012171Y020991D01*
X012185Y021025D01*
X012331Y020879D01*
X012414Y020796D01*
X012523Y020751D01*
X012555Y020751D01*
X012570Y020713D01*
X012642Y020641D01*
X012736Y020602D01*
X013214Y020602D01*
X013308Y020641D01*
X013380Y020713D01*
X013419Y020807D01*
X013419Y021285D01*
X013396Y021341D01*
X013539Y021341D01*
X013554Y021304D01*
X013626Y021232D01*
X013721Y021193D01*
X014199Y021193D01*
X014293Y021232D01*
X014365Y021304D01*
X014404Y021398D01*
X014404Y021876D01*
X014365Y021970D01*
X014293Y022042D01*
X014199Y022081D01*
X013721Y022081D01*
X013626Y022042D01*
X013554Y021970D01*
X013539Y021932D01*
X012704Y021932D01*
X012238Y022398D01*
X012238Y022512D01*
X012218Y022562D01*
X013018Y022562D01*
X013039Y022571D01*
X013214Y022571D01*
X013308Y022610D01*
X013380Y022682D01*
X013419Y022776D01*
X013419Y023254D01*
X013380Y023348D01*
X013308Y023420D01*
X013214Y023459D01*
X012736Y023459D01*
X012642Y023420D01*
X012611Y023389D01*
X011121Y023389D01*
X010969Y023326D01*
X010853Y023209D01*
X010459Y022816D01*
X010397Y022664D01*
X010397Y021554D01*
X010459Y021403D01*
X010576Y021286D01*
X010790Y021072D01*
X010790Y015650D01*
X010760Y015576D01*
X010760Y015478D02*
X009570Y015478D01*
X009570Y015362D02*
X010760Y015362D01*
X010760Y015245D02*
X009604Y015245D01*
X009720Y015129D02*
X010760Y015129D01*
X010795Y015012D02*
X009837Y015012D01*
X009954Y014895D02*
X010960Y014895D01*
X011447Y014895D02*
X013764Y014895D01*
X014530Y015012D02*
X011612Y015012D01*
X011648Y015129D02*
X014530Y015129D01*
X014530Y015245D02*
X011648Y015245D01*
X011648Y015362D02*
X014530Y015362D01*
X014530Y015478D02*
X011648Y015478D01*
X011640Y015595D02*
X014530Y015595D01*
X014530Y015712D02*
X011617Y015712D01*
X011617Y015828D02*
X014530Y015828D01*
X014530Y015945D02*
X011617Y015945D01*
X011617Y016062D02*
X014530Y016062D01*
X014530Y016178D02*
X011617Y016178D01*
X011617Y016295D02*
X014530Y016295D01*
X014530Y016411D02*
X011617Y016411D01*
X011617Y016528D02*
X014530Y016528D01*
X014530Y016645D02*
X011617Y016645D01*
X011617Y016761D02*
X014530Y016761D01*
X014530Y016878D02*
X011617Y016878D01*
X011617Y016994D02*
X014530Y016994D01*
X014530Y017111D02*
X011617Y017111D01*
X011617Y017228D02*
X014530Y017228D01*
X014530Y017344D02*
X011617Y017344D01*
X011617Y017461D02*
X014530Y017461D01*
X014530Y017577D02*
X011617Y017577D01*
X011617Y017694D02*
X014530Y017694D01*
X014530Y017811D02*
X011617Y017811D01*
X011617Y017927D02*
X014530Y017927D01*
X014530Y018044D02*
X011617Y018044D01*
X011617Y018161D02*
X014530Y018161D01*
X014530Y018277D02*
X011617Y018277D01*
X011617Y018394D02*
X014530Y018394D01*
X014530Y018510D02*
X011617Y018510D01*
X011617Y018627D02*
X014506Y018627D01*
X014500Y018744D02*
X011617Y018744D01*
X011617Y018860D02*
X014500Y018860D01*
X014500Y018977D02*
X011617Y018977D01*
X011617Y019093D02*
X014500Y019093D01*
X014537Y019210D02*
X011617Y019210D01*
X011617Y019327D02*
X015121Y019327D01*
X015121Y019443D02*
X011617Y019443D01*
X011617Y019560D02*
X015121Y019560D01*
X015121Y019676D02*
X011617Y019676D01*
X011617Y019793D02*
X015121Y019793D01*
X015121Y019910D02*
X011617Y019910D01*
X011617Y020026D02*
X015121Y020026D01*
X015121Y020143D02*
X011617Y020143D01*
X011617Y020259D02*
X015121Y020259D01*
X015121Y020376D02*
X011617Y020376D01*
X011617Y020493D02*
X015121Y020493D01*
X015121Y020609D02*
X013232Y020609D01*
X013386Y020726D02*
X015121Y020726D01*
X015121Y020843D02*
X013419Y020843D01*
X013419Y020959D02*
X015121Y020959D01*
X015121Y021076D02*
X013419Y021076D01*
X013419Y021192D02*
X015121Y021192D01*
X015121Y021309D02*
X014367Y021309D01*
X014404Y021426D02*
X015121Y021426D01*
X015121Y021542D02*
X014404Y021542D01*
X014404Y021659D02*
X015121Y021659D01*
X015121Y021775D02*
X014404Y021775D01*
X014397Y021892D02*
X015121Y021892D01*
X015121Y022009D02*
X014326Y022009D01*
X013593Y022009D02*
X012627Y022009D01*
X012511Y022125D02*
X015121Y022125D01*
X015121Y022242D02*
X012394Y022242D01*
X012277Y022358D02*
X015121Y022358D01*
X015121Y022475D02*
X012238Y022475D01*
X012630Y023408D02*
X007021Y023408D01*
X007009Y023420D02*
X006915Y023459D01*
X006437Y023459D01*
X006343Y023420D01*
X006271Y023348D01*
X006232Y023254D01*
X006232Y022776D01*
X006271Y022682D01*
X006343Y022610D01*
X006437Y022571D01*
X006647Y022571D01*
X007077Y022140D01*
X007200Y022089D01*
X008241Y022089D01*
X008311Y022019D01*
X008406Y021980D01*
X008884Y021980D01*
X008978Y022019D01*
X009050Y022091D01*
X009089Y022185D01*
X009089Y022663D01*
X009050Y022757D01*
X008978Y022829D01*
X008884Y022868D01*
X008406Y022868D01*
X008311Y022829D01*
X008241Y022759D01*
X007405Y022759D01*
X007120Y023044D01*
X007120Y023254D01*
X007081Y023348D01*
X007009Y023420D01*
X007104Y023291D02*
X010935Y023291D01*
X010818Y023175D02*
X007120Y023175D01*
X007120Y023058D02*
X010702Y023058D01*
X010585Y022942D02*
X007222Y022942D01*
X007339Y022825D02*
X008307Y022825D01*
X008982Y022825D02*
X010469Y022825D01*
X010415Y022708D02*
X009070Y022708D01*
X009089Y022592D02*
X010397Y022592D01*
X010397Y022475D02*
X009089Y022475D01*
X009089Y022358D02*
X010397Y022358D01*
X010397Y022242D02*
X009089Y022242D01*
X009064Y022125D02*
X010397Y022125D01*
X010397Y022009D02*
X008953Y022009D01*
X008337Y022009D02*
X003659Y022009D01*
X003659Y022125D02*
X007114Y022125D01*
X006976Y022242D02*
X003659Y022242D01*
X003659Y022358D02*
X006859Y022358D01*
X006742Y022475D02*
X003659Y022475D01*
X003659Y022592D02*
X006386Y022592D01*
X006260Y022708D02*
X005619Y022708D01*
X005595Y022684D02*
X005667Y022756D01*
X005706Y022850D01*
X005706Y023554D01*
X005667Y023648D01*
X005613Y023702D01*
X005667Y023756D01*
X005706Y023850D01*
X005706Y024554D01*
X005667Y024648D01*
X005595Y024720D01*
X005501Y024759D01*
X004796Y024759D01*
X004702Y024720D01*
X004630Y024648D01*
X004591Y024554D01*
X004591Y023850D01*
X004630Y023756D01*
X004684Y023702D01*
X004630Y023648D01*
X004591Y023554D01*
X004591Y022850D01*
X004630Y022756D01*
X004702Y022684D01*
X004796Y022645D01*
X005501Y022645D01*
X005595Y022684D01*
X005695Y022825D02*
X006232Y022825D01*
X006232Y022942D02*
X005706Y022942D01*
X005706Y023058D02*
X006232Y023058D01*
X006232Y023175D02*
X005706Y023175D01*
X005706Y023291D02*
X006248Y023291D01*
X006331Y023408D02*
X005706Y023408D01*
X005706Y023525D02*
X015121Y023525D01*
X015121Y023641D02*
X005669Y023641D01*
X005668Y023758D02*
X015121Y023758D01*
X015121Y023874D02*
X005706Y023874D01*
X005706Y023991D02*
X011408Y023991D01*
X011216Y024031D02*
X011216Y024031D01*
X011068Y024108D02*
X005706Y024108D01*
X005706Y024224D02*
X010843Y024224D01*
X010723Y024286D02*
X010723Y024286D01*
X010665Y024341D02*
X005706Y024341D01*
X005706Y024457D02*
X010540Y024457D01*
X010415Y024574D02*
X005697Y024574D01*
X005624Y024691D02*
X010302Y024691D01*
X010231Y024807D02*
X003895Y024807D01*
X003659Y024691D02*
X004673Y024691D01*
X004600Y024574D02*
X003659Y024574D01*
X003659Y024457D02*
X004591Y024457D01*
X004591Y024341D02*
X003659Y024341D01*
X003659Y024224D02*
X004591Y024224D01*
X004591Y024108D02*
X003659Y024108D01*
X003659Y023991D02*
X004591Y023991D01*
X004591Y023874D02*
X003659Y023874D01*
X003659Y023758D02*
X004629Y023758D01*
X004628Y023641D02*
X003659Y023641D01*
X003659Y023525D02*
X004591Y023525D01*
X004591Y023408D02*
X003659Y023408D01*
X003659Y023291D02*
X004591Y023291D01*
X004591Y023175D02*
X003659Y023175D01*
X003659Y023058D02*
X004591Y023058D01*
X004591Y022942D02*
X003659Y022942D01*
X003659Y022825D02*
X004602Y022825D01*
X004678Y022708D02*
X003659Y022708D01*
X003659Y021892D02*
X010397Y021892D01*
X010397Y021775D02*
X003659Y021775D01*
X003659Y021659D02*
X010397Y021659D01*
X010402Y021542D02*
X003608Y021542D01*
X003825Y021332D02*
X003717Y021224D01*
X003658Y021083D01*
X003658Y020930D01*
X003717Y020789D01*
X003825Y020681D01*
X003966Y020623D01*
X004119Y020623D01*
X004121Y020624D01*
X004123Y020623D01*
X004276Y020623D01*
X004417Y020681D01*
X004525Y020789D01*
X004584Y020930D01*
X004584Y021083D01*
X004525Y021224D01*
X004417Y021332D01*
X004276Y021390D01*
X004123Y021390D01*
X004121Y021389D01*
X004119Y021390D01*
X003966Y021390D01*
X003825Y021332D01*
X003802Y021309D02*
X003376Y021309D01*
X003420Y021192D02*
X003704Y021192D01*
X003658Y021076D02*
X003420Y021076D01*
X003384Y020959D02*
X003658Y020959D01*
X003695Y020843D02*
X003301Y020843D01*
X003780Y020726D02*
X002409Y020726D01*
X002409Y020843D02*
X002555Y020843D01*
X002472Y020959D02*
X002409Y020959D01*
X002409Y021076D02*
X002436Y021076D01*
X002436Y021192D02*
X002409Y021192D01*
X002409Y021309D02*
X002480Y021309D01*
X002409Y021426D02*
X002574Y021426D01*
X003282Y021426D02*
X010450Y021426D01*
X010553Y021309D02*
X004440Y021309D01*
X004538Y021192D02*
X010670Y021192D01*
X010786Y021076D02*
X004584Y021076D01*
X004584Y020959D02*
X010790Y020959D01*
X010790Y020843D02*
X004547Y020843D01*
X004462Y020726D02*
X010790Y020726D01*
X010790Y020609D02*
X002409Y020609D01*
X002409Y020493D02*
X010790Y020493D01*
X010790Y020376D02*
X002409Y020376D01*
X002409Y020259D02*
X010790Y020259D01*
X010790Y020143D02*
X002409Y020143D01*
X002409Y020026D02*
X010790Y020026D01*
X010790Y019910D02*
X002409Y019910D01*
X007251Y019210D02*
X008238Y019210D01*
X008201Y019093D02*
X007358Y019093D01*
X007280Y019189D02*
X007280Y019189D01*
X007453Y018977D02*
X008201Y018977D01*
X008201Y018860D02*
X007548Y018860D01*
X007637Y018744D02*
X008201Y018744D01*
X008207Y018627D02*
X007688Y018627D01*
X007738Y018510D02*
X008201Y018510D01*
X008201Y018394D02*
X007789Y018394D01*
X007840Y018277D02*
X008201Y018277D01*
X008201Y018161D02*
X007864Y018161D01*
X007880Y018044D02*
X008204Y018044D01*
X008269Y017927D02*
X007896Y017927D01*
X007912Y017811D02*
X008651Y017811D01*
X008767Y017694D02*
X007926Y017694D01*
X007910Y017577D02*
X008884Y017577D01*
X008900Y017461D02*
X007894Y017461D01*
X007878Y017344D02*
X008900Y017344D01*
X008900Y017228D02*
X007862Y017228D01*
X007835Y017111D02*
X008900Y017111D01*
X008900Y016994D02*
X007784Y016994D01*
X007733Y016878D02*
X008900Y016878D01*
X008900Y016761D02*
X007683Y016761D01*
X007632Y016645D02*
X008900Y016645D01*
X008900Y016528D02*
X007539Y016528D01*
X007444Y016411D02*
X008900Y016411D01*
X008900Y016295D02*
X007349Y016295D01*
X007235Y016178D02*
X008900Y016178D01*
X008900Y016062D02*
X007070Y016062D01*
X007707Y015945D02*
X008900Y015945D01*
X008900Y015828D02*
X007916Y015828D01*
X008032Y015712D02*
X008900Y015712D01*
X008900Y015595D02*
X008107Y015595D01*
X008155Y015478D02*
X008900Y015478D01*
X008900Y015362D02*
X008192Y015362D01*
X008192Y015245D02*
X008900Y015245D01*
X008900Y015129D02*
X008192Y015129D01*
X008192Y015012D02*
X008926Y015012D01*
X009007Y014895D02*
X008192Y014895D01*
X008192Y014779D02*
X009124Y014779D01*
X009240Y014662D02*
X008192Y014662D01*
X008192Y014546D02*
X009357Y014546D01*
X009474Y014429D02*
X008192Y014429D01*
X008192Y014312D02*
X009590Y014312D01*
X008731Y014079D02*
X008192Y014079D01*
X008192Y013963D02*
X008568Y013963D01*
X008514Y013846D02*
X008192Y013846D01*
X008192Y013729D02*
X008507Y013729D01*
X008507Y013613D02*
X008192Y013613D01*
X008192Y013496D02*
X008507Y013496D01*
X008507Y013379D02*
X008192Y013379D01*
X008192Y013263D02*
X008507Y013263D01*
X008507Y013146D02*
X008192Y013146D01*
X008192Y013030D02*
X008507Y013030D01*
X008507Y012913D02*
X008192Y012913D01*
X008192Y012796D02*
X008507Y012796D01*
X008507Y012680D02*
X008192Y012680D01*
X008192Y012563D02*
X008507Y012563D01*
X008507Y012447D02*
X008192Y012447D01*
X008192Y012330D02*
X008507Y012330D01*
X008507Y012213D02*
X008192Y012213D01*
X008192Y012097D02*
X008507Y012097D01*
X008507Y011980D02*
X008192Y011980D01*
X008192Y011864D02*
X008507Y011864D01*
X008507Y011747D02*
X008192Y011747D01*
X008192Y011630D02*
X008507Y011630D01*
X008507Y011514D02*
X008192Y011514D01*
X008192Y011397D02*
X008507Y011397D01*
X008507Y011280D02*
X008192Y011280D01*
X008192Y011164D02*
X008507Y011164D01*
X008507Y011047D02*
X008175Y011047D01*
X008126Y010931D02*
X008511Y010931D01*
X008561Y010814D02*
X008078Y010814D01*
X007963Y010697D02*
X008625Y010697D01*
X008625Y010581D02*
X007822Y010581D01*
X008625Y010464D02*
X002409Y010464D01*
X002409Y010348D02*
X008625Y010348D01*
X008625Y010231D02*
X005786Y010231D01*
X005830Y010114D02*
X008625Y010114D01*
X008625Y009998D02*
X005830Y009998D01*
X005830Y009881D02*
X008625Y009881D01*
X008625Y009765D02*
X005830Y009765D01*
X005830Y009648D02*
X008625Y009648D01*
X008625Y009531D02*
X005830Y009531D01*
X005830Y009415D02*
X008625Y009415D01*
X008625Y009298D02*
X005820Y009298D01*
X005816Y009182D02*
X008625Y009182D01*
X008625Y009065D02*
X005830Y009065D01*
X005830Y008948D02*
X008561Y008948D01*
X008444Y008832D02*
X005830Y008832D01*
X005830Y008715D02*
X008327Y008715D01*
X008211Y008598D02*
X005830Y008598D01*
X005830Y008482D02*
X008094Y008482D01*
X007977Y008365D02*
X005830Y008365D01*
X005795Y008249D02*
X007861Y008249D01*
X008447Y007666D02*
X009775Y007666D01*
X009775Y007702D02*
X009775Y007404D01*
X008180Y007404D01*
X008190Y007408D01*
X008306Y007525D01*
X009272Y008491D01*
X009389Y008607D01*
X009452Y008759D01*
X009452Y010672D01*
X009695Y010672D01*
X009818Y010723D01*
X011342Y012247D01*
X012965Y012247D01*
X013034Y012178D01*
X013034Y011410D01*
X013026Y011402D01*
X013026Y011639D01*
X012987Y011734D01*
X012915Y011806D01*
X012821Y011844D01*
X012343Y011844D01*
X012249Y011806D01*
X012177Y011734D01*
X012138Y011639D01*
X012138Y011161D01*
X012177Y011067D01*
X012249Y010995D01*
X012267Y010988D01*
X012267Y010830D01*
X011515Y010830D01*
X011363Y010767D01*
X011247Y010650D01*
X011184Y010498D01*
X011184Y007798D01*
X010623Y007798D01*
X010552Y007869D01*
X010458Y007907D01*
X009980Y007907D01*
X009886Y007869D01*
X009814Y007797D01*
X009775Y007702D01*
X009808Y007782D02*
X008564Y007782D01*
X008680Y007899D02*
X009959Y007899D01*
X009775Y007549D02*
X008330Y007549D01*
X008214Y007432D02*
X009775Y007432D01*
X010479Y007899D02*
X011184Y007899D01*
X011184Y008015D02*
X008797Y008015D01*
X008913Y008132D02*
X011184Y008132D01*
X011184Y008249D02*
X009030Y008249D01*
X009147Y008365D02*
X011184Y008365D01*
X011184Y008482D02*
X009263Y008482D01*
X009380Y008598D02*
X011184Y008598D01*
X011184Y008715D02*
X009433Y008715D01*
X009452Y008832D02*
X011184Y008832D01*
X011184Y008948D02*
X009452Y008948D01*
X009452Y009065D02*
X011184Y009065D01*
X011184Y009182D02*
X009452Y009182D01*
X009452Y009298D02*
X011184Y009298D01*
X011184Y009415D02*
X009452Y009415D01*
X009452Y009531D02*
X011184Y009531D01*
X011184Y009648D02*
X009452Y009648D01*
X009452Y009765D02*
X011184Y009765D01*
X011184Y009881D02*
X009452Y009881D01*
X009452Y009998D02*
X011184Y009998D01*
X011184Y010114D02*
X009452Y010114D01*
X009452Y010231D02*
X011184Y010231D01*
X011184Y010348D02*
X009452Y010348D01*
X009452Y010464D02*
X011184Y010464D01*
X011218Y010581D02*
X009452Y010581D01*
X009756Y010697D02*
X011294Y010697D01*
X011478Y010814D02*
X009909Y010814D01*
X010026Y010931D02*
X012267Y010931D01*
X012197Y011047D02*
X010143Y011047D01*
X010259Y011164D02*
X012138Y011164D01*
X012138Y011280D02*
X010376Y011280D01*
X010492Y011397D02*
X012138Y011397D01*
X012138Y011514D02*
X010609Y011514D01*
X010726Y011630D02*
X012138Y011630D01*
X012190Y011747D02*
X010842Y011747D01*
X010959Y011864D02*
X013034Y011864D01*
X013034Y011980D02*
X011075Y011980D01*
X011192Y012097D02*
X013034Y012097D01*
X012999Y012213D02*
X011309Y012213D01*
X012582Y011400D02*
X012582Y009038D01*
X013026Y009065D02*
X014779Y009065D01*
X014663Y008948D02*
X013026Y008948D01*
X013026Y008832D02*
X014546Y008832D01*
X014430Y008715D02*
X012991Y008715D01*
X012987Y008705D02*
X013026Y008799D01*
X013026Y009277D01*
X012987Y009371D01*
X012915Y009443D01*
X012897Y009451D01*
X012897Y009775D01*
X013214Y009775D01*
X013308Y009814D01*
X013369Y009875D01*
X013430Y009814D01*
X013524Y009775D01*
X014002Y009775D01*
X014096Y009814D01*
X014168Y009886D01*
X014207Y009980D01*
X014207Y010458D01*
X014168Y010552D01*
X014096Y010624D01*
X014002Y010663D01*
X013764Y010663D01*
X013774Y010674D01*
X013813Y010768D01*
X013813Y011246D01*
X013774Y011340D01*
X013704Y011410D01*
X013704Y011460D01*
X014608Y011460D01*
X015090Y010978D01*
X015090Y010768D01*
X015121Y010694D01*
X015121Y009406D01*
X014182Y008467D01*
X012798Y008467D01*
X012798Y008594D01*
X012821Y008594D01*
X012915Y008633D01*
X012987Y008705D01*
X012831Y008598D02*
X014313Y008598D01*
X014196Y008482D02*
X012798Y008482D01*
X013026Y009182D02*
X014896Y009182D01*
X015013Y009298D02*
X013017Y009298D01*
X012943Y009415D02*
X015121Y009415D01*
X015121Y009531D02*
X012897Y009531D01*
X012897Y009648D02*
X015121Y009648D01*
X015121Y009765D02*
X012897Y009765D01*
X012975Y010219D02*
X013763Y010219D01*
X014207Y010231D02*
X015121Y010231D01*
X015121Y010348D02*
X014207Y010348D01*
X014204Y010464D02*
X015121Y010464D01*
X015121Y010581D02*
X014139Y010581D01*
X013784Y010697D02*
X015119Y010697D01*
X015090Y010814D02*
X013813Y010814D01*
X013813Y010931D02*
X015090Y010931D01*
X015021Y011047D02*
X013813Y011047D01*
X013813Y011164D02*
X014904Y011164D01*
X014787Y011280D02*
X013799Y011280D01*
X013717Y011397D02*
X014671Y011397D01*
X015121Y010114D02*
X014207Y010114D01*
X014207Y009998D02*
X015121Y009998D01*
X015121Y009881D02*
X014163Y009881D01*
X013034Y011514D02*
X013026Y011514D01*
X013026Y011630D02*
X013034Y011630D01*
X013034Y011747D02*
X012973Y011747D01*
X013773Y014196D02*
X008192Y014196D01*
X002684Y010231D02*
X002409Y010231D01*
X002409Y010114D02*
X002641Y010114D01*
X002641Y009998D02*
X002409Y009998D01*
X002409Y009881D02*
X002641Y009881D01*
X002641Y009765D02*
X002409Y009765D01*
X002409Y009648D02*
X002641Y009648D01*
X002641Y009531D02*
X002409Y009531D01*
X002409Y009415D02*
X002641Y009415D01*
X002651Y009298D02*
X002409Y009298D01*
X002409Y009182D02*
X002654Y009182D01*
X002641Y009065D02*
X002409Y009065D01*
X002409Y008948D02*
X002641Y008948D01*
X002641Y008832D02*
X002409Y008832D01*
X002409Y008715D02*
X002641Y008715D01*
X002641Y008598D02*
X002409Y008598D01*
X002409Y008482D02*
X002641Y008482D01*
X002641Y008365D02*
X002409Y008365D01*
X002409Y008249D02*
X002676Y008249D01*
X002641Y008132D02*
X002409Y008132D01*
X002409Y008015D02*
X002641Y008015D01*
X002641Y007899D02*
X002409Y007899D01*
X002409Y007782D02*
X002641Y007782D01*
X002641Y007666D02*
X002409Y007666D01*
X002409Y007549D02*
X002641Y007549D01*
X002641Y007432D02*
X002409Y007432D01*
X002409Y007316D02*
X002656Y007316D01*
X002649Y007199D02*
X002409Y007199D01*
X002409Y007083D02*
X002641Y007083D01*
X002641Y006966D02*
X002409Y006966D01*
X002409Y006849D02*
X002641Y006849D01*
X002641Y006733D02*
X002409Y006733D01*
X002409Y006616D02*
X002641Y006616D01*
X002641Y006499D02*
X002409Y006499D01*
X002409Y006383D02*
X002641Y006383D01*
X002670Y006266D02*
X002409Y006266D01*
X002409Y006150D02*
X002641Y006150D01*
X002641Y006033D02*
X002409Y006033D01*
X002409Y005916D02*
X002641Y005916D01*
X002641Y005800D02*
X002409Y005800D01*
X002409Y005683D02*
X002641Y005683D01*
X002641Y005567D02*
X002497Y005567D01*
X006193Y005916D02*
X006428Y005916D01*
X006309Y006033D02*
X010563Y006033D01*
X010563Y005916D02*
X007400Y005916D01*
X007313Y005947D02*
X007313Y005947D01*
X007729Y005800D02*
X010582Y005800D01*
X010671Y005683D02*
X007947Y005683D01*
X007836Y005762D02*
X007836Y005762D01*
X008112Y005567D02*
X022680Y005567D01*
X022680Y005683D02*
X014098Y005683D01*
X014187Y005800D02*
X022680Y005800D01*
X022680Y005916D02*
X021418Y005916D01*
X021451Y005949D02*
X021490Y006043D01*
X021490Y006521D01*
X021451Y006615D01*
X021381Y006686D01*
X021381Y007530D01*
X021330Y007653D01*
X021293Y007690D01*
X021293Y007899D01*
X022680Y007899D01*
X022680Y007924D02*
X022680Y003460D01*
X022731Y003337D01*
X022825Y003243D01*
X022948Y003192D01*
X024853Y003192D01*
X024976Y003243D01*
X025070Y003337D01*
X025121Y003460D01*
X025121Y006152D01*
X025070Y006275D01*
X024976Y006369D01*
X024853Y006420D01*
X024530Y006420D01*
X024530Y006538D01*
X024853Y006538D01*
X024976Y006589D01*
X025070Y006683D01*
X025121Y006806D01*
X025121Y007924D01*
X025070Y008047D01*
X024976Y008141D01*
X024853Y008192D01*
X024806Y008192D01*
X024806Y008333D01*
X024743Y008485D01*
X024627Y008601D01*
X024019Y009209D01*
X024019Y011892D01*
X026959Y008951D01*
X027082Y008900D01*
X028517Y008900D01*
X028587Y008830D01*
X028681Y008791D01*
X029159Y008791D01*
X029253Y008830D01*
X029325Y008902D01*
X029364Y008996D01*
X029364Y009474D01*
X029325Y009568D01*
X029253Y009640D01*
X029159Y009679D01*
X028681Y009679D01*
X028587Y009640D01*
X028517Y009570D01*
X027287Y009570D01*
X024530Y012326D01*
X024530Y014223D01*
X024479Y014346D01*
X024443Y014382D01*
X024443Y014592D01*
X024404Y014686D01*
X024332Y014758D01*
X024238Y014797D01*
X023760Y014797D01*
X023666Y014758D01*
X023594Y014686D01*
X023555Y014592D01*
X023555Y014114D01*
X023594Y014020D01*
X023666Y013948D01*
X023760Y013909D01*
X023861Y013909D01*
X023861Y012910D01*
X023839Y012932D01*
X023459Y013313D01*
X023459Y013411D01*
X023420Y013505D01*
X023349Y013576D01*
X023349Y016509D01*
X023420Y016579D01*
X023459Y016673D01*
X023459Y017151D01*
X023420Y017245D01*
X023349Y017316D01*
X023349Y021370D01*
X023351Y021373D01*
X023351Y022022D01*
X023420Y022091D01*
X023459Y022185D01*
X023459Y022663D01*
X023420Y022757D01*
X023349Y022828D01*
X023349Y026098D01*
X023394Y026143D01*
X023624Y026143D01*
X023718Y026182D01*
X023790Y026254D01*
X023829Y026348D01*
X023829Y026846D01*
X023790Y026940D01*
X023718Y027012D01*
X023624Y027051D01*
X023126Y027051D01*
X023032Y027012D01*
X022960Y026940D01*
X022921Y026846D01*
X022921Y026616D01*
X022844Y026540D01*
X022844Y026846D01*
X022806Y026940D01*
X022734Y027012D01*
X022639Y027051D01*
X022142Y027051D01*
X022048Y027012D01*
X021976Y026940D01*
X021937Y026846D01*
X021937Y026348D01*
X021976Y026254D01*
X022048Y026182D01*
X022142Y026143D01*
X022639Y026143D01*
X022680Y026160D01*
X022680Y022828D01*
X022610Y022757D01*
X022571Y022663D01*
X022571Y022185D01*
X022610Y022091D01*
X022679Y022022D01*
X022679Y021373D01*
X022680Y021370D01*
X022680Y020105D01*
X022663Y020112D01*
X022185Y020112D01*
X022091Y020073D01*
X022019Y020001D01*
X021980Y019907D01*
X021980Y019429D01*
X022019Y019335D01*
X022089Y019265D01*
X022089Y017546D01*
X022073Y017553D01*
X021595Y017553D01*
X021500Y017514D01*
X021428Y017442D01*
X021390Y017348D01*
X021390Y016870D01*
X021428Y016776D01*
X021499Y016706D01*
X021499Y014757D01*
X021428Y014686D01*
X021390Y014592D01*
X021390Y014114D01*
X021428Y014020D01*
X021500Y013948D01*
X021595Y013909D01*
X022073Y013909D01*
X022089Y013916D01*
X022089Y009365D01*
X022140Y009242D01*
X022235Y009148D01*
X022964Y008418D01*
X022964Y008209D01*
X022971Y008192D01*
X022948Y008192D01*
X022825Y008141D01*
X022731Y008047D01*
X022680Y007924D01*
X022718Y008015D02*
X021232Y008015D01*
X021254Y007993D02*
X021184Y008064D01*
X021184Y008908D01*
X021133Y009031D01*
X021039Y009125D01*
X021039Y009125D01*
X020739Y009425D01*
X020645Y009519D01*
X020522Y009570D01*
X020092Y009570D01*
X019771Y009891D01*
X019306Y009891D01*
X018977Y009562D01*
X018977Y009547D01*
X018731Y009794D01*
X018573Y009794D01*
X018573Y009364D01*
X018504Y009364D01*
X018504Y009794D01*
X018346Y009794D01*
X018074Y009522D01*
X018074Y009364D01*
X018504Y009364D01*
X018504Y009295D01*
X018074Y009295D01*
X018074Y009137D01*
X018321Y008891D01*
X018306Y008891D01*
X017977Y008562D01*
X017977Y008097D01*
X018245Y007830D01*
X017977Y007562D01*
X017977Y007097D01*
X018306Y006769D01*
X018771Y006769D01*
X019038Y007036D01*
X019306Y006769D01*
X019771Y006769D01*
X020099Y007097D01*
X020099Y007562D01*
X019832Y007830D01*
X020099Y008097D01*
X020099Y008562D01*
X019832Y008830D01*
X019903Y008900D01*
X020317Y008900D01*
X020515Y008703D01*
X020515Y008064D01*
X020444Y007993D01*
X020405Y007899D01*
X019901Y007899D01*
X019879Y007782D02*
X020405Y007782D01*
X020405Y007666D02*
X019996Y007666D01*
X020099Y007549D02*
X020405Y007549D01*
X020405Y007432D02*
X020099Y007432D01*
X020099Y007316D02*
X020456Y007316D01*
X020444Y007327D02*
X020516Y007255D01*
X020610Y007216D01*
X020711Y007216D01*
X020711Y006686D01*
X020641Y006615D01*
X020602Y006521D01*
X020602Y006043D01*
X020641Y005949D01*
X020713Y005877D01*
X020807Y005838D01*
X021285Y005838D01*
X021379Y005877D01*
X021451Y005949D01*
X021486Y006033D02*
X022680Y006033D01*
X022680Y006150D02*
X021490Y006150D01*
X021490Y006266D02*
X022680Y006266D01*
X022680Y006383D02*
X021490Y006383D01*
X021490Y006499D02*
X022680Y006499D01*
X022680Y006616D02*
X021451Y006616D01*
X021381Y006733D02*
X022680Y006733D01*
X022680Y006849D02*
X021381Y006849D01*
X021381Y006966D02*
X022680Y006966D01*
X022680Y007083D02*
X021381Y007083D01*
X021381Y007199D02*
X022680Y007199D01*
X022680Y007316D02*
X021381Y007316D01*
X021381Y007432D02*
X022680Y007432D01*
X022680Y007549D02*
X021373Y007549D01*
X021317Y007666D02*
X022680Y007666D01*
X022680Y007782D02*
X021293Y007782D01*
X021293Y007899D02*
X021254Y007993D01*
X021184Y008132D02*
X022816Y008132D01*
X022964Y008249D02*
X021184Y008249D01*
X021184Y008365D02*
X022964Y008365D01*
X022901Y008482D02*
X021184Y008482D01*
X021184Y008598D02*
X022784Y008598D01*
X022668Y008715D02*
X021184Y008715D01*
X021184Y008832D02*
X022551Y008832D01*
X022435Y008948D02*
X021167Y008948D01*
X021099Y009065D02*
X022318Y009065D01*
X022201Y009182D02*
X020982Y009182D01*
X020866Y009298D02*
X022117Y009298D01*
X022089Y009415D02*
X020749Y009415D01*
X020739Y009425D02*
X020739Y009425D01*
X020615Y009531D02*
X022089Y009531D01*
X022089Y009648D02*
X020013Y009648D01*
X019897Y009765D02*
X022089Y009765D01*
X022089Y009881D02*
X019780Y009881D01*
X019296Y009881D02*
X017837Y009881D01*
X017837Y009765D02*
X018317Y009765D01*
X018200Y009648D02*
X017837Y009648D01*
X017837Y009531D02*
X018084Y009531D01*
X018074Y009415D02*
X017837Y009415D01*
X017810Y009298D02*
X018504Y009298D01*
X018504Y009415D02*
X018573Y009415D01*
X018573Y009531D02*
X018504Y009531D01*
X018504Y009648D02*
X018573Y009648D01*
X018573Y009765D02*
X018504Y009765D01*
X018760Y009765D02*
X019180Y009765D01*
X019063Y009648D02*
X018876Y009648D01*
X018449Y010231D02*
X020405Y010231D01*
X020405Y010177D02*
X020444Y010083D01*
X020516Y010011D01*
X020610Y009972D01*
X021088Y009972D01*
X021182Y010011D01*
X021254Y010083D01*
X021293Y010177D01*
X021293Y010655D01*
X021254Y010749D01*
X021184Y010820D01*
X021184Y020249D01*
X021254Y020319D01*
X021293Y020413D01*
X021293Y020891D01*
X021254Y020986D01*
X021182Y021057D01*
X021088Y021096D01*
X020610Y021096D01*
X020516Y021057D01*
X020444Y020986D01*
X020405Y020891D01*
X020405Y020413D01*
X020444Y020319D01*
X020515Y020249D01*
X020515Y010820D01*
X020444Y010749D01*
X020405Y010655D01*
X020405Y010177D01*
X020431Y010114D02*
X017837Y010114D01*
X017837Y009998D02*
X020549Y009998D01*
X020405Y010348D02*
X018526Y010348D01*
X018537Y010464D02*
X020405Y010464D01*
X020405Y010581D02*
X018537Y010581D01*
X018651Y010697D02*
X020423Y010697D01*
X020509Y010814D02*
X018768Y010814D01*
X018884Y010931D02*
X020515Y010931D01*
X020515Y011047D02*
X018981Y011047D01*
X019019Y011164D02*
X020515Y011164D01*
X020515Y011280D02*
X019019Y011280D01*
X019019Y011397D02*
X020515Y011397D01*
X020515Y011514D02*
X019019Y011514D01*
X019019Y011630D02*
X020515Y011630D01*
X020515Y011747D02*
X019019Y011747D01*
X019019Y011864D02*
X020515Y011864D01*
X020515Y011980D02*
X019019Y011980D01*
X019019Y012097D02*
X020515Y012097D01*
X020515Y012213D02*
X019019Y012213D01*
X019019Y012330D02*
X020515Y012330D01*
X020515Y012447D02*
X019019Y012447D01*
X019019Y012563D02*
X020515Y012563D01*
X020515Y012680D02*
X019019Y012680D01*
X019019Y012796D02*
X020515Y012796D01*
X020515Y012913D02*
X019019Y012913D01*
X019019Y013030D02*
X020515Y013030D01*
X020515Y013146D02*
X019019Y013146D01*
X019019Y013263D02*
X020515Y013263D01*
X020515Y013379D02*
X019019Y013379D01*
X019019Y013496D02*
X020515Y013496D01*
X020515Y013613D02*
X019019Y013613D01*
X019019Y013729D02*
X020515Y013729D01*
X020515Y013846D02*
X019019Y013846D01*
X019019Y013963D02*
X020515Y013963D01*
X020515Y014079D02*
X019019Y014079D01*
X019019Y014196D02*
X020515Y014196D01*
X020515Y014312D02*
X019019Y014312D01*
X019019Y014429D02*
X020515Y014429D01*
X020515Y014546D02*
X019019Y014546D01*
X019019Y014662D02*
X020515Y014662D01*
X020515Y014779D02*
X019019Y014779D01*
X019019Y014895D02*
X020515Y014895D01*
X020515Y015012D02*
X019019Y015012D01*
X019019Y015129D02*
X020515Y015129D01*
X020515Y015245D02*
X019019Y015245D01*
X019019Y015362D02*
X020515Y015362D01*
X020515Y015478D02*
X019019Y015478D01*
X019019Y015595D02*
X020515Y015595D01*
X020515Y015712D02*
X019019Y015712D01*
X019019Y015828D02*
X020515Y015828D01*
X020515Y015945D02*
X019045Y015945D01*
X019119Y016062D02*
X020515Y016062D01*
X020515Y016178D02*
X019128Y016178D01*
X019128Y016295D02*
X020515Y016295D01*
X020515Y016411D02*
X019128Y016411D01*
X019128Y016528D02*
X020515Y016528D01*
X020515Y016645D02*
X019093Y016645D01*
X018934Y016761D02*
X020515Y016761D01*
X020515Y016878D02*
X018428Y016878D01*
X018428Y016994D02*
X020515Y016994D01*
X020515Y017111D02*
X018428Y017111D01*
X018428Y017228D02*
X020515Y017228D01*
X020515Y017344D02*
X018428Y017344D01*
X018428Y017461D02*
X020515Y017461D01*
X020515Y017577D02*
X018428Y017577D01*
X018428Y017694D02*
X020515Y017694D01*
X020515Y017811D02*
X018428Y017811D01*
X018428Y017927D02*
X020515Y017927D01*
X020515Y018044D02*
X018428Y018044D01*
X018428Y018161D02*
X020515Y018161D01*
X020515Y018277D02*
X018428Y018277D01*
X018428Y018394D02*
X020515Y018394D01*
X020515Y018510D02*
X018428Y018510D01*
X018428Y018627D02*
X020515Y018627D01*
X020515Y018744D02*
X018428Y018744D01*
X018428Y018860D02*
X020515Y018860D01*
X020515Y018977D02*
X018428Y018977D01*
X018428Y019093D02*
X020515Y019093D01*
X020515Y019210D02*
X018428Y019210D01*
X018428Y019327D02*
X020515Y019327D01*
X020515Y019443D02*
X018428Y019443D01*
X018428Y019560D02*
X020515Y019560D01*
X020515Y019676D02*
X018428Y019676D01*
X018428Y019793D02*
X020515Y019793D01*
X020515Y019910D02*
X018428Y019910D01*
X018428Y020026D02*
X020515Y020026D01*
X020515Y020143D02*
X018428Y020143D01*
X018428Y020259D02*
X020504Y020259D01*
X020421Y020376D02*
X018428Y020376D01*
X018428Y020493D02*
X020405Y020493D01*
X020405Y020609D02*
X018428Y020609D01*
X018428Y020726D02*
X020405Y020726D01*
X020405Y020843D02*
X018428Y020843D01*
X018428Y020959D02*
X020433Y020959D01*
X020560Y021076D02*
X018428Y021076D01*
X018428Y021192D02*
X022680Y021192D01*
X022680Y021076D02*
X021138Y021076D01*
X021265Y020959D02*
X022680Y020959D01*
X022680Y020843D02*
X021293Y020843D01*
X021293Y020726D02*
X022680Y020726D01*
X022680Y020609D02*
X021293Y020609D01*
X021293Y020493D02*
X022680Y020493D01*
X022680Y020376D02*
X021278Y020376D01*
X021194Y020259D02*
X022680Y020259D01*
X022680Y020143D02*
X021184Y020143D01*
X021184Y020026D02*
X022044Y020026D01*
X021981Y019910D02*
X021184Y019910D01*
X021184Y019793D02*
X021980Y019793D01*
X021980Y019676D02*
X021184Y019676D01*
X021184Y019560D02*
X021980Y019560D01*
X021980Y019443D02*
X021184Y019443D01*
X021184Y019327D02*
X022028Y019327D01*
X022089Y019210D02*
X021184Y019210D01*
X021184Y019093D02*
X022089Y019093D01*
X022089Y018977D02*
X021184Y018977D01*
X021184Y018860D02*
X022089Y018860D01*
X022089Y018744D02*
X021184Y018744D01*
X021184Y018627D02*
X022089Y018627D01*
X022089Y018510D02*
X021184Y018510D01*
X021184Y018394D02*
X022089Y018394D01*
X022089Y018277D02*
X021184Y018277D01*
X021184Y018161D02*
X022089Y018161D01*
X022089Y018044D02*
X021184Y018044D01*
X021184Y017927D02*
X022089Y017927D01*
X022089Y017811D02*
X021184Y017811D01*
X021184Y017694D02*
X022089Y017694D01*
X022089Y017577D02*
X021184Y017577D01*
X021184Y017461D02*
X021447Y017461D01*
X021390Y017344D02*
X021184Y017344D01*
X021184Y017228D02*
X021390Y017228D01*
X021390Y017111D02*
X021184Y017111D01*
X021184Y016994D02*
X021390Y016994D01*
X021390Y016878D02*
X021184Y016878D01*
X021184Y016761D02*
X021443Y016761D01*
X021499Y016645D02*
X021184Y016645D01*
X021184Y016528D02*
X021499Y016528D01*
X021499Y016411D02*
X021184Y016411D01*
X021184Y016295D02*
X021499Y016295D01*
X021499Y016178D02*
X021184Y016178D01*
X021184Y016062D02*
X021499Y016062D01*
X021499Y015945D02*
X021184Y015945D01*
X021184Y015828D02*
X021499Y015828D01*
X021499Y015712D02*
X021184Y015712D01*
X021184Y015595D02*
X021499Y015595D01*
X021499Y015478D02*
X021184Y015478D01*
X021184Y015362D02*
X021499Y015362D01*
X021499Y015245D02*
X021184Y015245D01*
X021184Y015129D02*
X021499Y015129D01*
X021499Y015012D02*
X021184Y015012D01*
X021184Y014895D02*
X021499Y014895D01*
X021499Y014779D02*
X021184Y014779D01*
X021184Y014662D02*
X021419Y014662D01*
X021390Y014546D02*
X021184Y014546D01*
X021184Y014429D02*
X021390Y014429D01*
X021390Y014312D02*
X021184Y014312D01*
X021184Y014196D02*
X021390Y014196D01*
X021404Y014079D02*
X021184Y014079D01*
X021184Y013963D02*
X021486Y013963D01*
X021184Y013846D02*
X022089Y013846D01*
X022089Y013729D02*
X021184Y013729D01*
X021184Y013613D02*
X022089Y013613D01*
X022089Y013496D02*
X021184Y013496D01*
X021184Y013379D02*
X022089Y013379D01*
X022089Y013263D02*
X021184Y013263D01*
X021184Y013146D02*
X022089Y013146D01*
X022089Y013030D02*
X021184Y013030D01*
X021184Y012913D02*
X022089Y012913D01*
X022089Y012796D02*
X021184Y012796D01*
X021184Y012680D02*
X022089Y012680D01*
X022089Y012563D02*
X021184Y012563D01*
X021184Y012447D02*
X022089Y012447D01*
X022089Y012330D02*
X021184Y012330D01*
X021184Y012213D02*
X022089Y012213D01*
X022089Y012097D02*
X021184Y012097D01*
X021184Y011980D02*
X022089Y011980D01*
X022089Y011864D02*
X021184Y011864D01*
X021184Y011747D02*
X022089Y011747D01*
X022089Y011630D02*
X021184Y011630D01*
X021184Y011514D02*
X022089Y011514D01*
X022089Y011397D02*
X021184Y011397D01*
X021184Y011280D02*
X022089Y011280D01*
X022089Y011164D02*
X021184Y011164D01*
X021184Y011047D02*
X022089Y011047D01*
X022089Y010931D02*
X021184Y010931D01*
X021190Y010814D02*
X022089Y010814D01*
X022089Y010697D02*
X021276Y010697D01*
X021293Y010581D02*
X022089Y010581D01*
X022089Y010464D02*
X021293Y010464D01*
X021293Y010348D02*
X022089Y010348D01*
X022089Y010231D02*
X021293Y010231D01*
X021267Y010114D02*
X022089Y010114D01*
X022089Y009998D02*
X021150Y009998D01*
X020386Y008832D02*
X019834Y008832D01*
X019946Y008715D02*
X020502Y008715D01*
X020515Y008598D02*
X020063Y008598D01*
X020099Y008482D02*
X020515Y008482D01*
X020515Y008365D02*
X020099Y008365D01*
X020099Y008249D02*
X020515Y008249D01*
X020515Y008132D02*
X020099Y008132D01*
X020017Y008015D02*
X020466Y008015D01*
X020405Y007899D02*
X020405Y007421D01*
X020444Y007327D01*
X020711Y007199D02*
X020099Y007199D01*
X020085Y007083D02*
X020711Y007083D01*
X020711Y006966D02*
X019968Y006966D01*
X019851Y006849D02*
X020711Y006849D01*
X020711Y006733D02*
X015277Y006733D01*
X015393Y006849D02*
X018225Y006849D01*
X018109Y006966D02*
X015510Y006966D01*
X015627Y007083D02*
X017992Y007083D01*
X017977Y007199D02*
X015743Y007199D01*
X015860Y007316D02*
X017977Y007316D01*
X017977Y007432D02*
X015976Y007432D01*
X016093Y007549D02*
X017977Y007549D01*
X018081Y007666D02*
X016210Y007666D01*
X016326Y007782D02*
X018197Y007782D01*
X018176Y007899D02*
X016443Y007899D01*
X016560Y008015D02*
X018059Y008015D01*
X017977Y008132D02*
X016676Y008132D01*
X016793Y008249D02*
X017977Y008249D01*
X017977Y008365D02*
X016909Y008365D01*
X017026Y008482D02*
X017977Y008482D01*
X018014Y008598D02*
X017143Y008598D01*
X017259Y008715D02*
X018130Y008715D01*
X018247Y008832D02*
X017376Y008832D01*
X017492Y008948D02*
X018263Y008948D01*
X018147Y009065D02*
X017609Y009065D01*
X017726Y009182D02*
X018074Y009182D01*
X018968Y006966D02*
X019109Y006966D01*
X019225Y006849D02*
X018851Y006849D01*
X020602Y006499D02*
X015044Y006499D01*
X015160Y006616D02*
X020642Y006616D01*
X020602Y006383D02*
X014914Y006383D01*
X014207Y006266D02*
X020602Y006266D01*
X020602Y006150D02*
X014207Y006150D01*
X014207Y006033D02*
X020606Y006033D01*
X020674Y005916D02*
X014207Y005916D01*
X013427Y005683D02*
X011343Y005683D01*
X010563Y006150D02*
X006426Y006150D01*
X006543Y006266D02*
X010563Y006266D01*
X008640Y005011D02*
X008640Y005011D01*
X008652Y004984D02*
X022680Y004984D01*
X022680Y005100D02*
X008567Y005100D01*
X008473Y005217D02*
X022680Y005217D01*
X022680Y005333D02*
X008378Y005333D01*
X008278Y005450D02*
X022680Y005450D01*
X022680Y004867D02*
X008703Y004867D01*
X008753Y004750D02*
X022680Y004750D01*
X022680Y004634D02*
X008804Y004634D01*
X008855Y004517D02*
X022680Y004517D01*
X022680Y004400D02*
X008875Y004400D01*
X008861Y004502D02*
X008861Y004502D01*
X008891Y004284D02*
X022680Y004284D01*
X022680Y004167D02*
X008907Y004167D01*
X008923Y004051D02*
X022680Y004051D01*
X022680Y003934D02*
X008934Y003934D01*
X008918Y003817D02*
X022680Y003817D01*
X022680Y003701D02*
X008902Y003701D01*
X008886Y003584D02*
X022680Y003584D01*
X022680Y003468D02*
X008870Y003468D01*
X008861Y003402D02*
X008861Y003402D01*
X008839Y003351D02*
X022725Y003351D01*
X022845Y003234D02*
X008789Y003234D01*
X008738Y003118D02*
X034430Y003118D01*
X034397Y003234D02*
X024956Y003234D01*
X025076Y003351D02*
X034379Y003351D01*
X034379Y003468D02*
X025121Y003468D01*
X025121Y003584D02*
X034379Y003584D01*
X034379Y003701D02*
X025121Y003701D01*
X025121Y003817D02*
X034379Y003817D01*
X034401Y003934D02*
X025121Y003934D01*
X025121Y004051D02*
X029735Y004051D01*
X029646Y004167D02*
X025121Y004167D01*
X025121Y004284D02*
X029627Y004284D01*
X029627Y004400D02*
X025121Y004400D01*
X025121Y004517D02*
X029627Y004517D01*
X029627Y004634D02*
X025121Y004634D01*
X025121Y004750D02*
X029627Y004750D01*
X029627Y004867D02*
X025121Y004867D01*
X025121Y004984D02*
X029634Y004984D01*
X029707Y005100D02*
X025121Y005100D01*
X025121Y005217D02*
X031735Y005217D01*
X031735Y005333D02*
X025121Y005333D01*
X025121Y005450D02*
X031735Y005450D01*
X031735Y005567D02*
X025121Y005567D01*
X025121Y005683D02*
X031735Y005683D01*
X031735Y005800D02*
X025121Y005800D01*
X025121Y005916D02*
X031735Y005916D01*
X031735Y006033D02*
X025121Y006033D01*
X025121Y006150D02*
X031735Y006150D01*
X031735Y006266D02*
X025074Y006266D01*
X024943Y006383D02*
X031735Y006383D01*
X031735Y006499D02*
X024530Y006499D01*
X025003Y006616D02*
X031735Y006616D01*
X031735Y006733D02*
X025090Y006733D01*
X025121Y006849D02*
X031735Y006849D01*
X031735Y006966D02*
X025121Y006966D01*
X025121Y007083D02*
X031735Y007083D01*
X031735Y007199D02*
X025121Y007199D01*
X025121Y007316D02*
X031735Y007316D01*
X031735Y007432D02*
X025121Y007432D01*
X025121Y007549D02*
X031735Y007549D01*
X031735Y007666D02*
X025121Y007666D01*
X025121Y007782D02*
X031735Y007782D01*
X031735Y007899D02*
X025121Y007899D01*
X025083Y008015D02*
X031735Y008015D01*
X031735Y008132D02*
X024985Y008132D01*
X024806Y008249D02*
X031735Y008249D01*
X031735Y008365D02*
X024793Y008365D01*
X024744Y008482D02*
X031735Y008482D01*
X031735Y008598D02*
X024630Y008598D01*
X024513Y008715D02*
X031735Y008715D01*
X031735Y008832D02*
X029255Y008832D01*
X029344Y008948D02*
X031735Y008948D01*
X031735Y009065D02*
X029364Y009065D01*
X029364Y009182D02*
X031735Y009182D01*
X031735Y009298D02*
X029364Y009298D01*
X029364Y009415D02*
X031735Y009415D01*
X031735Y009531D02*
X029340Y009531D01*
X029234Y009648D02*
X031735Y009648D01*
X031735Y009765D02*
X027092Y009765D01*
X026976Y009881D02*
X031735Y009881D01*
X031735Y009998D02*
X026859Y009998D01*
X026742Y010114D02*
X031735Y010114D01*
X031735Y010231D02*
X026626Y010231D01*
X026509Y010348D02*
X031735Y010348D01*
X031735Y010464D02*
X026393Y010464D01*
X026276Y010581D02*
X029819Y010581D01*
X029862Y010563D02*
X030340Y010563D01*
X030434Y010602D01*
X030506Y010674D01*
X030545Y010768D01*
X030545Y011153D01*
X030931Y011153D01*
X031025Y011192D01*
X031097Y011264D01*
X031136Y011358D01*
X031136Y011836D01*
X031097Y011930D01*
X031026Y012001D01*
X031026Y015721D01*
X031097Y015792D01*
X031136Y015886D01*
X031136Y016364D01*
X031097Y016458D01*
X031025Y016530D01*
X030931Y016569D01*
X030453Y016569D01*
X030436Y016562D01*
X030436Y023202D01*
X030506Y023272D01*
X030545Y023366D01*
X030545Y023844D01*
X030506Y023938D01*
X030434Y024010D01*
X030340Y024049D01*
X029862Y024049D01*
X029768Y024010D01*
X029696Y023938D01*
X029657Y023844D01*
X029657Y023366D01*
X029696Y023272D01*
X029767Y023202D01*
X029767Y018530D01*
X029750Y018537D01*
X029272Y018537D01*
X029178Y018498D01*
X029106Y018426D01*
X029067Y018332D01*
X029067Y017854D01*
X029106Y017760D01*
X029176Y017690D01*
X029176Y012001D01*
X029106Y011930D01*
X029067Y011836D01*
X029067Y011358D01*
X029106Y011264D01*
X029178Y011192D01*
X029272Y011153D01*
X029657Y011153D01*
X029657Y010768D01*
X029696Y010674D01*
X029768Y010602D01*
X029862Y010563D01*
X029686Y010697D02*
X026159Y010697D01*
X026043Y010814D02*
X029657Y010814D01*
X029657Y010931D02*
X025926Y010931D01*
X025810Y011047D02*
X029657Y011047D01*
X029246Y011164D02*
X025693Y011164D01*
X025576Y011280D02*
X029099Y011280D01*
X029067Y011397D02*
X025460Y011397D01*
X025343Y011514D02*
X029067Y011514D01*
X029067Y011630D02*
X025227Y011630D01*
X025110Y011747D02*
X029067Y011747D01*
X029078Y011864D02*
X024993Y011864D01*
X024877Y011980D02*
X029155Y011980D01*
X029176Y012097D02*
X024760Y012097D01*
X024644Y012213D02*
X029176Y012213D01*
X029176Y012330D02*
X024530Y012330D01*
X024530Y012447D02*
X029176Y012447D01*
X029176Y012563D02*
X024530Y012563D01*
X024530Y012680D02*
X029176Y012680D01*
X029176Y012796D02*
X024530Y012796D01*
X024530Y012913D02*
X029176Y012913D01*
X029176Y013030D02*
X024530Y013030D01*
X024530Y013146D02*
X029176Y013146D01*
X029176Y013263D02*
X024530Y013263D01*
X024530Y013379D02*
X029176Y013379D01*
X029176Y013496D02*
X024530Y013496D01*
X024530Y013613D02*
X029176Y013613D01*
X029176Y013729D02*
X024530Y013729D01*
X024530Y013846D02*
X029176Y013846D01*
X029176Y013963D02*
X024530Y013963D01*
X024530Y014079D02*
X029176Y014079D01*
X029176Y014196D02*
X024530Y014196D01*
X024493Y014312D02*
X029176Y014312D01*
X029176Y014429D02*
X024443Y014429D01*
X024443Y014546D02*
X029176Y014546D01*
X029176Y014662D02*
X024414Y014662D01*
X024282Y014779D02*
X029176Y014779D01*
X029176Y014895D02*
X023349Y014895D01*
X023349Y014779D02*
X023715Y014779D01*
X023584Y014662D02*
X023349Y014662D01*
X023349Y014546D02*
X023555Y014546D01*
X023555Y014429D02*
X023349Y014429D01*
X023349Y014312D02*
X023555Y014312D01*
X023555Y014196D02*
X023349Y014196D01*
X023349Y014079D02*
X023569Y014079D01*
X023651Y013963D02*
X023349Y013963D01*
X023349Y013846D02*
X023861Y013846D01*
X023861Y013729D02*
X023349Y013729D01*
X023349Y013613D02*
X023861Y013613D01*
X023861Y013496D02*
X023423Y013496D01*
X023459Y013379D02*
X023861Y013379D01*
X023861Y013263D02*
X023509Y013263D01*
X023625Y013146D02*
X023861Y013146D01*
X023861Y013030D02*
X023742Y013030D01*
X023858Y012913D02*
X023861Y012913D01*
X024019Y011864D02*
X024047Y011864D01*
X024019Y011747D02*
X024163Y011747D01*
X024280Y011630D02*
X024019Y011630D01*
X024019Y011514D02*
X024397Y011514D01*
X024513Y011397D02*
X024019Y011397D01*
X024019Y011280D02*
X024630Y011280D01*
X024746Y011164D02*
X024019Y011164D01*
X024019Y011047D02*
X024863Y011047D01*
X024980Y010931D02*
X024019Y010931D01*
X024019Y010814D02*
X025096Y010814D01*
X025213Y010697D02*
X024019Y010697D01*
X024019Y010581D02*
X025330Y010581D01*
X025446Y010464D02*
X024019Y010464D01*
X024019Y010348D02*
X025563Y010348D01*
X025679Y010231D02*
X024019Y010231D01*
X024019Y010114D02*
X025796Y010114D01*
X025913Y009998D02*
X024019Y009998D01*
X024019Y009881D02*
X026029Y009881D01*
X026146Y009765D02*
X024019Y009765D01*
X024019Y009648D02*
X026262Y009648D01*
X026379Y009531D02*
X024019Y009531D01*
X024019Y009415D02*
X026496Y009415D01*
X026612Y009298D02*
X024019Y009298D01*
X024047Y009182D02*
X026729Y009182D01*
X026845Y009065D02*
X024163Y009065D01*
X024280Y008948D02*
X026967Y008948D01*
X027209Y009648D02*
X028606Y009648D01*
X028585Y008832D02*
X024396Y008832D01*
X030384Y010581D02*
X031735Y010581D01*
X031735Y010697D02*
X030516Y010697D01*
X030545Y010814D02*
X031735Y010814D01*
X031735Y010931D02*
X030545Y010931D01*
X030545Y011047D02*
X031735Y011047D01*
X031735Y011164D02*
X030956Y011164D01*
X031104Y011280D02*
X031735Y011280D01*
X031735Y011397D02*
X031136Y011397D01*
X031136Y011514D02*
X031735Y011514D01*
X031735Y011630D02*
X031136Y011630D01*
X031136Y011747D02*
X031735Y011747D01*
X031735Y011864D02*
X031125Y011864D01*
X031047Y011980D02*
X031735Y011980D01*
X031735Y012097D02*
X031026Y012097D01*
X031026Y012213D02*
X031735Y012213D01*
X031735Y012330D02*
X031026Y012330D01*
X031026Y012447D02*
X031735Y012447D01*
X031163Y012563D02*
X031026Y012563D01*
X031026Y012680D02*
X031059Y012680D01*
X031035Y012796D02*
X031026Y012796D01*
X031026Y012913D02*
X031035Y012913D01*
X031026Y013030D02*
X031035Y013030D01*
X031026Y013146D02*
X031035Y013146D01*
X031026Y013263D02*
X031055Y013263D01*
X031026Y013379D02*
X031145Y013379D01*
X031145Y013496D02*
X031026Y013496D01*
X031026Y013613D02*
X031145Y013613D01*
X031145Y013729D02*
X031026Y013729D01*
X031026Y013846D02*
X031145Y013846D01*
X031145Y013963D02*
X031026Y013963D01*
X031026Y014079D02*
X031145Y014079D01*
X031145Y014196D02*
X031026Y014196D01*
X031026Y014312D02*
X031145Y014312D01*
X031145Y014429D02*
X031026Y014429D01*
X031026Y014546D02*
X031145Y014546D01*
X031145Y014662D02*
X031026Y014662D01*
X031026Y014779D02*
X031145Y014779D01*
X031145Y014895D02*
X031026Y014895D01*
X031026Y015012D02*
X031145Y015012D01*
X031145Y015129D02*
X031026Y015129D01*
X031026Y015245D02*
X031145Y015245D01*
X031145Y015362D02*
X031026Y015362D01*
X031026Y015478D02*
X031145Y015478D01*
X031145Y015595D02*
X031026Y015595D01*
X031026Y015712D02*
X031145Y015712D01*
X031145Y015828D02*
X031112Y015828D01*
X031136Y015945D02*
X031145Y015945D01*
X031136Y016062D02*
X031145Y016062D01*
X031136Y016178D02*
X031145Y016178D01*
X031136Y016295D02*
X031145Y016295D01*
X031145Y016411D02*
X031116Y016411D01*
X031145Y016528D02*
X031027Y016528D01*
X031145Y016645D02*
X030436Y016645D01*
X030436Y016761D02*
X031145Y016761D01*
X031145Y016878D02*
X030436Y016878D01*
X030436Y016994D02*
X031145Y016994D01*
X031145Y017111D02*
X030436Y017111D01*
X030436Y017228D02*
X031145Y017228D01*
X031145Y017344D02*
X030436Y017344D01*
X030436Y017461D02*
X031145Y017461D01*
X031145Y017577D02*
X030436Y017577D01*
X030436Y017694D02*
X031145Y017694D01*
X031145Y017811D02*
X030436Y017811D01*
X030436Y017927D02*
X031145Y017927D01*
X031145Y018044D02*
X030436Y018044D01*
X030436Y018161D02*
X031145Y018161D01*
X031145Y018277D02*
X030436Y018277D01*
X030436Y018394D02*
X031145Y018394D01*
X031145Y018510D02*
X030436Y018510D01*
X030436Y018627D02*
X031145Y018627D01*
X031145Y018744D02*
X030436Y018744D01*
X030436Y018860D02*
X031145Y018860D01*
X031145Y018977D02*
X030436Y018977D01*
X030436Y019093D02*
X031145Y019093D01*
X031145Y019210D02*
X030436Y019210D01*
X030436Y019327D02*
X031145Y019327D01*
X031145Y019443D02*
X030436Y019443D01*
X030436Y019560D02*
X031145Y019560D01*
X031145Y019676D02*
X030436Y019676D01*
X030436Y019793D02*
X031145Y019793D01*
X031145Y019910D02*
X030436Y019910D01*
X030436Y020026D02*
X031145Y020026D01*
X031145Y020143D02*
X030436Y020143D01*
X030436Y020259D02*
X031145Y020259D01*
X031145Y020376D02*
X030436Y020376D01*
X030436Y020493D02*
X031145Y020493D01*
X031145Y020609D02*
X030436Y020609D01*
X030436Y020726D02*
X031145Y020726D01*
X031145Y020843D02*
X030436Y020843D01*
X030436Y020959D02*
X031145Y020959D01*
X031145Y021076D02*
X030436Y021076D01*
X030436Y021192D02*
X031145Y021192D01*
X031145Y021309D02*
X030436Y021309D01*
X030436Y021426D02*
X031145Y021426D01*
X031145Y021542D02*
X030436Y021542D01*
X030436Y021659D02*
X031145Y021659D01*
X031145Y021775D02*
X030436Y021775D01*
X030436Y021892D02*
X031145Y021892D01*
X031145Y022009D02*
X030436Y022009D01*
X030436Y022125D02*
X031145Y022125D01*
X031145Y022242D02*
X030436Y022242D01*
X030436Y022358D02*
X031145Y022358D01*
X031145Y022475D02*
X030436Y022475D01*
X030436Y022592D02*
X031145Y022592D01*
X031145Y022708D02*
X030436Y022708D01*
X030436Y022825D02*
X031145Y022825D01*
X031145Y022942D02*
X030436Y022942D01*
X030436Y023058D02*
X031145Y023058D01*
X031145Y023175D02*
X030436Y023175D01*
X030514Y023291D02*
X031145Y023291D01*
X031145Y023408D02*
X030545Y023408D01*
X030545Y023525D02*
X031145Y023525D01*
X031145Y023641D02*
X030545Y023641D01*
X030545Y023758D02*
X031145Y023758D01*
X031145Y023874D02*
X030533Y023874D01*
X030454Y023991D02*
X031145Y023991D01*
X031145Y024108D02*
X027365Y024108D01*
X027365Y024224D02*
X031145Y024224D01*
X031145Y024341D02*
X027365Y024341D01*
X027365Y024457D02*
X031145Y024457D01*
X031145Y024574D02*
X027365Y024574D01*
X027365Y024691D02*
X031145Y024691D01*
X031145Y024807D02*
X027365Y024807D01*
X027365Y024924D02*
X031145Y024924D01*
X031145Y025041D02*
X027365Y025041D01*
X027365Y025157D02*
X031145Y025157D01*
X031145Y025274D02*
X027365Y025274D01*
X027365Y025390D02*
X031145Y025390D01*
X031145Y025507D02*
X027365Y025507D01*
X027365Y025624D02*
X031145Y025624D01*
X031145Y025740D02*
X027365Y025740D01*
X027365Y025857D02*
X031145Y025857D01*
X031145Y025973D02*
X027365Y025973D01*
X027365Y026090D02*
X031145Y026090D01*
X031145Y026207D02*
X027365Y026207D01*
X027365Y026245D02*
X027396Y026319D01*
X027396Y026797D01*
X027357Y026891D01*
X027285Y026963D01*
X027191Y027002D01*
X026713Y027002D01*
X026619Y026963D01*
X026547Y026891D01*
X026508Y026797D01*
X026508Y026319D01*
X026538Y026245D01*
X026538Y021753D01*
X026508Y021679D01*
X026508Y021201D01*
X026547Y021107D01*
X026619Y021035D01*
X026713Y020996D01*
X027191Y020996D01*
X027285Y021035D01*
X027357Y021107D01*
X027396Y021201D01*
X027396Y021679D01*
X027365Y021753D01*
X027365Y026245D01*
X027396Y026323D02*
X031145Y026323D01*
X031145Y026440D02*
X027396Y026440D01*
X027396Y026556D02*
X031145Y026556D01*
X031079Y026673D02*
X027396Y026673D01*
X027396Y026790D02*
X030962Y026790D01*
X030846Y026906D02*
X027341Y026906D01*
X026562Y026906D02*
X023804Y026906D01*
X023829Y026790D02*
X026508Y026790D01*
X026508Y026673D02*
X023829Y026673D01*
X023829Y026556D02*
X026508Y026556D01*
X026508Y026440D02*
X023829Y026440D01*
X023819Y026323D02*
X026508Y026323D01*
X026538Y026207D02*
X023743Y026207D01*
X023349Y026090D02*
X026538Y026090D01*
X026538Y025973D02*
X023349Y025973D01*
X023349Y025857D02*
X026538Y025857D01*
X026538Y025740D02*
X023349Y025740D01*
X023349Y025624D02*
X026538Y025624D01*
X026538Y025507D02*
X023349Y025507D01*
X023349Y025390D02*
X026538Y025390D01*
X026538Y025274D02*
X023349Y025274D01*
X023349Y025157D02*
X026538Y025157D01*
X026538Y025041D02*
X023349Y025041D01*
X023349Y024924D02*
X026538Y024924D01*
X026538Y024807D02*
X023349Y024807D01*
X023349Y024691D02*
X026538Y024691D01*
X026538Y024574D02*
X023349Y024574D01*
X023349Y024457D02*
X026538Y024457D01*
X026538Y024341D02*
X023349Y024341D01*
X023349Y024224D02*
X026538Y024224D01*
X026538Y024108D02*
X023349Y024108D01*
X023349Y023991D02*
X026538Y023991D01*
X026538Y023874D02*
X023349Y023874D01*
X023349Y023758D02*
X026538Y023758D01*
X026538Y023641D02*
X023349Y023641D01*
X023349Y023525D02*
X026538Y023525D01*
X026538Y023408D02*
X023349Y023408D01*
X023349Y023291D02*
X026538Y023291D01*
X026538Y023175D02*
X023349Y023175D01*
X023349Y023058D02*
X026538Y023058D01*
X026538Y022942D02*
X023349Y022942D01*
X023352Y022825D02*
X026538Y022825D01*
X026538Y022708D02*
X023440Y022708D01*
X023459Y022592D02*
X026538Y022592D01*
X026538Y022475D02*
X023459Y022475D01*
X023459Y022358D02*
X026538Y022358D01*
X026538Y022242D02*
X023459Y022242D01*
X023434Y022125D02*
X026538Y022125D01*
X026538Y022009D02*
X023351Y022009D01*
X023351Y021892D02*
X026538Y021892D01*
X026538Y021775D02*
X023351Y021775D01*
X023351Y021659D02*
X026508Y021659D01*
X026508Y021542D02*
X023351Y021542D01*
X023351Y021426D02*
X026508Y021426D01*
X026508Y021309D02*
X023349Y021309D01*
X023349Y021192D02*
X026511Y021192D01*
X026578Y021076D02*
X023349Y021076D01*
X023349Y020959D02*
X029767Y020959D01*
X029767Y020843D02*
X023349Y020843D01*
X023349Y020726D02*
X029767Y020726D01*
X029767Y020609D02*
X023349Y020609D01*
X023349Y020493D02*
X029767Y020493D01*
X029767Y020376D02*
X023349Y020376D01*
X023349Y020259D02*
X029767Y020259D01*
X029767Y020143D02*
X023349Y020143D01*
X023349Y020026D02*
X029767Y020026D01*
X029767Y019910D02*
X023349Y019910D01*
X023349Y019793D02*
X029767Y019793D01*
X029767Y019676D02*
X023349Y019676D01*
X023349Y019560D02*
X029767Y019560D01*
X029767Y019443D02*
X023349Y019443D01*
X023349Y019327D02*
X029767Y019327D01*
X029767Y019210D02*
X023349Y019210D01*
X023349Y019093D02*
X029767Y019093D01*
X029767Y018977D02*
X023349Y018977D01*
X023349Y018860D02*
X029767Y018860D01*
X029767Y018744D02*
X023349Y018744D01*
X023349Y018627D02*
X029767Y018627D01*
X029206Y018510D02*
X027847Y018510D01*
X027875Y018498D02*
X027781Y018537D01*
X027303Y018537D01*
X027209Y018498D01*
X027139Y018428D01*
X026765Y018428D01*
X026694Y018498D01*
X026600Y018537D01*
X026122Y018537D01*
X026028Y018498D01*
X025956Y018426D01*
X025917Y018332D01*
X025917Y017854D01*
X025956Y017760D01*
X026028Y017688D01*
X026122Y017649D01*
X026600Y017649D01*
X026694Y017688D01*
X026765Y017759D01*
X027139Y017759D01*
X027209Y017688D01*
X027303Y017649D01*
X027781Y017649D01*
X027875Y017688D01*
X027947Y017760D01*
X027986Y017854D01*
X027986Y018332D01*
X027947Y018426D01*
X027875Y018498D01*
X027961Y018394D02*
X029092Y018394D01*
X029067Y018277D02*
X027986Y018277D01*
X027986Y018161D02*
X029067Y018161D01*
X029067Y018044D02*
X027986Y018044D01*
X027986Y017927D02*
X029067Y017927D01*
X029085Y017811D02*
X027968Y017811D01*
X027881Y017694D02*
X029172Y017694D01*
X029176Y017577D02*
X023349Y017577D01*
X023349Y017461D02*
X029176Y017461D01*
X029176Y017344D02*
X023349Y017344D01*
X023427Y017228D02*
X029176Y017228D01*
X029176Y017111D02*
X023459Y017111D01*
X023459Y016994D02*
X029176Y016994D01*
X029176Y016878D02*
X023459Y016878D01*
X023459Y016761D02*
X029176Y016761D01*
X029176Y016645D02*
X023447Y016645D01*
X023368Y016528D02*
X029176Y016528D01*
X029176Y016411D02*
X023349Y016411D01*
X023349Y016295D02*
X029176Y016295D01*
X029176Y016178D02*
X023349Y016178D01*
X023349Y016062D02*
X029176Y016062D01*
X029176Y015945D02*
X023349Y015945D01*
X023349Y015828D02*
X029176Y015828D01*
X029176Y015712D02*
X023349Y015712D01*
X023349Y015595D02*
X029176Y015595D01*
X029176Y015478D02*
X023349Y015478D01*
X023349Y015362D02*
X029176Y015362D01*
X029176Y015245D02*
X023349Y015245D01*
X023349Y015129D02*
X029176Y015129D01*
X029176Y015012D02*
X023349Y015012D01*
X023349Y017694D02*
X026022Y017694D01*
X025935Y017811D02*
X023349Y017811D01*
X023349Y017927D02*
X025917Y017927D01*
X025917Y018044D02*
X023349Y018044D01*
X023349Y018161D02*
X025917Y018161D01*
X025917Y018277D02*
X023349Y018277D01*
X023349Y018394D02*
X025942Y018394D01*
X026057Y018510D02*
X023349Y018510D01*
X022680Y021309D02*
X018428Y021309D01*
X018428Y021426D02*
X022679Y021426D01*
X022679Y021542D02*
X018428Y021542D01*
X018428Y021659D02*
X022679Y021659D01*
X022679Y021775D02*
X018428Y021775D01*
X018428Y021892D02*
X022679Y021892D01*
X022679Y022009D02*
X018428Y022009D01*
X018428Y022125D02*
X022595Y022125D01*
X022571Y022242D02*
X018428Y022242D01*
X018428Y022358D02*
X022571Y022358D01*
X022571Y022475D02*
X018428Y022475D01*
X018428Y022592D02*
X022571Y022592D01*
X022589Y022708D02*
X018428Y022708D01*
X018428Y022825D02*
X022677Y022825D01*
X022680Y022942D02*
X018428Y022942D01*
X018428Y023058D02*
X022680Y023058D01*
X022680Y023175D02*
X018428Y023175D01*
X018428Y023291D02*
X022680Y023291D01*
X022680Y023408D02*
X018428Y023408D01*
X018428Y023525D02*
X022680Y023525D01*
X022680Y023641D02*
X018428Y023641D01*
X018428Y023758D02*
X022680Y023758D01*
X022680Y023874D02*
X018428Y023874D01*
X018428Y023991D02*
X022680Y023991D01*
X022680Y024108D02*
X018428Y024108D01*
X018428Y024224D02*
X022680Y024224D01*
X022680Y024341D02*
X018428Y024341D01*
X018428Y024457D02*
X022680Y024457D01*
X022680Y024574D02*
X018380Y024574D01*
X018269Y024691D02*
X022680Y024691D01*
X022680Y024807D02*
X018152Y024807D01*
X018035Y024924D02*
X022680Y024924D01*
X022680Y025041D02*
X017919Y025041D01*
X017754Y025157D02*
X022680Y025157D01*
X022680Y025274D02*
X017350Y025274D01*
X017350Y025390D02*
X022680Y025390D01*
X022023Y026207D02*
X021774Y026207D01*
X021749Y026182D02*
X021821Y026254D01*
X021860Y026348D01*
X021860Y026846D01*
X021821Y026940D01*
X021749Y027012D01*
X021655Y027051D01*
X021158Y027051D01*
X021063Y027012D01*
X020991Y026940D01*
X020953Y026846D01*
X020953Y026348D01*
X020991Y026254D01*
X021063Y026182D01*
X021158Y026143D01*
X021655Y026143D01*
X021749Y026182D01*
X021850Y026323D02*
X021947Y026323D01*
X021937Y026440D02*
X021860Y026440D01*
X021860Y026556D02*
X021937Y026556D01*
X021937Y026673D02*
X021860Y026673D01*
X021860Y026790D02*
X021937Y026790D01*
X021962Y026906D02*
X021835Y026906D01*
X021722Y027023D02*
X022075Y027023D01*
X022706Y027023D02*
X023059Y027023D01*
X022946Y026906D02*
X022819Y026906D01*
X022844Y026790D02*
X022921Y026790D01*
X022921Y026673D02*
X022844Y026673D01*
X022844Y026556D02*
X022861Y026556D01*
X023690Y027023D02*
X030729Y027023D01*
X030612Y027140D02*
X016226Y027140D01*
X016226Y027256D02*
X030496Y027256D01*
X030379Y027373D02*
X016226Y027373D01*
X016226Y027489D02*
X030263Y027489D01*
X030146Y027606D02*
X016196Y027606D01*
X016187Y027627D02*
X016115Y027699D01*
X016021Y027738D01*
X015122Y027738D01*
X015028Y027699D01*
X014956Y027627D01*
X014917Y027533D01*
X014917Y026634D01*
X014956Y026540D01*
X015028Y026468D01*
X015122Y026429D01*
X016021Y026429D01*
X016115Y026468D01*
X016187Y026540D01*
X016226Y026634D01*
X016226Y027533D01*
X016187Y027627D01*
X016059Y027723D02*
X030029Y027723D01*
X029913Y027839D02*
X012618Y027839D01*
X012836Y027762D02*
X012836Y027762D01*
X012891Y027723D02*
X015084Y027723D01*
X014947Y027606D02*
X013057Y027606D01*
X013222Y027489D02*
X014917Y027489D01*
X014917Y027373D02*
X013346Y027373D01*
X013441Y027256D02*
X014917Y027256D01*
X014917Y027140D02*
X013535Y027140D01*
X013630Y027023D02*
X014917Y027023D01*
X014917Y026906D02*
X013686Y026906D01*
X013640Y027011D02*
X013640Y027011D01*
X013736Y026790D02*
X014917Y026790D01*
X014917Y026673D02*
X013787Y026673D01*
X013837Y026556D02*
X014949Y026556D01*
X015097Y026440D02*
X013870Y026440D01*
X013861Y026502D02*
X013861Y026502D01*
X013886Y026323D02*
X015536Y026323D01*
X015412Y026207D02*
X013902Y026207D01*
X013918Y026090D02*
X015385Y026090D01*
X015385Y025973D02*
X013934Y025973D01*
X013924Y025857D02*
X015385Y025857D01*
X015385Y025740D02*
X013908Y025740D01*
X013892Y025624D02*
X015385Y025624D01*
X015385Y025507D02*
X015424Y025413D01*
X015447Y025274D02*
X013806Y025274D01*
X013755Y025157D02*
X015385Y025157D01*
X015385Y025041D02*
X013704Y025041D01*
X013654Y024924D02*
X015385Y024924D01*
X015385Y024807D02*
X013571Y024807D01*
X013640Y024893D02*
X013640Y024893D01*
X013476Y024691D02*
X015385Y024691D01*
X015367Y024574D02*
X013381Y024574D01*
X013290Y024462D02*
X013290Y024462D01*
X013290Y024462D01*
X013284Y024457D02*
X015211Y024457D01*
X015147Y024341D02*
X013118Y024341D01*
X012953Y024224D02*
X015121Y024224D01*
X015121Y024108D02*
X012740Y024108D01*
X012836Y024142D02*
X012836Y024142D01*
X012412Y023991D02*
X015121Y023991D01*
X015121Y023408D02*
X013320Y023408D01*
X013404Y023291D02*
X015121Y023291D01*
X015121Y023175D02*
X013419Y023175D01*
X013419Y023058D02*
X015121Y023058D01*
X015121Y022942D02*
X013419Y022942D01*
X013419Y022825D02*
X015121Y022825D01*
X015121Y022708D02*
X013391Y022708D01*
X013265Y022592D02*
X015121Y022592D01*
X013552Y021309D02*
X013409Y021309D01*
X012719Y020609D02*
X011617Y020609D01*
X011617Y020726D02*
X012565Y020726D01*
X012368Y020843D02*
X011988Y020843D01*
X012138Y020959D02*
X012251Y020959D01*
X010160Y024924D02*
X004209Y024924D01*
X004524Y025041D02*
X010089Y025041D01*
X010029Y025140D02*
X010029Y025140D01*
X010024Y025157D02*
X004839Y025157D01*
X005153Y025274D02*
X009991Y025274D01*
X009959Y025390D02*
X005468Y025390D01*
X005782Y025507D02*
X009926Y025507D01*
X009893Y025624D02*
X006097Y025624D01*
X006412Y025740D02*
X009879Y025740D01*
X009879Y025857D02*
X006726Y025857D01*
X007041Y025973D02*
X009879Y025973D01*
X009879Y026090D02*
X007356Y026090D01*
X007670Y026207D02*
X009879Y026207D01*
X009905Y026323D02*
X007985Y026323D01*
X008300Y026440D02*
X009938Y026440D01*
X009971Y026556D02*
X008614Y026556D01*
X008929Y026673D02*
X010003Y026673D01*
X010045Y026790D02*
X009244Y026790D01*
X009558Y026906D02*
X010116Y026906D01*
X010186Y027023D02*
X009873Y027023D01*
X010188Y027140D02*
X010257Y027140D01*
X012390Y027956D02*
X022087Y027956D01*
X021966Y027981D02*
X021966Y027981D01*
X021789Y028072D02*
X012705Y028072D01*
X013020Y028189D02*
X021564Y028189D01*
X021473Y028236D02*
X021473Y028236D01*
X021399Y028306D02*
X013334Y028306D01*
X013649Y028422D02*
X021274Y028422D01*
X021149Y028539D02*
X013964Y028539D01*
X014278Y028655D02*
X021043Y028655D01*
X021067Y028615D02*
X021067Y028615D01*
X020972Y028772D02*
X014593Y028772D01*
X014908Y028889D02*
X020901Y028889D01*
X020830Y029005D02*
X015222Y029005D01*
X015537Y029122D02*
X020770Y029122D01*
X020737Y029239D02*
X015852Y029239D01*
X016166Y029355D02*
X020704Y029355D01*
X020672Y029472D02*
X016481Y029472D01*
X016796Y029588D02*
X020639Y029588D01*
X020629Y029705D02*
X017110Y029705D01*
X017425Y029822D02*
X020629Y029822D01*
X020629Y029938D02*
X017740Y029938D01*
X018054Y030055D02*
X020629Y030055D01*
X020629Y030171D02*
X018369Y030171D01*
X018684Y030288D02*
X020660Y030288D01*
X020692Y030405D02*
X018998Y030405D01*
X019313Y030521D02*
X020725Y030521D01*
X020758Y030638D02*
X019628Y030638D01*
X019942Y030754D02*
X020804Y030754D01*
X020875Y030871D02*
X020257Y030871D01*
X023204Y027956D02*
X029796Y027956D01*
X029679Y028072D02*
X023532Y028072D01*
X023586Y028092D02*
X023586Y028092D01*
X023724Y028189D02*
X029563Y028189D01*
X029446Y028306D02*
X023889Y028306D01*
X024040Y028412D02*
X024040Y028412D01*
X024040Y028412D01*
X024048Y028422D02*
X029330Y028422D01*
X029213Y028539D02*
X024143Y028539D01*
X024238Y028655D02*
X029096Y028655D01*
X028980Y028772D02*
X024333Y028772D01*
X024390Y028843D02*
X024390Y028843D01*
X024410Y028889D02*
X028863Y028889D01*
X028747Y029005D02*
X024461Y029005D01*
X024511Y029122D02*
X028630Y029122D01*
X028513Y029239D02*
X024562Y029239D01*
X024611Y029352D02*
X024611Y029352D01*
X024612Y029355D02*
X026906Y029355D01*
X026843Y029472D02*
X024628Y029472D01*
X024644Y029588D02*
X026841Y029588D01*
X026841Y029705D02*
X024660Y029705D01*
X024676Y029822D02*
X026841Y029822D01*
X026841Y029938D02*
X024682Y029938D01*
X024687Y029902D02*
X024687Y029902D01*
X024666Y030055D02*
X026841Y030055D01*
X026841Y030171D02*
X024650Y030171D01*
X024634Y030288D02*
X026896Y030288D01*
X027891Y029355D02*
X027906Y029355D01*
X028993Y029705D02*
X030590Y029705D01*
X030474Y029822D02*
X028956Y029822D01*
X028956Y029938D02*
X030357Y029938D01*
X030241Y030055D02*
X028956Y030055D01*
X028956Y030171D02*
X030124Y030171D01*
X030007Y030288D02*
X028901Y030288D01*
X029424Y030871D02*
X024429Y030871D01*
X024480Y030754D02*
X029541Y030754D01*
X029657Y030638D02*
X024530Y030638D01*
X024581Y030521D02*
X029774Y030521D01*
X029891Y030405D02*
X024618Y030405D01*
X029110Y029588D02*
X030707Y029588D01*
X030824Y029472D02*
X029227Y029472D01*
X029343Y029355D02*
X030940Y029355D01*
X031057Y029239D02*
X029460Y029239D01*
X029577Y029122D02*
X031173Y029122D01*
X031290Y029005D02*
X029693Y029005D01*
X029810Y028889D02*
X031407Y028889D01*
X031523Y028772D02*
X029926Y028772D01*
X030043Y028655D02*
X031640Y028655D01*
X031756Y028539D02*
X030160Y028539D01*
X030276Y028422D02*
X031873Y028422D01*
X031990Y028306D02*
X030393Y028306D01*
X030509Y028189D02*
X032106Y028189D01*
X032223Y028072D02*
X030626Y028072D01*
X030743Y027956D02*
X032247Y027956D01*
X032247Y027839D02*
X030859Y027839D01*
X030976Y027723D02*
X032247Y027723D01*
X032247Y027606D02*
X031092Y027606D01*
X031209Y027489D02*
X032247Y027489D01*
X032247Y027373D02*
X031326Y027373D01*
X031442Y027256D02*
X032247Y027256D01*
X032247Y027140D02*
X031559Y027140D01*
X031676Y027023D02*
X032247Y027023D01*
X032247Y026906D02*
X031775Y026906D01*
X031814Y026790D02*
X032247Y026790D01*
X032247Y026673D02*
X031814Y026673D01*
X031814Y026556D02*
X032247Y026556D01*
X032247Y026440D02*
X031814Y026440D01*
X031814Y026323D02*
X032247Y026323D01*
X032247Y026207D02*
X031814Y026207D01*
X031814Y026090D02*
X032247Y026090D01*
X032247Y025973D02*
X031814Y025973D01*
X031814Y025857D02*
X032247Y025857D01*
X032247Y025740D02*
X031814Y025740D01*
X031814Y025624D02*
X032247Y025624D01*
X032247Y025507D02*
X031814Y025507D01*
X031814Y025390D02*
X032247Y025390D01*
X032247Y025274D02*
X031814Y025274D01*
X031814Y025157D02*
X032247Y025157D01*
X032247Y025041D02*
X031814Y025041D01*
X031814Y024924D02*
X032247Y024924D01*
X032247Y024807D02*
X031814Y024807D01*
X031814Y024691D02*
X032247Y024691D01*
X032247Y024574D02*
X031814Y024574D01*
X031814Y024457D02*
X032247Y024457D01*
X032247Y024341D02*
X031814Y024341D01*
X031814Y024224D02*
X032247Y024224D01*
X032247Y024108D02*
X031814Y024108D01*
X031814Y023991D02*
X032247Y023991D01*
X032247Y023874D02*
X031814Y023874D01*
X031814Y023758D02*
X032247Y023758D01*
X032247Y023641D02*
X031814Y023641D01*
X031814Y023525D02*
X032247Y023525D01*
X032247Y023408D02*
X031814Y023408D01*
X031814Y023291D02*
X032247Y023291D01*
X032247Y023175D02*
X031814Y023175D01*
X031814Y023058D02*
X032247Y023058D01*
X032247Y022942D02*
X031814Y022942D01*
X031814Y022825D02*
X032247Y022825D01*
X032247Y022708D02*
X031814Y022708D01*
X031814Y022592D02*
X032247Y022592D01*
X032247Y022475D02*
X031814Y022475D01*
X031814Y022358D02*
X032247Y022358D01*
X032247Y022242D02*
X031814Y022242D01*
X031814Y022125D02*
X032247Y022125D01*
X032247Y022009D02*
X031814Y022009D01*
X031814Y021892D02*
X032247Y021892D01*
X032247Y021775D02*
X031814Y021775D01*
X031814Y021659D02*
X032247Y021659D01*
X032247Y021542D02*
X031814Y021542D01*
X031814Y021426D02*
X032247Y021426D01*
X032247Y021309D02*
X031814Y021309D01*
X031814Y021192D02*
X032247Y021192D01*
X032247Y021076D02*
X031814Y021076D01*
X031814Y020959D02*
X032247Y020959D01*
X032247Y020843D02*
X031814Y020843D01*
X031814Y020726D02*
X032247Y020726D01*
X032247Y020609D02*
X031814Y020609D01*
X031814Y020493D02*
X032247Y020493D01*
X032247Y020376D02*
X031814Y020376D01*
X031814Y020259D02*
X032247Y020259D01*
X032247Y020143D02*
X031814Y020143D01*
X031814Y020026D02*
X032247Y020026D01*
X032247Y019910D02*
X031814Y019910D01*
X031814Y019793D02*
X032247Y019793D01*
X032247Y019676D02*
X031814Y019676D01*
X031814Y019560D02*
X032247Y019560D01*
X032247Y019443D02*
X031814Y019443D01*
X031814Y019327D02*
X032247Y019327D01*
X032247Y019210D02*
X031814Y019210D01*
X031814Y019093D02*
X032247Y019093D01*
X032247Y018977D02*
X031814Y018977D01*
X031814Y018860D02*
X032247Y018860D01*
X032247Y018744D02*
X031814Y018744D01*
X031814Y018627D02*
X032247Y018627D01*
X032247Y018510D02*
X031814Y018510D01*
X031814Y018394D02*
X032247Y018394D01*
X032247Y018277D02*
X031814Y018277D01*
X031814Y018161D02*
X032247Y018161D01*
X032247Y018044D02*
X031814Y018044D01*
X031814Y017927D02*
X032247Y017927D01*
X032247Y017811D02*
X031814Y017811D01*
X031814Y017694D02*
X032247Y017694D01*
X032247Y017577D02*
X031814Y017577D01*
X031814Y017461D02*
X032247Y017461D01*
X032247Y017344D02*
X031814Y017344D01*
X031814Y017228D02*
X032247Y017228D01*
X032247Y017111D02*
X031814Y017111D01*
X031814Y016994D02*
X032247Y016994D01*
X032247Y016878D02*
X031814Y016878D01*
X031814Y016761D02*
X032247Y016761D01*
X032247Y016645D02*
X031814Y016645D01*
X031814Y016528D02*
X032247Y016528D01*
X032247Y016411D02*
X031814Y016411D01*
X031814Y016295D02*
X032247Y016295D01*
X032247Y016178D02*
X031814Y016178D01*
X031814Y016062D02*
X032247Y016062D01*
X032404Y014546D02*
X032541Y014546D01*
X032404Y014429D02*
X035388Y014429D01*
X035388Y014312D02*
X032404Y014312D01*
X032404Y014196D02*
X035388Y014196D01*
X035388Y014079D02*
X032404Y014079D01*
X032404Y013963D02*
X035388Y013963D01*
X035388Y013846D02*
X032404Y013846D01*
X032404Y013729D02*
X035388Y013729D01*
X035388Y013613D02*
X032404Y013613D01*
X032404Y013496D02*
X035388Y013496D01*
X035388Y013379D02*
X032404Y013379D01*
X032404Y013263D02*
X035388Y013263D01*
X035388Y013146D02*
X032404Y013146D01*
X032404Y013030D02*
X035388Y013030D01*
X035388Y012913D02*
X032404Y012913D01*
X032404Y012796D02*
X035388Y012796D01*
X035388Y012680D02*
X032404Y012680D01*
X032404Y012563D02*
X035388Y012563D01*
X035388Y012447D02*
X032404Y012447D01*
X032404Y012330D02*
X035388Y012330D01*
X035388Y012213D02*
X032404Y012213D01*
X032404Y012097D02*
X035388Y012097D01*
X035388Y011980D02*
X032404Y011980D01*
X032404Y011864D02*
X035388Y011864D01*
X035388Y011747D02*
X032404Y011747D01*
X032404Y011630D02*
X035388Y011630D01*
X035388Y011514D02*
X032404Y011514D01*
X032404Y011397D02*
X035388Y011397D01*
X035388Y011280D02*
X032404Y011280D01*
X032404Y011164D02*
X035388Y011164D01*
X035388Y011047D02*
X032404Y011047D01*
X032404Y010931D02*
X035388Y010931D01*
X035388Y010814D02*
X032404Y010814D01*
X032404Y010697D02*
X035388Y010697D01*
X035388Y010581D02*
X032404Y010581D01*
X032404Y010464D02*
X035388Y010464D01*
X035388Y010348D02*
X032404Y010348D01*
X032404Y010231D02*
X035388Y010231D01*
X035388Y010114D02*
X032404Y010114D01*
X032404Y009998D02*
X035388Y009998D01*
X035388Y009881D02*
X032404Y009881D01*
X032404Y009765D02*
X035411Y009765D01*
X035512Y009648D02*
X032404Y009648D01*
X032404Y009531D02*
X037888Y009531D01*
X037888Y009415D02*
X032404Y009415D01*
X032404Y009298D02*
X037888Y009298D01*
X037888Y009182D02*
X032404Y009182D01*
X032404Y009065D02*
X037888Y009065D01*
X037888Y008948D02*
X032404Y008948D01*
X032404Y008832D02*
X037888Y008832D01*
X037888Y008715D02*
X032404Y008715D01*
X032404Y008598D02*
X037888Y008598D01*
X037888Y008482D02*
X032404Y008482D01*
X032404Y008365D02*
X037888Y008365D01*
X037888Y008249D02*
X032404Y008249D01*
X032404Y008132D02*
X037888Y008132D01*
X037888Y008015D02*
X032404Y008015D01*
X032404Y007899D02*
X037888Y007899D01*
X037888Y007782D02*
X032404Y007782D01*
X032404Y007666D02*
X037888Y007666D01*
X037888Y007549D02*
X032404Y007549D01*
X032404Y007432D02*
X037888Y007432D01*
X037888Y007316D02*
X032404Y007316D01*
X032404Y007199D02*
X037888Y007199D01*
X037888Y007083D02*
X032404Y007083D01*
X032404Y006966D02*
X037888Y006966D01*
X037888Y006849D02*
X032404Y006849D01*
X032404Y006733D02*
X037888Y006733D01*
X037888Y006616D02*
X032404Y006616D01*
X032404Y006499D02*
X037888Y006499D01*
X037888Y006383D02*
X032404Y006383D01*
X032404Y006266D02*
X037888Y006266D01*
X037888Y006150D02*
X032404Y006150D01*
X032404Y006033D02*
X037888Y006033D01*
X037888Y005916D02*
X032404Y005916D01*
X032404Y005800D02*
X037888Y005800D01*
X037888Y005683D02*
X032404Y005683D01*
X032404Y005567D02*
X036049Y005567D01*
X036259Y005610D02*
X036259Y005610D01*
X035624Y005450D02*
X032404Y005450D01*
X032404Y005333D02*
X035399Y005333D01*
X035223Y005242D02*
X035223Y005242D01*
X035196Y005217D02*
X032404Y005217D01*
X032677Y005100D02*
X035071Y005100D01*
X034946Y004984D02*
X033629Y004984D01*
X033644Y004867D02*
X034821Y004867D01*
X034817Y004863D02*
X034817Y004863D01*
X034749Y004750D02*
X033644Y004750D01*
X033644Y004540D02*
X033210Y004540D01*
X033210Y004106D01*
X033506Y004106D01*
X033547Y004116D01*
X033583Y004137D01*
X033612Y004167D01*
X033633Y004203D01*
X033644Y004244D01*
X033644Y004540D01*
X033644Y004517D02*
X034607Y004517D01*
X034536Y004400D02*
X033644Y004400D01*
X033644Y004284D02*
X034499Y004284D01*
X034467Y004167D02*
X033613Y004167D01*
X033210Y004167D02*
X033111Y004167D01*
X033111Y004284D02*
X033210Y004284D01*
X033210Y004400D02*
X033111Y004400D01*
X033111Y004517D02*
X033210Y004517D01*
X033210Y004634D02*
X034678Y004634D01*
X034434Y004051D02*
X032649Y004051D01*
X033111Y004750D02*
X033210Y004750D01*
X033210Y004867D02*
X033111Y004867D01*
X033111Y004984D02*
X033210Y004984D01*
X031703Y004051D02*
X031665Y004051D01*
X030719Y004051D02*
X030680Y004051D01*
X034463Y003001D02*
X008687Y003001D01*
X008640Y002893D02*
X008640Y002893D01*
X008634Y002885D02*
X034495Y002885D01*
X034528Y002768D02*
X008539Y002768D01*
X008444Y002651D02*
X034598Y002651D01*
X034669Y002535D02*
X008349Y002535D01*
X008290Y002462D02*
X008290Y002462D01*
X008290Y002462D01*
X008228Y002418D02*
X034740Y002418D01*
X034810Y002301D02*
X008063Y002301D01*
X006759Y005985D02*
X006759Y005985D01*
X018428Y016761D02*
X018434Y016761D01*
X026700Y017694D02*
X027203Y017694D01*
X027238Y018510D02*
X026665Y018510D01*
X027326Y021076D02*
X029767Y021076D01*
X029767Y021192D02*
X027392Y021192D01*
X027396Y021309D02*
X029767Y021309D01*
X029767Y021426D02*
X027396Y021426D01*
X027396Y021542D02*
X029767Y021542D01*
X029767Y021659D02*
X027396Y021659D01*
X027365Y021775D02*
X029767Y021775D01*
X029767Y021892D02*
X027365Y021892D01*
X027365Y022009D02*
X029767Y022009D01*
X029767Y022125D02*
X027365Y022125D01*
X027365Y022242D02*
X029767Y022242D01*
X029767Y022358D02*
X027365Y022358D01*
X027365Y022475D02*
X029767Y022475D01*
X029767Y022592D02*
X027365Y022592D01*
X027365Y022708D02*
X029767Y022708D01*
X029767Y022825D02*
X027365Y022825D01*
X027365Y022942D02*
X029767Y022942D01*
X029767Y023058D02*
X027365Y023058D01*
X027365Y023175D02*
X029767Y023175D01*
X029688Y023291D02*
X027365Y023291D01*
X027365Y023408D02*
X029657Y023408D01*
X029657Y023525D02*
X027365Y023525D01*
X027365Y023641D02*
X029657Y023641D01*
X029657Y023758D02*
X027365Y023758D01*
X027365Y023874D02*
X029670Y023874D01*
X029749Y023991D02*
X027365Y023991D01*
X021039Y026207D02*
X017385Y026207D01*
X017412Y026141D02*
X017412Y025507D01*
X017261Y026323D02*
X020084Y026323D01*
X020076Y026337D02*
X020097Y026301D01*
X020127Y026271D01*
X020163Y026250D01*
X020203Y026240D01*
X020417Y026240D01*
X020417Y026592D01*
X020065Y026592D01*
X020065Y026378D01*
X020076Y026337D01*
X020065Y026440D02*
X016047Y026440D01*
X016194Y026556D02*
X020065Y026556D01*
X020065Y026602D02*
X020417Y026602D01*
X020417Y026954D01*
X020203Y026954D01*
X020163Y026943D01*
X020127Y026922D01*
X020097Y026892D01*
X020076Y026856D01*
X020065Y026816D01*
X020065Y026602D01*
X020065Y026673D02*
X016226Y026673D01*
X016226Y026790D02*
X020065Y026790D01*
X020111Y026906D02*
X016226Y026906D01*
X016226Y027023D02*
X021091Y027023D01*
X020978Y026906D02*
X020733Y026906D01*
X020747Y026892D02*
X020718Y026922D01*
X020681Y026943D01*
X020641Y026954D01*
X020427Y026954D01*
X020427Y026602D01*
X020417Y026602D01*
X020417Y026592D01*
X020427Y026592D01*
X020427Y026602D01*
X020779Y026602D01*
X020779Y026816D01*
X020768Y026856D01*
X020747Y026892D01*
X020779Y026790D02*
X020953Y026790D01*
X020953Y026673D02*
X020779Y026673D01*
X020779Y026592D02*
X020427Y026592D01*
X020427Y026240D01*
X020641Y026240D01*
X020681Y026250D01*
X020718Y026271D01*
X020747Y026301D01*
X020768Y026337D01*
X020779Y026378D01*
X020779Y026592D01*
X020779Y026556D02*
X020953Y026556D01*
X020953Y026440D02*
X020779Y026440D01*
X020760Y026323D02*
X020963Y026323D01*
X020427Y026323D02*
X020417Y026323D01*
X020417Y026440D02*
X020427Y026440D01*
X020417Y026556D02*
X020427Y026556D01*
X020417Y026673D02*
X020427Y026673D01*
X020417Y026790D02*
X020427Y026790D01*
X020417Y026906D02*
X020427Y026906D01*
X016520Y026323D02*
X016277Y026323D01*
X036813Y005572D02*
X036813Y005572D01*
X036830Y005567D02*
X037888Y005567D01*
X037888Y005450D02*
X037158Y005450D01*
X037336Y005387D02*
X037336Y005387D01*
X037412Y005333D02*
X037888Y005333D01*
X037888Y005217D02*
X037577Y005217D01*
X037742Y005100D02*
X037888Y005100D01*
X037888Y004984D02*
X037857Y004984D01*
D22*
X011794Y021243D03*
X011794Y021834D03*
X011794Y022424D03*
D23*
X012582Y021637D01*
X013960Y021637D01*
X012975Y021046D02*
X012582Y021046D01*
X011794Y021834D01*
X011991Y010219D02*
X011991Y009038D01*
X011794Y008841D01*
X011794Y008448D01*
X012582Y007660D01*
M02*
