G75*
%MOIN*%
%OFA0B0*%
%FSLAX24Y24*%
%IPPOS*%
%LPD*%
%AMOC8*
5,1,8,0,0,1.08239X$1,22.5*
%
%ADD10C,0.0000*%
%ADD11C,0.1000*%
%ADD12C,0.0010*%
D10*
X006139Y003952D02*
X006141Y004007D01*
X006147Y004061D01*
X006157Y004115D01*
X006170Y004169D01*
X006188Y004221D01*
X006209Y004271D01*
X006234Y004320D01*
X006262Y004367D01*
X006294Y004412D01*
X006329Y004454D01*
X006366Y004494D01*
X006407Y004531D01*
X006450Y004565D01*
X006495Y004596D01*
X006543Y004623D01*
X006592Y004647D01*
X006643Y004668D01*
X006696Y004684D01*
X006749Y004697D01*
X006803Y004706D01*
X006858Y004711D01*
X006913Y004712D01*
X006968Y004709D01*
X007022Y004702D01*
X007076Y004691D01*
X007129Y004676D01*
X007180Y004658D01*
X007231Y004636D01*
X007279Y004610D01*
X007326Y004581D01*
X007370Y004549D01*
X007412Y004513D01*
X007451Y004475D01*
X007487Y004433D01*
X007520Y004390D01*
X007550Y004344D01*
X007577Y004296D01*
X007600Y004246D01*
X007619Y004195D01*
X007635Y004142D01*
X007647Y004088D01*
X007655Y004034D01*
X007659Y003979D01*
X007659Y003925D01*
X007655Y003870D01*
X007647Y003816D01*
X007635Y003762D01*
X007619Y003709D01*
X007600Y003658D01*
X007577Y003608D01*
X007550Y003560D01*
X007520Y003514D01*
X007487Y003471D01*
X007451Y003429D01*
X007412Y003391D01*
X007370Y003355D01*
X007326Y003323D01*
X007279Y003294D01*
X007231Y003268D01*
X007180Y003246D01*
X007129Y003228D01*
X007076Y003213D01*
X007022Y003202D01*
X006968Y003195D01*
X006913Y003192D01*
X006858Y003193D01*
X006803Y003198D01*
X006749Y003207D01*
X006696Y003220D01*
X006643Y003236D01*
X006592Y003257D01*
X006543Y003281D01*
X006495Y003308D01*
X006450Y003339D01*
X006407Y003373D01*
X006366Y003410D01*
X006329Y003450D01*
X006294Y003492D01*
X006262Y003537D01*
X006234Y003584D01*
X006209Y003633D01*
X006188Y003683D01*
X006170Y003735D01*
X006157Y003789D01*
X006147Y003843D01*
X006141Y003897D01*
X006139Y003952D01*
X005129Y017700D02*
X005131Y017755D01*
X005137Y017809D01*
X005147Y017863D01*
X005160Y017917D01*
X005178Y017969D01*
X005199Y018019D01*
X005224Y018068D01*
X005252Y018115D01*
X005284Y018160D01*
X005319Y018202D01*
X005356Y018242D01*
X005397Y018279D01*
X005440Y018313D01*
X005485Y018344D01*
X005533Y018371D01*
X005582Y018395D01*
X005633Y018416D01*
X005686Y018432D01*
X005739Y018445D01*
X005793Y018454D01*
X005848Y018459D01*
X005903Y018460D01*
X005958Y018457D01*
X006012Y018450D01*
X006066Y018439D01*
X006119Y018424D01*
X006170Y018406D01*
X006221Y018384D01*
X006269Y018358D01*
X006316Y018329D01*
X006360Y018297D01*
X006402Y018261D01*
X006441Y018223D01*
X006477Y018181D01*
X006510Y018138D01*
X006540Y018092D01*
X006567Y018044D01*
X006590Y017994D01*
X006609Y017943D01*
X006625Y017890D01*
X006637Y017836D01*
X006645Y017782D01*
X006649Y017727D01*
X006649Y017673D01*
X006645Y017618D01*
X006637Y017564D01*
X006625Y017510D01*
X006609Y017457D01*
X006590Y017406D01*
X006567Y017356D01*
X006540Y017308D01*
X006510Y017262D01*
X006477Y017219D01*
X006441Y017177D01*
X006402Y017139D01*
X006360Y017103D01*
X006316Y017071D01*
X006269Y017042D01*
X006221Y017016D01*
X006170Y016994D01*
X006119Y016976D01*
X006066Y016961D01*
X006012Y016950D01*
X005958Y016943D01*
X005903Y016940D01*
X005848Y016941D01*
X005793Y016946D01*
X005739Y016955D01*
X005686Y016968D01*
X005633Y016984D01*
X005582Y017005D01*
X005533Y017029D01*
X005485Y017056D01*
X005440Y017087D01*
X005397Y017121D01*
X005356Y017158D01*
X005319Y017198D01*
X005284Y017240D01*
X005252Y017285D01*
X005224Y017332D01*
X005199Y017381D01*
X005178Y017431D01*
X005160Y017483D01*
X005147Y017537D01*
X005137Y017591D01*
X005131Y017645D01*
X005129Y017700D01*
X004072Y019097D02*
X004074Y019119D01*
X004080Y019141D01*
X004089Y019161D01*
X004102Y019179D01*
X004118Y019195D01*
X004136Y019208D01*
X004156Y019217D01*
X004178Y019223D01*
X004200Y019225D01*
X004222Y019223D01*
X004244Y019217D01*
X004264Y019208D01*
X004282Y019195D01*
X004298Y019179D01*
X004311Y019161D01*
X004320Y019141D01*
X004326Y019119D01*
X004328Y019097D01*
X004326Y019075D01*
X004320Y019053D01*
X004311Y019033D01*
X004298Y019015D01*
X004282Y018999D01*
X004264Y018986D01*
X004244Y018977D01*
X004222Y018971D01*
X004200Y018969D01*
X004178Y018971D01*
X004156Y018977D01*
X004136Y018986D01*
X004118Y018999D01*
X004102Y019015D01*
X004089Y019033D01*
X004080Y019053D01*
X004074Y019075D01*
X004072Y019097D01*
X003914Y019097D02*
X003916Y019119D01*
X003922Y019141D01*
X003931Y019161D01*
X003944Y019179D01*
X003960Y019195D01*
X003978Y019208D01*
X003998Y019217D01*
X004020Y019223D01*
X004042Y019225D01*
X004064Y019223D01*
X004086Y019217D01*
X004106Y019208D01*
X004124Y019195D01*
X004140Y019179D01*
X004153Y019161D01*
X004162Y019141D01*
X004168Y019119D01*
X004170Y019097D01*
X004168Y019075D01*
X004162Y019053D01*
X004153Y019033D01*
X004140Y019015D01*
X004124Y018999D01*
X004106Y018986D01*
X004086Y018977D01*
X004064Y018971D01*
X004042Y018969D01*
X004020Y018971D01*
X003998Y018977D01*
X003978Y018986D01*
X003960Y018999D01*
X003944Y019015D01*
X003931Y019033D01*
X003922Y019053D01*
X003916Y019075D01*
X003914Y019097D01*
X002888Y018979D02*
X002890Y019002D01*
X002896Y019025D01*
X002906Y019046D01*
X002919Y019066D01*
X002935Y019083D01*
X002954Y019097D01*
X002975Y019107D01*
X002997Y019114D01*
X003020Y019117D01*
X003044Y019116D01*
X003066Y019111D01*
X003088Y019102D01*
X003108Y019090D01*
X003126Y019074D01*
X003140Y019056D01*
X003152Y019036D01*
X003160Y019014D01*
X003164Y018991D01*
X003164Y018967D01*
X003160Y018944D01*
X003152Y018922D01*
X003140Y018902D01*
X003126Y018884D01*
X003108Y018868D01*
X003088Y018856D01*
X003066Y018847D01*
X003044Y018842D01*
X003020Y018841D01*
X002997Y018844D01*
X002975Y018851D01*
X002954Y018861D01*
X002935Y018875D01*
X002919Y018892D01*
X002906Y018912D01*
X002896Y018933D01*
X002890Y018956D01*
X002888Y018979D01*
X002692Y018979D02*
X002694Y019002D01*
X002700Y019025D01*
X002710Y019046D01*
X002723Y019066D01*
X002739Y019083D01*
X002758Y019097D01*
X002779Y019107D01*
X002801Y019114D01*
X002824Y019117D01*
X002848Y019116D01*
X002870Y019111D01*
X002892Y019102D01*
X002912Y019090D01*
X002930Y019074D01*
X002944Y019056D01*
X002956Y019036D01*
X002964Y019014D01*
X002968Y018991D01*
X002968Y018967D01*
X002964Y018944D01*
X002956Y018922D01*
X002944Y018902D01*
X002930Y018884D01*
X002912Y018868D01*
X002892Y018856D01*
X002870Y018847D01*
X002848Y018842D01*
X002824Y018841D01*
X002801Y018844D01*
X002779Y018851D01*
X002758Y018861D01*
X002739Y018875D01*
X002723Y018892D01*
X002710Y018912D01*
X002700Y018933D01*
X002694Y018956D01*
X002692Y018979D01*
X003914Y021006D02*
X003916Y021028D01*
X003922Y021050D01*
X003931Y021070D01*
X003944Y021088D01*
X003960Y021104D01*
X003978Y021117D01*
X003998Y021126D01*
X004020Y021132D01*
X004042Y021134D01*
X004064Y021132D01*
X004086Y021126D01*
X004106Y021117D01*
X004124Y021104D01*
X004140Y021088D01*
X004153Y021070D01*
X004162Y021050D01*
X004168Y021028D01*
X004170Y021006D01*
X004168Y020984D01*
X004162Y020962D01*
X004153Y020942D01*
X004140Y020924D01*
X004124Y020908D01*
X004106Y020895D01*
X004086Y020886D01*
X004064Y020880D01*
X004042Y020878D01*
X004020Y020880D01*
X003998Y020886D01*
X003978Y020895D01*
X003960Y020908D01*
X003944Y020924D01*
X003931Y020942D01*
X003922Y020962D01*
X003916Y020984D01*
X003914Y021006D01*
X004072Y021006D02*
X004074Y021028D01*
X004080Y021050D01*
X004089Y021070D01*
X004102Y021088D01*
X004118Y021104D01*
X004136Y021117D01*
X004156Y021126D01*
X004178Y021132D01*
X004200Y021134D01*
X004222Y021132D01*
X004244Y021126D01*
X004264Y021117D01*
X004282Y021104D01*
X004298Y021088D01*
X004311Y021070D01*
X004320Y021050D01*
X004326Y021028D01*
X004328Y021006D01*
X004326Y020984D01*
X004320Y020962D01*
X004311Y020942D01*
X004298Y020924D01*
X004282Y020908D01*
X004264Y020895D01*
X004244Y020886D01*
X004222Y020880D01*
X004200Y020878D01*
X004178Y020880D01*
X004156Y020886D01*
X004136Y020895D01*
X004118Y020908D01*
X004102Y020924D01*
X004089Y020942D01*
X004080Y020962D01*
X004074Y020984D01*
X004072Y021006D01*
X002888Y021124D02*
X002890Y021147D01*
X002896Y021170D01*
X002906Y021191D01*
X002919Y021211D01*
X002935Y021228D01*
X002954Y021242D01*
X002975Y021252D01*
X002997Y021259D01*
X003020Y021262D01*
X003044Y021261D01*
X003066Y021256D01*
X003088Y021247D01*
X003108Y021235D01*
X003126Y021219D01*
X003140Y021201D01*
X003152Y021181D01*
X003160Y021159D01*
X003164Y021136D01*
X003164Y021112D01*
X003160Y021089D01*
X003152Y021067D01*
X003140Y021047D01*
X003126Y021029D01*
X003108Y021013D01*
X003088Y021001D01*
X003066Y020992D01*
X003044Y020987D01*
X003020Y020986D01*
X002997Y020989D01*
X002975Y020996D01*
X002954Y021006D01*
X002935Y021020D01*
X002919Y021037D01*
X002906Y021057D01*
X002896Y021078D01*
X002890Y021101D01*
X002888Y021124D01*
X002692Y021124D02*
X002694Y021147D01*
X002700Y021170D01*
X002710Y021191D01*
X002723Y021211D01*
X002739Y021228D01*
X002758Y021242D01*
X002779Y021252D01*
X002801Y021259D01*
X002824Y021262D01*
X002848Y021261D01*
X002870Y021256D01*
X002892Y021247D01*
X002912Y021235D01*
X002930Y021219D01*
X002944Y021201D01*
X002956Y021181D01*
X002964Y021159D01*
X002968Y021136D01*
X002968Y021112D01*
X002964Y021089D01*
X002956Y021067D01*
X002944Y021047D01*
X002930Y021029D01*
X002912Y021013D01*
X002892Y021001D01*
X002870Y020992D01*
X002848Y020987D01*
X002824Y020986D01*
X002801Y020989D01*
X002779Y020996D01*
X002758Y021006D01*
X002739Y021020D01*
X002723Y021037D01*
X002710Y021057D01*
X002700Y021078D01*
X002694Y021101D01*
X002692Y021124D01*
X011139Y025952D02*
X011141Y026007D01*
X011147Y026061D01*
X011157Y026115D01*
X011170Y026169D01*
X011188Y026221D01*
X011209Y026271D01*
X011234Y026320D01*
X011262Y026367D01*
X011294Y026412D01*
X011329Y026454D01*
X011366Y026494D01*
X011407Y026531D01*
X011450Y026565D01*
X011495Y026596D01*
X011543Y026623D01*
X011592Y026647D01*
X011643Y026668D01*
X011696Y026684D01*
X011749Y026697D01*
X011803Y026706D01*
X011858Y026711D01*
X011913Y026712D01*
X011968Y026709D01*
X012022Y026702D01*
X012076Y026691D01*
X012129Y026676D01*
X012180Y026658D01*
X012231Y026636D01*
X012279Y026610D01*
X012326Y026581D01*
X012370Y026549D01*
X012412Y026513D01*
X012451Y026475D01*
X012487Y026433D01*
X012520Y026390D01*
X012550Y026344D01*
X012577Y026296D01*
X012600Y026246D01*
X012619Y026195D01*
X012635Y026142D01*
X012647Y026088D01*
X012655Y026034D01*
X012659Y025979D01*
X012659Y025925D01*
X012655Y025870D01*
X012647Y025816D01*
X012635Y025762D01*
X012619Y025709D01*
X012600Y025658D01*
X012577Y025608D01*
X012550Y025560D01*
X012520Y025514D01*
X012487Y025471D01*
X012451Y025429D01*
X012412Y025391D01*
X012370Y025355D01*
X012326Y025323D01*
X012279Y025294D01*
X012231Y025268D01*
X012180Y025246D01*
X012129Y025228D01*
X012076Y025213D01*
X012022Y025202D01*
X011968Y025195D01*
X011913Y025192D01*
X011858Y025193D01*
X011803Y025198D01*
X011749Y025207D01*
X011696Y025220D01*
X011643Y025236D01*
X011592Y025257D01*
X011543Y025281D01*
X011495Y025308D01*
X011450Y025339D01*
X011407Y025373D01*
X011366Y025410D01*
X011329Y025450D01*
X011294Y025492D01*
X011262Y025537D01*
X011234Y025584D01*
X011209Y025633D01*
X011188Y025683D01*
X011170Y025735D01*
X011157Y025789D01*
X011147Y025843D01*
X011141Y025897D01*
X011139Y025952D01*
X021889Y029902D02*
X021891Y029957D01*
X021897Y030011D01*
X021907Y030065D01*
X021920Y030119D01*
X021938Y030171D01*
X021959Y030221D01*
X021984Y030270D01*
X022012Y030317D01*
X022044Y030362D01*
X022079Y030404D01*
X022116Y030444D01*
X022157Y030481D01*
X022200Y030515D01*
X022245Y030546D01*
X022293Y030573D01*
X022342Y030597D01*
X022393Y030618D01*
X022446Y030634D01*
X022499Y030647D01*
X022553Y030656D01*
X022608Y030661D01*
X022663Y030662D01*
X022718Y030659D01*
X022772Y030652D01*
X022826Y030641D01*
X022879Y030626D01*
X022930Y030608D01*
X022981Y030586D01*
X023029Y030560D01*
X023076Y030531D01*
X023120Y030499D01*
X023162Y030463D01*
X023201Y030425D01*
X023237Y030383D01*
X023270Y030340D01*
X023300Y030294D01*
X023327Y030246D01*
X023350Y030196D01*
X023369Y030145D01*
X023385Y030092D01*
X023397Y030038D01*
X023405Y029984D01*
X023409Y029929D01*
X023409Y029875D01*
X023405Y029820D01*
X023397Y029766D01*
X023385Y029712D01*
X023369Y029659D01*
X023350Y029608D01*
X023327Y029558D01*
X023300Y029510D01*
X023270Y029464D01*
X023237Y029421D01*
X023201Y029379D01*
X023162Y029341D01*
X023120Y029305D01*
X023076Y029273D01*
X023029Y029244D01*
X022981Y029218D01*
X022930Y029196D01*
X022879Y029178D01*
X022826Y029163D01*
X022772Y029152D01*
X022718Y029145D01*
X022663Y029142D01*
X022608Y029143D01*
X022553Y029148D01*
X022499Y029157D01*
X022446Y029170D01*
X022393Y029186D01*
X022342Y029207D01*
X022293Y029231D01*
X022245Y029258D01*
X022200Y029289D01*
X022157Y029323D01*
X022116Y029360D01*
X022079Y029400D01*
X022044Y029442D01*
X022012Y029487D01*
X021984Y029534D01*
X021959Y029583D01*
X021938Y029633D01*
X021920Y029685D01*
X021907Y029739D01*
X021897Y029793D01*
X021891Y029847D01*
X021889Y029902D01*
X035639Y003577D02*
X035641Y003632D01*
X035647Y003686D01*
X035657Y003740D01*
X035670Y003794D01*
X035688Y003846D01*
X035709Y003896D01*
X035734Y003945D01*
X035762Y003992D01*
X035794Y004037D01*
X035829Y004079D01*
X035866Y004119D01*
X035907Y004156D01*
X035950Y004190D01*
X035995Y004221D01*
X036043Y004248D01*
X036092Y004272D01*
X036143Y004293D01*
X036196Y004309D01*
X036249Y004322D01*
X036303Y004331D01*
X036358Y004336D01*
X036413Y004337D01*
X036468Y004334D01*
X036522Y004327D01*
X036576Y004316D01*
X036629Y004301D01*
X036680Y004283D01*
X036731Y004261D01*
X036779Y004235D01*
X036826Y004206D01*
X036870Y004174D01*
X036912Y004138D01*
X036951Y004100D01*
X036987Y004058D01*
X037020Y004015D01*
X037050Y003969D01*
X037077Y003921D01*
X037100Y003871D01*
X037119Y003820D01*
X037135Y003767D01*
X037147Y003713D01*
X037155Y003659D01*
X037159Y003604D01*
X037159Y003550D01*
X037155Y003495D01*
X037147Y003441D01*
X037135Y003387D01*
X037119Y003334D01*
X037100Y003283D01*
X037077Y003233D01*
X037050Y003185D01*
X037020Y003139D01*
X036987Y003096D01*
X036951Y003054D01*
X036912Y003016D01*
X036870Y002980D01*
X036826Y002948D01*
X036779Y002919D01*
X036731Y002893D01*
X036680Y002871D01*
X036629Y002853D01*
X036576Y002838D01*
X036522Y002827D01*
X036468Y002820D01*
X036413Y002817D01*
X036358Y002818D01*
X036303Y002823D01*
X036249Y002832D01*
X036196Y002845D01*
X036143Y002861D01*
X036092Y002882D01*
X036043Y002906D01*
X035995Y002933D01*
X035950Y002964D01*
X035907Y002998D01*
X035866Y003035D01*
X035829Y003075D01*
X035794Y003117D01*
X035762Y003162D01*
X035734Y003209D01*
X035709Y003258D01*
X035688Y003308D01*
X035670Y003360D01*
X035657Y003414D01*
X035647Y003468D01*
X035641Y003522D01*
X035639Y003577D01*
D11*
X007436Y011239D02*
X004436Y011239D01*
X004436Y015239D01*
X007436Y015239D01*
X007436Y011239D01*
D12*
X002149Y005502D02*
X006899Y001952D01*
X038149Y001952D01*
X038149Y009874D01*
X035649Y009874D01*
X035649Y025016D01*
X029463Y031202D01*
X020399Y031202D01*
X003399Y024902D01*
X003399Y021702D01*
X002149Y021702D01*
X002149Y005502D01*
M02*
