G75*
%MOIN*%
%OFA0B0*%
%FSLAX24Y24*%
%IPPOS*%
%LPD*%
%AMOC8*
5,1,8,0,0,1.08239X$1,22.5*
%
%ADD10OC8,0.0610*%
%ADD11C,0.0400*%
%ADD12R,0.0394X0.0394*%
%ADD13R,0.0394X0.0433*%
%ADD14C,0.0087*%
%ADD15C,0.0190*%
%ADD16C,0.0142*%
%ADD17C,0.0394*%
%ADD18R,0.0315X0.1378*%
%ADD19R,0.1378X0.0315*%
%ADD20R,0.0396X0.0396*%
%ADD21R,0.0984X0.0561*%
%ADD22R,0.0965X0.0512*%
%ADD23R,0.0276X0.0719*%
%ADD24R,0.0575X0.0787*%
%ADD25R,0.0689X0.0157*%
%ADD26R,0.2100X0.0760*%
%ADD27R,0.0394X0.0098*%
%ADD28R,0.0354X0.1024*%
%ADD29R,0.0472X0.0315*%
%ADD30R,0.0433X0.0394*%
%ADD31R,0.0787X0.0472*%
%ADD32R,0.0098X0.0394*%
%ADD33R,0.1024X0.0354*%
%ADD34R,0.0315X0.0472*%
%ADD35R,0.0472X0.0787*%
%ADD36R,0.0394X0.1811*%
%ADD37R,0.0630X0.1339*%
%ADD38R,0.0276X0.0472*%
%ADD39R,0.0394X0.0551*%
%ADD40R,0.0531X0.0531*%
%ADD41R,0.0602X0.0602*%
%ADD42R,0.0551X0.0394*%
%ADD43R,0.0472X0.0472*%
%ADD44R,0.0472X0.0217*%
%ADD45R,0.1181X0.0472*%
%ADD46R,0.0453X0.0118*%
%ADD47R,0.0394X0.1181*%
%ADD48R,0.0394X0.0472*%
%ADD49R,0.0472X0.0394*%
%ADD50R,0.0531X0.0177*%
%ADD51R,0.1091X0.1004*%
%ADD52R,0.0394X0.0709*%
%ADD53R,0.0472X0.0669*%
%ADD54R,0.0197X0.0394*%
%ADD55C,0.0079*%
%ADD56C,0.0157*%
%ADD57R,0.0376X0.0376*%
%ADD58C,0.0315*%
%ADD59C,0.0118*%
%ADD60C,0.0160*%
%ADD61C,0.0126*%
%ADD62C,0.0236*%
D10*
X016965Y005878D03*
X017965Y005878D03*
X017965Y006878D03*
X017965Y007878D03*
X016965Y007878D03*
X016965Y006878D03*
D11*
X001724Y015469D03*
X028685Y025949D03*
X034929Y006295D03*
D12*
X012386Y014476D03*
X012386Y015264D03*
X012386Y016051D03*
X012386Y016839D03*
X004118Y007783D03*
X004118Y006996D03*
X003331Y006996D03*
X003331Y006209D03*
X002543Y006209D03*
X002543Y006996D03*
X002543Y005421D03*
X003331Y005421D03*
D13*
X005102Y006858D03*
X005102Y007528D03*
X006480Y007843D03*
X006480Y008512D03*
X011795Y007528D03*
X011795Y006858D03*
X012780Y005559D03*
X012780Y004890D03*
X011598Y004969D03*
X011598Y004299D03*
X011354Y001984D03*
X011354Y001315D03*
X020378Y005283D03*
X020378Y005953D03*
X022189Y006150D03*
X022189Y005480D03*
X028331Y007646D03*
X028331Y008315D03*
X026559Y011780D03*
X026559Y012449D03*
X027937Y012370D03*
X027937Y013039D03*
X021520Y013039D03*
X021520Y012370D03*
X019079Y011465D03*
X019079Y010795D03*
X013173Y014535D03*
X013173Y015205D03*
X013173Y016110D03*
X013173Y016780D03*
X009944Y019553D03*
X009944Y020222D03*
X008646Y021228D03*
X008646Y021898D03*
X006480Y023000D03*
X006480Y023669D03*
X005496Y023472D03*
X005496Y022803D03*
X004906Y020126D03*
X004906Y019457D03*
X008055Y019339D03*
X008055Y018669D03*
X021835Y019457D03*
X021835Y020126D03*
X024394Y027724D03*
X024394Y028394D03*
D14*
X024387Y010945D02*
X024387Y010737D01*
X024387Y010945D02*
X024409Y010945D01*
X024409Y010737D01*
X024387Y010737D01*
X024387Y010823D02*
X024409Y010823D01*
X024409Y010909D02*
X024387Y010909D01*
X024190Y010945D02*
X024190Y010737D01*
X024190Y010945D02*
X024212Y010945D01*
X024212Y010737D01*
X024190Y010737D01*
X024190Y010823D02*
X024212Y010823D01*
X024212Y010909D02*
X024190Y010909D01*
X023993Y010945D02*
X023993Y010737D01*
X023993Y010945D02*
X024015Y010945D01*
X024015Y010737D01*
X023993Y010737D01*
X023993Y010823D02*
X024015Y010823D01*
X024015Y010909D02*
X023993Y010909D01*
X023796Y010945D02*
X023796Y010737D01*
X023796Y010945D02*
X023818Y010945D01*
X023818Y010737D01*
X023796Y010737D01*
X023796Y010823D02*
X023818Y010823D01*
X023818Y010909D02*
X023796Y010909D01*
X023599Y010945D02*
X023599Y010737D01*
X023599Y010945D02*
X023621Y010945D01*
X023621Y010737D01*
X023599Y010737D01*
X023599Y010823D02*
X023621Y010823D01*
X023621Y010909D02*
X023599Y010909D01*
X023402Y010945D02*
X023402Y010737D01*
X023402Y010945D02*
X023424Y010945D01*
X023424Y010737D01*
X023402Y010737D01*
X023402Y010823D02*
X023424Y010823D01*
X023424Y010909D02*
X023402Y010909D01*
X023206Y010945D02*
X023206Y010737D01*
X023206Y010945D02*
X023228Y010945D01*
X023228Y010737D01*
X023206Y010737D01*
X023206Y010823D02*
X023228Y010823D01*
X023228Y010909D02*
X023206Y010909D01*
X023015Y010524D02*
X022807Y010524D01*
X022807Y010546D01*
X023015Y010546D01*
X023015Y010524D01*
X023015Y010328D02*
X022807Y010328D01*
X022807Y010350D01*
X023015Y010350D01*
X023015Y010328D01*
X023015Y010131D02*
X022807Y010131D01*
X022807Y010153D01*
X023015Y010153D01*
X023015Y010131D01*
X023015Y009934D02*
X022807Y009934D01*
X022807Y009956D01*
X023015Y009956D01*
X023015Y009934D01*
X023015Y009737D02*
X022807Y009737D01*
X022807Y009759D01*
X023015Y009759D01*
X023015Y009737D01*
X023015Y009540D02*
X022807Y009540D01*
X022807Y009562D01*
X023015Y009562D01*
X023015Y009540D01*
X023015Y009343D02*
X022807Y009343D01*
X022807Y009365D01*
X023015Y009365D01*
X023015Y009343D01*
X023015Y009146D02*
X022807Y009146D01*
X022807Y009168D01*
X023015Y009168D01*
X023015Y009146D01*
X023015Y008950D02*
X022807Y008950D01*
X022807Y008972D01*
X023015Y008972D01*
X023015Y008950D01*
X023015Y008753D02*
X022807Y008753D01*
X022807Y008775D01*
X023015Y008775D01*
X023015Y008753D01*
X023015Y008556D02*
X022807Y008556D01*
X022807Y008578D01*
X023015Y008578D01*
X023015Y008556D01*
X023228Y008366D02*
X023228Y008158D01*
X023206Y008158D01*
X023206Y008366D01*
X023228Y008366D01*
X023228Y008244D02*
X023206Y008244D01*
X023206Y008330D02*
X023228Y008330D01*
X023424Y008366D02*
X023424Y008158D01*
X023402Y008158D01*
X023402Y008366D01*
X023424Y008366D01*
X023424Y008244D02*
X023402Y008244D01*
X023402Y008330D02*
X023424Y008330D01*
X023621Y008366D02*
X023621Y008158D01*
X023599Y008158D01*
X023599Y008366D01*
X023621Y008366D01*
X023621Y008244D02*
X023599Y008244D01*
X023599Y008330D02*
X023621Y008330D01*
X023818Y008366D02*
X023818Y008158D01*
X023796Y008158D01*
X023796Y008366D01*
X023818Y008366D01*
X023818Y008244D02*
X023796Y008244D01*
X023796Y008330D02*
X023818Y008330D01*
X024015Y008366D02*
X024015Y008158D01*
X023993Y008158D01*
X023993Y008366D01*
X024015Y008366D01*
X024015Y008244D02*
X023993Y008244D01*
X023993Y008330D02*
X024015Y008330D01*
X024212Y008366D02*
X024212Y008158D01*
X024190Y008158D01*
X024190Y008366D01*
X024212Y008366D01*
X024212Y008244D02*
X024190Y008244D01*
X024190Y008330D02*
X024212Y008330D01*
X024409Y008366D02*
X024409Y008158D01*
X024387Y008158D01*
X024387Y008366D01*
X024409Y008366D01*
X024409Y008244D02*
X024387Y008244D01*
X024387Y008330D02*
X024409Y008330D01*
X024605Y008366D02*
X024605Y008158D01*
X024583Y008158D01*
X024583Y008366D01*
X024605Y008366D01*
X024605Y008244D02*
X024583Y008244D01*
X024583Y008330D02*
X024605Y008330D01*
X024802Y008366D02*
X024802Y008158D01*
X024780Y008158D01*
X024780Y008366D01*
X024802Y008366D01*
X024802Y008244D02*
X024780Y008244D01*
X024780Y008330D02*
X024802Y008330D01*
X024999Y008366D02*
X024999Y008158D01*
X024977Y008158D01*
X024977Y008366D01*
X024999Y008366D01*
X024999Y008244D02*
X024977Y008244D01*
X024977Y008330D02*
X024999Y008330D01*
X025196Y008366D02*
X025196Y008158D01*
X025174Y008158D01*
X025174Y008366D01*
X025196Y008366D01*
X025196Y008244D02*
X025174Y008244D01*
X025174Y008330D02*
X025196Y008330D01*
X025386Y008578D02*
X025594Y008578D01*
X025594Y008556D01*
X025386Y008556D01*
X025386Y008578D01*
X025386Y008775D02*
X025594Y008775D01*
X025594Y008753D01*
X025386Y008753D01*
X025386Y008775D01*
X025386Y008972D02*
X025594Y008972D01*
X025594Y008950D01*
X025386Y008950D01*
X025386Y008972D01*
X025386Y009168D02*
X025594Y009168D01*
X025594Y009146D01*
X025386Y009146D01*
X025386Y009168D01*
X025386Y009365D02*
X025594Y009365D01*
X025594Y009343D01*
X025386Y009343D01*
X025386Y009365D01*
X025386Y009562D02*
X025594Y009562D01*
X025594Y009540D01*
X025386Y009540D01*
X025386Y009562D01*
X025386Y009759D02*
X025594Y009759D01*
X025594Y009737D01*
X025386Y009737D01*
X025386Y009759D01*
X025386Y009956D02*
X025594Y009956D01*
X025594Y009934D01*
X025386Y009934D01*
X025386Y009956D01*
X025386Y010153D02*
X025594Y010153D01*
X025594Y010131D01*
X025386Y010131D01*
X025386Y010153D01*
X025386Y010350D02*
X025594Y010350D01*
X025594Y010328D01*
X025386Y010328D01*
X025386Y010350D01*
X025386Y010546D02*
X025594Y010546D01*
X025594Y010524D01*
X025386Y010524D01*
X025386Y010546D01*
X025174Y010737D02*
X025174Y010945D01*
X025196Y010945D01*
X025196Y010737D01*
X025174Y010737D01*
X025174Y010823D02*
X025196Y010823D01*
X025196Y010909D02*
X025174Y010909D01*
X024977Y010945D02*
X024977Y010737D01*
X024977Y010945D02*
X024999Y010945D01*
X024999Y010737D01*
X024977Y010737D01*
X024977Y010823D02*
X024999Y010823D01*
X024999Y010909D02*
X024977Y010909D01*
X024780Y010945D02*
X024780Y010737D01*
X024780Y010945D02*
X024802Y010945D01*
X024802Y010737D01*
X024780Y010737D01*
X024780Y010823D02*
X024802Y010823D01*
X024802Y010909D02*
X024780Y010909D01*
X024583Y010945D02*
X024583Y010737D01*
X024583Y010945D02*
X024605Y010945D01*
X024605Y010737D01*
X024583Y010737D01*
X024583Y010823D02*
X024605Y010823D01*
X024605Y010909D02*
X024583Y010909D01*
D15*
X025056Y008696D02*
X023346Y008696D01*
X023346Y010406D01*
X025056Y010406D01*
X025056Y008696D01*
X025056Y008885D02*
X023346Y008885D01*
X023346Y009074D02*
X025056Y009074D01*
X025056Y009263D02*
X023346Y009263D01*
X023346Y009452D02*
X025056Y009452D01*
X025056Y009641D02*
X023346Y009641D01*
X023346Y009830D02*
X025056Y009830D01*
X025056Y010019D02*
X023346Y010019D01*
X023346Y010208D02*
X025056Y010208D01*
X025056Y010397D02*
X023346Y010397D01*
D16*
X022121Y010479D02*
X021713Y010479D01*
X021713Y010513D01*
X022121Y010513D01*
X022121Y010479D01*
X022121Y010164D02*
X021713Y010164D01*
X021713Y010198D01*
X022121Y010198D01*
X022121Y010164D01*
X022121Y009849D02*
X021713Y009849D01*
X021713Y009883D01*
X022121Y009883D01*
X022121Y009849D01*
X022121Y009534D02*
X021713Y009534D01*
X021713Y009568D01*
X022121Y009568D01*
X022121Y009534D01*
X022121Y009219D02*
X021713Y009219D01*
X021713Y009253D01*
X022121Y009253D01*
X022121Y009219D01*
X022121Y008904D02*
X021713Y008904D01*
X021713Y008938D01*
X022121Y008938D01*
X022121Y008904D01*
X022121Y008589D02*
X021713Y008589D01*
X021713Y008623D01*
X022121Y008623D01*
X022121Y008589D01*
X022121Y008274D02*
X021713Y008274D01*
X021713Y008308D01*
X022121Y008308D01*
X022121Y008274D01*
X022121Y007959D02*
X021713Y007959D01*
X021713Y007993D01*
X022121Y007993D01*
X022121Y007959D01*
X022609Y007064D02*
X022643Y007064D01*
X022609Y007064D02*
X022609Y007472D01*
X022643Y007472D01*
X022643Y007064D01*
X022643Y007205D02*
X022609Y007205D01*
X022609Y007346D02*
X022643Y007346D01*
X022924Y007064D02*
X022958Y007064D01*
X022924Y007064D02*
X022924Y007472D01*
X022958Y007472D01*
X022958Y007064D01*
X022958Y007205D02*
X022924Y007205D01*
X022924Y007346D02*
X022958Y007346D01*
X023239Y007064D02*
X023273Y007064D01*
X023239Y007064D02*
X023239Y007472D01*
X023273Y007472D01*
X023273Y007064D01*
X023273Y007205D02*
X023239Y007205D01*
X023239Y007346D02*
X023273Y007346D01*
X023554Y007064D02*
X023588Y007064D01*
X023554Y007064D02*
X023554Y007472D01*
X023588Y007472D01*
X023588Y007064D01*
X023588Y007205D02*
X023554Y007205D01*
X023554Y007346D02*
X023588Y007346D01*
X023869Y007064D02*
X023903Y007064D01*
X023869Y007064D02*
X023869Y007472D01*
X023903Y007472D01*
X023903Y007064D01*
X023903Y007205D02*
X023869Y007205D01*
X023869Y007346D02*
X023903Y007346D01*
X024184Y007064D02*
X024218Y007064D01*
X024184Y007064D02*
X024184Y007472D01*
X024218Y007472D01*
X024218Y007064D01*
X024218Y007205D02*
X024184Y007205D01*
X024184Y007346D02*
X024218Y007346D01*
X024499Y007064D02*
X024533Y007064D01*
X024499Y007064D02*
X024499Y007472D01*
X024533Y007472D01*
X024533Y007064D01*
X024533Y007205D02*
X024499Y007205D01*
X024499Y007346D02*
X024533Y007346D01*
X024814Y007064D02*
X024848Y007064D01*
X024814Y007064D02*
X024814Y007472D01*
X024848Y007472D01*
X024848Y007064D01*
X024848Y007205D02*
X024814Y007205D01*
X024814Y007346D02*
X024848Y007346D01*
X025129Y007064D02*
X025163Y007064D01*
X025129Y007064D02*
X025129Y007472D01*
X025163Y007472D01*
X025163Y007064D01*
X025163Y007205D02*
X025129Y007205D01*
X025129Y007346D02*
X025163Y007346D01*
X025444Y007064D02*
X025478Y007064D01*
X025444Y007064D02*
X025444Y007472D01*
X025478Y007472D01*
X025478Y007064D01*
X025478Y007205D02*
X025444Y007205D01*
X025444Y007346D02*
X025478Y007346D01*
X025759Y007064D02*
X025793Y007064D01*
X025759Y007064D02*
X025759Y007472D01*
X025793Y007472D01*
X025793Y007064D01*
X025793Y007205D02*
X025759Y007205D01*
X025759Y007346D02*
X025793Y007346D01*
X026280Y007959D02*
X026688Y007959D01*
X026280Y007959D02*
X026280Y007993D01*
X026688Y007993D01*
X026688Y007959D01*
X026688Y008274D02*
X026280Y008274D01*
X026280Y008308D01*
X026688Y008308D01*
X026688Y008274D01*
X026688Y008589D02*
X026280Y008589D01*
X026280Y008623D01*
X026688Y008623D01*
X026688Y008589D01*
X026688Y008904D02*
X026280Y008904D01*
X026280Y008938D01*
X026688Y008938D01*
X026688Y008904D01*
X026688Y009219D02*
X026280Y009219D01*
X026280Y009253D01*
X026688Y009253D01*
X026688Y009219D01*
X026688Y009534D02*
X026280Y009534D01*
X026280Y009568D01*
X026688Y009568D01*
X026688Y009534D01*
X026688Y009849D02*
X026280Y009849D01*
X026280Y009883D01*
X026688Y009883D01*
X026688Y009849D01*
X026688Y010164D02*
X026280Y010164D01*
X026280Y010198D01*
X026688Y010198D01*
X026688Y010164D01*
X026688Y010479D02*
X026280Y010479D01*
X026280Y010513D01*
X026688Y010513D01*
X026688Y010479D01*
X026688Y010794D02*
X026280Y010794D01*
X026280Y010828D01*
X026688Y010828D01*
X026688Y010794D01*
X026688Y011109D02*
X026280Y011109D01*
X026280Y011143D01*
X026688Y011143D01*
X026688Y011109D01*
X025793Y011631D02*
X025759Y011631D01*
X025759Y012039D01*
X025793Y012039D01*
X025793Y011631D01*
X025793Y011772D02*
X025759Y011772D01*
X025759Y011913D02*
X025793Y011913D01*
X025478Y011631D02*
X025444Y011631D01*
X025444Y012039D01*
X025478Y012039D01*
X025478Y011631D01*
X025478Y011772D02*
X025444Y011772D01*
X025444Y011913D02*
X025478Y011913D01*
X025163Y011631D02*
X025129Y011631D01*
X025129Y012039D01*
X025163Y012039D01*
X025163Y011631D01*
X025163Y011772D02*
X025129Y011772D01*
X025129Y011913D02*
X025163Y011913D01*
X024848Y011631D02*
X024814Y011631D01*
X024814Y012039D01*
X024848Y012039D01*
X024848Y011631D01*
X024848Y011772D02*
X024814Y011772D01*
X024814Y011913D02*
X024848Y011913D01*
X024533Y011631D02*
X024499Y011631D01*
X024499Y012039D01*
X024533Y012039D01*
X024533Y011631D01*
X024533Y011772D02*
X024499Y011772D01*
X024499Y011913D02*
X024533Y011913D01*
X024218Y011631D02*
X024184Y011631D01*
X024184Y012039D01*
X024218Y012039D01*
X024218Y011631D01*
X024218Y011772D02*
X024184Y011772D01*
X024184Y011913D02*
X024218Y011913D01*
X023903Y011631D02*
X023869Y011631D01*
X023869Y012039D01*
X023903Y012039D01*
X023903Y011631D01*
X023903Y011772D02*
X023869Y011772D01*
X023869Y011913D02*
X023903Y011913D01*
X023588Y011631D02*
X023554Y011631D01*
X023554Y012039D01*
X023588Y012039D01*
X023588Y011631D01*
X023588Y011772D02*
X023554Y011772D01*
X023554Y011913D02*
X023588Y011913D01*
X023273Y011631D02*
X023239Y011631D01*
X023239Y012039D01*
X023273Y012039D01*
X023273Y011631D01*
X023273Y011772D02*
X023239Y011772D01*
X023239Y011913D02*
X023273Y011913D01*
X022958Y011631D02*
X022924Y011631D01*
X022924Y012039D01*
X022958Y012039D01*
X022958Y011631D01*
X022958Y011772D02*
X022924Y011772D01*
X022924Y011913D02*
X022958Y011913D01*
X022643Y011631D02*
X022609Y011631D01*
X022609Y012039D01*
X022643Y012039D01*
X022643Y011631D01*
X022643Y011772D02*
X022609Y011772D01*
X022609Y011913D02*
X022643Y011913D01*
X022121Y011109D02*
X021713Y011109D01*
X021713Y011143D01*
X022121Y011143D01*
X022121Y011109D01*
X022121Y010794D02*
X021713Y010794D01*
X021713Y010828D01*
X022121Y010828D01*
X022121Y010794D01*
D17*
X024201Y009551D03*
D18*
X024918Y018104D03*
X025391Y018104D03*
X025863Y018104D03*
X026336Y018104D03*
X026808Y018104D03*
X027281Y018104D03*
X027753Y018104D03*
X028225Y018104D03*
X028698Y018104D03*
X029170Y018104D03*
X029643Y018104D03*
X030115Y018104D03*
X030588Y018104D03*
X030588Y023616D03*
X030115Y023616D03*
X029643Y023616D03*
X029170Y023616D03*
X028698Y023616D03*
X028225Y023616D03*
X027753Y023616D03*
X027281Y023616D03*
X026808Y023616D03*
X026336Y023616D03*
X025863Y023616D03*
X025391Y023616D03*
X024918Y023616D03*
D19*
X023698Y022002D03*
X023698Y021530D03*
X023698Y021057D03*
X023698Y020585D03*
X023698Y020112D03*
X023698Y019640D03*
D20*
X021506Y025145D03*
X020719Y025145D03*
X019931Y025145D03*
X019144Y025145D03*
D21*
X001256Y018979D03*
X001256Y018221D03*
D22*
X001404Y017527D03*
X001404Y019673D03*
D23*
X002024Y019776D03*
X002024Y017424D03*
D24*
X002547Y017458D03*
X002547Y019742D03*
D25*
X002467Y019112D03*
X002467Y018856D03*
X002467Y018600D03*
X002467Y018344D03*
X002467Y018088D03*
D26*
X022100Y004043D03*
X025900Y004043D03*
D27*
X009768Y008177D03*
X009768Y008374D03*
X009768Y008571D03*
X009768Y008768D03*
X009768Y008965D03*
X008705Y008965D03*
X008705Y008768D03*
X008705Y008571D03*
X008705Y008374D03*
X008705Y008177D03*
D28*
X009236Y008571D03*
D29*
X008646Y007547D03*
X008646Y006839D03*
X008646Y003413D03*
X008646Y002705D03*
X007858Y002705D03*
X007858Y003413D03*
X003921Y019437D03*
X003921Y020146D03*
X008959Y020242D03*
X008959Y019533D03*
X012976Y020028D03*
X012976Y020736D03*
D30*
X013035Y019398D03*
X013705Y019398D03*
X018350Y022941D03*
X019020Y022941D03*
X020319Y016445D03*
X020988Y016445D03*
X023272Y012902D03*
X023941Y012902D03*
X020594Y009555D03*
X019925Y009555D03*
X023665Y006484D03*
X024335Y006484D03*
X024453Y005618D03*
X025122Y005618D03*
X023547Y005618D03*
X022878Y005618D03*
X031736Y004831D03*
X032406Y004831D03*
X013508Y007941D03*
X012839Y007941D03*
X012839Y008768D03*
X013508Y008768D03*
X011146Y011130D03*
X010476Y011130D03*
X011854Y012311D03*
X012524Y012311D03*
X007602Y006996D03*
X006933Y006996D03*
X008705Y005224D03*
X009374Y005224D03*
D31*
X007661Y007941D03*
X007661Y009201D03*
D32*
X009433Y003984D03*
X009630Y003984D03*
X009827Y003984D03*
X010024Y003984D03*
X010220Y003984D03*
X010220Y002921D03*
X010024Y002921D03*
X009827Y002921D03*
X009630Y002921D03*
X009433Y002921D03*
D33*
X009827Y003453D03*
D34*
X010654Y002862D03*
X011362Y002862D03*
X009394Y009555D03*
X008685Y009555D03*
X008685Y010146D03*
X009394Y010146D03*
D35*
X009197Y001878D03*
X010457Y001878D03*
D36*
X009630Y012429D03*
X008843Y012429D03*
D37*
X007898Y014476D03*
X010575Y014476D03*
D38*
X011165Y021169D03*
X009709Y021169D03*
D39*
X013173Y011563D03*
X012799Y010697D03*
X013547Y010697D03*
X013587Y005657D03*
X014335Y005657D03*
X013961Y004791D03*
D40*
X028634Y003138D03*
X029618Y003138D03*
X030602Y003138D03*
X031587Y003138D03*
X015317Y022404D03*
X014333Y022404D03*
X014333Y023388D03*
X015317Y023388D03*
X015317Y024372D03*
X014333Y024372D03*
D41*
X003575Y022750D03*
X003575Y021750D03*
X025825Y028375D03*
X026825Y028375D03*
D42*
X007110Y021563D03*
X006244Y021937D03*
X006244Y021189D03*
D43*
X001700Y008575D03*
X001700Y007787D03*
X001700Y007000D03*
X001700Y006213D03*
X001700Y005425D03*
D44*
X022274Y015410D03*
X022274Y016158D03*
X023297Y016158D03*
X023297Y015784D03*
X023297Y015410D03*
X023364Y017912D03*
X023364Y018660D03*
X022341Y018660D03*
X022341Y018286D03*
X022341Y017912D03*
D45*
X019423Y004181D03*
X019423Y002724D03*
X017553Y002724D03*
X017553Y004181D03*
D46*
X012159Y019496D03*
X012159Y019693D03*
X012159Y019890D03*
X012159Y020087D03*
X011037Y020087D03*
X011037Y019890D03*
X011037Y019693D03*
X011037Y019496D03*
D47*
X011598Y019594D03*
D48*
X006874Y016287D03*
X006874Y015421D03*
D49*
X003567Y008571D03*
X002701Y008571D03*
X029276Y008374D03*
X030142Y008374D03*
D50*
X007258Y019211D03*
X007258Y019467D03*
X007258Y019722D03*
X007258Y019978D03*
X005703Y019978D03*
X005703Y019722D03*
X005703Y019467D03*
X005703Y019211D03*
D51*
X015055Y019004D03*
X017591Y019004D03*
D52*
X013037Y022154D03*
X011735Y022154D03*
D53*
X012937Y002665D03*
X013803Y002665D03*
D54*
X013528Y003433D03*
X013213Y003433D03*
D55*
X012878Y004791D02*
X012780Y004890D01*
X010528Y003815D02*
X010528Y003256D01*
X010431Y003256D01*
X010393Y003218D01*
X010335Y003276D01*
X009909Y003276D01*
X009827Y003193D01*
X009744Y003276D01*
X009319Y003276D01*
X009226Y003183D01*
X009226Y003028D01*
X007772Y003028D01*
X007772Y004159D01*
X007780Y004178D01*
X007780Y004209D01*
X009226Y004209D01*
X009226Y003722D01*
X009319Y003630D01*
X009548Y003630D01*
X009630Y003712D01*
X009712Y003630D01*
X010335Y003630D01*
X010427Y003722D01*
X010427Y003815D01*
X010528Y003815D01*
X010528Y003744D02*
X010427Y003744D01*
X010372Y003667D02*
X010528Y003667D01*
X010528Y003590D02*
X007772Y003590D01*
X007772Y003667D02*
X009282Y003667D01*
X009226Y003744D02*
X007772Y003744D01*
X007772Y003821D02*
X009226Y003821D01*
X009226Y003899D02*
X007772Y003899D01*
X007772Y003976D02*
X009226Y003976D01*
X009226Y004053D02*
X007772Y004053D01*
X007772Y004130D02*
X009226Y004130D01*
X009226Y004208D02*
X007780Y004208D01*
X007772Y003512D02*
X010528Y003512D01*
X010528Y003435D02*
X007772Y003435D01*
X007772Y003358D02*
X010528Y003358D01*
X010528Y003281D02*
X007772Y003281D01*
X007772Y003203D02*
X009246Y003203D01*
X009226Y003126D02*
X007772Y003126D01*
X007772Y003049D02*
X009226Y003049D01*
X009413Y002831D02*
X009413Y002429D01*
X008895Y002429D01*
X008803Y002337D01*
X008803Y002240D01*
X007378Y002240D01*
X007378Y003028D01*
X007575Y003028D01*
X007575Y002946D01*
X007690Y002831D01*
X009413Y002831D01*
X009413Y002817D02*
X007378Y002817D01*
X007378Y002740D02*
X009413Y002740D01*
X009413Y002663D02*
X007378Y002663D01*
X007378Y002585D02*
X009413Y002585D01*
X009413Y002508D02*
X007378Y002508D01*
X007378Y002431D02*
X009413Y002431D01*
X009827Y002921D02*
X009827Y003453D01*
X009630Y003650D01*
X009630Y003984D01*
X009433Y003984D02*
X009433Y004634D01*
X009730Y005028D02*
X009730Y005185D01*
X009413Y005185D01*
X009413Y005264D01*
X009335Y005264D01*
X009335Y005561D01*
X009236Y005561D01*
X009236Y005618D01*
X009827Y005618D01*
X009827Y005028D01*
X009730Y005028D01*
X009730Y005057D02*
X009827Y005057D01*
X009827Y005134D02*
X009730Y005134D01*
X009827Y005212D02*
X009413Y005212D01*
X009413Y005264D02*
X009730Y005264D01*
X009730Y005440D01*
X009720Y005475D01*
X009702Y005507D01*
X009676Y005533D01*
X009644Y005551D01*
X009609Y005561D01*
X009413Y005561D01*
X009413Y005264D01*
X009413Y005289D02*
X009335Y005289D01*
X009335Y005366D02*
X009413Y005366D01*
X009413Y005443D02*
X009335Y005443D01*
X009335Y005521D02*
X009413Y005521D01*
X009236Y005598D02*
X009827Y005598D01*
X009827Y005521D02*
X009688Y005521D01*
X009729Y005443D02*
X009827Y005443D01*
X009827Y005366D02*
X009730Y005366D01*
X009730Y005289D02*
X009827Y005289D01*
X009675Y003667D02*
X009584Y003667D01*
X009817Y003203D02*
X009837Y003203D01*
X008820Y002354D02*
X007378Y002354D01*
X007378Y002277D02*
X008803Y002277D01*
X007626Y002894D02*
X007378Y002894D01*
X007378Y002972D02*
X007575Y002972D01*
X008646Y007547D02*
X008685Y007587D01*
X008705Y008571D02*
X009236Y008571D01*
X009433Y008768D01*
X009768Y008768D01*
X008705Y008965D02*
X008685Y008984D01*
X008685Y009555D01*
X012189Y008768D02*
X012839Y008768D01*
X017965Y007878D02*
X017992Y007878D01*
X018094Y007980D01*
X020594Y009555D02*
X020598Y009551D01*
X021917Y009551D01*
X022911Y009551D01*
X022911Y009354D02*
X022303Y009354D01*
X022189Y009240D01*
X021921Y009240D01*
X021917Y009236D01*
X021921Y008925D02*
X021917Y008921D01*
X021921Y008925D02*
X022189Y008925D01*
X022421Y009157D01*
X022911Y009157D01*
X022911Y008961D02*
X022539Y008961D01*
X022189Y008610D01*
X022189Y008295D02*
X022657Y008764D01*
X022911Y008764D01*
X022911Y008567D02*
X022894Y008567D01*
X022307Y007980D01*
X022622Y007547D02*
X023217Y008142D01*
X023217Y008262D01*
X023413Y008262D02*
X023413Y008024D01*
X022937Y007547D01*
X023252Y007547D02*
X023252Y007272D01*
X023256Y007268D01*
X023252Y007547D02*
X023610Y007906D01*
X023610Y008262D01*
X023807Y008262D02*
X023807Y009157D01*
X024201Y009551D01*
X024988Y010339D01*
X024988Y010841D01*
X024988Y011094D01*
X025457Y011563D01*
X025457Y011768D01*
X025461Y011772D01*
X025461Y011835D01*
X025457Y011831D02*
X025457Y011768D01*
X025146Y011835D02*
X025142Y011831D01*
X025142Y011563D01*
X024791Y011213D01*
X024791Y010841D01*
X024594Y010841D02*
X024594Y011331D01*
X024827Y011563D01*
X024827Y011831D01*
X024831Y011835D01*
X024516Y011835D02*
X024512Y011831D01*
X024512Y011563D01*
X024398Y011449D01*
X024398Y010841D01*
X024201Y010841D02*
X024201Y011835D01*
X023886Y011835D02*
X023882Y011831D01*
X023882Y011563D01*
X024004Y011441D01*
X024004Y010841D01*
X023807Y010841D02*
X023807Y011323D01*
X023567Y011563D01*
X023567Y011831D01*
X023571Y011835D01*
X023256Y011835D02*
X023252Y011831D01*
X023252Y011563D01*
X023610Y011205D01*
X023610Y010841D01*
X023413Y010841D02*
X023413Y011087D01*
X022937Y011563D01*
X022937Y011831D01*
X022941Y011835D01*
X022626Y011835D02*
X022622Y011831D01*
X022622Y011445D01*
X023217Y010850D01*
X023217Y010841D01*
X023413Y010841D02*
X023413Y010339D01*
X024201Y009551D01*
X025490Y009551D02*
X026484Y009551D01*
X026480Y009240D02*
X026205Y009240D01*
X026091Y009354D01*
X025490Y009354D01*
X025490Y009157D02*
X025972Y009157D01*
X026205Y008925D01*
X026480Y008925D01*
X026484Y008921D01*
X026480Y008610D02*
X026205Y008610D01*
X025854Y008961D01*
X025490Y008961D01*
X025490Y008764D02*
X025736Y008764D01*
X026205Y008295D01*
X026480Y008295D01*
X026484Y008291D01*
X026480Y007980D02*
X026087Y007980D01*
X025500Y008567D01*
X025490Y008567D01*
X025185Y008262D02*
X025185Y008252D01*
X025772Y007665D01*
X025772Y007272D01*
X025776Y007268D01*
X025461Y007268D02*
X025457Y007272D01*
X025457Y007547D01*
X024988Y008016D01*
X024988Y008262D01*
X024791Y008262D02*
X024791Y007898D01*
X025142Y007547D01*
X025142Y007272D01*
X025146Y007268D01*
X024831Y007268D02*
X024827Y007272D01*
X024827Y007547D01*
X024594Y007780D01*
X024594Y008262D01*
X024398Y008262D02*
X024398Y007661D01*
X024512Y007547D01*
X024512Y007272D01*
X024516Y007268D01*
X024201Y007268D02*
X024201Y008262D01*
X024004Y008262D02*
X024004Y007669D01*
X023882Y007547D01*
X023882Y007272D01*
X023886Y007268D01*
X023571Y007268D02*
X023571Y007299D01*
X023567Y007303D01*
X023567Y007272D01*
X023567Y007303D02*
X023567Y007547D01*
X023807Y007787D01*
X023807Y008262D01*
X022911Y009748D02*
X022311Y009748D01*
X022189Y009870D01*
X021921Y009870D01*
X021917Y009866D01*
X021917Y010181D02*
X021921Y010185D01*
X022189Y010185D01*
X022429Y009945D01*
X022911Y009945D01*
X022911Y010142D02*
X022547Y010142D01*
X022189Y010500D01*
X021921Y010500D01*
X021917Y010496D01*
X021917Y010811D02*
X021921Y010815D01*
X022189Y010815D01*
X022665Y010339D01*
X022911Y010339D01*
X022911Y010535D02*
X022902Y010535D01*
X022307Y011130D01*
X021921Y011130D01*
X021917Y011126D01*
X025185Y010858D02*
X025185Y010841D01*
X025490Y010535D02*
X025492Y010535D01*
X026087Y011130D01*
X026480Y011130D01*
X026484Y011126D01*
X026480Y010815D02*
X026205Y010815D01*
X025728Y010339D01*
X025490Y010339D01*
X025490Y010142D02*
X025846Y010142D01*
X026205Y010500D01*
X026480Y010500D01*
X026484Y010496D01*
X026480Y010185D02*
X026205Y010185D01*
X025965Y009945D01*
X025490Y009945D01*
X025490Y009748D02*
X026083Y009748D01*
X026205Y009870D01*
X026480Y009870D01*
X026484Y009866D01*
X026484Y010181D02*
X026480Y010185D01*
X026484Y010811D02*
X026480Y010815D01*
X026480Y009240D02*
X026484Y009236D01*
X026480Y008610D02*
X026484Y008606D01*
X026480Y007980D02*
X026484Y007976D01*
X025900Y004043D02*
X024984Y004043D01*
X023016Y004043D02*
X022100Y004043D01*
X022260Y018217D02*
X020850Y018217D01*
X022260Y018217D02*
X022330Y018286D01*
X022341Y018286D01*
X024675Y018104D02*
X024918Y018104D01*
X012268Y019209D02*
X012159Y019317D01*
X012159Y019496D01*
X011037Y019496D02*
X011037Y019254D01*
X010992Y019209D01*
X002024Y019776D02*
X001920Y019673D01*
X001404Y019673D01*
X001256Y019525D01*
X001256Y018979D01*
X001256Y018221D02*
X001256Y017675D01*
X001404Y017527D01*
X001920Y017527D01*
X002024Y017424D01*
X024394Y028394D02*
X024412Y028375D01*
X025825Y028375D01*
D56*
X024394Y022744D02*
X024984Y022154D01*
X028528Y022154D01*
X025391Y018104D02*
X025391Y016261D01*
X024914Y015784D01*
X023297Y015784D01*
X022274Y015410D02*
X022223Y015461D01*
X021441Y015461D01*
X021047Y015854D01*
X021047Y016445D01*
X020988Y016445D01*
X022228Y016445D02*
X022228Y016204D01*
X022274Y016158D01*
X022228Y016445D02*
X022425Y016642D01*
X024787Y016642D01*
X025969Y016642D02*
X027937Y016642D01*
X029118Y014673D02*
X024984Y014673D01*
X024787Y014870D01*
X017110Y014870D01*
X016126Y014476D02*
X024787Y014476D01*
X024831Y014433D01*
X024831Y011835D01*
X024591Y011909D02*
X024591Y014083D01*
X015339Y014083D01*
X013567Y013295D02*
X018882Y013295D01*
X019669Y012508D01*
X019669Y011917D01*
X020063Y011524D01*
X021402Y010185D01*
X021921Y010185D01*
X021921Y009870D02*
X021323Y009870D01*
X020654Y010539D01*
X019925Y009811D01*
X019925Y009555D01*
X019276Y008965D02*
X020850Y008965D01*
X021126Y009240D01*
X021921Y009240D01*
X021921Y008610D02*
X021917Y008606D01*
X021209Y008606D01*
X021173Y008571D01*
X020850Y008571D01*
X019866Y007587D01*
X018882Y007587D01*
X018173Y006878D01*
X017965Y006878D01*
X018291Y006406D02*
X017437Y006406D01*
X016965Y006878D01*
X016965Y005878D02*
X016965Y005370D01*
X017307Y005028D01*
X018291Y005028D01*
X018882Y005618D01*
X019866Y005618D01*
X020201Y005953D01*
X020378Y005953D01*
X020437Y006012D01*
X020654Y006012D01*
X020850Y006209D01*
X022228Y006209D01*
X022228Y006189D01*
X022189Y006150D01*
X022228Y006209D02*
X022819Y006209D01*
X023252Y006642D01*
X023252Y007272D01*
X022941Y007268D02*
X022941Y006724D01*
X022819Y006602D01*
X020654Y006602D01*
X020457Y006406D01*
X019472Y006406D01*
X019276Y006209D01*
X019079Y006799D02*
X020260Y006799D01*
X021354Y007894D01*
X021835Y007894D01*
X021917Y007976D01*
X021921Y007980D01*
X022307Y007980D01*
X022189Y008295D02*
X021921Y008295D01*
X021165Y008295D01*
X020063Y007193D01*
X019079Y007193D01*
X018291Y006406D01*
X018157Y005878D02*
X019079Y006799D01*
X018157Y005878D02*
X017965Y005878D01*
X019472Y004831D02*
X019925Y004831D01*
X020378Y005283D01*
X019472Y004831D02*
X019472Y004230D01*
X019423Y004181D01*
X017553Y004181D01*
X020654Y002862D02*
X020654Y002075D01*
X012319Y002075D01*
X012072Y001828D01*
X011995Y001751D01*
X011893Y001709D01*
X011748Y001709D01*
X011748Y001686D01*
X011697Y001636D01*
X011718Y001600D01*
X011730Y001555D01*
X011730Y001335D01*
X011374Y001335D01*
X011374Y001295D01*
X011374Y000920D01*
X011575Y000920D01*
X011620Y000932D01*
X011661Y000955D01*
X011694Y000989D01*
X011718Y001029D01*
X011730Y001075D01*
X011730Y001295D01*
X011374Y001295D01*
X011335Y001295D01*
X011335Y000920D01*
X011134Y000920D01*
X011088Y000932D01*
X011048Y000955D01*
X011014Y000989D01*
X010991Y001029D01*
X010979Y001075D01*
X010979Y001295D01*
X011335Y001295D01*
X011335Y001335D01*
X010979Y001335D01*
X010979Y001555D01*
X010991Y001600D01*
X011011Y001636D01*
X010961Y001686D01*
X010961Y002075D01*
X010890Y002075D01*
X010890Y001403D01*
X010774Y001287D01*
X010139Y001287D01*
X010024Y001403D01*
X010024Y001921D01*
X009870Y002075D01*
X009783Y002075D01*
X009630Y001921D01*
X009630Y001403D01*
X009515Y001287D01*
X008879Y001287D01*
X008764Y001403D01*
X008764Y002353D01*
X008779Y002369D01*
X008646Y002369D01*
X008646Y002705D01*
X008646Y002705D01*
X008646Y002705D01*
X008273Y002705D01*
X007858Y002705D01*
X007858Y002705D01*
X007443Y002705D01*
X007443Y002886D01*
X007455Y002931D01*
X007479Y002972D01*
X007512Y003005D01*
X007535Y003019D01*
X007535Y003064D01*
X007425Y003174D01*
X007425Y003652D01*
X007535Y003763D01*
X007535Y004307D01*
X007661Y004432D01*
X007661Y004437D01*
X007268Y004437D01*
X007268Y004265D01*
X007304Y004000D01*
X007268Y003735D01*
X007268Y000734D01*
X033442Y000734D01*
X033289Y000876D01*
X033289Y000876D01*
X033289Y000876D01*
X033009Y001336D01*
X033009Y001336D01*
X032864Y001855D01*
X032864Y002395D01*
X033009Y002914D01*
X033009Y002914D01*
X033289Y003374D01*
X033289Y003374D01*
X033449Y003523D01*
X033449Y011957D01*
X031087Y011957D01*
X031087Y004043D01*
X027740Y004043D01*
X027740Y002862D01*
X020654Y002862D01*
X020654Y002840D02*
X028171Y002840D01*
X028171Y002791D02*
X028287Y002675D01*
X028981Y002675D01*
X029096Y002791D01*
X029096Y003485D01*
X028981Y003600D01*
X028287Y003600D01*
X028171Y003485D01*
X028171Y002791D01*
X028278Y002684D02*
X020654Y002684D01*
X020654Y002528D02*
X032901Y002528D01*
X032864Y002372D02*
X020654Y002372D01*
X020654Y002216D02*
X032864Y002216D01*
X032864Y002060D02*
X012304Y002060D01*
X012148Y001904D02*
X032864Y001904D01*
X032894Y001748D02*
X011988Y001748D01*
X011839Y001984D02*
X011354Y001984D01*
X010961Y002060D02*
X010890Y002060D01*
X010890Y001904D02*
X010961Y001904D01*
X010961Y001748D02*
X010890Y001748D01*
X010890Y001592D02*
X010989Y001592D01*
X010979Y001436D02*
X010890Y001436D01*
X010979Y001280D02*
X007268Y001280D01*
X007268Y001436D02*
X008764Y001436D01*
X008764Y001592D02*
X007268Y001592D01*
X007268Y001748D02*
X008764Y001748D01*
X008764Y001904D02*
X007268Y001904D01*
X007268Y002060D02*
X008764Y002060D01*
X008764Y002216D02*
X007268Y002216D01*
X007268Y002372D02*
X007586Y002372D01*
X007599Y002369D02*
X007553Y002381D01*
X007512Y002404D01*
X007479Y002437D01*
X007455Y002478D01*
X007443Y002524D01*
X007443Y002705D01*
X007858Y002705D01*
X007858Y002705D01*
X007858Y002705D01*
X007858Y002369D01*
X007599Y002369D01*
X007443Y002528D02*
X007268Y002528D01*
X007268Y002684D02*
X007443Y002684D01*
X007443Y002840D02*
X007268Y002840D01*
X007268Y002996D02*
X007503Y002996D01*
X007448Y003152D02*
X007268Y003152D01*
X007268Y003308D02*
X007425Y003308D01*
X007425Y003464D02*
X007268Y003464D01*
X007268Y003620D02*
X007425Y003620D01*
X007535Y003776D02*
X007273Y003776D01*
X007295Y003932D02*
X007535Y003932D01*
X007535Y004088D02*
X007292Y004088D01*
X007271Y004244D02*
X007535Y004244D01*
X007628Y004400D02*
X007268Y004400D01*
X007858Y002705D02*
X008646Y002705D01*
X008646Y002369D01*
X008386Y002369D01*
X008340Y002381D01*
X008300Y002404D01*
X008266Y002437D01*
X008252Y002463D01*
X008238Y002437D01*
X008204Y002404D01*
X008163Y002381D01*
X008118Y002369D01*
X007858Y002369D01*
X007858Y002705D01*
X007858Y002684D02*
X007858Y002684D01*
X007858Y002528D02*
X007858Y002528D01*
X007858Y002372D02*
X007858Y002372D01*
X008130Y002372D02*
X008374Y002372D01*
X008646Y002372D02*
X008646Y002372D01*
X008646Y002528D02*
X008646Y002528D01*
X008646Y002684D02*
X008646Y002684D01*
X009197Y001878D02*
X009630Y002311D01*
X009768Y002060D02*
X009885Y002060D01*
X010024Y001904D02*
X009630Y001904D01*
X009630Y001748D02*
X010024Y001748D01*
X010024Y001592D02*
X009630Y001592D01*
X009630Y001436D02*
X010024Y001436D01*
X010457Y001878D02*
X010024Y002311D01*
X010979Y001124D02*
X007268Y001124D01*
X007268Y000968D02*
X011035Y000968D01*
X011335Y000968D02*
X011374Y000968D01*
X011374Y001124D02*
X011335Y001124D01*
X011335Y001280D02*
X011374Y001280D01*
X011730Y001280D02*
X033044Y001280D01*
X032981Y001436D02*
X011730Y001436D01*
X011720Y001592D02*
X032938Y001592D01*
X033139Y001124D02*
X011730Y001124D01*
X011673Y000968D02*
X033233Y000968D01*
X033358Y000812D02*
X007268Y000812D01*
X011839Y001984D02*
X012189Y002335D01*
X012189Y004634D01*
X012189Y004831D01*
X011992Y005028D01*
X011657Y005028D01*
X011598Y004969D01*
X013488Y005559D02*
X013587Y005657D01*
X013567Y005677D01*
X014335Y005657D02*
X014551Y005874D01*
X014551Y007193D01*
X016520Y009161D01*
X019079Y011465D02*
X019217Y011327D01*
X019866Y011327D01*
X020654Y010539D01*
X020654Y011327D02*
X021480Y010500D01*
X021921Y010500D01*
X021921Y010815D02*
X021559Y010815D01*
X021441Y010933D01*
X021441Y011720D01*
X021520Y011799D01*
X021520Y012370D01*
X022425Y012902D02*
X022622Y012705D01*
X022622Y011839D01*
X022626Y011835D01*
X023256Y011835D02*
X023256Y012858D01*
X023213Y012902D01*
X023213Y012843D01*
X023272Y012902D01*
X025146Y011835D02*
X025146Y014047D01*
X025181Y014083D01*
X030496Y014083D01*
X027937Y013098D02*
X027937Y013039D01*
X026165Y013098D02*
X025772Y012705D01*
X025772Y011831D01*
X025776Y011835D01*
X025776Y011449D01*
X025185Y010858D01*
X025461Y011835D02*
X025461Y012984D01*
X025772Y013295D01*
X026559Y011780D02*
X026480Y011701D01*
X026480Y011130D01*
X026480Y010815D02*
X029197Y010815D01*
X029906Y011524D01*
X031087Y011575D02*
X033449Y011575D01*
X033449Y011731D02*
X031087Y011731D01*
X031087Y011887D02*
X033449Y011887D01*
X033449Y011419D02*
X031087Y011419D01*
X031087Y011263D02*
X033449Y011263D01*
X033449Y011107D02*
X031087Y011107D01*
X031087Y010951D02*
X033449Y010951D01*
X033449Y010795D02*
X031087Y010795D01*
X031087Y010639D02*
X033449Y010639D01*
X033449Y010483D02*
X031087Y010483D01*
X031087Y010327D02*
X033449Y010327D01*
X033449Y010171D02*
X031087Y010171D01*
X031087Y010015D02*
X033449Y010015D01*
X033449Y009859D02*
X031087Y009859D01*
X031087Y009703D02*
X033449Y009703D01*
X033449Y009547D02*
X031087Y009547D01*
X031087Y009391D02*
X033449Y009391D01*
X033449Y009235D02*
X031087Y009235D01*
X031087Y009079D02*
X033449Y009079D01*
X033449Y008923D02*
X031087Y008923D01*
X031087Y008767D02*
X033449Y008767D01*
X033449Y008611D02*
X031087Y008611D01*
X031087Y008455D02*
X033449Y008455D01*
X033449Y008299D02*
X031087Y008299D01*
X031087Y008143D02*
X033449Y008143D01*
X033449Y007987D02*
X031087Y007987D01*
X031087Y007831D02*
X033449Y007831D01*
X033449Y007675D02*
X031087Y007675D01*
X031087Y007519D02*
X033449Y007519D01*
X033449Y007363D02*
X031087Y007363D01*
X031087Y007207D02*
X033449Y007207D01*
X033449Y007051D02*
X031087Y007051D01*
X031087Y006895D02*
X033449Y006895D01*
X033449Y006739D02*
X031087Y006739D01*
X031087Y006583D02*
X033449Y006583D01*
X033449Y006427D02*
X031087Y006427D01*
X031087Y006271D02*
X033449Y006271D01*
X033449Y006115D02*
X031087Y006115D01*
X031087Y005959D02*
X033449Y005959D01*
X033449Y005803D02*
X031087Y005803D01*
X031087Y005647D02*
X033449Y005647D01*
X033449Y005491D02*
X031087Y005491D01*
X031087Y005335D02*
X033449Y005335D01*
X033449Y005179D02*
X032716Y005179D01*
X032732Y005171D02*
X032691Y005194D01*
X032646Y005206D01*
X032425Y005206D01*
X032425Y004850D01*
X032801Y004850D01*
X032801Y005051D01*
X032789Y005097D01*
X032765Y005137D01*
X032732Y005171D01*
X032801Y005023D02*
X033449Y005023D01*
X033449Y004867D02*
X032801Y004867D01*
X032801Y004811D02*
X032425Y004811D01*
X032425Y004455D01*
X032646Y004455D01*
X032691Y004467D01*
X032732Y004491D01*
X032765Y004524D01*
X032789Y004565D01*
X032801Y004610D01*
X032801Y004811D01*
X032801Y004711D02*
X033449Y004711D01*
X033449Y004555D02*
X032783Y004555D01*
X032425Y004555D02*
X032386Y004555D01*
X032386Y004455D02*
X032386Y004811D01*
X032425Y004811D01*
X032425Y004850D01*
X032386Y004850D01*
X032386Y005206D01*
X032165Y005206D01*
X032120Y005194D01*
X032085Y005174D01*
X032034Y005224D01*
X031438Y005224D01*
X031323Y005109D01*
X031323Y004552D01*
X031438Y004437D01*
X031459Y004437D01*
X031459Y003600D01*
X031239Y003600D01*
X031124Y003485D01*
X031124Y002791D01*
X031239Y002675D01*
X031934Y002675D01*
X032049Y002791D01*
X032049Y003485D01*
X032013Y003521D01*
X032013Y004437D01*
X032034Y004437D01*
X032085Y004488D01*
X032120Y004467D01*
X032165Y004455D01*
X032386Y004455D01*
X032386Y004711D02*
X032425Y004711D01*
X032425Y004867D02*
X032386Y004867D01*
X032386Y005023D02*
X032425Y005023D01*
X032425Y005179D02*
X032386Y005179D01*
X032095Y005179D02*
X032079Y005179D01*
X031393Y005179D02*
X031087Y005179D01*
X031087Y005023D02*
X031323Y005023D01*
X031323Y004867D02*
X031087Y004867D01*
X031087Y004711D02*
X031323Y004711D01*
X031323Y004555D02*
X031087Y004555D01*
X031087Y004400D02*
X031459Y004400D01*
X031459Y004244D02*
X031087Y004244D01*
X031087Y004088D02*
X031459Y004088D01*
X031459Y003932D02*
X027740Y003932D01*
X027740Y003776D02*
X031459Y003776D01*
X031459Y003620D02*
X027740Y003620D01*
X027740Y003464D02*
X028171Y003464D01*
X028171Y003308D02*
X027740Y003308D01*
X027740Y003152D02*
X028171Y003152D01*
X028171Y002996D02*
X027740Y002996D01*
X028990Y002684D02*
X030247Y002684D01*
X030255Y002675D02*
X030950Y002675D01*
X031065Y002791D01*
X031065Y003485D01*
X030950Y003600D01*
X030255Y003600D01*
X030140Y003485D01*
X030140Y002791D01*
X030255Y002675D01*
X030140Y002840D02*
X030060Y002840D01*
X030063Y002849D02*
X030063Y003128D01*
X029628Y003128D01*
X029628Y003148D01*
X029608Y003148D01*
X029608Y003582D01*
X029329Y003582D01*
X029283Y003570D01*
X029243Y003547D01*
X029209Y003513D01*
X029186Y003473D01*
X029174Y003427D01*
X029174Y003148D01*
X029608Y003148D01*
X029608Y003128D01*
X029174Y003128D01*
X029174Y002849D01*
X029186Y002803D01*
X029209Y002762D01*
X029243Y002729D01*
X029283Y002705D01*
X029329Y002693D01*
X029608Y002693D01*
X029608Y003128D01*
X029628Y003128D01*
X029628Y002693D01*
X029907Y002693D01*
X029953Y002705D01*
X029994Y002729D01*
X030027Y002762D01*
X030050Y002803D01*
X030063Y002849D01*
X030063Y002996D02*
X030140Y002996D01*
X030140Y003152D02*
X030063Y003152D01*
X030063Y003148D02*
X030063Y003427D01*
X030050Y003473D01*
X030027Y003513D01*
X029994Y003547D01*
X029953Y003570D01*
X029907Y003582D01*
X029628Y003582D01*
X029628Y003148D01*
X030063Y003148D01*
X030063Y003308D02*
X030140Y003308D01*
X030140Y003464D02*
X030053Y003464D01*
X029628Y003464D02*
X029608Y003464D01*
X029608Y003308D02*
X029628Y003308D01*
X029628Y003152D02*
X029608Y003152D01*
X029608Y002996D02*
X029628Y002996D01*
X029628Y002840D02*
X029608Y002840D01*
X029176Y002840D02*
X029096Y002840D01*
X029096Y002996D02*
X029174Y002996D01*
X029174Y003152D02*
X029096Y003152D01*
X029096Y003308D02*
X029174Y003308D01*
X029183Y003464D02*
X029096Y003464D01*
X031065Y003464D02*
X031124Y003464D01*
X031124Y003308D02*
X031065Y003308D01*
X031065Y003152D02*
X031124Y003152D01*
X031124Y002996D02*
X031065Y002996D01*
X031065Y002840D02*
X031124Y002840D01*
X031231Y002684D02*
X030958Y002684D01*
X031942Y002684D02*
X032945Y002684D01*
X032989Y002840D02*
X032049Y002840D01*
X032049Y002996D02*
X033059Y002996D01*
X033154Y003152D02*
X032049Y003152D01*
X032049Y003308D02*
X033249Y003308D01*
X033385Y003464D02*
X032049Y003464D01*
X032013Y003620D02*
X033449Y003620D01*
X033449Y003776D02*
X032013Y003776D01*
X032013Y003932D02*
X033449Y003932D01*
X033449Y004088D02*
X032013Y004088D01*
X032013Y004244D02*
X033449Y004244D01*
X033449Y004400D02*
X032013Y004400D01*
X027346Y007783D02*
X027346Y008295D01*
X028311Y008295D01*
X028331Y008315D01*
X029217Y008315D01*
X029276Y008374D01*
X030142Y008374D02*
X031283Y008374D01*
X029118Y010146D02*
X028768Y010496D01*
X026484Y010496D01*
X026484Y010181D02*
X027776Y010181D01*
X027902Y010181D01*
X027937Y010146D01*
X027346Y009555D02*
X028528Y009555D01*
X027346Y009555D02*
X027035Y009866D01*
X026484Y009866D01*
X026480Y008295D02*
X027346Y008295D01*
X024201Y007268D02*
X024201Y006618D01*
X024335Y006484D01*
X024335Y005736D01*
X024453Y005618D01*
X024453Y004575D01*
X024984Y004043D01*
X023547Y004575D02*
X023016Y004043D01*
X023547Y004575D02*
X023547Y005618D01*
X023665Y005736D01*
X023665Y006484D01*
X023886Y006705D01*
X023886Y007268D01*
X022941Y007268D02*
X022937Y007272D01*
X022937Y007547D01*
X022622Y007547D02*
X022622Y007272D01*
X022626Y007268D01*
X022354Y006996D01*
X021835Y006996D01*
X021917Y008291D02*
X021921Y008295D01*
X021921Y008610D02*
X022189Y008610D01*
X019079Y011465D02*
X019079Y012114D01*
X018291Y012902D01*
X012780Y012902D01*
X013173Y015205D02*
X013114Y015264D01*
X012386Y015264D01*
X011795Y015264D01*
X011598Y015461D01*
X011598Y015854D01*
X011008Y016445D01*
X008843Y016445D01*
X008055Y017232D01*
X007465Y017190D02*
X006044Y017190D01*
X006006Y017276D02*
X006221Y016782D01*
X006221Y016782D01*
X006294Y016248D01*
X006267Y016051D01*
X006498Y016051D01*
X006498Y016268D01*
X006854Y016268D01*
X006854Y016307D01*
X006498Y016307D01*
X006498Y016547D01*
X006511Y016593D01*
X006534Y016633D01*
X006567Y016667D01*
X006608Y016690D01*
X006654Y016702D01*
X006854Y016702D01*
X006854Y016307D01*
X006894Y016307D01*
X007250Y016307D01*
X007250Y016547D01*
X007237Y016593D01*
X007214Y016633D01*
X007181Y016667D01*
X007140Y016690D01*
X007094Y016702D01*
X006894Y016702D01*
X006894Y016307D01*
X006894Y016268D01*
X007250Y016268D01*
X007250Y016051D01*
X007465Y016051D01*
X007465Y017461D01*
X007359Y017567D01*
X006233Y017567D01*
X006139Y017606D01*
X006067Y017678D01*
X005781Y017963D01*
X005734Y017983D01*
X005392Y018324D01*
X003008Y018324D01*
X003008Y018184D01*
X002990Y018166D01*
X002990Y018088D01*
X002912Y018088D01*
X002912Y018088D01*
X002990Y018088D01*
X002990Y017986D01*
X002988Y017977D01*
X003031Y017934D01*
X003031Y017732D01*
X003174Y017865D01*
X003174Y017865D01*
X003652Y018113D01*
X003652Y018113D01*
X004180Y018223D01*
X004180Y018223D01*
X004718Y018186D01*
X004718Y018186D01*
X005226Y018005D01*
X005226Y018005D01*
X005666Y017695D01*
X005666Y017695D01*
X005666Y017695D01*
X006006Y017276D01*
X006006Y017276D01*
X005950Y017346D02*
X007465Y017346D01*
X007424Y017502D02*
X005823Y017502D01*
X005696Y017658D02*
X006087Y017658D01*
X005931Y017814D02*
X005497Y017814D01*
X005276Y017970D02*
X005765Y017970D01*
X005591Y018126D02*
X004887Y018126D01*
X005435Y018282D02*
X003008Y018282D01*
X002990Y018126D02*
X003713Y018126D01*
X003376Y017970D02*
X002995Y017970D01*
X003031Y017814D02*
X003119Y017814D01*
X002467Y018600D02*
X005506Y018600D01*
X005890Y018217D01*
X006283Y018610D02*
X006038Y018856D01*
X002467Y018856D01*
X002467Y019112D02*
X003596Y019112D01*
X003921Y019437D01*
X003528Y020047D02*
X003528Y020894D01*
X004960Y020894D01*
X005062Y020936D01*
X005098Y020972D01*
X005772Y020972D01*
X005772Y020911D01*
X005887Y020795D01*
X006212Y020795D01*
X006410Y020597D01*
X006499Y020509D01*
X006615Y020461D01*
X006874Y020461D01*
X006874Y020227D01*
X006795Y020148D01*
X006795Y019041D01*
X006815Y019021D01*
X006815Y019004D01*
X006280Y019004D01*
X006194Y019090D01*
X006093Y019131D01*
X005496Y019131D01*
X005496Y019142D01*
X005941Y019142D01*
X006035Y019181D01*
X006050Y019181D01*
X006165Y019296D01*
X006165Y019893D01*
X006050Y020008D01*
X006035Y020008D01*
X006035Y020008D01*
X005941Y020047D01*
X003528Y020047D01*
X003528Y020154D02*
X006800Y020154D01*
X006795Y019998D02*
X006060Y019998D01*
X006165Y019842D02*
X006795Y019842D01*
X006795Y019686D02*
X006165Y019686D01*
X006165Y019530D02*
X006795Y019530D01*
X006795Y019374D02*
X006165Y019374D01*
X006087Y019218D02*
X006795Y019218D01*
X006795Y019062D02*
X006222Y019062D01*
X006035Y019181D02*
X006035Y019181D01*
X007258Y019211D02*
X007799Y018669D01*
X008055Y018669D01*
X008646Y017429D02*
X009039Y017035D01*
X012189Y017035D01*
X012386Y016839D01*
X013114Y016839D01*
X013173Y016780D01*
X013173Y016110D02*
X013173Y016051D01*
X014020Y016051D01*
X012386Y018807D02*
X010811Y018807D01*
X010811Y019008D01*
X010848Y019045D01*
X010890Y019146D01*
X010890Y019437D01*
X011345Y019437D01*
X011461Y019552D01*
X011461Y020579D01*
X012386Y020579D01*
X012386Y020343D01*
X011852Y020343D01*
X011736Y020227D01*
X011736Y019552D01*
X011852Y019437D01*
X012386Y019437D01*
X012386Y018807D01*
X012386Y018906D02*
X010811Y018906D01*
X010855Y019062D02*
X012386Y019062D01*
X012386Y019218D02*
X010890Y019218D01*
X010890Y019374D02*
X012386Y019374D01*
X011759Y019530D02*
X011438Y019530D01*
X011461Y019686D02*
X011736Y019686D01*
X011736Y019842D02*
X011461Y019842D01*
X011461Y019998D02*
X011736Y019998D01*
X011736Y020154D02*
X011461Y020154D01*
X011461Y020310D02*
X011819Y020310D01*
X011461Y020466D02*
X012386Y020466D01*
X010713Y019693D02*
X010614Y019594D01*
X010614Y019201D01*
X010220Y018807D01*
X007465Y017034D02*
X006111Y017034D01*
X006179Y016878D02*
X007465Y016878D01*
X007465Y016722D02*
X006229Y016722D01*
X006251Y016566D02*
X006503Y016566D01*
X006498Y016410D02*
X006272Y016410D01*
X006293Y016254D02*
X006498Y016254D01*
X006498Y016098D02*
X006274Y016098D01*
X006854Y016410D02*
X006894Y016410D01*
X006894Y016566D02*
X006854Y016566D01*
X007245Y016566D02*
X007465Y016566D01*
X007465Y016410D02*
X007250Y016410D01*
X007250Y016254D02*
X007465Y016254D01*
X007465Y016098D02*
X007250Y016098D01*
X006874Y020310D02*
X003528Y020310D01*
X003528Y020466D02*
X006603Y020466D01*
X006386Y020621D02*
X003528Y020621D01*
X003528Y020777D02*
X006230Y020777D01*
X005772Y020933D02*
X005056Y020933D01*
X004906Y021169D02*
X005693Y021957D01*
X006224Y021957D01*
X006244Y021937D01*
X006244Y022547D01*
X009039Y022547D01*
X006480Y023000D02*
X006402Y023000D01*
X006244Y022843D01*
X006244Y022547D01*
X004906Y021169D02*
X002937Y021169D01*
X002740Y021366D01*
X002740Y022547D01*
X002943Y022750D01*
X003575Y022750D01*
X014095Y022154D02*
X014333Y022391D01*
X014333Y022404D01*
X015317Y022404D01*
X014333Y024372D02*
X014211Y024372D01*
X014157Y024319D01*
X022178Y015410D02*
X022274Y015410D01*
X010024Y009752D02*
X010024Y009326D01*
X009918Y009220D01*
X009717Y009220D01*
X009693Y009211D01*
X009489Y009211D01*
X009374Y009095D01*
X009374Y008834D01*
X009440Y008768D01*
X009374Y008702D01*
X009374Y008046D01*
X009440Y007980D01*
X009032Y007980D01*
X009098Y008046D01*
X009098Y008505D01*
X009032Y008571D01*
X009098Y008637D01*
X009098Y008862D01*
X009118Y008910D01*
X009118Y009752D01*
X010024Y009752D01*
X010024Y009703D02*
X009118Y009703D01*
X009118Y009547D02*
X010024Y009547D01*
X010024Y009391D02*
X009118Y009391D01*
X009118Y009235D02*
X009932Y009235D01*
X009374Y009079D02*
X009118Y009079D01*
X009118Y008923D02*
X009374Y008923D01*
X009439Y008767D02*
X009098Y008767D01*
X009072Y008611D02*
X009374Y008611D01*
X009374Y008455D02*
X009098Y008455D01*
X009098Y008299D02*
X009374Y008299D01*
X009374Y008143D02*
X009098Y008143D01*
X009039Y007987D02*
X009433Y007987D01*
X008705Y007606D02*
X008646Y007547D01*
X008409Y007547D01*
X008055Y007193D01*
X007799Y007193D01*
X007602Y006996D01*
X008055Y006602D02*
X007071Y006602D01*
X006933Y006740D01*
X006933Y006996D01*
X006480Y007449D01*
X006480Y007843D01*
X007661Y007941D02*
X008094Y008374D01*
X008094Y008768D02*
X007661Y009201D01*
X007186Y009634D02*
X007107Y009555D01*
X006480Y009555D01*
X006480Y009876D01*
X006487Y009882D01*
X006596Y010107D01*
X006596Y011130D01*
X007268Y011130D01*
X007268Y010539D01*
X007465Y010343D01*
X008843Y010343D01*
X008843Y009014D01*
X008779Y009014D01*
X008756Y009024D01*
X008449Y009024D01*
X008449Y009555D01*
X008215Y009555D01*
X008137Y009634D01*
X007186Y009634D01*
X006480Y009703D02*
X008843Y009703D01*
X008843Y009859D02*
X006480Y009859D01*
X006487Y009882D02*
X006487Y009882D01*
X006487Y009882D01*
X006551Y010015D02*
X008843Y010015D01*
X008843Y010171D02*
X006596Y010171D01*
X006596Y010327D02*
X008843Y010327D01*
X008843Y009547D02*
X008449Y009547D01*
X008449Y009391D02*
X008843Y009391D01*
X008843Y009235D02*
X008449Y009235D01*
X008449Y009079D02*
X008843Y009079D01*
X007324Y010483D02*
X006596Y010483D01*
X006596Y010639D02*
X007268Y010639D01*
X007268Y010795D02*
X006596Y010795D01*
X006596Y010951D02*
X007268Y010951D01*
X007268Y011107D02*
X006596Y011107D01*
X001704Y008571D02*
X001700Y008575D01*
X001700Y007000D02*
X001704Y006996D01*
X001700Y006213D02*
X001704Y006209D01*
X001700Y005425D02*
X001704Y005421D01*
X013862Y004890D02*
X013961Y004791D01*
D57*
X012189Y004634D03*
X011598Y003650D03*
X010614Y004043D03*
X010220Y003453D03*
X009433Y003453D03*
X008646Y004043D03*
X008252Y004634D03*
X009433Y004634D03*
X010024Y006012D03*
X011008Y006209D03*
X010220Y007390D03*
X011008Y007587D03*
X011402Y008768D03*
X012189Y008768D03*
X011795Y009555D03*
X011008Y009949D03*
X010220Y009949D03*
X010220Y010539D03*
X011795Y011130D03*
X012780Y009555D03*
X013961Y009555D03*
X016520Y009161D03*
X017701Y009358D03*
X019276Y008965D03*
X021835Y006996D03*
X022819Y006209D03*
X023016Y005028D03*
X022819Y002469D03*
X021835Y002469D03*
X019472Y004831D03*
X019276Y006209D03*
X015732Y005028D03*
X015339Y003256D03*
X012583Y007193D03*
X010417Y008768D03*
X009236Y008965D03*
X009236Y008177D03*
X009236Y006799D03*
X008646Y006012D03*
X005693Y008177D03*
X006874Y009949D03*
X006874Y010736D03*
X009630Y013886D03*
X011402Y014476D03*
X012386Y013886D03*
X012583Y013098D03*
X015339Y014083D03*
X015929Y014673D03*
X017110Y014870D03*
X017701Y016445D03*
X019669Y017429D03*
X020850Y018217D03*
X019276Y019201D03*
X022425Y017232D03*
X021441Y015461D03*
X020260Y015657D03*
X020260Y012902D03*
X021441Y011720D03*
X022425Y012902D03*
X023945Y013453D03*
X025575Y013492D03*
X025772Y015461D03*
X026756Y015657D03*
X025969Y016642D03*
X024787Y016642D03*
X027937Y016642D03*
X029118Y014673D03*
X030496Y014083D03*
X029906Y011524D03*
X029118Y010146D03*
X028528Y009555D03*
X027937Y010146D03*
X027346Y011327D03*
X027346Y007783D03*
X029315Y006209D03*
X028528Y005028D03*
X026953Y005815D03*
X018094Y011720D03*
X016520Y012311D03*
X011795Y016445D03*
X010614Y015854D03*
X012583Y017823D03*
X013370Y017429D03*
X012189Y018807D03*
X011598Y018020D03*
X010220Y018807D03*
X009039Y018413D03*
X007071Y016839D03*
X006480Y017232D03*
X006480Y019398D03*
X006480Y020185D03*
X005496Y020776D03*
X004906Y022154D03*
X008055Y020776D03*
X009236Y021169D03*
X010417Y021169D03*
X009039Y022547D03*
X013567Y021169D03*
X013567Y020579D03*
X013567Y019988D03*
X019144Y022285D03*
X022622Y025303D03*
X024197Y025500D03*
X025378Y025106D03*
X028528Y022154D03*
X027150Y020776D03*
X025378Y019988D03*
X018094Y025500D03*
X001559Y013098D03*
X001559Y011917D03*
X001559Y010539D03*
X002740Y004437D03*
D58*
X002543Y005421D02*
X001704Y005421D01*
X001704Y006209D02*
X002543Y006209D01*
X002543Y006996D02*
X001704Y006996D01*
X001704Y007783D02*
X004118Y007783D01*
X005102Y007783D01*
X005299Y007783D01*
X005693Y007390D01*
X005693Y006996D01*
X007465Y005224D01*
X007465Y004240D01*
X008646Y002705D02*
X009217Y002705D01*
X012780Y004890D02*
X012878Y004791D01*
X012780Y004890D02*
X013862Y004890D01*
X010220Y006996D02*
X010220Y007390D01*
X008803Y007390D01*
X008646Y007547D01*
X009433Y006209D02*
X010220Y006996D01*
X009433Y006209D02*
X009433Y005618D01*
X002701Y008571D02*
X001704Y008571D01*
X009630Y012429D02*
X009630Y013886D01*
X013370Y017429D02*
X018488Y017429D01*
X020260Y019201D01*
X021835Y019201D01*
X021835Y019457D01*
X021835Y019201D02*
X022824Y019201D01*
X023364Y018660D01*
X024050Y018660D01*
X025378Y019988D01*
X026165Y013098D02*
X027937Y013098D01*
X029512Y013098D01*
X031480Y011130D01*
X015929Y018610D02*
X015858Y018610D01*
X015858Y018910D01*
X015149Y018910D01*
X015149Y019097D01*
X015858Y019097D01*
X015858Y019531D01*
X015848Y019581D01*
X015829Y019628D01*
X015800Y019670D01*
X015765Y019706D01*
X015722Y019734D01*
X015675Y019753D01*
X015626Y019763D01*
X015149Y019763D01*
X015149Y019097D01*
X014962Y019097D01*
X014962Y019763D01*
X014492Y019763D01*
X014492Y020842D01*
X014441Y020965D01*
X014347Y021059D01*
X014031Y021376D01*
X014031Y021412D01*
X013989Y021514D01*
X013961Y021542D01*
X013961Y021903D01*
X013992Y021890D01*
X014042Y021881D01*
X014333Y021881D01*
X014624Y021881D01*
X014674Y021890D01*
X014720Y021910D01*
X014763Y021938D01*
X014798Y021974D01*
X014825Y022013D01*
X014851Y021974D01*
X014887Y021938D01*
X014929Y021910D01*
X014976Y021890D01*
X015026Y021881D01*
X015317Y021881D01*
X015608Y021881D01*
X015658Y021890D01*
X015705Y021910D01*
X015747Y021938D01*
X015783Y021974D01*
X015811Y022016D01*
X015830Y022063D01*
X015840Y022113D01*
X015840Y022404D01*
X015840Y022695D01*
X015830Y022744D01*
X015929Y022744D01*
X015929Y021649D01*
X015766Y021717D01*
X015538Y021717D01*
X015327Y021630D01*
X015166Y021469D01*
X015078Y021258D01*
X015078Y021030D01*
X015166Y020819D01*
X015327Y020658D01*
X015538Y020571D01*
X015766Y020571D01*
X015929Y020638D01*
X015929Y018610D01*
X015929Y018681D02*
X015858Y018681D01*
X015929Y018994D02*
X015149Y018994D01*
X015149Y019308D02*
X014962Y019308D01*
X014962Y019621D02*
X015149Y019621D01*
X015831Y019621D02*
X015929Y019621D01*
X015929Y019308D02*
X015858Y019308D01*
X015929Y019935D02*
X014492Y019935D01*
X014492Y020248D02*
X015929Y020248D01*
X015929Y020561D02*
X014492Y020561D01*
X014479Y020875D02*
X015143Y020875D01*
X015078Y021188D02*
X014218Y021188D01*
X013993Y021502D02*
X015199Y021502D01*
X015317Y021881D02*
X015317Y022404D01*
X015840Y022404D01*
X015317Y022404D01*
X015317Y022404D01*
X015317Y022404D01*
X014333Y022404D01*
X014333Y022404D01*
X014856Y022404D01*
X015317Y022404D01*
X015317Y021881D01*
X015317Y022129D02*
X015317Y022129D01*
X015317Y022404D02*
X015317Y022404D01*
X015840Y022442D02*
X015929Y022442D01*
X015929Y022129D02*
X015840Y022129D01*
X015929Y021815D02*
X013961Y021815D01*
X014095Y022154D02*
X013567Y022154D01*
X013037Y022154D01*
X012053Y021169D01*
X011165Y021169D01*
X010417Y021169D02*
X009709Y021169D01*
X009236Y021169D01*
X009236Y020972D01*
X008646Y021898D02*
X011479Y021898D01*
X011735Y022154D01*
X013567Y022154D02*
X013567Y024319D01*
X014157Y024319D01*
X014333Y024372D02*
X015317Y024372D01*
X015317Y023388D02*
X014333Y023388D01*
X014333Y022404D02*
X014333Y021881D01*
X014333Y022404D01*
X014333Y022404D01*
X014333Y022129D02*
X014333Y022129D01*
X013528Y020028D02*
X012976Y020028D01*
X013528Y020028D02*
X013567Y019988D01*
X008646Y021898D02*
X007445Y021898D01*
X007110Y021563D01*
X002547Y017458D02*
X002058Y017458D01*
X002024Y017424D01*
D59*
X003361Y002832D02*
X003671Y002832D01*
X003601Y002949D02*
X003245Y002949D01*
X003128Y003065D02*
X003530Y003065D01*
X003459Y003182D02*
X003012Y003182D01*
X002895Y003299D02*
X003424Y003299D01*
X003455Y003188D02*
X003305Y003722D01*
X003305Y004278D01*
X003455Y004812D01*
X003455Y004812D01*
X003634Y005106D01*
X003625Y005097D01*
X003589Y005076D01*
X003548Y005065D01*
X003370Y005065D01*
X003370Y005382D01*
X003370Y005461D01*
X003291Y005461D01*
X003291Y005777D01*
X003113Y005777D01*
X003072Y005766D01*
X003036Y005745D01*
X003007Y005716D01*
X002989Y005686D01*
X002957Y005763D01*
X002905Y005815D01*
X002957Y005867D01*
X002989Y005944D01*
X003007Y005914D01*
X003036Y005885D01*
X003072Y005864D01*
X002954Y005864D01*
X002964Y005747D02*
X003040Y005747D01*
X003072Y005864D02*
X003113Y005853D01*
X003291Y005853D01*
X003291Y006169D01*
X003370Y006169D01*
X003370Y005853D01*
X003548Y005853D01*
X003589Y005864D01*
X003625Y005885D01*
X003655Y005914D01*
X003676Y005950D01*
X003687Y005991D01*
X003687Y006169D01*
X003370Y006169D01*
X003370Y006248D01*
X003291Y006248D01*
X003291Y006565D01*
X003113Y006565D01*
X003072Y006554D01*
X003036Y006533D01*
X003007Y006503D01*
X002989Y006473D01*
X002957Y006550D01*
X002905Y006602D01*
X002957Y006654D01*
X002989Y006732D01*
X003007Y006702D01*
X003036Y006672D01*
X003072Y006651D01*
X003113Y006640D01*
X003291Y006640D01*
X003291Y006957D01*
X003370Y006957D01*
X003370Y007035D01*
X003687Y007035D01*
X003687Y007214D01*
X003676Y007254D01*
X003655Y007291D01*
X003625Y007320D01*
X003589Y007341D01*
X003548Y007352D01*
X003370Y007352D01*
X003370Y007035D01*
X003291Y007035D01*
X003291Y007352D01*
X003113Y007352D01*
X003072Y007341D01*
X003036Y007320D01*
X003007Y007291D01*
X002989Y007260D01*
X002957Y007338D01*
X002925Y007370D01*
X003776Y007370D01*
X003776Y007370D01*
X003854Y007338D01*
X003824Y007320D01*
X003794Y007291D01*
X003773Y007254D01*
X003762Y007214D01*
X003762Y007035D01*
X004079Y007035D01*
X004079Y006957D01*
X004157Y006957D01*
X004157Y006640D01*
X004336Y006640D01*
X004376Y006651D01*
X004413Y006672D01*
X004442Y006702D01*
X004463Y006738D01*
X004474Y006778D01*
X004474Y006957D01*
X004157Y006957D01*
X004157Y007035D01*
X004474Y007035D01*
X004474Y007214D01*
X004463Y007254D01*
X004442Y007291D01*
X004413Y007320D01*
X004382Y007338D01*
X004460Y007370D01*
X004650Y007370D01*
X004650Y007260D01*
X004689Y007166D01*
X004749Y007106D01*
X004746Y007096D01*
X004746Y006898D01*
X005063Y006898D01*
X005063Y006819D01*
X004746Y006819D01*
X004746Y006621D01*
X004757Y006580D01*
X004778Y006544D01*
X004808Y006514D01*
X004844Y006494D01*
X004885Y006483D01*
X005063Y006483D01*
X005063Y006819D01*
X005142Y006819D01*
X005142Y006483D01*
X005320Y006483D01*
X005361Y006494D01*
X005397Y006514D01*
X005426Y006544D01*
X005447Y006580D01*
X005458Y006621D01*
X005458Y006646D01*
X005459Y006646D01*
X006371Y005733D01*
X006263Y005810D01*
X006263Y005810D01*
X005740Y005996D01*
X005740Y005996D01*
X005186Y006034D01*
X005186Y006034D01*
X004642Y005921D01*
X004149Y005665D01*
X003744Y005286D01*
X003681Y005184D01*
X003687Y005203D01*
X003687Y005382D01*
X003370Y005382D01*
X003291Y005382D01*
X003291Y005065D01*
X003113Y005065D01*
X003072Y005076D01*
X003036Y005097D01*
X003007Y005127D01*
X002989Y005157D01*
X002957Y005079D01*
X002885Y005007D01*
X002791Y004969D01*
X002296Y004969D01*
X002201Y005007D01*
X002201Y005008D01*
X002117Y005008D01*
X002081Y004972D01*
X001987Y004933D01*
X001413Y004933D01*
X001319Y004972D01*
X001247Y005044D01*
X001208Y005138D01*
X001208Y005712D01*
X001247Y005806D01*
X001259Y005819D01*
X001247Y005831D01*
X001208Y005925D01*
X001208Y006500D01*
X001247Y006594D01*
X001259Y006606D01*
X001247Y006619D01*
X001208Y006713D01*
X001208Y007287D01*
X001247Y007381D01*
X001259Y007394D01*
X001247Y007406D01*
X001208Y007500D01*
X001208Y008075D01*
X001247Y008169D01*
X001259Y008181D01*
X001247Y008194D01*
X001208Y008288D01*
X001208Y008862D01*
X001247Y008956D01*
X001319Y009028D01*
X001413Y009067D01*
X001987Y009067D01*
X002081Y009028D01*
X002125Y008984D01*
X002319Y008984D01*
X002320Y008985D01*
X002414Y009024D01*
X002988Y009024D01*
X003082Y008985D01*
X003154Y008913D01*
X003186Y008835D01*
X003203Y008865D01*
X003233Y008895D01*
X003269Y008916D01*
X003310Y008927D01*
X003528Y008927D01*
X003528Y008610D01*
X003606Y008610D01*
X003606Y008927D01*
X003824Y008927D01*
X003865Y008916D01*
X003901Y008895D01*
X003930Y008865D01*
X003951Y008829D01*
X003962Y008789D01*
X003962Y008610D01*
X003606Y008610D01*
X003606Y008531D01*
X003606Y008215D01*
X003819Y008215D01*
X003776Y008197D01*
X003122Y008197D01*
X003154Y008229D01*
X003186Y008306D01*
X003203Y008276D01*
X003233Y008247D01*
X003269Y008226D01*
X003310Y008215D01*
X003528Y008215D01*
X003528Y008531D01*
X003606Y008531D01*
X003962Y008531D01*
X003962Y008353D01*
X003951Y008313D01*
X006124Y008313D01*
X006124Y008274D02*
X006127Y008265D01*
X006067Y008204D01*
X006028Y008110D01*
X006028Y007640D01*
X005650Y008018D01*
X005533Y008134D01*
X005381Y008197D01*
X004460Y008197D01*
X004366Y008236D01*
X003883Y008236D01*
X003901Y008247D01*
X003930Y008276D01*
X003951Y008313D01*
X003962Y008430D02*
X006124Y008430D01*
X006124Y008472D02*
X006124Y008274D01*
X006063Y008196D02*
X005383Y008196D01*
X005588Y008080D02*
X006028Y008080D01*
X006028Y007963D02*
X005704Y007963D01*
X005821Y007846D02*
X006028Y007846D01*
X006028Y007730D02*
X005937Y007730D01*
X004708Y007147D02*
X004474Y007147D01*
X004458Y007263D02*
X004650Y007263D01*
X004460Y007370D02*
X004460Y007370D01*
X004746Y007030D02*
X004157Y007030D01*
X004079Y007030D02*
X003370Y007030D01*
X003370Y006957D02*
X003687Y006957D01*
X003687Y006778D01*
X003676Y006738D01*
X003655Y006702D01*
X003625Y006672D01*
X003589Y006651D01*
X003548Y006640D01*
X003370Y006640D01*
X003370Y006957D01*
X003370Y006914D02*
X003291Y006914D01*
X003291Y006797D02*
X003370Y006797D01*
X003370Y006680D02*
X003291Y006680D01*
X003291Y006564D02*
X003370Y006564D01*
X003370Y006565D02*
X003370Y006248D01*
X003687Y006248D01*
X003687Y006426D01*
X003676Y006467D01*
X003655Y006503D01*
X003625Y006533D01*
X003589Y006554D01*
X003548Y006565D01*
X003370Y006565D01*
X003370Y006447D02*
X003291Y006447D01*
X003291Y006331D02*
X003370Y006331D01*
X003370Y006214D02*
X005890Y006214D01*
X005774Y006331D02*
X003687Y006331D01*
X003681Y006447D02*
X005657Y006447D01*
X005541Y006564D02*
X005438Y006564D01*
X005142Y006564D02*
X005063Y006564D01*
X005063Y006680D02*
X005142Y006680D01*
X005142Y006797D02*
X005063Y006797D01*
X004746Y006797D02*
X004474Y006797D01*
X004474Y006914D02*
X004746Y006914D01*
X004746Y006680D02*
X004421Y006680D01*
X004157Y006680D02*
X004079Y006680D01*
X004079Y006640D02*
X004079Y006957D01*
X003762Y006957D01*
X003762Y006778D01*
X003773Y006738D01*
X003794Y006702D01*
X003824Y006672D01*
X003860Y006651D01*
X003900Y006640D01*
X004079Y006640D01*
X004079Y006797D02*
X004157Y006797D01*
X004157Y006914D02*
X004079Y006914D01*
X003762Y006914D02*
X003687Y006914D01*
X003687Y006797D02*
X003762Y006797D01*
X003815Y006680D02*
X003634Y006680D01*
X003552Y006564D02*
X004767Y006564D01*
X004931Y005981D02*
X003684Y005981D01*
X003687Y006097D02*
X006007Y006097D01*
X006124Y005981D02*
X005782Y005981D01*
X006110Y005864D02*
X006240Y005864D01*
X006351Y005747D02*
X006357Y005747D01*
X007006Y006268D02*
X007944Y006268D01*
X008202Y006010D01*
X008202Y005773D01*
X008241Y005679D01*
X008313Y005607D01*
X008407Y005568D01*
X008424Y005568D01*
X008391Y005549D01*
X008361Y005519D01*
X008340Y005483D01*
X008329Y005442D01*
X008329Y005264D01*
X008665Y005264D01*
X008665Y005185D01*
X008329Y005185D01*
X008329Y005007D01*
X008340Y004966D01*
X008361Y004930D01*
X008391Y004900D01*
X008427Y004879D01*
X008467Y004869D01*
X008665Y004869D01*
X008665Y005185D01*
X008744Y005185D01*
X008744Y004869D01*
X008942Y004869D01*
X008952Y004871D01*
X008989Y004834D01*
X008989Y004395D01*
X009028Y004301D01*
X009100Y004229D01*
X009128Y004217D01*
X009128Y003736D01*
X009159Y003662D01*
X009156Y003651D01*
X009156Y003482D01*
X009797Y003482D01*
X009797Y003423D01*
X009156Y003423D01*
X009156Y003323D01*
X009041Y003323D01*
X009041Y003394D01*
X008665Y003394D01*
X008665Y003433D01*
X008626Y003433D01*
X008626Y003394D01*
X007996Y003394D01*
X007996Y003433D01*
X008254Y003433D01*
X008626Y003433D01*
X008626Y003730D01*
X008389Y003730D01*
X008348Y003719D01*
X008312Y003698D01*
X008282Y003669D01*
X008261Y003632D01*
X008252Y003598D01*
X008243Y003632D01*
X008222Y003669D01*
X008192Y003698D01*
X008156Y003719D01*
X008115Y003730D01*
X007996Y003730D01*
X007996Y004504D01*
X007945Y004627D01*
X007878Y004694D01*
X007878Y005307D01*
X007815Y005459D01*
X007006Y006268D01*
X007060Y006214D02*
X007998Y006214D01*
X008115Y006097D02*
X007176Y006097D01*
X007293Y005981D02*
X008202Y005981D01*
X008202Y005864D02*
X007410Y005864D01*
X007526Y005747D02*
X008212Y005747D01*
X008288Y005631D02*
X007643Y005631D01*
X007759Y005514D02*
X008358Y005514D01*
X008329Y005398D02*
X007840Y005398D01*
X007878Y005281D02*
X008329Y005281D01*
X008329Y005164D02*
X007878Y005164D01*
X007878Y005048D02*
X008329Y005048D01*
X008360Y004931D02*
X007878Y004931D01*
X007878Y004815D02*
X008989Y004815D01*
X008989Y004698D02*
X007878Y004698D01*
X007964Y004581D02*
X008989Y004581D01*
X008989Y004465D02*
X007996Y004465D01*
X007996Y004348D02*
X009008Y004348D01*
X009097Y004232D02*
X007996Y004232D01*
X007996Y004115D02*
X009128Y004115D01*
X009128Y003998D02*
X007996Y003998D01*
X007996Y003882D02*
X009128Y003882D01*
X009128Y003765D02*
X007996Y003765D01*
X008233Y003648D02*
X008271Y003648D01*
X008626Y003648D02*
X008665Y003648D01*
X008665Y003730D02*
X008665Y003433D01*
X009041Y003433D01*
X009041Y003592D01*
X009030Y003632D01*
X009009Y003669D01*
X008980Y003698D01*
X008943Y003719D01*
X008903Y003730D01*
X008665Y003730D01*
X008665Y003532D02*
X008626Y003532D01*
X008626Y003415D02*
X007996Y003415D01*
X008665Y003415D02*
X009156Y003415D01*
X009156Y003532D02*
X009041Y003532D01*
X009021Y003648D02*
X009156Y003648D01*
X009856Y003482D02*
X010498Y003482D01*
X010498Y003651D01*
X010495Y003662D01*
X010526Y003736D01*
X010526Y003898D01*
X010535Y003922D01*
X010535Y005291D01*
X010693Y005448D01*
X010693Y003354D01*
X010498Y003354D01*
X010498Y003423D01*
X009856Y003423D01*
X009856Y003482D01*
X010498Y003532D02*
X010693Y003532D01*
X010693Y003648D02*
X010498Y003648D01*
X010526Y003765D02*
X010693Y003765D01*
X010693Y003882D02*
X010526Y003882D01*
X010535Y003998D02*
X010693Y003998D01*
X010693Y004115D02*
X010535Y004115D01*
X010535Y004232D02*
X010693Y004232D01*
X010693Y004348D02*
X010535Y004348D01*
X010535Y004465D02*
X010693Y004465D01*
X010693Y004581D02*
X010535Y004581D01*
X010535Y004698D02*
X010693Y004698D01*
X010693Y004815D02*
X010535Y004815D01*
X010535Y004931D02*
X010693Y004931D01*
X010693Y005048D02*
X010535Y005048D01*
X010535Y005164D02*
X010693Y005164D01*
X010693Y005281D02*
X010535Y005281D01*
X010642Y005398D02*
X010693Y005398D01*
X010614Y005815D02*
X010220Y005421D01*
X010220Y003984D01*
X010024Y003984D02*
X010024Y004634D01*
X010024Y006012D01*
X010614Y005815D02*
X010614Y006602D01*
X011008Y006996D01*
X011008Y007587D01*
X010417Y008177D01*
X009768Y008177D01*
X009768Y008374D02*
X011008Y008374D01*
X011402Y008768D01*
X012110Y008324D02*
X012110Y007972D01*
X012137Y007961D01*
X012209Y007889D01*
X012248Y007795D01*
X012248Y007260D01*
X012209Y007166D01*
X012149Y007106D01*
X012151Y007096D01*
X012151Y006898D01*
X011835Y006898D01*
X011835Y006819D01*
X012151Y006819D01*
X012151Y006621D01*
X012140Y006580D01*
X012119Y006544D01*
X012099Y006524D01*
X012649Y006524D01*
X013193Y007067D01*
X013193Y007508D01*
X013173Y007516D01*
X013106Y007488D01*
X012571Y007488D01*
X012477Y007527D01*
X012405Y007599D01*
X012366Y007693D01*
X012366Y008189D01*
X012405Y008283D01*
X012459Y008336D01*
X012428Y008324D01*
X012110Y008324D01*
X012110Y008313D02*
X012435Y008313D01*
X012369Y008196D02*
X012110Y008196D01*
X012110Y008080D02*
X012366Y008080D01*
X012366Y007963D02*
X012132Y007963D01*
X012227Y007846D02*
X012366Y007846D01*
X012366Y007730D02*
X012248Y007730D01*
X012248Y007613D02*
X012399Y007613D01*
X012248Y007497D02*
X012551Y007497D01*
X012248Y007380D02*
X013193Y007380D01*
X013193Y007263D02*
X012248Y007263D01*
X012190Y007147D02*
X013193Y007147D01*
X013156Y007030D02*
X012151Y007030D01*
X012151Y006914D02*
X013039Y006914D01*
X012922Y006797D02*
X012151Y006797D01*
X012151Y006680D02*
X012806Y006680D01*
X012689Y006564D02*
X012131Y006564D01*
X011756Y006819D02*
X011756Y006898D01*
X011439Y006898D01*
X011439Y007096D01*
X011442Y007106D01*
X011381Y007166D01*
X011365Y007206D01*
X011341Y007182D01*
X011323Y007174D01*
X011323Y006933D01*
X011275Y006818D01*
X011110Y006653D01*
X011247Y006653D01*
X011341Y006614D01*
X011413Y006542D01*
X011420Y006524D01*
X011492Y006524D01*
X011471Y006544D01*
X011450Y006580D01*
X011439Y006621D01*
X011439Y006819D01*
X011756Y006819D01*
X011439Y006797D02*
X011254Y006797D01*
X011315Y006914D02*
X011439Y006914D01*
X011439Y007030D02*
X011323Y007030D01*
X011323Y007147D02*
X011401Y007147D01*
X011439Y006680D02*
X011138Y006680D01*
X011391Y006564D02*
X011460Y006564D01*
X011008Y006209D02*
X011008Y003217D01*
X010654Y002862D01*
X010594Y002921D01*
X010220Y002921D01*
X010024Y002921D02*
X010024Y002311D01*
X009630Y002311D02*
X009630Y002921D01*
X010498Y003415D02*
X010693Y003415D01*
X011323Y003415D02*
X011854Y003415D01*
X011854Y003299D02*
X011323Y003299D01*
X011323Y003257D02*
X011323Y003944D01*
X011340Y003934D01*
X011381Y003924D01*
X011559Y003924D01*
X011559Y004260D01*
X011638Y004260D01*
X011638Y003924D01*
X011816Y003924D01*
X011854Y003934D01*
X011854Y002473D01*
X011791Y002409D01*
X011704Y002409D01*
X011696Y002418D01*
X011602Y002457D01*
X011107Y002457D01*
X011013Y002418D01*
X011004Y002409D01*
X010956Y002409D01*
X011028Y002481D01*
X011060Y002558D01*
X011077Y002528D01*
X011107Y002499D01*
X011143Y002478D01*
X011184Y002467D01*
X011343Y002467D01*
X011343Y002843D01*
X011382Y002843D01*
X011382Y002882D01*
X011343Y002882D01*
X011343Y003257D01*
X011323Y003257D01*
X011382Y003257D02*
X011382Y002882D01*
X011679Y002882D01*
X011679Y003119D01*
X011668Y003160D01*
X011647Y003196D01*
X011617Y003226D01*
X011581Y003247D01*
X011541Y003257D01*
X011382Y003257D01*
X011382Y003182D02*
X011343Y003182D01*
X011343Y003065D02*
X011382Y003065D01*
X011382Y002949D02*
X011343Y002949D01*
X011382Y002843D02*
X011679Y002843D01*
X011679Y002605D01*
X011668Y002565D01*
X011647Y002528D01*
X011617Y002499D01*
X011581Y002478D01*
X011541Y002467D01*
X011382Y002467D01*
X011382Y002843D01*
X011382Y002832D02*
X011343Y002832D01*
X011343Y002716D02*
X011382Y002716D01*
X011382Y002599D02*
X011343Y002599D01*
X011343Y002482D02*
X011382Y002482D01*
X011589Y002482D02*
X011854Y002482D01*
X011854Y002599D02*
X011677Y002599D01*
X011679Y002716D02*
X011854Y002716D01*
X011854Y002832D02*
X011679Y002832D01*
X011679Y002949D02*
X011854Y002949D01*
X011854Y003065D02*
X011679Y003065D01*
X011655Y003182D02*
X011854Y003182D01*
X011854Y003532D02*
X011323Y003532D01*
X011323Y003648D02*
X011854Y003648D01*
X011854Y003765D02*
X011323Y003765D01*
X011323Y003882D02*
X011854Y003882D01*
X011638Y003998D02*
X011559Y003998D01*
X011559Y004115D02*
X011638Y004115D01*
X011638Y004232D02*
X011559Y004232D01*
X012524Y004230D02*
X012542Y004249D01*
X012542Y003701D01*
X012593Y003577D01*
X012858Y003312D01*
X012858Y003185D01*
X012869Y003159D01*
X012680Y003159D01*
X012639Y003148D01*
X012603Y003127D01*
X012574Y003098D01*
X012553Y003061D01*
X012542Y003021D01*
X012542Y002724D01*
X012878Y002724D01*
X012878Y002606D01*
X012542Y002606D01*
X012542Y002409D01*
X012524Y002409D01*
X012524Y004230D01*
X012525Y004232D02*
X012542Y004232D01*
X012542Y004115D02*
X012524Y004115D01*
X012524Y003998D02*
X012542Y003998D01*
X012542Y003882D02*
X012524Y003882D01*
X012524Y003765D02*
X012542Y003765D01*
X012524Y003648D02*
X012564Y003648D01*
X012524Y003532D02*
X012639Y003532D01*
X012524Y003415D02*
X012755Y003415D01*
X012858Y003299D02*
X012524Y003299D01*
X012524Y003182D02*
X012860Y003182D01*
X012555Y003065D02*
X012524Y003065D01*
X012524Y002949D02*
X012542Y002949D01*
X012542Y002832D02*
X012524Y002832D01*
X012524Y002716D02*
X012878Y002716D01*
X012996Y002716D02*
X013744Y002716D01*
X013744Y002724D02*
X013744Y002606D01*
X013408Y002606D01*
X013408Y002409D01*
X013332Y002409D01*
X013332Y002606D01*
X012996Y002606D01*
X012996Y002724D01*
X013332Y002724D01*
X013332Y002980D01*
X013362Y002980D01*
X013408Y002999D01*
X013408Y002724D01*
X013744Y002724D01*
X013744Y003129D01*
X013753Y003139D01*
X013774Y003175D01*
X013785Y003215D01*
X013785Y003433D01*
X013567Y003433D01*
X013567Y003433D01*
X013785Y003433D01*
X013785Y003651D01*
X013774Y003691D01*
X013753Y003728D01*
X013724Y003757D01*
X013687Y003778D01*
X013647Y003789D01*
X013528Y003789D01*
X013528Y003775D01*
X013528Y003775D01*
X013528Y003789D01*
X013514Y003789D01*
X013456Y003847D01*
X013362Y003886D01*
X013235Y003886D01*
X013214Y003907D01*
X013214Y004476D01*
X013508Y004476D01*
X013508Y004465D01*
X013547Y004371D01*
X013619Y004299D01*
X013713Y004260D01*
X014208Y004260D01*
X014302Y004299D01*
X014374Y004371D01*
X014413Y004465D01*
X014413Y005118D01*
X014410Y005126D01*
X014582Y005126D01*
X014676Y005165D01*
X014748Y005237D01*
X014787Y005331D01*
X014787Y005637D01*
X014835Y005684D01*
X014886Y005807D01*
X014886Y007054D01*
X016549Y008717D01*
X016759Y008717D01*
X016853Y008756D01*
X016925Y008828D01*
X016964Y008922D01*
X016964Y009400D01*
X016925Y009494D01*
X016853Y009566D01*
X016759Y009605D01*
X016281Y009605D01*
X016187Y009566D01*
X016115Y009494D01*
X016076Y009400D01*
X016076Y009191D01*
X014362Y007477D01*
X014335Y007450D01*
X014335Y009191D01*
X014366Y009222D01*
X014405Y009316D01*
X014405Y009794D01*
X014366Y009888D01*
X014294Y009960D01*
X014200Y009999D01*
X013722Y009999D01*
X013628Y009960D01*
X013556Y009888D01*
X013517Y009794D01*
X013517Y009316D01*
X013556Y009222D01*
X013587Y009191D01*
X013587Y009124D01*
X013547Y009124D01*
X013547Y008807D01*
X013469Y008807D01*
X013469Y009124D01*
X013270Y009124D01*
X013261Y009121D01*
X013200Y009182D01*
X013106Y009220D01*
X012571Y009220D01*
X012489Y009186D01*
X012428Y009212D01*
X012190Y009212D01*
X012200Y009222D01*
X012239Y009316D01*
X012239Y009794D01*
X012224Y009831D01*
X013236Y009831D01*
X013352Y009879D01*
X013440Y009967D01*
X013638Y010165D01*
X013795Y010165D01*
X013889Y010204D01*
X013961Y010276D01*
X014000Y010370D01*
X014000Y011023D01*
X013961Y011117D01*
X013889Y011189D01*
X013795Y011228D01*
X013623Y011228D01*
X013626Y011236D01*
X013626Y011889D01*
X013591Y011975D01*
X016117Y011975D01*
X016187Y011906D01*
X016281Y011867D01*
X016759Y011867D01*
X016853Y011906D01*
X016925Y011978D01*
X016964Y012072D01*
X016964Y012550D01*
X016957Y012567D01*
X018153Y012567D01*
X018744Y011976D01*
X018744Y011901D01*
X018737Y011898D01*
X018665Y011826D01*
X018626Y011732D01*
X018626Y011197D01*
X018665Y011103D01*
X018725Y011043D01*
X018723Y011033D01*
X018723Y010835D01*
X019039Y010835D01*
X019039Y010756D01*
X018723Y010756D01*
X018723Y010558D01*
X018734Y010517D01*
X018755Y010481D01*
X018784Y010451D01*
X018820Y010431D01*
X018861Y010420D01*
X019039Y010420D01*
X019039Y010756D01*
X019118Y010756D01*
X019118Y010420D01*
X019297Y010420D01*
X019337Y010431D01*
X019373Y010451D01*
X019403Y010481D01*
X019424Y010517D01*
X019435Y010558D01*
X019435Y010756D01*
X019118Y010756D01*
X019118Y010835D01*
X019435Y010835D01*
X019435Y010992D01*
X019728Y010992D01*
X020180Y010539D01*
X019642Y010002D01*
X019564Y009969D01*
X019492Y009897D01*
X019453Y009803D01*
X019453Y009409D01*
X019037Y009409D01*
X018943Y009370D01*
X018871Y009298D01*
X018832Y009204D01*
X018832Y008726D01*
X018871Y008631D01*
X018943Y008560D01*
X019037Y008521D01*
X019515Y008521D01*
X019609Y008560D01*
X019679Y008630D01*
X020436Y008630D01*
X019728Y007921D01*
X018815Y007921D01*
X018692Y007870D01*
X018598Y007776D01*
X018526Y007704D01*
X018526Y008110D01*
X018197Y008439D01*
X017732Y008439D01*
X017404Y008110D01*
X017404Y008095D01*
X017157Y008342D01*
X016999Y008342D01*
X016999Y007912D01*
X016930Y007912D01*
X016930Y007844D01*
X016500Y007844D01*
X016500Y007686D01*
X016747Y007439D01*
X016732Y007439D01*
X016404Y007110D01*
X016404Y006646D01*
X016671Y006378D01*
X016404Y006110D01*
X016404Y005646D01*
X016630Y005419D01*
X016630Y005304D01*
X016681Y005181D01*
X016775Y005086D01*
X017118Y004744D01*
X017241Y004693D01*
X018358Y004693D01*
X018481Y004744D01*
X018575Y004838D01*
X019021Y005283D01*
X019905Y005283D01*
X019831Y005210D01*
X019806Y005236D01*
X019711Y005275D01*
X019233Y005275D01*
X019139Y005236D01*
X019067Y005164D01*
X019028Y005070D01*
X019028Y004673D01*
X018782Y004673D01*
X018688Y004634D01*
X018616Y004562D01*
X018596Y004516D01*
X018380Y004516D01*
X018361Y004562D01*
X018289Y004634D01*
X018195Y004673D01*
X016912Y004673D01*
X016818Y004634D01*
X016746Y004562D01*
X016707Y004468D01*
X016707Y003894D01*
X016746Y003800D01*
X016818Y003728D01*
X016912Y003689D01*
X018195Y003689D01*
X018289Y003728D01*
X018361Y003800D01*
X018380Y003846D01*
X018596Y003846D01*
X018616Y003800D01*
X018688Y003728D01*
X018782Y003689D01*
X020065Y003689D01*
X020159Y003728D01*
X020231Y003800D01*
X020270Y003894D01*
X020270Y004468D01*
X020231Y004562D01*
X020180Y004613D01*
X020379Y004811D01*
X020626Y004811D01*
X020720Y004850D01*
X020792Y004922D01*
X020831Y005016D01*
X020831Y005551D01*
X020803Y005618D01*
X020831Y005685D01*
X020831Y005723D01*
X020843Y005728D01*
X020937Y005822D01*
X020989Y005874D01*
X021740Y005874D01*
X021775Y005788D01*
X021836Y005728D01*
X021833Y005718D01*
X021833Y005520D01*
X022150Y005520D01*
X022150Y005441D01*
X022228Y005441D01*
X022228Y005105D01*
X022407Y005105D01*
X022447Y005116D01*
X022483Y005137D01*
X022513Y005166D01*
X022534Y005202D01*
X022545Y005243D01*
X022545Y005313D01*
X022564Y005294D01*
X022600Y005273D01*
X022640Y005262D01*
X022839Y005262D01*
X022839Y005579D01*
X022917Y005579D01*
X022917Y005262D01*
X023115Y005262D01*
X023125Y005265D01*
X023186Y005204D01*
X023213Y005193D01*
X023213Y004713D01*
X023178Y004679D01*
X020999Y004679D01*
X020905Y004640D01*
X020833Y004568D01*
X020794Y004474D01*
X020794Y003612D01*
X020833Y003518D01*
X020905Y003446D01*
X020999Y003407D01*
X023201Y003407D01*
X023295Y003446D01*
X023367Y003518D01*
X023406Y003612D01*
X023406Y003960D01*
X023831Y004385D01*
X023882Y004508D01*
X023882Y005193D01*
X023909Y005204D01*
X023981Y005276D01*
X024000Y005323D01*
X024019Y005276D01*
X024091Y005204D01*
X024118Y005193D01*
X024118Y004508D01*
X024169Y004385D01*
X024594Y003960D01*
X024594Y003612D01*
X024633Y003518D01*
X024705Y003446D01*
X024799Y003407D01*
X027001Y003407D01*
X027095Y003446D01*
X027167Y003518D01*
X027206Y003612D01*
X027206Y004474D01*
X027167Y004568D01*
X027095Y004640D01*
X027001Y004679D01*
X024822Y004679D01*
X024787Y004713D01*
X024787Y005193D01*
X024814Y005204D01*
X024875Y005265D01*
X024885Y005262D01*
X025083Y005262D01*
X025083Y005579D01*
X025161Y005579D01*
X025161Y005262D01*
X025360Y005262D01*
X025400Y005273D01*
X025436Y005294D01*
X025466Y005324D01*
X025487Y005360D01*
X025498Y005400D01*
X025498Y005579D01*
X025161Y005579D01*
X025161Y005657D01*
X025498Y005657D01*
X025498Y005836D01*
X025487Y005876D01*
X025466Y005913D01*
X025436Y005942D01*
X025400Y005963D01*
X025360Y005974D01*
X025161Y005974D01*
X025161Y005657D01*
X025083Y005657D01*
X025083Y005974D01*
X024885Y005974D01*
X024875Y005971D01*
X024814Y006032D01*
X024720Y006071D01*
X024697Y006071D01*
X024768Y006142D01*
X024807Y006236D01*
X024807Y006732D01*
X024805Y006736D01*
X024913Y006736D01*
X024988Y006767D01*
X025063Y006736D01*
X025228Y006736D01*
X025303Y006767D01*
X025378Y006736D01*
X025543Y006736D01*
X025618Y006767D01*
X025693Y006736D01*
X025858Y006736D01*
X025978Y006786D01*
X026070Y006878D01*
X026120Y006998D01*
X026120Y007537D01*
X026070Y007658D01*
X026067Y007661D01*
X026067Y007724D01*
X026022Y007833D01*
X025939Y007916D01*
X025501Y008354D01*
X025621Y008354D01*
X025673Y008368D01*
X025699Y008383D01*
X025954Y008128D01*
X026037Y008045D01*
X026052Y008039D01*
X026054Y008037D01*
X026050Y008017D01*
X026050Y007976D01*
X026050Y007936D01*
X026058Y007892D01*
X026076Y007850D01*
X026101Y007812D01*
X026133Y007780D01*
X026171Y007755D01*
X026212Y007738D01*
X026257Y007729D01*
X026484Y007729D01*
X026484Y007947D01*
X026484Y007947D01*
X026484Y007729D01*
X026712Y007729D01*
X026756Y007738D01*
X026798Y007755D01*
X026836Y007780D01*
X026868Y007812D01*
X026893Y007850D01*
X026902Y007873D01*
X026902Y007544D01*
X026941Y007450D01*
X027013Y007378D01*
X027107Y007339D01*
X027585Y007339D01*
X027680Y007378D01*
X027752Y007450D01*
X027790Y007544D01*
X027790Y007961D01*
X027914Y007961D01*
X027917Y007953D01*
X027977Y007893D01*
X027975Y007883D01*
X027975Y007685D01*
X028291Y007685D01*
X028291Y007606D01*
X028370Y007606D01*
X028370Y007270D01*
X028548Y007270D01*
X028589Y007281D01*
X028625Y007302D01*
X028655Y007331D01*
X028676Y007368D01*
X028687Y007408D01*
X028687Y007606D01*
X028370Y007606D01*
X028370Y007685D01*
X028687Y007685D01*
X028687Y007883D01*
X028684Y007893D01*
X028745Y007953D01*
X028756Y007980D01*
X028874Y007980D01*
X028894Y007960D01*
X028988Y007921D01*
X029563Y007921D01*
X029657Y007960D01*
X029709Y008012D01*
X029761Y007960D01*
X029855Y007921D01*
X030429Y007921D01*
X030523Y007960D01*
X030595Y008032D01*
X030598Y008039D01*
X030752Y008039D01*
X030752Y004378D01*
X027674Y004378D01*
X027551Y004327D01*
X027456Y004233D01*
X027406Y004110D01*
X027406Y003197D01*
X020587Y003197D01*
X020464Y003146D01*
X020370Y003052D01*
X020319Y002929D01*
X020319Y002409D01*
X020152Y002409D01*
X020162Y002427D01*
X020173Y002467D01*
X020173Y002665D01*
X019482Y002665D01*
X019482Y002783D01*
X020173Y002783D01*
X020173Y002982D01*
X020162Y003022D01*
X020141Y003058D01*
X020111Y003088D01*
X020075Y003109D01*
X020035Y003120D01*
X019482Y003120D01*
X019482Y002783D01*
X019364Y002783D01*
X019364Y002665D01*
X018674Y002665D01*
X018674Y002467D01*
X018684Y002427D01*
X018694Y002409D01*
X018282Y002409D01*
X018292Y002427D01*
X018303Y002467D01*
X018303Y002665D01*
X017612Y002665D01*
X017612Y002783D01*
X018303Y002783D01*
X018303Y002982D01*
X018292Y003022D01*
X018271Y003058D01*
X018241Y003088D01*
X018205Y003109D01*
X018165Y003120D01*
X017612Y003120D01*
X017612Y002783D01*
X017494Y002783D01*
X017494Y002665D01*
X016804Y002665D01*
X016804Y002467D01*
X016814Y002427D01*
X016824Y002409D01*
X014198Y002409D01*
X014198Y002606D01*
X013862Y002606D01*
X013862Y002724D01*
X014198Y002724D01*
X014198Y003021D01*
X014188Y003061D01*
X014167Y003098D01*
X014137Y003127D01*
X014101Y003148D01*
X014060Y003159D01*
X013862Y003159D01*
X013862Y002724D01*
X013744Y002724D01*
X013744Y002832D02*
X013862Y002832D01*
X013862Y002716D02*
X017494Y002716D01*
X017494Y002783D02*
X016804Y002783D01*
X016804Y002982D01*
X016814Y003022D01*
X016835Y003058D01*
X016865Y003088D01*
X016901Y003109D01*
X016942Y003120D01*
X017494Y003120D01*
X017494Y002783D01*
X017494Y002832D02*
X017612Y002832D01*
X017612Y002716D02*
X019364Y002716D01*
X019364Y002783D02*
X018674Y002783D01*
X018674Y002982D01*
X018684Y003022D01*
X018705Y003058D01*
X018735Y003088D01*
X018771Y003109D01*
X018812Y003120D01*
X019364Y003120D01*
X019364Y002783D01*
X019364Y002832D02*
X019482Y002832D01*
X019482Y002716D02*
X020319Y002716D01*
X020319Y002832D02*
X020173Y002832D01*
X020173Y002949D02*
X020327Y002949D01*
X020384Y003065D02*
X020134Y003065D01*
X020551Y003182D02*
X013776Y003182D01*
X013785Y003299D02*
X027406Y003299D01*
X027406Y003415D02*
X027020Y003415D01*
X027173Y003532D02*
X027406Y003532D01*
X027406Y003648D02*
X027206Y003648D01*
X027206Y003765D02*
X027406Y003765D01*
X027406Y003882D02*
X027206Y003882D01*
X027206Y003998D02*
X027406Y003998D01*
X027408Y004115D02*
X027206Y004115D01*
X027206Y004232D02*
X027456Y004232D01*
X027602Y004348D02*
X027206Y004348D01*
X027206Y004465D02*
X030752Y004465D01*
X030752Y004581D02*
X027154Y004581D01*
X025497Y005398D02*
X030752Y005398D01*
X030752Y005514D02*
X025498Y005514D01*
X025498Y005747D02*
X030752Y005747D01*
X030752Y005631D02*
X025161Y005631D01*
X025161Y005747D02*
X025083Y005747D01*
X025083Y005864D02*
X025161Y005864D01*
X024865Y005981D02*
X030752Y005981D01*
X030752Y006097D02*
X024723Y006097D01*
X024798Y006214D02*
X030752Y006214D01*
X030752Y006331D02*
X024807Y006331D01*
X024807Y006447D02*
X030752Y006447D01*
X030752Y006564D02*
X024807Y006564D01*
X024807Y006680D02*
X030752Y006680D01*
X030752Y006797D02*
X025989Y006797D01*
X026085Y006914D02*
X030752Y006914D01*
X030752Y007030D02*
X026120Y007030D01*
X026120Y007147D02*
X030752Y007147D01*
X030752Y007263D02*
X026120Y007263D01*
X026120Y007380D02*
X027012Y007380D01*
X026922Y007497D02*
X026120Y007497D01*
X026089Y007613D02*
X026902Y007613D01*
X026902Y007730D02*
X026717Y007730D01*
X026891Y007846D02*
X026902Y007846D01*
X026484Y007846D02*
X026484Y007846D01*
X026484Y007730D02*
X026484Y007730D01*
X026251Y007730D02*
X026065Y007730D01*
X026078Y007846D02*
X026008Y007846D01*
X026050Y007963D02*
X025892Y007963D01*
X026050Y007976D02*
X026143Y007976D01*
X026143Y007976D01*
X026050Y007976D01*
X026003Y008080D02*
X025775Y008080D01*
X025886Y008196D02*
X025658Y008196D01*
X025770Y008313D02*
X025542Y008313D01*
X024260Y008665D02*
X024260Y009200D01*
X024240Y009196D01*
X024240Y009492D01*
X024161Y009492D01*
X024161Y009196D01*
X024142Y009200D01*
X024142Y008665D01*
X024260Y008665D01*
X024260Y008779D02*
X024142Y008779D01*
X024142Y008896D02*
X024260Y008896D01*
X024260Y009013D02*
X024142Y009013D01*
X024142Y009129D02*
X024260Y009129D01*
X024240Y009246D02*
X024161Y009246D01*
X024161Y009362D02*
X024240Y009362D01*
X024240Y009479D02*
X024161Y009479D01*
X024142Y009512D02*
X023846Y009512D01*
X023850Y009492D01*
X023315Y009492D01*
X023315Y009610D01*
X023850Y009610D01*
X023846Y009591D01*
X024142Y009591D01*
X024142Y009512D01*
X024161Y009610D02*
X024161Y009906D01*
X024142Y009902D01*
X024142Y010437D01*
X024260Y010437D01*
X024260Y009902D01*
X024240Y009906D01*
X024240Y009610D01*
X024161Y009610D01*
X024260Y009591D02*
X024556Y009591D01*
X024552Y009610D01*
X025087Y009610D01*
X025087Y009492D01*
X024552Y009492D01*
X024556Y009512D01*
X024260Y009512D01*
X024260Y009591D01*
X024240Y009712D02*
X024161Y009712D01*
X024161Y009829D02*
X024240Y009829D01*
X024260Y009945D02*
X024142Y009945D01*
X024142Y010062D02*
X024260Y010062D01*
X024260Y010179D02*
X024142Y010179D01*
X024142Y010295D02*
X024260Y010295D01*
X024260Y010412D02*
X024142Y010412D01*
X023847Y009596D02*
X023315Y009596D01*
X024555Y009596D02*
X025087Y009596D01*
X027016Y011150D02*
X027016Y011209D01*
X026966Y011329D01*
X026925Y011370D01*
X026973Y011418D01*
X027012Y011512D01*
X027012Y012047D01*
X026973Y012141D01*
X026912Y012202D01*
X026915Y012211D01*
X026915Y012409D01*
X026598Y012409D01*
X026598Y012488D01*
X026915Y012488D01*
X026915Y012685D01*
X027520Y012685D01*
X027523Y012678D01*
X027584Y012617D01*
X027581Y012608D01*
X027581Y012409D01*
X027898Y012409D01*
X027898Y012331D01*
X027976Y012331D01*
X027976Y011994D01*
X028155Y011994D01*
X028195Y012005D01*
X028232Y012026D01*
X028261Y012056D01*
X028282Y012092D01*
X028293Y012133D01*
X028293Y012331D01*
X027976Y012331D01*
X027976Y012409D01*
X028293Y012409D01*
X028293Y012608D01*
X028290Y012617D01*
X028351Y012678D01*
X028354Y012685D01*
X029341Y012685D01*
X030058Y011968D01*
X029666Y011968D01*
X029572Y011929D01*
X029500Y011857D01*
X029461Y011763D01*
X029461Y011553D01*
X029058Y011150D01*
X027016Y011150D01*
X027008Y011228D02*
X029137Y011228D01*
X029253Y011345D02*
X026950Y011345D01*
X026991Y011461D02*
X029370Y011461D01*
X029461Y011578D02*
X027012Y011578D01*
X027012Y011695D02*
X029461Y011695D01*
X029482Y011811D02*
X027012Y011811D01*
X027012Y011928D02*
X029572Y011928D01*
X029865Y012161D02*
X028293Y012161D01*
X028293Y012278D02*
X029748Y012278D01*
X029631Y012394D02*
X027976Y012394D01*
X027898Y012394D02*
X026915Y012394D01*
X026915Y012278D02*
X027581Y012278D01*
X027581Y012331D02*
X027581Y012133D01*
X027592Y012092D01*
X027613Y012056D01*
X027642Y012026D01*
X027679Y012005D01*
X027719Y011994D01*
X027898Y011994D01*
X027898Y012331D01*
X027581Y012331D01*
X027581Y012161D02*
X026953Y012161D01*
X027012Y012044D02*
X027624Y012044D01*
X027898Y012044D02*
X027976Y012044D01*
X027976Y012161D02*
X027898Y012161D01*
X027898Y012278D02*
X027976Y012278D01*
X028250Y012044D02*
X029981Y012044D01*
X029515Y012511D02*
X028293Y012511D01*
X028300Y012627D02*
X029398Y012627D01*
X029984Y013211D02*
X030673Y013211D01*
X030673Y013327D02*
X029868Y013327D01*
X029862Y013333D02*
X029862Y013333D01*
X029746Y013449D01*
X029594Y013512D01*
X026083Y013512D01*
X025931Y013449D01*
X025815Y013333D01*
X025752Y013181D01*
X025752Y013158D01*
X025488Y012894D01*
X025480Y012876D01*
X025480Y013748D01*
X030093Y013748D01*
X030163Y013678D01*
X030257Y013639D01*
X030673Y013639D01*
X030673Y012522D01*
X029862Y013333D01*
X029751Y013444D02*
X030673Y013444D01*
X030673Y013560D02*
X025480Y013560D01*
X025480Y013444D02*
X025926Y013444D01*
X025813Y013327D02*
X025480Y013327D01*
X025480Y013211D02*
X025764Y013211D01*
X025688Y013094D02*
X025480Y013094D01*
X025480Y012977D02*
X025571Y012977D01*
X026106Y012566D02*
X026106Y012138D01*
X026120Y012104D01*
X026120Y012080D01*
X026145Y012141D01*
X026206Y012202D01*
X026203Y012211D01*
X026203Y012409D01*
X026520Y012409D01*
X026520Y012488D01*
X026203Y012488D01*
X026203Y012663D01*
X026106Y012566D01*
X026106Y012511D02*
X026203Y012511D01*
X026203Y012627D02*
X026168Y012627D01*
X026203Y012394D02*
X026106Y012394D01*
X026106Y012278D02*
X026203Y012278D01*
X026165Y012161D02*
X026106Y012161D01*
X026915Y012511D02*
X027581Y012511D01*
X027574Y012627D02*
X026915Y012627D01*
X025480Y013677D02*
X030165Y013677D01*
X030101Y013094D02*
X030673Y013094D01*
X030673Y012977D02*
X030218Y012977D01*
X030334Y012861D02*
X030673Y012861D01*
X030673Y012744D02*
X030451Y012744D01*
X030567Y012627D02*
X030673Y012627D01*
X030093Y014417D02*
X029555Y014417D01*
X029562Y014434D01*
X029562Y014912D01*
X029523Y015006D01*
X029451Y015078D01*
X029357Y015117D01*
X028879Y015117D01*
X028785Y015078D01*
X028715Y015008D01*
X025123Y015008D01*
X025071Y015060D01*
X024977Y015154D01*
X024854Y015205D01*
X023661Y015205D01*
X023682Y015241D01*
X023693Y015281D01*
X023693Y015410D01*
X023297Y015410D01*
X022902Y015410D01*
X022902Y015281D01*
X022913Y015241D01*
X022934Y015205D01*
X022746Y015205D01*
X022766Y015251D01*
X022766Y015570D01*
X022727Y015664D01*
X022655Y015736D01*
X022561Y015775D01*
X022340Y015775D01*
X022292Y015794D01*
X022561Y015794D01*
X022655Y015833D01*
X022727Y015905D01*
X022766Y015999D01*
X022766Y016307D01*
X022907Y016307D01*
X022902Y016288D01*
X022902Y016158D01*
X022902Y016096D01*
X022844Y016038D01*
X022805Y015944D01*
X022805Y015625D01*
X022844Y015531D01*
X022902Y015473D01*
X022902Y015410D01*
X023297Y015410D01*
X023297Y015410D01*
X023297Y015410D01*
X023693Y015410D01*
X023693Y015450D01*
X024981Y015450D01*
X025104Y015501D01*
X025580Y015977D01*
X025580Y015977D01*
X025674Y016071D01*
X025725Y016194D01*
X025725Y016199D01*
X025729Y016198D01*
X026208Y016198D01*
X026302Y016237D01*
X026372Y016307D01*
X027534Y016307D01*
X027604Y016237D01*
X027698Y016198D01*
X028176Y016198D01*
X028270Y016237D01*
X028342Y016309D01*
X028381Y016403D01*
X028381Y016881D01*
X028342Y016975D01*
X028270Y017047D01*
X028176Y017086D01*
X027698Y017086D01*
X027604Y017047D01*
X027534Y016976D01*
X026372Y016976D01*
X026302Y017047D01*
X026208Y017086D01*
X025729Y017086D01*
X025725Y017084D01*
X025725Y017159D01*
X026072Y017159D01*
X026099Y017171D01*
X026127Y017159D01*
X026544Y017159D01*
X026572Y017171D01*
X026600Y017159D01*
X027016Y017159D01*
X027044Y017171D01*
X027072Y017159D01*
X027489Y017159D01*
X027517Y017171D01*
X027545Y017159D01*
X027961Y017159D01*
X027989Y017171D01*
X028017Y017159D01*
X028434Y017159D01*
X028462Y017171D01*
X028489Y017159D01*
X028906Y017159D01*
X028934Y017171D01*
X028962Y017159D01*
X029379Y017159D01*
X029406Y017171D01*
X029434Y017159D01*
X029851Y017159D01*
X029879Y017171D01*
X029907Y017159D01*
X030324Y017159D01*
X030351Y017171D01*
X030379Y017159D01*
X030673Y017159D01*
X030673Y014527D01*
X030257Y014527D01*
X030163Y014488D01*
X030093Y014417D01*
X030176Y014493D02*
X029562Y014493D01*
X029562Y014610D02*
X030673Y014610D01*
X030673Y014726D02*
X029562Y014726D01*
X029562Y014843D02*
X030673Y014843D01*
X030673Y014960D02*
X029542Y014960D01*
X029453Y015076D02*
X030673Y015076D01*
X030673Y015193D02*
X024882Y015193D01*
X025054Y015076D02*
X028783Y015076D01*
X028276Y016242D02*
X030673Y016242D01*
X030673Y016126D02*
X025697Y016126D01*
X025612Y016009D02*
X030673Y016009D01*
X030673Y015893D02*
X025496Y015893D01*
X025379Y015776D02*
X030673Y015776D01*
X030673Y015659D02*
X025263Y015659D01*
X025146Y015543D02*
X030673Y015543D01*
X030673Y015426D02*
X023693Y015426D01*
X023693Y015310D02*
X030673Y015310D01*
X030673Y016359D02*
X028363Y016359D01*
X028381Y016476D02*
X030673Y016476D01*
X030673Y016592D02*
X028381Y016592D01*
X028381Y016709D02*
X030673Y016709D01*
X030673Y016825D02*
X028381Y016825D01*
X028356Y016942D02*
X030673Y016942D01*
X030673Y017059D02*
X028241Y017059D01*
X027633Y017059D02*
X026273Y017059D01*
X026307Y016242D02*
X027598Y016242D01*
X025056Y017073D02*
X025026Y017086D01*
X024548Y017086D01*
X024454Y017047D01*
X024384Y016976D01*
X022359Y016976D01*
X022236Y016925D01*
X022039Y016729D01*
X021945Y016634D01*
X021894Y016511D01*
X021894Y016484D01*
X021892Y016484D01*
X021820Y016412D01*
X021781Y016318D01*
X021781Y015999D01*
X021820Y015905D01*
X021892Y015833D01*
X021984Y015795D01*
X021844Y015795D01*
X021774Y015866D01*
X021680Y015905D01*
X021470Y015905D01*
X021382Y015993D01*
X021382Y016063D01*
X021422Y016103D01*
X021461Y016197D01*
X021461Y016693D01*
X021422Y016787D01*
X021350Y016859D01*
X021256Y016898D01*
X020721Y016898D01*
X020627Y016859D01*
X020566Y016798D01*
X020556Y016801D01*
X020358Y016801D01*
X020358Y016484D01*
X020280Y016484D01*
X020280Y016801D01*
X020081Y016801D01*
X020041Y016790D01*
X020005Y016769D01*
X019975Y016739D01*
X019954Y016703D01*
X019943Y016663D01*
X019943Y016484D01*
X020280Y016484D01*
X020280Y016406D01*
X019943Y016406D01*
X019943Y016227D01*
X019954Y016187D01*
X019975Y016150D01*
X020005Y016121D01*
X020038Y016101D01*
X020021Y016101D01*
X019927Y016063D01*
X019858Y015993D01*
X014553Y015993D01*
X014210Y016336D01*
X014087Y016387D01*
X013953Y016387D01*
X013950Y016386D01*
X013623Y016386D01*
X013598Y016445D01*
X013626Y016512D01*
X013626Y016992D01*
X013683Y017016D01*
X018570Y017016D01*
X018722Y017079D01*
X020431Y018787D01*
X021945Y018787D01*
X021945Y018660D01*
X021945Y018598D01*
X021887Y018540D01*
X021876Y018512D01*
X021271Y018512D01*
X021255Y018550D01*
X021183Y018622D01*
X021089Y018661D01*
X020611Y018661D01*
X020517Y018622D01*
X020445Y018550D01*
X020406Y018456D01*
X020406Y017978D01*
X020445Y017883D01*
X020517Y017811D01*
X020611Y017773D01*
X021089Y017773D01*
X021183Y017811D01*
X021255Y017883D01*
X021271Y017921D01*
X021945Y017921D01*
X021945Y017912D01*
X021945Y017783D01*
X021956Y017743D01*
X021977Y017706D01*
X022007Y017677D01*
X022043Y017656D01*
X022083Y017645D01*
X022341Y017645D01*
X022598Y017645D01*
X022638Y017656D01*
X022674Y017677D01*
X022704Y017706D01*
X022725Y017743D01*
X022736Y017783D01*
X022736Y017912D01*
X022341Y017912D01*
X022341Y017912D01*
X022341Y017645D01*
X022341Y017912D01*
X022341Y017912D01*
X022736Y017912D01*
X022736Y017975D01*
X022794Y018033D01*
X022833Y018127D01*
X022833Y018446D01*
X022794Y018540D01*
X022736Y018598D01*
X022736Y018660D01*
X022341Y018660D01*
X022341Y018660D01*
X022736Y018660D01*
X022736Y018704D01*
X022872Y018568D01*
X022872Y018501D01*
X022911Y018407D01*
X022983Y018335D01*
X023077Y018296D01*
X023163Y018296D01*
X023211Y018277D01*
X023077Y018277D01*
X022983Y018238D01*
X022911Y018166D01*
X022872Y018072D01*
X022872Y017753D01*
X022911Y017659D01*
X022983Y017587D01*
X023077Y017548D01*
X023651Y017548D01*
X023745Y017587D01*
X023817Y017659D01*
X023856Y017753D01*
X023856Y017768D01*
X024505Y017768D01*
X024505Y017364D01*
X024544Y017270D01*
X024616Y017198D01*
X024710Y017159D01*
X025056Y017159D01*
X025056Y017073D01*
X024672Y017175D02*
X018819Y017175D01*
X018936Y017292D02*
X024535Y017292D01*
X024505Y017409D02*
X019052Y017409D01*
X019169Y017525D02*
X024505Y017525D01*
X024505Y017642D02*
X023800Y017642D01*
X023856Y017758D02*
X024505Y017758D01*
X024483Y017059D02*
X018674Y017059D01*
X019285Y017642D02*
X022928Y017642D01*
X022872Y017758D02*
X022729Y017758D01*
X022736Y017875D02*
X022872Y017875D01*
X022872Y017992D02*
X022752Y017992D01*
X022825Y018108D02*
X022887Y018108D01*
X022833Y018225D02*
X022970Y018225D01*
X022977Y018341D02*
X022833Y018341D01*
X022827Y018458D02*
X022890Y018458D01*
X022865Y018575D02*
X022759Y018575D01*
X022749Y018691D02*
X022736Y018691D01*
X022340Y018660D02*
X022340Y018660D01*
X021945Y018660D01*
X022340Y018660D01*
X021945Y018691D02*
X020335Y018691D01*
X020218Y018575D02*
X020470Y018575D01*
X020407Y018458D02*
X020102Y018458D01*
X019985Y018341D02*
X020406Y018341D01*
X020406Y018225D02*
X019868Y018225D01*
X019752Y018108D02*
X020406Y018108D01*
X020406Y017992D02*
X019635Y017992D01*
X019519Y017875D02*
X020454Y017875D01*
X021247Y017875D02*
X021945Y017875D01*
X021945Y017912D02*
X022340Y017912D01*
X022340Y017912D01*
X021945Y017912D01*
X021952Y017758D02*
X019402Y017758D01*
X019957Y016709D02*
X013626Y016709D01*
X013626Y016825D02*
X020593Y016825D01*
X020358Y016709D02*
X020280Y016709D01*
X020280Y016592D02*
X020358Y016592D01*
X020280Y016476D02*
X013611Y016476D01*
X013626Y016592D02*
X019943Y016592D01*
X019943Y016359D02*
X014154Y016359D01*
X014303Y016242D02*
X019943Y016242D01*
X020000Y016126D02*
X014420Y016126D01*
X014537Y016009D02*
X019873Y016009D01*
X020529Y016089D02*
X020556Y016089D01*
X020566Y016092D01*
X020627Y016031D01*
X020713Y015996D01*
X020713Y015788D01*
X020764Y015665D01*
X020997Y015431D01*
X020997Y015222D01*
X021004Y015205D01*
X017514Y015205D01*
X017443Y015275D01*
X017349Y015314D01*
X016871Y015314D01*
X016777Y015275D01*
X016705Y015203D01*
X016666Y015109D01*
X016666Y014811D01*
X016373Y014811D01*
X016373Y014912D01*
X016334Y015006D01*
X016262Y015078D01*
X016168Y015117D01*
X015690Y015117D01*
X015596Y015078D01*
X015524Y015006D01*
X015485Y014912D01*
X015485Y014527D01*
X015100Y014527D01*
X015006Y014488D01*
X014934Y014416D01*
X014895Y014322D01*
X014895Y013844D01*
X014934Y013750D01*
X015006Y013678D01*
X015100Y013639D01*
X015578Y013639D01*
X015672Y013678D01*
X015742Y013748D01*
X024256Y013748D01*
X024256Y013225D01*
X024255Y013226D01*
X024219Y013247D01*
X024178Y013257D01*
X023980Y013257D01*
X023980Y012941D01*
X023902Y012941D01*
X023902Y013257D01*
X023703Y013257D01*
X023694Y013255D01*
X023633Y013315D01*
X023539Y013354D01*
X023004Y013354D01*
X022910Y013315D01*
X022838Y013243D01*
X022832Y013229D01*
X022830Y013235D01*
X022758Y013307D01*
X022664Y013346D01*
X022186Y013346D01*
X022092Y013307D01*
X022020Y013235D01*
X021981Y013141D01*
X021981Y012663D01*
X022020Y012569D01*
X022092Y012497D01*
X022186Y012458D01*
X022287Y012458D01*
X022287Y012119D01*
X022281Y012104D01*
X022281Y011565D01*
X022327Y011456D01*
X022327Y011425D01*
X022296Y011425D01*
X022187Y011470D01*
X021880Y011470D01*
X021885Y011481D01*
X021885Y011959D01*
X021885Y011960D01*
X021933Y012009D01*
X021972Y012103D01*
X021972Y012638D01*
X021933Y012732D01*
X021873Y012792D01*
X021876Y012802D01*
X021876Y013000D01*
X021559Y013000D01*
X021559Y013079D01*
X021480Y013079D01*
X021480Y013000D01*
X021164Y013000D01*
X021164Y012802D01*
X021166Y012792D01*
X021106Y012732D01*
X021067Y012638D01*
X021067Y012103D01*
X021072Y012090D01*
X021036Y012054D01*
X020997Y011959D01*
X020997Y011481D01*
X021014Y011439D01*
X020940Y011514D01*
X020938Y011517D01*
X020596Y011860D01*
X020596Y012499D01*
X020665Y012569D01*
X020704Y012663D01*
X020704Y013141D01*
X020665Y013235D01*
X020593Y013307D01*
X020499Y013346D01*
X020021Y013346D01*
X019927Y013307D01*
X019855Y013235D01*
X019816Y013141D01*
X019816Y012835D01*
X019166Y013485D01*
X019071Y013579D01*
X018948Y013630D01*
X013707Y013630D01*
X013509Y013828D01*
X013509Y014100D01*
X013515Y014102D01*
X013587Y014174D01*
X013626Y014268D01*
X013626Y014803D01*
X013598Y014870D01*
X013626Y014937D01*
X013626Y015472D01*
X013587Y015566D01*
X013515Y015638D01*
X013469Y015657D01*
X013515Y015677D01*
X013555Y015717D01*
X013879Y015717D01*
X014223Y015373D01*
X014347Y015322D01*
X019858Y015322D01*
X019927Y015252D01*
X020021Y015213D01*
X020499Y015213D01*
X020593Y015252D01*
X020665Y015324D01*
X020704Y015418D01*
X020704Y015896D01*
X020665Y015991D01*
X020593Y016063D01*
X020529Y016089D01*
X020646Y016009D02*
X020680Y016009D01*
X020704Y015893D02*
X020713Y015893D01*
X020704Y015776D02*
X020717Y015776D01*
X020704Y015659D02*
X020769Y015659D01*
X020704Y015543D02*
X020886Y015543D01*
X020997Y015426D02*
X020704Y015426D01*
X020650Y015310D02*
X020997Y015310D01*
X021709Y015893D02*
X021833Y015893D01*
X021781Y016009D02*
X021382Y016009D01*
X021431Y016126D02*
X021781Y016126D01*
X021781Y016242D02*
X021461Y016242D01*
X021461Y016359D02*
X021799Y016359D01*
X021884Y016476D02*
X021461Y016476D01*
X021461Y016592D02*
X021927Y016592D01*
X022019Y016709D02*
X021454Y016709D01*
X021383Y016825D02*
X022136Y016825D01*
X022276Y016942D02*
X013626Y016942D01*
X012926Y017252D02*
X012925Y017252D01*
X012831Y017213D01*
X012799Y017181D01*
X012728Y017252D01*
X012634Y017291D01*
X012406Y017291D01*
X012379Y017319D01*
X012256Y017370D01*
X009178Y017370D01*
X008835Y017713D01*
X008788Y017733D01*
X008317Y018203D01*
X008397Y018236D01*
X008469Y018308D01*
X008508Y018402D01*
X008508Y018689D01*
X008511Y018689D01*
X008627Y018737D01*
X008716Y018826D01*
X008764Y018941D01*
X008764Y019217D01*
X008940Y019217D01*
X008940Y019514D01*
X008979Y019514D01*
X008979Y019553D01*
X009355Y019553D01*
X009355Y019673D01*
X009588Y019673D01*
X009588Y019592D01*
X009904Y019592D01*
X009904Y019514D01*
X009588Y019514D01*
X009588Y019316D01*
X009599Y019275D01*
X009620Y019239D01*
X009649Y019209D01*
X009685Y019188D01*
X009726Y019177D01*
X009853Y019177D01*
X009815Y019140D01*
X009776Y019046D01*
X009776Y018568D01*
X009815Y018474D01*
X009887Y018402D01*
X009981Y018363D01*
X010459Y018363D01*
X010554Y018402D01*
X010626Y018474D01*
X010664Y018568D01*
X010664Y018778D01*
X010898Y019011D01*
X010949Y019134D01*
X010949Y019278D01*
X011037Y019278D01*
X011037Y019378D01*
X011037Y019378D01*
X011037Y019278D01*
X011243Y019278D01*
X011243Y018983D01*
X011253Y018943D01*
X011274Y018906D01*
X011304Y018877D01*
X011340Y018856D01*
X011381Y018845D01*
X011559Y018845D01*
X011559Y019555D01*
X011638Y019555D01*
X011638Y018845D01*
X011816Y018845D01*
X011857Y018856D01*
X011893Y018877D01*
X011923Y018906D01*
X011943Y018943D01*
X011954Y018983D01*
X011954Y019278D01*
X012159Y019278D01*
X012159Y019378D01*
X012159Y019378D01*
X012159Y019278D01*
X012407Y019278D01*
X012447Y019289D01*
X012483Y019310D01*
X012513Y019339D01*
X012534Y019376D01*
X012538Y019391D01*
X012563Y019366D01*
X012563Y019150D01*
X012602Y019056D01*
X012674Y018984D01*
X012768Y018945D01*
X013303Y018945D01*
X013397Y018984D01*
X013457Y019044D01*
X013467Y019042D01*
X013665Y019042D01*
X013665Y019358D01*
X013744Y019358D01*
X013744Y019042D01*
X013843Y019042D01*
X013843Y017957D01*
X013890Y017843D01*
X013683Y017843D01*
X013609Y017873D01*
X013131Y017873D01*
X013037Y017834D01*
X012965Y017762D01*
X012926Y017668D01*
X012926Y017252D01*
X012926Y017292D02*
X012406Y017292D01*
X012926Y017409D02*
X009140Y017409D01*
X009023Y017525D02*
X012926Y017525D01*
X012926Y017642D02*
X008906Y017642D01*
X008762Y017758D02*
X012963Y017758D01*
X013843Y017992D02*
X008529Y017992D01*
X008412Y018108D02*
X013843Y018108D01*
X013843Y018225D02*
X008370Y018225D01*
X008483Y018341D02*
X013843Y018341D01*
X013843Y018458D02*
X010610Y018458D01*
X010664Y018575D02*
X013843Y018575D01*
X013843Y018691D02*
X010664Y018691D01*
X010694Y018808D02*
X013843Y018808D01*
X013843Y018924D02*
X011933Y018924D01*
X011954Y019041D02*
X012617Y019041D01*
X012563Y019158D02*
X011954Y019158D01*
X011954Y019274D02*
X012563Y019274D01*
X012976Y019398D02*
X013035Y019398D01*
X012976Y019398D02*
X012484Y019890D01*
X012159Y019890D01*
X012159Y020087D02*
X012917Y020087D01*
X012976Y020028D01*
X012673Y020434D02*
X012595Y020402D01*
X012595Y020402D01*
X011882Y020402D01*
X011788Y020363D01*
X011770Y020344D01*
X011638Y020344D01*
X011638Y019634D01*
X011559Y019634D01*
X011559Y020344D01*
X011520Y020344D01*
X011520Y020641D01*
X011477Y020745D01*
X011488Y020756D01*
X012135Y020756D01*
X012287Y020819D01*
X013011Y021543D01*
X013203Y021543D01*
X013162Y021502D01*
X013123Y021408D01*
X013123Y021053D01*
X012996Y021053D01*
X012996Y020756D01*
X012957Y020756D01*
X012957Y021053D01*
X012719Y021053D01*
X012679Y021042D01*
X012642Y021021D01*
X012613Y020991D01*
X012592Y020955D01*
X012581Y020915D01*
X012581Y020756D01*
X012957Y020756D01*
X012957Y020717D01*
X012581Y020717D01*
X012581Y020558D01*
X012592Y020517D01*
X012613Y020481D01*
X012642Y020451D01*
X012673Y020434D01*
X012662Y020440D02*
X011520Y020440D01*
X011520Y020557D02*
X012581Y020557D01*
X012581Y020674D02*
X011506Y020674D01*
X011205Y020579D02*
X011205Y020126D01*
X010738Y020126D01*
X010634Y020022D01*
X010634Y019988D01*
X008449Y019988D01*
X008449Y019004D01*
X008384Y019004D01*
X008325Y019063D01*
X007785Y019063D01*
X007776Y019054D01*
X007701Y019130D01*
X007701Y019373D01*
X007597Y019476D01*
X007071Y019476D01*
X007071Y019713D01*
X007597Y019713D01*
X007676Y019791D01*
X007858Y019791D01*
X007858Y020410D01*
X008317Y020410D01*
X008420Y020514D01*
X008420Y020579D01*
X009039Y020579D01*
X009039Y021366D01*
X010614Y021366D01*
X010614Y020579D01*
X011205Y020579D01*
X011205Y020557D02*
X008420Y020557D01*
X008347Y020440D02*
X011205Y020440D01*
X011205Y020324D02*
X007858Y020324D01*
X007858Y020207D02*
X011205Y020207D01*
X011559Y020207D02*
X011638Y020207D01*
X011638Y020091D02*
X011559Y020091D01*
X011559Y019974D02*
X011638Y019974D01*
X011638Y019857D02*
X011559Y019857D01*
X011559Y019741D02*
X011638Y019741D01*
X011638Y019508D02*
X011559Y019508D01*
X011559Y019391D02*
X011638Y019391D01*
X011638Y019274D02*
X011559Y019274D01*
X011559Y019158D02*
X011638Y019158D01*
X011638Y019041D02*
X011559Y019041D01*
X011559Y018924D02*
X011638Y018924D01*
X011264Y018924D02*
X010811Y018924D01*
X010910Y019041D02*
X011243Y019041D01*
X011243Y019158D02*
X010949Y019158D01*
X010949Y019274D02*
X011243Y019274D01*
X011037Y019693D02*
X010713Y019693D01*
X010702Y020091D02*
X007858Y020091D01*
X007858Y019974D02*
X008449Y019974D01*
X008449Y019857D02*
X007858Y019857D01*
X007625Y019741D02*
X008449Y019741D01*
X008449Y019624D02*
X007071Y019624D01*
X007071Y019508D02*
X008449Y019508D01*
X008449Y019391D02*
X007682Y019391D01*
X007701Y019274D02*
X008449Y019274D01*
X008449Y019158D02*
X007701Y019158D01*
X008347Y019041D02*
X008449Y019041D01*
X008764Y019041D02*
X009776Y019041D01*
X009776Y018924D02*
X008757Y018924D01*
X008698Y018808D02*
X009776Y018808D01*
X009776Y018691D02*
X008517Y018691D01*
X008508Y018575D02*
X009776Y018575D01*
X009831Y018458D02*
X008508Y018458D01*
X007858Y018217D02*
X008646Y017429D01*
X008645Y017875D02*
X013877Y017875D01*
X014157Y018020D02*
X018094Y018020D01*
X019276Y019201D01*
X018832Y019202D02*
X018832Y019440D01*
X018871Y019534D01*
X018943Y019606D01*
X019037Y019645D01*
X019515Y019645D01*
X019609Y019606D01*
X019681Y019534D01*
X019720Y019440D01*
X019720Y019245D01*
X019909Y019435D01*
X020026Y019551D01*
X020178Y019614D01*
X021382Y019614D01*
X021382Y019724D01*
X021421Y019818D01*
X021481Y019879D01*
X021479Y019889D01*
X021479Y020087D01*
X021795Y020087D01*
X021795Y020165D01*
X021479Y020165D01*
X021479Y020363D01*
X021490Y020404D01*
X021511Y020440D01*
X016343Y020440D01*
X016343Y020324D02*
X021479Y020324D01*
X021479Y020207D02*
X016343Y020207D01*
X016343Y020091D02*
X021795Y020091D01*
X021795Y020165D02*
X021795Y020502D01*
X021617Y020502D01*
X021576Y020491D01*
X021540Y020470D01*
X021511Y020440D01*
X021795Y020440D02*
X021874Y020440D01*
X021874Y020502D02*
X021874Y020165D01*
X022191Y020165D01*
X022191Y020363D01*
X022180Y020404D01*
X022159Y020440D01*
X022129Y020470D01*
X022093Y020491D01*
X022052Y020502D01*
X021874Y020502D01*
X021874Y020324D02*
X021795Y020324D01*
X021795Y020207D02*
X021874Y020207D01*
X021874Y020165D02*
X021795Y020165D01*
X021874Y020165D02*
X021874Y020087D01*
X022191Y020087D01*
X022191Y019889D01*
X022188Y019879D01*
X022248Y019818D01*
X022287Y019724D01*
X022287Y019614D01*
X022850Y019614D01*
X022850Y019620D01*
X023678Y019620D01*
X023678Y019659D01*
X022850Y019659D01*
X022850Y019752D01*
X022792Y019810D01*
X022753Y019904D01*
X022753Y020321D01*
X022764Y020348D01*
X022753Y020376D01*
X022753Y020793D01*
X022764Y020821D01*
X022753Y020849D01*
X022753Y021265D01*
X022764Y021293D01*
X022753Y021321D01*
X022753Y021738D01*
X022792Y021832D01*
X022850Y021890D01*
X022850Y021982D01*
X023678Y021982D01*
X023678Y022022D01*
X023678Y022319D01*
X022988Y022319D01*
X022947Y022308D01*
X022911Y022287D01*
X022882Y022257D01*
X022861Y022221D01*
X022850Y022180D01*
X022850Y022022D01*
X023678Y022022D01*
X023718Y022022D01*
X024546Y022022D01*
X024546Y022119D01*
X024701Y021964D01*
X024795Y021870D01*
X024918Y021819D01*
X028124Y021819D01*
X028194Y021748D01*
X028289Y021710D01*
X028767Y021710D01*
X028861Y021748D01*
X028933Y021820D01*
X028972Y021915D01*
X028972Y022393D01*
X028933Y022487D01*
X028861Y022559D01*
X028767Y022598D01*
X028289Y022598D01*
X028194Y022559D01*
X028124Y022488D01*
X025123Y022488D01*
X024843Y022768D01*
X024899Y022768D01*
X024899Y023596D01*
X024938Y023596D01*
X024938Y022768D01*
X025030Y022768D01*
X025088Y022710D01*
X025182Y022671D01*
X025599Y022671D01*
X025627Y022683D01*
X025655Y022671D01*
X026072Y022671D01*
X026099Y022683D01*
X026127Y022671D01*
X026544Y022671D01*
X026572Y022683D01*
X026600Y022671D01*
X027016Y022671D01*
X027044Y022683D01*
X027072Y022671D01*
X027489Y022671D01*
X027517Y022683D01*
X027545Y022671D01*
X027961Y022671D01*
X027989Y022683D01*
X028017Y022671D01*
X028434Y022671D01*
X028462Y022683D01*
X028489Y022671D01*
X028906Y022671D01*
X028934Y022683D01*
X028962Y022671D01*
X029379Y022671D01*
X029406Y022683D01*
X029434Y022671D01*
X029851Y022671D01*
X029945Y022710D01*
X030003Y022768D01*
X030095Y022768D01*
X030095Y023596D01*
X030135Y023596D01*
X030135Y022768D01*
X030227Y022768D01*
X030285Y022710D01*
X030379Y022671D01*
X030673Y022671D01*
X030673Y019049D01*
X030379Y019049D01*
X030351Y019038D01*
X030324Y019049D01*
X029907Y019049D01*
X029879Y019038D01*
X029851Y019049D01*
X029434Y019049D01*
X029406Y019038D01*
X029379Y019049D01*
X028962Y019049D01*
X028934Y019038D01*
X028906Y019049D01*
X028489Y019049D01*
X028462Y019038D01*
X028434Y019049D01*
X028017Y019049D01*
X027989Y019038D01*
X027961Y019049D01*
X027545Y019049D01*
X027517Y019038D01*
X027489Y019049D01*
X027072Y019049D01*
X027044Y019038D01*
X027016Y019049D01*
X026600Y019049D01*
X026572Y019038D01*
X026544Y019049D01*
X026127Y019049D01*
X026099Y019038D01*
X026072Y019049D01*
X025655Y019049D01*
X025627Y019038D01*
X025599Y019049D01*
X025182Y019049D01*
X025155Y019038D01*
X025127Y019049D01*
X025024Y019049D01*
X025519Y019544D01*
X025617Y019544D01*
X025711Y019583D01*
X025783Y019655D01*
X025822Y019749D01*
X025822Y020227D01*
X025783Y020321D01*
X025711Y020393D01*
X025617Y020432D01*
X025139Y020432D01*
X025045Y020393D01*
X024973Y020321D01*
X024934Y020227D01*
X024934Y020129D01*
X024546Y019741D01*
X024546Y019741D01*
X024546Y019752D01*
X024604Y019810D01*
X024643Y019904D01*
X024643Y020321D01*
X024631Y020348D01*
X024643Y020376D01*
X024643Y020793D01*
X024631Y020821D01*
X024643Y020849D01*
X024643Y021265D01*
X024631Y021293D01*
X024643Y021321D01*
X024643Y021738D01*
X024604Y021832D01*
X024546Y021890D01*
X024546Y021982D01*
X023718Y021982D01*
X023718Y022022D01*
X023718Y022319D01*
X024346Y022319D01*
X024256Y022408D01*
X020390Y022408D01*
X020266Y022459D01*
X019873Y022853D01*
X019778Y022948D01*
X019727Y023071D01*
X019727Y024691D01*
X019682Y024691D01*
X019588Y024730D01*
X019537Y024781D01*
X019487Y024730D01*
X019393Y024691D01*
X019356Y024691D01*
X019356Y023365D01*
X019381Y023355D01*
X019453Y023283D01*
X019492Y023189D01*
X019492Y022693D01*
X019487Y022680D01*
X019549Y022619D01*
X019588Y022524D01*
X019588Y022046D01*
X019549Y021952D01*
X019477Y021880D01*
X019383Y021841D01*
X018905Y021841D01*
X018811Y021880D01*
X018739Y021952D01*
X018700Y022046D01*
X018700Y022510D01*
X018658Y022527D01*
X018598Y022588D01*
X018588Y022585D01*
X018390Y022585D01*
X018390Y022902D01*
X018311Y022902D01*
X017975Y022902D01*
X017975Y022723D01*
X017986Y022683D01*
X018007Y022646D01*
X018036Y022617D01*
X018072Y022596D01*
X018113Y022585D01*
X018311Y022585D01*
X018311Y022902D01*
X018311Y022980D01*
X017975Y022980D01*
X017975Y023159D01*
X017986Y023199D01*
X018007Y023235D01*
X018036Y023265D01*
X018072Y023286D01*
X018113Y023297D01*
X018311Y023297D01*
X018311Y022980D01*
X018390Y022980D01*
X018390Y023297D01*
X018588Y023297D01*
X018598Y023294D01*
X018658Y023355D01*
X018684Y023365D01*
X018684Y025088D01*
X018690Y025102D01*
X018690Y025394D01*
X018729Y025488D01*
X018801Y025560D01*
X018895Y025599D01*
X019393Y025599D01*
X019487Y025560D01*
X019537Y025509D01*
X019588Y025560D01*
X019682Y025599D01*
X020180Y025599D01*
X020274Y025560D01*
X020325Y025509D01*
X020376Y025560D01*
X020470Y025599D01*
X020967Y025599D01*
X021061Y025560D01*
X021133Y025488D01*
X021165Y025413D01*
X021181Y025441D01*
X021210Y025470D01*
X021247Y025491D01*
X021287Y025502D01*
X021501Y025502D01*
X021501Y025150D01*
X021511Y025150D01*
X021863Y025150D01*
X021863Y025364D01*
X021852Y025404D01*
X021831Y025441D01*
X021802Y025470D01*
X021765Y025491D01*
X021725Y025502D01*
X021511Y025502D01*
X021511Y025150D01*
X021511Y025140D01*
X021863Y025140D01*
X021863Y024926D01*
X021852Y024886D01*
X021831Y024849D01*
X021802Y024820D01*
X021765Y024799D01*
X021725Y024788D01*
X021511Y024788D01*
X021511Y025140D01*
X021501Y025140D01*
X021501Y024788D01*
X021287Y024788D01*
X021247Y024799D01*
X021210Y024820D01*
X021181Y024849D01*
X021165Y024877D01*
X021133Y024802D01*
X021061Y024730D01*
X020967Y024691D01*
X020470Y024691D01*
X020399Y024720D01*
X020399Y023277D01*
X020596Y023080D01*
X024461Y023080D01*
X024584Y023029D01*
X024602Y023011D01*
X024602Y023596D01*
X024899Y023596D01*
X024899Y023636D01*
X024899Y024464D01*
X024740Y024464D01*
X024699Y024453D01*
X024663Y024432D01*
X024634Y024403D01*
X024613Y024367D01*
X024602Y024326D01*
X024602Y023636D01*
X024899Y023636D01*
X024938Y023636D01*
X024938Y024464D01*
X025004Y024464D01*
X025004Y024742D01*
X024973Y024773D01*
X024934Y024867D01*
X024934Y025345D01*
X024973Y025439D01*
X025045Y025511D01*
X025139Y025550D01*
X025617Y025550D01*
X025711Y025511D01*
X025783Y025439D01*
X025822Y025345D01*
X025822Y024867D01*
X025783Y024773D01*
X025752Y024742D01*
X025752Y024561D01*
X026072Y024561D01*
X026099Y024549D01*
X026127Y024561D01*
X026544Y024561D01*
X026572Y024549D01*
X026600Y024561D01*
X027016Y024561D01*
X027044Y024549D01*
X027072Y024561D01*
X027489Y024561D01*
X027517Y024549D01*
X027545Y024561D01*
X027961Y024561D01*
X027989Y024549D01*
X028017Y024561D01*
X028434Y024561D01*
X028462Y024549D01*
X028489Y024561D01*
X028906Y024561D01*
X028934Y024549D01*
X028962Y024561D01*
X029379Y024561D01*
X029406Y024549D01*
X029434Y024561D01*
X029851Y024561D01*
X029945Y024522D01*
X030003Y024464D01*
X030095Y024464D01*
X030095Y023636D01*
X030135Y023636D01*
X030135Y024464D01*
X030227Y024464D01*
X030285Y024522D01*
X030379Y024561D01*
X030673Y024561D01*
X030673Y026597D01*
X027781Y029489D01*
X022825Y029489D01*
X023038Y029000D01*
X023113Y028450D01*
X023038Y027900D01*
X023038Y027900D01*
X022816Y027391D01*
X022816Y027391D01*
X022466Y026960D01*
X022466Y026960D01*
X022466Y026960D01*
X022013Y026640D01*
X022013Y026640D01*
X021490Y026454D01*
X021490Y026454D01*
X020936Y026416D01*
X020936Y026416D01*
X020392Y026529D01*
X020392Y026529D01*
X019899Y026785D01*
X019899Y026785D01*
X019494Y027164D01*
X019494Y027164D01*
X019205Y027638D01*
X019205Y027638D01*
X019158Y027808D01*
X019158Y026698D01*
X019118Y026602D01*
X019045Y026529D01*
X018949Y026489D01*
X012863Y026489D01*
X011562Y026099D01*
X011716Y025990D01*
X011716Y025990D01*
X012066Y025559D01*
X012066Y025559D01*
X012288Y025050D01*
X012288Y025050D01*
X012363Y024500D01*
X012288Y023950D01*
X012288Y023950D01*
X012066Y023441D01*
X012066Y023441D01*
X011716Y023010D01*
X011716Y023010D01*
X011716Y023010D01*
X011263Y022690D01*
X011263Y022690D01*
X010740Y022504D01*
X010740Y022504D01*
X010186Y022466D01*
X010186Y022466D01*
X009642Y022579D01*
X009483Y022662D01*
X009483Y022311D01*
X011282Y022311D01*
X011282Y022559D01*
X011321Y022653D01*
X011393Y022725D01*
X011487Y022764D01*
X011982Y022764D01*
X012076Y022725D01*
X012148Y022653D01*
X012187Y022559D01*
X012187Y021889D01*
X012584Y022285D01*
X012584Y022559D01*
X012623Y022653D01*
X012695Y022725D01*
X012789Y022764D01*
X013154Y022764D01*
X013154Y024401D01*
X013216Y024553D01*
X013333Y024669D01*
X013485Y024732D01*
X013829Y024732D01*
X013850Y024783D01*
X013922Y024855D01*
X014016Y024894D01*
X014649Y024894D01*
X014743Y024855D01*
X014813Y024786D01*
X014837Y024786D01*
X014906Y024855D01*
X015000Y024894D01*
X015634Y024894D01*
X015728Y024855D01*
X015800Y024783D01*
X015839Y024689D01*
X015839Y024056D01*
X015800Y023962D01*
X015728Y023890D01*
X015705Y023880D01*
X015728Y023871D01*
X015800Y023799D01*
X015839Y023705D01*
X015839Y023157D01*
X016011Y023157D01*
X016163Y023095D01*
X016280Y022978D01*
X016343Y022826D01*
X016343Y018528D01*
X016280Y018376D01*
X016238Y018335D01*
X017964Y018335D01*
X017972Y018343D01*
X017650Y018343D01*
X017650Y018945D01*
X017650Y019063D01*
X018295Y019063D01*
X018295Y019527D01*
X018284Y019567D01*
X018263Y019604D01*
X018233Y019633D01*
X018197Y019654D01*
X018157Y019665D01*
X017650Y019665D01*
X017650Y019063D01*
X017531Y019063D01*
X017531Y018945D01*
X016886Y018945D01*
X016886Y018481D01*
X016897Y018441D01*
X016918Y018404D01*
X016948Y018375D01*
X016984Y018354D01*
X017024Y018343D01*
X017531Y018343D01*
X017531Y018945D01*
X017650Y018945D01*
X018295Y018945D01*
X018295Y018665D01*
X018832Y019202D01*
X018787Y019158D02*
X018295Y019158D01*
X018295Y019274D02*
X018832Y019274D01*
X018832Y019391D02*
X018295Y019391D01*
X018295Y019508D02*
X018860Y019508D01*
X018987Y019624D02*
X018243Y019624D01*
X017650Y019624D02*
X017531Y019624D01*
X017531Y019665D02*
X017024Y019665D01*
X016984Y019654D01*
X016948Y019633D01*
X016918Y019604D01*
X016897Y019567D01*
X016886Y019527D01*
X016886Y019063D01*
X017531Y019063D01*
X017531Y019665D01*
X017531Y019508D02*
X017650Y019508D01*
X017650Y019391D02*
X017531Y019391D01*
X017531Y019274D02*
X017650Y019274D01*
X017650Y019158D02*
X017531Y019158D01*
X017531Y019041D02*
X016343Y019041D01*
X016343Y018924D02*
X016886Y018924D01*
X016886Y018808D02*
X016343Y018808D01*
X016343Y018691D02*
X016886Y018691D01*
X016886Y018575D02*
X016343Y018575D01*
X016314Y018458D02*
X016892Y018458D01*
X016245Y018341D02*
X017971Y018341D01*
X017650Y018458D02*
X017531Y018458D01*
X017531Y018575D02*
X017650Y018575D01*
X017650Y018691D02*
X017531Y018691D01*
X017531Y018808D02*
X017650Y018808D01*
X017650Y018924D02*
X017531Y018924D01*
X017650Y019041D02*
X018670Y019041D01*
X018554Y018924D02*
X018295Y018924D01*
X018295Y018808D02*
X018437Y018808D01*
X018321Y018691D02*
X018295Y018691D01*
X016886Y019158D02*
X016343Y019158D01*
X016343Y019274D02*
X016886Y019274D01*
X016886Y019391D02*
X016343Y019391D01*
X016343Y019508D02*
X016886Y019508D01*
X016939Y019624D02*
X016343Y019624D01*
X016343Y019741D02*
X021389Y019741D01*
X021382Y019624D02*
X019565Y019624D01*
X019692Y019508D02*
X019982Y019508D01*
X019865Y019391D02*
X019720Y019391D01*
X019720Y019274D02*
X019749Y019274D01*
X021230Y018575D02*
X021922Y018575D01*
X022341Y017875D02*
X022341Y017875D01*
X022341Y017758D02*
X022341Y017758D01*
X023535Y019074D02*
X023286Y019323D01*
X023678Y019323D01*
X023678Y019620D01*
X023718Y019620D01*
X023718Y019323D01*
X024128Y019323D01*
X023879Y019074D01*
X023535Y019074D01*
X023452Y019158D02*
X023963Y019158D01*
X024079Y019274D02*
X023335Y019274D01*
X023678Y019391D02*
X023718Y019391D01*
X023718Y019508D02*
X023678Y019508D01*
X023678Y019624D02*
X022287Y019624D01*
X022281Y019741D02*
X022850Y019741D01*
X022772Y019857D02*
X022209Y019857D01*
X022191Y019974D02*
X022753Y019974D01*
X022753Y020091D02*
X021874Y020091D01*
X022191Y020207D02*
X022753Y020207D01*
X022754Y020324D02*
X022191Y020324D01*
X022159Y020440D02*
X022753Y020440D01*
X022753Y020557D02*
X016343Y020557D01*
X016343Y020674D02*
X022753Y020674D01*
X022753Y020790D02*
X016343Y020790D01*
X016343Y020907D02*
X022753Y020907D01*
X022753Y021023D02*
X016343Y021023D01*
X016343Y021140D02*
X022753Y021140D01*
X022753Y021257D02*
X016343Y021257D01*
X016343Y021373D02*
X022753Y021373D01*
X022753Y021490D02*
X016343Y021490D01*
X016343Y021606D02*
X022753Y021606D01*
X022753Y021723D02*
X016343Y021723D01*
X016343Y021840D02*
X022800Y021840D01*
X022850Y021956D02*
X019550Y021956D01*
X019588Y022073D02*
X022850Y022073D01*
X022852Y022190D02*
X019588Y022190D01*
X019588Y022306D02*
X022945Y022306D01*
X023678Y022306D02*
X023718Y022306D01*
X023718Y022190D02*
X023678Y022190D01*
X023678Y022073D02*
X023718Y022073D01*
X024546Y022073D02*
X024592Y022073D01*
X024546Y021956D02*
X024708Y021956D01*
X024596Y021840D02*
X024867Y021840D01*
X024643Y021723D02*
X028256Y021723D01*
X028799Y021723D02*
X030673Y021723D01*
X030673Y021606D02*
X024643Y021606D01*
X024643Y021490D02*
X030673Y021490D01*
X030673Y021373D02*
X024643Y021373D01*
X024643Y021257D02*
X030673Y021257D01*
X030673Y021140D02*
X024643Y021140D01*
X024643Y021023D02*
X030673Y021023D01*
X030673Y020907D02*
X024643Y020907D01*
X024643Y020790D02*
X030673Y020790D01*
X030673Y020674D02*
X024643Y020674D01*
X024643Y020557D02*
X030673Y020557D01*
X030673Y020440D02*
X024643Y020440D01*
X024641Y020324D02*
X024975Y020324D01*
X024934Y020207D02*
X024643Y020207D01*
X024643Y020091D02*
X024896Y020091D01*
X024779Y019974D02*
X024643Y019974D01*
X024623Y019857D02*
X024662Y019857D01*
X025249Y019274D02*
X030673Y019274D01*
X030673Y019158D02*
X025132Y019158D01*
X025146Y019041D02*
X025163Y019041D01*
X025365Y019391D02*
X030673Y019391D01*
X030673Y019508D02*
X025482Y019508D01*
X025752Y019624D02*
X030673Y019624D01*
X030673Y019741D02*
X025818Y019741D01*
X025822Y019857D02*
X030673Y019857D01*
X030673Y019974D02*
X025822Y019974D01*
X025822Y020091D02*
X030673Y020091D01*
X030673Y020207D02*
X025822Y020207D01*
X025780Y020324D02*
X030673Y020324D01*
X030360Y019041D02*
X030343Y019041D01*
X029887Y019041D02*
X029871Y019041D01*
X029415Y019041D02*
X029398Y019041D01*
X028942Y019041D02*
X028926Y019041D01*
X028470Y019041D02*
X028453Y019041D01*
X027997Y019041D02*
X027981Y019041D01*
X027525Y019041D02*
X027509Y019041D01*
X027052Y019041D02*
X027036Y019041D01*
X026580Y019041D02*
X026564Y019041D01*
X026108Y019041D02*
X026091Y019041D01*
X025635Y019041D02*
X025619Y019041D01*
X024384Y016307D02*
X023687Y016307D01*
X023693Y016288D01*
X023693Y016158D01*
X023297Y016158D01*
X022902Y016158D01*
X023297Y016158D01*
X023297Y016158D01*
X023297Y016158D01*
X023693Y016158D01*
X023693Y016119D01*
X024776Y016119D01*
X024854Y016198D01*
X024548Y016198D01*
X024454Y016237D01*
X024384Y016307D01*
X024449Y016242D02*
X023693Y016242D01*
X023693Y016126D02*
X024782Y016126D01*
X025071Y015060D02*
X025071Y015060D01*
X024256Y013677D02*
X015670Y013677D01*
X015007Y013677D02*
X013660Y013677D01*
X013544Y013794D02*
X014915Y013794D01*
X014895Y013910D02*
X013509Y013910D01*
X013509Y014027D02*
X014895Y014027D01*
X014895Y014143D02*
X013557Y014143D01*
X013623Y014260D02*
X014895Y014260D01*
X014917Y014377D02*
X013626Y014377D01*
X013626Y014493D02*
X015019Y014493D01*
X015485Y014610D02*
X013626Y014610D01*
X013626Y014726D02*
X015485Y014726D01*
X015485Y014843D02*
X013609Y014843D01*
X013626Y014960D02*
X015505Y014960D01*
X015594Y015076D02*
X013626Y015076D01*
X013626Y015193D02*
X016701Y015193D01*
X016666Y015076D02*
X016264Y015076D01*
X016353Y014960D02*
X016666Y014960D01*
X016666Y014843D02*
X016373Y014843D01*
X016860Y015310D02*
X013626Y015310D01*
X013626Y015426D02*
X014170Y015426D01*
X014053Y015543D02*
X013597Y015543D01*
X013473Y015659D02*
X013936Y015659D01*
X012346Y016012D02*
X012030Y016012D01*
X012030Y015833D01*
X012041Y015793D01*
X012062Y015757D01*
X012091Y015727D01*
X012121Y015710D01*
X012044Y015678D01*
X011972Y015606D01*
X011969Y015598D01*
X011934Y015598D01*
X011933Y015599D01*
X011933Y015921D01*
X011882Y016044D01*
X011788Y016138D01*
X011225Y016701D01*
X011933Y016701D01*
X011933Y016591D01*
X011972Y016497D01*
X012044Y016425D01*
X012121Y016393D01*
X012091Y016375D01*
X012062Y016346D01*
X012041Y016309D01*
X012030Y016269D01*
X012030Y016091D01*
X012346Y016091D01*
X012346Y016012D01*
X012030Y016009D02*
X011896Y016009D01*
X011933Y015893D02*
X012030Y015893D01*
X012051Y015776D02*
X011933Y015776D01*
X011933Y015659D02*
X012026Y015659D01*
X012030Y016126D02*
X011800Y016126D01*
X011684Y016242D02*
X012030Y016242D01*
X012075Y016359D02*
X011567Y016359D01*
X011450Y016476D02*
X011993Y016476D01*
X011933Y016592D02*
X011334Y016592D01*
X010869Y016110D02*
X011264Y015716D01*
X011264Y015394D01*
X011315Y015271D01*
X011512Y015074D01*
X011606Y014980D01*
X011729Y014929D01*
X011969Y014929D01*
X011972Y014922D01*
X012044Y014850D01*
X012121Y014818D01*
X012091Y014801D01*
X012062Y014771D01*
X012041Y014735D01*
X012030Y014694D01*
X012030Y014516D01*
X012346Y014516D01*
X012346Y014437D01*
X012030Y014437D01*
X012030Y014259D01*
X012041Y014218D01*
X012062Y014182D01*
X012091Y014152D01*
X012128Y014131D01*
X012168Y014120D01*
X012346Y014120D01*
X012346Y014437D01*
X012425Y014437D01*
X012425Y014120D01*
X012604Y014120D01*
X012644Y014131D01*
X012680Y014152D01*
X012710Y014182D01*
X012731Y014218D01*
X012735Y014233D01*
X012759Y014174D01*
X012831Y014102D01*
X012837Y014100D01*
X012837Y013622D01*
X012880Y013518D01*
X012822Y013542D01*
X012344Y013542D01*
X012250Y013503D01*
X012178Y013431D01*
X012139Y013337D01*
X012139Y012859D01*
X012178Y012765D01*
X012202Y012741D01*
X012162Y012725D01*
X012102Y012664D01*
X012092Y012667D01*
X011894Y012667D01*
X011894Y012350D01*
X011815Y012350D01*
X011815Y012272D01*
X011479Y012272D01*
X011479Y012093D01*
X011490Y012053D01*
X011511Y012017D01*
X011540Y011987D01*
X011576Y011966D01*
X011617Y011955D01*
X011815Y011955D01*
X011815Y012272D01*
X011894Y012272D01*
X011894Y011955D01*
X012092Y011955D01*
X012102Y011958D01*
X012162Y011897D01*
X012256Y011858D01*
X012720Y011858D01*
X012720Y011236D01*
X012759Y011142D01*
X012831Y011070D01*
X012839Y011067D01*
X012839Y010736D01*
X012760Y010736D01*
X012760Y010657D01*
X012443Y010657D01*
X012443Y010461D01*
X011142Y010461D01*
X011026Y010413D01*
X011006Y010393D01*
X010769Y010393D01*
X010675Y010354D01*
X010603Y010282D01*
X010564Y010188D01*
X010564Y009870D01*
X010552Y009870D01*
X010436Y009822D01*
X010347Y009734D01*
X009893Y009280D01*
X009705Y009280D01*
X009710Y009298D01*
X009710Y009535D01*
X009413Y009535D01*
X009413Y009575D01*
X009374Y009575D01*
X009374Y009750D01*
X009374Y010126D01*
X009413Y010126D01*
X009413Y009575D01*
X009710Y009575D01*
X009710Y009812D01*
X009700Y009850D01*
X009710Y009889D01*
X009710Y010126D01*
X009413Y010126D01*
X009413Y010165D01*
X009374Y010165D01*
X009374Y010541D01*
X009215Y010541D01*
X009175Y010530D01*
X009139Y010509D01*
X009137Y010507D01*
X009126Y010532D01*
X009120Y010538D01*
X009375Y010794D01*
X010040Y010794D01*
X010043Y010788D01*
X010115Y010716D01*
X010209Y010677D01*
X010744Y010677D01*
X010811Y010705D01*
X010878Y010677D01*
X011413Y010677D01*
X011495Y010711D01*
X011556Y010686D01*
X012034Y010686D01*
X012128Y010725D01*
X012200Y010797D01*
X012239Y010891D01*
X012239Y011369D01*
X012200Y011463D01*
X012128Y011535D01*
X012034Y011574D01*
X011556Y011574D01*
X011495Y011549D01*
X011413Y011583D01*
X010878Y011583D01*
X010811Y011555D01*
X010744Y011583D01*
X010209Y011583D01*
X010115Y011544D01*
X010083Y011512D01*
X010083Y013386D01*
X010044Y013480D01*
X010043Y013480D01*
X010043Y013573D01*
X010074Y013647D01*
X010074Y014125D01*
X010035Y014219D01*
X009963Y014291D01*
X009869Y014330D01*
X009391Y014330D01*
X009297Y014291D01*
X009225Y014219D01*
X009186Y014125D01*
X009186Y013647D01*
X009217Y013573D01*
X009217Y013480D01*
X009216Y013480D01*
X009184Y013402D01*
X009167Y013432D01*
X009137Y013462D01*
X009101Y013483D01*
X009060Y013494D01*
X008882Y013494D01*
X008882Y012469D01*
X008803Y012469D01*
X008803Y013494D01*
X008625Y013494D01*
X008584Y013483D01*
X008548Y013462D01*
X008518Y013432D01*
X008497Y013396D01*
X008487Y013356D01*
X008487Y012469D01*
X008803Y012469D01*
X008803Y012390D01*
X008487Y012390D01*
X008487Y011503D01*
X008497Y011462D01*
X008518Y011426D01*
X008548Y011396D01*
X008584Y011375D01*
X008625Y011365D01*
X008803Y011365D01*
X008803Y012390D01*
X008882Y012390D01*
X008882Y011365D01*
X008996Y011365D01*
X008308Y010677D01*
X007603Y010677D01*
X007602Y010678D01*
X007602Y011196D01*
X007551Y011319D01*
X007457Y011414D01*
X007334Y011465D01*
X006623Y011465D01*
X006623Y014091D01*
X006536Y014301D01*
X006376Y014461D01*
X006376Y014461D01*
X006166Y014548D01*
X005409Y014548D01*
X005706Y014758D01*
X005706Y014758D01*
X005706Y014758D01*
X006057Y015189D01*
X006278Y015698D01*
X006278Y015698D01*
X006280Y015717D01*
X006528Y015717D01*
X006518Y015678D01*
X006518Y015461D01*
X006835Y015461D01*
X006835Y015382D01*
X006913Y015382D01*
X006913Y015026D01*
X007092Y015026D01*
X007132Y015037D01*
X007169Y015058D01*
X007198Y015087D01*
X007219Y015124D01*
X007230Y015164D01*
X007230Y015382D01*
X006913Y015382D01*
X006913Y015461D01*
X007230Y015461D01*
X007230Y015678D01*
X007220Y015717D01*
X007531Y015717D01*
X007654Y015767D01*
X007748Y015862D01*
X007799Y015985D01*
X007799Y017015D01*
X008559Y016255D01*
X008653Y016161D01*
X008776Y016110D01*
X010869Y016110D01*
X010970Y016009D02*
X007799Y016009D01*
X007799Y016126D02*
X008738Y016126D01*
X008572Y016242D02*
X007799Y016242D01*
X007799Y016359D02*
X008455Y016359D01*
X008339Y016476D02*
X007799Y016476D01*
X007799Y016592D02*
X008222Y016592D01*
X008105Y016709D02*
X007799Y016709D01*
X007799Y016825D02*
X007989Y016825D01*
X007872Y016942D02*
X007799Y016942D01*
X008055Y017232D02*
X007465Y017823D01*
X006283Y017823D01*
X005890Y018217D01*
X006283Y018610D02*
X006677Y018217D01*
X007858Y018217D01*
X008764Y019158D02*
X009833Y019158D01*
X009599Y019274D02*
X009319Y019274D01*
X009323Y019278D02*
X009344Y019314D01*
X009355Y019355D01*
X009355Y019514D01*
X008979Y019514D01*
X008979Y019217D01*
X009217Y019217D01*
X009257Y019228D01*
X009293Y019249D01*
X009323Y019278D01*
X009355Y019391D02*
X009588Y019391D01*
X009588Y019508D02*
X009355Y019508D01*
X009355Y019624D02*
X009588Y019624D01*
X008979Y019508D02*
X008940Y019508D01*
X008940Y019391D02*
X008979Y019391D01*
X008979Y019274D02*
X008940Y019274D01*
X009039Y020674D02*
X010614Y020674D01*
X010614Y020790D02*
X009039Y020790D01*
X009039Y020907D02*
X010614Y020907D01*
X010614Y021023D02*
X009039Y021023D01*
X009039Y021140D02*
X010614Y021140D01*
X010614Y021257D02*
X009039Y021257D01*
X009483Y022423D02*
X011282Y022423D01*
X011282Y022539D02*
X010838Y022539D01*
X011166Y022656D02*
X011324Y022656D01*
X011379Y022773D02*
X013154Y022773D01*
X013154Y022889D02*
X011545Y022889D01*
X011710Y023006D02*
X013154Y023006D01*
X013154Y023122D02*
X011807Y023122D01*
X011902Y023239D02*
X013154Y023239D01*
X013154Y023356D02*
X011997Y023356D01*
X012080Y023472D02*
X013154Y023472D01*
X013154Y023589D02*
X012131Y023589D01*
X012181Y023705D02*
X013154Y023705D01*
X013154Y023822D02*
X012232Y023822D01*
X012283Y023939D02*
X013154Y023939D01*
X013154Y024055D02*
X012302Y024055D01*
X012318Y024172D02*
X013154Y024172D01*
X013154Y024289D02*
X012334Y024289D01*
X012350Y024405D02*
X013155Y024405D01*
X013204Y024522D02*
X012360Y024522D01*
X012344Y024638D02*
X013302Y024638D01*
X013838Y024755D02*
X012328Y024755D01*
X012312Y024872D02*
X013962Y024872D01*
X013894Y025110D02*
X014102Y025110D01*
X014294Y025190D01*
X014440Y025337D01*
X014520Y025528D01*
X014520Y025736D01*
X014440Y025928D01*
X014294Y026074D01*
X014102Y026154D01*
X013894Y026154D01*
X013703Y026074D01*
X013556Y025928D01*
X013476Y025736D01*
X013476Y025528D01*
X013556Y025337D01*
X013703Y025190D01*
X013894Y025110D01*
X013671Y025221D02*
X012213Y025221D01*
X012264Y025105D02*
X018690Y025105D01*
X018690Y025221D02*
X014325Y025221D01*
X014441Y025338D02*
X018690Y025338D01*
X018715Y025455D02*
X014489Y025455D01*
X014520Y025571D02*
X018828Y025571D01*
X019459Y025571D02*
X019616Y025571D01*
X020247Y025571D02*
X020403Y025571D01*
X021034Y025571D02*
X027920Y025571D01*
X027972Y025455D02*
X025768Y025455D01*
X025822Y025338D02*
X028089Y025338D01*
X027980Y025437D02*
X028249Y025194D01*
X028249Y025194D01*
X028594Y025082D01*
X028954Y025120D01*
X029268Y025301D01*
X029268Y025301D01*
X029481Y025594D01*
X029481Y025594D01*
X029556Y025949D01*
X029481Y026303D01*
X029268Y026596D01*
X028954Y026778D01*
X028594Y026816D01*
X028249Y026704D01*
X027980Y026461D01*
X027833Y026130D01*
X027833Y025768D01*
X027980Y025437D01*
X027980Y025437D01*
X027980Y025437D01*
X027868Y025688D02*
X014520Y025688D01*
X014491Y025804D02*
X027833Y025804D01*
X027833Y025921D02*
X014443Y025921D01*
X014330Y026038D02*
X027833Y026038D01*
X027843Y026154D02*
X011747Y026154D01*
X011648Y026038D02*
X013666Y026038D01*
X013553Y025921D02*
X011772Y025921D01*
X011867Y025804D02*
X013505Y025804D01*
X013476Y025688D02*
X011962Y025688D01*
X012057Y025571D02*
X013476Y025571D01*
X013507Y025455D02*
X012112Y025455D01*
X012162Y025338D02*
X013555Y025338D01*
X014703Y024872D02*
X014946Y024872D01*
X015687Y024872D02*
X018684Y024872D01*
X018684Y024988D02*
X012296Y024988D01*
X012136Y026271D02*
X027895Y026271D01*
X027947Y026388D02*
X012524Y026388D01*
X015811Y024755D02*
X018684Y024755D01*
X018684Y024638D02*
X015839Y024638D01*
X015839Y024522D02*
X018684Y024522D01*
X018684Y024405D02*
X015839Y024405D01*
X015839Y024289D02*
X018684Y024289D01*
X018684Y024172D02*
X015839Y024172D01*
X015838Y024055D02*
X018684Y024055D01*
X018684Y023939D02*
X015777Y023939D01*
X015776Y023822D02*
X018684Y023822D01*
X018684Y023705D02*
X015838Y023705D01*
X015839Y023589D02*
X018684Y023589D01*
X018684Y023472D02*
X015839Y023472D01*
X015839Y023356D02*
X018660Y023356D01*
X018390Y023239D02*
X018311Y023239D01*
X018311Y023122D02*
X018390Y023122D01*
X018390Y023006D02*
X018311Y023006D01*
X018311Y022889D02*
X018390Y022889D01*
X018390Y022773D02*
X018311Y022773D01*
X018311Y022656D02*
X018390Y022656D01*
X018646Y022539D02*
X016343Y022539D01*
X016343Y022423D02*
X018700Y022423D01*
X018700Y022306D02*
X016343Y022306D01*
X016343Y022190D02*
X018700Y022190D01*
X018700Y022073D02*
X016343Y022073D01*
X016343Y021956D02*
X018737Y021956D01*
X019588Y022423D02*
X020355Y022423D01*
X020186Y022539D02*
X019582Y022539D01*
X019511Y022656D02*
X020070Y022656D01*
X019953Y022773D02*
X019492Y022773D01*
X019492Y022889D02*
X019837Y022889D01*
X019754Y023006D02*
X019492Y023006D01*
X019492Y023122D02*
X019727Y023122D01*
X019727Y023239D02*
X019471Y023239D01*
X019379Y023356D02*
X019727Y023356D01*
X019727Y023472D02*
X019356Y023472D01*
X019356Y023589D02*
X019727Y023589D01*
X019727Y023705D02*
X019356Y023705D01*
X019356Y023822D02*
X019727Y023822D01*
X019727Y023939D02*
X019356Y023939D01*
X019356Y024055D02*
X019727Y024055D01*
X019727Y024172D02*
X019356Y024172D01*
X019356Y024289D02*
X019727Y024289D01*
X019727Y024405D02*
X019356Y024405D01*
X019356Y024522D02*
X019727Y024522D01*
X019727Y024638D02*
X019356Y024638D01*
X019511Y024755D02*
X019563Y024755D01*
X020399Y024638D02*
X025004Y024638D01*
X025004Y024522D02*
X020399Y024522D01*
X020399Y024405D02*
X024636Y024405D01*
X024602Y024289D02*
X020399Y024289D01*
X020399Y024172D02*
X024602Y024172D01*
X024602Y024055D02*
X020399Y024055D01*
X020399Y023939D02*
X024602Y023939D01*
X024602Y023822D02*
X020399Y023822D01*
X020399Y023705D02*
X024602Y023705D01*
X024602Y023589D02*
X020399Y023589D01*
X020399Y023472D02*
X024602Y023472D01*
X024602Y023356D02*
X020399Y023356D01*
X020437Y023239D02*
X024602Y023239D01*
X024602Y023122D02*
X020553Y023122D01*
X021086Y024755D02*
X024991Y024755D01*
X024934Y024872D02*
X021844Y024872D01*
X021863Y024988D02*
X024934Y024988D01*
X024934Y025105D02*
X021863Y025105D01*
X021863Y025221D02*
X024934Y025221D01*
X024934Y025338D02*
X021863Y025338D01*
X021817Y025455D02*
X024988Y025455D01*
X025822Y025221D02*
X028219Y025221D01*
X028524Y025105D02*
X025822Y025105D01*
X025822Y024988D02*
X030673Y024988D01*
X030673Y024872D02*
X025822Y024872D01*
X025765Y024755D02*
X030673Y024755D01*
X030673Y024638D02*
X025752Y024638D01*
X024938Y024405D02*
X024899Y024405D01*
X024899Y024289D02*
X024938Y024289D01*
X024938Y024172D02*
X024899Y024172D01*
X024899Y024055D02*
X024938Y024055D01*
X024938Y023939D02*
X024899Y023939D01*
X024899Y023822D02*
X024938Y023822D01*
X024938Y023705D02*
X024899Y023705D01*
X024899Y023589D02*
X024938Y023589D01*
X024938Y023472D02*
X024899Y023472D01*
X024899Y023356D02*
X024938Y023356D01*
X024938Y023239D02*
X024899Y023239D01*
X024899Y023122D02*
X024938Y023122D01*
X024938Y023006D02*
X024899Y023006D01*
X024899Y022889D02*
X024938Y022889D01*
X024938Y022773D02*
X024899Y022773D01*
X024955Y022656D02*
X030673Y022656D01*
X030673Y022539D02*
X028880Y022539D01*
X028959Y022423D02*
X030673Y022423D01*
X030673Y022306D02*
X028972Y022306D01*
X028972Y022190D02*
X030673Y022190D01*
X030673Y022073D02*
X028972Y022073D01*
X028972Y021956D02*
X030673Y021956D01*
X030673Y021840D02*
X028941Y021840D01*
X028175Y022539D02*
X025072Y022539D01*
X021511Y024872D02*
X021501Y024872D01*
X021501Y024988D02*
X021511Y024988D01*
X021501Y025105D02*
X021511Y025105D01*
X021501Y025221D02*
X021511Y025221D01*
X021501Y025338D02*
X021511Y025338D01*
X021501Y025455D02*
X021511Y025455D01*
X021195Y025455D02*
X021147Y025455D01*
X021162Y024872D02*
X021168Y024872D01*
X021630Y026504D02*
X028028Y026504D01*
X027980Y026461D02*
X027980Y026461D01*
X028157Y026621D02*
X021958Y026621D01*
X022150Y026737D02*
X028353Y026737D01*
X028249Y026704D02*
X028249Y026704D01*
X028594Y026816D02*
X028594Y026816D01*
X028954Y026778D02*
X028954Y026778D01*
X029024Y026737D02*
X030533Y026737D01*
X030649Y026621D02*
X029226Y026621D01*
X029268Y026596D02*
X029268Y026596D01*
X029335Y026504D02*
X030673Y026504D01*
X030673Y026388D02*
X029420Y026388D01*
X029481Y026303D02*
X029481Y026303D01*
X029488Y026271D02*
X030673Y026271D01*
X030673Y026154D02*
X029513Y026154D01*
X029538Y026038D02*
X030673Y026038D01*
X030673Y025921D02*
X029551Y025921D01*
X029526Y025804D02*
X030673Y025804D01*
X030673Y025688D02*
X029501Y025688D01*
X029464Y025571D02*
X030673Y025571D01*
X030673Y025455D02*
X029380Y025455D01*
X029295Y025338D02*
X030673Y025338D01*
X030673Y025221D02*
X029130Y025221D01*
X028954Y025120D02*
X028954Y025120D01*
X028810Y025105D02*
X030673Y025105D01*
X030285Y024522D02*
X029945Y024522D01*
X030095Y024405D02*
X030135Y024405D01*
X030135Y024289D02*
X030095Y024289D01*
X030095Y024172D02*
X030135Y024172D01*
X030135Y024055D02*
X030095Y024055D01*
X030095Y023939D02*
X030135Y023939D01*
X030135Y023822D02*
X030095Y023822D01*
X030095Y023705D02*
X030135Y023705D01*
X030135Y023589D02*
X030095Y023589D01*
X030095Y023472D02*
X030135Y023472D01*
X030135Y023356D02*
X030095Y023356D01*
X030095Y023239D02*
X030135Y023239D01*
X030135Y023122D02*
X030095Y023122D01*
X030095Y023006D02*
X030135Y023006D01*
X030135Y022889D02*
X030095Y022889D01*
X030095Y022773D02*
X030135Y022773D01*
X030416Y026854D02*
X022316Y026854D01*
X022474Y026971D02*
X030299Y026971D01*
X030183Y027087D02*
X022569Y027087D01*
X022664Y027204D02*
X030066Y027204D01*
X029950Y027320D02*
X022759Y027320D01*
X022836Y027437D02*
X024054Y027437D01*
X024049Y027446D02*
X024070Y027410D01*
X024099Y027381D01*
X024135Y027360D01*
X024176Y027349D01*
X024354Y027349D01*
X024354Y027685D01*
X024038Y027685D01*
X024038Y027487D01*
X024049Y027446D01*
X024038Y027554D02*
X022887Y027554D01*
X022938Y027670D02*
X024038Y027670D01*
X024038Y027764D02*
X024038Y027962D01*
X024040Y027972D01*
X023980Y028032D01*
X023941Y028126D01*
X023941Y028661D01*
X023980Y028755D01*
X024052Y028827D01*
X024146Y028866D01*
X024641Y028866D01*
X024736Y028827D01*
X024807Y028755D01*
X024843Y028670D01*
X025268Y028670D01*
X025268Y028727D01*
X025307Y028821D01*
X025379Y028893D01*
X025473Y028932D01*
X026177Y028932D01*
X026271Y028893D01*
X026325Y028839D01*
X026379Y028893D01*
X026473Y028932D01*
X027177Y028932D01*
X027271Y028893D01*
X027343Y028821D01*
X027382Y028727D01*
X027382Y028023D01*
X027343Y027929D01*
X027271Y027857D01*
X027177Y027818D01*
X026473Y027818D01*
X026379Y027857D01*
X026325Y027911D01*
X026271Y027857D01*
X026177Y027818D01*
X025473Y027818D01*
X025379Y027857D01*
X025307Y027929D01*
X025268Y028023D01*
X025268Y028080D01*
X024827Y028080D01*
X024807Y028032D01*
X024747Y027972D01*
X024750Y027962D01*
X024750Y027764D01*
X024433Y027764D01*
X024433Y027685D01*
X024433Y027349D01*
X024611Y027349D01*
X024652Y027360D01*
X024688Y027381D01*
X024718Y027410D01*
X024739Y027446D01*
X024750Y027487D01*
X024750Y027685D01*
X024433Y027685D01*
X024354Y027685D01*
X024354Y027764D01*
X024038Y027764D01*
X024038Y027787D02*
X022988Y027787D01*
X023038Y027903D02*
X024038Y027903D01*
X023992Y028020D02*
X023054Y028020D01*
X023070Y028137D02*
X023941Y028137D01*
X023941Y028253D02*
X023086Y028253D01*
X023102Y028370D02*
X023941Y028370D01*
X023941Y028487D02*
X023108Y028487D01*
X023092Y028603D02*
X023941Y028603D01*
X023965Y028720D02*
X023076Y028720D01*
X023060Y028836D02*
X024074Y028836D01*
X024713Y028836D02*
X025322Y028836D01*
X025268Y028720D02*
X024822Y028720D01*
X024795Y028020D02*
X025269Y028020D01*
X025332Y027903D02*
X024750Y027903D01*
X024750Y027787D02*
X029483Y027787D01*
X029366Y027903D02*
X027318Y027903D01*
X027381Y028020D02*
X029250Y028020D01*
X029133Y028137D02*
X027382Y028137D01*
X027382Y028253D02*
X029017Y028253D01*
X028900Y028370D02*
X027382Y028370D01*
X027382Y028487D02*
X028783Y028487D01*
X028667Y028603D02*
X027382Y028603D01*
X027382Y028720D02*
X028550Y028720D01*
X028434Y028836D02*
X027328Y028836D01*
X027851Y029419D02*
X022855Y029419D01*
X022906Y029303D02*
X027967Y029303D01*
X028084Y029186D02*
X022957Y029186D01*
X023007Y029070D02*
X028200Y029070D01*
X028317Y028953D02*
X023044Y028953D01*
X024354Y027670D02*
X024433Y027670D01*
X024433Y027554D02*
X024354Y027554D01*
X024354Y027437D02*
X024433Y027437D01*
X024733Y027437D02*
X029833Y027437D01*
X029716Y027554D02*
X024750Y027554D01*
X024750Y027670D02*
X029600Y027670D01*
X026332Y027903D02*
X026318Y027903D01*
X020513Y026504D02*
X018985Y026504D01*
X019126Y026621D02*
X020216Y026621D01*
X019991Y026737D02*
X019158Y026737D01*
X019158Y026854D02*
X019825Y026854D01*
X019700Y026971D02*
X019158Y026971D01*
X019158Y027087D02*
X019575Y027087D01*
X019469Y027204D02*
X019158Y027204D01*
X019158Y027320D02*
X019398Y027320D01*
X019327Y027437D02*
X019158Y027437D01*
X019158Y027554D02*
X019256Y027554D01*
X019196Y027670D02*
X019158Y027670D01*
X019158Y027787D02*
X019163Y027787D01*
X018010Y023239D02*
X015839Y023239D01*
X016096Y023122D02*
X017975Y023122D01*
X017975Y023006D02*
X016252Y023006D01*
X016316Y022889D02*
X017975Y022889D01*
X017975Y022773D02*
X016343Y022773D01*
X016343Y022656D02*
X018001Y022656D01*
X016343Y019974D02*
X021479Y019974D01*
X021460Y019857D02*
X016343Y019857D01*
X014157Y020776D02*
X014157Y018020D01*
X013843Y019041D02*
X013454Y019041D01*
X013665Y019158D02*
X013744Y019158D01*
X013744Y019274D02*
X013665Y019274D01*
X014157Y020776D02*
X013764Y021169D01*
X013567Y021169D01*
X013123Y021140D02*
X012608Y021140D01*
X012647Y021023D02*
X012492Y021023D01*
X012581Y020907D02*
X012375Y020907D01*
X012218Y020790D02*
X012581Y020790D01*
X012957Y020790D02*
X012996Y020790D01*
X012996Y020907D02*
X012957Y020907D01*
X012957Y021023D02*
X012996Y021023D01*
X013123Y021257D02*
X012725Y021257D01*
X012841Y021373D02*
X013123Y021373D01*
X013157Y021490D02*
X012958Y021490D01*
X012372Y022073D02*
X012187Y022073D01*
X012187Y022190D02*
X012488Y022190D01*
X012584Y022306D02*
X012187Y022306D01*
X012187Y022423D02*
X012584Y022423D01*
X012584Y022539D02*
X012187Y022539D01*
X012145Y022656D02*
X012626Y022656D01*
X012255Y021956D02*
X012187Y021956D01*
X010417Y021169D02*
X010417Y020382D01*
X010811Y020382D01*
X011559Y020324D02*
X011638Y020324D01*
X009834Y022539D02*
X009483Y022539D01*
X009483Y022656D02*
X009494Y022656D01*
X008982Y022991D02*
X008800Y022991D01*
X008706Y022952D01*
X008636Y022882D01*
X006933Y022882D01*
X006933Y023267D01*
X006894Y023361D01*
X006834Y023422D01*
X006836Y023432D01*
X006836Y023630D01*
X006520Y023630D01*
X006520Y023709D01*
X006441Y023709D01*
X006441Y024045D01*
X006263Y024045D01*
X006222Y024034D01*
X006186Y024013D01*
X006156Y023983D01*
X006135Y023947D01*
X006124Y023907D01*
X006124Y023709D01*
X006441Y023709D01*
X006441Y023630D01*
X006124Y023630D01*
X006124Y023432D01*
X006127Y023422D01*
X006067Y023361D01*
X006028Y023267D01*
X006028Y023099D01*
X005960Y023032D01*
X005949Y023004D01*
X005949Y023071D01*
X005921Y023138D01*
X005949Y023205D01*
X005949Y023740D01*
X005910Y023834D01*
X005838Y023906D01*
X005744Y023945D01*
X005248Y023945D01*
X005154Y023906D01*
X005082Y023834D01*
X005051Y023758D01*
X005050Y023757D01*
X004132Y022839D01*
X004132Y023102D01*
X004093Y023196D01*
X004021Y023268D01*
X003927Y023307D01*
X003223Y023307D01*
X003129Y023268D01*
X003057Y023196D01*
X003018Y023102D01*
X003018Y023085D01*
X002876Y023085D01*
X002753Y023034D01*
X002551Y022831D01*
X002456Y022737D01*
X002406Y022614D01*
X002406Y021300D01*
X002456Y021177D01*
X002653Y020980D01*
X002747Y020886D01*
X002870Y020835D01*
X003193Y020835D01*
X003193Y019922D01*
X003217Y019864D01*
X003213Y019854D01*
X003213Y019446D01*
X003024Y019446D01*
X003026Y019450D01*
X003026Y019659D01*
X002944Y019801D01*
X002994Y019801D01*
X002994Y020156D01*
X002983Y020197D01*
X002962Y020233D01*
X002932Y020263D01*
X002896Y020284D01*
X002856Y020294D01*
X002606Y020294D01*
X002606Y019945D01*
X002488Y019945D01*
X002488Y020294D01*
X002239Y020294D01*
X002211Y020287D01*
X002182Y020294D01*
X002033Y020294D01*
X002033Y019991D01*
X002014Y020025D01*
X002014Y020294D01*
X001865Y020294D01*
X001832Y020286D01*
X002046Y020499D01*
X002086Y020595D01*
X002086Y023256D01*
X008411Y025153D01*
X008305Y024778D01*
X008305Y024222D01*
X008455Y023688D01*
X008455Y023688D01*
X008744Y023214D01*
X008982Y022991D01*
X008966Y023006D02*
X006933Y023006D01*
X006933Y023122D02*
X008841Y023122D01*
X008744Y023214D02*
X008744Y023214D01*
X008728Y023239D02*
X006933Y023239D01*
X006897Y023356D02*
X008657Y023356D01*
X008586Y023472D02*
X006836Y023472D01*
X006836Y023589D02*
X008515Y023589D01*
X008450Y023705D02*
X006520Y023705D01*
X006520Y023709D02*
X006836Y023709D01*
X006836Y023907D01*
X006825Y023947D01*
X006804Y023983D01*
X006775Y024013D01*
X006739Y024034D01*
X006698Y024045D01*
X006520Y024045D01*
X006520Y023709D01*
X006441Y023705D02*
X005949Y023705D01*
X005949Y023589D02*
X006124Y023589D01*
X006124Y023472D02*
X005949Y023472D01*
X005949Y023356D02*
X006064Y023356D01*
X006028Y023239D02*
X005949Y023239D01*
X005927Y023122D02*
X006028Y023122D01*
X005950Y023006D02*
X005949Y023006D01*
X004998Y023705D02*
X003584Y023705D01*
X003195Y023589D02*
X004882Y023589D01*
X004765Y023472D02*
X002807Y023472D01*
X003100Y023239D02*
X002086Y023239D01*
X002086Y023122D02*
X003026Y023122D01*
X002725Y023006D02*
X002086Y023006D01*
X002086Y022889D02*
X002609Y022889D01*
X002492Y022773D02*
X002086Y022773D01*
X002086Y022656D02*
X002423Y022656D01*
X002406Y022539D02*
X002086Y022539D01*
X002086Y022423D02*
X002406Y022423D01*
X002406Y022306D02*
X002086Y022306D01*
X002086Y022190D02*
X002406Y022190D01*
X002406Y022073D02*
X002086Y022073D01*
X002086Y021956D02*
X002406Y021956D01*
X002406Y021840D02*
X002086Y021840D01*
X002086Y021723D02*
X002406Y021723D01*
X002406Y021606D02*
X002086Y021606D01*
X002086Y021490D02*
X002406Y021490D01*
X002406Y021373D02*
X002086Y021373D01*
X002086Y021257D02*
X002423Y021257D01*
X002493Y021140D02*
X002086Y021140D01*
X002086Y021023D02*
X002610Y021023D01*
X002726Y020907D02*
X002086Y020907D01*
X002086Y020790D02*
X003193Y020790D01*
X003193Y020674D02*
X002086Y020674D01*
X002070Y020557D02*
X003193Y020557D01*
X003193Y020440D02*
X001987Y020440D01*
X001870Y020324D02*
X003193Y020324D01*
X003193Y020207D02*
X002977Y020207D01*
X002994Y020091D02*
X003193Y020091D01*
X003193Y019974D02*
X002994Y019974D01*
X002994Y019857D02*
X003214Y019857D01*
X003213Y019741D02*
X002979Y019741D01*
X003026Y019624D02*
X003213Y019624D01*
X003213Y019508D02*
X003026Y019508D01*
X003528Y019508D02*
X005890Y019508D01*
X005890Y019476D02*
X005364Y019476D01*
X005285Y019398D01*
X005102Y019398D01*
X005102Y019201D01*
X003528Y019201D01*
X003528Y019791D01*
X004576Y019791D01*
X004635Y019732D01*
X005176Y019732D01*
X005235Y019791D01*
X005285Y019791D01*
X005364Y019713D01*
X005890Y019713D01*
X005890Y019476D01*
X005890Y019624D02*
X003528Y019624D01*
X003528Y019741D02*
X004627Y019741D01*
X004915Y019467D02*
X004906Y019457D01*
X004886Y019437D01*
X003921Y019437D01*
X003528Y019391D02*
X005102Y019391D01*
X005102Y019274D02*
X003528Y019274D01*
X003921Y020146D02*
X004886Y020146D01*
X004906Y020126D01*
X005555Y020126D01*
X005703Y019978D01*
X006274Y019978D01*
X006283Y019988D01*
X005703Y019722D02*
X005703Y019467D01*
X004915Y019467D01*
X005184Y019741D02*
X005335Y019741D01*
X005703Y019211D02*
X006274Y019211D01*
X006283Y019201D01*
X002606Y019974D02*
X002488Y019974D01*
X002488Y020091D02*
X002606Y020091D01*
X002606Y020207D02*
X002488Y020207D01*
X002033Y020207D02*
X002014Y020207D01*
X002014Y020091D02*
X002033Y020091D01*
X001315Y018920D02*
X001197Y018920D01*
X001197Y018280D01*
X001315Y018280D01*
X001315Y018661D01*
X001315Y018920D01*
X001315Y018808D02*
X001197Y018808D01*
X001197Y018691D02*
X001315Y018691D01*
X001315Y018575D02*
X001197Y018575D01*
X001197Y018458D02*
X001315Y018458D01*
X001315Y018341D02*
X001197Y018341D01*
X001344Y017129D02*
X001463Y017129D01*
X001463Y017112D01*
X001727Y017112D01*
X001727Y017044D01*
X001738Y017003D01*
X001759Y016967D01*
X001788Y016937D01*
X001824Y016916D01*
X001865Y016906D01*
X002014Y016906D01*
X002014Y017175D01*
X002033Y017175D01*
X002014Y017175D02*
X002033Y017209D01*
X002033Y016906D01*
X002182Y016906D01*
X002211Y016913D01*
X002239Y016906D01*
X002402Y016906D01*
X002296Y016526D01*
X002296Y016123D01*
X001994Y016297D01*
X001994Y016297D01*
X001633Y016335D01*
X001289Y016223D01*
X001289Y016223D01*
X001019Y015981D01*
X000872Y015650D01*
X000872Y015287D01*
X001019Y014956D01*
X001289Y014714D01*
X001633Y014602D01*
X001633Y014602D01*
X001994Y014640D01*
X002308Y014821D01*
X002521Y015114D01*
X002552Y015261D01*
X002734Y014962D01*
X003139Y014583D01*
X003139Y014583D01*
X003206Y014548D01*
X003176Y014548D01*
X002939Y014434D01*
X002775Y014229D01*
X002775Y014229D01*
X002717Y013973D01*
X002717Y013972D01*
X002728Y013921D01*
X002677Y013933D01*
X002421Y013875D01*
X002216Y013711D01*
X002216Y013711D01*
X002216Y013711D01*
X002101Y013474D01*
X002101Y009484D01*
X002188Y009274D01*
X002349Y009114D01*
X002559Y009027D01*
X005549Y009027D01*
X005786Y009141D01*
X005949Y009346D01*
X005949Y009346D01*
X006008Y009602D01*
X006008Y009603D01*
X005996Y009654D01*
X006047Y009642D01*
X006047Y009642D01*
X006146Y009664D01*
X006146Y009489D01*
X006197Y009366D01*
X006291Y009271D01*
X006414Y009220D01*
X007012Y009220D01*
X007012Y008914D01*
X007051Y008820D01*
X007123Y008748D01*
X007217Y008709D01*
X007680Y008709D01*
X007818Y008571D01*
X007680Y008433D01*
X007217Y008433D01*
X007123Y008394D01*
X007051Y008322D01*
X007012Y008228D01*
X007012Y007654D01*
X007051Y007560D01*
X007123Y007488D01*
X007217Y007449D01*
X007582Y007449D01*
X007582Y007449D01*
X007335Y007449D01*
X007268Y007421D01*
X007201Y007449D01*
X006954Y007449D01*
X006902Y007500D01*
X006933Y007575D01*
X006933Y008110D01*
X006894Y008204D01*
X006834Y008265D01*
X006836Y008274D01*
X006836Y008472D01*
X006520Y008472D01*
X006520Y008551D01*
X006836Y008551D01*
X006836Y008749D01*
X006825Y008790D01*
X006804Y008826D01*
X006775Y008856D01*
X006739Y008877D01*
X006698Y008887D01*
X006520Y008887D01*
X006520Y008551D01*
X006441Y008551D01*
X006441Y008472D01*
X006124Y008472D01*
X006124Y008551D02*
X006441Y008551D01*
X006441Y008887D01*
X006263Y008887D01*
X006222Y008877D01*
X006186Y008856D01*
X006156Y008826D01*
X006135Y008790D01*
X006124Y008749D01*
X006124Y008551D01*
X006124Y008663D02*
X003962Y008663D01*
X003962Y008779D02*
X006132Y008779D01*
X006441Y008779D02*
X006520Y008779D01*
X006520Y008663D02*
X006441Y008663D01*
X006441Y008546D02*
X003606Y008546D01*
X003606Y008430D02*
X003528Y008430D01*
X003528Y008313D02*
X003606Y008313D01*
X003776Y008197D02*
X003776Y008197D01*
X003606Y008663D02*
X003528Y008663D01*
X003528Y008779D02*
X003606Y008779D01*
X003606Y008896D02*
X003528Y008896D01*
X003235Y008896D02*
X003161Y008896D01*
X003015Y009013D02*
X007012Y009013D01*
X007012Y009129D02*
X005762Y009129D01*
X005869Y009246D02*
X006353Y009246D01*
X006200Y009362D02*
X005953Y009362D01*
X005980Y009479D02*
X006150Y009479D01*
X006146Y009596D02*
X006006Y009596D01*
X005549Y009027D02*
X005549Y009027D01*
X004460Y008197D02*
X004460Y008197D01*
X003899Y008896D02*
X007019Y008896D01*
X007091Y008779D02*
X006828Y008779D01*
X006836Y008663D02*
X007726Y008663D01*
X007793Y008546D02*
X006520Y008546D01*
X006836Y008430D02*
X007208Y008430D01*
X007047Y008313D02*
X006836Y008313D01*
X006897Y008196D02*
X007012Y008196D01*
X007012Y008080D02*
X006933Y008080D01*
X006933Y007963D02*
X007012Y007963D01*
X007012Y007846D02*
X006933Y007846D01*
X006933Y007730D02*
X007012Y007730D01*
X007029Y007613D02*
X006933Y007613D01*
X006906Y007497D02*
X007114Y007497D01*
X008094Y008374D02*
X008705Y008374D01*
X008705Y008177D02*
X008705Y007606D01*
X009049Y007900D02*
X009207Y007900D01*
X009207Y008541D01*
X009266Y008541D01*
X009266Y007900D01*
X009434Y007900D01*
X009445Y007903D01*
X009520Y007872D01*
X009681Y007872D01*
X009705Y007862D01*
X010287Y007862D01*
X010315Y007834D01*
X009981Y007834D01*
X009908Y007803D01*
X009118Y007803D01*
X009099Y007850D01*
X009049Y007900D01*
X009100Y007846D02*
X010303Y007846D01*
X010220Y008571D02*
X009768Y008571D01*
X009768Y008965D02*
X010024Y008965D01*
X010614Y009555D01*
X011795Y009555D01*
X011795Y007528D01*
X012839Y007941D02*
X012839Y008768D01*
X013239Y008393D02*
X013261Y008414D01*
X013270Y008412D01*
X013469Y008412D01*
X013469Y008728D01*
X013547Y008728D01*
X013547Y008412D01*
X013587Y008412D01*
X013587Y008394D01*
X013240Y008394D01*
X013239Y008393D01*
X013469Y008430D02*
X013547Y008430D01*
X013547Y008546D02*
X013469Y008546D01*
X013469Y008663D02*
X013547Y008663D01*
X013547Y008896D02*
X013469Y008896D01*
X013469Y009013D02*
X013547Y009013D01*
X013587Y009129D02*
X013252Y009129D01*
X013546Y009246D02*
X012210Y009246D01*
X012239Y009362D02*
X013517Y009362D01*
X013517Y009479D02*
X012239Y009479D01*
X012239Y009596D02*
X013517Y009596D01*
X013517Y009712D02*
X012239Y009712D01*
X012225Y009829D02*
X013531Y009829D01*
X013613Y009945D02*
X013418Y009945D01*
X013535Y010062D02*
X019703Y010062D01*
X019820Y010179D02*
X013827Y010179D01*
X013969Y010295D02*
X019936Y010295D01*
X020053Y010412D02*
X014000Y010412D01*
X014000Y010529D02*
X018731Y010529D01*
X018723Y010645D02*
X014000Y010645D01*
X014000Y010762D02*
X019039Y010762D01*
X019118Y010762D02*
X019958Y010762D01*
X019841Y010878D02*
X019435Y010878D01*
X019435Y010645D02*
X020075Y010645D01*
X020169Y010529D02*
X019427Y010529D01*
X019118Y010529D02*
X019039Y010529D01*
X019039Y010645D02*
X019118Y010645D01*
X018723Y010878D02*
X014000Y010878D01*
X014000Y010995D02*
X018723Y010995D01*
X018661Y011112D02*
X013963Y011112D01*
X013795Y011228D02*
X018626Y011228D01*
X018626Y011345D02*
X013626Y011345D01*
X013626Y011461D02*
X018626Y011461D01*
X018626Y011578D02*
X013626Y011578D01*
X013626Y011695D02*
X018626Y011695D01*
X018659Y011811D02*
X013626Y011811D01*
X013610Y011928D02*
X016165Y011928D01*
X016875Y011928D02*
X018744Y011928D01*
X018675Y012044D02*
X016952Y012044D01*
X016964Y012161D02*
X018559Y012161D01*
X018442Y012278D02*
X016964Y012278D01*
X016964Y012394D02*
X018325Y012394D01*
X018209Y012511D02*
X016964Y012511D01*
X019090Y013560D02*
X024256Y013560D01*
X024256Y013444D02*
X019207Y013444D01*
X019323Y013327D02*
X019976Y013327D01*
X019845Y013211D02*
X019440Y013211D01*
X019556Y013094D02*
X019816Y013094D01*
X019816Y012977D02*
X019673Y012977D01*
X019790Y012861D02*
X019816Y012861D01*
X020543Y013327D02*
X021180Y013327D01*
X021175Y013317D02*
X021164Y013277D01*
X021164Y013079D01*
X021480Y013079D01*
X021480Y013415D01*
X021302Y013415D01*
X021261Y013404D01*
X021225Y013383D01*
X021196Y013354D01*
X021175Y013317D01*
X021164Y013211D02*
X020675Y013211D01*
X020704Y013094D02*
X021164Y013094D01*
X021164Y012977D02*
X020704Y012977D01*
X020704Y012861D02*
X021164Y012861D01*
X021118Y012744D02*
X020704Y012744D01*
X020689Y012627D02*
X021067Y012627D01*
X021067Y012511D02*
X020607Y012511D01*
X020596Y012394D02*
X021067Y012394D01*
X021067Y012278D02*
X020596Y012278D01*
X020596Y012161D02*
X021067Y012161D01*
X021032Y012044D02*
X020596Y012044D01*
X020596Y011928D02*
X020997Y011928D01*
X020997Y011811D02*
X020644Y011811D01*
X020761Y011695D02*
X020997Y011695D01*
X020997Y011578D02*
X020877Y011578D01*
X020992Y011461D02*
X021005Y011461D01*
X021885Y011578D02*
X022281Y011578D01*
X022281Y011695D02*
X021885Y011695D01*
X021885Y011811D02*
X022281Y011811D01*
X022281Y011928D02*
X021885Y011928D01*
X021948Y012044D02*
X022281Y012044D01*
X022287Y012161D02*
X021972Y012161D01*
X021972Y012278D02*
X022287Y012278D01*
X022287Y012394D02*
X021972Y012394D01*
X021972Y012511D02*
X022078Y012511D01*
X021996Y012627D02*
X021972Y012627D01*
X021981Y012744D02*
X021921Y012744D01*
X021876Y012861D02*
X021981Y012861D01*
X021981Y012977D02*
X021876Y012977D01*
X021876Y013079D02*
X021559Y013079D01*
X021559Y013415D01*
X021737Y013415D01*
X021778Y013404D01*
X021814Y013383D01*
X021844Y013354D01*
X021865Y013317D01*
X021876Y013277D01*
X021876Y013079D01*
X021876Y013094D02*
X021981Y013094D01*
X022010Y013211D02*
X021876Y013211D01*
X021859Y013327D02*
X022142Y013327D01*
X021559Y013327D02*
X021480Y013327D01*
X021480Y013211D02*
X021559Y013211D01*
X021559Y013094D02*
X021480Y013094D01*
X022709Y013327D02*
X022939Y013327D01*
X023605Y013327D02*
X024256Y013327D01*
X023980Y013211D02*
X023902Y013211D01*
X023902Y013094D02*
X023980Y013094D01*
X023980Y012977D02*
X023902Y012977D01*
X023902Y012862D02*
X023980Y012862D01*
X023980Y012546D01*
X024178Y012546D01*
X024219Y012557D01*
X024255Y012577D01*
X024256Y012578D01*
X024256Y012366D01*
X024118Y012366D01*
X024043Y012335D01*
X023969Y012366D01*
X023803Y012366D01*
X023728Y012335D01*
X023654Y012366D01*
X023591Y012366D01*
X023591Y012470D01*
X023633Y012488D01*
X023694Y012548D01*
X023703Y012546D01*
X023902Y012546D01*
X023902Y012862D01*
X023902Y012861D02*
X023980Y012861D01*
X023980Y012744D02*
X023902Y012744D01*
X023902Y012627D02*
X023980Y012627D01*
X024256Y012511D02*
X023656Y012511D01*
X023591Y012394D02*
X024256Y012394D01*
X022324Y011461D02*
X022209Y011461D01*
X019540Y009945D02*
X014308Y009945D01*
X014390Y009829D02*
X019464Y009829D01*
X019453Y009712D02*
X014405Y009712D01*
X014405Y009596D02*
X016257Y009596D01*
X016108Y009479D02*
X014405Y009479D01*
X014405Y009362D02*
X016076Y009362D01*
X016076Y009246D02*
X014376Y009246D01*
X014335Y009129D02*
X016014Y009129D01*
X015898Y009013D02*
X014335Y009013D01*
X014335Y008896D02*
X015781Y008896D01*
X015664Y008779D02*
X014335Y008779D01*
X014335Y008663D02*
X015548Y008663D01*
X015431Y008546D02*
X014335Y008546D01*
X014335Y008430D02*
X015315Y008430D01*
X015198Y008313D02*
X014335Y008313D01*
X014335Y008196D02*
X015081Y008196D01*
X014965Y008080D02*
X014335Y008080D01*
X014335Y007963D02*
X014848Y007963D01*
X014731Y007846D02*
X014335Y007846D01*
X014335Y007730D02*
X014615Y007730D01*
X014498Y007613D02*
X014335Y007613D01*
X014335Y007497D02*
X014382Y007497D01*
X014886Y007030D02*
X016404Y007030D01*
X016404Y006914D02*
X014886Y006914D01*
X014886Y006797D02*
X016404Y006797D01*
X016404Y006680D02*
X014886Y006680D01*
X014886Y006564D02*
X016485Y006564D01*
X016602Y006447D02*
X014886Y006447D01*
X014886Y006331D02*
X016624Y006331D01*
X016507Y006214D02*
X014886Y006214D01*
X014886Y006097D02*
X016404Y006097D01*
X016404Y005981D02*
X014886Y005981D01*
X014886Y005864D02*
X016404Y005864D01*
X016404Y005747D02*
X014861Y005747D01*
X014787Y005631D02*
X016418Y005631D01*
X016535Y005514D02*
X014787Y005514D01*
X014787Y005398D02*
X016630Y005398D01*
X016639Y005281D02*
X014767Y005281D01*
X014675Y005164D02*
X016697Y005164D01*
X016814Y005048D02*
X014413Y005048D01*
X014413Y004931D02*
X016930Y004931D01*
X017047Y004815D02*
X014413Y004815D01*
X014413Y004698D02*
X017228Y004698D01*
X016765Y004581D02*
X014413Y004581D01*
X014413Y004465D02*
X016707Y004465D01*
X016707Y004348D02*
X014352Y004348D01*
X013569Y004348D02*
X013214Y004348D01*
X013214Y004232D02*
X016707Y004232D01*
X016707Y004115D02*
X013214Y004115D01*
X013214Y003998D02*
X016707Y003998D01*
X016712Y003882D02*
X013372Y003882D01*
X013710Y003765D02*
X016780Y003765D01*
X016842Y003065D02*
X014185Y003065D01*
X014198Y002949D02*
X016804Y002949D01*
X016804Y002832D02*
X014198Y002832D01*
X014198Y002599D02*
X016804Y002599D01*
X016804Y002482D02*
X014198Y002482D01*
X013862Y002949D02*
X013744Y002949D01*
X013744Y003065D02*
X013862Y003065D01*
X013785Y003415D02*
X020980Y003415D01*
X020827Y003532D02*
X013785Y003532D01*
X013785Y003648D02*
X020794Y003648D01*
X020794Y003765D02*
X020196Y003765D01*
X020265Y003882D02*
X020794Y003882D01*
X020794Y003998D02*
X020270Y003998D01*
X020270Y004115D02*
X020794Y004115D01*
X020794Y004232D02*
X020270Y004232D01*
X020270Y004348D02*
X020794Y004348D01*
X020794Y004465D02*
X020270Y004465D01*
X020212Y004581D02*
X020846Y004581D01*
X020634Y004815D02*
X023213Y004815D01*
X023213Y004931D02*
X020796Y004931D01*
X020831Y005048D02*
X023213Y005048D01*
X023213Y005164D02*
X022511Y005164D01*
X022545Y005281D02*
X022586Y005281D01*
X022839Y005281D02*
X022917Y005281D01*
X022917Y005398D02*
X022839Y005398D01*
X022839Y005514D02*
X022917Y005514D01*
X022228Y005398D02*
X022150Y005398D01*
X022150Y005441D02*
X022150Y005105D01*
X021971Y005105D01*
X021931Y005116D01*
X021894Y005137D01*
X021865Y005166D01*
X021844Y005202D01*
X021833Y005243D01*
X021833Y005441D01*
X022150Y005441D01*
X022150Y005514D02*
X020831Y005514D01*
X020831Y005398D02*
X021833Y005398D01*
X021833Y005281D02*
X020831Y005281D01*
X020831Y005164D02*
X021867Y005164D01*
X022150Y005164D02*
X022228Y005164D01*
X022228Y005281D02*
X022150Y005281D01*
X021833Y005631D02*
X020808Y005631D01*
X020862Y005747D02*
X021816Y005747D01*
X021744Y005864D02*
X020979Y005864D01*
X019902Y005281D02*
X019018Y005281D01*
X019068Y005164D02*
X018901Y005164D01*
X018785Y005048D02*
X019028Y005048D01*
X019028Y004931D02*
X018668Y004931D01*
X018552Y004815D02*
X019028Y004815D01*
X019028Y004698D02*
X018370Y004698D01*
X018342Y004581D02*
X018635Y004581D01*
X018651Y003765D02*
X018326Y003765D01*
X018264Y003065D02*
X018713Y003065D01*
X018674Y002949D02*
X018303Y002949D01*
X018303Y002832D02*
X018674Y002832D01*
X018674Y002599D02*
X018303Y002599D01*
X018303Y002482D02*
X018674Y002482D01*
X019364Y002949D02*
X019482Y002949D01*
X019482Y003065D02*
X019364Y003065D01*
X020173Y002599D02*
X020319Y002599D01*
X020319Y002482D02*
X020173Y002482D01*
X017612Y002949D02*
X017494Y002949D01*
X017494Y003065D02*
X017612Y003065D01*
X020266Y004698D02*
X023197Y004698D01*
X023677Y004232D02*
X024323Y004232D01*
X024206Y004348D02*
X023794Y004348D01*
X023864Y004465D02*
X024136Y004465D01*
X024118Y004581D02*
X023882Y004581D01*
X023882Y004698D02*
X024118Y004698D01*
X024118Y004815D02*
X023882Y004815D01*
X023882Y004931D02*
X024118Y004931D01*
X024118Y005048D02*
X023882Y005048D01*
X023882Y005164D02*
X024118Y005164D01*
X024017Y005281D02*
X023983Y005281D01*
X024787Y005164D02*
X030752Y005164D01*
X030752Y005048D02*
X024787Y005048D01*
X024787Y004931D02*
X030752Y004931D01*
X030752Y004815D02*
X024787Y004815D01*
X024803Y004698D02*
X030752Y004698D01*
X030752Y005281D02*
X025414Y005281D01*
X025161Y005281D02*
X025083Y005281D01*
X025083Y005398D02*
X025161Y005398D01*
X025161Y005514D02*
X025083Y005514D01*
X025490Y005864D02*
X030752Y005864D01*
X030752Y007380D02*
X028679Y007380D01*
X028687Y007497D02*
X030752Y007497D01*
X030752Y007613D02*
X028370Y007613D01*
X028291Y007613D02*
X027790Y007613D01*
X027790Y007730D02*
X027975Y007730D01*
X027975Y007846D02*
X027790Y007846D01*
X027975Y007606D02*
X027975Y007408D01*
X027986Y007368D01*
X028007Y007331D01*
X028036Y007302D01*
X028072Y007281D01*
X028113Y007270D01*
X028291Y007270D01*
X028291Y007606D01*
X027975Y007606D01*
X027975Y007497D02*
X027771Y007497D01*
X027681Y007380D02*
X027982Y007380D01*
X028291Y007380D02*
X028370Y007380D01*
X028370Y007497D02*
X028291Y007497D01*
X028687Y007730D02*
X030752Y007730D01*
X030752Y007846D02*
X028687Y007846D01*
X028748Y007963D02*
X028892Y007963D01*
X029660Y007963D02*
X029758Y007963D01*
X030526Y007963D02*
X030752Y007963D01*
X024780Y003415D02*
X023220Y003415D01*
X023373Y003532D02*
X024627Y003532D01*
X024594Y003648D02*
X023406Y003648D01*
X023406Y003765D02*
X024594Y003765D01*
X024594Y003882D02*
X023406Y003882D01*
X023444Y003998D02*
X024556Y003998D01*
X024439Y004115D02*
X023561Y004115D01*
X019769Y007963D02*
X018526Y007963D01*
X018526Y007846D02*
X018668Y007846D01*
X018552Y007730D02*
X018526Y007730D01*
X018526Y008080D02*
X019886Y008080D01*
X020003Y008196D02*
X018440Y008196D01*
X018323Y008313D02*
X020119Y008313D01*
X020236Y008430D02*
X018206Y008430D01*
X017723Y008430D02*
X016261Y008430D01*
X016378Y008546D02*
X018975Y008546D01*
X018858Y008663D02*
X016494Y008663D01*
X016876Y008779D02*
X018832Y008779D01*
X018832Y008896D02*
X016953Y008896D01*
X016964Y009013D02*
X018832Y009013D01*
X018832Y009129D02*
X016964Y009129D01*
X016964Y009246D02*
X018849Y009246D01*
X018935Y009362D02*
X016964Y009362D01*
X016931Y009479D02*
X019453Y009479D01*
X019453Y009596D02*
X016782Y009596D01*
X016772Y008342D02*
X016500Y008070D01*
X016500Y007912D01*
X016930Y007912D01*
X016930Y008342D01*
X016772Y008342D01*
X016743Y008313D02*
X016144Y008313D01*
X016028Y008196D02*
X016626Y008196D01*
X016510Y008080D02*
X015911Y008080D01*
X015795Y007963D02*
X016500Y007963D01*
X016500Y007730D02*
X015561Y007730D01*
X015445Y007613D02*
X016573Y007613D01*
X016689Y007497D02*
X015328Y007497D01*
X015212Y007380D02*
X016673Y007380D01*
X016557Y007263D02*
X015095Y007263D01*
X014978Y007147D02*
X016440Y007147D01*
X016930Y007846D02*
X015678Y007846D01*
X016930Y007963D02*
X016999Y007963D01*
X016999Y008080D02*
X016930Y008080D01*
X016930Y008196D02*
X016999Y008196D01*
X016999Y008313D02*
X016930Y008313D01*
X017186Y008313D02*
X017606Y008313D01*
X017490Y008196D02*
X017303Y008196D01*
X019576Y008546D02*
X020352Y008546D01*
X013508Y007941D02*
X013508Y006937D01*
X012780Y006209D01*
X011008Y006209D01*
X009827Y005224D02*
X009433Y005224D01*
X009374Y005224D01*
X009433Y005224D02*
X009433Y005618D01*
X009827Y005224D02*
X009827Y003984D01*
X008744Y004931D02*
X008665Y004931D01*
X008665Y005048D02*
X008744Y005048D01*
X008744Y005164D02*
X008665Y005164D01*
X008646Y006012D02*
X008055Y006602D01*
X008581Y006522D02*
X008647Y006456D01*
X008885Y006456D01*
X008979Y006417D01*
X009045Y006351D01*
X009083Y006443D01*
X009616Y006976D01*
X009041Y006976D01*
X009041Y006858D01*
X008665Y006858D01*
X008665Y006819D01*
X008665Y006522D01*
X008903Y006522D01*
X008943Y006533D01*
X008980Y006554D01*
X009009Y006583D01*
X009030Y006620D01*
X009041Y006660D01*
X009041Y006819D01*
X008665Y006819D01*
X008626Y006819D01*
X008626Y006522D01*
X008581Y006522D01*
X008626Y006564D02*
X008665Y006564D01*
X008665Y006680D02*
X008626Y006680D01*
X008626Y006797D02*
X008665Y006797D01*
X009041Y006797D02*
X009437Y006797D01*
X009553Y006914D02*
X009041Y006914D01*
X009041Y006680D02*
X009320Y006680D01*
X009204Y006564D02*
X008989Y006564D01*
X008906Y006447D02*
X009087Y006447D01*
X009207Y007963D02*
X009266Y007963D01*
X009266Y008080D02*
X009207Y008080D01*
X009207Y008196D02*
X009266Y008196D01*
X009266Y008313D02*
X009207Y008313D01*
X009207Y008430D02*
X009266Y008430D01*
X009266Y008600D02*
X009266Y009160D01*
X009215Y009160D01*
X009207Y009162D01*
X009207Y008600D01*
X009266Y008600D01*
X009266Y008663D02*
X009207Y008663D01*
X009207Y008779D02*
X009266Y008779D01*
X009266Y008896D02*
X009207Y008896D01*
X009207Y009013D02*
X009266Y009013D01*
X009266Y009129D02*
X009207Y009129D01*
X009374Y009596D02*
X009413Y009596D01*
X009413Y009712D02*
X009374Y009712D01*
X009374Y009829D02*
X009413Y009829D01*
X009413Y009945D02*
X009374Y009945D01*
X009374Y010062D02*
X009413Y010062D01*
X009413Y010165D02*
X009710Y010165D01*
X009710Y010403D01*
X009699Y010443D01*
X009678Y010480D01*
X009649Y010509D01*
X009613Y010530D01*
X009572Y010541D01*
X009413Y010541D01*
X009413Y010165D01*
X009413Y010179D02*
X009374Y010179D01*
X009374Y010295D02*
X009413Y010295D01*
X009413Y010412D02*
X009374Y010412D01*
X009374Y010529D02*
X009413Y010529D01*
X009615Y010529D02*
X012443Y010529D01*
X012443Y010645D02*
X009226Y010645D01*
X009172Y010529D02*
X009128Y010529D01*
X009343Y010762D02*
X010069Y010762D01*
X009708Y010412D02*
X011026Y010412D01*
X011205Y010146D02*
X011008Y009949D01*
X011205Y010146D02*
X011795Y010146D01*
X013173Y010146D01*
X013547Y010520D01*
X012839Y010762D02*
X012760Y010762D01*
X012760Y010736D02*
X012760Y011131D01*
X012581Y011131D01*
X012541Y011121D01*
X012505Y011100D01*
X012475Y011070D01*
X012454Y011034D01*
X012443Y010993D01*
X012443Y010736D01*
X012760Y010736D01*
X012760Y010878D02*
X012839Y010878D01*
X012839Y010995D02*
X012760Y010995D01*
X012760Y011112D02*
X012790Y011112D01*
X012724Y011228D02*
X012239Y011228D01*
X012239Y011112D02*
X012525Y011112D01*
X012444Y010995D02*
X012239Y010995D01*
X012234Y010878D02*
X012443Y010878D01*
X012443Y010762D02*
X012165Y010762D01*
X011795Y011130D02*
X011146Y011130D01*
X011424Y011578D02*
X012720Y011578D01*
X012720Y011695D02*
X010083Y011695D01*
X010083Y011811D02*
X012720Y011811D01*
X012720Y011461D02*
X012201Y011461D01*
X012239Y011345D02*
X012720Y011345D01*
X012132Y011928D02*
X010083Y011928D01*
X010083Y012044D02*
X011494Y012044D01*
X011479Y012161D02*
X010083Y012161D01*
X010083Y012278D02*
X011815Y012278D01*
X011815Y012350D02*
X011479Y012350D01*
X011479Y012529D01*
X011490Y012569D01*
X011511Y012606D01*
X011540Y012635D01*
X011576Y012656D01*
X011617Y012667D01*
X011815Y012667D01*
X011815Y012350D01*
X011815Y012394D02*
X011894Y012394D01*
X011894Y012511D02*
X011815Y012511D01*
X011815Y012627D02*
X011894Y012627D01*
X012199Y012744D02*
X010083Y012744D01*
X010083Y012627D02*
X011532Y012627D01*
X011479Y012511D02*
X010083Y012511D01*
X010083Y012394D02*
X011479Y012394D01*
X011815Y012161D02*
X011894Y012161D01*
X011894Y012044D02*
X011815Y012044D01*
X012139Y012861D02*
X010083Y012861D01*
X010083Y012977D02*
X012139Y012977D01*
X012139Y013094D02*
X010083Y013094D01*
X010083Y013211D02*
X012139Y013211D01*
X012139Y013327D02*
X010083Y013327D01*
X010059Y013444D02*
X012190Y013444D01*
X012863Y013560D02*
X010043Y013560D01*
X010074Y013677D02*
X010167Y013677D01*
X010162Y013680D02*
X010198Y013659D01*
X010239Y013648D01*
X010516Y013648D01*
X010516Y014417D01*
X010634Y014417D01*
X010634Y013648D01*
X010911Y013648D01*
X010951Y013659D01*
X010987Y013680D01*
X011017Y013709D01*
X011038Y013746D01*
X011049Y013786D01*
X011049Y014417D01*
X010634Y014417D01*
X010634Y014535D01*
X011049Y014535D01*
X011049Y015167D01*
X011038Y015207D01*
X011017Y015243D01*
X010987Y015273D01*
X010951Y015294D01*
X010911Y015305D01*
X010634Y015305D01*
X010634Y014535D01*
X010516Y014535D01*
X010516Y014417D01*
X010101Y014417D01*
X010101Y013786D01*
X010112Y013746D01*
X010133Y013709D01*
X010162Y013680D01*
X010101Y013794D02*
X010074Y013794D01*
X010074Y013910D02*
X010101Y013910D01*
X010101Y014027D02*
X010074Y014027D01*
X010066Y014143D02*
X010101Y014143D01*
X010101Y014260D02*
X009994Y014260D01*
X010101Y014377D02*
X008372Y014377D01*
X008372Y014417D02*
X007957Y014417D01*
X007957Y014535D01*
X008372Y014535D01*
X008372Y015167D01*
X008361Y015207D01*
X008340Y015243D01*
X008310Y015273D01*
X008274Y015294D01*
X008234Y015305D01*
X007957Y015305D01*
X007957Y014535D01*
X007839Y014535D01*
X007839Y014417D01*
X007957Y014417D01*
X007957Y013648D01*
X008234Y013648D01*
X008274Y013659D01*
X008310Y013680D01*
X008340Y013709D01*
X008361Y013746D01*
X008372Y013786D01*
X008372Y014417D01*
X008372Y014260D02*
X009266Y014260D01*
X009194Y014143D02*
X008372Y014143D01*
X008372Y014027D02*
X009186Y014027D01*
X009186Y013910D02*
X008372Y013910D01*
X008372Y013794D02*
X009186Y013794D01*
X009186Y013677D02*
X008305Y013677D01*
X008530Y013444D02*
X006623Y013444D01*
X006623Y013560D02*
X009217Y013560D01*
X009201Y013444D02*
X009155Y013444D01*
X008882Y013444D02*
X008803Y013444D01*
X008803Y013327D02*
X008882Y013327D01*
X008882Y013211D02*
X008803Y013211D01*
X008803Y013094D02*
X008882Y013094D01*
X008882Y012977D02*
X008803Y012977D01*
X008803Y012861D02*
X008882Y012861D01*
X008882Y012744D02*
X008803Y012744D01*
X008803Y012627D02*
X008882Y012627D01*
X008882Y012511D02*
X008803Y012511D01*
X008803Y012394D02*
X006623Y012394D01*
X006623Y012278D02*
X008487Y012278D01*
X008487Y012161D02*
X006623Y012161D01*
X006623Y012044D02*
X008487Y012044D01*
X008487Y011928D02*
X006623Y011928D01*
X006623Y011811D02*
X008487Y011811D01*
X008487Y011695D02*
X006623Y011695D01*
X006623Y011578D02*
X008487Y011578D01*
X008498Y011461D02*
X007342Y011461D01*
X007526Y011345D02*
X008976Y011345D01*
X008882Y011461D02*
X008803Y011461D01*
X008803Y011578D02*
X008882Y011578D01*
X008882Y011695D02*
X008803Y011695D01*
X008803Y011811D02*
X008882Y011811D01*
X008882Y011928D02*
X008803Y011928D01*
X008803Y012044D02*
X008882Y012044D01*
X008882Y012161D02*
X008803Y012161D01*
X008803Y012278D02*
X008882Y012278D01*
X008487Y012511D02*
X006623Y012511D01*
X006623Y012627D02*
X008487Y012627D01*
X008487Y012744D02*
X006623Y012744D01*
X006623Y012861D02*
X008487Y012861D01*
X008487Y012977D02*
X006623Y012977D01*
X006623Y013094D02*
X008487Y013094D01*
X008487Y013211D02*
X006623Y013211D01*
X006623Y013327D02*
X008487Y013327D01*
X007839Y013648D02*
X007839Y014417D01*
X007424Y014417D01*
X007424Y013786D01*
X007434Y013746D01*
X007455Y013709D01*
X007485Y013680D01*
X007521Y013659D01*
X007562Y013648D01*
X007839Y013648D01*
X007839Y013677D02*
X007957Y013677D01*
X007957Y013794D02*
X007839Y013794D01*
X007839Y013910D02*
X007957Y013910D01*
X007957Y014027D02*
X007839Y014027D01*
X007839Y014143D02*
X007957Y014143D01*
X007957Y014260D02*
X007839Y014260D01*
X007839Y014377D02*
X007957Y014377D01*
X007957Y014493D02*
X010516Y014493D01*
X010516Y014535D02*
X010101Y014535D01*
X010101Y015167D01*
X010112Y015207D01*
X010133Y015243D01*
X010162Y015273D01*
X010198Y015294D01*
X010239Y015305D01*
X010516Y015305D01*
X010516Y014535D01*
X010516Y014610D02*
X010634Y014610D01*
X010634Y014726D02*
X010516Y014726D01*
X010516Y014843D02*
X010634Y014843D01*
X010634Y014960D02*
X010516Y014960D01*
X010516Y015076D02*
X010634Y015076D01*
X010634Y015193D02*
X010516Y015193D01*
X010108Y015193D02*
X008365Y015193D01*
X008372Y015076D02*
X010101Y015076D01*
X010101Y014960D02*
X008372Y014960D01*
X008372Y014843D02*
X010101Y014843D01*
X010101Y014726D02*
X008372Y014726D01*
X008372Y014610D02*
X010101Y014610D01*
X010516Y014377D02*
X010634Y014377D01*
X010634Y014493D02*
X012346Y014493D01*
X012346Y014377D02*
X012425Y014377D01*
X012425Y014260D02*
X012346Y014260D01*
X012346Y014143D02*
X012425Y014143D01*
X012665Y014143D02*
X012790Y014143D01*
X012837Y014027D02*
X011049Y014027D01*
X011049Y014143D02*
X012107Y014143D01*
X012030Y014260D02*
X011049Y014260D01*
X011049Y014377D02*
X012030Y014377D01*
X012030Y014610D02*
X011049Y014610D01*
X011049Y014726D02*
X012039Y014726D01*
X012061Y014843D02*
X011049Y014843D01*
X011049Y014960D02*
X011655Y014960D01*
X011509Y015076D02*
X011049Y015076D01*
X011042Y015193D02*
X011393Y015193D01*
X011299Y015310D02*
X007230Y015310D01*
X007230Y015193D02*
X007431Y015193D01*
X007434Y015207D02*
X007424Y015167D01*
X007424Y014535D01*
X007839Y014535D01*
X007839Y015305D01*
X007562Y015305D01*
X007521Y015294D01*
X007485Y015273D01*
X007455Y015243D01*
X007434Y015207D01*
X007424Y015076D02*
X007187Y015076D01*
X007424Y014960D02*
X005870Y014960D01*
X005965Y015076D02*
X006561Y015076D01*
X006550Y015087D02*
X006580Y015058D01*
X006616Y015037D01*
X006656Y015026D01*
X006835Y015026D01*
X006835Y015382D01*
X006518Y015382D01*
X006518Y015164D01*
X006529Y015124D01*
X006550Y015087D01*
X006518Y015193D02*
X006058Y015193D01*
X006057Y015189D02*
X006057Y015189D01*
X006109Y015310D02*
X006518Y015310D01*
X006518Y015543D02*
X006210Y015543D01*
X006261Y015659D02*
X006518Y015659D01*
X006835Y015426D02*
X006160Y015426D01*
X006835Y015310D02*
X006913Y015310D01*
X006913Y015426D02*
X011264Y015426D01*
X011264Y015543D02*
X007230Y015543D01*
X007230Y015659D02*
X011264Y015659D01*
X011204Y015776D02*
X007663Y015776D01*
X007761Y015893D02*
X011087Y015893D01*
X010634Y014260D02*
X010516Y014260D01*
X010516Y014143D02*
X010634Y014143D01*
X010634Y014027D02*
X010516Y014027D01*
X010516Y013910D02*
X010634Y013910D01*
X010634Y013794D02*
X010516Y013794D01*
X010516Y013677D02*
X010634Y013677D01*
X010983Y013677D02*
X012837Y013677D01*
X012837Y013794D02*
X011049Y013794D01*
X011049Y013910D02*
X012837Y013910D01*
X010867Y011578D02*
X010755Y011578D01*
X010198Y011578D02*
X010083Y011578D01*
X008859Y011228D02*
X007589Y011228D01*
X007602Y011112D02*
X008743Y011112D01*
X008626Y010995D02*
X007602Y010995D01*
X007602Y010878D02*
X008510Y010878D01*
X008393Y010762D02*
X007602Y010762D01*
X009710Y010295D02*
X010616Y010295D01*
X010564Y010179D02*
X009710Y010179D01*
X009710Y010062D02*
X010564Y010062D01*
X010564Y009945D02*
X009710Y009945D01*
X009706Y009829D02*
X010452Y009829D01*
X010326Y009712D02*
X009710Y009712D01*
X009710Y009596D02*
X010209Y009596D01*
X010093Y009479D02*
X009710Y009479D01*
X009710Y009362D02*
X009976Y009362D01*
X010417Y008768D02*
X010220Y008571D01*
X008705Y008768D02*
X008094Y008768D01*
X004642Y005921D02*
X004642Y005921D01*
X004533Y005864D02*
X003590Y005864D01*
X003548Y005777D02*
X003370Y005777D01*
X003370Y005461D01*
X003687Y005461D01*
X003687Y005639D01*
X003676Y005680D01*
X003655Y005716D01*
X003625Y005745D01*
X003589Y005766D01*
X003548Y005777D01*
X003622Y005747D02*
X004308Y005747D01*
X004149Y005665D02*
X004149Y005665D01*
X004112Y005631D02*
X003687Y005631D01*
X003687Y005514D02*
X003988Y005514D01*
X003863Y005398D02*
X003370Y005398D01*
X003370Y005514D02*
X003291Y005514D01*
X003291Y005631D02*
X003370Y005631D01*
X003370Y005747D02*
X003291Y005747D01*
X003291Y005864D02*
X003370Y005864D01*
X003370Y005981D02*
X003291Y005981D01*
X003291Y006097D02*
X003370Y006097D01*
X003110Y006564D02*
X002944Y006564D01*
X002968Y006680D02*
X003028Y006680D01*
X003291Y007147D02*
X003370Y007147D01*
X003370Y007263D02*
X003291Y007263D01*
X002991Y007263D02*
X002988Y007263D01*
X003671Y007263D02*
X003778Y007263D01*
X003762Y007147D02*
X003687Y007147D01*
X003744Y005286D02*
X003744Y005286D01*
X003740Y005281D02*
X003687Y005281D01*
X003599Y005048D02*
X002925Y005048D01*
X003291Y005164D02*
X003370Y005164D01*
X003370Y005281D02*
X003291Y005281D01*
X003528Y004931D02*
X001262Y004931D01*
X001249Y004945D02*
X001249Y004945D01*
X001176Y005018D01*
X001080Y005058D01*
X000836Y005058D01*
X000836Y017137D01*
X000860Y017123D01*
X000900Y017112D01*
X001344Y017112D01*
X001344Y017129D01*
X001727Y017059D02*
X000836Y017059D01*
X000836Y016942D02*
X001783Y016942D01*
X002014Y016942D02*
X002033Y016942D01*
X002033Y017059D02*
X002014Y017059D01*
X002380Y016825D02*
X000836Y016825D01*
X000836Y016709D02*
X002347Y016709D01*
X002314Y016592D02*
X000836Y016592D01*
X000836Y016476D02*
X002296Y016476D01*
X002296Y016359D02*
X000836Y016359D01*
X000836Y016242D02*
X001348Y016242D01*
X001181Y016126D02*
X000836Y016126D01*
X000836Y016009D02*
X001051Y016009D01*
X001019Y015981D02*
X001019Y015981D01*
X000980Y015893D02*
X000836Y015893D01*
X000836Y015776D02*
X000928Y015776D01*
X000876Y015659D02*
X000836Y015659D01*
X000836Y015543D02*
X000872Y015543D01*
X000872Y015426D02*
X000836Y015426D01*
X000836Y015310D02*
X000872Y015310D01*
X000836Y015193D02*
X000914Y015193D01*
X000966Y015076D02*
X000836Y015076D01*
X000836Y014960D02*
X001018Y014960D01*
X001019Y014956D02*
X001019Y014956D01*
X001145Y014843D02*
X000836Y014843D01*
X000836Y014726D02*
X001275Y014726D01*
X001289Y014714D02*
X001289Y014714D01*
X001609Y014610D02*
X000836Y014610D01*
X000836Y014493D02*
X003062Y014493D01*
X003110Y014610D02*
X001710Y014610D01*
X001994Y014640D02*
X001994Y014640D01*
X002144Y014726D02*
X002986Y014726D01*
X002861Y014843D02*
X002324Y014843D01*
X002308Y014821D02*
X002308Y014821D01*
X002308Y014821D01*
X002408Y014960D02*
X002736Y014960D01*
X002734Y014962D02*
X002734Y014962D01*
X002734Y014962D01*
X002664Y015076D02*
X002493Y015076D01*
X002521Y015114D02*
X002521Y015114D01*
X002537Y015193D02*
X002593Y015193D01*
X002939Y014434D02*
X002939Y014434D01*
X002893Y014377D02*
X000836Y014377D01*
X000836Y014260D02*
X002800Y014260D01*
X002756Y014143D02*
X000836Y014143D01*
X000836Y014027D02*
X002729Y014027D01*
X002677Y013933D02*
X002677Y013933D01*
X002577Y013910D02*
X000836Y013910D01*
X000836Y013794D02*
X002319Y013794D01*
X002421Y013875D02*
X002421Y013875D01*
X002199Y013677D02*
X000836Y013677D01*
X000836Y013560D02*
X002143Y013560D01*
X002101Y013444D02*
X000836Y013444D01*
X000836Y013327D02*
X002101Y013327D01*
X002101Y013211D02*
X000836Y013211D01*
X000836Y013094D02*
X002101Y013094D01*
X002101Y012977D02*
X000836Y012977D01*
X000836Y012861D02*
X002101Y012861D01*
X002101Y012744D02*
X000836Y012744D01*
X000836Y012627D02*
X002101Y012627D01*
X002101Y012511D02*
X000836Y012511D01*
X000836Y012394D02*
X002101Y012394D01*
X002101Y012278D02*
X000836Y012278D01*
X000836Y012161D02*
X002101Y012161D01*
X002101Y012044D02*
X000836Y012044D01*
X000836Y011928D02*
X002101Y011928D01*
X002101Y011811D02*
X000836Y011811D01*
X000836Y011695D02*
X002101Y011695D01*
X002101Y011578D02*
X000836Y011578D01*
X000836Y011461D02*
X002101Y011461D01*
X002101Y011345D02*
X000836Y011345D01*
X000836Y011228D02*
X002101Y011228D01*
X002101Y011112D02*
X000836Y011112D01*
X000836Y010995D02*
X002101Y010995D01*
X002101Y010878D02*
X000836Y010878D01*
X000836Y010762D02*
X002101Y010762D01*
X002101Y010645D02*
X000836Y010645D01*
X000836Y010529D02*
X002101Y010529D01*
X002101Y010412D02*
X000836Y010412D01*
X000836Y010295D02*
X002101Y010295D01*
X002101Y010179D02*
X000836Y010179D01*
X000836Y010062D02*
X002101Y010062D01*
X002101Y009945D02*
X000836Y009945D01*
X000836Y009829D02*
X002101Y009829D01*
X002101Y009712D02*
X000836Y009712D01*
X000836Y009596D02*
X002101Y009596D01*
X002104Y009479D02*
X000836Y009479D01*
X000836Y009362D02*
X002152Y009362D01*
X002188Y009274D02*
X002188Y009274D01*
X002217Y009246D02*
X000836Y009246D01*
X000836Y009129D02*
X002333Y009129D01*
X002349Y009114D02*
X002349Y009114D01*
X002387Y009013D02*
X002096Y009013D01*
X001303Y009013D02*
X000836Y009013D01*
X000836Y008896D02*
X001222Y008896D01*
X001208Y008779D02*
X000836Y008779D01*
X000836Y008663D02*
X001208Y008663D01*
X001208Y008546D02*
X000836Y008546D01*
X000836Y008430D02*
X001208Y008430D01*
X001208Y008313D02*
X000836Y008313D01*
X000836Y008196D02*
X001246Y008196D01*
X001210Y008080D02*
X000836Y008080D01*
X000836Y007963D02*
X001208Y007963D01*
X001208Y007846D02*
X000836Y007846D01*
X000836Y007730D02*
X001208Y007730D01*
X001208Y007613D02*
X000836Y007613D01*
X000836Y007497D02*
X001209Y007497D01*
X001246Y007380D02*
X000836Y007380D01*
X000836Y007263D02*
X001208Y007263D01*
X001208Y007147D02*
X000836Y007147D01*
X000836Y007030D02*
X001208Y007030D01*
X001208Y006914D02*
X000836Y006914D01*
X000836Y006797D02*
X001208Y006797D01*
X001221Y006680D02*
X000836Y006680D01*
X000836Y006564D02*
X001234Y006564D01*
X001208Y006447D02*
X000836Y006447D01*
X000836Y006331D02*
X001208Y006331D01*
X001208Y006214D02*
X000836Y006214D01*
X000836Y006097D02*
X001208Y006097D01*
X001208Y005981D02*
X000836Y005981D01*
X000836Y005864D02*
X001233Y005864D01*
X001222Y005747D02*
X000836Y005747D01*
X000836Y005631D02*
X001208Y005631D01*
X001208Y005514D02*
X000836Y005514D01*
X000836Y005398D02*
X001208Y005398D01*
X001208Y005281D02*
X000836Y005281D01*
X000836Y005164D02*
X001208Y005164D01*
X001245Y005048D02*
X001104Y005048D01*
X001249Y004945D02*
X005433Y000761D01*
X006933Y000761D01*
X006933Y002777D01*
X006716Y002510D01*
X006716Y002510D01*
X006716Y002510D01*
X006263Y002190D01*
X006263Y002190D01*
X005740Y002004D01*
X005740Y002004D01*
X005186Y001966D01*
X005186Y001966D01*
X004642Y002079D01*
X004642Y002079D01*
X004149Y002335D01*
X004149Y002335D01*
X003744Y002714D01*
X003455Y003188D01*
X003455Y003188D01*
X003391Y003415D02*
X002778Y003415D01*
X002662Y003532D02*
X003359Y003532D01*
X003326Y003648D02*
X002545Y003648D01*
X002429Y003765D02*
X003305Y003765D01*
X003305Y003882D02*
X002312Y003882D01*
X002195Y003998D02*
X003305Y003998D01*
X003305Y004115D02*
X002079Y004115D01*
X001962Y004232D02*
X003305Y004232D01*
X003325Y004348D02*
X001846Y004348D01*
X001729Y004465D02*
X003358Y004465D01*
X003391Y004581D02*
X001612Y004581D01*
X001496Y004698D02*
X003423Y004698D01*
X003457Y004815D02*
X001379Y004815D01*
X003478Y002716D02*
X003742Y002716D01*
X003866Y002599D02*
X003595Y002599D01*
X003711Y002482D02*
X003991Y002482D01*
X004116Y002366D02*
X003828Y002366D01*
X003945Y002249D02*
X004314Y002249D01*
X004539Y002133D02*
X004061Y002133D01*
X004178Y002016D02*
X004947Y002016D01*
X004528Y001666D02*
X006933Y001666D01*
X006933Y001549D02*
X004644Y001549D01*
X004761Y001433D02*
X006933Y001433D01*
X006933Y001316D02*
X004877Y001316D01*
X004994Y001200D02*
X006933Y001200D01*
X006933Y001083D02*
X005111Y001083D01*
X005227Y000966D02*
X006933Y000966D01*
X006933Y000850D02*
X005344Y000850D01*
X004411Y001783D02*
X006933Y001783D01*
X006933Y001899D02*
X004294Y001899D01*
X005772Y002016D02*
X006933Y002016D01*
X006933Y002133D02*
X006101Y002133D01*
X006346Y002249D02*
X006933Y002249D01*
X006933Y002366D02*
X006511Y002366D01*
X006677Y002482D02*
X006933Y002482D01*
X006933Y002599D02*
X006788Y002599D01*
X006883Y002716D02*
X006933Y002716D01*
X008449Y001287D02*
X008646Y001091D01*
X011402Y001091D01*
X011135Y002482D02*
X011029Y002482D01*
X012524Y002482D02*
X012542Y002482D01*
X012542Y002599D02*
X012524Y002599D01*
X013332Y002599D02*
X013408Y002599D01*
X013408Y002482D02*
X013332Y002482D01*
X013332Y002832D02*
X013408Y002832D01*
X013408Y002949D02*
X013332Y002949D01*
X013214Y004465D02*
X013508Y004465D01*
X013193Y007497D02*
X013126Y007497D01*
X007490Y013677D02*
X006623Y013677D01*
X006623Y013794D02*
X007424Y013794D01*
X007424Y013910D02*
X006623Y013910D01*
X006623Y014027D02*
X007424Y014027D01*
X007424Y014143D02*
X006601Y014143D01*
X006553Y014260D02*
X007424Y014260D01*
X007424Y014377D02*
X006460Y014377D01*
X006536Y014301D02*
X006536Y014301D01*
X006299Y014493D02*
X007839Y014493D01*
X007839Y014610D02*
X007957Y014610D01*
X007957Y014726D02*
X007839Y014726D01*
X007839Y014843D02*
X007957Y014843D01*
X007957Y014960D02*
X007839Y014960D01*
X007839Y015076D02*
X007957Y015076D01*
X007957Y015193D02*
X007839Y015193D01*
X007424Y014843D02*
X005775Y014843D01*
X005661Y014726D02*
X007424Y014726D01*
X007424Y014610D02*
X005496Y014610D01*
X006835Y015076D02*
X006913Y015076D01*
X006913Y015193D02*
X006835Y015193D01*
X002296Y016126D02*
X002291Y016126D01*
X002296Y016242D02*
X002089Y016242D01*
X001633Y016335D02*
X001633Y016335D01*
X004132Y022889D02*
X004182Y022889D01*
X004132Y023006D02*
X004298Y023006D01*
X004415Y023122D02*
X004123Y023122D01*
X004050Y023239D02*
X004532Y023239D01*
X004648Y023356D02*
X002418Y023356D01*
X003973Y023822D02*
X005077Y023822D01*
X005233Y023939D02*
X004362Y023939D01*
X004750Y024055D02*
X008352Y024055D01*
X008385Y023939D02*
X006828Y023939D01*
X006836Y023822D02*
X008418Y023822D01*
X008320Y024172D02*
X005139Y024172D01*
X005528Y024289D02*
X008305Y024289D01*
X008305Y024405D02*
X005916Y024405D01*
X006305Y024522D02*
X008305Y024522D01*
X008305Y024638D02*
X006694Y024638D01*
X007082Y024755D02*
X008305Y024755D01*
X008332Y024872D02*
X007471Y024872D01*
X007860Y024988D02*
X008364Y024988D01*
X008397Y025105D02*
X008249Y025105D01*
X006520Y023939D02*
X006441Y023939D01*
X006441Y023822D02*
X006520Y023822D01*
X006124Y023822D02*
X005915Y023822D01*
X005759Y023939D02*
X006133Y023939D01*
X006933Y022889D02*
X008643Y022889D01*
X017360Y015310D02*
X019870Y015310D01*
X022337Y015776D02*
X022805Y015776D01*
X022805Y015893D02*
X022714Y015893D01*
X022766Y016009D02*
X022832Y016009D01*
X022766Y016126D02*
X022902Y016126D01*
X022902Y016242D02*
X022766Y016242D01*
X022729Y015659D02*
X022805Y015659D01*
X022839Y015543D02*
X022766Y015543D01*
X022766Y015426D02*
X022902Y015426D01*
X022902Y015310D02*
X022766Y015310D01*
X001704Y007783D02*
X001700Y007787D01*
D60*
X005102Y007783D02*
X005102Y007528D01*
X008449Y010343D02*
X008488Y010343D01*
X008685Y010146D01*
X008449Y010343D02*
X009236Y011130D01*
X010476Y011130D01*
X012524Y012311D02*
X013173Y012311D01*
X013173Y011563D01*
X013173Y011524D01*
X013173Y012311D02*
X016520Y012311D01*
X016126Y014476D02*
X015929Y014673D01*
X014413Y015657D02*
X020260Y015657D01*
X023364Y017912D02*
X023556Y018104D01*
X024675Y018104D01*
X019144Y022285D02*
X019144Y022817D01*
X019020Y022941D01*
X019020Y025021D01*
X019144Y025145D01*
X019931Y025145D02*
X020063Y025013D01*
X020063Y023138D01*
X020457Y022744D01*
X024394Y022744D01*
X025391Y023616D02*
X025391Y023716D01*
X025378Y023728D01*
X014413Y015657D02*
X014020Y016051D01*
X013173Y014535D02*
X013173Y013689D01*
X013567Y013295D01*
X012780Y012902D02*
X012583Y013098D01*
X013547Y010697D02*
X013547Y010520D01*
X020260Y011720D02*
X020260Y012902D01*
X020260Y011720D02*
X020654Y011327D01*
X024516Y011835D02*
X024591Y011909D01*
X031736Y004831D02*
X031736Y003287D01*
X031587Y003138D01*
X013213Y003433D02*
X012878Y003768D01*
X012878Y004791D01*
X006480Y017035D02*
X005299Y018217D01*
X003331Y018217D01*
X003202Y018088D01*
X002467Y018088D01*
X003575Y021750D02*
X003585Y021760D01*
X004315Y021760D01*
X004315Y022547D01*
X005240Y023472D01*
X005496Y023472D01*
X005496Y022803D02*
X005299Y022803D01*
X004906Y022409D01*
X004906Y022154D01*
D61*
X009433Y002921D02*
X009217Y002705D01*
D62*
X012780Y005559D02*
X013488Y005559D01*
X013567Y005677D02*
X013567Y006209D01*
X013961Y006602D01*
X013961Y009555D01*
X008193Y020776D02*
X008055Y020776D01*
X006677Y020776D01*
X006264Y021189D01*
X006244Y021189D01*
X008193Y020776D02*
X008646Y021228D01*
X025378Y023728D02*
X025378Y025106D01*
M02*
