G75*
%MOIN*%
%OFA0B0*%
%FSLAX24Y24*%
%IPPOS*%
%LPD*%
%AMOC8*
5,1,8,0,0,1.08239X$1,22.5*
%
%ADD10OC8,0.0610*%
%ADD11R,0.0396X0.0396*%
%ADD12R,0.0531X0.0531*%
%ADD13R,0.0602X0.0602*%
%ADD14R,0.0472X0.0472*%
%ADD15R,0.0376X0.0376*%
%ADD16C,0.0157*%
%ADD17C,0.0315*%
%ADD18C,0.0118*%
%ADD19C,0.0079*%
D10*
X017160Y006149D03*
X017160Y007149D03*
X017160Y008149D03*
X018160Y008149D03*
X018160Y007149D03*
X018160Y006149D03*
D11*
X019339Y025416D03*
X020127Y025416D03*
X020914Y025416D03*
X021702Y025416D03*
D12*
X015513Y024643D03*
X015513Y023659D03*
X014528Y023659D03*
X014528Y024643D03*
X014528Y022674D03*
X015513Y022674D03*
X028830Y003408D03*
X029814Y003408D03*
X030798Y003408D03*
X031782Y003408D03*
D13*
X003771Y022021D03*
X003771Y023021D03*
X026021Y028646D03*
X027021Y028646D03*
D14*
X001896Y008845D03*
X001896Y008058D03*
X001896Y007271D03*
X001896Y006483D03*
X001896Y005696D03*
D15*
X002936Y004708D03*
X005889Y008448D03*
X007070Y010219D03*
X007070Y011007D03*
X009432Y009235D03*
X009432Y008448D03*
X010416Y007660D03*
X011204Y007857D03*
X012778Y007463D03*
X011204Y006479D03*
X010219Y006282D03*
X009432Y007070D03*
X008841Y006282D03*
X008448Y004904D03*
X008841Y004314D03*
X009629Y004904D03*
X009629Y003723D03*
X010416Y003723D03*
X010810Y004314D03*
X011794Y003920D03*
X012385Y004904D03*
X015534Y003526D03*
X015928Y005298D03*
X019471Y006479D03*
X019668Y005101D03*
X022030Y007267D03*
X023015Y006479D03*
X023211Y005298D03*
X023015Y002739D03*
X022030Y002739D03*
X027149Y006086D03*
X028723Y005298D03*
X029511Y006479D03*
X027542Y008054D03*
X028723Y009826D03*
X028133Y010416D03*
X029314Y010416D03*
X030101Y011794D03*
X027542Y011597D03*
X025771Y013763D03*
X024141Y013723D03*
X022621Y013172D03*
X021637Y011991D03*
X020456Y013172D03*
X018290Y011991D03*
X016715Y012582D03*
X015534Y014353D03*
X016125Y014944D03*
X017306Y015141D03*
X017897Y016715D03*
X019865Y017700D03*
X021046Y018487D03*
X022621Y017503D03*
X020456Y015928D03*
X021637Y015731D03*
X024983Y016912D03*
X026164Y016912D03*
X026952Y015928D03*
X025967Y015731D03*
X028133Y016912D03*
X029314Y014944D03*
X030692Y014353D03*
X025574Y020259D03*
X027345Y021046D03*
X028723Y022424D03*
X025574Y025377D03*
X024393Y025771D03*
X022818Y025574D03*
X019339Y022556D03*
X019471Y019471D03*
X013763Y020259D03*
X013763Y020849D03*
X013763Y021440D03*
X012385Y019078D03*
X011794Y018290D03*
X012778Y018093D03*
X013566Y017700D03*
X011991Y016715D03*
X010810Y016125D03*
X011597Y014747D03*
X012582Y014156D03*
X012778Y013369D03*
X011991Y011400D03*
X011204Y010219D03*
X010416Y010219D03*
X010416Y010810D03*
X011991Y009826D03*
X011597Y009038D03*
X012385Y009038D03*
X012975Y009826D03*
X014156Y009826D03*
X016715Y009432D03*
X017897Y009629D03*
X019471Y009235D03*
X010613Y009038D03*
X009826Y014156D03*
X007267Y017109D03*
X006676Y017503D03*
X006676Y019668D03*
X006676Y020456D03*
X005692Y021046D03*
X005101Y022424D03*
X008251Y021046D03*
X009432Y021440D03*
X010613Y021440D03*
X009235Y022818D03*
X010416Y019078D03*
X009235Y018684D03*
X001755Y013369D03*
X001755Y012188D03*
X001755Y010810D03*
X018290Y025771D03*
D16*
X016268Y023659D02*
X015513Y023659D01*
X016268Y023659D02*
X016715Y023211D01*
X016715Y012582D01*
X015534Y014353D02*
X015534Y008251D01*
X013172Y005889D01*
X007660Y005889D01*
X007070Y006479D01*
X007066Y006483D01*
X006676Y006873D01*
X003330Y006873D01*
X002940Y006483D01*
X001896Y006483D01*
X001896Y005696D02*
X002940Y005696D01*
X003723Y006479D01*
X006479Y006479D01*
X006873Y006086D01*
X007463Y005495D01*
X013369Y005495D01*
X016125Y008251D01*
X016125Y014944D01*
X017306Y015141D02*
X017306Y010023D01*
X016715Y009432D01*
X018160Y008149D02*
X018255Y008054D01*
X019078Y008054D01*
X019471Y007660D01*
X019471Y006479D01*
X019668Y006282D01*
X019668Y005101D01*
X021637Y005138D02*
X022818Y005138D01*
X022818Y004982D02*
X021637Y004982D01*
X021637Y004826D02*
X023408Y004826D01*
X023408Y004904D02*
X023408Y002345D01*
X021637Y002345D01*
X021637Y006676D01*
X023408Y006676D01*
X023408Y005692D01*
X022818Y005692D01*
X022818Y004904D01*
X023408Y004904D01*
X023408Y004670D02*
X021637Y004670D01*
X021637Y004514D02*
X023408Y004514D01*
X023408Y004358D02*
X021637Y004358D01*
X021637Y004202D02*
X023408Y004202D01*
X023408Y004046D02*
X021637Y004046D01*
X021637Y003890D02*
X023408Y003890D01*
X023408Y003734D02*
X021637Y003734D01*
X021637Y003578D02*
X023408Y003578D01*
X023408Y003422D02*
X021637Y003422D01*
X021637Y003266D02*
X023408Y003266D01*
X023408Y003110D02*
X021637Y003110D01*
X021637Y002954D02*
X023408Y002954D01*
X023408Y002798D02*
X021637Y002798D01*
X021637Y002642D02*
X023408Y002642D01*
X023408Y002486D02*
X021637Y002486D01*
X021637Y005294D02*
X022818Y005294D01*
X022818Y005450D02*
X021637Y005450D01*
X021637Y005606D02*
X022818Y005606D01*
X023408Y005762D02*
X021637Y005762D01*
X021637Y005918D02*
X023408Y005918D01*
X023408Y006074D02*
X021637Y006074D01*
X021637Y006230D02*
X023408Y006230D01*
X023408Y006386D02*
X021637Y006386D01*
X021637Y006542D02*
X023408Y006542D01*
X022030Y007267D02*
X021046Y008251D01*
X021046Y018487D01*
X019471Y019471D02*
X019471Y009235D01*
X021637Y011991D02*
X021637Y015731D01*
X021637Y020259D01*
X019339Y022556D01*
X013763Y021440D02*
X010613Y021440D01*
X009432Y021440D02*
X009235Y021637D01*
X009235Y022818D01*
X007267Y017109D02*
X007267Y013960D01*
X007857Y013369D01*
X012778Y013369D01*
X013566Y012582D02*
X013566Y010613D01*
X012385Y010613D01*
X012385Y011007D01*
X012277Y011114D01*
X012318Y011155D01*
X012318Y011646D01*
X012237Y011727D01*
X011745Y011727D01*
X011664Y011646D01*
X011664Y011400D01*
X009826Y011400D01*
X008251Y009826D01*
X006676Y009826D01*
X006676Y010147D01*
X006683Y010152D01*
X006683Y010152D01*
X006683Y010152D01*
X006792Y010378D01*
X006792Y012582D01*
X013566Y012582D01*
X013566Y012469D02*
X006792Y012469D01*
X006792Y012313D02*
X013566Y012313D01*
X013566Y012188D02*
X012975Y011597D01*
X012975Y011007D01*
X014156Y009826D01*
X013566Y010753D02*
X012385Y010753D01*
X012385Y010909D02*
X013566Y010909D01*
X013566Y011065D02*
X012326Y011065D01*
X012318Y011221D02*
X013566Y011221D01*
X013566Y011377D02*
X012318Y011377D01*
X012318Y011533D02*
X013566Y011533D01*
X013566Y011689D02*
X012275Y011689D01*
X011991Y011400D02*
X011991Y009826D01*
X009802Y011377D02*
X006792Y011377D01*
X006792Y011221D02*
X009646Y011221D01*
X009490Y011065D02*
X006792Y011065D01*
X006792Y010909D02*
X009334Y010909D01*
X009179Y010753D02*
X006792Y010753D01*
X006792Y010597D02*
X009023Y010597D01*
X008867Y010441D02*
X006792Y010441D01*
X006747Y010285D02*
X008711Y010285D01*
X008555Y010129D02*
X006676Y010129D01*
X006676Y009973D02*
X008399Y009973D01*
X007070Y010219D02*
X007070Y009432D01*
X006676Y009038D01*
X004314Y009038D01*
X002546Y007271D01*
X002542Y007267D01*
X002546Y007271D02*
X001896Y007271D01*
X006792Y011533D02*
X011664Y011533D01*
X011707Y011689D02*
X006792Y011689D01*
X006792Y011845D02*
X013566Y011845D01*
X013566Y012001D02*
X006792Y012001D01*
X006792Y012157D02*
X013566Y012157D01*
X020456Y013172D02*
X020456Y015928D01*
X022621Y013172D02*
X022818Y012975D01*
X022818Y011007D01*
X025771Y008054D01*
X027542Y008054D01*
X028723Y009826D02*
X028723Y022424D01*
X030101Y025565D02*
X027021Y028646D01*
X030101Y025565D02*
X030101Y011794D01*
X029314Y010416D02*
X029314Y014944D01*
X030692Y014353D02*
X030692Y003723D01*
X030798Y003617D01*
X030798Y003408D01*
X028133Y010416D02*
X028133Y016912D01*
X026164Y016912D02*
X024983Y016912D01*
X010219Y006282D02*
X008841Y006282D01*
X009629Y004904D02*
X012385Y004904D01*
D17*
X013025Y006243D02*
X010683Y006243D01*
X010683Y006525D01*
X010641Y006627D01*
X010564Y006704D01*
X010462Y006746D01*
X010219Y006746D01*
X010219Y009235D01*
X010869Y009235D01*
X010869Y008283D01*
X010859Y008279D01*
X010782Y008201D01*
X010740Y008100D01*
X010740Y007614D01*
X010782Y007513D01*
X010859Y007435D01*
X010961Y007393D01*
X011007Y007393D01*
X011007Y006873D01*
X012975Y006873D01*
X014156Y008054D01*
X014156Y009362D01*
X014399Y009362D01*
X014501Y009404D01*
X014578Y009481D01*
X014620Y009583D01*
X014620Y010069D01*
X014578Y010170D01*
X014501Y010247D01*
X014399Y010289D01*
X014194Y010289D01*
X014156Y010327D01*
X014156Y019886D01*
X014184Y019915D01*
X014226Y020016D01*
X014226Y020502D01*
X014205Y020554D01*
X014226Y020606D01*
X014226Y021092D01*
X014205Y021145D01*
X014205Y021146D02*
X015338Y021146D01*
X015361Y021090D02*
X015523Y020928D01*
X015534Y020924D01*
X015534Y014817D01*
X015291Y014817D01*
X015190Y014775D01*
X015113Y014697D01*
X015071Y014596D01*
X015071Y014110D01*
X015113Y014009D01*
X015180Y013942D01*
X015180Y008398D01*
X013025Y006243D01*
X013195Y006413D02*
X010683Y006413D01*
X010510Y006726D02*
X013509Y006726D01*
X013822Y007040D02*
X013142Y007040D01*
X013456Y007353D02*
X014136Y007353D01*
X014449Y007667D02*
X013769Y007667D01*
X014083Y007980D02*
X014763Y007980D01*
X015076Y008294D02*
X014156Y008294D01*
X014156Y008607D02*
X015180Y008607D01*
X015180Y008921D02*
X014156Y008921D01*
X014156Y009234D02*
X015180Y009234D01*
X015180Y009547D02*
X014605Y009547D01*
X014620Y009861D02*
X015180Y009861D01*
X015180Y010174D02*
X014574Y010174D01*
X014156Y010488D02*
X015180Y010488D01*
X015180Y010801D02*
X014156Y010801D01*
X014156Y011115D02*
X015180Y011115D01*
X015180Y011428D02*
X014156Y011428D01*
X014156Y011742D02*
X015180Y011742D01*
X015180Y012055D02*
X014156Y012055D01*
X014156Y012369D02*
X015180Y012369D01*
X015180Y012682D02*
X014156Y012682D01*
X014156Y012996D02*
X015180Y012996D01*
X015180Y013309D02*
X014156Y013309D01*
X014156Y013622D02*
X015180Y013622D01*
X015180Y013936D02*
X014156Y013936D01*
X014156Y014249D02*
X015071Y014249D01*
X015071Y014563D02*
X014156Y014563D01*
X014156Y014876D02*
X015534Y014876D01*
X015534Y015190D02*
X014156Y015190D01*
X014156Y015503D02*
X015534Y015503D01*
X015534Y015817D02*
X014156Y015817D01*
X014156Y016130D02*
X015534Y016130D01*
X015534Y016444D02*
X014156Y016444D01*
X014156Y016757D02*
X015534Y016757D01*
X015534Y017071D02*
X014156Y017071D01*
X014156Y017384D02*
X015534Y017384D01*
X015534Y017697D02*
X014156Y017697D01*
X014156Y018011D02*
X015534Y018011D01*
X015534Y018324D02*
X014156Y018324D01*
X014156Y018638D02*
X015534Y018638D01*
X015534Y018951D02*
X014156Y018951D01*
X014156Y019265D02*
X015534Y019265D01*
X015534Y019578D02*
X014156Y019578D01*
X014162Y019892D02*
X015534Y019892D01*
X015534Y020205D02*
X014226Y020205D01*
X014219Y020519D02*
X015534Y020519D01*
X015534Y020832D02*
X014226Y020832D01*
X014205Y021145D02*
X014226Y021197D01*
X014226Y021683D01*
X014184Y021784D01*
X014156Y021812D01*
X014156Y022174D01*
X014188Y022161D01*
X014237Y022151D01*
X014528Y022151D01*
X014528Y022674D01*
X014528Y022674D01*
X014528Y022151D01*
X014820Y022151D01*
X014869Y022161D01*
X014916Y022180D01*
X014958Y022209D01*
X014994Y022244D01*
X015021Y022284D01*
X015047Y022244D01*
X015083Y022209D01*
X015125Y022180D01*
X015172Y022161D01*
X015222Y022151D01*
X015513Y022151D01*
X015534Y022151D01*
X015534Y021905D01*
X015523Y021900D01*
X015361Y021739D01*
X015274Y021528D01*
X015274Y021300D01*
X015361Y021090D01*
X015274Y021459D02*
X014226Y021459D01*
X014189Y021772D02*
X015395Y021772D01*
X015534Y022086D02*
X014156Y022086D01*
X014528Y022399D02*
X014528Y022399D01*
X014528Y022674D02*
X014528Y022674D01*
X015052Y022674D01*
X015513Y022674D01*
X015513Y022151D01*
X015513Y022674D01*
X015513Y022674D01*
X015513Y022674D01*
X014528Y022674D01*
X015513Y022399D02*
X015513Y022399D01*
X013763Y020849D02*
X013763Y020259D01*
X013763Y020849D02*
X011204Y020849D01*
X011204Y018881D01*
X010810Y018487D01*
X010219Y018487D01*
X009826Y018093D01*
X009826Y014156D01*
X013566Y012188D02*
X013566Y017700D01*
X011204Y020849D02*
X008448Y020849D01*
X008251Y021046D01*
X021637Y011991D02*
X022227Y011400D01*
X022227Y007857D01*
X023015Y007070D01*
X023015Y006479D01*
X011007Y007040D02*
X010219Y007040D01*
X010219Y007353D02*
X011007Y007353D01*
X010740Y007667D02*
X010219Y007667D01*
X010219Y007980D02*
X010740Y007980D01*
X010869Y008294D02*
X010219Y008294D01*
X010219Y008607D02*
X010869Y008607D01*
X010869Y008921D02*
X010219Y008921D01*
X010219Y009234D02*
X010869Y009234D01*
X025574Y020259D02*
X025574Y025377D01*
D18*
X004062Y002870D02*
X003790Y002870D01*
X003674Y002986D02*
X003938Y002986D01*
X003939Y002984D02*
X004345Y002605D01*
X004838Y002350D01*
X005381Y002237D01*
X005381Y002237D01*
X005935Y002275D01*
X005935Y002275D01*
X006458Y002461D01*
X006912Y002781D01*
X007262Y003211D01*
X007262Y003211D01*
X007483Y003721D01*
X007559Y004271D01*
X007483Y004820D01*
X007483Y004821D01*
X007322Y005191D01*
X007397Y005160D01*
X009192Y005160D01*
X009185Y005143D01*
X009185Y004665D01*
X009224Y004571D01*
X009296Y004499D01*
X009390Y004460D01*
X009868Y004460D01*
X009962Y004499D01*
X010032Y004570D01*
X011981Y004570D01*
X012052Y004499D01*
X012146Y004460D01*
X012624Y004460D01*
X012718Y004499D01*
X012790Y004571D01*
X012829Y004665D01*
X012829Y005143D01*
X012822Y005160D01*
X013436Y005160D01*
X013559Y005211D01*
X016314Y007967D01*
X016409Y008061D01*
X016460Y008184D01*
X016460Y008995D01*
X016476Y008988D01*
X016954Y008988D01*
X017049Y009027D01*
X017120Y009099D01*
X017159Y009193D01*
X017159Y009403D01*
X017590Y009833D01*
X017641Y009956D01*
X017641Y014737D01*
X017711Y014808D01*
X017750Y014902D01*
X017750Y015380D01*
X017711Y015474D01*
X017639Y015546D01*
X017545Y015585D01*
X017067Y015585D01*
X017050Y015578D01*
X017050Y023278D01*
X016999Y023401D01*
X016552Y023848D01*
X016458Y023942D01*
X016335Y023993D01*
X016027Y023993D01*
X015995Y024069D01*
X015923Y024141D01*
X015901Y024151D01*
X015923Y024160D01*
X015995Y024232D01*
X016034Y024326D01*
X025160Y024326D01*
X025160Y024442D02*
X016034Y024442D01*
X016034Y024326D02*
X016034Y024959D01*
X015995Y025054D01*
X015923Y025125D01*
X015829Y025164D01*
X015196Y025164D01*
X015102Y025125D01*
X015030Y025054D01*
X015021Y025031D01*
X015011Y025054D01*
X014939Y025125D01*
X014845Y025164D01*
X014212Y025164D01*
X014118Y025125D01*
X014046Y025054D01*
X014007Y024959D01*
X014007Y024326D01*
X012498Y024326D01*
X012483Y024221D02*
X012559Y024771D01*
X012483Y025320D01*
X012483Y025321D01*
X012262Y025830D01*
X011912Y026260D01*
X011912Y026260D01*
X011757Y026369D01*
X013059Y026760D01*
X019144Y026760D01*
X019240Y026799D01*
X019314Y026873D01*
X019353Y026969D01*
X019353Y028078D01*
X019401Y027908D01*
X019689Y027434D01*
X020095Y027055D01*
X020588Y026800D01*
X021131Y026687D01*
X021131Y026687D01*
X021685Y026725D01*
X021685Y026725D01*
X022208Y026911D01*
X022662Y027231D01*
X023012Y027661D01*
X023012Y027661D01*
X023233Y028171D01*
X023309Y028721D01*
X023233Y029271D01*
X023021Y029760D01*
X027977Y029760D01*
X030869Y026867D01*
X030869Y014797D01*
X030453Y014797D01*
X030436Y014790D01*
X030436Y025631D01*
X030385Y025754D01*
X027578Y028562D01*
X027578Y028998D01*
X027539Y029092D01*
X027467Y029164D01*
X027373Y029203D01*
X026668Y029203D01*
X026574Y029164D01*
X026521Y029110D01*
X026467Y029164D01*
X026373Y029203D01*
X025668Y029203D01*
X025574Y029164D01*
X025502Y029092D01*
X025463Y028998D01*
X025463Y028293D01*
X025502Y028199D01*
X025574Y028127D01*
X025668Y028088D01*
X026373Y028088D01*
X026467Y028127D01*
X026521Y028181D01*
X026574Y028127D01*
X026668Y028088D01*
X027104Y028088D01*
X029767Y025426D01*
X029767Y012198D01*
X029696Y012127D01*
X029657Y012033D01*
X029657Y011555D01*
X029696Y011461D01*
X029768Y011389D01*
X029862Y011350D01*
X030340Y011350D01*
X030357Y011357D01*
X030357Y003861D01*
X030315Y003819D01*
X030306Y003796D01*
X030297Y003819D01*
X030225Y003891D01*
X030131Y003930D01*
X029497Y003930D01*
X029403Y003891D01*
X029331Y003819D01*
X029322Y003796D01*
X029312Y003819D01*
X029240Y003891D01*
X029146Y003930D01*
X028513Y003930D01*
X028419Y003891D01*
X028347Y003819D01*
X028308Y003725D01*
X028308Y003092D01*
X028347Y002998D01*
X028419Y002926D01*
X028513Y002887D01*
X029146Y002887D01*
X029240Y002926D01*
X029312Y002998D01*
X029322Y003020D01*
X029331Y002998D01*
X029403Y002926D01*
X029497Y002887D01*
X030131Y002887D01*
X030225Y002926D01*
X030297Y002998D01*
X030306Y003020D01*
X030315Y002998D01*
X030387Y002926D01*
X030481Y002887D01*
X031115Y002887D01*
X031209Y002926D01*
X031281Y002998D01*
X031320Y003092D01*
X031320Y003725D01*
X031281Y003819D01*
X031209Y003891D01*
X031115Y003930D01*
X031026Y003930D01*
X031026Y013434D01*
X031048Y013412D01*
X031200Y013349D01*
X034010Y013349D01*
X034010Y008641D01*
X034049Y008545D01*
X034123Y008471D01*
X034219Y008432D01*
X036510Y008432D01*
X036510Y003765D01*
X036412Y003885D01*
X036412Y003885D01*
X036412Y003885D01*
X035958Y004205D01*
X035435Y004391D01*
X034881Y004429D01*
X034338Y004316D01*
X033845Y004061D01*
X033439Y003682D01*
X033151Y003208D01*
X033151Y003208D01*
X033001Y002673D01*
X033001Y002118D01*
X033151Y001583D01*
X033439Y001109D01*
X033439Y001109D01*
X033439Y001109D01*
X033523Y001031D01*
X005629Y001031D01*
X001445Y005215D01*
X001445Y005215D01*
X001371Y005289D01*
X001275Y005328D01*
X001031Y005328D01*
X001031Y020257D01*
X001202Y020257D01*
X001169Y020237D01*
X001141Y020190D01*
X001118Y020166D01*
X001093Y020106D01*
X001064Y020056D01*
X001064Y020036D01*
X001058Y020022D01*
X001058Y019865D01*
X001064Y019850D01*
X001064Y019831D01*
X001093Y019781D01*
X001118Y019720D01*
X001141Y019697D01*
X001169Y019649D01*
X001216Y019622D01*
X001229Y019610D01*
X001261Y019596D01*
X001350Y019545D01*
X001031Y019545D01*
X001031Y019661D02*
X001162Y019661D01*
X001169Y019649D02*
X001169Y019649D01*
X001169Y019649D01*
X001094Y019778D02*
X001031Y019778D01*
X001031Y019895D02*
X001058Y019895D01*
X001058Y020011D02*
X001031Y020011D01*
X001031Y020128D02*
X001102Y020128D01*
X001169Y020237D02*
X001169Y020237D01*
X001169Y020237D01*
X001181Y020245D02*
X001031Y020245D01*
X001350Y019545D02*
X001772Y019545D01*
X001953Y019649D01*
X001953Y019649D01*
X001953Y019649D01*
X002058Y019831D01*
X002058Y020056D01*
X001953Y020237D01*
X001799Y020327D01*
X001842Y020370D01*
X002242Y020770D01*
X002281Y020866D01*
X002281Y023526D01*
X008606Y025424D01*
X008501Y025048D01*
X008501Y024493D01*
X008651Y023958D01*
X008939Y023484D01*
X008939Y023484D01*
X009177Y023262D01*
X008996Y023262D01*
X008902Y023223D01*
X008830Y023151D01*
X008791Y023057D01*
X008791Y022579D01*
X008830Y022485D01*
X008900Y022414D01*
X008900Y021570D01*
X008951Y021447D01*
X008988Y021411D01*
X008625Y021411D01*
X008656Y021379D02*
X008584Y021451D01*
X008490Y021490D01*
X008012Y021490D01*
X007975Y021475D01*
X007975Y021502D01*
X007927Y021618D01*
X007839Y021707D01*
X007723Y021755D01*
X006216Y021755D01*
X005545Y022425D01*
X005545Y022663D01*
X005506Y022757D01*
X005434Y022829D01*
X005340Y022868D01*
X004862Y022868D01*
X004768Y022829D01*
X004696Y022757D01*
X004657Y022663D01*
X004657Y022185D01*
X004696Y022091D01*
X004768Y022019D01*
X004862Y021980D01*
X005100Y021980D01*
X005325Y021755D01*
X004328Y021755D01*
X004328Y022373D01*
X004289Y022467D01*
X004235Y022521D01*
X004289Y022574D01*
X004328Y022668D01*
X004328Y023373D01*
X004289Y023467D01*
X004217Y023539D01*
X004123Y023578D01*
X003418Y023578D01*
X003324Y023539D01*
X003252Y023467D01*
X003213Y023373D01*
X003213Y022668D01*
X003252Y022574D01*
X003306Y022521D01*
X003252Y022467D01*
X003213Y022373D01*
X003213Y021668D01*
X003247Y021588D01*
X003211Y021502D01*
X003211Y019999D01*
X003259Y019883D01*
X003348Y019795D01*
X003464Y019747D01*
X005771Y019747D01*
X005771Y018101D01*
X005448Y018328D01*
X004925Y018514D01*
X004372Y018552D01*
X004372Y018552D01*
X003828Y018439D01*
X003335Y018184D01*
X003200Y018058D01*
X003117Y018202D01*
X003117Y018202D01*
X003117Y018202D01*
X002935Y018307D01*
X002573Y018307D01*
X002491Y018260D01*
X002447Y018241D01*
X002430Y018224D01*
X002391Y018202D01*
X002369Y018163D01*
X002339Y018133D01*
X002306Y018055D01*
X002286Y018021D01*
X002286Y018007D01*
X002280Y017992D01*
X002280Y017839D01*
X002286Y017825D01*
X002286Y017811D01*
X002306Y017777D01*
X002339Y017698D01*
X002369Y017668D01*
X002391Y017630D01*
X002391Y017630D01*
X002430Y017608D01*
X002447Y017590D01*
X002491Y017572D01*
X002573Y017525D01*
X002759Y017525D01*
X002641Y017331D01*
X002641Y017331D01*
X002491Y016796D01*
X002491Y016241D01*
X002641Y015706D01*
X002930Y015232D01*
X003335Y014853D01*
X003402Y014819D01*
X003372Y014819D01*
X003135Y014705D01*
X003135Y014705D01*
X002971Y014499D01*
X002912Y014243D01*
X002924Y014192D01*
X002873Y014204D01*
X002617Y014145D01*
X002617Y014145D01*
X002411Y013981D01*
X002297Y013744D01*
X002297Y009755D01*
X002384Y009545D01*
X002545Y009384D01*
X002755Y009297D01*
X004100Y009297D01*
X004030Y009228D01*
X004030Y009228D01*
X002408Y007605D01*
X002368Y007605D01*
X002349Y007652D01*
X002336Y007664D01*
X002349Y007677D01*
X002388Y007771D01*
X002388Y008345D01*
X002349Y008439D01*
X002336Y008452D01*
X002349Y008464D01*
X002388Y008558D01*
X002388Y009132D01*
X002349Y009227D01*
X002277Y009299D01*
X002183Y009337D01*
X001608Y009337D01*
X001514Y009299D01*
X001442Y009227D01*
X001403Y009132D01*
X001403Y008558D01*
X001442Y008464D01*
X001455Y008452D01*
X001442Y008439D01*
X001403Y008345D01*
X001403Y007771D01*
X001442Y007677D01*
X001455Y007664D01*
X001442Y007652D01*
X001403Y007558D01*
X001403Y006983D01*
X001442Y006889D01*
X001455Y006877D01*
X001442Y006864D01*
X001403Y006770D01*
X001403Y006196D01*
X001442Y006102D01*
X001455Y006089D01*
X001442Y006077D01*
X001403Y005983D01*
X001403Y005409D01*
X001442Y005315D01*
X001514Y005243D01*
X001608Y005204D01*
X002183Y005204D01*
X002277Y005243D01*
X002349Y005315D01*
X002368Y005361D01*
X003006Y005361D01*
X003129Y005412D01*
X003862Y006145D01*
X004748Y006145D01*
X004345Y005936D01*
X003939Y005557D01*
X003651Y005083D01*
X003651Y005083D01*
X003501Y004548D01*
X003501Y003993D01*
X003651Y003458D01*
X003939Y002984D01*
X003867Y003103D02*
X003557Y003103D01*
X003441Y003219D02*
X003796Y003219D01*
X003725Y003336D02*
X003324Y003336D01*
X003207Y003453D02*
X003654Y003453D01*
X003651Y003458D02*
X003651Y003458D01*
X003620Y003569D02*
X003091Y003569D01*
X002974Y003686D02*
X003587Y003686D01*
X003555Y003802D02*
X002858Y003802D01*
X002741Y003919D02*
X003522Y003919D01*
X003501Y004036D02*
X002624Y004036D01*
X002508Y004152D02*
X003501Y004152D01*
X003501Y004269D02*
X002391Y004269D01*
X002274Y004385D02*
X003501Y004385D01*
X003501Y004502D02*
X002158Y004502D01*
X002041Y004619D02*
X003521Y004619D01*
X003554Y004735D02*
X001925Y004735D01*
X001808Y004852D02*
X003586Y004852D01*
X003619Y004969D02*
X001691Y004969D01*
X001575Y005085D02*
X003652Y005085D01*
X003723Y005202D02*
X001458Y005202D01*
X001441Y005318D02*
X001300Y005318D01*
X001403Y005435D02*
X001031Y005435D01*
X001031Y005552D02*
X001403Y005552D01*
X001403Y005668D02*
X001031Y005668D01*
X001031Y005785D02*
X001403Y005785D01*
X001403Y005901D02*
X001031Y005901D01*
X001031Y006018D02*
X001418Y006018D01*
X001429Y006135D02*
X001031Y006135D01*
X001031Y006251D02*
X001403Y006251D01*
X001403Y006368D02*
X001031Y006368D01*
X001031Y006484D02*
X001403Y006484D01*
X001403Y006601D02*
X001031Y006601D01*
X001031Y006718D02*
X001403Y006718D01*
X001430Y006834D02*
X001031Y006834D01*
X001031Y006951D02*
X001417Y006951D01*
X001403Y007068D02*
X001031Y007068D01*
X001031Y007184D02*
X001403Y007184D01*
X001403Y007301D02*
X001031Y007301D01*
X001031Y007417D02*
X001403Y007417D01*
X001403Y007534D02*
X001031Y007534D01*
X001031Y007651D02*
X001442Y007651D01*
X001405Y007767D02*
X001031Y007767D01*
X001031Y007884D02*
X001403Y007884D01*
X001403Y008000D02*
X001031Y008000D01*
X001031Y008117D02*
X001403Y008117D01*
X001403Y008234D02*
X001031Y008234D01*
X001031Y008350D02*
X001406Y008350D01*
X001441Y008467D02*
X001031Y008467D01*
X001031Y008583D02*
X001403Y008583D01*
X001403Y008700D02*
X001031Y008700D01*
X001031Y008817D02*
X001403Y008817D01*
X001403Y008933D02*
X001031Y008933D01*
X001031Y009050D02*
X001403Y009050D01*
X001418Y009167D02*
X001031Y009167D01*
X001031Y009283D02*
X001499Y009283D01*
X001031Y009400D02*
X002529Y009400D01*
X002545Y009384D02*
X002545Y009384D01*
X002412Y009516D02*
X001031Y009516D01*
X001031Y009633D02*
X002348Y009633D01*
X002384Y009545D02*
X002384Y009545D01*
X002299Y009750D02*
X001031Y009750D01*
X001031Y009866D02*
X002297Y009866D01*
X002297Y009983D02*
X001031Y009983D01*
X001031Y010099D02*
X002297Y010099D01*
X002297Y010216D02*
X001031Y010216D01*
X001031Y010333D02*
X002297Y010333D01*
X002297Y010449D02*
X001031Y010449D01*
X001031Y010566D02*
X002297Y010566D01*
X002297Y010682D02*
X001031Y010682D01*
X001031Y010799D02*
X002297Y010799D01*
X002297Y010916D02*
X001031Y010916D01*
X001031Y011032D02*
X002297Y011032D01*
X002297Y011149D02*
X001031Y011149D01*
X001031Y011265D02*
X002297Y011265D01*
X002297Y011382D02*
X001031Y011382D01*
X001031Y011499D02*
X002297Y011499D01*
X002297Y011615D02*
X001031Y011615D01*
X001031Y011732D02*
X002297Y011732D01*
X002297Y011849D02*
X001031Y011849D01*
X001031Y011965D02*
X002297Y011965D01*
X002297Y012082D02*
X001031Y012082D01*
X001031Y012198D02*
X002297Y012198D01*
X002297Y012315D02*
X001031Y012315D01*
X001031Y012432D02*
X002297Y012432D01*
X002297Y012548D02*
X001031Y012548D01*
X001031Y012665D02*
X002297Y012665D01*
X002297Y012781D02*
X001031Y012781D01*
X001031Y012898D02*
X002297Y012898D01*
X002297Y013015D02*
X001031Y013015D01*
X001031Y013131D02*
X002297Y013131D01*
X002297Y013248D02*
X001031Y013248D01*
X001031Y013364D02*
X002297Y013364D01*
X002297Y013481D02*
X001031Y013481D01*
X001031Y013598D02*
X002297Y013598D01*
X002297Y013714D02*
X001031Y013714D01*
X001031Y013831D02*
X002339Y013831D01*
X002395Y013948D02*
X001031Y013948D01*
X001031Y014064D02*
X002515Y014064D01*
X002411Y013981D02*
X002411Y013981D01*
X002411Y013981D01*
X002773Y014181D02*
X001031Y014181D01*
X001031Y014297D02*
X002925Y014297D01*
X002912Y014243D02*
X002912Y014243D01*
X002873Y014204D02*
X002873Y014204D01*
X002951Y014414D02*
X001031Y014414D01*
X001031Y014531D02*
X002996Y014531D01*
X002971Y014499D02*
X002971Y014499D01*
X003089Y014647D02*
X001031Y014647D01*
X001031Y014764D02*
X003257Y014764D01*
X003335Y014853D02*
X003335Y014853D01*
X003306Y014880D02*
X001031Y014880D01*
X001031Y014997D02*
X003181Y014997D01*
X003056Y015114D02*
X001031Y015114D01*
X001031Y015230D02*
X002932Y015230D01*
X002930Y015232D02*
X002930Y015232D01*
X002930Y015232D01*
X002860Y015347D02*
X001031Y015347D01*
X001031Y015463D02*
X002789Y015463D01*
X002718Y015580D02*
X001031Y015580D01*
X001031Y015697D02*
X002647Y015697D01*
X002641Y015706D02*
X002641Y015706D01*
X002611Y015813D02*
X001031Y015813D01*
X001031Y015930D02*
X002578Y015930D01*
X002546Y016047D02*
X001031Y016047D01*
X001031Y016163D02*
X002513Y016163D01*
X002491Y016280D02*
X001031Y016280D01*
X001031Y016396D02*
X002491Y016396D01*
X002491Y016513D02*
X001031Y016513D01*
X001031Y016630D02*
X002491Y016630D01*
X002491Y016746D02*
X001031Y016746D01*
X001031Y016863D02*
X002510Y016863D01*
X002543Y016979D02*
X001031Y016979D01*
X001031Y017096D02*
X002575Y017096D01*
X002608Y017213D02*
X001031Y017213D01*
X001031Y017329D02*
X002641Y017329D01*
X002711Y017446D02*
X001853Y017446D01*
X001772Y017399D02*
X001953Y017504D01*
X002058Y017685D01*
X002058Y017910D01*
X001953Y018092D01*
X001772Y018196D01*
X001350Y018196D01*
X001261Y018145D01*
X001229Y018131D01*
X001216Y018119D01*
X001169Y018092D01*
X001169Y018092D01*
X001169Y018092D01*
X001141Y018044D01*
X001118Y018021D01*
X001093Y017960D01*
X001064Y017910D01*
X001064Y017891D01*
X001058Y017876D01*
X001058Y017719D01*
X001064Y017705D01*
X001064Y017685D01*
X001093Y017636D01*
X001118Y017575D01*
X001141Y017551D01*
X001169Y017504D01*
X001216Y017476D01*
X001229Y017464D01*
X001261Y017451D01*
X001350Y017399D01*
X001772Y017399D01*
X001953Y017504D02*
X001953Y017504D01*
X001953Y017504D01*
X001987Y017562D02*
X002508Y017562D01*
X002391Y017630D02*
X002391Y017630D01*
X002358Y017679D02*
X002055Y017679D01*
X002058Y017796D02*
X002295Y017796D01*
X002280Y017912D02*
X002057Y017912D01*
X001990Y018029D02*
X002291Y018029D01*
X002351Y018146D02*
X001860Y018146D01*
X001953Y018092D02*
X001953Y018092D01*
X001953Y018092D01*
X002391Y018202D02*
X002391Y018202D01*
X002391Y018202D01*
X002496Y018262D02*
X001031Y018262D01*
X001031Y018146D02*
X001262Y018146D01*
X001126Y018029D02*
X001031Y018029D01*
X001031Y017912D02*
X001065Y017912D01*
X001058Y017796D02*
X001031Y017796D01*
X001064Y017685D02*
X001064Y017685D01*
X001068Y017679D02*
X001031Y017679D01*
X001031Y017562D02*
X001130Y017562D01*
X001169Y017504D02*
X001169Y017504D01*
X001169Y017504D01*
X001269Y017446D02*
X001031Y017446D01*
X001031Y018379D02*
X003711Y018379D01*
X003828Y018439D02*
X003828Y018439D01*
X004098Y018495D02*
X001031Y018495D01*
X001031Y018612D02*
X005771Y018612D01*
X005771Y018729D02*
X001031Y018729D01*
X001031Y018845D02*
X005771Y018845D01*
X005771Y018962D02*
X001031Y018962D01*
X001031Y019078D02*
X005771Y019078D01*
X005771Y019195D02*
X001031Y019195D01*
X001031Y019312D02*
X005771Y019312D01*
X005771Y019428D02*
X001031Y019428D01*
X001772Y019545D02*
X002388Y019545D01*
X002391Y019539D02*
X002391Y019539D01*
X002391Y019539D01*
X002430Y019517D01*
X002447Y019500D01*
X002491Y019481D01*
X002573Y019435D01*
X002935Y019435D01*
X003117Y019539D01*
X003222Y019721D01*
X003222Y019930D01*
X003117Y020111D01*
X003117Y020111D01*
X003117Y020111D01*
X002935Y020216D01*
X002883Y020216D01*
X002573Y020216D01*
X002491Y020169D01*
X002447Y020151D01*
X002430Y020134D01*
X002391Y020111D01*
X002369Y020073D01*
X002339Y020043D01*
X002306Y019965D01*
X002286Y019930D01*
X002286Y019916D01*
X002280Y019902D01*
X002280Y019749D01*
X002286Y019734D01*
X002286Y019721D01*
X002306Y019686D01*
X002339Y019608D01*
X002369Y019578D01*
X002391Y019539D01*
X002317Y019661D02*
X001960Y019661D01*
X002028Y019778D02*
X002280Y019778D01*
X002280Y019895D02*
X002058Y019895D01*
X002058Y020011D02*
X002326Y020011D01*
X002391Y020111D02*
X002391Y020111D01*
X002391Y020111D01*
X002420Y020128D02*
X002017Y020128D01*
X001953Y020237D02*
X001953Y020237D01*
X001953Y020237D01*
X001941Y020245D02*
X003211Y020245D01*
X003211Y020361D02*
X001833Y020361D01*
X001842Y020370D02*
X001842Y020370D01*
X001950Y020478D02*
X003211Y020478D01*
X003211Y020594D02*
X002066Y020594D01*
X002183Y020711D02*
X003211Y020711D01*
X003211Y020828D02*
X002266Y020828D01*
X002281Y020944D02*
X003211Y020944D01*
X003211Y021061D02*
X002281Y021061D01*
X002281Y021177D02*
X003211Y021177D01*
X003211Y021294D02*
X002281Y021294D01*
X002281Y021411D02*
X003211Y021411D01*
X003222Y021527D02*
X002281Y021527D01*
X002281Y021644D02*
X003224Y021644D01*
X003213Y021760D02*
X002281Y021760D01*
X002281Y021877D02*
X003213Y021877D01*
X003213Y021994D02*
X002281Y021994D01*
X002281Y022110D02*
X003213Y022110D01*
X003213Y022227D02*
X002281Y022227D01*
X002281Y022343D02*
X003213Y022343D01*
X003250Y022460D02*
X002281Y022460D01*
X002281Y022577D02*
X003251Y022577D01*
X003213Y022693D02*
X002281Y022693D01*
X002281Y022810D02*
X003213Y022810D01*
X003213Y022927D02*
X002281Y022927D01*
X002281Y023043D02*
X003213Y023043D01*
X003213Y023160D02*
X002281Y023160D01*
X002281Y023276D02*
X003213Y023276D01*
X003222Y023393D02*
X002281Y023393D01*
X002281Y023510D02*
X003295Y023510D01*
X003391Y023859D02*
X008711Y023859D01*
X008651Y023958D02*
X008651Y023958D01*
X008646Y023976D02*
X003780Y023976D01*
X004169Y024093D02*
X008613Y024093D01*
X008581Y024209D02*
X004557Y024209D01*
X004946Y024326D02*
X008548Y024326D01*
X008515Y024442D02*
X005335Y024442D01*
X005723Y024559D02*
X008501Y024559D01*
X008501Y024676D02*
X006112Y024676D01*
X006501Y024792D02*
X008501Y024792D01*
X008501Y024909D02*
X006889Y024909D01*
X007278Y025026D02*
X008501Y025026D01*
X008527Y025142D02*
X007667Y025142D01*
X008056Y025259D02*
X008560Y025259D01*
X008593Y025375D02*
X008444Y025375D01*
X008782Y023743D02*
X003002Y023743D01*
X002614Y023626D02*
X008853Y023626D01*
X008924Y023510D02*
X004246Y023510D01*
X004319Y023393D02*
X009037Y023393D01*
X009162Y023276D02*
X004328Y023276D01*
X004328Y023160D02*
X008839Y023160D01*
X008791Y023043D02*
X004328Y023043D01*
X004328Y022927D02*
X008791Y022927D01*
X008791Y022810D02*
X005454Y022810D01*
X005533Y022693D02*
X008791Y022693D01*
X008792Y022577D02*
X005545Y022577D01*
X005545Y022460D02*
X008855Y022460D01*
X008900Y022343D02*
X005627Y022343D01*
X005744Y022227D02*
X008900Y022227D01*
X008900Y022110D02*
X005861Y022110D01*
X005977Y021994D02*
X008900Y021994D01*
X008900Y021877D02*
X006094Y021877D01*
X006210Y021760D02*
X008900Y021760D01*
X008900Y021644D02*
X007902Y021644D01*
X007965Y021527D02*
X008918Y021527D01*
X008988Y021411D02*
X008988Y021263D01*
X008695Y021263D01*
X008695Y021285D01*
X008656Y021379D01*
X008691Y021294D02*
X008988Y021294D01*
X009570Y021884D02*
X009570Y022414D01*
X009640Y022485D01*
X009679Y022579D01*
X009679Y022932D01*
X009838Y022850D01*
X010381Y022737D01*
X010935Y022775D01*
X010935Y022775D01*
X011458Y022961D01*
X011912Y023281D01*
X012262Y023711D01*
X012262Y023711D01*
X012483Y024221D01*
X012483Y024221D01*
X012478Y024209D02*
X014069Y024209D01*
X014046Y024232D02*
X014118Y024160D01*
X014140Y024151D01*
X014118Y024141D01*
X014046Y024069D01*
X014007Y023975D01*
X014007Y023400D01*
X013922Y023365D01*
X013806Y023249D01*
X013743Y023097D01*
X013743Y021884D01*
X013524Y021884D01*
X013430Y021845D01*
X013359Y021774D01*
X011017Y021774D01*
X010946Y021845D01*
X010852Y021884D01*
X010374Y021884D01*
X010280Y021845D01*
X010208Y021773D01*
X010169Y021679D01*
X010169Y021263D01*
X009876Y021263D01*
X009876Y021679D01*
X009837Y021773D01*
X009765Y021845D01*
X009671Y021884D01*
X009570Y021884D01*
X009570Y021994D02*
X013743Y021994D01*
X013743Y022110D02*
X009570Y022110D01*
X009570Y022227D02*
X013743Y022227D01*
X013743Y022343D02*
X009570Y022343D01*
X009616Y022460D02*
X013743Y022460D01*
X013743Y022577D02*
X009678Y022577D01*
X009679Y022693D02*
X013743Y022693D01*
X013743Y022810D02*
X011034Y022810D01*
X011362Y022927D02*
X013743Y022927D01*
X013743Y023043D02*
X011575Y023043D01*
X011458Y022961D02*
X011458Y022961D01*
X011740Y023160D02*
X013769Y023160D01*
X013833Y023276D02*
X011906Y023276D01*
X011912Y023281D02*
X011912Y023281D01*
X011912Y023281D01*
X012003Y023393D02*
X013990Y023393D01*
X014007Y023510D02*
X012098Y023510D01*
X012193Y023626D02*
X014007Y023626D01*
X014007Y023743D02*
X012276Y023743D01*
X012326Y023859D02*
X014007Y023859D01*
X014007Y023976D02*
X012377Y023976D01*
X012428Y024093D02*
X014069Y024093D01*
X014046Y024232D02*
X014007Y024326D01*
X014007Y024442D02*
X012514Y024442D01*
X012530Y024559D02*
X014007Y024559D01*
X014007Y024676D02*
X012546Y024676D01*
X012556Y024792D02*
X014007Y024792D01*
X014007Y024909D02*
X012540Y024909D01*
X012524Y025026D02*
X014034Y025026D01*
X014158Y025142D02*
X012508Y025142D01*
X012492Y025259D02*
X018886Y025259D01*
X018886Y025167D02*
X018925Y025073D01*
X018997Y025001D01*
X019091Y024962D01*
X019588Y024962D01*
X019682Y025001D01*
X019733Y025051D01*
X019784Y025001D01*
X019878Y024962D01*
X020376Y024962D01*
X020470Y025001D01*
X020521Y025051D01*
X020571Y025001D01*
X020665Y024962D01*
X021163Y024962D01*
X021257Y025001D01*
X021329Y025073D01*
X021360Y025148D01*
X021376Y025120D01*
X021406Y025090D01*
X021442Y025069D01*
X021483Y025059D01*
X021697Y025059D01*
X021697Y025411D01*
X021707Y025411D01*
X021707Y025420D01*
X022059Y025420D01*
X022059Y025634D01*
X022048Y025675D01*
X022027Y025711D01*
X021997Y025741D01*
X021961Y025762D01*
X021921Y025773D01*
X021707Y025773D01*
X021707Y025420D01*
X021697Y025420D01*
X021697Y025773D01*
X021483Y025773D01*
X021442Y025762D01*
X021406Y025741D01*
X021376Y025711D01*
X021360Y025683D01*
X021329Y025758D01*
X021257Y025830D01*
X021163Y025869D01*
X020665Y025869D01*
X020571Y025830D01*
X020521Y025780D01*
X020470Y025830D01*
X020376Y025869D01*
X019878Y025869D01*
X019784Y025830D01*
X019733Y025780D01*
X019682Y025830D01*
X019588Y025869D01*
X019091Y025869D01*
X018997Y025830D01*
X018925Y025758D01*
X018886Y025664D01*
X018886Y025167D01*
X018896Y025142D02*
X015883Y025142D01*
X016007Y025026D02*
X018972Y025026D01*
X018886Y025375D02*
X012460Y025375D01*
X012409Y025492D02*
X013867Y025492D01*
X013898Y025460D02*
X014090Y025381D01*
X014298Y025381D01*
X014489Y025460D01*
X014636Y025607D01*
X014715Y025799D01*
X014715Y026006D01*
X014636Y026198D01*
X014489Y026345D01*
X014298Y026424D01*
X014090Y026424D01*
X013898Y026345D01*
X013752Y026198D01*
X013672Y026006D01*
X013672Y025799D01*
X013752Y025607D01*
X013898Y025460D01*
X013751Y025609D02*
X012358Y025609D01*
X012308Y025725D02*
X013703Y025725D01*
X013672Y025842D02*
X012252Y025842D01*
X012262Y025830D02*
X012262Y025830D01*
X012157Y025958D02*
X013672Y025958D01*
X013701Y026075D02*
X012063Y026075D01*
X011968Y026192D02*
X013749Y026192D01*
X013862Y026308D02*
X011844Y026308D01*
X011943Y026425D02*
X028768Y026425D01*
X028651Y026541D02*
X012331Y026541D01*
X012720Y026658D02*
X028535Y026658D01*
X028418Y026775D02*
X021826Y026775D01*
X022154Y026891D02*
X028302Y026891D01*
X028185Y027008D02*
X022346Y027008D01*
X022208Y026911D02*
X022208Y026911D01*
X022511Y027125D02*
X028068Y027125D01*
X027952Y027241D02*
X022670Y027241D01*
X022662Y027231D02*
X022662Y027231D01*
X022662Y027231D01*
X022765Y027358D02*
X027835Y027358D01*
X027718Y027474D02*
X022860Y027474D01*
X022955Y027591D02*
X027602Y027591D01*
X027485Y027708D02*
X023032Y027708D01*
X023083Y027824D02*
X027369Y027824D01*
X027252Y027941D02*
X023134Y027941D01*
X023184Y028057D02*
X027135Y028057D01*
X027616Y028524D02*
X029212Y028524D01*
X029096Y028640D02*
X027578Y028640D01*
X027578Y028757D02*
X028979Y028757D01*
X028863Y028874D02*
X027578Y028874D01*
X027578Y028990D02*
X028746Y028990D01*
X028629Y029107D02*
X027523Y029107D01*
X028280Y029457D02*
X023152Y029457D01*
X023102Y029573D02*
X028163Y029573D01*
X028046Y029690D02*
X023051Y029690D01*
X023203Y029340D02*
X028396Y029340D01*
X028513Y029224D02*
X023240Y029224D01*
X023256Y029107D02*
X025518Y029107D01*
X025463Y028990D02*
X023272Y028990D01*
X023288Y028874D02*
X025463Y028874D01*
X025463Y028757D02*
X023304Y028757D01*
X023298Y028640D02*
X025463Y028640D01*
X025463Y028524D02*
X023282Y028524D01*
X023266Y028407D02*
X025463Y028407D01*
X025465Y028291D02*
X023250Y028291D01*
X023234Y028174D02*
X025528Y028174D01*
X026513Y028174D02*
X026528Y028174D01*
X027732Y028407D02*
X029329Y028407D01*
X029446Y028291D02*
X027849Y028291D01*
X027965Y028174D02*
X029562Y028174D01*
X029679Y028057D02*
X028082Y028057D01*
X028199Y027941D02*
X029795Y027941D01*
X029912Y027824D02*
X028315Y027824D01*
X028432Y027708D02*
X030029Y027708D01*
X030145Y027591D02*
X028548Y027591D01*
X028665Y027474D02*
X030262Y027474D01*
X030379Y027358D02*
X028782Y027358D01*
X028898Y027241D02*
X030495Y027241D01*
X030612Y027125D02*
X029015Y027125D01*
X029131Y027008D02*
X030728Y027008D01*
X030845Y026891D02*
X029248Y026891D01*
X029365Y026775D02*
X030869Y026775D01*
X030869Y026658D02*
X029481Y026658D01*
X029598Y026541D02*
X030869Y026541D01*
X030869Y026425D02*
X029715Y026425D01*
X029831Y026308D02*
X030869Y026308D01*
X030869Y026192D02*
X029948Y026192D01*
X030064Y026075D02*
X030869Y026075D01*
X030869Y025958D02*
X030181Y025958D01*
X030298Y025842D02*
X030869Y025842D01*
X030869Y025725D02*
X030397Y025725D01*
X030436Y025609D02*
X030869Y025609D01*
X030869Y025492D02*
X030436Y025492D01*
X030436Y025375D02*
X030869Y025375D01*
X030869Y025259D02*
X030436Y025259D01*
X030436Y025142D02*
X030869Y025142D01*
X030869Y025026D02*
X030436Y025026D01*
X030436Y024909D02*
X030869Y024909D01*
X030869Y024792D02*
X030436Y024792D01*
X030436Y024676D02*
X030869Y024676D01*
X030869Y024559D02*
X030436Y024559D01*
X030436Y024442D02*
X030869Y024442D01*
X030869Y024326D02*
X030436Y024326D01*
X030436Y024209D02*
X030869Y024209D01*
X030869Y024093D02*
X030436Y024093D01*
X030436Y023976D02*
X030869Y023976D01*
X030869Y023859D02*
X030436Y023859D01*
X030436Y023743D02*
X030869Y023743D01*
X030869Y023626D02*
X030436Y023626D01*
X030436Y023510D02*
X030869Y023510D01*
X030869Y023393D02*
X030436Y023393D01*
X030436Y023276D02*
X030869Y023276D01*
X030869Y023160D02*
X030436Y023160D01*
X030436Y023043D02*
X030869Y023043D01*
X030869Y022927D02*
X030436Y022927D01*
X030436Y022810D02*
X030869Y022810D01*
X030869Y022693D02*
X030436Y022693D01*
X030436Y022577D02*
X030869Y022577D01*
X030869Y022460D02*
X030436Y022460D01*
X030436Y022343D02*
X030869Y022343D01*
X030869Y022227D02*
X030436Y022227D01*
X030436Y022110D02*
X030869Y022110D01*
X030869Y021994D02*
X030436Y021994D01*
X030436Y021877D02*
X030869Y021877D01*
X030869Y021760D02*
X030436Y021760D01*
X030436Y021644D02*
X030869Y021644D01*
X030869Y021527D02*
X030436Y021527D01*
X030436Y021411D02*
X030869Y021411D01*
X030869Y021294D02*
X030436Y021294D01*
X030436Y021177D02*
X030869Y021177D01*
X030869Y021061D02*
X030436Y021061D01*
X030436Y020944D02*
X030869Y020944D01*
X030869Y020828D02*
X030436Y020828D01*
X030436Y020711D02*
X030869Y020711D01*
X030869Y020594D02*
X030436Y020594D01*
X030436Y020478D02*
X030869Y020478D01*
X030869Y020361D02*
X030436Y020361D01*
X030436Y020245D02*
X030869Y020245D01*
X030869Y020128D02*
X030436Y020128D01*
X030436Y020011D02*
X030869Y020011D01*
X030869Y019895D02*
X030436Y019895D01*
X030436Y019778D02*
X030869Y019778D01*
X030869Y019661D02*
X030436Y019661D01*
X030436Y019545D02*
X030869Y019545D01*
X030869Y019428D02*
X030436Y019428D01*
X030436Y019312D02*
X030869Y019312D01*
X030869Y019195D02*
X030436Y019195D01*
X030436Y019078D02*
X030869Y019078D01*
X030869Y018962D02*
X030436Y018962D01*
X030436Y018845D02*
X030869Y018845D01*
X030869Y018729D02*
X030436Y018729D01*
X030436Y018612D02*
X030869Y018612D01*
X030869Y018495D02*
X030436Y018495D01*
X030436Y018379D02*
X030869Y018379D01*
X030869Y018262D02*
X030436Y018262D01*
X030436Y018146D02*
X030869Y018146D01*
X030869Y018029D02*
X030436Y018029D01*
X030436Y017912D02*
X030869Y017912D01*
X030869Y017796D02*
X030436Y017796D01*
X030436Y017679D02*
X030869Y017679D01*
X030869Y017562D02*
X030436Y017562D01*
X030436Y017446D02*
X030869Y017446D01*
X030869Y017329D02*
X030436Y017329D01*
X030436Y017213D02*
X030869Y017213D01*
X030869Y017096D02*
X030436Y017096D01*
X030436Y016979D02*
X030869Y016979D01*
X030869Y016863D02*
X030436Y016863D01*
X030436Y016746D02*
X030869Y016746D01*
X030869Y016630D02*
X030436Y016630D01*
X030436Y016513D02*
X030869Y016513D01*
X030869Y016396D02*
X030436Y016396D01*
X030436Y016280D02*
X030869Y016280D01*
X030869Y016163D02*
X030436Y016163D01*
X030436Y016047D02*
X030869Y016047D01*
X030869Y015930D02*
X030436Y015930D01*
X030436Y015813D02*
X030869Y015813D01*
X030869Y015697D02*
X030436Y015697D01*
X030436Y015580D02*
X030869Y015580D01*
X030869Y015463D02*
X030436Y015463D01*
X030436Y015347D02*
X030869Y015347D01*
X030869Y015230D02*
X030436Y015230D01*
X030436Y015114D02*
X030869Y015114D01*
X030869Y014997D02*
X030436Y014997D01*
X030436Y014880D02*
X030869Y014880D01*
X029767Y014880D02*
X029758Y014880D01*
X029758Y014764D02*
X029767Y014764D01*
X029758Y014705D02*
X029758Y015183D01*
X029719Y015277D01*
X029647Y015349D01*
X029553Y015388D01*
X029075Y015388D01*
X029058Y015381D01*
X029058Y022021D01*
X029128Y022091D01*
X029167Y022185D01*
X029167Y022663D01*
X029128Y022757D01*
X029056Y022829D01*
X028962Y022868D01*
X028484Y022868D01*
X028390Y022829D01*
X028318Y022757D01*
X028279Y022663D01*
X028279Y022185D01*
X028318Y022091D01*
X028389Y022021D01*
X028389Y017349D01*
X028372Y017356D01*
X027894Y017356D01*
X027800Y017317D01*
X027728Y017245D01*
X027689Y017151D01*
X027689Y016673D01*
X027728Y016579D01*
X027798Y016509D01*
X027798Y010820D01*
X027728Y010749D01*
X027689Y010655D01*
X027689Y010177D01*
X027728Y010083D01*
X027800Y010011D01*
X027894Y009972D01*
X028279Y009972D01*
X028279Y009587D01*
X028318Y009493D01*
X028390Y009421D01*
X028484Y009382D01*
X028962Y009382D01*
X029056Y009421D01*
X029128Y009493D01*
X029167Y009587D01*
X029167Y009972D01*
X029553Y009972D01*
X029647Y010011D01*
X029719Y010083D01*
X029758Y010177D01*
X029758Y010655D01*
X029719Y010749D01*
X029649Y010820D01*
X029649Y014540D01*
X029719Y014611D01*
X029758Y014705D01*
X029767Y014647D02*
X029734Y014647D01*
X029767Y014531D02*
X029649Y014531D01*
X029649Y014414D02*
X029767Y014414D01*
X029767Y014297D02*
X029649Y014297D01*
X029649Y014181D02*
X029767Y014181D01*
X029767Y014064D02*
X029649Y014064D01*
X029649Y013948D02*
X029767Y013948D01*
X029767Y013831D02*
X029649Y013831D01*
X029649Y013714D02*
X029767Y013714D01*
X029767Y013598D02*
X029649Y013598D01*
X029649Y013481D02*
X029767Y013481D01*
X029767Y013364D02*
X029649Y013364D01*
X029649Y013248D02*
X029767Y013248D01*
X029767Y013131D02*
X029649Y013131D01*
X029649Y013015D02*
X029767Y013015D01*
X029767Y012898D02*
X029649Y012898D01*
X029649Y012781D02*
X029767Y012781D01*
X029767Y012665D02*
X029649Y012665D01*
X029649Y012548D02*
X029767Y012548D01*
X029767Y012432D02*
X029649Y012432D01*
X029649Y012315D02*
X029767Y012315D01*
X029767Y012198D02*
X029649Y012198D01*
X029649Y012082D02*
X029677Y012082D01*
X029657Y011965D02*
X029649Y011965D01*
X029649Y011849D02*
X029657Y011849D01*
X029649Y011732D02*
X029657Y011732D01*
X029649Y011615D02*
X029657Y011615D01*
X029649Y011499D02*
X029681Y011499D01*
X029649Y011382D02*
X029785Y011382D01*
X029649Y011265D02*
X030357Y011265D01*
X030357Y011149D02*
X029649Y011149D01*
X029649Y011032D02*
X030357Y011032D01*
X030357Y010916D02*
X029649Y010916D01*
X029669Y010799D02*
X030357Y010799D01*
X030357Y010682D02*
X029747Y010682D01*
X029758Y010566D02*
X030357Y010566D01*
X030357Y010449D02*
X029758Y010449D01*
X029758Y010333D02*
X030357Y010333D01*
X030357Y010216D02*
X029758Y010216D01*
X029726Y010099D02*
X030357Y010099D01*
X030357Y009983D02*
X029578Y009983D01*
X029167Y009866D02*
X030357Y009866D01*
X030357Y009750D02*
X029167Y009750D01*
X029167Y009633D02*
X030357Y009633D01*
X030357Y009516D02*
X029138Y009516D01*
X029006Y009400D02*
X030357Y009400D01*
X030357Y009283D02*
X025015Y009283D01*
X025131Y009167D02*
X030357Y009167D01*
X030357Y009050D02*
X025248Y009050D01*
X025365Y008933D02*
X030357Y008933D01*
X030357Y008817D02*
X025481Y008817D01*
X025598Y008700D02*
X030357Y008700D01*
X030357Y008583D02*
X025714Y008583D01*
X025831Y008467D02*
X027228Y008467D01*
X027209Y008459D02*
X027139Y008389D01*
X025909Y008389D01*
X023152Y011145D01*
X023152Y013042D01*
X023101Y013165D01*
X023065Y013201D01*
X023065Y013411D01*
X023026Y013505D01*
X022954Y013577D01*
X022860Y013616D01*
X022382Y013616D01*
X022288Y013577D01*
X022216Y013505D01*
X022177Y013411D01*
X022177Y012933D01*
X022216Y012839D01*
X022288Y012767D01*
X022382Y012728D01*
X022483Y012728D01*
X022483Y011729D01*
X022461Y011751D01*
X022081Y012132D01*
X022081Y012230D01*
X022042Y012324D01*
X021971Y012395D01*
X021971Y015328D01*
X022042Y015398D01*
X022081Y015492D01*
X022081Y015970D01*
X022042Y016064D01*
X021971Y016135D01*
X021971Y020325D01*
X021920Y020448D01*
X021826Y020542D01*
X019783Y022585D01*
X019783Y022795D01*
X019745Y022889D01*
X019673Y022961D01*
X019578Y023000D01*
X019100Y023000D01*
X019006Y022961D01*
X018934Y022889D01*
X018895Y022795D01*
X018895Y022317D01*
X018934Y022223D01*
X019006Y022151D01*
X019100Y022112D01*
X019310Y022112D01*
X021302Y020120D01*
X021302Y018924D01*
X021285Y018931D01*
X020807Y018931D01*
X020713Y018892D01*
X020641Y018820D01*
X020602Y018726D01*
X020602Y018248D01*
X020641Y018154D01*
X020711Y018084D01*
X020711Y016365D01*
X020695Y016372D01*
X020217Y016372D01*
X020123Y016333D01*
X020051Y016261D01*
X020012Y016167D01*
X020012Y015689D01*
X020051Y015595D01*
X020121Y015525D01*
X020121Y013576D01*
X020051Y013505D01*
X020012Y013411D01*
X020012Y012933D01*
X020051Y012839D01*
X020123Y012767D01*
X020217Y012728D01*
X020695Y012728D01*
X020711Y012735D01*
X020711Y008184D01*
X020762Y008061D01*
X020857Y007967D01*
X021586Y007237D01*
X021586Y007028D01*
X021593Y007011D01*
X021570Y007011D01*
X021447Y006960D01*
X021353Y006866D01*
X021302Y006743D01*
X021302Y002279D01*
X021353Y002156D01*
X021447Y002062D01*
X021570Y002011D01*
X023475Y002011D01*
X023598Y002062D01*
X023692Y002156D01*
X023743Y002279D01*
X023743Y004971D01*
X023692Y005094D01*
X023598Y005188D01*
X023475Y005239D01*
X023152Y005239D01*
X023152Y005357D01*
X023475Y005357D01*
X023598Y005408D01*
X023692Y005502D01*
X023743Y005625D01*
X023743Y006743D01*
X023692Y006866D01*
X023598Y006960D01*
X023475Y007011D01*
X023428Y007011D01*
X023428Y007152D01*
X023365Y007304D01*
X023249Y007420D01*
X022641Y008028D01*
X022641Y010711D01*
X025581Y007770D01*
X025704Y007719D01*
X027139Y007719D01*
X027209Y007649D01*
X027303Y007610D01*
X027781Y007610D01*
X027875Y007649D01*
X027947Y007721D01*
X027986Y007815D01*
X027986Y008293D01*
X027947Y008387D01*
X027875Y008459D01*
X027781Y008498D01*
X027303Y008498D01*
X027209Y008459D01*
X027857Y008467D02*
X030357Y008467D01*
X030357Y008350D02*
X027963Y008350D01*
X027986Y008234D02*
X030357Y008234D01*
X030357Y008117D02*
X027986Y008117D01*
X027986Y008000D02*
X030357Y008000D01*
X030357Y007884D02*
X027986Y007884D01*
X027966Y007767D02*
X030357Y007767D01*
X030357Y007651D02*
X027877Y007651D01*
X027208Y007651D02*
X023018Y007651D01*
X022902Y007767D02*
X025589Y007767D01*
X025468Y007884D02*
X022785Y007884D01*
X022669Y008000D02*
X025351Y008000D01*
X025234Y008117D02*
X022641Y008117D01*
X022641Y008234D02*
X025118Y008234D01*
X025001Y008350D02*
X022641Y008350D01*
X022641Y008467D02*
X024884Y008467D01*
X024768Y008583D02*
X022641Y008583D01*
X022641Y008700D02*
X024651Y008700D01*
X024535Y008817D02*
X022641Y008817D01*
X022641Y008933D02*
X024418Y008933D01*
X024301Y009050D02*
X022641Y009050D01*
X022641Y009167D02*
X024185Y009167D01*
X024068Y009283D02*
X022641Y009283D01*
X022641Y009400D02*
X023952Y009400D01*
X023835Y009516D02*
X022641Y009516D01*
X022641Y009633D02*
X023718Y009633D01*
X023602Y009750D02*
X022641Y009750D01*
X022641Y009866D02*
X023485Y009866D01*
X023369Y009983D02*
X022641Y009983D01*
X022641Y010099D02*
X023252Y010099D01*
X023135Y010216D02*
X022641Y010216D01*
X022641Y010333D02*
X023019Y010333D01*
X022902Y010449D02*
X022641Y010449D01*
X022641Y010566D02*
X022785Y010566D01*
X022669Y010682D02*
X022641Y010682D01*
X023152Y011149D02*
X027798Y011149D01*
X027798Y011265D02*
X023152Y011265D01*
X023152Y011382D02*
X027798Y011382D01*
X027798Y011499D02*
X023152Y011499D01*
X023152Y011615D02*
X027798Y011615D01*
X027798Y011732D02*
X023152Y011732D01*
X023152Y011849D02*
X027798Y011849D01*
X027798Y011965D02*
X023152Y011965D01*
X023152Y012082D02*
X027798Y012082D01*
X027798Y012198D02*
X023152Y012198D01*
X023152Y012315D02*
X027798Y012315D01*
X027798Y012432D02*
X023152Y012432D01*
X023152Y012548D02*
X027798Y012548D01*
X027798Y012665D02*
X023152Y012665D01*
X023152Y012781D02*
X027798Y012781D01*
X027798Y012898D02*
X023152Y012898D01*
X023152Y013015D02*
X027798Y013015D01*
X027798Y013131D02*
X023115Y013131D01*
X023065Y013248D02*
X027798Y013248D01*
X027798Y013364D02*
X023065Y013364D01*
X023036Y013481D02*
X027798Y013481D01*
X027798Y013598D02*
X022904Y013598D01*
X022337Y013598D02*
X021971Y013598D01*
X021971Y013714D02*
X027798Y013714D01*
X027798Y013831D02*
X021971Y013831D01*
X021971Y013948D02*
X027798Y013948D01*
X027798Y014064D02*
X021971Y014064D01*
X021971Y014181D02*
X027798Y014181D01*
X027798Y014297D02*
X021971Y014297D01*
X021971Y014414D02*
X027798Y014414D01*
X027798Y014531D02*
X021971Y014531D01*
X021971Y014647D02*
X027798Y014647D01*
X027798Y014764D02*
X021971Y014764D01*
X021971Y014880D02*
X027798Y014880D01*
X027798Y014997D02*
X021971Y014997D01*
X021971Y015114D02*
X027798Y015114D01*
X027798Y015230D02*
X021971Y015230D01*
X021990Y015347D02*
X027798Y015347D01*
X027798Y015463D02*
X022069Y015463D01*
X022081Y015580D02*
X027798Y015580D01*
X027798Y015697D02*
X022081Y015697D01*
X022081Y015813D02*
X027798Y015813D01*
X027798Y015930D02*
X022081Y015930D01*
X022049Y016047D02*
X027798Y016047D01*
X027798Y016163D02*
X021971Y016163D01*
X021971Y016280D02*
X027798Y016280D01*
X027798Y016396D02*
X021971Y016396D01*
X021971Y016513D02*
X024644Y016513D01*
X024650Y016507D02*
X024744Y016468D01*
X025222Y016468D01*
X025316Y016507D01*
X025387Y016578D01*
X025761Y016578D01*
X025831Y016507D01*
X025925Y016468D01*
X026403Y016468D01*
X026497Y016507D01*
X026569Y016579D01*
X026608Y016673D01*
X026608Y017151D01*
X026569Y017245D01*
X026497Y017317D01*
X026403Y017356D01*
X025925Y017356D01*
X025831Y017317D01*
X025761Y017247D01*
X025387Y017247D01*
X025316Y017317D01*
X025222Y017356D01*
X024744Y017356D01*
X024650Y017317D01*
X024578Y017245D01*
X024539Y017151D01*
X024539Y016673D01*
X024578Y016579D01*
X024650Y016507D01*
X024557Y016630D02*
X021971Y016630D01*
X021971Y016746D02*
X024539Y016746D01*
X024539Y016863D02*
X021971Y016863D01*
X021971Y016979D02*
X024539Y016979D01*
X024539Y017096D02*
X021971Y017096D01*
X021971Y017213D02*
X024565Y017213D01*
X024679Y017329D02*
X021971Y017329D01*
X021971Y017446D02*
X028389Y017446D01*
X028389Y017562D02*
X021971Y017562D01*
X021971Y017679D02*
X028389Y017679D01*
X028389Y017796D02*
X021971Y017796D01*
X021971Y017912D02*
X028389Y017912D01*
X028389Y018029D02*
X021971Y018029D01*
X021971Y018146D02*
X028389Y018146D01*
X028389Y018262D02*
X021971Y018262D01*
X021971Y018379D02*
X028389Y018379D01*
X028389Y018495D02*
X021971Y018495D01*
X021971Y018612D02*
X028389Y018612D01*
X028389Y018729D02*
X021971Y018729D01*
X021971Y018845D02*
X028389Y018845D01*
X028389Y018962D02*
X021971Y018962D01*
X021971Y019078D02*
X028389Y019078D01*
X028389Y019195D02*
X021971Y019195D01*
X021971Y019312D02*
X028389Y019312D01*
X028389Y019428D02*
X021971Y019428D01*
X021971Y019545D02*
X028389Y019545D01*
X028389Y019661D02*
X021971Y019661D01*
X021971Y019778D02*
X028389Y019778D01*
X028389Y019895D02*
X025948Y019895D01*
X025979Y019926D02*
X026018Y020020D01*
X026018Y020498D01*
X025987Y020572D01*
X025987Y025064D01*
X026018Y025138D01*
X026018Y025616D01*
X025979Y025710D01*
X025907Y025782D01*
X025813Y025821D01*
X025335Y025821D01*
X025241Y025782D01*
X025169Y025710D01*
X025130Y025616D01*
X025130Y025138D01*
X025160Y025064D01*
X025160Y020572D01*
X025130Y020498D01*
X025130Y020020D01*
X025169Y019926D01*
X025241Y019854D01*
X025335Y019815D01*
X025813Y019815D01*
X025907Y019854D01*
X025979Y019926D01*
X026014Y020011D02*
X028389Y020011D01*
X028389Y020128D02*
X026018Y020128D01*
X026018Y020245D02*
X028389Y020245D01*
X028389Y020361D02*
X026018Y020361D01*
X026018Y020478D02*
X028389Y020478D01*
X028389Y020594D02*
X025987Y020594D01*
X025987Y020711D02*
X028389Y020711D01*
X028389Y020828D02*
X025987Y020828D01*
X025987Y020944D02*
X028389Y020944D01*
X028389Y021061D02*
X025987Y021061D01*
X025987Y021177D02*
X028389Y021177D01*
X028389Y021294D02*
X025987Y021294D01*
X025987Y021411D02*
X028389Y021411D01*
X028389Y021527D02*
X025987Y021527D01*
X025987Y021644D02*
X028389Y021644D01*
X028389Y021760D02*
X025987Y021760D01*
X025987Y021877D02*
X028389Y021877D01*
X028389Y021994D02*
X025987Y021994D01*
X025987Y022110D02*
X028310Y022110D01*
X028279Y022227D02*
X025987Y022227D01*
X025987Y022343D02*
X028279Y022343D01*
X028279Y022460D02*
X025987Y022460D01*
X025987Y022577D02*
X028279Y022577D01*
X028292Y022693D02*
X025987Y022693D01*
X025987Y022810D02*
X028371Y022810D01*
X029076Y022810D02*
X029767Y022810D01*
X029767Y022927D02*
X025987Y022927D01*
X025987Y023043D02*
X029767Y023043D01*
X029767Y023160D02*
X025987Y023160D01*
X025987Y023276D02*
X029767Y023276D01*
X029767Y023393D02*
X025987Y023393D01*
X025987Y023510D02*
X029767Y023510D01*
X029767Y023626D02*
X025987Y023626D01*
X025987Y023743D02*
X029767Y023743D01*
X029767Y023859D02*
X025987Y023859D01*
X025987Y023976D02*
X029767Y023976D01*
X029767Y024093D02*
X025987Y024093D01*
X025987Y024209D02*
X029767Y024209D01*
X029767Y024326D02*
X025987Y024326D01*
X025987Y024442D02*
X029767Y024442D01*
X029767Y024559D02*
X025987Y024559D01*
X025987Y024676D02*
X029767Y024676D01*
X029767Y024792D02*
X025987Y024792D01*
X025987Y024909D02*
X029767Y024909D01*
X029767Y025026D02*
X025987Y025026D01*
X026018Y025142D02*
X029767Y025142D01*
X029767Y025259D02*
X026018Y025259D01*
X026018Y025375D02*
X029767Y025375D01*
X029701Y025492D02*
X026018Y025492D01*
X026018Y025609D02*
X029584Y025609D01*
X029468Y025725D02*
X025963Y025725D01*
X025184Y025725D02*
X022013Y025725D01*
X022059Y025609D02*
X025130Y025609D01*
X025130Y025492D02*
X022059Y025492D01*
X022059Y025411D02*
X021707Y025411D01*
X021707Y025059D01*
X021921Y025059D01*
X021961Y025069D01*
X021997Y025090D01*
X022027Y025120D01*
X022048Y025156D01*
X022059Y025197D01*
X022059Y025411D01*
X022059Y025375D02*
X025130Y025375D01*
X025130Y025259D02*
X022059Y025259D01*
X022040Y025142D02*
X025130Y025142D01*
X025160Y025026D02*
X021282Y025026D01*
X021358Y025142D02*
X021364Y025142D01*
X021697Y025142D02*
X021707Y025142D01*
X021697Y025259D02*
X021707Y025259D01*
X021697Y025375D02*
X021707Y025375D01*
X021697Y025492D02*
X021707Y025492D01*
X021697Y025609D02*
X021707Y025609D01*
X021697Y025725D02*
X021707Y025725D01*
X021390Y025725D02*
X021343Y025725D01*
X021230Y025842D02*
X029351Y025842D01*
X029234Y025958D02*
X014715Y025958D01*
X014715Y025842D02*
X019024Y025842D01*
X018911Y025725D02*
X014685Y025725D01*
X014637Y025609D02*
X018886Y025609D01*
X018886Y025492D02*
X014521Y025492D01*
X014899Y025142D02*
X015142Y025142D01*
X016034Y024909D02*
X025160Y024909D01*
X025160Y024792D02*
X016034Y024792D01*
X016034Y024676D02*
X025160Y024676D01*
X025160Y024559D02*
X016034Y024559D01*
X015973Y024209D02*
X025160Y024209D01*
X025160Y024093D02*
X015972Y024093D01*
X016376Y023976D02*
X025160Y023976D01*
X025160Y023859D02*
X016541Y023859D01*
X016657Y023743D02*
X025160Y023743D01*
X025160Y023626D02*
X016774Y023626D01*
X016891Y023510D02*
X025160Y023510D01*
X025160Y023393D02*
X017002Y023393D01*
X017050Y023276D02*
X025160Y023276D01*
X025160Y023160D02*
X017050Y023160D01*
X017050Y023043D02*
X025160Y023043D01*
X025160Y022927D02*
X019707Y022927D01*
X019777Y022810D02*
X025160Y022810D01*
X025160Y022693D02*
X019783Y022693D01*
X019792Y022577D02*
X025160Y022577D01*
X025160Y022460D02*
X019909Y022460D01*
X020025Y022343D02*
X025160Y022343D01*
X025160Y022227D02*
X020142Y022227D01*
X020258Y022110D02*
X025160Y022110D01*
X025160Y021994D02*
X020375Y021994D01*
X020492Y021877D02*
X025160Y021877D01*
X025160Y021760D02*
X020608Y021760D01*
X020725Y021644D02*
X025160Y021644D01*
X025160Y021527D02*
X020841Y021527D01*
X020958Y021411D02*
X025160Y021411D01*
X025160Y021294D02*
X021075Y021294D01*
X021191Y021177D02*
X025160Y021177D01*
X025160Y021061D02*
X021308Y021061D01*
X021425Y020944D02*
X025160Y020944D01*
X025160Y020828D02*
X021541Y020828D01*
X021658Y020711D02*
X025160Y020711D01*
X025160Y020594D02*
X021774Y020594D01*
X021891Y020478D02*
X025130Y020478D01*
X025130Y020361D02*
X021957Y020361D01*
X021971Y020245D02*
X025130Y020245D01*
X025130Y020128D02*
X021971Y020128D01*
X021971Y020011D02*
X025133Y020011D01*
X025200Y019895D02*
X021971Y019895D01*
X021302Y019895D02*
X019760Y019895D01*
X019804Y019876D02*
X019710Y019915D01*
X019232Y019915D01*
X019138Y019876D01*
X019066Y019804D01*
X019027Y019710D01*
X019027Y019232D01*
X019066Y019138D01*
X019137Y019068D01*
X019137Y009639D01*
X019066Y009568D01*
X019027Y009474D01*
X019027Y008996D01*
X019066Y008902D01*
X019138Y008830D01*
X019232Y008791D01*
X019710Y008791D01*
X019804Y008830D01*
X019876Y008902D01*
X019915Y008996D01*
X019915Y009474D01*
X019876Y009568D01*
X019806Y009639D01*
X019806Y019068D01*
X019876Y019138D01*
X019915Y019232D01*
X019915Y019710D01*
X019876Y019804D01*
X019804Y019876D01*
X019887Y019778D02*
X021302Y019778D01*
X021302Y019661D02*
X019915Y019661D01*
X019915Y019545D02*
X021302Y019545D01*
X021302Y019428D02*
X019915Y019428D01*
X019915Y019312D02*
X021302Y019312D01*
X021302Y019195D02*
X019900Y019195D01*
X019817Y019078D02*
X021302Y019078D01*
X021302Y018962D02*
X019806Y018962D01*
X019806Y018845D02*
X020666Y018845D01*
X020603Y018729D02*
X019806Y018729D01*
X019806Y018612D02*
X020602Y018612D01*
X020602Y018495D02*
X019806Y018495D01*
X019806Y018379D02*
X020602Y018379D01*
X020602Y018262D02*
X019806Y018262D01*
X019806Y018146D02*
X020650Y018146D01*
X020711Y018029D02*
X019806Y018029D01*
X019806Y017912D02*
X020711Y017912D01*
X020711Y017796D02*
X019806Y017796D01*
X019806Y017679D02*
X020711Y017679D01*
X020711Y017562D02*
X019806Y017562D01*
X019806Y017446D02*
X020711Y017446D01*
X020711Y017329D02*
X019806Y017329D01*
X019806Y017213D02*
X020711Y017213D01*
X020711Y017096D02*
X019806Y017096D01*
X019806Y016979D02*
X020711Y016979D01*
X020711Y016863D02*
X019806Y016863D01*
X019806Y016746D02*
X020711Y016746D01*
X020711Y016630D02*
X019806Y016630D01*
X019806Y016513D02*
X020711Y016513D01*
X020711Y016396D02*
X019806Y016396D01*
X019806Y016280D02*
X020069Y016280D01*
X020012Y016163D02*
X019806Y016163D01*
X019806Y016047D02*
X020012Y016047D01*
X020012Y015930D02*
X019806Y015930D01*
X019806Y015813D02*
X020012Y015813D01*
X020012Y015697D02*
X019806Y015697D01*
X019806Y015580D02*
X020065Y015580D01*
X020121Y015463D02*
X019806Y015463D01*
X019806Y015347D02*
X020121Y015347D01*
X020121Y015230D02*
X019806Y015230D01*
X019806Y015114D02*
X020121Y015114D01*
X020121Y014997D02*
X019806Y014997D01*
X019806Y014880D02*
X020121Y014880D01*
X020121Y014764D02*
X019806Y014764D01*
X019806Y014647D02*
X020121Y014647D01*
X020121Y014531D02*
X019806Y014531D01*
X019806Y014414D02*
X020121Y014414D01*
X020121Y014297D02*
X019806Y014297D01*
X019806Y014181D02*
X020121Y014181D01*
X020121Y014064D02*
X019806Y014064D01*
X019806Y013948D02*
X020121Y013948D01*
X020121Y013831D02*
X019806Y013831D01*
X019806Y013714D02*
X020121Y013714D01*
X020121Y013598D02*
X019806Y013598D01*
X019806Y013481D02*
X020041Y013481D01*
X020012Y013364D02*
X019806Y013364D01*
X019806Y013248D02*
X020012Y013248D01*
X020012Y013131D02*
X019806Y013131D01*
X019806Y013015D02*
X020012Y013015D01*
X020026Y012898D02*
X019806Y012898D01*
X019806Y012781D02*
X020108Y012781D01*
X019806Y012665D02*
X020711Y012665D01*
X020711Y012548D02*
X019806Y012548D01*
X019806Y012432D02*
X020711Y012432D01*
X020711Y012315D02*
X019806Y012315D01*
X019806Y012198D02*
X020711Y012198D01*
X020711Y012082D02*
X019806Y012082D01*
X019806Y011965D02*
X020711Y011965D01*
X020711Y011849D02*
X019806Y011849D01*
X019806Y011732D02*
X020711Y011732D01*
X020711Y011615D02*
X019806Y011615D01*
X019806Y011499D02*
X020711Y011499D01*
X020711Y011382D02*
X019806Y011382D01*
X019806Y011265D02*
X020711Y011265D01*
X020711Y011149D02*
X019806Y011149D01*
X019806Y011032D02*
X020711Y011032D01*
X020711Y010916D02*
X019806Y010916D01*
X019806Y010799D02*
X020711Y010799D01*
X020711Y010682D02*
X019806Y010682D01*
X019806Y010566D02*
X020711Y010566D01*
X020711Y010449D02*
X019806Y010449D01*
X019806Y010333D02*
X020711Y010333D01*
X020711Y010216D02*
X019806Y010216D01*
X019806Y010099D02*
X020711Y010099D01*
X020711Y009983D02*
X019806Y009983D01*
X019806Y009866D02*
X020711Y009866D01*
X020711Y009750D02*
X019806Y009750D01*
X019812Y009633D02*
X020711Y009633D01*
X020711Y009516D02*
X019898Y009516D01*
X019915Y009400D02*
X020711Y009400D01*
X020711Y009283D02*
X019915Y009283D01*
X019915Y009167D02*
X020711Y009167D01*
X020711Y009050D02*
X019915Y009050D01*
X019889Y008933D02*
X020711Y008933D01*
X020711Y008817D02*
X019772Y008817D01*
X019267Y008338D02*
X019361Y008244D01*
X019661Y007944D01*
X019661Y007944D01*
X019755Y007850D01*
X019806Y007727D01*
X019806Y006883D01*
X019876Y006812D01*
X019915Y006718D01*
X019915Y006508D01*
X019952Y006472D01*
X020003Y006349D01*
X020003Y005505D01*
X020073Y005434D01*
X020112Y005340D01*
X020112Y004862D01*
X020073Y004768D01*
X020001Y004696D01*
X019907Y004657D01*
X019429Y004657D01*
X019335Y004696D01*
X019263Y004768D01*
X019224Y004862D01*
X019224Y005340D01*
X019263Y005434D01*
X019334Y005505D01*
X019334Y006035D01*
X019232Y006035D01*
X019138Y006074D01*
X019066Y006146D01*
X019027Y006240D01*
X019027Y006718D01*
X019066Y006812D01*
X019137Y006883D01*
X019137Y007522D01*
X018939Y007719D01*
X018525Y007719D01*
X018454Y007649D01*
X018721Y007381D01*
X018721Y006916D01*
X018454Y006649D01*
X018721Y006381D01*
X018721Y005916D01*
X018393Y005587D01*
X017928Y005587D01*
X017660Y005855D01*
X017393Y005587D01*
X016928Y005587D01*
X016599Y005916D01*
X016599Y006381D01*
X016867Y006649D01*
X016599Y006916D01*
X016599Y007381D01*
X016928Y007710D01*
X016943Y007710D01*
X016696Y007956D01*
X016696Y008114D01*
X017126Y008114D01*
X017126Y008183D01*
X017126Y008613D01*
X016968Y008613D01*
X016696Y008341D01*
X016696Y008183D01*
X017126Y008183D01*
X017195Y008183D01*
X017195Y008613D01*
X017353Y008613D01*
X017599Y008366D01*
X017599Y008381D01*
X017928Y008710D01*
X018393Y008710D01*
X018714Y008389D01*
X019144Y008389D01*
X019267Y008338D01*
X019237Y008350D02*
X020711Y008350D01*
X020711Y008234D02*
X019371Y008234D01*
X019488Y008117D02*
X020739Y008117D01*
X020823Y008000D02*
X019605Y008000D01*
X019721Y007884D02*
X020940Y007884D01*
X020857Y007967D02*
X020857Y007967D01*
X021057Y007767D02*
X019789Y007767D01*
X019806Y007651D02*
X021173Y007651D01*
X021290Y007534D02*
X019806Y007534D01*
X019806Y007417D02*
X021406Y007417D01*
X021523Y007301D02*
X019806Y007301D01*
X019806Y007184D02*
X021586Y007184D01*
X021586Y007068D02*
X019806Y007068D01*
X019806Y006951D02*
X021438Y006951D01*
X021340Y006834D02*
X019854Y006834D01*
X019915Y006718D02*
X021302Y006718D01*
X021302Y006601D02*
X019915Y006601D01*
X019939Y006484D02*
X021302Y006484D01*
X021302Y006368D02*
X019995Y006368D01*
X020003Y006251D02*
X021302Y006251D01*
X021302Y006135D02*
X020003Y006135D01*
X020003Y006018D02*
X021302Y006018D01*
X021302Y005901D02*
X020003Y005901D01*
X020003Y005785D02*
X021302Y005785D01*
X021302Y005668D02*
X020003Y005668D01*
X020003Y005552D02*
X021302Y005552D01*
X021302Y005435D02*
X020073Y005435D01*
X020112Y005318D02*
X021302Y005318D01*
X021302Y005202D02*
X020112Y005202D01*
X020112Y005085D02*
X021302Y005085D01*
X021302Y004969D02*
X020112Y004969D01*
X020108Y004852D02*
X021302Y004852D01*
X021302Y004735D02*
X020040Y004735D01*
X019296Y004735D02*
X012829Y004735D01*
X012829Y004852D02*
X019228Y004852D01*
X019224Y004969D02*
X012829Y004969D01*
X012829Y005085D02*
X019224Y005085D01*
X019224Y005202D02*
X013536Y005202D01*
X013666Y005318D02*
X019224Y005318D01*
X019264Y005435D02*
X013782Y005435D01*
X013899Y005552D02*
X019334Y005552D01*
X019334Y005668D02*
X018473Y005668D01*
X018590Y005785D02*
X019334Y005785D01*
X019334Y005901D02*
X018707Y005901D01*
X018721Y006018D02*
X019334Y006018D01*
X019078Y006135D02*
X018721Y006135D01*
X018721Y006251D02*
X019027Y006251D01*
X019027Y006368D02*
X018721Y006368D01*
X018618Y006484D02*
X019027Y006484D01*
X019027Y006601D02*
X018501Y006601D01*
X018523Y006718D02*
X019027Y006718D01*
X019088Y006834D02*
X018640Y006834D01*
X018721Y006951D02*
X019137Y006951D01*
X019137Y007068D02*
X018721Y007068D01*
X018721Y007184D02*
X019137Y007184D01*
X019137Y007301D02*
X018721Y007301D01*
X018685Y007417D02*
X019137Y007417D01*
X019124Y007534D02*
X018568Y007534D01*
X018456Y007651D02*
X019008Y007651D01*
X018635Y008467D02*
X020711Y008467D01*
X020711Y008583D02*
X018519Y008583D01*
X018402Y008700D02*
X020711Y008700D01*
X019171Y008817D02*
X016460Y008817D01*
X016460Y008933D02*
X019053Y008933D01*
X019027Y009050D02*
X017071Y009050D01*
X017148Y009167D02*
X019027Y009167D01*
X019027Y009283D02*
X017159Y009283D01*
X017159Y009400D02*
X019027Y009400D01*
X019045Y009516D02*
X017273Y009516D01*
X017390Y009633D02*
X019131Y009633D01*
X019137Y009750D02*
X017506Y009750D01*
X017603Y009866D02*
X019137Y009866D01*
X019137Y009983D02*
X017641Y009983D01*
X017641Y010099D02*
X019137Y010099D01*
X019137Y010216D02*
X017641Y010216D01*
X017641Y010333D02*
X019137Y010333D01*
X019137Y010449D02*
X017641Y010449D01*
X017641Y010566D02*
X019137Y010566D01*
X019137Y010682D02*
X017641Y010682D01*
X017641Y010799D02*
X019137Y010799D01*
X019137Y010916D02*
X017641Y010916D01*
X017641Y011032D02*
X019137Y011032D01*
X019137Y011149D02*
X017641Y011149D01*
X017641Y011265D02*
X019137Y011265D01*
X019137Y011382D02*
X017641Y011382D01*
X017641Y011499D02*
X019137Y011499D01*
X019137Y011615D02*
X017641Y011615D01*
X017641Y011732D02*
X019137Y011732D01*
X019137Y011849D02*
X017641Y011849D01*
X017641Y011965D02*
X019137Y011965D01*
X019137Y012082D02*
X017641Y012082D01*
X017641Y012198D02*
X019137Y012198D01*
X019137Y012315D02*
X017641Y012315D01*
X017641Y012432D02*
X019137Y012432D01*
X019137Y012548D02*
X017641Y012548D01*
X017641Y012665D02*
X019137Y012665D01*
X019137Y012781D02*
X017641Y012781D01*
X017641Y012898D02*
X019137Y012898D01*
X019137Y013015D02*
X017641Y013015D01*
X017641Y013131D02*
X019137Y013131D01*
X019137Y013248D02*
X017641Y013248D01*
X017641Y013364D02*
X019137Y013364D01*
X019137Y013481D02*
X017641Y013481D01*
X017641Y013598D02*
X019137Y013598D01*
X019137Y013714D02*
X017641Y013714D01*
X017641Y013831D02*
X019137Y013831D01*
X019137Y013948D02*
X017641Y013948D01*
X017641Y014064D02*
X019137Y014064D01*
X019137Y014181D02*
X017641Y014181D01*
X017641Y014297D02*
X019137Y014297D01*
X019137Y014414D02*
X017641Y014414D01*
X017641Y014531D02*
X019137Y014531D01*
X019137Y014647D02*
X017641Y014647D01*
X017667Y014764D02*
X019137Y014764D01*
X019137Y014880D02*
X017741Y014880D01*
X017750Y014997D02*
X019137Y014997D01*
X019137Y015114D02*
X017750Y015114D01*
X017750Y015230D02*
X019137Y015230D01*
X019137Y015347D02*
X017750Y015347D01*
X017715Y015463D02*
X019137Y015463D01*
X019137Y015580D02*
X017556Y015580D01*
X017056Y015580D02*
X017050Y015580D01*
X017050Y015697D02*
X019137Y015697D01*
X019137Y015813D02*
X017050Y015813D01*
X017050Y015930D02*
X019137Y015930D01*
X019137Y016047D02*
X017050Y016047D01*
X017050Y016163D02*
X019137Y016163D01*
X019137Y016280D02*
X017050Y016280D01*
X017050Y016396D02*
X019137Y016396D01*
X019137Y016513D02*
X017050Y016513D01*
X017050Y016630D02*
X019137Y016630D01*
X019137Y016746D02*
X017050Y016746D01*
X017050Y016863D02*
X019137Y016863D01*
X019137Y016979D02*
X017050Y016979D01*
X017050Y017096D02*
X019137Y017096D01*
X019137Y017213D02*
X017050Y017213D01*
X017050Y017329D02*
X019137Y017329D01*
X019137Y017446D02*
X017050Y017446D01*
X017050Y017562D02*
X019137Y017562D01*
X019137Y017679D02*
X017050Y017679D01*
X017050Y017796D02*
X019137Y017796D01*
X019137Y017912D02*
X017050Y017912D01*
X017050Y018029D02*
X019137Y018029D01*
X019137Y018146D02*
X017050Y018146D01*
X017050Y018262D02*
X019137Y018262D01*
X019137Y018379D02*
X017050Y018379D01*
X017050Y018495D02*
X019137Y018495D01*
X019137Y018612D02*
X017050Y018612D01*
X017050Y018729D02*
X019137Y018729D01*
X019137Y018845D02*
X017050Y018845D01*
X017050Y018962D02*
X019137Y018962D01*
X019126Y019078D02*
X017050Y019078D01*
X017050Y019195D02*
X019043Y019195D01*
X019027Y019312D02*
X017050Y019312D01*
X017050Y019428D02*
X019027Y019428D01*
X019027Y019545D02*
X017050Y019545D01*
X017050Y019661D02*
X019027Y019661D01*
X019055Y019778D02*
X017050Y019778D01*
X017050Y019895D02*
X019182Y019895D01*
X020478Y020944D02*
X017050Y020944D01*
X017050Y020828D02*
X020595Y020828D01*
X020711Y020711D02*
X017050Y020711D01*
X017050Y020594D02*
X020828Y020594D01*
X020944Y020478D02*
X017050Y020478D01*
X017050Y020361D02*
X021061Y020361D01*
X021178Y020245D02*
X017050Y020245D01*
X017050Y020128D02*
X021294Y020128D01*
X021302Y020011D02*
X017050Y020011D01*
X017050Y021061D02*
X020361Y021061D01*
X020245Y021177D02*
X017050Y021177D01*
X017050Y021294D02*
X020128Y021294D01*
X020012Y021411D02*
X017050Y021411D01*
X017050Y021527D02*
X019895Y021527D01*
X019778Y021644D02*
X017050Y021644D01*
X017050Y021760D02*
X019662Y021760D01*
X019545Y021877D02*
X017050Y021877D01*
X017050Y021994D02*
X019429Y021994D01*
X019312Y022110D02*
X017050Y022110D01*
X017050Y022227D02*
X018933Y022227D01*
X018895Y022343D02*
X017050Y022343D01*
X017050Y022460D02*
X018895Y022460D01*
X018895Y022577D02*
X017050Y022577D01*
X017050Y022693D02*
X018895Y022693D01*
X018902Y022810D02*
X017050Y022810D01*
X017050Y022927D02*
X018972Y022927D01*
X019707Y025026D02*
X019759Y025026D01*
X020495Y025026D02*
X020546Y025026D01*
X020599Y025842D02*
X020442Y025842D01*
X019811Y025842D02*
X019655Y025842D01*
X019181Y026775D02*
X020709Y026775D01*
X020588Y026800D02*
X020588Y026800D01*
X020411Y026891D02*
X019321Y026891D01*
X019353Y027008D02*
X020186Y027008D01*
X020095Y027055D02*
X020095Y027055D01*
X020021Y027125D02*
X019353Y027125D01*
X019353Y027241D02*
X019896Y027241D01*
X019771Y027358D02*
X019353Y027358D01*
X019353Y027474D02*
X019665Y027474D01*
X019689Y027434D02*
X019689Y027434D01*
X019594Y027591D02*
X019353Y027591D01*
X019353Y027708D02*
X019523Y027708D01*
X019452Y027824D02*
X019353Y027824D01*
X019401Y027908D02*
X019401Y027908D01*
X019392Y027941D02*
X019353Y027941D01*
X019353Y028057D02*
X019359Y028057D01*
X023233Y028171D02*
X023233Y028171D01*
X028885Y026308D02*
X014526Y026308D01*
X014639Y026192D02*
X029001Y026192D01*
X029118Y026075D02*
X014687Y026075D01*
X010381Y022737D02*
X010381Y022737D01*
X010030Y022810D02*
X009679Y022810D01*
X009679Y022927D02*
X009690Y022927D01*
X009687Y021877D02*
X010358Y021877D01*
X010203Y021760D02*
X009842Y021760D01*
X009876Y021644D02*
X010169Y021644D01*
X010169Y021527D02*
X009876Y021527D01*
X009876Y021411D02*
X010169Y021411D01*
X010169Y021294D02*
X009876Y021294D01*
X010869Y021877D02*
X013507Y021877D01*
X013319Y020436D02*
X011617Y020436D01*
X011617Y018799D01*
X011554Y018647D01*
X011438Y018530D01*
X011044Y018137D01*
X010892Y018074D01*
X010391Y018074D01*
X010239Y017922D01*
X010239Y014469D01*
X010270Y014395D01*
X010270Y013917D01*
X010231Y013823D01*
X010159Y013751D01*
X010065Y013712D01*
X009587Y013712D01*
X009493Y013751D01*
X009421Y013823D01*
X009382Y013917D01*
X009382Y014395D01*
X009412Y014469D01*
X009412Y018176D01*
X009475Y018328D01*
X009869Y018721D01*
X009976Y018829D01*
X009972Y018839D01*
X009972Y019076D01*
X009892Y019156D01*
X008188Y019156D01*
X008072Y019204D01*
X007975Y019302D01*
X007975Y016653D01*
X007927Y016537D01*
X007839Y016448D01*
X007723Y016400D01*
X007601Y016400D01*
X007601Y014098D01*
X007996Y013704D01*
X012375Y013704D01*
X012445Y013774D01*
X012539Y013813D01*
X013017Y013813D01*
X013111Y013774D01*
X013152Y013733D01*
X013152Y017387D01*
X013122Y017461D01*
X013122Y017939D01*
X013161Y018033D01*
X013233Y018105D01*
X013327Y018144D01*
X013743Y018144D01*
X013743Y019815D01*
X013524Y019815D01*
X013430Y019854D01*
X013358Y019926D01*
X013319Y020020D01*
X013319Y020436D01*
X013319Y020361D02*
X011617Y020361D01*
X011617Y020245D02*
X013319Y020245D01*
X013319Y020128D02*
X011617Y020128D01*
X011617Y020011D02*
X013322Y020011D01*
X013389Y019895D02*
X011617Y019895D01*
X011617Y019778D02*
X013743Y019778D01*
X013743Y019661D02*
X011617Y019661D01*
X011617Y019545D02*
X013743Y019545D01*
X013743Y019428D02*
X011617Y019428D01*
X011617Y019312D02*
X013743Y019312D01*
X013743Y019195D02*
X011617Y019195D01*
X011617Y019078D02*
X013743Y019078D01*
X013743Y018962D02*
X011617Y018962D01*
X011617Y018845D02*
X013743Y018845D01*
X013743Y018729D02*
X011588Y018729D01*
X011519Y018612D02*
X013743Y018612D01*
X013743Y018495D02*
X011403Y018495D01*
X011286Y018379D02*
X013743Y018379D01*
X013743Y018262D02*
X011170Y018262D01*
X011053Y018146D02*
X013743Y018146D01*
X013159Y018029D02*
X010346Y018029D01*
X010239Y017912D02*
X013122Y017912D01*
X013122Y017796D02*
X010239Y017796D01*
X010239Y017679D02*
X013122Y017679D01*
X013122Y017562D02*
X010239Y017562D01*
X010239Y017446D02*
X013128Y017446D01*
X013152Y017329D02*
X010239Y017329D01*
X010239Y017213D02*
X013152Y017213D01*
X013152Y017096D02*
X010239Y017096D01*
X010239Y016979D02*
X013152Y016979D01*
X013152Y016863D02*
X010239Y016863D01*
X010239Y016746D02*
X013152Y016746D01*
X013152Y016630D02*
X010239Y016630D01*
X010239Y016513D02*
X013152Y016513D01*
X013152Y016396D02*
X010239Y016396D01*
X010239Y016280D02*
X013152Y016280D01*
X013152Y016163D02*
X010239Y016163D01*
X010239Y016047D02*
X013152Y016047D01*
X013152Y015930D02*
X010239Y015930D01*
X010239Y015813D02*
X013152Y015813D01*
X013152Y015697D02*
X010239Y015697D01*
X010239Y015580D02*
X013152Y015580D01*
X013152Y015463D02*
X010239Y015463D01*
X010239Y015347D02*
X013152Y015347D01*
X013152Y015230D02*
X010239Y015230D01*
X010239Y015114D02*
X013152Y015114D01*
X013152Y014997D02*
X010239Y014997D01*
X010239Y014880D02*
X013152Y014880D01*
X013152Y014764D02*
X010239Y014764D01*
X010239Y014647D02*
X013152Y014647D01*
X013152Y014531D02*
X010239Y014531D01*
X010262Y014414D02*
X013152Y014414D01*
X013152Y014297D02*
X010270Y014297D01*
X010270Y014181D02*
X013152Y014181D01*
X013152Y014064D02*
X010270Y014064D01*
X010270Y013948D02*
X013152Y013948D01*
X013152Y013831D02*
X010234Y013831D01*
X010069Y013714D02*
X012386Y013714D01*
X009582Y013714D02*
X007985Y013714D01*
X007868Y013831D02*
X009417Y013831D01*
X009382Y013948D02*
X007752Y013948D01*
X007635Y014064D02*
X009382Y014064D01*
X009382Y014181D02*
X007601Y014181D01*
X007601Y014297D02*
X009382Y014297D01*
X009389Y014414D02*
X007601Y014414D01*
X007601Y014531D02*
X009412Y014531D01*
X009412Y014647D02*
X007601Y014647D01*
X007601Y014764D02*
X009412Y014764D01*
X009412Y014880D02*
X007601Y014880D01*
X007601Y014997D02*
X009412Y014997D01*
X009412Y015114D02*
X007601Y015114D01*
X007601Y015230D02*
X009412Y015230D01*
X009412Y015347D02*
X007601Y015347D01*
X007601Y015463D02*
X009412Y015463D01*
X009412Y015580D02*
X007601Y015580D01*
X007601Y015697D02*
X009412Y015697D01*
X009412Y015813D02*
X007601Y015813D01*
X007601Y015930D02*
X009412Y015930D01*
X009412Y016047D02*
X007601Y016047D01*
X007601Y016163D02*
X009412Y016163D01*
X009412Y016280D02*
X007601Y016280D01*
X007601Y016396D02*
X009412Y016396D01*
X009412Y016513D02*
X007903Y016513D01*
X007966Y016630D02*
X009412Y016630D01*
X009412Y016746D02*
X007975Y016746D01*
X007975Y016863D02*
X009412Y016863D01*
X009412Y016979D02*
X007975Y016979D01*
X007975Y017096D02*
X009412Y017096D01*
X009412Y017213D02*
X007975Y017213D01*
X007975Y017329D02*
X009412Y017329D01*
X009412Y017446D02*
X007975Y017446D01*
X007975Y017562D02*
X009412Y017562D01*
X009412Y017679D02*
X007975Y017679D01*
X007975Y017796D02*
X009412Y017796D01*
X009412Y017912D02*
X007975Y017912D01*
X007975Y018029D02*
X009412Y018029D01*
X009412Y018146D02*
X007975Y018146D01*
X007975Y018262D02*
X009448Y018262D01*
X009526Y018379D02*
X007975Y018379D01*
X007975Y018495D02*
X009643Y018495D01*
X009760Y018612D02*
X007975Y018612D01*
X007975Y018729D02*
X009876Y018729D01*
X009972Y018845D02*
X007975Y018845D01*
X007975Y018962D02*
X009972Y018962D01*
X009970Y019078D02*
X007975Y019078D01*
X007975Y019195D02*
X008095Y019195D01*
X008251Y019471D02*
X007857Y019865D01*
X007857Y020849D01*
X007267Y021440D01*
X006086Y021440D01*
X005101Y022424D01*
X004657Y022460D02*
X004291Y022460D01*
X004290Y022577D02*
X004657Y022577D01*
X004670Y022693D02*
X004328Y022693D01*
X004328Y022810D02*
X004749Y022810D01*
X004657Y022343D02*
X004328Y022343D01*
X004328Y022227D02*
X004657Y022227D01*
X004688Y022110D02*
X004328Y022110D01*
X004328Y021994D02*
X004829Y021994D01*
X005203Y021877D02*
X004328Y021877D01*
X004328Y021760D02*
X005319Y021760D01*
X005751Y021440D02*
X005988Y021204D01*
X007169Y021204D01*
X007621Y020751D01*
X007621Y019767D01*
X007660Y019728D01*
X007660Y016715D01*
X006443Y016715D01*
X006398Y017047D01*
X006185Y017537D01*
X006086Y017659D01*
X006086Y020062D01*
X003526Y020062D01*
X003526Y021440D01*
X005751Y021440D01*
X005781Y021411D02*
X003526Y021411D01*
X003526Y021294D02*
X005897Y021294D01*
X007195Y021177D02*
X003526Y021177D01*
X003526Y021061D02*
X007312Y021061D01*
X007428Y020944D02*
X003526Y020944D01*
X003526Y020828D02*
X007545Y020828D01*
X007621Y020711D02*
X003526Y020711D01*
X003526Y020594D02*
X007621Y020594D01*
X007621Y020478D02*
X003526Y020478D01*
X003526Y020361D02*
X007621Y020361D01*
X007621Y020245D02*
X003526Y020245D01*
X003526Y020128D02*
X007621Y020128D01*
X007621Y020011D02*
X006086Y020011D01*
X006086Y019895D02*
X007621Y019895D01*
X007621Y019778D02*
X006086Y019778D01*
X006086Y019661D02*
X007660Y019661D01*
X007660Y019545D02*
X006086Y019545D01*
X006086Y019428D02*
X007660Y019428D01*
X007660Y019312D02*
X006086Y019312D01*
X006086Y019195D02*
X007660Y019195D01*
X007660Y019078D02*
X006086Y019078D01*
X006086Y018962D02*
X007660Y018962D01*
X007660Y018845D02*
X006086Y018845D01*
X006086Y018729D02*
X007660Y018729D01*
X007660Y018612D02*
X006086Y018612D01*
X006086Y018495D02*
X007660Y018495D01*
X007660Y018379D02*
X006086Y018379D01*
X006086Y018262D02*
X007660Y018262D01*
X007660Y018146D02*
X006086Y018146D01*
X006086Y018029D02*
X007660Y018029D01*
X007660Y017912D02*
X006086Y017912D01*
X006086Y017796D02*
X007660Y017796D01*
X007660Y017679D02*
X006086Y017679D01*
X006164Y017562D02*
X007660Y017562D01*
X007660Y017446D02*
X006225Y017446D01*
X006185Y017537D02*
X006185Y017537D01*
X006275Y017329D02*
X007660Y017329D01*
X007660Y017213D02*
X006326Y017213D01*
X006377Y017096D02*
X007660Y017096D01*
X007660Y016979D02*
X006407Y016979D01*
X006398Y017047D02*
X006398Y017047D01*
X006423Y016863D02*
X007660Y016863D01*
X007660Y016746D02*
X006439Y016746D01*
X005771Y018146D02*
X005708Y018146D01*
X005771Y018262D02*
X005542Y018262D01*
X005448Y018328D02*
X005448Y018328D01*
X005307Y018379D02*
X005771Y018379D01*
X005771Y018495D02*
X004979Y018495D01*
X004925Y018514D02*
X004925Y018514D01*
X005771Y019545D02*
X003120Y019545D01*
X003117Y019539D02*
X003117Y019539D01*
X003117Y019539D01*
X003187Y019661D02*
X005771Y019661D01*
X003486Y018262D02*
X003012Y018262D01*
X003149Y018146D02*
X003294Y018146D01*
X003335Y018184D02*
X003335Y018184D01*
X003389Y019778D02*
X003222Y019778D01*
X003222Y019895D02*
X003255Y019895D01*
X003211Y020011D02*
X003175Y020011D01*
X003211Y020128D02*
X003088Y020128D01*
X008251Y019471D02*
X010023Y019471D01*
X010416Y019078D01*
X009964Y011066D02*
X011588Y011066D01*
X011656Y010997D01*
X011656Y010229D01*
X011648Y010220D01*
X011648Y010458D01*
X011609Y010552D01*
X011537Y010624D01*
X011443Y010663D01*
X010965Y010663D01*
X010871Y010624D01*
X010799Y010552D01*
X010760Y010458D01*
X010760Y009980D01*
X010799Y009886D01*
X010871Y009814D01*
X010889Y009807D01*
X010889Y009649D01*
X010137Y009649D01*
X009985Y009586D01*
X009869Y009469D01*
X009806Y009317D01*
X009806Y006617D01*
X009245Y006617D01*
X009174Y006687D01*
X009080Y006726D01*
X008602Y006726D01*
X008508Y006687D01*
X008436Y006615D01*
X008397Y006521D01*
X008397Y006223D01*
X007799Y006223D01*
X007259Y006763D01*
X007255Y006767D01*
X006866Y007157D01*
X006743Y007208D01*
X003263Y007208D01*
X003140Y007157D01*
X003046Y007062D01*
X002801Y006818D01*
X002368Y006818D01*
X002349Y006864D01*
X002336Y006877D01*
X002349Y006889D01*
X002368Y006936D01*
X002466Y006936D01*
X002476Y006932D01*
X002609Y006932D01*
X002732Y006983D01*
X002830Y007081D01*
X004452Y008704D01*
X006743Y008704D01*
X006866Y008755D01*
X007259Y009148D01*
X007353Y009242D01*
X007404Y009365D01*
X007404Y009491D01*
X008317Y009491D01*
X008440Y009542D01*
X009964Y011066D01*
X009931Y011032D02*
X011621Y011032D01*
X011656Y010916D02*
X009814Y010916D01*
X009698Y010799D02*
X011656Y010799D01*
X011656Y010682D02*
X009581Y010682D01*
X009464Y010566D02*
X010812Y010566D01*
X010760Y010449D02*
X009348Y010449D01*
X009231Y010333D02*
X010760Y010333D01*
X010760Y010216D02*
X009114Y010216D01*
X008998Y010099D02*
X010760Y010099D01*
X010760Y009983D02*
X008881Y009983D01*
X008765Y009866D02*
X010819Y009866D01*
X010889Y009750D02*
X008648Y009750D01*
X008531Y009633D02*
X010100Y009633D01*
X009916Y009516D02*
X008379Y009516D01*
X007404Y009400D02*
X009840Y009400D01*
X009806Y009283D02*
X007370Y009283D01*
X007278Y009167D02*
X009806Y009167D01*
X009806Y009050D02*
X007161Y009050D01*
X007044Y008933D02*
X009806Y008933D01*
X009806Y008817D02*
X006928Y008817D01*
X006799Y007184D02*
X009806Y007184D01*
X009806Y007068D02*
X006955Y007068D01*
X007071Y006951D02*
X009806Y006951D01*
X009806Y006834D02*
X007188Y006834D01*
X007305Y006718D02*
X008581Y006718D01*
X008430Y006601D02*
X007421Y006601D01*
X007538Y006484D02*
X008397Y006484D01*
X008397Y006368D02*
X007654Y006368D01*
X007771Y006251D02*
X008397Y006251D01*
X009101Y006718D02*
X009806Y006718D01*
X009806Y007301D02*
X003050Y007301D01*
X003166Y007417D02*
X009806Y007417D01*
X009806Y007534D02*
X003283Y007534D01*
X003399Y007651D02*
X009806Y007651D01*
X009806Y007767D02*
X003516Y007767D01*
X003633Y007884D02*
X009806Y007884D01*
X009806Y008000D02*
X003749Y008000D01*
X003866Y008117D02*
X009806Y008117D01*
X009806Y008234D02*
X003982Y008234D01*
X004099Y008350D02*
X009806Y008350D01*
X009806Y008467D02*
X004216Y008467D01*
X004332Y008583D02*
X009806Y008583D01*
X009806Y008700D02*
X004449Y008700D01*
X003969Y009167D02*
X002374Y009167D01*
X002388Y009050D02*
X003852Y009050D01*
X003736Y008933D02*
X002388Y008933D01*
X002388Y008817D02*
X003619Y008817D01*
X003502Y008700D02*
X002388Y008700D01*
X002388Y008583D02*
X003386Y008583D01*
X003269Y008467D02*
X002350Y008467D01*
X002386Y008350D02*
X003153Y008350D01*
X003036Y008234D02*
X002388Y008234D01*
X002388Y008117D02*
X002919Y008117D01*
X002803Y008000D02*
X002388Y008000D01*
X002388Y007884D02*
X002686Y007884D01*
X002570Y007767D02*
X002386Y007767D01*
X002349Y007651D02*
X002453Y007651D01*
X002933Y007184D02*
X003206Y007184D01*
X003051Y007068D02*
X002816Y007068D01*
X002830Y007081D02*
X002830Y007081D01*
X002934Y006951D02*
X002654Y006951D01*
X002818Y006834D02*
X002361Y006834D01*
X003502Y005785D02*
X004183Y005785D01*
X004058Y005668D02*
X003386Y005668D01*
X003269Y005552D02*
X003936Y005552D01*
X003939Y005557D02*
X003939Y005557D01*
X003865Y005435D02*
X003152Y005435D01*
X003794Y005318D02*
X002350Y005318D01*
X003619Y005901D02*
X004308Y005901D01*
X004345Y005936D02*
X004345Y005936D01*
X004504Y006018D02*
X003735Y006018D01*
X003852Y006135D02*
X004729Y006135D01*
X007368Y005085D02*
X009185Y005085D01*
X009185Y004969D02*
X007419Y004969D01*
X007470Y004852D02*
X009185Y004852D01*
X009185Y004735D02*
X007495Y004735D01*
X007511Y004619D02*
X009204Y004619D01*
X009293Y004502D02*
X007527Y004502D01*
X007543Y004385D02*
X021302Y004385D01*
X021302Y004269D02*
X007559Y004269D01*
X007543Y004152D02*
X021302Y004152D01*
X021302Y004036D02*
X007527Y004036D01*
X007511Y003919D02*
X021302Y003919D01*
X021302Y003802D02*
X007495Y003802D01*
X007483Y003721D02*
X007483Y003721D01*
X007468Y003686D02*
X021302Y003686D01*
X021302Y003569D02*
X007418Y003569D01*
X007367Y003453D02*
X021302Y003453D01*
X021302Y003336D02*
X007316Y003336D01*
X007266Y003219D02*
X021302Y003219D01*
X021302Y003103D02*
X007174Y003103D01*
X007079Y002986D02*
X021302Y002986D01*
X021302Y002870D02*
X006984Y002870D01*
X006912Y002781D02*
X006912Y002781D01*
X006912Y002781D01*
X006872Y002753D02*
X021302Y002753D01*
X021302Y002636D02*
X006707Y002636D01*
X006542Y002520D02*
X021302Y002520D01*
X021302Y002403D02*
X006296Y002403D01*
X006458Y002461D02*
X006458Y002461D01*
X005968Y002286D02*
X021302Y002286D01*
X021347Y002170D02*
X004490Y002170D01*
X004373Y002286D02*
X005143Y002286D01*
X004838Y002350D02*
X004838Y002350D01*
X004735Y002403D02*
X004257Y002403D01*
X004140Y002520D02*
X004510Y002520D01*
X004345Y002605D02*
X004345Y002605D01*
X004312Y002636D02*
X004024Y002636D01*
X003907Y002753D02*
X004187Y002753D01*
X004607Y002053D02*
X021467Y002053D01*
X023578Y002053D02*
X033019Y002053D01*
X033001Y002170D02*
X023698Y002170D01*
X023743Y002286D02*
X033001Y002286D01*
X033001Y002403D02*
X023743Y002403D01*
X023743Y002520D02*
X033001Y002520D01*
X033001Y002636D02*
X023743Y002636D01*
X023743Y002753D02*
X033024Y002753D01*
X033056Y002870D02*
X023743Y002870D01*
X023743Y002986D02*
X028358Y002986D01*
X028308Y003103D02*
X023743Y003103D01*
X023743Y003219D02*
X028308Y003219D01*
X028308Y003336D02*
X023743Y003336D01*
X023743Y003453D02*
X028308Y003453D01*
X028308Y003569D02*
X023743Y003569D01*
X023743Y003686D02*
X028308Y003686D01*
X028340Y003802D02*
X023743Y003802D01*
X023743Y003919D02*
X028486Y003919D01*
X029173Y003919D02*
X029471Y003919D01*
X029324Y003802D02*
X029319Y003802D01*
X029301Y002986D02*
X029343Y002986D01*
X030285Y002986D02*
X030327Y002986D01*
X030303Y003802D02*
X030309Y003802D01*
X030357Y003919D02*
X030157Y003919D01*
X030357Y004036D02*
X023743Y004036D01*
X023743Y004152D02*
X030357Y004152D01*
X030357Y004269D02*
X023743Y004269D01*
X023743Y004385D02*
X030357Y004385D01*
X030357Y004502D02*
X023743Y004502D01*
X023743Y004619D02*
X030357Y004619D01*
X030357Y004735D02*
X023743Y004735D01*
X023743Y004852D02*
X030357Y004852D01*
X030357Y004969D02*
X023743Y004969D01*
X023696Y005085D02*
X030357Y005085D01*
X030357Y005202D02*
X023565Y005202D01*
X023625Y005435D02*
X030357Y005435D01*
X030357Y005552D02*
X023712Y005552D01*
X023743Y005668D02*
X030357Y005668D01*
X030357Y005785D02*
X023743Y005785D01*
X023743Y005901D02*
X030357Y005901D01*
X030357Y006018D02*
X023743Y006018D01*
X023743Y006135D02*
X030357Y006135D01*
X030357Y006251D02*
X023743Y006251D01*
X023743Y006368D02*
X030357Y006368D01*
X030357Y006484D02*
X023743Y006484D01*
X023743Y006601D02*
X030357Y006601D01*
X030357Y006718D02*
X023743Y006718D01*
X023705Y006834D02*
X030357Y006834D01*
X030357Y006951D02*
X023607Y006951D01*
X023428Y007068D02*
X030357Y007068D01*
X030357Y007184D02*
X023415Y007184D01*
X023366Y007301D02*
X030357Y007301D01*
X030357Y007417D02*
X023252Y007417D01*
X023135Y007534D02*
X030357Y007534D01*
X031026Y007534D02*
X036510Y007534D01*
X036510Y007651D02*
X031026Y007651D01*
X031026Y007767D02*
X036510Y007767D01*
X036510Y007884D02*
X031026Y007884D01*
X031026Y008000D02*
X036510Y008000D01*
X036510Y008117D02*
X031026Y008117D01*
X031026Y008234D02*
X036510Y008234D01*
X036510Y008350D02*
X031026Y008350D01*
X031026Y008467D02*
X034134Y008467D01*
X034033Y008583D02*
X031026Y008583D01*
X031026Y008700D02*
X034010Y008700D01*
X034010Y008817D02*
X031026Y008817D01*
X031026Y008933D02*
X034010Y008933D01*
X034010Y009050D02*
X031026Y009050D01*
X031026Y009167D02*
X034010Y009167D01*
X034010Y009283D02*
X031026Y009283D01*
X031026Y009400D02*
X034010Y009400D01*
X034010Y009516D02*
X031026Y009516D01*
X031026Y009633D02*
X034010Y009633D01*
X034010Y009750D02*
X031026Y009750D01*
X031026Y009866D02*
X034010Y009866D01*
X034010Y009983D02*
X031026Y009983D01*
X031026Y010099D02*
X034010Y010099D01*
X034010Y010216D02*
X031026Y010216D01*
X031026Y010333D02*
X034010Y010333D01*
X034010Y010449D02*
X031026Y010449D01*
X031026Y010566D02*
X034010Y010566D01*
X034010Y010682D02*
X031026Y010682D01*
X031026Y010799D02*
X034010Y010799D01*
X034010Y010916D02*
X031026Y010916D01*
X031026Y011032D02*
X034010Y011032D01*
X034010Y011149D02*
X031026Y011149D01*
X031026Y011265D02*
X034010Y011265D01*
X034010Y011382D02*
X031026Y011382D01*
X031026Y011499D02*
X034010Y011499D01*
X034010Y011615D02*
X031026Y011615D01*
X031026Y011732D02*
X034010Y011732D01*
X034010Y011849D02*
X031026Y011849D01*
X031026Y011965D02*
X034010Y011965D01*
X034010Y012082D02*
X031026Y012082D01*
X031026Y012198D02*
X034010Y012198D01*
X034010Y012315D02*
X031026Y012315D01*
X031026Y012432D02*
X034010Y012432D01*
X034010Y012548D02*
X031026Y012548D01*
X031026Y012665D02*
X034010Y012665D01*
X034010Y012781D02*
X031026Y012781D01*
X031026Y012898D02*
X034010Y012898D01*
X034010Y013015D02*
X031026Y013015D01*
X031026Y013131D02*
X034010Y013131D01*
X034010Y013248D02*
X031026Y013248D01*
X031026Y013364D02*
X031163Y013364D01*
X029767Y014997D02*
X029758Y014997D01*
X029758Y015114D02*
X029767Y015114D01*
X029767Y015230D02*
X029738Y015230D01*
X029767Y015347D02*
X029649Y015347D01*
X029767Y015463D02*
X029058Y015463D01*
X029058Y015580D02*
X029767Y015580D01*
X029767Y015697D02*
X029058Y015697D01*
X029058Y015813D02*
X029767Y015813D01*
X029767Y015930D02*
X029058Y015930D01*
X029058Y016047D02*
X029767Y016047D01*
X029767Y016163D02*
X029058Y016163D01*
X029058Y016280D02*
X029767Y016280D01*
X029767Y016396D02*
X029058Y016396D01*
X029058Y016513D02*
X029767Y016513D01*
X029767Y016630D02*
X029058Y016630D01*
X029058Y016746D02*
X029767Y016746D01*
X029767Y016863D02*
X029058Y016863D01*
X029058Y016979D02*
X029767Y016979D01*
X029767Y017096D02*
X029058Y017096D01*
X029058Y017213D02*
X029767Y017213D01*
X029767Y017329D02*
X029058Y017329D01*
X029058Y017446D02*
X029767Y017446D01*
X029767Y017562D02*
X029058Y017562D01*
X029058Y017679D02*
X029767Y017679D01*
X029767Y017796D02*
X029058Y017796D01*
X029058Y017912D02*
X029767Y017912D01*
X029767Y018029D02*
X029058Y018029D01*
X029058Y018146D02*
X029767Y018146D01*
X029767Y018262D02*
X029058Y018262D01*
X029058Y018379D02*
X029767Y018379D01*
X029767Y018495D02*
X029058Y018495D01*
X029058Y018612D02*
X029767Y018612D01*
X029767Y018729D02*
X029058Y018729D01*
X029058Y018845D02*
X029767Y018845D01*
X029767Y018962D02*
X029058Y018962D01*
X029058Y019078D02*
X029767Y019078D01*
X029767Y019195D02*
X029058Y019195D01*
X029058Y019312D02*
X029767Y019312D01*
X029767Y019428D02*
X029058Y019428D01*
X029058Y019545D02*
X029767Y019545D01*
X029767Y019661D02*
X029058Y019661D01*
X029058Y019778D02*
X029767Y019778D01*
X029767Y019895D02*
X029058Y019895D01*
X029058Y020011D02*
X029767Y020011D01*
X029767Y020128D02*
X029058Y020128D01*
X029058Y020245D02*
X029767Y020245D01*
X029767Y020361D02*
X029058Y020361D01*
X029058Y020478D02*
X029767Y020478D01*
X029767Y020594D02*
X029058Y020594D01*
X029058Y020711D02*
X029767Y020711D01*
X029767Y020828D02*
X029058Y020828D01*
X029058Y020944D02*
X029767Y020944D01*
X029767Y021061D02*
X029058Y021061D01*
X029058Y021177D02*
X029767Y021177D01*
X029767Y021294D02*
X029058Y021294D01*
X029058Y021411D02*
X029767Y021411D01*
X029767Y021527D02*
X029058Y021527D01*
X029058Y021644D02*
X029767Y021644D01*
X029767Y021760D02*
X029058Y021760D01*
X029058Y021877D02*
X029767Y021877D01*
X029767Y021994D02*
X029058Y021994D01*
X029136Y022110D02*
X029767Y022110D01*
X029767Y022227D02*
X029167Y022227D01*
X029167Y022343D02*
X029767Y022343D01*
X029767Y022460D02*
X029167Y022460D01*
X029167Y022577D02*
X029767Y022577D01*
X029767Y022693D02*
X029155Y022693D01*
X027828Y017329D02*
X026469Y017329D01*
X026583Y017213D02*
X027714Y017213D01*
X027689Y017096D02*
X026608Y017096D01*
X026608Y016979D02*
X027689Y016979D01*
X027689Y016863D02*
X026608Y016863D01*
X026608Y016746D02*
X027689Y016746D01*
X027707Y016630D02*
X026590Y016630D01*
X026503Y016513D02*
X027794Y016513D01*
X025825Y016513D02*
X025322Y016513D01*
X025287Y017329D02*
X025860Y017329D01*
X022206Y013481D02*
X021971Y013481D01*
X021971Y013364D02*
X022177Y013364D01*
X022177Y013248D02*
X021971Y013248D01*
X021971Y013131D02*
X022177Y013131D01*
X022177Y013015D02*
X021971Y013015D01*
X021971Y012898D02*
X022191Y012898D01*
X022274Y012781D02*
X021971Y012781D01*
X021971Y012665D02*
X022483Y012665D01*
X022483Y012548D02*
X021971Y012548D01*
X021971Y012432D02*
X022483Y012432D01*
X022483Y012315D02*
X022046Y012315D01*
X022081Y012198D02*
X022483Y012198D01*
X022483Y012082D02*
X022131Y012082D01*
X022247Y011965D02*
X022483Y011965D01*
X022483Y011849D02*
X022364Y011849D01*
X022480Y011732D02*
X022483Y011732D01*
X023266Y011032D02*
X027798Y011032D01*
X027798Y010916D02*
X023382Y010916D01*
X023499Y010799D02*
X027777Y010799D01*
X027700Y010682D02*
X023615Y010682D01*
X023732Y010566D02*
X027689Y010566D01*
X027689Y010449D02*
X023849Y010449D01*
X023965Y010333D02*
X027689Y010333D01*
X027689Y010216D02*
X024082Y010216D01*
X024198Y010099D02*
X027721Y010099D01*
X027868Y009983D02*
X024315Y009983D01*
X024432Y009866D02*
X028279Y009866D01*
X028279Y009750D02*
X024548Y009750D01*
X024665Y009633D02*
X028279Y009633D01*
X028308Y009516D02*
X024781Y009516D01*
X024898Y009400D02*
X028441Y009400D01*
X031026Y007417D02*
X036510Y007417D01*
X036510Y007301D02*
X031026Y007301D01*
X031026Y007184D02*
X036510Y007184D01*
X036510Y007068D02*
X031026Y007068D01*
X031026Y006951D02*
X036510Y006951D01*
X036510Y006834D02*
X031026Y006834D01*
X031026Y006718D02*
X036510Y006718D01*
X036510Y006601D02*
X031026Y006601D01*
X031026Y006484D02*
X036510Y006484D01*
X036510Y006368D02*
X031026Y006368D01*
X031026Y006251D02*
X036510Y006251D01*
X036510Y006135D02*
X031026Y006135D01*
X031026Y006018D02*
X036510Y006018D01*
X036510Y005901D02*
X031026Y005901D01*
X031026Y005785D02*
X036510Y005785D01*
X036510Y005668D02*
X031026Y005668D01*
X031026Y005552D02*
X036510Y005552D01*
X036510Y005435D02*
X031026Y005435D01*
X031026Y005318D02*
X036510Y005318D01*
X036510Y005202D02*
X031026Y005202D01*
X031026Y005085D02*
X036510Y005085D01*
X036510Y004969D02*
X031026Y004969D01*
X031026Y004852D02*
X036510Y004852D01*
X036510Y004735D02*
X031026Y004735D01*
X031026Y004619D02*
X036510Y004619D01*
X036510Y004502D02*
X031026Y004502D01*
X031026Y004385D02*
X034671Y004385D01*
X034881Y004429D02*
X034881Y004429D01*
X034338Y004316D02*
X034338Y004316D01*
X034247Y004269D02*
X031026Y004269D01*
X031026Y004152D02*
X034021Y004152D01*
X033845Y004061D02*
X033845Y004061D01*
X033818Y004036D02*
X031026Y004036D01*
X031141Y003919D02*
X033693Y003919D01*
X033568Y003802D02*
X032144Y003802D01*
X032146Y003801D02*
X032110Y003822D01*
X032069Y003833D01*
X031812Y003833D01*
X031812Y003438D01*
X031753Y003438D01*
X031753Y003833D01*
X031496Y003833D01*
X031455Y003822D01*
X031419Y003801D01*
X031389Y003772D01*
X031368Y003735D01*
X031358Y003695D01*
X031358Y003438D01*
X031753Y003438D01*
X031753Y003379D01*
X031358Y003379D01*
X031358Y003122D01*
X031368Y003081D01*
X031389Y003045D01*
X031419Y003015D01*
X031455Y002994D01*
X031496Y002984D01*
X031753Y002984D01*
X031753Y003379D01*
X031812Y003379D01*
X031812Y003438D01*
X032207Y003438D01*
X032207Y003695D01*
X032196Y003735D01*
X032175Y003772D01*
X032146Y003801D01*
X032207Y003686D02*
X033443Y003686D01*
X033439Y003682D02*
X033439Y003682D01*
X033371Y003569D02*
X032207Y003569D01*
X032207Y003453D02*
X033300Y003453D01*
X033229Y003336D02*
X032207Y003336D01*
X032207Y003379D02*
X031812Y003379D01*
X031812Y002984D01*
X032069Y002984D01*
X032110Y002994D01*
X032146Y003015D01*
X032175Y003045D01*
X032196Y003081D01*
X032207Y003122D01*
X032207Y003379D01*
X032207Y003219D02*
X033158Y003219D01*
X033122Y003103D02*
X032202Y003103D01*
X032079Y002986D02*
X033089Y002986D01*
X031812Y002986D02*
X031753Y002986D01*
X031753Y003103D02*
X031812Y003103D01*
X031812Y003219D02*
X031753Y003219D01*
X031753Y003336D02*
X031812Y003336D01*
X031812Y003453D02*
X031753Y003453D01*
X031753Y003569D02*
X031812Y003569D01*
X031812Y003686D02*
X031753Y003686D01*
X031753Y003802D02*
X031812Y003802D01*
X031421Y003802D02*
X031288Y003802D01*
X031320Y003686D02*
X031358Y003686D01*
X031358Y003569D02*
X031320Y003569D01*
X031320Y003453D02*
X031358Y003453D01*
X031358Y003336D02*
X031320Y003336D01*
X031320Y003219D02*
X031358Y003219D01*
X031363Y003103D02*
X031320Y003103D01*
X031269Y002986D02*
X031486Y002986D01*
X033052Y001937D02*
X004723Y001937D01*
X004840Y001820D02*
X033085Y001820D01*
X033117Y001703D02*
X004957Y001703D01*
X005073Y001587D02*
X033150Y001587D01*
X033151Y001583D02*
X033151Y001583D01*
X033220Y001470D02*
X005190Y001470D01*
X005306Y001354D02*
X033291Y001354D01*
X033362Y001237D02*
X005423Y001237D01*
X005540Y001120D02*
X033433Y001120D01*
X036364Y003919D02*
X036510Y003919D01*
X036510Y003802D02*
X036479Y003802D01*
X036510Y004036D02*
X036199Y004036D01*
X036034Y004152D02*
X036510Y004152D01*
X036510Y004269D02*
X035780Y004269D01*
X035958Y004205D02*
X035958Y004205D01*
X035452Y004385D02*
X036510Y004385D01*
X035435Y004391D02*
X035435Y004391D01*
X030357Y005318D02*
X023152Y005318D01*
X021302Y004619D02*
X012809Y004619D01*
X012721Y004502D02*
X021302Y004502D01*
X017847Y005668D02*
X017473Y005668D01*
X017590Y005785D02*
X017731Y005785D01*
X016847Y005668D02*
X014015Y005668D01*
X014132Y005785D02*
X016731Y005785D01*
X016614Y005901D02*
X014249Y005901D01*
X014365Y006018D02*
X016599Y006018D01*
X016599Y006135D02*
X014482Y006135D01*
X014599Y006251D02*
X016599Y006251D01*
X016599Y006368D02*
X014715Y006368D01*
X014832Y006484D02*
X016703Y006484D01*
X016819Y006601D02*
X014948Y006601D01*
X015065Y006718D02*
X016798Y006718D01*
X016681Y006834D02*
X015182Y006834D01*
X015298Y006951D02*
X016599Y006951D01*
X016599Y007068D02*
X015415Y007068D01*
X015531Y007184D02*
X016599Y007184D01*
X016599Y007301D02*
X015648Y007301D01*
X015765Y007417D02*
X016636Y007417D01*
X016752Y007534D02*
X015881Y007534D01*
X015998Y007651D02*
X016869Y007651D01*
X016885Y007767D02*
X016114Y007767D01*
X016231Y007884D02*
X016769Y007884D01*
X016696Y008000D02*
X016348Y008000D01*
X016432Y008117D02*
X017126Y008117D01*
X017126Y008234D02*
X017195Y008234D01*
X017195Y008350D02*
X017126Y008350D01*
X017126Y008467D02*
X017195Y008467D01*
X017195Y008583D02*
X017126Y008583D01*
X016939Y008583D02*
X016460Y008583D01*
X016460Y008467D02*
X016822Y008467D01*
X016706Y008350D02*
X016460Y008350D01*
X016460Y008234D02*
X016696Y008234D01*
X016460Y008700D02*
X017918Y008700D01*
X017802Y008583D02*
X017382Y008583D01*
X017498Y008467D02*
X017685Y008467D01*
X013743Y008467D02*
X011519Y008467D01*
X011519Y008583D02*
X013743Y008583D01*
X013743Y008700D02*
X012785Y008700D01*
X012790Y008705D02*
X012829Y008799D01*
X012829Y009277D01*
X012790Y009371D01*
X012718Y009443D01*
X012624Y009482D01*
X012386Y009482D01*
X012396Y009493D01*
X012435Y009587D01*
X012435Y010065D01*
X012396Y010159D01*
X012326Y010229D01*
X012326Y010278D01*
X013230Y010278D01*
X013712Y009796D01*
X013712Y009587D01*
X013743Y009513D01*
X013743Y008225D01*
X012804Y007286D01*
X011420Y007286D01*
X011420Y007413D01*
X011443Y007413D01*
X011537Y007452D01*
X011609Y007524D01*
X011648Y007618D01*
X011648Y008096D01*
X011609Y008190D01*
X011537Y008262D01*
X011519Y008270D01*
X011519Y008594D01*
X011836Y008594D01*
X011930Y008633D01*
X011991Y008694D01*
X012052Y008633D01*
X012146Y008594D01*
X012624Y008594D01*
X012718Y008633D01*
X012790Y008705D01*
X012829Y008817D02*
X013743Y008817D01*
X013743Y008933D02*
X012829Y008933D01*
X012829Y009050D02*
X013743Y009050D01*
X013743Y009167D02*
X012829Y009167D01*
X012826Y009283D02*
X013743Y009283D01*
X013743Y009400D02*
X012761Y009400D01*
X012406Y009516D02*
X013741Y009516D01*
X013712Y009633D02*
X012435Y009633D01*
X012435Y009750D02*
X013712Y009750D01*
X013643Y009866D02*
X012435Y009866D01*
X012435Y009983D02*
X013526Y009983D01*
X013409Y010099D02*
X012421Y010099D01*
X012339Y010216D02*
X013293Y010216D01*
X011656Y010333D02*
X011648Y010333D01*
X011648Y010449D02*
X011656Y010449D01*
X011656Y010566D02*
X011595Y010566D01*
X011204Y010219D02*
X011204Y007857D01*
X011648Y007884D02*
X013402Y007884D01*
X013518Y008000D02*
X011648Y008000D01*
X011639Y008117D02*
X013635Y008117D01*
X013743Y008234D02*
X011565Y008234D01*
X011519Y008350D02*
X013743Y008350D01*
X013285Y007767D02*
X011648Y007767D01*
X011648Y007651D02*
X013168Y007651D01*
X013052Y007534D02*
X011613Y007534D01*
X011453Y007417D02*
X012935Y007417D01*
X012818Y007301D02*
X011420Y007301D01*
X011597Y009038D02*
X012385Y009038D01*
X012049Y004502D02*
X009965Y004502D01*
X004085Y009283D02*
X002292Y009283D01*
D19*
X010416Y007660D02*
X010416Y007267D01*
X011204Y006479D01*
X010416Y007660D02*
X010613Y007857D01*
X010613Y009038D01*
M02*
