G75*
%MOIN*%
%OFA0B0*%
%FSLAX24Y24*%
%IPPOS*%
%LPD*%
%AMOC8*
5,1,8,0,0,1.08239X$1,22.5*
%
%ADD10C,0.1500*%
%ADD11OC8,0.0670*%
%ADD12C,0.0860*%
%ADD13C,0.0460*%
%ADD14R,0.0454X0.0454*%
%ADD15R,0.0454X0.0493*%
%ADD16C,0.1000*%
%ADD17C,0.0135*%
%ADD18C,0.0190*%
%ADD19C,0.0454*%
%ADD20R,0.0375X0.1438*%
%ADD21R,0.1438X0.0375*%
%ADD22R,0.0456X0.0456*%
%ADD23R,0.1044X0.0621*%
%ADD24C,0.0336*%
%ADD25R,0.1025X0.0572*%
%ADD26R,0.0336X0.0779*%
%ADD27R,0.0635X0.0847*%
%ADD28C,0.0316*%
%ADD29R,0.0749X0.0217*%
%ADD30R,0.2160X0.0820*%
%ADD31R,0.0454X0.0158*%
%ADD32R,0.0414X0.1084*%
%ADD33R,0.0532X0.0375*%
%ADD34R,0.0493X0.0454*%
%ADD35R,0.0847X0.0532*%
%ADD36R,0.0158X0.0454*%
%ADD37R,0.1084X0.0414*%
%ADD38R,0.0375X0.0532*%
%ADD39R,0.0532X0.0847*%
%ADD40R,0.0454X0.1871*%
%ADD41R,0.0690X0.1399*%
%ADD42R,0.0336X0.0532*%
%ADD43R,0.0454X0.0611*%
%ADD44R,0.0591X0.0591*%
%ADD45C,0.0591*%
%ADD46R,0.0662X0.0662*%
%ADD47R,0.0611X0.0454*%
%ADD48R,0.0532X0.0532*%
%ADD49R,0.0532X0.0277*%
%ADD50R,0.1241X0.0532*%
%ADD51R,0.0513X0.0178*%
%ADD52R,0.0454X0.1241*%
%ADD53R,0.0454X0.0532*%
%ADD54R,0.0532X0.0454*%
%ADD55R,0.0591X0.0237*%
%ADD56R,0.1151X0.1064*%
%ADD57R,0.0454X0.0769*%
%ADD58R,0.0532X0.0729*%
%ADD59R,0.0257X0.0454*%
%ADD60R,0.0436X0.0436*%
D10*
X005325Y004000D03*
X004315Y016248D03*
X010325Y024500D03*
X021075Y028450D03*
X034825Y002125D03*
D11*
X017965Y005878D03*
X017965Y006878D03*
X017965Y007878D03*
X016965Y007878D03*
X016965Y006878D03*
X016965Y005878D03*
D12*
X001527Y015469D02*
X001529Y015496D01*
X001535Y015523D01*
X001544Y015549D01*
X001557Y015573D01*
X001573Y015596D01*
X001592Y015615D01*
X001614Y015632D01*
X001638Y015646D01*
X001663Y015656D01*
X001690Y015663D01*
X001717Y015666D01*
X001745Y015665D01*
X001772Y015660D01*
X001798Y015652D01*
X001822Y015640D01*
X001845Y015624D01*
X001866Y015606D01*
X001883Y015585D01*
X001898Y015561D01*
X001909Y015536D01*
X001917Y015510D01*
X001921Y015483D01*
X001921Y015455D01*
X001917Y015428D01*
X001909Y015402D01*
X001898Y015377D01*
X001883Y015353D01*
X001866Y015332D01*
X001845Y015314D01*
X001823Y015298D01*
X001798Y015286D01*
X001772Y015278D01*
X001745Y015273D01*
X001717Y015272D01*
X001690Y015275D01*
X001663Y015282D01*
X001638Y015292D01*
X001614Y015306D01*
X001592Y015323D01*
X001573Y015342D01*
X001557Y015365D01*
X001544Y015389D01*
X001535Y015415D01*
X001529Y015442D01*
X001527Y015469D01*
X028488Y025949D02*
X028490Y025976D01*
X028496Y026003D01*
X028505Y026029D01*
X028518Y026053D01*
X028534Y026076D01*
X028553Y026095D01*
X028575Y026112D01*
X028599Y026126D01*
X028624Y026136D01*
X028651Y026143D01*
X028678Y026146D01*
X028706Y026145D01*
X028733Y026140D01*
X028759Y026132D01*
X028783Y026120D01*
X028806Y026104D01*
X028827Y026086D01*
X028844Y026065D01*
X028859Y026041D01*
X028870Y026016D01*
X028878Y025990D01*
X028882Y025963D01*
X028882Y025935D01*
X028878Y025908D01*
X028870Y025882D01*
X028859Y025857D01*
X028844Y025833D01*
X028827Y025812D01*
X028806Y025794D01*
X028784Y025778D01*
X028759Y025766D01*
X028733Y025758D01*
X028706Y025753D01*
X028678Y025752D01*
X028651Y025755D01*
X028624Y025762D01*
X028599Y025772D01*
X028575Y025786D01*
X028553Y025803D01*
X028534Y025822D01*
X028518Y025845D01*
X028505Y025869D01*
X028496Y025895D01*
X028490Y025922D01*
X028488Y025949D01*
X034732Y006295D02*
X034734Y006322D01*
X034740Y006349D01*
X034749Y006375D01*
X034762Y006399D01*
X034778Y006422D01*
X034797Y006441D01*
X034819Y006458D01*
X034843Y006472D01*
X034868Y006482D01*
X034895Y006489D01*
X034922Y006492D01*
X034950Y006491D01*
X034977Y006486D01*
X035003Y006478D01*
X035027Y006466D01*
X035050Y006450D01*
X035071Y006432D01*
X035088Y006411D01*
X035103Y006387D01*
X035114Y006362D01*
X035122Y006336D01*
X035126Y006309D01*
X035126Y006281D01*
X035122Y006254D01*
X035114Y006228D01*
X035103Y006203D01*
X035088Y006179D01*
X035071Y006158D01*
X035050Y006140D01*
X035028Y006124D01*
X035003Y006112D01*
X034977Y006104D01*
X034950Y006099D01*
X034922Y006098D01*
X034895Y006101D01*
X034868Y006108D01*
X034843Y006118D01*
X034819Y006132D01*
X034797Y006149D01*
X034778Y006168D01*
X034762Y006191D01*
X034749Y006215D01*
X034740Y006241D01*
X034734Y006268D01*
X034732Y006295D01*
D13*
X034929Y006295D03*
X028685Y025949D03*
X001724Y015469D03*
D14*
X004118Y007783D03*
X004118Y006996D03*
X003331Y006996D03*
X003331Y006209D03*
X002543Y006209D03*
X002543Y006996D03*
X002543Y005421D03*
X003331Y005421D03*
X012386Y014476D03*
X012386Y015264D03*
X012386Y016051D03*
X012386Y016839D03*
D15*
X013173Y016780D03*
X013173Y016110D03*
X013173Y015205D03*
X013173Y014535D03*
X008055Y018669D03*
X008055Y019339D03*
X009944Y019553D03*
X009944Y020222D03*
X008646Y021228D03*
X008646Y021898D03*
X006480Y023000D03*
X006480Y023669D03*
X005496Y023472D03*
X005496Y022803D03*
X004906Y020126D03*
X004906Y019457D03*
X006480Y008512D03*
X006480Y007843D03*
X005102Y007528D03*
X005102Y006858D03*
X011354Y001984D03*
X011354Y001315D03*
X011598Y004299D03*
X011598Y004969D03*
X012780Y004890D03*
X012780Y005559D03*
X011795Y006858D03*
X011795Y007528D03*
X019079Y010795D03*
X019079Y011465D03*
X021520Y012370D03*
X021520Y013039D03*
X026559Y012449D03*
X026559Y011780D03*
X027937Y012370D03*
X027937Y013039D03*
X028331Y008315D03*
X028331Y007646D03*
X022189Y006150D03*
X022189Y005480D03*
X020378Y005283D03*
X020378Y005953D03*
X021835Y019457D03*
X021835Y020126D03*
X024394Y027724D03*
X024394Y028394D03*
D16*
X023951Y009551D02*
X023953Y009582D01*
X023959Y009613D01*
X023969Y009643D01*
X023982Y009671D01*
X023999Y009698D01*
X024019Y009722D01*
X024042Y009744D01*
X024067Y009762D01*
X024095Y009777D01*
X024124Y009789D01*
X024154Y009797D01*
X024185Y009801D01*
X024217Y009801D01*
X024248Y009797D01*
X024278Y009789D01*
X024307Y009777D01*
X024335Y009762D01*
X024360Y009744D01*
X024383Y009722D01*
X024403Y009698D01*
X024420Y009671D01*
X024433Y009643D01*
X024443Y009613D01*
X024449Y009582D01*
X024451Y009551D01*
X024449Y009520D01*
X024443Y009489D01*
X024433Y009459D01*
X024420Y009431D01*
X024403Y009404D01*
X024383Y009380D01*
X024360Y009358D01*
X024335Y009340D01*
X024307Y009325D01*
X024278Y009313D01*
X024248Y009305D01*
X024217Y009301D01*
X024185Y009301D01*
X024154Y009305D01*
X024124Y009313D01*
X024095Y009325D01*
X024067Y009340D01*
X024042Y009358D01*
X024019Y009380D01*
X023999Y009404D01*
X023982Y009431D01*
X023969Y009459D01*
X023959Y009489D01*
X023953Y009520D01*
X023951Y009551D01*
D17*
X023021Y009534D02*
X022801Y009534D01*
X022801Y009568D01*
X023021Y009568D01*
X023021Y009534D01*
X023021Y009337D02*
X022801Y009337D01*
X022801Y009371D01*
X023021Y009371D01*
X023021Y009337D01*
X023021Y009140D02*
X022801Y009140D01*
X022801Y009174D01*
X023021Y009174D01*
X023021Y009140D01*
X023021Y008944D02*
X022801Y008944D01*
X022801Y008978D01*
X023021Y008978D01*
X023021Y008944D01*
X023021Y008747D02*
X022801Y008747D01*
X022801Y008781D01*
X023021Y008781D01*
X023021Y008747D01*
X023021Y008550D02*
X022801Y008550D01*
X022801Y008584D01*
X023021Y008584D01*
X023021Y008550D01*
X023234Y008372D02*
X023234Y008152D01*
X023200Y008152D01*
X023200Y008372D01*
X023234Y008372D01*
X023234Y008286D02*
X023200Y008286D01*
X023430Y008372D02*
X023430Y008152D01*
X023396Y008152D01*
X023396Y008372D01*
X023430Y008372D01*
X023430Y008286D02*
X023396Y008286D01*
X023627Y008372D02*
X023627Y008152D01*
X023593Y008152D01*
X023593Y008372D01*
X023627Y008372D01*
X023627Y008286D02*
X023593Y008286D01*
X023824Y008372D02*
X023824Y008152D01*
X023790Y008152D01*
X023790Y008372D01*
X023824Y008372D01*
X023824Y008286D02*
X023790Y008286D01*
X024021Y008372D02*
X024021Y008152D01*
X023987Y008152D01*
X023987Y008372D01*
X024021Y008372D01*
X024021Y008286D02*
X023987Y008286D01*
X024218Y008372D02*
X024218Y008152D01*
X024184Y008152D01*
X024184Y008372D01*
X024218Y008372D01*
X024218Y008286D02*
X024184Y008286D01*
X024415Y008372D02*
X024415Y008152D01*
X024381Y008152D01*
X024381Y008372D01*
X024415Y008372D01*
X024415Y008286D02*
X024381Y008286D01*
X024611Y008372D02*
X024611Y008152D01*
X024577Y008152D01*
X024577Y008372D01*
X024611Y008372D01*
X024611Y008286D02*
X024577Y008286D01*
X024808Y008372D02*
X024808Y008152D01*
X024774Y008152D01*
X024774Y008372D01*
X024808Y008372D01*
X024808Y008286D02*
X024774Y008286D01*
X025005Y008372D02*
X025005Y008152D01*
X024971Y008152D01*
X024971Y008372D01*
X025005Y008372D01*
X025005Y008286D02*
X024971Y008286D01*
X025202Y008372D02*
X025202Y008152D01*
X025168Y008152D01*
X025168Y008372D01*
X025202Y008372D01*
X025202Y008286D02*
X025168Y008286D01*
X025380Y008584D02*
X025600Y008584D01*
X025600Y008550D01*
X025380Y008550D01*
X025380Y008584D01*
X025380Y008781D02*
X025600Y008781D01*
X025600Y008747D01*
X025380Y008747D01*
X025380Y008781D01*
X025380Y008978D02*
X025600Y008978D01*
X025600Y008944D01*
X025380Y008944D01*
X025380Y008978D01*
X025380Y009174D02*
X025600Y009174D01*
X025600Y009140D01*
X025380Y009140D01*
X025380Y009174D01*
X025380Y009371D02*
X025600Y009371D01*
X025600Y009337D01*
X025380Y009337D01*
X025380Y009371D01*
X025380Y009568D02*
X025600Y009568D01*
X025600Y009534D01*
X025380Y009534D01*
X025380Y009568D01*
X025380Y009765D02*
X025600Y009765D01*
X025600Y009731D01*
X025380Y009731D01*
X025380Y009765D01*
X025380Y009962D02*
X025600Y009962D01*
X025600Y009928D01*
X025380Y009928D01*
X025380Y009962D01*
X025380Y010159D02*
X025600Y010159D01*
X025600Y010125D01*
X025380Y010125D01*
X025380Y010159D01*
X025380Y010356D02*
X025600Y010356D01*
X025600Y010322D01*
X025380Y010322D01*
X025380Y010356D01*
X025380Y010552D02*
X025600Y010552D01*
X025600Y010518D01*
X025380Y010518D01*
X025380Y010552D01*
X025168Y010731D02*
X025168Y010951D01*
X025202Y010951D01*
X025202Y010731D01*
X025168Y010731D01*
X025168Y010865D02*
X025202Y010865D01*
X024971Y010951D02*
X024971Y010731D01*
X024971Y010951D02*
X025005Y010951D01*
X025005Y010731D01*
X024971Y010731D01*
X024971Y010865D02*
X025005Y010865D01*
X024774Y010951D02*
X024774Y010731D01*
X024774Y010951D02*
X024808Y010951D01*
X024808Y010731D01*
X024774Y010731D01*
X024774Y010865D02*
X024808Y010865D01*
X024577Y010951D02*
X024577Y010731D01*
X024577Y010951D02*
X024611Y010951D01*
X024611Y010731D01*
X024577Y010731D01*
X024577Y010865D02*
X024611Y010865D01*
X024381Y010951D02*
X024381Y010731D01*
X024381Y010951D02*
X024415Y010951D01*
X024415Y010731D01*
X024381Y010731D01*
X024381Y010865D02*
X024415Y010865D01*
X024184Y010951D02*
X024184Y010731D01*
X024184Y010951D02*
X024218Y010951D01*
X024218Y010731D01*
X024184Y010731D01*
X024184Y010865D02*
X024218Y010865D01*
X023987Y010951D02*
X023987Y010731D01*
X023987Y010951D02*
X024021Y010951D01*
X024021Y010731D01*
X023987Y010731D01*
X023987Y010865D02*
X024021Y010865D01*
X023790Y010951D02*
X023790Y010731D01*
X023790Y010951D02*
X023824Y010951D01*
X023824Y010731D01*
X023790Y010731D01*
X023790Y010865D02*
X023824Y010865D01*
X023593Y010951D02*
X023593Y010731D01*
X023593Y010951D02*
X023627Y010951D01*
X023627Y010731D01*
X023593Y010731D01*
X023593Y010865D02*
X023627Y010865D01*
X023396Y010951D02*
X023396Y010731D01*
X023396Y010951D02*
X023430Y010951D01*
X023430Y010731D01*
X023396Y010731D01*
X023396Y010865D02*
X023430Y010865D01*
X023200Y010951D02*
X023200Y010731D01*
X023200Y010951D02*
X023234Y010951D01*
X023234Y010731D01*
X023200Y010731D01*
X023200Y010865D02*
X023234Y010865D01*
X023021Y010518D02*
X022801Y010518D01*
X022801Y010552D01*
X023021Y010552D01*
X023021Y010518D01*
X023021Y010322D02*
X022801Y010322D01*
X022801Y010356D01*
X023021Y010356D01*
X023021Y010322D01*
X023021Y010125D02*
X022801Y010125D01*
X022801Y010159D01*
X023021Y010159D01*
X023021Y010125D01*
X023021Y009928D02*
X022801Y009928D01*
X022801Y009962D01*
X023021Y009962D01*
X023021Y009928D01*
X023021Y009731D02*
X022801Y009731D01*
X022801Y009765D01*
X023021Y009765D01*
X023021Y009731D01*
D18*
X022127Y009843D02*
X021707Y009843D01*
X021707Y009889D01*
X022127Y009889D01*
X022127Y009843D01*
X022127Y009528D02*
X021707Y009528D01*
X021707Y009574D01*
X022127Y009574D01*
X022127Y009528D01*
X022127Y009213D02*
X021707Y009213D01*
X021707Y009259D01*
X022127Y009259D01*
X022127Y009213D01*
X022127Y008898D02*
X021707Y008898D01*
X021707Y008944D01*
X022127Y008944D01*
X022127Y008898D01*
X022127Y008583D02*
X021707Y008583D01*
X021707Y008629D01*
X022127Y008629D01*
X022127Y008583D01*
X022127Y008268D02*
X021707Y008268D01*
X021707Y008314D01*
X022127Y008314D01*
X022127Y008268D01*
X022127Y007953D02*
X021707Y007953D01*
X021707Y007999D01*
X022127Y007999D01*
X022127Y007953D01*
X022603Y007058D02*
X022649Y007058D01*
X022603Y007058D02*
X022603Y007478D01*
X022649Y007478D01*
X022649Y007058D01*
X022649Y007247D02*
X022603Y007247D01*
X022603Y007436D02*
X022649Y007436D01*
X022918Y007058D02*
X022964Y007058D01*
X022918Y007058D02*
X022918Y007478D01*
X022964Y007478D01*
X022964Y007058D01*
X022964Y007247D02*
X022918Y007247D01*
X022918Y007436D02*
X022964Y007436D01*
X023233Y007058D02*
X023279Y007058D01*
X023233Y007058D02*
X023233Y007478D01*
X023279Y007478D01*
X023279Y007058D01*
X023279Y007247D02*
X023233Y007247D01*
X023233Y007436D02*
X023279Y007436D01*
X023548Y007058D02*
X023594Y007058D01*
X023548Y007058D02*
X023548Y007478D01*
X023594Y007478D01*
X023594Y007058D01*
X023594Y007247D02*
X023548Y007247D01*
X023548Y007436D02*
X023594Y007436D01*
X023863Y007058D02*
X023909Y007058D01*
X023863Y007058D02*
X023863Y007478D01*
X023909Y007478D01*
X023909Y007058D01*
X023909Y007247D02*
X023863Y007247D01*
X023863Y007436D02*
X023909Y007436D01*
X024178Y007058D02*
X024224Y007058D01*
X024178Y007058D02*
X024178Y007478D01*
X024224Y007478D01*
X024224Y007058D01*
X024224Y007247D02*
X024178Y007247D01*
X024178Y007436D02*
X024224Y007436D01*
X024493Y007058D02*
X024539Y007058D01*
X024493Y007058D02*
X024493Y007478D01*
X024539Y007478D01*
X024539Y007058D01*
X024539Y007247D02*
X024493Y007247D01*
X024493Y007436D02*
X024539Y007436D01*
X024808Y007058D02*
X024854Y007058D01*
X024808Y007058D02*
X024808Y007478D01*
X024854Y007478D01*
X024854Y007058D01*
X024854Y007247D02*
X024808Y007247D01*
X024808Y007436D02*
X024854Y007436D01*
X025123Y007058D02*
X025169Y007058D01*
X025123Y007058D02*
X025123Y007478D01*
X025169Y007478D01*
X025169Y007058D01*
X025169Y007247D02*
X025123Y007247D01*
X025123Y007436D02*
X025169Y007436D01*
X025438Y007058D02*
X025484Y007058D01*
X025438Y007058D02*
X025438Y007478D01*
X025484Y007478D01*
X025484Y007058D01*
X025484Y007247D02*
X025438Y007247D01*
X025438Y007436D02*
X025484Y007436D01*
X025753Y007058D02*
X025799Y007058D01*
X025753Y007058D02*
X025753Y007478D01*
X025799Y007478D01*
X025799Y007058D01*
X025799Y007247D02*
X025753Y007247D01*
X025753Y007436D02*
X025799Y007436D01*
X026274Y007953D02*
X026694Y007953D01*
X026274Y007953D02*
X026274Y007999D01*
X026694Y007999D01*
X026694Y007953D01*
X026694Y008268D02*
X026274Y008268D01*
X026274Y008314D01*
X026694Y008314D01*
X026694Y008268D01*
X026694Y008583D02*
X026274Y008583D01*
X026274Y008629D01*
X026694Y008629D01*
X026694Y008583D01*
X026694Y008898D02*
X026274Y008898D01*
X026274Y008944D01*
X026694Y008944D01*
X026694Y008898D01*
X026694Y009213D02*
X026274Y009213D01*
X026274Y009259D01*
X026694Y009259D01*
X026694Y009213D01*
X026694Y009528D02*
X026274Y009528D01*
X026274Y009574D01*
X026694Y009574D01*
X026694Y009528D01*
X026694Y009843D02*
X026274Y009843D01*
X026274Y009889D01*
X026694Y009889D01*
X026694Y009843D01*
X026694Y010158D02*
X026274Y010158D01*
X026274Y010204D01*
X026694Y010204D01*
X026694Y010158D01*
X026694Y010473D02*
X026274Y010473D01*
X026274Y010519D01*
X026694Y010519D01*
X026694Y010473D01*
X026694Y010788D02*
X026274Y010788D01*
X026274Y010834D01*
X026694Y010834D01*
X026694Y010788D01*
X026694Y011103D02*
X026274Y011103D01*
X026274Y011149D01*
X026694Y011149D01*
X026694Y011103D01*
X025799Y011625D02*
X025753Y011625D01*
X025753Y012045D01*
X025799Y012045D01*
X025799Y011625D01*
X025799Y011814D02*
X025753Y011814D01*
X025753Y012003D02*
X025799Y012003D01*
X025484Y011625D02*
X025438Y011625D01*
X025438Y012045D01*
X025484Y012045D01*
X025484Y011625D01*
X025484Y011814D02*
X025438Y011814D01*
X025438Y012003D02*
X025484Y012003D01*
X025169Y011625D02*
X025123Y011625D01*
X025123Y012045D01*
X025169Y012045D01*
X025169Y011625D01*
X025169Y011814D02*
X025123Y011814D01*
X025123Y012003D02*
X025169Y012003D01*
X024854Y011625D02*
X024808Y011625D01*
X024808Y012045D01*
X024854Y012045D01*
X024854Y011625D01*
X024854Y011814D02*
X024808Y011814D01*
X024808Y012003D02*
X024854Y012003D01*
X024539Y011625D02*
X024493Y011625D01*
X024493Y012045D01*
X024539Y012045D01*
X024539Y011625D01*
X024539Y011814D02*
X024493Y011814D01*
X024493Y012003D02*
X024539Y012003D01*
X024224Y011625D02*
X024178Y011625D01*
X024178Y012045D01*
X024224Y012045D01*
X024224Y011625D01*
X024224Y011814D02*
X024178Y011814D01*
X024178Y012003D02*
X024224Y012003D01*
X023909Y011625D02*
X023863Y011625D01*
X023863Y012045D01*
X023909Y012045D01*
X023909Y011625D01*
X023909Y011814D02*
X023863Y011814D01*
X023863Y012003D02*
X023909Y012003D01*
X023594Y011625D02*
X023548Y011625D01*
X023548Y012045D01*
X023594Y012045D01*
X023594Y011625D01*
X023594Y011814D02*
X023548Y011814D01*
X023548Y012003D02*
X023594Y012003D01*
X023279Y011625D02*
X023233Y011625D01*
X023233Y012045D01*
X023279Y012045D01*
X023279Y011625D01*
X023279Y011814D02*
X023233Y011814D01*
X023233Y012003D02*
X023279Y012003D01*
X022964Y011625D02*
X022918Y011625D01*
X022918Y012045D01*
X022964Y012045D01*
X022964Y011625D01*
X022964Y011814D02*
X022918Y011814D01*
X022918Y012003D02*
X022964Y012003D01*
X022649Y011625D02*
X022603Y011625D01*
X022603Y012045D01*
X022649Y012045D01*
X022649Y011625D01*
X022649Y011814D02*
X022603Y011814D01*
X022603Y012003D02*
X022649Y012003D01*
X022127Y011103D02*
X021707Y011103D01*
X021707Y011149D01*
X022127Y011149D01*
X022127Y011103D01*
X022127Y010788D02*
X021707Y010788D01*
X021707Y010834D01*
X022127Y010834D01*
X022127Y010788D01*
X022127Y010473D02*
X021707Y010473D01*
X021707Y010519D01*
X022127Y010519D01*
X022127Y010473D01*
X022127Y010158D02*
X021707Y010158D01*
X021707Y010204D01*
X022127Y010204D01*
X022127Y010158D01*
D19*
X024201Y009551D03*
D20*
X024918Y018104D03*
X025391Y018104D03*
X025863Y018104D03*
X026336Y018104D03*
X026808Y018104D03*
X027281Y018104D03*
X027753Y018104D03*
X028225Y018104D03*
X028698Y018104D03*
X029170Y018104D03*
X029643Y018104D03*
X030115Y018104D03*
X030588Y018104D03*
X030588Y023616D03*
X030115Y023616D03*
X029643Y023616D03*
X029170Y023616D03*
X028698Y023616D03*
X028225Y023616D03*
X027753Y023616D03*
X027281Y023616D03*
X026808Y023616D03*
X026336Y023616D03*
X025863Y023616D03*
X025391Y023616D03*
X024918Y023616D03*
D21*
X023698Y022002D03*
X023698Y021530D03*
X023698Y021057D03*
X023698Y020585D03*
X023698Y020112D03*
X023698Y019640D03*
D22*
X021506Y025145D03*
X020719Y025145D03*
X019931Y025145D03*
X019144Y025145D03*
D23*
X001256Y018979D03*
X001256Y018221D03*
D24*
X001256Y017527D03*
X001453Y017527D03*
X001453Y019673D03*
X001256Y019673D03*
D25*
X001404Y019673D03*
X001404Y017527D03*
D26*
X002024Y017424D03*
X002024Y019776D03*
D27*
X002547Y019742D03*
X002547Y017458D03*
D28*
X002469Y017645D03*
X002626Y017645D03*
X002626Y019555D03*
X002469Y019555D03*
D29*
X002467Y019112D03*
X002467Y018856D03*
X002467Y018600D03*
X002467Y018344D03*
X002467Y018088D03*
D30*
X022100Y004043D03*
X025900Y004043D03*
D31*
X009768Y008177D03*
X009768Y008374D03*
X009768Y008571D03*
X009768Y008768D03*
X009768Y008965D03*
X008705Y008965D03*
X008705Y008768D03*
X008705Y008571D03*
X008705Y008374D03*
X008705Y008177D03*
D32*
X009236Y008571D03*
D33*
X008646Y007547D03*
X008646Y006839D03*
X008646Y003413D03*
X008646Y002705D03*
X007858Y002705D03*
X007858Y003413D03*
X003921Y019437D03*
X003921Y020146D03*
X008959Y020242D03*
X008959Y019533D03*
X012976Y020028D03*
X012976Y020736D03*
D34*
X013035Y019398D03*
X013705Y019398D03*
X018350Y022941D03*
X019020Y022941D03*
X020319Y016445D03*
X020988Y016445D03*
X023272Y012902D03*
X023941Y012902D03*
X020594Y009555D03*
X019925Y009555D03*
X023665Y006484D03*
X024335Y006484D03*
X024453Y005618D03*
X025122Y005618D03*
X023547Y005618D03*
X022878Y005618D03*
X031736Y004831D03*
X032406Y004831D03*
X013508Y007941D03*
X012839Y007941D03*
X012839Y008768D03*
X013508Y008768D03*
X011146Y011130D03*
X010476Y011130D03*
X011854Y012311D03*
X012524Y012311D03*
X007602Y006996D03*
X006933Y006996D03*
X008705Y005224D03*
X009374Y005224D03*
D35*
X007661Y007941D03*
X007661Y009201D03*
D36*
X009433Y003984D03*
X009630Y003984D03*
X009827Y003984D03*
X010024Y003984D03*
X010220Y003984D03*
X010220Y002921D03*
X010024Y002921D03*
X009827Y002921D03*
X009630Y002921D03*
X009433Y002921D03*
D37*
X009827Y003453D03*
D38*
X010654Y002862D03*
X011362Y002862D03*
X009394Y009555D03*
X008685Y009555D03*
X008685Y010146D03*
X009394Y010146D03*
D39*
X009197Y001878D03*
X010457Y001878D03*
D40*
X009630Y012429D03*
X008843Y012429D03*
D41*
X007898Y014476D03*
X010575Y014476D03*
D42*
X011165Y021169D03*
X009709Y021169D03*
D43*
X013173Y011563D03*
X012799Y010697D03*
X013547Y010697D03*
X013587Y005657D03*
X014335Y005657D03*
X013961Y004791D03*
D44*
X028634Y003138D03*
X029618Y003138D03*
X030602Y003138D03*
X031587Y003138D03*
X015317Y022404D03*
X014333Y022404D03*
X014333Y023388D03*
X015317Y023388D03*
X015317Y024372D03*
X014333Y024372D03*
D45*
X013998Y025632D03*
X015652Y021144D03*
D46*
X025825Y028375D03*
X026825Y028375D03*
X003575Y022750D03*
X003575Y021750D03*
D47*
X006244Y021937D03*
X006244Y021189D03*
X007110Y021563D03*
D48*
X001700Y008575D03*
X001700Y007787D03*
X001700Y007000D03*
X001700Y006213D03*
X001700Y005425D03*
D49*
X022274Y015410D03*
X022274Y016158D03*
X023297Y016158D03*
X023297Y015784D03*
X023297Y015410D03*
X023364Y017912D03*
X023364Y018660D03*
X022341Y018660D03*
X022341Y018286D03*
X022341Y017912D03*
D50*
X019423Y004181D03*
X019423Y002724D03*
X017553Y002724D03*
X017553Y004181D03*
D51*
X012159Y019496D03*
X012159Y019693D03*
X012159Y019890D03*
X012159Y020087D03*
X011037Y020087D03*
X011037Y019890D03*
X011037Y019693D03*
X011037Y019496D03*
D52*
X011598Y019594D03*
D53*
X006874Y016287D03*
X006874Y015421D03*
D54*
X003567Y008571D03*
X002701Y008571D03*
X029276Y008374D03*
X030142Y008374D03*
D55*
X007258Y019211D03*
X007258Y019467D03*
X007258Y019722D03*
X007258Y019978D03*
X005703Y019978D03*
X005703Y019722D03*
X005703Y019467D03*
X005703Y019211D03*
D56*
X015055Y019004D03*
X017591Y019004D03*
D57*
X013037Y022154D03*
X011735Y022154D03*
D58*
X012937Y002665D03*
X013803Y002665D03*
D59*
X013528Y003433D03*
X013213Y003433D03*
D60*
X011598Y003650D03*
X010614Y004043D03*
X010220Y003453D03*
X009433Y003453D03*
X008646Y004043D03*
X008252Y004634D03*
X009433Y004634D03*
X010024Y006012D03*
X011008Y006209D03*
X010220Y007390D03*
X011008Y007587D03*
X011402Y008768D03*
X012189Y008768D03*
X011795Y009555D03*
X011008Y009949D03*
X010220Y009949D03*
X010220Y010539D03*
X011795Y011130D03*
X012780Y009555D03*
X013961Y009555D03*
X016520Y009161D03*
X017701Y009358D03*
X019276Y008965D03*
X021835Y006996D03*
X022819Y006209D03*
X023016Y005028D03*
X022819Y002469D03*
X021835Y002469D03*
X019472Y004831D03*
X019276Y006209D03*
X015732Y005028D03*
X015339Y003256D03*
X012189Y004634D03*
X009236Y006799D03*
X008646Y006012D03*
X009236Y008177D03*
X009236Y008965D03*
X010417Y008768D03*
X012583Y007193D03*
X006874Y009949D03*
X006874Y010736D03*
X005693Y008177D03*
X001559Y010539D03*
X001559Y011917D03*
X001559Y013098D03*
X006480Y017232D03*
X007071Y016839D03*
X009039Y018413D03*
X010220Y018807D03*
X011598Y018020D03*
X012189Y018807D03*
X012583Y017823D03*
X013370Y017429D03*
X011795Y016445D03*
X010614Y015854D03*
X011402Y014476D03*
X012386Y013886D03*
X012583Y013098D03*
X015339Y014083D03*
X015929Y014673D03*
X017110Y014870D03*
X017701Y016445D03*
X019669Y017429D03*
X020850Y018217D03*
X019276Y019201D03*
X022425Y017232D03*
X021441Y015461D03*
X020260Y015657D03*
X020260Y012902D03*
X021441Y011720D03*
X022425Y012902D03*
X023945Y013453D03*
X025575Y013492D03*
X025772Y015461D03*
X026756Y015657D03*
X025969Y016642D03*
X024787Y016642D03*
X027937Y016642D03*
X029118Y014673D03*
X030496Y014083D03*
X029906Y011524D03*
X029118Y010146D03*
X028528Y009555D03*
X027937Y010146D03*
X027346Y011327D03*
X027346Y007783D03*
X029315Y006209D03*
X028528Y005028D03*
X026953Y005815D03*
X018094Y011720D03*
X016520Y012311D03*
X009630Y013886D03*
X006480Y019398D03*
X006480Y020185D03*
X005496Y020776D03*
X004906Y022154D03*
X008055Y020776D03*
X009236Y021169D03*
X010417Y021169D03*
X009039Y022547D03*
X013567Y021169D03*
X013567Y020579D03*
X013567Y019988D03*
X019144Y022285D03*
X022622Y025303D03*
X024197Y025500D03*
X025378Y025106D03*
X028528Y022154D03*
X027150Y020776D03*
X025378Y019988D03*
X018094Y025500D03*
X002740Y004437D03*
M02*
